G75*
%MOIN*%
%OFA0B0*%
%FSLAX24Y24*%
%IPPOS*%
%LPD*%
%AMOC8*
5,1,8,0,0,1.08239X$1,22.5*
%
%ADD10C,0.0160*%
%ADD11C,0.0060*%
%ADD12C,0.0080*%
%ADD13C,0.0050*%
%ADD14C,0.0010*%
%ADD15C,0.0000*%
%ADD16C,0.0030*%
%ADD17C,0.0040*%
%ADD18R,0.0750X0.0350*%
%ADD19R,0.0550X0.0300*%
D10*
X010595Y000377D02*
X019059Y000377D01*
X019059Y011912D01*
X010595Y011912D01*
X010595Y000377D01*
D11*
X006012Y005719D02*
X006012Y005956D01*
X005540Y005956D02*
X005540Y005719D01*
X005540Y007054D02*
X005540Y007290D01*
X006012Y007290D02*
X006012Y007054D01*
X007492Y007223D02*
X007728Y007223D01*
X007728Y006751D02*
X007492Y006751D01*
X007492Y006318D02*
X007728Y006318D01*
X007728Y005845D02*
X007492Y005845D01*
X007425Y010381D02*
X007189Y010381D01*
X007189Y010853D02*
X007425Y010853D01*
X007977Y013125D02*
X008213Y013125D01*
X008213Y013597D02*
X007977Y013597D01*
X007977Y013763D02*
X008213Y013763D01*
X008213Y014235D02*
X007977Y014235D01*
X006567Y015267D02*
X006331Y015267D01*
X006331Y015739D02*
X006567Y015739D01*
X005221Y015739D02*
X004984Y015739D01*
X004984Y015267D02*
X005221Y015267D01*
X003980Y015282D02*
X003744Y015282D01*
X003744Y015755D02*
X003980Y015755D01*
X003709Y017121D02*
X003473Y017121D01*
X003473Y017593D02*
X003709Y017593D01*
X004288Y019003D02*
X004524Y019003D01*
X004524Y019475D02*
X004288Y019475D01*
X005543Y019475D02*
X005780Y019475D01*
X005780Y019003D02*
X005543Y019003D01*
X006358Y017601D02*
X006595Y017601D01*
X006595Y017129D02*
X006358Y017129D01*
X003059Y012979D02*
X002823Y012979D01*
X002823Y012507D02*
X003059Y012507D01*
X003063Y012267D02*
X002827Y012267D01*
X002827Y011794D02*
X003063Y011794D01*
X012839Y021219D02*
X012839Y021456D01*
X013311Y021456D02*
X013311Y021219D01*
X014339Y021219D02*
X014339Y021456D01*
X014811Y021456D02*
X014811Y021219D01*
X016004Y022141D02*
X016004Y022377D01*
X016477Y022377D02*
X016477Y022141D01*
X012036Y022774D02*
X012036Y023011D01*
X011563Y023011D02*
X011563Y022774D01*
X011563Y024082D02*
X011563Y024318D01*
X012036Y024318D02*
X012036Y024082D01*
X009467Y026151D02*
X009467Y028151D01*
X001717Y028151D01*
X001717Y026151D01*
X009467Y026151D01*
X007917Y027601D02*
X007867Y027651D01*
X007817Y027701D01*
X007767Y027751D01*
X007717Y027801D01*
X007717Y027401D01*
X007767Y027451D01*
X007767Y027601D01*
X006967Y027601D01*
X007767Y027601D02*
X007767Y027751D01*
X007817Y027701D02*
X007817Y027501D01*
X007867Y027551D01*
X007867Y027651D01*
X007917Y027601D02*
X007867Y027551D01*
X007917Y027601D02*
X007767Y027601D01*
X007817Y027501D02*
X007767Y027451D01*
X009475Y028939D02*
X009475Y030939D01*
X001725Y030939D01*
X001725Y028939D01*
X009475Y028939D01*
X007825Y030289D02*
X007775Y030239D01*
X007725Y030189D01*
X007725Y030589D01*
X007775Y030539D01*
X007775Y030389D01*
X006975Y030389D01*
X007775Y030389D02*
X007775Y030239D01*
X007825Y030289D02*
X007875Y030339D01*
X007875Y030439D01*
X007825Y030489D01*
X007775Y030539D01*
X007825Y030489D02*
X007825Y030289D01*
X007875Y030339D02*
X007925Y030389D01*
X007875Y030439D01*
X007925Y030389D02*
X007775Y030389D01*
X005433Y025912D02*
X005197Y025912D01*
X005197Y025440D02*
X005433Y025440D01*
X003201Y024184D02*
X002965Y024184D01*
X002965Y023711D02*
X003201Y023711D01*
X003205Y023526D02*
X002969Y023526D01*
X002969Y023054D02*
X003205Y023054D01*
X008063Y022853D02*
X008299Y022853D01*
X008299Y022381D02*
X008063Y022381D01*
X008055Y023991D02*
X008291Y023991D01*
X008291Y024463D02*
X008055Y024463D01*
X014831Y026310D02*
X014831Y026546D01*
X015303Y026546D02*
X015303Y026310D01*
X015602Y026310D02*
X015602Y026546D01*
X016075Y026546D02*
X016075Y026310D01*
X025669Y021330D02*
X025906Y021330D01*
X025906Y020857D02*
X025669Y020857D01*
X027957Y019282D02*
X028193Y019282D01*
X028193Y018810D02*
X027957Y018810D01*
X027957Y018574D02*
X028193Y018574D01*
X028193Y018101D02*
X027957Y018101D01*
X027957Y017826D02*
X028193Y017826D01*
X028193Y017353D02*
X027957Y017353D01*
X027957Y017038D02*
X028193Y017038D01*
X028193Y016566D02*
X027957Y016566D01*
X027957Y016361D02*
X028193Y016361D01*
X028193Y015889D02*
X027957Y015889D01*
X030595Y013999D02*
X030831Y013999D01*
X030831Y013526D02*
X030595Y013526D01*
X031776Y014904D02*
X031776Y015141D01*
X032248Y015141D02*
X032248Y014904D01*
X034177Y014865D02*
X034414Y014865D01*
X034414Y015337D02*
X034177Y015337D01*
X035043Y015652D02*
X035280Y015652D01*
X035280Y016125D02*
X035043Y016125D01*
X035043Y016487D02*
X035280Y016487D01*
X035280Y016960D02*
X035043Y016960D01*
X035043Y017306D02*
X035280Y017306D01*
X035280Y017778D02*
X035043Y017778D01*
X035043Y018054D02*
X035280Y018054D01*
X035280Y018526D02*
X035043Y018526D01*
X035043Y018841D02*
X035280Y018841D01*
X035280Y019314D02*
X035043Y019314D01*
X033862Y022621D02*
X033626Y022621D01*
X033626Y023093D02*
X033862Y023093D01*
X035528Y023015D02*
X035528Y023251D01*
X036000Y023251D02*
X036000Y023015D01*
X031697Y026715D02*
X031697Y026952D01*
X031225Y026952D02*
X031225Y026715D01*
X029957Y022475D02*
X029957Y022239D01*
X029484Y022239D02*
X029484Y022475D01*
X029477Y021263D02*
X029477Y021026D01*
X029949Y021026D02*
X029949Y021263D01*
X030130Y021255D02*
X030130Y021019D01*
X030602Y021019D02*
X030602Y021255D01*
X038351Y012227D02*
X038587Y012227D01*
X038587Y011755D02*
X038351Y011755D01*
X037957Y009826D02*
X037721Y009826D01*
X037721Y009353D02*
X037957Y009353D01*
X036776Y009353D02*
X036540Y009353D01*
X036540Y009826D02*
X036776Y009826D01*
X035595Y009826D02*
X035358Y009826D01*
X035358Y009353D02*
X035595Y009353D01*
X030477Y009353D02*
X030240Y009353D01*
X030240Y009826D02*
X030477Y009826D01*
X029295Y009826D02*
X029059Y009826D01*
X029059Y009353D02*
X029295Y009353D01*
X028114Y009353D02*
X027878Y009353D01*
X027878Y009826D02*
X028114Y009826D01*
X021854Y010849D02*
X021618Y010849D01*
X021618Y011322D02*
X021854Y011322D01*
X020398Y006361D02*
X020162Y006361D01*
X020162Y005889D02*
X020398Y005889D01*
X020476Y004207D02*
X020476Y000807D01*
X022776Y000807D01*
X022776Y004207D01*
X020476Y004207D01*
X020676Y003627D02*
X020697Y003625D01*
X020718Y003620D01*
X020738Y003611D01*
X020756Y003600D01*
X020772Y003585D01*
X020785Y003568D01*
X020795Y003549D01*
X020802Y003529D01*
X020806Y003508D01*
X020806Y003486D01*
X020802Y003465D01*
X020795Y003445D01*
X020785Y003426D01*
X020772Y003409D01*
X020756Y003394D01*
X020738Y003383D01*
X020718Y003374D01*
X020697Y003369D01*
X020676Y003367D01*
X020655Y003365D01*
X020634Y003360D01*
X020614Y003351D01*
X020596Y003340D01*
X020580Y003325D01*
X020567Y003308D01*
X020557Y003289D01*
X020550Y003269D01*
X020546Y003248D01*
X020546Y003226D01*
X020550Y003205D01*
X020557Y003185D01*
X020567Y003166D01*
X020580Y003149D01*
X020596Y003134D01*
X020614Y003123D01*
X020634Y003114D01*
X020655Y003109D01*
X020676Y003107D01*
X022426Y003157D02*
X022426Y003557D01*
X022426Y001557D02*
X022426Y001157D01*
X022176Y001357D02*
X022178Y001388D01*
X022184Y001419D01*
X022194Y001449D01*
X022207Y001477D01*
X022224Y001504D01*
X022244Y001528D01*
X022267Y001550D01*
X022292Y001568D01*
X022320Y001583D01*
X022349Y001595D01*
X022379Y001603D01*
X022410Y001607D01*
X022442Y001607D01*
X022473Y001603D01*
X022503Y001595D01*
X022532Y001583D01*
X022560Y001568D01*
X022585Y001550D01*
X022608Y001528D01*
X022628Y001504D01*
X022645Y001477D01*
X022658Y001449D01*
X022668Y001419D01*
X022674Y001388D01*
X022676Y001357D01*
X022674Y001326D01*
X022668Y001295D01*
X022658Y001265D01*
X022645Y001237D01*
X022628Y001210D01*
X022608Y001186D01*
X022585Y001164D01*
X022560Y001146D01*
X022532Y001131D01*
X022503Y001119D01*
X022473Y001111D01*
X022442Y001107D01*
X022410Y001107D01*
X022379Y001111D01*
X022349Y001119D01*
X022320Y001131D01*
X022292Y001146D01*
X022267Y001164D01*
X022244Y001186D01*
X022224Y001210D01*
X022207Y001237D01*
X022194Y001265D01*
X022184Y001295D01*
X022178Y001326D01*
X022176Y001357D01*
X022226Y001357D02*
X022626Y001357D01*
X022776Y000807D02*
X022776Y000507D01*
X020476Y000507D01*
X020476Y000807D01*
X020676Y001107D02*
X020655Y001109D01*
X020634Y001114D01*
X020614Y001123D01*
X020596Y001134D01*
X020580Y001149D01*
X020567Y001166D01*
X020557Y001185D01*
X020550Y001205D01*
X020546Y001226D01*
X020546Y001248D01*
X020550Y001269D01*
X020557Y001289D01*
X020567Y001308D01*
X020580Y001325D01*
X020596Y001340D01*
X020614Y001351D01*
X020634Y001360D01*
X020655Y001365D01*
X020676Y001367D01*
X020697Y001369D01*
X020718Y001374D01*
X020738Y001383D01*
X020756Y001394D01*
X020772Y001409D01*
X020785Y001426D01*
X020795Y001445D01*
X020802Y001465D01*
X020806Y001486D01*
X020806Y001508D01*
X020802Y001529D01*
X020795Y001549D01*
X020785Y001568D01*
X020772Y001585D01*
X020756Y001600D01*
X020738Y001611D01*
X020718Y001620D01*
X020697Y001625D01*
X020676Y001627D01*
D12*
X003780Y002900D02*
X003780Y000341D01*
X010158Y000341D01*
X010158Y002900D01*
X003780Y002900D01*
X003780Y003294D01*
X010158Y003294D01*
X010158Y002900D01*
X008021Y006447D02*
X008021Y006867D01*
X007811Y006657D01*
X008091Y006657D01*
X007631Y006657D02*
X007631Y006797D01*
X007561Y006867D01*
X007350Y006867D01*
X007350Y006447D01*
X007350Y006587D02*
X007561Y006587D01*
X007631Y006657D01*
X007490Y006587D02*
X007631Y006447D01*
X007631Y007352D02*
X007490Y007492D01*
X007561Y007492D02*
X007350Y007492D01*
X007350Y007352D02*
X007350Y007772D01*
X007561Y007772D01*
X007631Y007702D01*
X007631Y007562D01*
X007561Y007492D01*
X007811Y007422D02*
X007881Y007352D01*
X008021Y007352D01*
X008091Y007422D01*
X008091Y007562D01*
X008021Y007632D01*
X007951Y007632D01*
X007811Y007562D01*
X007811Y007772D01*
X008091Y007772D01*
X005411Y007583D02*
X005411Y007443D01*
X005341Y007373D01*
X005411Y007192D02*
X005271Y007052D01*
X005271Y007122D02*
X005271Y006912D01*
X005411Y006912D02*
X004990Y006912D01*
X004990Y007122D01*
X005060Y007192D01*
X005201Y007192D01*
X005271Y007122D01*
X005060Y007373D02*
X004990Y007443D01*
X004990Y007583D01*
X005060Y007653D01*
X005130Y007653D01*
X005201Y007583D01*
X005271Y007653D01*
X005341Y007653D01*
X005411Y007583D01*
X005201Y007583D02*
X005201Y007513D01*
X005130Y006318D02*
X005060Y006318D01*
X004990Y006248D01*
X004990Y006108D01*
X005060Y006038D01*
X005060Y005858D02*
X005201Y005858D01*
X005271Y005788D01*
X005271Y005577D01*
X005411Y005577D02*
X004990Y005577D01*
X004990Y005788D01*
X005060Y005858D01*
X005271Y005718D02*
X005411Y005858D01*
X005411Y006038D02*
X005130Y006318D01*
X005411Y006318D02*
X005411Y006038D01*
X007047Y010982D02*
X007047Y011402D01*
X007257Y011402D01*
X007327Y011332D01*
X007327Y011192D01*
X007257Y011122D01*
X007047Y011122D01*
X007187Y011122D02*
X007327Y010982D01*
X007508Y010982D02*
X007788Y010982D01*
X007648Y010982D02*
X007648Y011402D01*
X007508Y011262D01*
X007968Y011262D02*
X008108Y011402D01*
X008108Y010982D01*
X007968Y010982D02*
X008248Y010982D01*
X008184Y012576D02*
X008044Y012576D01*
X007974Y012646D01*
X007794Y012576D02*
X007514Y012576D01*
X007654Y012576D02*
X007654Y012996D01*
X007514Y012856D01*
X007334Y012786D02*
X007264Y012716D01*
X007053Y012716D01*
X007053Y012576D02*
X007053Y012996D01*
X007264Y012996D01*
X007334Y012926D01*
X007334Y012786D01*
X007194Y012716D02*
X007334Y012576D01*
X007974Y012926D02*
X008044Y012996D01*
X008184Y012996D01*
X008254Y012926D01*
X008254Y012856D01*
X008184Y012786D01*
X008254Y012716D01*
X008254Y012646D01*
X008184Y012576D01*
X008184Y012786D02*
X008114Y012786D01*
X008115Y014364D02*
X007975Y014504D01*
X008045Y014504D02*
X007835Y014504D01*
X007835Y014364D02*
X007835Y014784D01*
X008045Y014784D01*
X008115Y014714D01*
X008115Y014574D01*
X008045Y014504D01*
X008295Y014364D02*
X008575Y014364D01*
X008435Y014364D02*
X008435Y014784D01*
X008295Y014644D01*
X008755Y014574D02*
X009036Y014574D01*
X008966Y014364D02*
X008966Y014784D01*
X008755Y014574D01*
X006609Y014718D02*
X006329Y014718D01*
X006609Y014998D01*
X006609Y015068D01*
X006539Y015138D01*
X006399Y015138D01*
X006329Y015068D01*
X006008Y015138D02*
X006008Y014718D01*
X005868Y014718D02*
X006148Y014718D01*
X005868Y014998D02*
X006008Y015138D01*
X005688Y015068D02*
X005688Y014928D01*
X005618Y014858D01*
X005408Y014858D01*
X005548Y014858D02*
X005688Y014718D01*
X005408Y014718D02*
X005408Y015138D01*
X005618Y015138D01*
X005688Y015068D01*
X005262Y015138D02*
X004982Y015138D01*
X004982Y014928D01*
X005122Y014998D01*
X005192Y014998D01*
X005262Y014928D01*
X005262Y014788D01*
X005192Y014718D01*
X005052Y014718D01*
X004982Y014788D01*
X004802Y014788D02*
X004802Y014858D01*
X004732Y014928D01*
X004522Y014928D01*
X004522Y014788D01*
X004592Y014718D01*
X004732Y014718D01*
X004802Y014788D01*
X004662Y015068D02*
X004522Y014928D01*
X004662Y015068D02*
X004802Y015138D01*
X004342Y015068D02*
X004271Y015138D01*
X004131Y015138D01*
X004061Y015068D01*
X004061Y014788D01*
X004131Y014718D01*
X004271Y014718D01*
X004342Y014788D01*
X004022Y014804D02*
X003952Y014734D01*
X003812Y014734D01*
X003742Y014804D01*
X003742Y014944D02*
X003882Y015014D01*
X003952Y015014D01*
X004022Y014944D01*
X004022Y014804D01*
X003742Y014944D02*
X003742Y015154D01*
X004022Y015154D01*
X003422Y015154D02*
X003422Y014734D01*
X003282Y014734D02*
X003562Y014734D01*
X003282Y015014D02*
X003422Y015154D01*
X003101Y015084D02*
X003101Y014944D01*
X003031Y014874D01*
X002821Y014874D01*
X002961Y014874D02*
X003101Y014734D01*
X002821Y014734D02*
X002821Y015154D01*
X003031Y015154D01*
X003101Y015084D01*
X003010Y016572D02*
X003010Y016993D01*
X003220Y016993D01*
X003290Y016922D01*
X003290Y016782D01*
X003220Y016712D01*
X003010Y016712D01*
X003150Y016712D02*
X003290Y016572D01*
X003470Y016642D02*
X003470Y016712D01*
X003540Y016782D01*
X003680Y016782D01*
X003751Y016712D01*
X003751Y016642D01*
X003680Y016572D01*
X003540Y016572D01*
X003470Y016642D01*
X003540Y016782D02*
X003470Y016852D01*
X003470Y016922D01*
X003540Y016993D01*
X003680Y016993D01*
X003751Y016922D01*
X003751Y016852D01*
X003680Y016782D01*
X006217Y017730D02*
X006217Y018150D01*
X006427Y018150D01*
X006497Y018080D01*
X006497Y017940D01*
X006427Y017870D01*
X006217Y017870D01*
X006357Y017870D02*
X006497Y017730D01*
X006677Y017800D02*
X006747Y017730D01*
X006887Y017730D01*
X006957Y017800D01*
X006957Y018080D01*
X006887Y018150D01*
X006747Y018150D01*
X006677Y018080D01*
X006677Y018010D01*
X006747Y017940D01*
X006957Y017940D01*
X005862Y019604D02*
X005862Y019674D01*
X006142Y019954D01*
X006142Y020024D01*
X005862Y020024D01*
X005682Y019954D02*
X005682Y019814D01*
X005612Y019744D01*
X005402Y019744D01*
X005542Y019744D02*
X005682Y019604D01*
X005402Y019604D02*
X005402Y020024D01*
X005612Y020024D01*
X005682Y019954D01*
X004886Y020024D02*
X004746Y019954D01*
X004606Y019814D01*
X004816Y019814D01*
X004886Y019744D01*
X004886Y019674D01*
X004816Y019604D01*
X004676Y019604D01*
X004606Y019674D01*
X004606Y019814D01*
X004426Y019814D02*
X004356Y019744D01*
X004146Y019744D01*
X004286Y019744D02*
X004426Y019604D01*
X004426Y019814D02*
X004426Y019954D01*
X004356Y020024D01*
X004146Y020024D01*
X004146Y019604D01*
X003247Y022505D02*
X002966Y022505D01*
X003106Y022505D02*
X003106Y022926D01*
X002966Y022785D01*
X002786Y022645D02*
X002716Y022715D01*
X002506Y022715D01*
X002506Y022575D01*
X002576Y022505D01*
X002716Y022505D01*
X002786Y022575D01*
X002786Y022645D01*
X002646Y022856D02*
X002786Y022926D01*
X002646Y022856D02*
X002506Y022715D01*
X002326Y022575D02*
X002256Y022505D01*
X002116Y022505D01*
X002046Y022575D01*
X002046Y022856D01*
X002116Y022926D01*
X002256Y022926D01*
X002326Y022856D01*
X002893Y024313D02*
X003033Y024313D01*
X003103Y024383D01*
X003283Y024383D02*
X003353Y024313D01*
X003493Y024313D01*
X003563Y024383D01*
X003563Y024523D01*
X003493Y024593D01*
X003423Y024593D01*
X003283Y024523D01*
X003283Y024733D01*
X003563Y024733D01*
X003744Y024663D02*
X003744Y024593D01*
X003814Y024523D01*
X003954Y024523D01*
X004024Y024453D01*
X004024Y024383D01*
X003954Y024313D01*
X003814Y024313D01*
X003744Y024383D01*
X003744Y024453D01*
X003814Y024523D01*
X003954Y024523D02*
X004024Y024593D01*
X004024Y024663D01*
X003954Y024733D01*
X003814Y024733D01*
X003744Y024663D01*
X004274Y024891D02*
X004274Y025311D01*
X004484Y025311D01*
X004554Y025241D01*
X004554Y025101D01*
X004484Y025031D01*
X004274Y025031D01*
X004414Y025031D02*
X004554Y024891D01*
X004734Y024891D02*
X005015Y024891D01*
X004874Y024891D02*
X004874Y025311D01*
X004734Y025171D01*
X005195Y025311D02*
X005475Y025311D01*
X005475Y025241D01*
X005195Y024961D01*
X005195Y024891D01*
X007132Y023863D02*
X007342Y023863D01*
X007412Y023793D01*
X007412Y023652D01*
X007342Y023582D01*
X007132Y023582D01*
X007132Y023442D02*
X007132Y023863D01*
X007272Y023582D02*
X007412Y023442D01*
X007593Y023442D02*
X007873Y023442D01*
X007921Y023402D02*
X008131Y023402D01*
X008201Y023332D01*
X008201Y023192D01*
X008131Y023122D01*
X007921Y023122D01*
X007921Y022982D02*
X007921Y023402D01*
X008053Y023512D02*
X008053Y023652D01*
X008263Y023652D01*
X008333Y023582D01*
X008333Y023512D01*
X008263Y023442D01*
X008123Y023442D01*
X008053Y023512D01*
X008053Y023652D02*
X008193Y023793D01*
X008333Y023863D01*
X008522Y023402D02*
X008522Y022982D01*
X008382Y022982D02*
X008662Y022982D01*
X008842Y023052D02*
X008912Y022982D01*
X009052Y022982D01*
X009122Y023052D01*
X009122Y023332D01*
X009052Y023402D01*
X008912Y023402D01*
X008842Y023332D01*
X008842Y023262D01*
X008912Y023192D01*
X009122Y023192D01*
X008522Y023402D02*
X008382Y023262D01*
X008201Y022982D02*
X008061Y023122D01*
X007733Y023442D02*
X007733Y023863D01*
X007593Y023722D01*
X011014Y023764D02*
X011084Y023834D01*
X011364Y023553D01*
X011434Y023623D01*
X011434Y023764D01*
X011364Y023834D01*
X011084Y023834D01*
X011014Y023764D02*
X011014Y023623D01*
X011084Y023553D01*
X011364Y023553D01*
X011364Y023373D02*
X011294Y023373D01*
X011224Y023303D01*
X011224Y023093D01*
X011364Y023093D01*
X011434Y023163D01*
X011434Y023303D01*
X011364Y023373D01*
X011084Y023233D02*
X011224Y023093D01*
X011084Y023233D02*
X011014Y023373D01*
X011084Y022913D02*
X011014Y022843D01*
X011014Y022703D01*
X011084Y022633D01*
X011364Y022633D01*
X011434Y022703D01*
X011434Y022843D01*
X011364Y022913D01*
X011364Y023940D02*
X011084Y023940D01*
X011014Y024010D01*
X011014Y024150D01*
X011084Y024220D01*
X011014Y024400D02*
X011224Y024400D01*
X011154Y024540D01*
X011154Y024610D01*
X011224Y024680D01*
X011364Y024680D01*
X011434Y024610D01*
X011434Y024470D01*
X011364Y024400D01*
X011364Y024220D02*
X011434Y024150D01*
X011434Y024010D01*
X011364Y023940D01*
X011014Y024400D02*
X011014Y024680D01*
X011084Y024860D02*
X011154Y024860D01*
X011224Y024931D01*
X011224Y025141D01*
X011364Y025141D02*
X011084Y025141D01*
X011014Y025071D01*
X011014Y024931D01*
X011084Y024860D01*
X011364Y024860D02*
X011434Y024931D01*
X011434Y025071D01*
X011364Y025141D01*
X015053Y026168D02*
X015053Y026378D01*
X015123Y026448D01*
X015264Y026448D01*
X015334Y026378D01*
X015334Y026168D01*
X015474Y026168D02*
X015053Y026168D01*
X015334Y026308D02*
X015474Y026448D01*
X015502Y026448D02*
X015642Y026308D01*
X015642Y026518D01*
X015712Y026588D01*
X015782Y026588D01*
X015852Y026518D01*
X015852Y026378D01*
X015782Y026308D01*
X015642Y026308D01*
X015572Y026127D02*
X015502Y026127D01*
X015432Y026057D01*
X015432Y025917D01*
X015502Y025847D01*
X015502Y025667D02*
X015642Y025667D01*
X015712Y025597D01*
X015712Y025387D01*
X015712Y025527D02*
X015852Y025667D01*
X015852Y025847D02*
X015572Y026127D01*
X015852Y026127D02*
X015852Y025847D01*
X015502Y025667D02*
X015432Y025597D01*
X015432Y025387D01*
X015852Y025387D01*
X015502Y026448D02*
X015432Y026588D01*
X015474Y026628D02*
X015193Y026909D01*
X015123Y026909D01*
X015053Y026839D01*
X015053Y026698D01*
X015123Y026628D01*
X015474Y026628D02*
X015474Y026909D01*
X015474Y027089D02*
X015193Y027369D01*
X015123Y027369D01*
X015053Y027299D01*
X015053Y027159D01*
X015123Y027089D01*
X015474Y027089D02*
X015474Y027369D01*
X016605Y022419D02*
X016605Y022138D01*
X016815Y022138D01*
X016745Y022278D01*
X016745Y022349D01*
X016815Y022419D01*
X016955Y022419D01*
X017025Y022349D01*
X017025Y022208D01*
X016955Y022138D01*
X017025Y021958D02*
X017025Y021678D01*
X016745Y021958D01*
X016675Y021958D01*
X016605Y021888D01*
X016605Y021748D01*
X016675Y021678D01*
X016675Y021498D02*
X016815Y021498D01*
X016885Y021428D01*
X016885Y021218D01*
X016885Y021358D02*
X017025Y021498D01*
X017025Y021218D02*
X016605Y021218D01*
X016605Y021428D01*
X016675Y021498D01*
X014210Y021538D02*
X013930Y021818D01*
X013860Y021818D01*
X013790Y021748D01*
X013790Y021608D01*
X013860Y021538D01*
X013790Y021497D02*
X013860Y021427D01*
X013860Y021287D01*
X013790Y021217D01*
X013510Y021497D01*
X013790Y021497D01*
X013860Y021358D02*
X014000Y021358D01*
X014070Y021288D01*
X014070Y021077D01*
X014210Y021077D02*
X013790Y021077D01*
X013790Y021288D01*
X013860Y021358D01*
X013790Y021217D02*
X013510Y021217D01*
X013440Y021287D01*
X013440Y021427D01*
X013510Y021497D01*
X013510Y021037D02*
X013440Y020967D01*
X013440Y020827D01*
X013510Y020757D01*
X013510Y020577D02*
X013650Y020577D01*
X013720Y020506D01*
X013720Y020296D01*
X013860Y020296D02*
X013440Y020296D01*
X013440Y020506D01*
X013510Y020577D01*
X013720Y020436D02*
X013860Y020577D01*
X013860Y020757D02*
X013580Y021037D01*
X013510Y021037D01*
X013860Y021037D02*
X013860Y020757D01*
X014070Y021218D02*
X014210Y021358D01*
X014210Y021538D02*
X014210Y021818D01*
X014210Y021998D02*
X014210Y022279D01*
X014210Y022138D02*
X013790Y022138D01*
X013930Y021998D01*
X024746Y020659D02*
X024746Y020378D01*
X024816Y020308D01*
X024957Y020308D01*
X025027Y020378D01*
X025207Y020378D02*
X025277Y020308D01*
X025417Y020308D01*
X025487Y020378D01*
X025487Y020449D01*
X025417Y020519D01*
X025347Y020519D01*
X025417Y020519D02*
X025487Y020589D01*
X025487Y020659D01*
X025417Y020729D01*
X025277Y020729D01*
X025207Y020659D01*
X025027Y020659D02*
X024957Y020729D01*
X024816Y020729D01*
X024746Y020659D01*
X025667Y020659D02*
X025667Y020378D01*
X025947Y020659D01*
X025947Y020378D01*
X025877Y020308D01*
X025737Y020308D01*
X025667Y020378D01*
X025667Y020659D02*
X025737Y020729D01*
X025877Y020729D01*
X025947Y020659D01*
X025713Y019156D02*
X026973Y019156D01*
X027104Y018682D02*
X027034Y018611D01*
X027034Y018331D01*
X027104Y018261D01*
X027244Y018261D01*
X027314Y018331D01*
X027494Y018261D02*
X027774Y018541D01*
X027774Y018611D01*
X027704Y018682D01*
X027564Y018682D01*
X027494Y018611D01*
X027314Y018611D02*
X027244Y018682D01*
X027104Y018682D01*
X027494Y018261D02*
X027774Y018261D01*
X027955Y018261D02*
X027955Y018331D01*
X028235Y018611D01*
X028235Y018682D01*
X027955Y018682D01*
X027704Y017973D02*
X027564Y017973D01*
X027494Y017903D01*
X027314Y017903D02*
X027244Y017973D01*
X027104Y017973D01*
X027034Y017903D01*
X027034Y017623D01*
X027104Y017552D01*
X027244Y017552D01*
X027314Y017623D01*
X027494Y017552D02*
X027774Y017833D01*
X027774Y017903D01*
X027704Y017973D01*
X027955Y017763D02*
X028165Y017763D01*
X028235Y017693D01*
X028235Y017623D01*
X028165Y017552D01*
X028025Y017552D01*
X027955Y017623D01*
X027955Y017763D01*
X028095Y017903D01*
X028235Y017973D01*
X027774Y017552D02*
X027494Y017552D01*
X027564Y017225D02*
X027704Y017225D01*
X027774Y017155D01*
X027774Y017085D01*
X027704Y017015D01*
X027774Y016945D01*
X027774Y016875D01*
X027704Y016804D01*
X027564Y016804D01*
X027494Y016875D01*
X027314Y016875D02*
X027244Y016804D01*
X027104Y016804D01*
X027034Y016875D01*
X027034Y017155D01*
X027104Y017225D01*
X027244Y017225D01*
X027314Y017155D01*
X027494Y017155D02*
X027564Y017225D01*
X027634Y017015D02*
X027704Y017015D01*
X027955Y017155D02*
X028025Y017225D01*
X028165Y017225D01*
X028235Y017155D01*
X028235Y017085D01*
X027955Y016804D01*
X028235Y016804D01*
X028165Y016437D02*
X028025Y016437D01*
X027955Y016367D01*
X027955Y016297D01*
X028025Y016227D01*
X028235Y016227D01*
X028235Y016087D02*
X028235Y016367D01*
X028165Y016437D01*
X028235Y016087D02*
X028165Y016017D01*
X028025Y016017D01*
X027955Y016087D01*
X027774Y016017D02*
X027494Y016017D01*
X027774Y016297D01*
X027774Y016367D01*
X027704Y016437D01*
X027564Y016437D01*
X027494Y016367D01*
X027314Y016367D02*
X027244Y016437D01*
X027104Y016437D01*
X027034Y016367D01*
X027034Y016087D01*
X027104Y016017D01*
X027244Y016017D01*
X027314Y016087D01*
X027244Y015760D02*
X027104Y015760D01*
X027034Y015690D01*
X027034Y015410D01*
X027104Y015340D01*
X027244Y015340D01*
X027314Y015410D01*
X027494Y015340D02*
X027774Y015620D01*
X027774Y015690D01*
X027704Y015760D01*
X027564Y015760D01*
X027494Y015690D01*
X027314Y015690D02*
X027244Y015760D01*
X026973Y015652D02*
X025713Y015652D01*
X025713Y016676D02*
X026973Y016676D01*
X026973Y016912D02*
X025713Y016912D01*
X025713Y017936D02*
X026973Y017936D01*
X026973Y018133D02*
X025713Y018133D01*
X028025Y015760D02*
X028165Y015760D01*
X028235Y015690D01*
X028235Y015620D01*
X028165Y015550D01*
X028025Y015550D01*
X027955Y015620D01*
X027955Y015690D01*
X028025Y015760D01*
X028025Y015550D02*
X027955Y015480D01*
X027955Y015410D01*
X028025Y015340D01*
X028165Y015340D01*
X028235Y015410D01*
X028235Y015480D01*
X028165Y015550D01*
X027774Y015340D02*
X027494Y015340D01*
X030453Y014548D02*
X030453Y014128D01*
X030453Y014268D02*
X030663Y014268D01*
X030733Y014338D01*
X030733Y014478D01*
X030663Y014548D01*
X030453Y014548D01*
X030593Y014268D02*
X030733Y014128D01*
X030913Y014128D02*
X031193Y014408D01*
X031193Y014478D01*
X031123Y014548D01*
X030983Y014548D01*
X030913Y014478D01*
X030913Y014128D02*
X031193Y014128D01*
X031374Y014128D02*
X031374Y014198D01*
X031654Y014478D01*
X031654Y014548D01*
X031374Y014548D01*
X031618Y014235D02*
X032406Y014235D01*
X032406Y013684D01*
X032377Y013981D02*
X032377Y014192D01*
X032447Y014262D01*
X032587Y014262D01*
X032657Y014192D01*
X032657Y013981D01*
X032797Y013981D02*
X032377Y013981D01*
X032657Y014121D02*
X032797Y014262D01*
X032797Y014442D02*
X032517Y014722D01*
X032447Y014722D01*
X032377Y014652D01*
X032377Y014512D01*
X032447Y014442D01*
X032797Y014442D02*
X032797Y014722D01*
X032727Y014902D02*
X032657Y014902D01*
X032587Y014972D01*
X032587Y015112D01*
X032657Y015182D01*
X032727Y015182D01*
X032797Y015112D01*
X032797Y014972D01*
X032727Y014902D01*
X032587Y014972D02*
X032517Y014902D01*
X032447Y014902D01*
X032377Y014972D01*
X032377Y015112D01*
X032447Y015182D01*
X032517Y015182D01*
X032587Y015112D01*
X032484Y015771D02*
X033744Y015771D01*
X034120Y016008D02*
X034190Y015938D01*
X034331Y015938D01*
X034401Y016008D01*
X034581Y015938D02*
X034861Y016219D01*
X034861Y016289D01*
X034791Y016359D01*
X034651Y016359D01*
X034581Y016289D01*
X034401Y016289D02*
X034331Y016359D01*
X034190Y016359D01*
X034120Y016289D01*
X034120Y016008D01*
X034581Y015938D02*
X034861Y015938D01*
X035041Y016148D02*
X035251Y016359D01*
X035251Y015938D01*
X035321Y016148D02*
X035041Y016148D01*
X035041Y016757D02*
X035321Y016757D01*
X035181Y016757D02*
X035181Y017178D01*
X035041Y017037D01*
X034861Y017037D02*
X034861Y017108D01*
X034791Y017178D01*
X034651Y017178D01*
X034581Y017108D01*
X034401Y017108D02*
X034331Y017178D01*
X034190Y017178D01*
X034120Y017108D01*
X034120Y016827D01*
X034190Y016757D01*
X034331Y016757D01*
X034401Y016827D01*
X034581Y016757D02*
X034861Y017037D01*
X034861Y016757D02*
X034581Y016757D01*
X034581Y017505D02*
X034861Y017785D01*
X034861Y017856D01*
X034791Y017926D01*
X034651Y017926D01*
X034581Y017856D01*
X034401Y017856D02*
X034331Y017926D01*
X034190Y017926D01*
X034120Y017856D01*
X034120Y017575D01*
X034190Y017505D01*
X034331Y017505D01*
X034401Y017575D01*
X034581Y017505D02*
X034861Y017505D01*
X035041Y017505D02*
X035321Y017785D01*
X035321Y017856D01*
X035251Y017926D01*
X035111Y017926D01*
X035041Y017856D01*
X035111Y018293D02*
X035041Y018363D01*
X035111Y018293D02*
X035251Y018293D01*
X035321Y018363D01*
X035321Y018433D01*
X035251Y018503D01*
X035181Y018503D01*
X035251Y018503D02*
X035321Y018573D01*
X035321Y018643D01*
X035251Y018713D01*
X035111Y018713D01*
X035041Y018643D01*
X034861Y018643D02*
X034791Y018713D01*
X034651Y018713D01*
X034581Y018643D01*
X034401Y018643D02*
X034331Y018713D01*
X034190Y018713D01*
X034120Y018643D01*
X034120Y018363D01*
X034190Y018293D01*
X034331Y018293D01*
X034401Y018363D01*
X034581Y018293D02*
X034861Y018573D01*
X034861Y018643D01*
X034861Y018293D02*
X034581Y018293D01*
X033744Y018133D02*
X032484Y018133D01*
X032484Y017975D02*
X033744Y017975D01*
X033744Y016952D02*
X032484Y016952D01*
X032484Y016794D02*
X033744Y016794D01*
X034190Y015524D02*
X034120Y015454D01*
X034120Y015174D01*
X034190Y015104D01*
X034331Y015104D01*
X034401Y015174D01*
X034581Y015104D02*
X034861Y015384D01*
X034861Y015454D01*
X034791Y015524D01*
X034651Y015524D01*
X034581Y015454D01*
X034401Y015454D02*
X034331Y015524D01*
X034190Y015524D01*
X034581Y015104D02*
X034861Y015104D01*
X035041Y015174D02*
X035111Y015104D01*
X035251Y015104D01*
X035321Y015174D01*
X035321Y015314D01*
X035251Y015384D01*
X035181Y015384D01*
X035041Y015314D01*
X035041Y015524D01*
X035321Y015524D01*
X034315Y014737D02*
X034315Y014316D01*
X034175Y014316D02*
X034455Y014316D01*
X034175Y014596D02*
X034315Y014737D01*
X033995Y014667D02*
X033995Y014596D01*
X033925Y014526D01*
X033995Y014456D01*
X033995Y014386D01*
X033925Y014316D01*
X033785Y014316D01*
X033715Y014386D01*
X033534Y014316D02*
X033394Y014456D01*
X033464Y014456D02*
X033254Y014456D01*
X033254Y014316D02*
X033254Y014737D01*
X033464Y014737D01*
X033534Y014667D01*
X033534Y014526D01*
X033464Y014456D01*
X033715Y014667D02*
X033785Y014737D01*
X033925Y014737D01*
X033995Y014667D01*
X033925Y014526D02*
X033855Y014526D01*
X032288Y013408D02*
X032012Y013408D01*
X032248Y013172D01*
X031776Y013172D01*
X032012Y013408D01*
X031736Y013408D01*
X031618Y013684D02*
X031618Y014235D01*
X031422Y014142D02*
X031422Y013861D01*
X031422Y014002D02*
X031002Y014002D01*
X031142Y013861D01*
X031072Y013681D02*
X031002Y013611D01*
X031002Y013401D01*
X031422Y013401D01*
X031422Y013611D01*
X031352Y013681D01*
X031072Y013681D01*
X031002Y013221D02*
X031002Y012941D01*
X031422Y012941D01*
X031422Y013221D01*
X031212Y013081D02*
X031212Y012941D01*
X031422Y012760D02*
X031422Y012480D01*
X031002Y012480D01*
X031618Y012345D02*
X032406Y012345D01*
X032406Y012897D01*
X031618Y012897D02*
X031618Y012345D01*
X031299Y010375D02*
X031159Y010305D01*
X031019Y010165D01*
X031229Y010165D01*
X031299Y010095D01*
X031299Y010025D01*
X031229Y009954D01*
X031089Y009954D01*
X031019Y010025D01*
X031019Y010165D01*
X030839Y010165D02*
X030559Y010165D01*
X030769Y010375D01*
X030769Y009954D01*
X030379Y010025D02*
X030309Y009954D01*
X030168Y009954D01*
X030098Y010025D01*
X030098Y010305D01*
X030168Y010375D01*
X030309Y010375D01*
X030379Y010305D01*
X029267Y009225D02*
X029337Y009155D01*
X029057Y008875D01*
X029127Y008804D01*
X029267Y008804D01*
X029337Y008875D01*
X029337Y009155D01*
X029267Y009225D02*
X029127Y009225D01*
X029057Y009155D01*
X029057Y008875D01*
X028877Y008875D02*
X028877Y008945D01*
X028807Y009015D01*
X028737Y009015D01*
X028807Y009015D02*
X028877Y009085D01*
X028877Y009155D01*
X028807Y009225D01*
X028667Y009225D01*
X028597Y009155D01*
X028416Y009155D02*
X028416Y009015D01*
X028346Y008945D01*
X028136Y008945D01*
X028156Y009015D02*
X027946Y009015D01*
X027876Y009085D01*
X027876Y009155D01*
X027946Y009225D01*
X028086Y009225D01*
X028156Y009155D01*
X028156Y008875D01*
X028086Y008804D01*
X027946Y008804D01*
X027876Y008875D01*
X027696Y008804D02*
X027415Y008804D01*
X027696Y009085D01*
X027696Y009155D01*
X027626Y009225D01*
X027485Y009225D01*
X027415Y009155D01*
X027235Y009155D02*
X027235Y009015D01*
X027165Y008945D01*
X026955Y008945D01*
X027095Y008945D02*
X027235Y008804D01*
X027091Y008645D02*
X027091Y007385D01*
X027024Y007325D02*
X027094Y007255D01*
X027374Y007255D01*
X027444Y007325D01*
X027444Y007465D01*
X027374Y007535D01*
X027234Y007715D02*
X027024Y007925D01*
X027444Y007925D01*
X027234Y007995D02*
X027234Y007715D01*
X027094Y007535D02*
X027024Y007465D01*
X027024Y007325D01*
X027164Y008175D02*
X027024Y008316D01*
X027444Y008316D01*
X027444Y008456D02*
X027444Y008175D01*
X026955Y008804D02*
X026955Y009225D01*
X027165Y009225D01*
X027235Y009155D01*
X028136Y009225D02*
X028136Y008804D01*
X028114Y008645D02*
X028114Y007385D01*
X028272Y007385D02*
X028272Y008645D01*
X028416Y008804D02*
X028276Y008945D01*
X028416Y009155D02*
X028346Y009225D01*
X028136Y009225D01*
X028597Y008875D02*
X028667Y008804D01*
X028807Y008804D01*
X028877Y008875D01*
X029295Y008645D02*
X029295Y007385D01*
X029453Y007385D02*
X029453Y008645D01*
X030477Y008645D02*
X030477Y007385D01*
X032221Y007265D02*
X032221Y007765D01*
X031441Y008015D02*
X031443Y008086D01*
X031449Y008157D01*
X031459Y008228D01*
X031473Y008297D01*
X031490Y008366D01*
X031512Y008434D01*
X031537Y008501D01*
X031566Y008566D01*
X031598Y008629D01*
X031634Y008691D01*
X031673Y008750D01*
X031716Y008807D01*
X031761Y008862D01*
X031810Y008914D01*
X031861Y008963D01*
X031915Y009009D01*
X031972Y009053D01*
X032030Y009093D01*
X032091Y009129D01*
X032154Y009163D01*
X032219Y009192D01*
X032285Y009218D01*
X032353Y009241D01*
X032421Y009259D01*
X032491Y009274D01*
X032561Y009285D01*
X032632Y009292D01*
X032703Y009295D01*
X032774Y009294D01*
X032845Y009289D01*
X032916Y009280D01*
X032986Y009267D01*
X033055Y009251D01*
X033123Y009230D01*
X033190Y009206D01*
X033256Y009178D01*
X033319Y009146D01*
X033381Y009111D01*
X033441Y009073D01*
X033499Y009031D01*
X033554Y008987D01*
X033607Y008939D01*
X033657Y008888D01*
X033704Y008835D01*
X033748Y008779D01*
X033789Y008721D01*
X033827Y008660D01*
X033861Y008598D01*
X033891Y008533D01*
X033918Y008468D01*
X033942Y008400D01*
X033961Y008332D01*
X033977Y008263D01*
X033989Y008192D01*
X033997Y008122D01*
X034001Y008051D01*
X034001Y007979D01*
X033997Y007908D01*
X033989Y007838D01*
X033977Y007767D01*
X033961Y007698D01*
X033942Y007630D01*
X033918Y007562D01*
X033891Y007497D01*
X033861Y007432D01*
X033827Y007370D01*
X033789Y007309D01*
X033748Y007251D01*
X033704Y007195D01*
X033657Y007142D01*
X033607Y007091D01*
X033554Y007043D01*
X033499Y006999D01*
X033441Y006957D01*
X033381Y006919D01*
X033319Y006884D01*
X033256Y006852D01*
X033190Y006824D01*
X033123Y006800D01*
X033055Y006779D01*
X032986Y006763D01*
X032916Y006750D01*
X032845Y006741D01*
X032774Y006736D01*
X032703Y006735D01*
X032632Y006738D01*
X032561Y006745D01*
X032491Y006756D01*
X032421Y006771D01*
X032353Y006789D01*
X032285Y006812D01*
X032219Y006838D01*
X032154Y006867D01*
X032091Y006901D01*
X032030Y006937D01*
X031972Y006977D01*
X031915Y007021D01*
X031861Y007067D01*
X031810Y007116D01*
X031761Y007168D01*
X031716Y007223D01*
X031673Y007280D01*
X031634Y007339D01*
X031598Y007401D01*
X031566Y007464D01*
X031537Y007529D01*
X031512Y007596D01*
X031490Y007664D01*
X031473Y007733D01*
X031459Y007802D01*
X031449Y007873D01*
X031443Y007944D01*
X031441Y008015D01*
X034110Y007925D02*
X034320Y007715D01*
X034320Y007995D01*
X034250Y008175D02*
X034320Y008245D01*
X034320Y008456D01*
X034180Y008456D02*
X034461Y008456D01*
X034531Y008386D01*
X034531Y008245D01*
X034461Y008175D01*
X034250Y008175D02*
X034180Y008175D01*
X034110Y008245D01*
X034110Y008386D01*
X034180Y008456D01*
X034435Y008804D02*
X034435Y009225D01*
X034646Y009225D01*
X034716Y009155D01*
X034716Y009015D01*
X034646Y008945D01*
X034435Y008945D01*
X034575Y008945D02*
X034716Y008804D01*
X034896Y008875D02*
X034966Y008804D01*
X035106Y008804D01*
X035176Y008875D01*
X035176Y008945D01*
X035106Y009015D01*
X035036Y009015D01*
X035106Y009015D02*
X035176Y009085D01*
X035176Y009155D01*
X035106Y009225D01*
X034966Y009225D01*
X034896Y009155D01*
X035356Y009155D02*
X035426Y009225D01*
X035566Y009225D01*
X035636Y009155D01*
X035636Y009085D01*
X035566Y009015D01*
X035636Y008945D01*
X035636Y008875D01*
X035566Y008804D01*
X035426Y008804D01*
X035356Y008875D01*
X035496Y009015D02*
X035566Y009015D01*
X035616Y008945D02*
X035827Y008945D01*
X035897Y009015D01*
X035897Y009155D01*
X035827Y009225D01*
X035616Y009225D01*
X035616Y008804D01*
X035595Y008645D02*
X035595Y007385D01*
X035752Y007385D02*
X035752Y008645D01*
X035897Y008804D02*
X035757Y008945D01*
X036077Y008875D02*
X036147Y008804D01*
X036287Y008804D01*
X036357Y008875D01*
X036357Y008945D01*
X036287Y009015D01*
X036217Y009015D01*
X036287Y009015D02*
X036357Y009085D01*
X036357Y009155D01*
X036287Y009225D01*
X036147Y009225D01*
X036077Y009155D01*
X036537Y009015D02*
X036817Y009015D01*
X036747Y009225D02*
X036537Y009015D01*
X036747Y009225D02*
X036747Y008804D01*
X036776Y008645D02*
X036776Y007385D01*
X036933Y007385D02*
X036933Y008645D01*
X037957Y008645D02*
X037957Y007385D01*
X038109Y009954D02*
X038039Y010025D01*
X038109Y009954D02*
X038249Y009954D01*
X038319Y010025D01*
X038319Y010165D01*
X038249Y010235D01*
X038179Y010235D01*
X038039Y010165D01*
X038039Y010375D01*
X038319Y010375D01*
X038499Y010165D02*
X038780Y010165D01*
X038710Y010375D02*
X038710Y009954D01*
X038499Y010165D02*
X038710Y010375D01*
X037859Y010305D02*
X037789Y010375D01*
X037649Y010375D01*
X037579Y010305D01*
X037579Y010025D01*
X037649Y009954D01*
X037789Y009954D01*
X037859Y010025D01*
X037958Y011206D02*
X037888Y011276D01*
X037958Y011206D02*
X038098Y011206D01*
X038168Y011276D01*
X038168Y011346D01*
X038098Y011416D01*
X038028Y011416D01*
X038098Y011416D02*
X038168Y011486D01*
X038168Y011556D01*
X038098Y011626D01*
X037958Y011626D01*
X037888Y011556D01*
X037708Y011556D02*
X037708Y011416D01*
X037638Y011346D01*
X037427Y011346D01*
X037427Y011206D02*
X037427Y011626D01*
X037638Y011626D01*
X037708Y011556D01*
X037568Y011346D02*
X037708Y011206D01*
X038348Y011206D02*
X038628Y011486D01*
X038628Y011556D01*
X038558Y011626D01*
X038418Y011626D01*
X038348Y011556D01*
X038348Y011206D02*
X038628Y011206D01*
X034571Y008645D02*
X034571Y007385D01*
X034531Y007325D02*
X034531Y007465D01*
X034461Y007535D01*
X034531Y007325D02*
X034461Y007255D01*
X034180Y007255D01*
X034110Y007325D01*
X034110Y007465D01*
X034180Y007535D01*
X034110Y007925D02*
X034531Y007925D01*
X034349Y004469D02*
X033849Y004469D01*
X032449Y003719D02*
X032451Y003831D01*
X032457Y003942D01*
X032467Y004054D01*
X032481Y004165D01*
X032498Y004275D01*
X032520Y004385D01*
X032546Y004494D01*
X032575Y004602D01*
X032608Y004708D01*
X032645Y004814D01*
X032686Y004918D01*
X032731Y005021D01*
X032779Y005122D01*
X032830Y005221D01*
X032885Y005318D01*
X032944Y005413D01*
X033005Y005507D01*
X033070Y005598D01*
X033139Y005686D01*
X033210Y005772D01*
X033284Y005856D01*
X033362Y005936D01*
X033442Y006014D01*
X033525Y006090D01*
X033610Y006162D01*
X033698Y006231D01*
X033788Y006297D01*
X033881Y006359D01*
X033976Y006419D01*
X034073Y006475D01*
X034171Y006527D01*
X034272Y006576D01*
X034374Y006621D01*
X034478Y006663D01*
X034583Y006701D01*
X034690Y006735D01*
X034797Y006765D01*
X034906Y006792D01*
X035015Y006814D01*
X035126Y006833D01*
X035236Y006848D01*
X035348Y006859D01*
X035459Y006866D01*
X035571Y006869D01*
X035683Y006868D01*
X035795Y006863D01*
X035906Y006854D01*
X036017Y006841D01*
X036128Y006824D01*
X036238Y006804D01*
X036347Y006779D01*
X036455Y006751D01*
X036562Y006718D01*
X036668Y006682D01*
X036772Y006642D01*
X036875Y006599D01*
X036977Y006552D01*
X037076Y006501D01*
X037174Y006447D01*
X037270Y006389D01*
X037364Y006328D01*
X037455Y006264D01*
X037544Y006197D01*
X037631Y006126D01*
X037715Y006052D01*
X037797Y005976D01*
X037875Y005896D01*
X037951Y005814D01*
X038024Y005729D01*
X038094Y005642D01*
X038160Y005552D01*
X038224Y005460D01*
X038284Y005366D01*
X038341Y005270D01*
X038394Y005171D01*
X038444Y005071D01*
X038490Y004970D01*
X038533Y004866D01*
X038572Y004761D01*
X038607Y004655D01*
X038638Y004548D01*
X038666Y004439D01*
X038689Y004330D01*
X038709Y004220D01*
X038725Y004109D01*
X038737Y003998D01*
X038745Y003887D01*
X038749Y003775D01*
X038749Y003663D01*
X038745Y003551D01*
X038737Y003440D01*
X038725Y003329D01*
X038709Y003218D01*
X038689Y003108D01*
X038666Y002999D01*
X038638Y002890D01*
X038607Y002783D01*
X038572Y002677D01*
X038533Y002572D01*
X038490Y002468D01*
X038444Y002367D01*
X038394Y002267D01*
X038341Y002168D01*
X038284Y002072D01*
X038224Y001978D01*
X038160Y001886D01*
X038094Y001796D01*
X038024Y001709D01*
X037951Y001624D01*
X037875Y001542D01*
X037797Y001462D01*
X037715Y001386D01*
X037631Y001312D01*
X037544Y001241D01*
X037455Y001174D01*
X037364Y001110D01*
X037270Y001049D01*
X037174Y000991D01*
X037076Y000937D01*
X036977Y000886D01*
X036875Y000839D01*
X036772Y000796D01*
X036668Y000756D01*
X036562Y000720D01*
X036455Y000687D01*
X036347Y000659D01*
X036238Y000634D01*
X036128Y000614D01*
X036017Y000597D01*
X035906Y000584D01*
X035795Y000575D01*
X035683Y000570D01*
X035571Y000569D01*
X035459Y000572D01*
X035348Y000579D01*
X035236Y000590D01*
X035126Y000605D01*
X035015Y000624D01*
X034906Y000646D01*
X034797Y000673D01*
X034690Y000703D01*
X034583Y000737D01*
X034478Y000775D01*
X034374Y000817D01*
X034272Y000862D01*
X034171Y000911D01*
X034073Y000963D01*
X033976Y001019D01*
X033881Y001079D01*
X033788Y001141D01*
X033698Y001207D01*
X033610Y001276D01*
X033525Y001348D01*
X033442Y001424D01*
X033362Y001502D01*
X033284Y001582D01*
X033210Y001666D01*
X033139Y001752D01*
X033070Y001840D01*
X033005Y001931D01*
X032944Y002025D01*
X032885Y002120D01*
X032830Y002217D01*
X032779Y002316D01*
X032731Y002417D01*
X032686Y002520D01*
X032645Y002624D01*
X032608Y002730D01*
X032575Y002836D01*
X032546Y002944D01*
X032520Y003053D01*
X032498Y003163D01*
X032481Y003273D01*
X032467Y003384D01*
X032457Y003496D01*
X032451Y003607D01*
X032449Y003719D01*
X025555Y003719D02*
X025557Y003831D01*
X025563Y003942D01*
X025573Y004054D01*
X025587Y004165D01*
X025604Y004275D01*
X025626Y004385D01*
X025652Y004494D01*
X025681Y004602D01*
X025714Y004708D01*
X025751Y004814D01*
X025792Y004918D01*
X025837Y005021D01*
X025885Y005122D01*
X025936Y005221D01*
X025991Y005318D01*
X026050Y005413D01*
X026111Y005507D01*
X026176Y005598D01*
X026245Y005686D01*
X026316Y005772D01*
X026390Y005856D01*
X026468Y005936D01*
X026548Y006014D01*
X026631Y006090D01*
X026716Y006162D01*
X026804Y006231D01*
X026894Y006297D01*
X026987Y006359D01*
X027082Y006419D01*
X027179Y006475D01*
X027277Y006527D01*
X027378Y006576D01*
X027480Y006621D01*
X027584Y006663D01*
X027689Y006701D01*
X027796Y006735D01*
X027903Y006765D01*
X028012Y006792D01*
X028121Y006814D01*
X028232Y006833D01*
X028342Y006848D01*
X028454Y006859D01*
X028565Y006866D01*
X028677Y006869D01*
X028789Y006868D01*
X028901Y006863D01*
X029012Y006854D01*
X029123Y006841D01*
X029234Y006824D01*
X029344Y006804D01*
X029453Y006779D01*
X029561Y006751D01*
X029668Y006718D01*
X029774Y006682D01*
X029878Y006642D01*
X029981Y006599D01*
X030083Y006552D01*
X030182Y006501D01*
X030280Y006447D01*
X030376Y006389D01*
X030470Y006328D01*
X030561Y006264D01*
X030650Y006197D01*
X030737Y006126D01*
X030821Y006052D01*
X030903Y005976D01*
X030981Y005896D01*
X031057Y005814D01*
X031130Y005729D01*
X031200Y005642D01*
X031266Y005552D01*
X031330Y005460D01*
X031390Y005366D01*
X031447Y005270D01*
X031500Y005171D01*
X031550Y005071D01*
X031596Y004970D01*
X031639Y004866D01*
X031678Y004761D01*
X031713Y004655D01*
X031744Y004548D01*
X031772Y004439D01*
X031795Y004330D01*
X031815Y004220D01*
X031831Y004109D01*
X031843Y003998D01*
X031851Y003887D01*
X031855Y003775D01*
X031855Y003663D01*
X031851Y003551D01*
X031843Y003440D01*
X031831Y003329D01*
X031815Y003218D01*
X031795Y003108D01*
X031772Y002999D01*
X031744Y002890D01*
X031713Y002783D01*
X031678Y002677D01*
X031639Y002572D01*
X031596Y002468D01*
X031550Y002367D01*
X031500Y002267D01*
X031447Y002168D01*
X031390Y002072D01*
X031330Y001978D01*
X031266Y001886D01*
X031200Y001796D01*
X031130Y001709D01*
X031057Y001624D01*
X030981Y001542D01*
X030903Y001462D01*
X030821Y001386D01*
X030737Y001312D01*
X030650Y001241D01*
X030561Y001174D01*
X030470Y001110D01*
X030376Y001049D01*
X030280Y000991D01*
X030182Y000937D01*
X030083Y000886D01*
X029981Y000839D01*
X029878Y000796D01*
X029774Y000756D01*
X029668Y000720D01*
X029561Y000687D01*
X029453Y000659D01*
X029344Y000634D01*
X029234Y000614D01*
X029123Y000597D01*
X029012Y000584D01*
X028901Y000575D01*
X028789Y000570D01*
X028677Y000569D01*
X028565Y000572D01*
X028454Y000579D01*
X028342Y000590D01*
X028232Y000605D01*
X028121Y000624D01*
X028012Y000646D01*
X027903Y000673D01*
X027796Y000703D01*
X027689Y000737D01*
X027584Y000775D01*
X027480Y000817D01*
X027378Y000862D01*
X027277Y000911D01*
X027179Y000963D01*
X027082Y001019D01*
X026987Y001079D01*
X026894Y001141D01*
X026804Y001207D01*
X026716Y001276D01*
X026631Y001348D01*
X026548Y001424D01*
X026468Y001502D01*
X026390Y001582D01*
X026316Y001666D01*
X026245Y001752D01*
X026176Y001840D01*
X026111Y001931D01*
X026050Y002025D01*
X025991Y002120D01*
X025936Y002217D01*
X025885Y002316D01*
X025837Y002417D01*
X025792Y002520D01*
X025751Y002624D01*
X025714Y002730D01*
X025681Y002836D01*
X025652Y002944D01*
X025626Y003053D01*
X025604Y003163D01*
X025587Y003273D01*
X025573Y003384D01*
X025563Y003496D01*
X025557Y003607D01*
X025555Y003719D01*
X026955Y004469D02*
X027455Y004469D01*
X025134Y007265D02*
X025134Y007765D01*
X024354Y008015D02*
X024356Y008086D01*
X024362Y008157D01*
X024372Y008228D01*
X024386Y008297D01*
X024403Y008366D01*
X024425Y008434D01*
X024450Y008501D01*
X024479Y008566D01*
X024511Y008629D01*
X024547Y008691D01*
X024586Y008750D01*
X024629Y008807D01*
X024674Y008862D01*
X024723Y008914D01*
X024774Y008963D01*
X024828Y009009D01*
X024885Y009053D01*
X024943Y009093D01*
X025004Y009129D01*
X025067Y009163D01*
X025132Y009192D01*
X025198Y009218D01*
X025266Y009241D01*
X025334Y009259D01*
X025404Y009274D01*
X025474Y009285D01*
X025545Y009292D01*
X025616Y009295D01*
X025687Y009294D01*
X025758Y009289D01*
X025829Y009280D01*
X025899Y009267D01*
X025968Y009251D01*
X026036Y009230D01*
X026103Y009206D01*
X026169Y009178D01*
X026232Y009146D01*
X026294Y009111D01*
X026354Y009073D01*
X026412Y009031D01*
X026467Y008987D01*
X026520Y008939D01*
X026570Y008888D01*
X026617Y008835D01*
X026661Y008779D01*
X026702Y008721D01*
X026740Y008660D01*
X026774Y008598D01*
X026804Y008533D01*
X026831Y008468D01*
X026855Y008400D01*
X026874Y008332D01*
X026890Y008263D01*
X026902Y008192D01*
X026910Y008122D01*
X026914Y008051D01*
X026914Y007979D01*
X026910Y007908D01*
X026902Y007838D01*
X026890Y007767D01*
X026874Y007698D01*
X026855Y007630D01*
X026831Y007562D01*
X026804Y007497D01*
X026774Y007432D01*
X026740Y007370D01*
X026702Y007309D01*
X026661Y007251D01*
X026617Y007195D01*
X026570Y007142D01*
X026520Y007091D01*
X026467Y007043D01*
X026412Y006999D01*
X026354Y006957D01*
X026294Y006919D01*
X026232Y006884D01*
X026169Y006852D01*
X026103Y006824D01*
X026036Y006800D01*
X025968Y006779D01*
X025899Y006763D01*
X025829Y006750D01*
X025758Y006741D01*
X025687Y006736D01*
X025616Y006735D01*
X025545Y006738D01*
X025474Y006745D01*
X025404Y006756D01*
X025334Y006771D01*
X025266Y006789D01*
X025198Y006812D01*
X025132Y006838D01*
X025067Y006867D01*
X025004Y006901D01*
X024943Y006937D01*
X024885Y006977D01*
X024828Y007021D01*
X024774Y007067D01*
X024723Y007116D01*
X024674Y007168D01*
X024629Y007223D01*
X024586Y007280D01*
X024547Y007339D01*
X024511Y007401D01*
X024479Y007464D01*
X024450Y007529D01*
X024425Y007596D01*
X024403Y007664D01*
X024386Y007733D01*
X024372Y007802D01*
X024362Y007873D01*
X024356Y007944D01*
X024354Y008015D01*
X022917Y006519D02*
X022366Y006519D01*
X022091Y006361D02*
X021854Y006125D01*
X022091Y005889D01*
X022091Y006361D01*
X021854Y006400D02*
X021854Y006125D01*
X021854Y005849D01*
X021579Y005731D02*
X021028Y005731D01*
X021028Y006519D01*
X021579Y006519D01*
X021221Y006560D02*
X021151Y006490D01*
X021011Y006490D01*
X020940Y006560D01*
X020940Y006630D01*
X021011Y006700D01*
X021151Y006700D01*
X021221Y006630D01*
X021221Y006560D01*
X021151Y006700D02*
X021221Y006770D01*
X021221Y006840D01*
X021151Y006910D01*
X021011Y006910D01*
X020940Y006840D01*
X020940Y006770D01*
X021011Y006700D01*
X020760Y006630D02*
X020690Y006700D01*
X020620Y006700D01*
X020690Y006700D02*
X020760Y006770D01*
X020760Y006840D01*
X020690Y006910D01*
X020550Y006910D01*
X020480Y006840D01*
X020300Y006840D02*
X020300Y006700D01*
X020230Y006630D01*
X020020Y006630D01*
X020160Y006630D02*
X020300Y006490D01*
X020480Y006560D02*
X020550Y006490D01*
X020690Y006490D01*
X020760Y006560D01*
X020760Y006630D01*
X020300Y006840D02*
X020230Y006910D01*
X020020Y006910D01*
X020020Y006490D01*
X021021Y005535D02*
X021021Y005115D01*
X021301Y005115D01*
X021481Y005115D02*
X021481Y005535D01*
X021762Y005535D01*
X021942Y005535D02*
X021942Y005115D01*
X022152Y005115D01*
X022222Y005185D01*
X022222Y005465D01*
X022152Y005535D01*
X021942Y005535D01*
X021622Y005325D02*
X021481Y005325D01*
X021481Y005115D02*
X021762Y005115D01*
X022402Y005185D02*
X022472Y005115D01*
X022612Y005115D01*
X022682Y005185D01*
X022682Y005325D01*
X022612Y005395D01*
X022542Y005395D01*
X022402Y005325D01*
X022402Y005535D01*
X022682Y005535D01*
X022917Y005731D02*
X022917Y006519D01*
X022917Y005731D02*
X022366Y005731D01*
X022517Y010076D02*
X022797Y010076D01*
X022977Y010076D02*
X023258Y010076D01*
X023438Y010076D02*
X023648Y010076D01*
X023718Y010146D01*
X023718Y010426D01*
X023648Y010496D01*
X023438Y010496D01*
X023438Y010076D01*
X023118Y010286D02*
X022977Y010286D01*
X022977Y010496D02*
X022977Y010076D01*
X022977Y010496D02*
X023258Y010496D01*
X023075Y010692D02*
X022524Y010692D01*
X022524Y011479D01*
X023075Y011479D01*
X023351Y011361D02*
X023351Y011086D01*
X023587Y011322D01*
X023587Y010849D01*
X023351Y011086D01*
X023351Y010810D01*
X023862Y010692D02*
X024414Y010692D01*
X024414Y011479D01*
X023862Y011479D01*
X022677Y011521D02*
X022607Y011451D01*
X022467Y011451D01*
X022397Y011521D01*
X022397Y011661D02*
X022537Y011731D01*
X022607Y011731D01*
X022677Y011661D01*
X022677Y011521D01*
X022397Y011661D02*
X022397Y011871D01*
X022677Y011871D01*
X022217Y011801D02*
X022217Y011731D01*
X022147Y011661D01*
X022217Y011591D01*
X022217Y011521D01*
X022147Y011451D01*
X022007Y011451D01*
X021937Y011521D01*
X021757Y011451D02*
X021616Y011591D01*
X021687Y011591D02*
X021476Y011591D01*
X021476Y011451D02*
X021476Y011871D01*
X021687Y011871D01*
X021757Y011801D01*
X021757Y011661D01*
X021687Y011591D01*
X021937Y011801D02*
X022007Y011871D01*
X022147Y011871D01*
X022217Y011801D01*
X022147Y011661D02*
X022077Y011661D01*
X022517Y010496D02*
X022517Y010076D01*
X023898Y010076D02*
X024178Y010356D01*
X024178Y010426D01*
X024108Y010496D01*
X023968Y010496D01*
X023898Y010426D01*
X023898Y010076D02*
X024178Y010076D01*
X035041Y017505D02*
X035321Y017505D01*
X033744Y019156D02*
X032484Y019156D01*
X030498Y020564D02*
X030077Y020564D01*
X030077Y020774D01*
X030147Y020844D01*
X030288Y020844D01*
X030358Y020774D01*
X030358Y020564D01*
X030358Y020704D02*
X030498Y020844D01*
X030498Y021024D02*
X030498Y021304D01*
X030506Y021316D02*
X030085Y021316D01*
X030085Y021526D01*
X030155Y021596D01*
X030295Y021596D01*
X030365Y021526D01*
X030365Y021316D01*
X030365Y021456D02*
X030506Y021596D01*
X030506Y021776D02*
X030225Y022057D01*
X030155Y022057D01*
X030085Y021987D01*
X030085Y021846D01*
X030155Y021776D01*
X030001Y021797D02*
X030001Y022078D01*
X030001Y021938D02*
X029581Y021938D01*
X029721Y021797D01*
X029721Y021617D02*
X029791Y021547D01*
X029861Y021617D01*
X029931Y021617D01*
X030001Y021547D01*
X030001Y021407D01*
X029931Y021337D01*
X029931Y021157D02*
X030001Y021087D01*
X030001Y020947D01*
X029931Y020877D01*
X029651Y020877D01*
X029581Y020947D01*
X029581Y021087D01*
X029651Y021157D01*
X029651Y021337D02*
X029581Y021407D01*
X029581Y021547D01*
X029651Y021617D01*
X029721Y021617D01*
X029791Y021547D02*
X029791Y021477D01*
X030077Y021164D02*
X030498Y021164D01*
X030217Y021024D02*
X030077Y021164D01*
X030506Y021776D02*
X030506Y022057D01*
X030295Y022237D02*
X030295Y022517D01*
X030085Y022447D02*
X030506Y022447D01*
X030295Y022237D02*
X030085Y022447D01*
X031067Y022463D02*
X031618Y022463D01*
X031894Y022621D02*
X032130Y022857D01*
X031894Y023093D01*
X031894Y022621D01*
X032130Y022582D02*
X032130Y022857D01*
X032130Y023133D01*
X032406Y023251D02*
X032957Y023251D01*
X032957Y022463D01*
X032406Y022463D01*
X032703Y022493D02*
X032703Y022072D01*
X032703Y022212D02*
X032913Y022212D01*
X032983Y022282D01*
X032983Y022422D01*
X032913Y022493D01*
X032703Y022493D01*
X032843Y022212D02*
X032983Y022072D01*
X033163Y022142D02*
X033233Y022072D01*
X033374Y022072D01*
X033444Y022142D01*
X033444Y022212D01*
X033374Y022282D01*
X033304Y022282D01*
X033374Y022282D02*
X033444Y022352D01*
X033444Y022422D01*
X033374Y022493D01*
X033233Y022493D01*
X033163Y022422D01*
X033624Y022282D02*
X033834Y022282D01*
X033904Y022212D01*
X033904Y022142D01*
X033834Y022072D01*
X033694Y022072D01*
X033624Y022142D01*
X033624Y022282D01*
X033764Y022422D01*
X033904Y022493D01*
X034979Y022943D02*
X035049Y022873D01*
X035329Y022873D01*
X035399Y022943D01*
X035399Y023083D01*
X035329Y023153D01*
X035399Y023333D02*
X035399Y023613D01*
X035399Y023473D02*
X034979Y023473D01*
X035119Y023333D01*
X035049Y023153D02*
X034979Y023083D01*
X034979Y022943D01*
X032863Y023517D02*
X032793Y023447D01*
X032653Y023447D01*
X032583Y023517D01*
X032403Y023517D02*
X032403Y023797D01*
X032333Y023868D01*
X032123Y023868D01*
X032123Y023447D01*
X032333Y023447D01*
X032403Y023517D01*
X032583Y023797D02*
X032653Y023868D01*
X032793Y023868D01*
X032863Y023797D01*
X032863Y023727D01*
X032793Y023657D01*
X032863Y023587D01*
X032863Y023517D01*
X032793Y023657D02*
X032723Y023657D01*
X031943Y023447D02*
X031662Y023447D01*
X031662Y023868D01*
X031943Y023868D01*
X031802Y023657D02*
X031662Y023657D01*
X031482Y023447D02*
X031202Y023447D01*
X031202Y023868D01*
X031067Y024117D02*
X031854Y024117D01*
X031854Y024668D01*
X031697Y024944D02*
X031461Y025180D01*
X031225Y024944D01*
X031697Y024944D01*
X031736Y025180D02*
X031461Y025180D01*
X031185Y025180D01*
X031067Y025456D02*
X031067Y026007D01*
X031854Y026007D01*
X031854Y025456D01*
X031825Y025792D02*
X031825Y026003D01*
X031895Y026073D01*
X032036Y026073D01*
X032106Y026003D01*
X032106Y025792D01*
X032246Y025792D02*
X031825Y025792D01*
X032106Y025932D02*
X032246Y026073D01*
X032176Y026253D02*
X032246Y026323D01*
X032246Y026463D01*
X032176Y026533D01*
X032106Y026533D01*
X032036Y026463D01*
X032036Y026393D01*
X032036Y026463D02*
X031966Y026533D01*
X031895Y026533D01*
X031825Y026463D01*
X031825Y026323D01*
X031895Y026253D01*
X031825Y026713D02*
X031825Y026993D01*
X031895Y026993D01*
X032176Y026713D01*
X032246Y026713D01*
X030871Y025843D02*
X030450Y025843D01*
X030661Y025633D01*
X030661Y025913D01*
X030801Y025453D02*
X030520Y025453D01*
X030450Y025383D01*
X030450Y025173D01*
X030871Y025173D01*
X030871Y025383D01*
X030801Y025453D01*
X030871Y024993D02*
X030871Y024712D01*
X030450Y024712D01*
X030450Y024993D01*
X030661Y024852D02*
X030661Y024712D01*
X030871Y024532D02*
X030871Y024252D01*
X030450Y024252D01*
X031067Y024117D02*
X031067Y024668D01*
X031067Y023251D02*
X031067Y022463D01*
X031067Y023251D02*
X031618Y023251D01*
X003816Y012816D02*
X003816Y012395D01*
X003886Y012606D02*
X003606Y012606D01*
X003816Y012816D01*
X003426Y012816D02*
X003286Y012746D01*
X003145Y012606D01*
X003356Y012606D01*
X003426Y012536D01*
X003426Y012465D01*
X003356Y012395D01*
X003215Y012395D01*
X003145Y012465D01*
X003145Y012606D01*
X002965Y012746D02*
X002895Y012816D01*
X002755Y012816D01*
X002685Y012746D01*
X002685Y012465D01*
X002755Y012395D01*
X002895Y012395D01*
X002965Y012465D01*
X003031Y012378D02*
X003101Y012308D01*
X002821Y012028D01*
X002891Y011958D01*
X003031Y011958D01*
X003101Y012028D01*
X003101Y012308D01*
X003031Y012378D02*
X002891Y012378D01*
X002821Y012308D01*
X002821Y012028D01*
X002641Y011958D02*
X002360Y011958D01*
X002500Y011958D02*
X002500Y012378D01*
X002360Y012238D01*
X002180Y012168D02*
X002110Y012098D01*
X001900Y012098D01*
X001900Y011958D02*
X001900Y012378D01*
X002110Y012378D01*
X002180Y012308D01*
X002180Y012168D01*
X002040Y012098D02*
X002180Y011958D01*
X002893Y024313D02*
X002823Y024383D01*
X002823Y024663D01*
X002893Y024733D01*
X003033Y024733D01*
X003103Y024663D01*
D13*
X002217Y026376D02*
X002067Y026376D01*
X001992Y026451D01*
X002142Y026601D02*
X002217Y026601D01*
X002292Y026526D01*
X002292Y026451D01*
X002217Y026376D01*
X002217Y026601D02*
X002292Y026677D01*
X002292Y026752D01*
X002217Y026827D01*
X002067Y026827D01*
X001992Y026752D01*
X000742Y026787D02*
X000291Y026787D01*
X000441Y026637D01*
X000366Y026477D02*
X000516Y026477D01*
X000592Y026401D01*
X000592Y026176D01*
X000742Y026176D02*
X000291Y026176D01*
X000291Y026401D01*
X000366Y026477D01*
X000592Y026326D02*
X000742Y026477D01*
X000742Y026637D02*
X000742Y026937D01*
X000667Y027097D02*
X000592Y027097D01*
X000516Y027172D01*
X000516Y027322D01*
X000592Y027397D01*
X000667Y027397D01*
X000742Y027322D01*
X000742Y027172D01*
X000667Y027097D01*
X000516Y027172D02*
X000441Y027097D01*
X000366Y027097D01*
X000291Y027172D01*
X000291Y027322D01*
X000366Y027397D01*
X000441Y027397D01*
X000516Y027322D01*
X000599Y028964D02*
X000599Y029189D01*
X000524Y029264D01*
X000374Y029264D01*
X000299Y029189D01*
X000299Y028964D01*
X000750Y028964D01*
X000599Y029114D02*
X000750Y029264D01*
X000750Y029424D02*
X000449Y029724D01*
X000374Y029724D01*
X000299Y029649D01*
X000299Y029499D01*
X000374Y029424D01*
X000750Y029424D02*
X000750Y029724D01*
X000674Y029884D02*
X000750Y029960D01*
X000750Y030110D01*
X000674Y030185D01*
X000599Y030185D01*
X000524Y030110D01*
X000524Y030035D01*
X000524Y030110D02*
X000449Y030185D01*
X000374Y030185D01*
X000299Y030110D01*
X000299Y029960D01*
X000374Y029884D01*
X002000Y029539D02*
X002075Y029614D01*
X002225Y029614D01*
X002300Y029539D01*
X002300Y029464D01*
X002225Y029389D01*
X002300Y029314D01*
X002300Y029239D01*
X002225Y029164D01*
X002075Y029164D01*
X002000Y029239D01*
X002150Y029389D02*
X002225Y029389D01*
X003950Y030164D02*
X004250Y030464D01*
X004250Y030539D01*
X004175Y030614D01*
X004025Y030614D01*
X003950Y030539D01*
X003950Y030164D02*
X004250Y030164D01*
X006510Y030164D02*
X006810Y030164D01*
X006660Y030164D02*
X006660Y030614D01*
X006510Y030464D01*
X008160Y030539D02*
X008235Y030614D01*
X008385Y030614D01*
X008460Y030539D01*
X008460Y030464D01*
X008385Y030389D01*
X008460Y030314D01*
X008460Y030239D01*
X008385Y030164D01*
X008235Y030164D01*
X008160Y030239D01*
X008310Y030389D02*
X008385Y030389D01*
X008650Y029614D02*
X008650Y029164D01*
X008500Y029164D02*
X008800Y029164D01*
X008500Y029464D02*
X008650Y029614D01*
X008377Y027827D02*
X008227Y027827D01*
X008152Y027752D01*
X008302Y027601D02*
X008377Y027601D01*
X008452Y027526D01*
X008452Y027451D01*
X008377Y027376D01*
X008227Y027376D01*
X008152Y027451D01*
X008377Y027601D02*
X008452Y027677D01*
X008452Y027752D01*
X008377Y027827D01*
X008642Y026827D02*
X008642Y026376D01*
X008492Y026376D02*
X008792Y026376D01*
X008492Y026677D02*
X008642Y026827D01*
X008640Y025916D02*
X008640Y025466D01*
X008790Y025466D02*
X008489Y025466D01*
X008329Y025541D02*
X008254Y025466D01*
X008104Y025466D01*
X008029Y025541D01*
X008029Y025841D01*
X008104Y025916D01*
X008254Y025916D01*
X008329Y025841D01*
X008489Y025766D02*
X008640Y025916D01*
X008950Y025916D02*
X009250Y025916D01*
X009250Y025841D01*
X008950Y025541D01*
X008950Y025466D01*
X008659Y024357D02*
X008659Y023907D01*
X008509Y023907D02*
X008809Y023907D01*
X008970Y023982D02*
X009045Y023907D01*
X009195Y023907D01*
X009270Y023982D01*
X009270Y024057D01*
X009195Y024132D01*
X008970Y024132D01*
X008970Y023982D01*
X008970Y024132D02*
X009120Y024282D01*
X009270Y024357D01*
X008659Y024357D02*
X008509Y024207D01*
X008349Y024282D02*
X008274Y024357D01*
X008124Y024357D01*
X008049Y024282D01*
X008049Y023982D01*
X008124Y023907D01*
X008274Y023907D01*
X008349Y023982D01*
X006915Y021420D02*
X006990Y021345D01*
X006690Y021045D01*
X006765Y020970D01*
X006915Y020970D01*
X006990Y021045D01*
X006990Y021345D01*
X006915Y021420D02*
X006765Y021420D01*
X006690Y021345D01*
X006690Y021045D01*
X006530Y020970D02*
X006230Y020970D01*
X006380Y020970D02*
X006380Y021420D01*
X006230Y021270D01*
X006069Y021345D02*
X005994Y021420D01*
X005844Y021420D01*
X005769Y021345D01*
X005769Y021045D01*
X005844Y020970D01*
X005994Y020970D01*
X006069Y021045D01*
X007120Y021138D02*
X007120Y020838D01*
X007195Y020763D01*
X007346Y020763D01*
X007421Y020838D01*
X007581Y020763D02*
X007881Y020763D01*
X007731Y020763D02*
X007731Y021213D01*
X007581Y021063D01*
X007421Y021138D02*
X007346Y021213D01*
X007195Y021213D01*
X007120Y021138D01*
X008041Y021138D02*
X008041Y021063D01*
X008116Y020988D01*
X008266Y020988D01*
X008341Y020913D01*
X008341Y020838D01*
X008266Y020763D01*
X008116Y020763D01*
X008041Y020838D01*
X008041Y020913D01*
X008116Y020988D01*
X008266Y020988D02*
X008341Y021063D01*
X008341Y021138D01*
X008266Y021213D01*
X008116Y021213D01*
X008041Y021138D01*
X004002Y021195D02*
X003777Y021195D01*
X003702Y021270D01*
X003702Y021345D01*
X003777Y021420D01*
X003927Y021420D01*
X004002Y021345D01*
X004002Y021045D01*
X003927Y020970D01*
X003777Y020970D01*
X003702Y021045D01*
X003542Y021045D02*
X003467Y020970D01*
X003317Y020970D01*
X003242Y021045D01*
X003242Y021345D01*
X003317Y021420D01*
X003467Y021420D01*
X003542Y021345D01*
X003651Y019074D02*
X003576Y018999D01*
X003576Y018699D01*
X003651Y018624D01*
X003802Y018624D01*
X003877Y018699D01*
X004037Y018699D02*
X004037Y018774D01*
X004112Y018849D01*
X004262Y018849D01*
X004337Y018774D01*
X004337Y018699D01*
X004262Y018624D01*
X004112Y018624D01*
X004037Y018699D01*
X004112Y018849D02*
X004037Y018924D01*
X004037Y018999D01*
X004112Y019074D01*
X004262Y019074D01*
X004337Y018999D01*
X004337Y018924D01*
X004262Y018849D01*
X003877Y018999D02*
X003802Y019074D01*
X003651Y019074D01*
X005636Y017595D02*
X005636Y017295D01*
X005711Y017220D01*
X005861Y017220D01*
X005936Y017295D01*
X006096Y017295D02*
X006096Y017220D01*
X006096Y017295D02*
X006396Y017595D01*
X006396Y017670D01*
X006096Y017670D01*
X005936Y017595D02*
X005861Y017670D01*
X005711Y017670D01*
X005636Y017595D01*
X006026Y014253D02*
X005951Y014178D01*
X005951Y013877D01*
X006026Y013802D01*
X006176Y013802D01*
X006251Y013877D01*
X006411Y013802D02*
X006712Y013802D01*
X006562Y013802D02*
X006562Y014253D01*
X006411Y014103D01*
X006251Y014178D02*
X006176Y014253D01*
X006026Y014253D01*
X006872Y014178D02*
X006947Y014253D01*
X007097Y014253D01*
X007172Y014178D01*
X007172Y014103D01*
X007097Y014027D01*
X007172Y013952D01*
X007172Y013877D01*
X007097Y013802D01*
X006947Y013802D01*
X006872Y013877D01*
X007022Y014027D02*
X007097Y014027D01*
X007268Y012812D02*
X007268Y012512D01*
X007043Y012737D01*
X007494Y012737D01*
X007494Y012351D02*
X007494Y012051D01*
X007494Y012201D02*
X007043Y012201D01*
X007193Y012051D01*
X007118Y011891D02*
X007043Y011816D01*
X007043Y011666D01*
X007118Y011591D01*
X007419Y011591D01*
X007494Y011666D01*
X007494Y011816D01*
X007419Y011891D01*
X005707Y010585D02*
X005632Y010661D01*
X005482Y010661D01*
X005407Y010585D01*
X005707Y010585D02*
X005707Y010510D01*
X005407Y010210D01*
X005707Y010210D01*
X005246Y010210D02*
X004946Y010210D01*
X005096Y010210D02*
X005096Y010661D01*
X004946Y010510D01*
X004786Y010585D02*
X004711Y010661D01*
X004561Y010661D01*
X004486Y010585D01*
X004486Y010285D01*
X004561Y010210D01*
X004711Y010210D01*
X004786Y010285D01*
X006105Y009182D02*
X006180Y009257D01*
X006330Y009257D01*
X006405Y009182D01*
X006565Y009106D02*
X006715Y009257D01*
X006715Y008806D01*
X006565Y008806D02*
X006865Y008806D01*
X007025Y008806D02*
X007326Y008806D01*
X007175Y008806D02*
X007175Y009257D01*
X007025Y009106D01*
X006405Y008881D02*
X006330Y008806D01*
X006180Y008806D01*
X006105Y008881D01*
X006105Y009182D01*
X007061Y007887D02*
X007136Y007737D01*
X007287Y007587D01*
X007287Y007812D01*
X007362Y007887D01*
X007437Y007887D01*
X007512Y007812D01*
X007512Y007662D01*
X007437Y007587D01*
X007287Y007587D01*
X007437Y007427D02*
X007512Y007352D01*
X007512Y007202D01*
X007437Y007127D01*
X007136Y007127D01*
X007061Y007202D01*
X007061Y007352D01*
X007136Y007427D01*
X007061Y005887D02*
X007061Y005587D01*
X007287Y005587D01*
X007211Y005737D01*
X007211Y005812D01*
X007287Y005887D01*
X007437Y005887D01*
X007512Y005812D01*
X007512Y005662D01*
X007437Y005587D01*
X007437Y005427D02*
X007512Y005352D01*
X007512Y005202D01*
X007437Y005127D01*
X007136Y005127D01*
X007061Y005202D01*
X007061Y005352D01*
X007136Y005427D01*
X004628Y006521D02*
X004553Y006446D01*
X004403Y006446D01*
X004328Y006521D01*
X004168Y006521D02*
X004093Y006446D01*
X003943Y006446D01*
X003868Y006521D01*
X003868Y006822D01*
X003943Y006897D01*
X004093Y006897D01*
X004168Y006822D01*
X004328Y006822D02*
X004403Y006897D01*
X004553Y006897D01*
X004628Y006822D01*
X004628Y006747D01*
X004553Y006672D01*
X004628Y006596D01*
X004628Y006521D01*
X004553Y006672D02*
X004478Y006672D01*
X004553Y007470D02*
X004553Y007920D01*
X004328Y007695D01*
X004628Y007695D01*
X004168Y007545D02*
X004093Y007470D01*
X003943Y007470D01*
X003868Y007545D01*
X003868Y007845D01*
X003943Y007920D01*
X004093Y007920D01*
X004168Y007845D01*
X004105Y013692D02*
X003805Y013692D01*
X003955Y013692D02*
X003955Y014142D01*
X003805Y013992D01*
X003645Y014067D02*
X003570Y014142D01*
X003420Y014142D01*
X003345Y014067D01*
X003345Y013767D01*
X003420Y013692D01*
X003570Y013692D01*
X003645Y013767D01*
X004266Y013767D02*
X004341Y013692D01*
X004491Y013692D01*
X004566Y013767D01*
X004566Y013917D01*
X004491Y013992D01*
X004416Y013992D01*
X004266Y013917D01*
X004266Y014142D01*
X004566Y014142D01*
X012795Y019245D02*
X012870Y019170D01*
X013171Y019170D01*
X013246Y019245D01*
X013246Y019395D01*
X013171Y019470D01*
X013246Y019630D02*
X013246Y019930D01*
X013246Y019780D02*
X012795Y019780D01*
X012945Y019630D01*
X012870Y019470D02*
X012795Y019395D01*
X012795Y019245D01*
X013835Y019249D02*
X013910Y019174D01*
X014210Y019174D01*
X014285Y019249D01*
X014285Y019399D01*
X014210Y019474D01*
X014285Y019634D02*
X013985Y019934D01*
X013910Y019934D01*
X013835Y019859D01*
X013835Y019709D01*
X013910Y019634D01*
X013910Y019474D02*
X013835Y019399D01*
X013835Y019249D01*
X014285Y019634D02*
X014285Y019934D01*
X014210Y020094D02*
X013910Y020094D01*
X013835Y020169D01*
X013835Y020319D01*
X013910Y020395D01*
X014210Y020094D01*
X014285Y020169D01*
X014285Y020319D01*
X014210Y020395D01*
X013910Y020395D01*
X013246Y020316D02*
X013171Y020391D01*
X012870Y020391D01*
X012795Y020316D01*
X012795Y020165D01*
X012870Y020090D01*
X012945Y020090D01*
X013020Y020165D01*
X013020Y020391D01*
X013246Y020316D02*
X013246Y020165D01*
X013171Y020090D01*
X017546Y021139D02*
X017621Y021064D01*
X017921Y021064D01*
X017996Y021139D01*
X017996Y021289D01*
X017921Y021364D01*
X017921Y021524D02*
X017996Y021599D01*
X017996Y021750D01*
X017921Y021825D01*
X017846Y021825D01*
X017771Y021750D01*
X017771Y021674D01*
X017771Y021750D02*
X017696Y021825D01*
X017621Y021825D01*
X017546Y021750D01*
X017546Y021599D01*
X017621Y021524D01*
X017621Y021364D02*
X017546Y021289D01*
X017546Y021139D01*
X017621Y021985D02*
X017546Y022060D01*
X017546Y022210D01*
X017621Y022285D01*
X017696Y022285D01*
X017771Y022210D01*
X017846Y022285D01*
X017921Y022285D01*
X017996Y022210D01*
X017996Y022060D01*
X017921Y021985D01*
X017771Y022135D02*
X017771Y022210D01*
X015149Y025576D02*
X014849Y025576D01*
X014774Y025651D01*
X014774Y025801D01*
X014849Y025876D01*
X014849Y026036D02*
X014774Y026111D01*
X014774Y026261D01*
X014849Y026336D01*
X014924Y026336D01*
X014999Y026261D01*
X015074Y026336D01*
X015149Y026336D01*
X015224Y026261D01*
X015224Y026111D01*
X015149Y026036D01*
X015149Y025876D02*
X015224Y025801D01*
X015224Y025651D01*
X015149Y025576D01*
X014999Y026186D02*
X014999Y026261D01*
X014999Y026497D02*
X014924Y026647D01*
X014924Y026722D01*
X014999Y026797D01*
X015149Y026797D01*
X015224Y026722D01*
X015224Y026572D01*
X015149Y026497D01*
X014999Y026497D02*
X014774Y026497D01*
X014774Y026797D01*
X006802Y027376D02*
X006502Y027376D01*
X006652Y027376D02*
X006652Y027827D01*
X006502Y027677D01*
X004242Y027677D02*
X004242Y027752D01*
X004167Y027827D01*
X004017Y027827D01*
X003942Y027752D01*
X004242Y027677D02*
X003942Y027376D01*
X004242Y027376D01*
X024797Y020755D02*
X024797Y020454D01*
X024872Y020379D01*
X025022Y020379D01*
X025097Y020454D01*
X025257Y020454D02*
X025332Y020379D01*
X025482Y020379D01*
X025557Y020454D01*
X025557Y020530D01*
X025482Y020605D01*
X025407Y020605D01*
X025482Y020605D02*
X025557Y020680D01*
X025557Y020755D01*
X025482Y020830D01*
X025332Y020830D01*
X025257Y020755D01*
X025097Y020755D02*
X025022Y020830D01*
X024872Y020830D01*
X024797Y020755D01*
X025718Y020605D02*
X026018Y020605D01*
X025943Y020830D02*
X025943Y020379D01*
X025718Y020605D02*
X025943Y020830D01*
X032770Y019363D02*
X032770Y019062D01*
X032845Y018987D01*
X032995Y018987D01*
X033070Y019062D01*
X033230Y018987D02*
X033530Y019288D01*
X033530Y019363D01*
X033455Y019438D01*
X033305Y019438D01*
X033230Y019363D01*
X033070Y019363D02*
X032995Y019438D01*
X032845Y019438D01*
X032770Y019363D01*
X033230Y018987D02*
X033530Y018987D01*
X021451Y001893D02*
X021451Y001593D01*
X021451Y001743D02*
X021001Y001743D01*
X021151Y001593D01*
X021151Y001432D02*
X021226Y001357D01*
X021226Y001132D01*
X021451Y001132D02*
X021451Y001357D01*
X021376Y001432D01*
X021301Y001432D01*
X021226Y001357D01*
X021151Y001432D02*
X021076Y001432D01*
X021001Y001357D01*
X021001Y001132D01*
X021451Y001132D01*
D14*
X027829Y007893D02*
X027804Y007918D01*
X027804Y007968D01*
X027829Y007993D01*
X027829Y008040D02*
X027804Y008065D01*
X027804Y008115D01*
X027829Y008140D01*
X027854Y008140D01*
X027879Y008115D01*
X027904Y008140D01*
X027929Y008140D01*
X027954Y008115D01*
X027954Y008065D01*
X027929Y008040D01*
X027929Y007993D02*
X027954Y007968D01*
X027954Y007918D01*
X027929Y007893D01*
X027829Y007893D01*
X027879Y008090D02*
X027879Y008115D01*
X027854Y008187D02*
X027879Y008212D01*
X027879Y008287D01*
X027829Y008287D02*
X027804Y008262D01*
X027804Y008212D01*
X027829Y008187D01*
X027854Y008187D01*
X027929Y008187D02*
X027954Y008212D01*
X027954Y008262D01*
X027929Y008287D01*
X027829Y008287D01*
X028985Y008262D02*
X029010Y008287D01*
X029035Y008287D01*
X029060Y008262D01*
X029060Y008212D01*
X029035Y008187D01*
X029010Y008187D01*
X028985Y008212D01*
X028985Y008262D01*
X029060Y008262D02*
X029085Y008287D01*
X029110Y008287D01*
X029135Y008262D01*
X029135Y008212D01*
X029110Y008187D01*
X029085Y008187D01*
X029060Y008212D01*
X029035Y008140D02*
X029060Y008115D01*
X029085Y008140D01*
X029110Y008140D01*
X029135Y008115D01*
X029135Y008065D01*
X029110Y008040D01*
X029110Y007993D02*
X029135Y007968D01*
X029135Y007918D01*
X029110Y007893D01*
X029010Y007893D01*
X028985Y007918D01*
X028985Y007968D01*
X029010Y007993D01*
X029010Y008040D02*
X028985Y008065D01*
X028985Y008115D01*
X029010Y008140D01*
X029035Y008140D01*
X029060Y008115D02*
X029060Y008090D01*
X030166Y008115D02*
X030241Y008040D01*
X030241Y008140D01*
X030191Y008187D02*
X030292Y008187D01*
X030191Y008287D01*
X030292Y008287D01*
X030317Y008262D01*
X030317Y008212D01*
X030292Y008187D01*
X030317Y008115D02*
X030166Y008115D01*
X030191Y008187D02*
X030166Y008212D01*
X030166Y008262D01*
X030191Y008287D01*
X030191Y007993D02*
X030166Y007968D01*
X030166Y007918D01*
X030191Y007893D01*
X030292Y007893D01*
X030317Y007918D01*
X030317Y007968D01*
X030292Y007993D01*
X035285Y007968D02*
X035285Y007918D01*
X035310Y007893D01*
X035410Y007893D01*
X035435Y007918D01*
X035435Y007968D01*
X035410Y007993D01*
X035360Y008040D02*
X035360Y008140D01*
X035385Y008187D02*
X035360Y008212D01*
X035360Y008262D01*
X035385Y008287D01*
X035410Y008287D01*
X035435Y008262D01*
X035435Y008212D01*
X035410Y008187D01*
X035385Y008187D01*
X035360Y008212D02*
X035335Y008187D01*
X035310Y008187D01*
X035285Y008212D01*
X035285Y008262D01*
X035310Y008287D01*
X035335Y008287D01*
X035360Y008262D01*
X035435Y008115D02*
X035285Y008115D01*
X035360Y008040D01*
X035310Y007993D02*
X035285Y007968D01*
X036466Y007968D02*
X036466Y007918D01*
X036491Y007893D01*
X036591Y007893D01*
X036616Y007918D01*
X036616Y007968D01*
X036591Y007993D01*
X036591Y008040D02*
X036616Y008065D01*
X036616Y008115D01*
X036591Y008140D01*
X036541Y008140D01*
X036516Y008115D01*
X036516Y008090D01*
X036541Y008040D01*
X036466Y008040D01*
X036466Y008140D01*
X036516Y008187D02*
X036466Y008237D01*
X036616Y008237D01*
X036616Y008187D02*
X036616Y008287D01*
X036491Y007993D02*
X036466Y007968D01*
X037647Y007968D02*
X037647Y007918D01*
X037672Y007893D01*
X037772Y007893D01*
X037797Y007918D01*
X037797Y007968D01*
X037772Y007993D01*
X037772Y008040D02*
X037797Y008065D01*
X037797Y008115D01*
X037772Y008140D01*
X037722Y008140D01*
X037697Y008115D01*
X037697Y008090D01*
X037722Y008040D01*
X037647Y008040D01*
X037647Y008140D01*
X037672Y008187D02*
X037647Y008212D01*
X037647Y008262D01*
X037672Y008287D01*
X037772Y008187D01*
X037797Y008212D01*
X037797Y008262D01*
X037772Y008287D01*
X037672Y008287D01*
X037672Y008187D02*
X037772Y008187D01*
X037672Y007993D02*
X037647Y007968D01*
X033099Y016484D02*
X033099Y016509D01*
X033199Y016609D01*
X033199Y016634D01*
X033099Y016634D01*
X033027Y016634D02*
X032952Y016559D01*
X033052Y016559D01*
X033027Y016484D02*
X033027Y016634D01*
X032904Y016609D02*
X032879Y016634D01*
X032829Y016634D01*
X032804Y016609D01*
X032804Y016509D01*
X032829Y016484D01*
X032879Y016484D01*
X032904Y016509D01*
X032879Y017665D02*
X032904Y017690D01*
X032879Y017665D02*
X032829Y017665D01*
X032804Y017690D01*
X032804Y017790D01*
X032829Y017815D01*
X032879Y017815D01*
X032904Y017790D01*
X032952Y017815D02*
X032952Y017740D01*
X033002Y017765D01*
X033027Y017765D01*
X033052Y017740D01*
X033052Y017690D01*
X033027Y017665D01*
X032977Y017665D01*
X032952Y017690D01*
X032952Y017815D02*
X033052Y017815D01*
X033099Y017790D02*
X033124Y017815D01*
X033174Y017815D01*
X033199Y017790D01*
X033199Y017765D01*
X033174Y017740D01*
X033199Y017715D01*
X033199Y017690D01*
X033174Y017665D01*
X033124Y017665D01*
X033099Y017690D01*
X033149Y017740D02*
X033174Y017740D01*
X033199Y018846D02*
X033099Y018846D01*
X033199Y018947D01*
X033199Y018972D01*
X033174Y018997D01*
X033124Y018997D01*
X033099Y018972D01*
X033052Y018997D02*
X032952Y018997D01*
X032952Y018921D01*
X033002Y018947D01*
X033027Y018947D01*
X033052Y018921D01*
X033052Y018871D01*
X033027Y018846D01*
X032977Y018846D01*
X032952Y018871D01*
X032904Y018871D02*
X032879Y018846D01*
X032829Y018846D01*
X032804Y018871D01*
X032804Y018972D01*
X032829Y018997D01*
X032879Y018997D01*
X032904Y018972D01*
X026615Y018418D02*
X026590Y018443D01*
X026540Y018443D01*
X026515Y018418D01*
X026468Y018368D02*
X026368Y018368D01*
X026443Y018443D01*
X026443Y018293D01*
X026515Y018293D02*
X026615Y018393D01*
X026615Y018418D01*
X026615Y018293D02*
X026515Y018293D01*
X026321Y018318D02*
X026296Y018293D01*
X026246Y018293D01*
X026221Y018318D01*
X026221Y018418D01*
X026246Y018443D01*
X026296Y018443D01*
X026321Y018418D01*
X026296Y017222D02*
X026246Y017222D01*
X026221Y017197D01*
X026221Y017097D01*
X026246Y017072D01*
X026296Y017072D01*
X026321Y017097D01*
X026368Y017147D02*
X026468Y017147D01*
X026515Y017097D02*
X026540Y017072D01*
X026590Y017072D01*
X026615Y017097D01*
X026615Y017122D01*
X026590Y017147D01*
X026565Y017147D01*
X026590Y017147D02*
X026615Y017172D01*
X026615Y017197D01*
X026590Y017222D01*
X026540Y017222D01*
X026515Y017197D01*
X026443Y017222D02*
X026368Y017147D01*
X026321Y017197D02*
X026296Y017222D01*
X026443Y017222D02*
X026443Y017072D01*
X026443Y015963D02*
X026368Y015887D01*
X026468Y015887D01*
X026515Y015887D02*
X026565Y015912D01*
X026590Y015912D01*
X026615Y015887D01*
X026615Y015837D01*
X026590Y015812D01*
X026540Y015812D01*
X026515Y015837D01*
X026515Y015887D02*
X026515Y015963D01*
X026615Y015963D01*
X026443Y015963D02*
X026443Y015812D01*
X026321Y015837D02*
X026296Y015812D01*
X026246Y015812D01*
X026221Y015837D01*
X026221Y015938D01*
X026246Y015963D01*
X026296Y015963D01*
X026321Y015938D01*
X009345Y000990D02*
X009345Y000840D01*
X009295Y000840D02*
X009395Y000840D01*
X009295Y000940D02*
X009345Y000990D01*
X009248Y000965D02*
X009248Y000915D01*
X009223Y000890D01*
X009147Y000890D01*
X009147Y000840D02*
X009147Y000990D01*
X009223Y000990D01*
X009248Y000965D01*
X009100Y000990D02*
X009050Y000990D01*
X009075Y000990D02*
X009075Y000865D01*
X009050Y000840D01*
X009025Y000840D01*
X009000Y000865D01*
D15*
X025391Y010904D02*
X029771Y010904D01*
X029771Y014504D01*
X025391Y014504D01*
X025391Y010904D01*
X025391Y011534D02*
X025391Y011754D01*
X025391Y011884D02*
X025391Y012104D01*
X025391Y012244D02*
X025391Y012464D01*
X025391Y012594D02*
X025391Y012814D01*
X025391Y012944D02*
X025391Y013164D01*
X025391Y013304D02*
X025391Y013524D01*
X025391Y013654D02*
X025391Y013874D01*
X026051Y014504D02*
X026271Y014504D01*
X026411Y014504D02*
X026631Y014504D01*
X026761Y014504D02*
X026981Y014504D01*
X027121Y014504D02*
X027341Y014504D01*
X027471Y014504D02*
X027691Y014504D01*
X027821Y014504D02*
X028041Y014504D01*
X028181Y014504D02*
X028401Y014504D01*
X028531Y014504D02*
X028751Y014504D01*
X028891Y014504D02*
X029111Y014504D01*
X029271Y014504D02*
X029771Y014004D01*
X029771Y013874D02*
X029771Y013654D01*
X029771Y013524D02*
X029771Y013304D01*
X029771Y013164D02*
X029771Y012944D01*
X029771Y012814D02*
X029771Y012594D01*
X029771Y012464D02*
X029771Y012244D01*
X029771Y012104D02*
X029771Y011884D01*
X029771Y011754D02*
X029771Y011534D01*
X029111Y010904D02*
X028891Y010904D01*
X028751Y010904D02*
X028531Y010904D01*
X028401Y010904D02*
X028181Y010904D01*
X028041Y010904D02*
X027821Y010904D01*
X027691Y010904D02*
X027471Y010904D01*
X027341Y010904D02*
X027121Y010904D01*
X026981Y010904D02*
X026761Y010904D01*
X026631Y010904D02*
X026411Y010904D01*
X026271Y010904D02*
X026051Y010904D01*
X032871Y010904D02*
X037251Y010904D01*
X037251Y014504D01*
X032871Y014504D01*
X032871Y010904D01*
X032871Y011534D02*
X032871Y011754D01*
X032871Y011884D02*
X032871Y012104D01*
X032871Y012244D02*
X032871Y012464D01*
X032871Y012594D02*
X032871Y012814D01*
X032871Y012944D02*
X032871Y013164D01*
X032871Y013304D02*
X032871Y013524D01*
X032871Y013654D02*
X032871Y013874D01*
X033531Y014504D02*
X033751Y014504D01*
X033891Y014504D02*
X034111Y014504D01*
X034241Y014504D02*
X034461Y014504D01*
X034601Y014504D02*
X034821Y014504D01*
X034951Y014504D02*
X035171Y014504D01*
X035301Y014504D02*
X035521Y014504D01*
X035661Y014504D02*
X035881Y014504D01*
X036011Y014504D02*
X036231Y014504D01*
X036371Y014504D02*
X036591Y014504D01*
X036751Y014504D02*
X037251Y014004D01*
X037251Y013874D02*
X037251Y013654D01*
X037251Y013524D02*
X037251Y013304D01*
X037251Y013164D02*
X037251Y012944D01*
X037251Y012814D02*
X037251Y012594D01*
X037251Y012464D02*
X037251Y012244D01*
X037251Y012104D02*
X037251Y011884D01*
X037251Y011754D02*
X037251Y011534D01*
X036591Y010904D02*
X036371Y010904D01*
X036231Y010904D02*
X036011Y010904D01*
X035881Y010904D02*
X035661Y010904D01*
X035521Y010904D02*
X035301Y010904D01*
X035171Y010904D02*
X034951Y010904D01*
X034821Y010904D02*
X034601Y010904D01*
X034461Y010904D02*
X034241Y010904D01*
X034111Y010904D02*
X033891Y010904D01*
X033751Y010904D02*
X033531Y010904D01*
X034998Y019989D02*
X037018Y019989D01*
X037018Y022009D01*
X034998Y022009D01*
X034998Y019989D01*
X035418Y019989D02*
X035568Y019989D01*
X035498Y019989D02*
X034998Y020489D01*
X034998Y020559D02*
X034998Y020409D01*
X034998Y020669D02*
X034998Y020819D01*
X034998Y020929D02*
X034998Y021069D01*
X034998Y021179D02*
X034998Y021329D01*
X034998Y021439D02*
X034998Y021589D01*
X035418Y022009D02*
X035568Y022009D01*
X035678Y022009D02*
X035828Y022009D01*
X035938Y022009D02*
X036078Y022009D01*
X036188Y022009D02*
X036338Y022009D01*
X036448Y022009D02*
X036598Y022009D01*
X037018Y021589D02*
X037018Y021439D01*
X037018Y021329D02*
X037018Y021179D01*
X037018Y021069D02*
X037018Y020929D01*
X037018Y020819D02*
X037018Y020669D01*
X037018Y020559D02*
X037018Y020409D01*
X036598Y019989D02*
X036448Y019989D01*
X036338Y019989D02*
X036188Y019989D01*
X036078Y019989D02*
X035938Y019989D01*
X035828Y019989D02*
X035678Y019989D01*
X028813Y020371D02*
X028813Y022391D01*
X026793Y022391D01*
X026793Y020371D01*
X028813Y020371D01*
X028393Y020371D02*
X028243Y020371D01*
X028313Y020371D02*
X028813Y020871D01*
X028813Y020941D02*
X028813Y020791D01*
X028813Y021051D02*
X028813Y021201D01*
X028813Y021311D02*
X028813Y021451D01*
X028813Y021561D02*
X028813Y021711D01*
X028813Y021821D02*
X028813Y021971D01*
X028393Y022391D02*
X028243Y022391D01*
X028133Y022391D02*
X027983Y022391D01*
X027873Y022391D02*
X027733Y022391D01*
X027623Y022391D02*
X027473Y022391D01*
X027363Y022391D02*
X027213Y022391D01*
X026793Y021971D02*
X026793Y021821D01*
X026793Y021711D02*
X026793Y021561D01*
X026793Y021451D02*
X026793Y021311D01*
X026793Y021201D02*
X026793Y021051D01*
X026793Y020941D02*
X026793Y020791D01*
X027213Y020371D02*
X027363Y020371D01*
X027473Y020371D02*
X027623Y020371D01*
X027733Y020371D02*
X027873Y020371D01*
X027983Y020371D02*
X028133Y020371D01*
D16*
X029095Y020434D02*
X029408Y020747D01*
X029408Y020591D02*
X029095Y020591D01*
X029095Y020747D02*
X029408Y020434D01*
X029251Y020434D02*
X029251Y020747D01*
X035061Y019707D02*
X035375Y019394D01*
X035375Y019551D02*
X035061Y019551D01*
X035061Y019394D02*
X035375Y019707D01*
X035218Y019707D02*
X035218Y019394D01*
X036645Y015089D02*
X036958Y014775D01*
X036802Y014775D02*
X036802Y015089D01*
X036958Y015089D02*
X036645Y014775D01*
X036645Y014932D02*
X036958Y014932D01*
X029478Y014932D02*
X029164Y014932D01*
X029164Y014775D02*
X029478Y015089D01*
X029321Y015089D02*
X029321Y014775D01*
X029478Y014775D02*
X029164Y015089D01*
X028503Y008025D02*
X028503Y007976D01*
X028309Y007783D01*
X028309Y007734D01*
X028208Y007783D02*
X028160Y007734D01*
X028063Y007734D01*
X028015Y007783D01*
X027913Y007783D02*
X027865Y007734D01*
X027768Y007734D01*
X027720Y007783D01*
X027720Y007976D01*
X027768Y008025D01*
X027865Y008025D01*
X027913Y007976D01*
X028015Y007976D02*
X028063Y008025D01*
X028160Y008025D01*
X028208Y007976D01*
X028208Y007928D01*
X028160Y007879D01*
X028208Y007831D01*
X028208Y007783D01*
X028160Y007879D02*
X028111Y007879D01*
X028309Y008025D02*
X028503Y008025D01*
X034614Y007976D02*
X034614Y007783D01*
X034662Y007734D01*
X034759Y007734D01*
X034807Y007783D01*
X034908Y007783D02*
X034957Y007734D01*
X035053Y007734D01*
X035102Y007783D01*
X035102Y007831D01*
X035053Y007879D01*
X035005Y007879D01*
X035053Y007879D02*
X035102Y007928D01*
X035102Y007976D01*
X035053Y008025D01*
X034957Y008025D01*
X034908Y007976D01*
X034807Y007976D02*
X034759Y008025D01*
X034662Y008025D01*
X034614Y007976D01*
X035203Y007879D02*
X035348Y007879D01*
X035396Y007831D01*
X035396Y007783D01*
X035348Y007734D01*
X035251Y007734D01*
X035203Y007783D01*
X035203Y007879D01*
X035300Y007976D01*
X035396Y008025D01*
D17*
X012255Y022911D02*
X012255Y023064D01*
X012255Y022987D02*
X011795Y022987D01*
X011795Y022911D02*
X011795Y023064D01*
X011871Y023218D02*
X012178Y023218D01*
X012255Y023294D01*
X012255Y023448D01*
X012178Y023524D01*
X012178Y023678D02*
X012255Y023755D01*
X012255Y023908D01*
X012178Y023985D01*
X012101Y023985D01*
X012025Y023908D01*
X012025Y023831D01*
X012025Y023908D02*
X011948Y023985D01*
X011871Y023985D01*
X011795Y023908D01*
X011795Y023755D01*
X011871Y023678D01*
X011871Y023524D02*
X011795Y023448D01*
X011795Y023294D01*
X011871Y023218D01*
X007709Y023183D02*
X007709Y023336D01*
X007709Y023260D02*
X007249Y023260D01*
X007249Y023336D02*
X007249Y023183D01*
X007326Y023490D02*
X007633Y023490D01*
X007709Y023567D01*
X007709Y023720D01*
X007633Y023797D01*
X007709Y023950D02*
X007402Y024257D01*
X007326Y024257D01*
X007249Y024180D01*
X007249Y024027D01*
X007326Y023950D01*
X007326Y023797D02*
X007249Y023720D01*
X007249Y023567D01*
X007326Y023490D01*
X007709Y023950D02*
X007709Y024257D01*
X003637Y012867D02*
X003637Y012560D01*
X003637Y012713D02*
X003176Y012713D01*
X003330Y012560D01*
X003253Y012406D02*
X003176Y012330D01*
X003176Y012176D01*
X003253Y012099D01*
X003560Y012099D01*
X003637Y012176D01*
X003637Y012330D01*
X003560Y012406D01*
X003637Y011946D02*
X003637Y011793D01*
X003637Y011869D02*
X003176Y011869D01*
X003176Y011793D02*
X003176Y011946D01*
D18*
X001342Y026776D03*
X001342Y027426D03*
X001350Y029564D03*
X001350Y030214D03*
D19*
X001450Y029889D03*
X001442Y027101D03*
M02*
