G75*
%MOIN*%
%OFA0B0*%
%FSLAX24Y24*%
%IPPOS*%
%LPD*%
%AMOC8*
5,1,8,0,0,1.08239X$1,22.5*
%
%ADD10C,0.0740*%
%ADD11R,0.0138X0.0984*%
%ADD12R,0.0984X0.0787*%
%ADD13C,0.0100*%
%ADD14C,0.0280*%
%ADD15C,0.0120*%
%ADD16R,0.0280X0.0280*%
%ADD17C,0.0080*%
D10*
X010788Y002192D03*
X011788Y002092D03*
X012788Y002192D03*
X013788Y002092D03*
X014788Y002192D03*
X015788Y002092D03*
D11*
X015479Y012479D03*
X015229Y012479D03*
X014979Y012479D03*
X014729Y012479D03*
X014479Y012479D03*
X014229Y012479D03*
X013979Y012479D03*
X013729Y012479D03*
X013479Y012479D03*
X013229Y012479D03*
X012979Y012479D03*
X012729Y012479D03*
X012479Y012479D03*
X012229Y012479D03*
X011979Y012479D03*
X011979Y014329D03*
X012229Y014329D03*
X012479Y014329D03*
X012729Y014329D03*
X012979Y014329D03*
X013229Y014329D03*
X013479Y014329D03*
X013729Y014329D03*
X013979Y014329D03*
X014229Y014329D03*
X014479Y014329D03*
X014729Y014329D03*
X014979Y014329D03*
X015229Y014329D03*
X015479Y014329D03*
D12*
X016933Y013404D03*
X010525Y013404D03*
D13*
X001187Y009217D02*
X001187Y001649D01*
X011497Y001649D01*
X011493Y001651D01*
X011347Y001797D01*
X011268Y001988D01*
X011268Y001992D01*
X011229Y001897D01*
X011083Y001751D01*
X010891Y001672D01*
X010685Y001672D01*
X010493Y001751D01*
X010347Y001897D01*
X010268Y002088D01*
X010268Y002295D01*
X010347Y002486D01*
X010493Y002632D01*
X010685Y002712D01*
X010891Y002712D01*
X011083Y002632D01*
X011229Y002486D01*
X011308Y002295D01*
X011308Y002292D01*
X011347Y002386D01*
X011493Y002532D01*
X011685Y002612D01*
X011891Y002612D01*
X012083Y002532D01*
X012229Y002386D01*
X012308Y002195D01*
X012308Y001988D01*
X012229Y001797D01*
X012083Y001651D01*
X012079Y001649D01*
X013497Y001649D01*
X013493Y001651D01*
X013347Y001797D01*
X013268Y001988D01*
X013268Y002195D01*
X013347Y002386D01*
X013493Y002532D01*
X013570Y002564D01*
X013570Y003176D01*
X013693Y003299D01*
X015224Y004830D01*
X015224Y006472D01*
X015188Y006508D01*
X015144Y006614D01*
X015144Y006730D01*
X015188Y006836D01*
X015269Y006918D01*
X015376Y006962D01*
X015491Y006962D01*
X015598Y006918D01*
X015679Y006836D01*
X015724Y006730D01*
X015724Y006614D01*
X015679Y006508D01*
X015644Y006472D01*
X015644Y004656D01*
X013990Y003002D01*
X013990Y002571D01*
X014083Y002532D01*
X014229Y002386D01*
X014268Y002292D01*
X014268Y002295D01*
X014347Y002486D01*
X014493Y002632D01*
X014685Y002712D01*
X014891Y002712D01*
X015083Y002632D01*
X015229Y002486D01*
X015308Y002295D01*
X015308Y002292D01*
X015347Y002386D01*
X015493Y002532D01*
X015685Y002612D01*
X015891Y002612D01*
X016083Y002532D01*
X016192Y002423D01*
X016192Y002523D01*
X016266Y002797D01*
X016408Y003044D01*
X016609Y003245D01*
X016855Y003387D01*
X017130Y003460D01*
X017414Y003460D01*
X017689Y003387D01*
X017935Y003245D01*
X018003Y003177D01*
X018003Y015120D01*
X017651Y015120D01*
X017653Y015115D01*
X017653Y015000D01*
X017609Y014893D01*
X017527Y014812D01*
X017420Y014768D01*
X017305Y014768D01*
X017198Y014812D01*
X017163Y014848D01*
X015448Y014848D01*
X015448Y013775D01*
X015360Y013687D01*
X012689Y013687D01*
X012689Y013540D01*
X012692Y013503D01*
X012692Y013501D01*
X012692Y013494D01*
X012695Y013460D01*
X012692Y013458D01*
X012692Y013386D01*
X012648Y013279D01*
X012566Y013198D01*
X012460Y013154D01*
X012344Y013154D01*
X012238Y013198D01*
X012156Y013279D01*
X012112Y013386D01*
X012112Y013501D01*
X012156Y013608D01*
X012236Y013687D01*
X012098Y013687D01*
X012010Y013775D01*
X012010Y014339D01*
X012004Y014363D01*
X012010Y014373D01*
X012010Y014884D01*
X012021Y014895D01*
X012021Y014901D01*
X012012Y014911D01*
X012019Y014986D01*
X012017Y015061D01*
X012026Y015071D01*
X012028Y015085D01*
X012070Y015120D01*
X001187Y015120D01*
X001187Y014993D01*
X001581Y014993D01*
X001669Y014906D01*
X001669Y014501D01*
X001581Y014413D01*
X001187Y014413D01*
X001187Y013261D01*
X001281Y013300D01*
X001397Y013300D01*
X001503Y013256D01*
X001559Y013200D01*
X002900Y013200D01*
X002900Y013567D01*
X002987Y013655D01*
X003392Y013655D01*
X003480Y013567D01*
X003480Y013200D01*
X004371Y013200D01*
X004482Y013089D01*
X004482Y013089D01*
X004961Y012610D01*
X004961Y012610D01*
X005072Y012499D01*
X005072Y009884D01*
X005128Y009828D01*
X005172Y009722D01*
X005172Y009606D01*
X005128Y009500D01*
X005047Y009418D01*
X004940Y009374D01*
X004825Y009374D01*
X004718Y009418D01*
X004646Y009490D01*
X004574Y009418D01*
X004468Y009374D01*
X004352Y009374D01*
X004246Y009418D01*
X004174Y009490D01*
X004102Y009418D01*
X003995Y009374D01*
X003880Y009374D01*
X003773Y009418D01*
X003692Y009500D01*
X003648Y009606D01*
X003648Y009722D01*
X003692Y009828D01*
X003748Y009884D01*
X003748Y011987D01*
X003583Y012151D01*
X002110Y012151D01*
X002055Y012095D01*
X001948Y012051D01*
X001833Y012051D01*
X001726Y012095D01*
X001644Y012177D01*
X001600Y012284D01*
X001600Y012366D01*
X001557Y012366D01*
X001450Y012410D01*
X001369Y012492D01*
X001325Y012598D01*
X001325Y012714D01*
X001327Y012720D01*
X001281Y012720D01*
X001187Y012760D01*
X001187Y009797D01*
X001581Y009797D01*
X001669Y009709D01*
X001669Y009304D01*
X001581Y009217D01*
X001187Y009217D01*
X001187Y009178D02*
X006328Y009178D01*
X006325Y009171D02*
X006325Y009055D01*
X006369Y008949D01*
X006441Y008877D01*
X006369Y008805D01*
X006325Y008698D01*
X006325Y008583D01*
X006369Y008476D01*
X006425Y008420D01*
X006425Y006554D01*
X006536Y006443D01*
X007133Y005845D01*
X007245Y005734D01*
X010079Y005734D01*
X010197Y005852D01*
X010309Y005963D01*
X010309Y007523D01*
X010322Y007528D01*
X010375Y007581D01*
X010427Y007528D01*
X010533Y007484D01*
X010649Y007484D01*
X010755Y007528D01*
X010837Y007610D01*
X010881Y007717D01*
X010881Y007832D01*
X010837Y007939D01*
X010801Y007974D01*
X011253Y007974D01*
X011309Y007918D01*
X011415Y007874D01*
X011531Y007874D01*
X011637Y007918D01*
X011719Y008000D01*
X011763Y008106D01*
X011763Y008165D01*
X011818Y008165D01*
X011925Y008210D01*
X012006Y008291D01*
X012050Y008398D01*
X012050Y008513D01*
X012025Y008575D01*
X012109Y008575D01*
X012081Y008505D01*
X012081Y008390D01*
X012047Y008390D01*
X012081Y008390D02*
X012125Y008283D01*
X012206Y008202D01*
X012313Y008158D01*
X012427Y008158D01*
X012427Y008146D01*
X012471Y008039D01*
X012553Y007958D01*
X012659Y007913D01*
X012775Y007913D01*
X012881Y007958D01*
X012963Y008039D01*
X013004Y008138D01*
X013105Y008138D01*
X013212Y008182D01*
X013294Y008264D01*
X013327Y008344D01*
X013407Y008311D01*
X013523Y008311D01*
X013629Y008355D01*
X013711Y008437D01*
X013755Y008543D01*
X013755Y008659D01*
X013711Y008765D01*
X013629Y008847D01*
X013523Y008891D01*
X013407Y008891D01*
X013301Y008847D01*
X013219Y008765D01*
X013186Y008685D01*
X013105Y008718D01*
X012990Y008718D01*
X012907Y008683D01*
X012907Y009073D01*
X012796Y009185D01*
X012055Y009925D01*
X012086Y009925D01*
X012192Y009969D01*
X012274Y010051D01*
X012318Y010158D01*
X012318Y010273D01*
X012274Y010379D01*
X012192Y010461D01*
X012086Y010505D01*
X011970Y010505D01*
X011864Y010461D01*
X011782Y010379D01*
X011738Y010273D01*
X011738Y010242D01*
X011529Y010451D01*
X011529Y010973D01*
X011589Y010949D01*
X011704Y010949D01*
X011810Y010993D01*
X011866Y011049D01*
X011936Y011049D01*
X011937Y011048D01*
X012014Y011049D01*
X012091Y011049D01*
X012092Y011050D01*
X012094Y011050D01*
X012148Y011106D01*
X012173Y011130D01*
X012196Y011075D01*
X012277Y010993D01*
X012384Y010949D01*
X012499Y010949D01*
X012606Y010993D01*
X012687Y011075D01*
X012688Y011075D01*
X012688Y011075D01*
X012769Y010993D01*
X012876Y010949D01*
X012991Y010949D01*
X013098Y010993D01*
X013179Y011075D01*
X013224Y011181D01*
X013224Y011297D01*
X013179Y011403D01*
X013169Y011414D01*
X013169Y011896D01*
X013198Y011925D01*
X013198Y013033D01*
X013110Y013121D01*
X012098Y013121D01*
X012010Y013033D01*
X012010Y011933D01*
X011410Y011933D01*
X011260Y011783D01*
X011149Y011672D01*
X011149Y010294D01*
X011410Y010033D01*
X011321Y010033D01*
X011214Y009989D01*
X011133Y009907D01*
X011089Y009800D01*
X011089Y009685D01*
X011133Y009579D01*
X011214Y009497D01*
X011321Y009453D01*
X011387Y009453D01*
X011369Y009435D01*
X011325Y009328D01*
X011325Y009213D01*
X011369Y009106D01*
X011420Y009055D01*
X010245Y009055D01*
X009823Y009453D01*
X010085Y009453D01*
X010172Y009541D01*
X010172Y009945D01*
X010085Y010033D01*
X009680Y010033D01*
X009592Y009945D01*
X009592Y009670D01*
X008963Y010264D01*
X009026Y010327D01*
X009070Y010433D01*
X009070Y010548D01*
X009026Y010655D01*
X008944Y010737D01*
X008838Y010781D01*
X008722Y010781D01*
X008616Y010737D01*
X008534Y010655D01*
X008490Y010548D01*
X008490Y010433D01*
X008524Y010350D01*
X007103Y010350D01*
X006905Y010548D01*
X006905Y010627D01*
X006903Y010630D01*
X006990Y010595D01*
X007105Y010595D01*
X007212Y010639D01*
X007294Y010720D01*
X007338Y010827D01*
X007338Y010942D01*
X007294Y011049D01*
X007212Y011130D01*
X007105Y011175D01*
X006990Y011175D01*
X006884Y011130D01*
X006802Y011049D01*
X006758Y010942D01*
X006758Y010827D01*
X006759Y010824D01*
X006672Y010860D01*
X006557Y010860D01*
X006450Y010815D01*
X006369Y010734D01*
X006325Y010627D01*
X006325Y010512D01*
X006369Y010405D01*
X006441Y010333D01*
X006369Y010261D01*
X006325Y010155D01*
X006325Y010039D01*
X006369Y009933D01*
X006450Y009851D01*
X006475Y009841D01*
X006450Y009831D01*
X006369Y009750D01*
X006325Y009643D01*
X006325Y009528D01*
X006369Y009421D01*
X006441Y009349D01*
X006369Y009277D01*
X006325Y009171D01*
X006325Y009079D02*
X001187Y009079D01*
X001187Y008981D02*
X006355Y008981D01*
X006435Y008882D02*
X005208Y008882D01*
X005246Y008844D02*
X005165Y008926D01*
X005058Y008970D01*
X004943Y008970D01*
X004836Y008926D01*
X004780Y008870D01*
X004331Y008870D01*
X003447Y007986D01*
X003368Y007986D01*
X003261Y007941D01*
X003180Y007860D01*
X003136Y007753D01*
X003136Y007638D01*
X003180Y007531D01*
X003261Y007450D01*
X003368Y007406D01*
X003483Y007406D01*
X003590Y007450D01*
X003672Y007531D01*
X003716Y007638D01*
X003716Y007717D01*
X004489Y008490D01*
X004780Y008490D01*
X004836Y008434D01*
X004943Y008390D01*
X005058Y008390D01*
X005165Y008434D01*
X005246Y008516D01*
X005291Y008622D01*
X005291Y008737D01*
X005246Y008844D01*
X005271Y008784D02*
X006360Y008784D01*
X006325Y008685D02*
X005291Y008685D01*
X005276Y008587D02*
X006325Y008587D01*
X006364Y008488D02*
X005219Y008488D01*
X005059Y008390D02*
X006425Y008390D01*
X006425Y008291D02*
X004290Y008291D01*
X004192Y008193D02*
X006425Y008193D01*
X006425Y008094D02*
X004093Y008094D01*
X003995Y007996D02*
X006425Y007996D01*
X006425Y007897D02*
X003896Y007897D01*
X003798Y007799D02*
X006425Y007799D01*
X006425Y007700D02*
X003716Y007700D01*
X003701Y007602D02*
X006425Y007602D01*
X006425Y007503D02*
X003644Y007503D01*
X003208Y007503D02*
X001187Y007503D01*
X001187Y007405D02*
X006425Y007405D01*
X006425Y007306D02*
X001187Y007306D01*
X001187Y007208D02*
X006425Y007208D01*
X006425Y007109D02*
X001187Y007109D01*
X001187Y007011D02*
X006425Y007011D01*
X006425Y006912D02*
X001187Y006912D01*
X001187Y006814D02*
X006425Y006814D01*
X006425Y006715D02*
X001187Y006715D01*
X001187Y006617D02*
X006425Y006617D01*
X006460Y006518D02*
X001187Y006518D01*
X001187Y006420D02*
X006559Y006420D01*
X006657Y006321D02*
X001187Y006321D01*
X001187Y006223D02*
X006756Y006223D01*
X006854Y006124D02*
X001187Y006124D01*
X001187Y006026D02*
X006953Y006026D01*
X007051Y005927D02*
X001187Y005927D01*
X001187Y005829D02*
X007150Y005829D01*
X006935Y005230D02*
X006531Y005230D01*
X006443Y005142D01*
X006443Y004737D01*
X006531Y004650D01*
X006935Y004650D01*
X007023Y004737D01*
X007023Y005142D01*
X006935Y005230D01*
X007023Y005139D02*
X015224Y005139D01*
X015224Y005041D02*
X007023Y005041D01*
X007023Y004942D02*
X015224Y004942D01*
X015224Y004844D02*
X007023Y004844D01*
X007023Y004745D02*
X015139Y004745D01*
X015041Y004647D02*
X001187Y004647D01*
X001187Y004745D02*
X001868Y004745D01*
X001885Y004728D02*
X002289Y004728D01*
X002377Y004816D01*
X002377Y005221D01*
X002289Y005308D01*
X001885Y005308D01*
X001797Y005221D01*
X001797Y004816D01*
X001885Y004728D01*
X001797Y004844D02*
X001187Y004844D01*
X001187Y004942D02*
X001797Y004942D01*
X001797Y005041D02*
X001187Y005041D01*
X001187Y005139D02*
X001797Y005139D01*
X001815Y005238D02*
X001187Y005238D01*
X001187Y005336D02*
X015224Y005336D01*
X015224Y005238D02*
X002360Y005238D01*
X002377Y005139D02*
X003608Y005139D01*
X003608Y005142D02*
X003608Y004737D01*
X003696Y004650D01*
X004100Y004650D01*
X004188Y004737D01*
X004188Y005142D01*
X004100Y005230D01*
X003696Y005230D01*
X003608Y005142D01*
X003608Y005041D02*
X002377Y005041D01*
X002377Y004942D02*
X003608Y004942D01*
X003608Y004844D02*
X002377Y004844D01*
X002306Y004745D02*
X003608Y004745D01*
X004188Y004745D02*
X006443Y004745D01*
X006443Y004844D02*
X004188Y004844D01*
X004188Y004942D02*
X006443Y004942D01*
X006443Y005041D02*
X004188Y005041D01*
X004188Y005139D02*
X006443Y005139D01*
X003593Y003450D02*
X003637Y003344D01*
X003637Y003228D01*
X003593Y003122D01*
X003511Y003040D01*
X003405Y002996D01*
X003289Y002996D01*
X003183Y003040D01*
X003101Y003122D01*
X003057Y003228D01*
X003057Y003344D01*
X003101Y003450D01*
X003183Y003532D01*
X003289Y003576D01*
X003405Y003576D01*
X003511Y003532D01*
X003593Y003450D01*
X003578Y003465D02*
X013859Y003465D01*
X013957Y003563D02*
X003435Y003563D01*
X003259Y003563D02*
X001187Y003563D01*
X001187Y003465D02*
X003116Y003465D01*
X003066Y003366D02*
X001187Y003366D01*
X001187Y003268D02*
X003057Y003268D01*
X003081Y003169D02*
X001187Y003169D01*
X001187Y003071D02*
X003152Y003071D01*
X003542Y003071D02*
X013570Y003071D01*
X013570Y003169D02*
X003613Y003169D01*
X003637Y003268D02*
X013662Y003268D01*
X013760Y003366D02*
X003628Y003366D01*
X001187Y003662D02*
X014056Y003662D01*
X014154Y003760D02*
X001187Y003760D01*
X001187Y003859D02*
X014253Y003859D01*
X014351Y003957D02*
X001187Y003957D01*
X001187Y004056D02*
X014450Y004056D01*
X014548Y004154D02*
X001187Y004154D01*
X001187Y004253D02*
X014647Y004253D01*
X014745Y004351D02*
X001187Y004351D01*
X001187Y004450D02*
X014844Y004450D01*
X014942Y004548D02*
X001187Y004548D01*
X001187Y005435D02*
X015224Y005435D01*
X015224Y005533D02*
X001187Y005533D01*
X001187Y005632D02*
X015224Y005632D01*
X015224Y005730D02*
X001187Y005730D01*
X001187Y007602D02*
X003151Y007602D01*
X003136Y007700D02*
X001187Y007700D01*
X001187Y007799D02*
X003155Y007799D01*
X003218Y007897D02*
X001187Y007897D01*
X001187Y007996D02*
X003458Y007996D01*
X003556Y008094D02*
X001187Y008094D01*
X001187Y008193D02*
X003655Y008193D01*
X003753Y008291D02*
X001187Y008291D01*
X001187Y008390D02*
X003852Y008390D01*
X003950Y008488D02*
X001187Y008488D01*
X001187Y008587D02*
X004049Y008587D01*
X004147Y008685D02*
X001187Y008685D01*
X001187Y008784D02*
X004246Y008784D01*
X004487Y008488D02*
X004782Y008488D01*
X004942Y008390D02*
X004389Y008390D01*
X004793Y008882D02*
X001187Y008882D01*
X001641Y009276D02*
X006369Y009276D01*
X006415Y009375D02*
X004942Y009375D01*
X004822Y009375D02*
X004470Y009375D01*
X004350Y009375D02*
X003998Y009375D01*
X003878Y009375D02*
X001669Y009375D01*
X001669Y009473D02*
X003718Y009473D01*
X003662Y009572D02*
X002881Y009572D01*
X002840Y009532D02*
X002928Y009619D01*
X002928Y010024D01*
X002840Y010112D01*
X002436Y010112D01*
X002348Y010024D01*
X002348Y009619D01*
X002436Y009532D01*
X002840Y009532D01*
X002928Y009670D02*
X003648Y009670D01*
X003667Y009769D02*
X002928Y009769D01*
X002928Y009867D02*
X003731Y009867D01*
X003748Y009966D02*
X002928Y009966D01*
X002888Y010064D02*
X003748Y010064D01*
X003748Y010163D02*
X001187Y010163D01*
X001187Y010261D02*
X003748Y010261D01*
X003748Y010360D02*
X001187Y010360D01*
X001187Y010458D02*
X003748Y010458D01*
X003748Y010557D02*
X001187Y010557D01*
X001187Y010655D02*
X003748Y010655D01*
X003748Y010754D02*
X001187Y010754D01*
X001187Y010852D02*
X003748Y010852D01*
X003748Y010951D02*
X001187Y010951D01*
X001187Y011049D02*
X003748Y011049D01*
X003748Y011148D02*
X001187Y011148D01*
X001187Y011246D02*
X003748Y011246D01*
X003748Y011345D02*
X001187Y011345D01*
X001187Y011444D02*
X003748Y011444D01*
X003748Y011542D02*
X001187Y011542D01*
X001187Y011641D02*
X003748Y011641D01*
X003748Y011739D02*
X001187Y011739D01*
X001187Y011838D02*
X003748Y011838D01*
X003748Y011936D02*
X001187Y011936D01*
X001187Y012035D02*
X003700Y012035D01*
X003601Y012133D02*
X002092Y012133D01*
X001688Y012133D02*
X001187Y012133D01*
X001187Y012232D02*
X001622Y012232D01*
X001600Y012330D02*
X001187Y012330D01*
X001187Y012429D02*
X001432Y012429D01*
X001354Y012527D02*
X001187Y012527D01*
X001187Y012626D02*
X001325Y012626D01*
X001273Y012724D02*
X001187Y012724D01*
X001543Y013217D02*
X002900Y013217D01*
X002900Y013315D02*
X001187Y013315D01*
X001187Y013414D02*
X002900Y013414D01*
X002900Y013512D02*
X001187Y013512D01*
X001187Y013611D02*
X002943Y013611D01*
X003436Y013611D02*
X004951Y013611D01*
X004907Y013567D02*
X004907Y013163D01*
X004995Y013075D01*
X005400Y013075D01*
X005487Y013163D01*
X005487Y013567D01*
X005400Y013655D01*
X004995Y013655D01*
X004907Y013567D01*
X004907Y013512D02*
X003480Y013512D01*
X003480Y013414D02*
X004907Y013414D01*
X004907Y013315D02*
X003480Y013315D01*
X003480Y013217D02*
X004907Y013217D01*
X004952Y013118D02*
X004453Y013118D01*
X004552Y013020D02*
X009883Y013020D01*
X009883Y012948D02*
X009971Y012860D01*
X011002Y012860D01*
X011204Y012777D01*
X011453Y012777D01*
X011684Y012873D01*
X011860Y013049D01*
X011955Y013279D01*
X011955Y013529D01*
X011860Y013759D01*
X011684Y013936D01*
X011453Y014031D01*
X011204Y014031D01*
X011002Y013948D01*
X009971Y013948D01*
X009883Y013860D01*
X009883Y012948D01*
X009910Y012921D02*
X004650Y012921D01*
X004749Y012823D02*
X011094Y012823D01*
X011563Y012823D02*
X012010Y012823D01*
X012010Y012921D02*
X011732Y012921D01*
X011831Y013020D02*
X012010Y013020D01*
X012095Y013118D02*
X011889Y013118D01*
X011929Y013217D02*
X012219Y013217D01*
X012141Y013315D02*
X011955Y013315D01*
X011955Y013414D02*
X012112Y013414D01*
X012117Y013512D02*
X011955Y013512D01*
X011922Y013611D02*
X012159Y013611D01*
X012076Y013709D02*
X011881Y013709D01*
X011812Y013808D02*
X012010Y013808D01*
X012010Y013906D02*
X011713Y013906D01*
X011518Y014005D02*
X012010Y014005D01*
X012010Y014103D02*
X006590Y014103D01*
X006590Y014005D02*
X011139Y014005D01*
X012010Y014202D02*
X006590Y014202D01*
X006590Y014300D02*
X012010Y014300D01*
X012010Y014399D02*
X006585Y014399D01*
X006590Y014394D02*
X006502Y014482D01*
X006098Y014482D01*
X006010Y014394D01*
X006010Y013989D01*
X006098Y013902D01*
X006502Y013902D01*
X006590Y013989D01*
X006590Y014394D01*
X006502Y014492D02*
X006590Y014580D01*
X006590Y014984D01*
X006502Y015072D01*
X006098Y015072D01*
X006010Y014984D01*
X006010Y014580D01*
X006098Y014492D01*
X006502Y014492D01*
X006507Y014497D02*
X012010Y014497D01*
X012010Y014596D02*
X006590Y014596D01*
X006590Y014694D02*
X012010Y014694D01*
X012010Y014793D02*
X006590Y014793D01*
X006590Y014891D02*
X012017Y014891D01*
X012019Y014990D02*
X006585Y014990D01*
X006015Y014990D02*
X001585Y014990D01*
X001669Y014891D02*
X006010Y014891D01*
X006010Y014793D02*
X001669Y014793D01*
X001669Y014694D02*
X006010Y014694D01*
X006010Y014596D02*
X001669Y014596D01*
X001664Y014497D02*
X006093Y014497D01*
X006015Y014399D02*
X001187Y014399D01*
X001187Y014300D02*
X006010Y014300D01*
X006010Y014202D02*
X001187Y014202D01*
X001187Y014103D02*
X006010Y014103D01*
X006010Y014005D02*
X001187Y014005D01*
X001187Y013906D02*
X006093Y013906D01*
X006506Y013906D02*
X009929Y013906D01*
X009883Y013808D02*
X001187Y013808D01*
X001187Y013709D02*
X009883Y013709D01*
X009883Y013611D02*
X005444Y013611D01*
X005487Y013512D02*
X009883Y013512D01*
X009883Y013414D02*
X005487Y013414D01*
X005487Y013315D02*
X009883Y013315D01*
X009883Y013217D02*
X005487Y013217D01*
X005443Y013118D02*
X009883Y013118D01*
X009306Y012622D02*
X009218Y012710D01*
X008814Y012710D01*
X008726Y012622D01*
X008726Y012218D01*
X008814Y012130D01*
X009218Y012130D01*
X009306Y012218D01*
X009306Y012622D01*
X009303Y012626D02*
X012010Y012626D01*
X012010Y012724D02*
X004847Y012724D01*
X004946Y012626D02*
X008730Y012626D01*
X008726Y012527D02*
X005044Y012527D01*
X005072Y012429D02*
X008726Y012429D01*
X008726Y012330D02*
X005072Y012330D01*
X005072Y012232D02*
X008726Y012232D01*
X008811Y012133D02*
X005072Y012133D01*
X005072Y012035D02*
X005504Y012035D01*
X005506Y012036D02*
X005424Y011954D01*
X005380Y011848D01*
X005380Y011732D01*
X005424Y011626D01*
X005506Y011544D01*
X005612Y011500D01*
X005728Y011500D01*
X005734Y011503D01*
X005734Y011417D01*
X005778Y011311D01*
X005860Y011229D01*
X005966Y011185D01*
X006082Y011185D01*
X006188Y011229D01*
X006270Y011311D01*
X006314Y011417D01*
X006314Y011533D01*
X006270Y011639D01*
X006188Y011721D01*
X006082Y011765D01*
X005966Y011765D01*
X005960Y011762D01*
X005960Y011848D01*
X005916Y011954D01*
X005834Y012036D01*
X005728Y012080D01*
X005612Y012080D01*
X005506Y012036D01*
X005416Y011936D02*
X005072Y011936D01*
X005072Y011838D02*
X005380Y011838D01*
X005380Y011739D02*
X005072Y011739D01*
X005072Y011641D02*
X005418Y011641D01*
X005511Y011542D02*
X005072Y011542D01*
X005072Y011444D02*
X005734Y011444D01*
X005764Y011345D02*
X005072Y011345D01*
X005072Y011246D02*
X005843Y011246D01*
X006206Y011246D02*
X011149Y011246D01*
X011149Y011148D02*
X007169Y011148D01*
X007293Y011049D02*
X011149Y011049D01*
X011149Y010951D02*
X007334Y010951D01*
X007338Y010852D02*
X011149Y010852D01*
X011149Y010754D02*
X008902Y010754D01*
X009026Y010655D02*
X011149Y010655D01*
X011149Y010557D02*
X009067Y010557D01*
X009070Y010458D02*
X011149Y010458D01*
X011149Y010360D02*
X009040Y010360D01*
X008965Y010261D02*
X011182Y010261D01*
X011280Y010163D02*
X009070Y010163D01*
X009174Y010064D02*
X011379Y010064D01*
X011192Y009966D02*
X010151Y009966D01*
X010172Y009867D02*
X011116Y009867D01*
X011089Y009769D02*
X010172Y009769D01*
X010172Y009670D02*
X011095Y009670D01*
X011139Y009572D02*
X010172Y009572D01*
X010105Y009473D02*
X011271Y009473D01*
X011344Y009375D02*
X009906Y009375D01*
X010010Y009276D02*
X011325Y009276D01*
X011339Y009178D02*
X010115Y009178D01*
X010219Y009079D02*
X011395Y009079D01*
X012050Y008488D02*
X012081Y008488D01*
X012121Y008291D02*
X012006Y008291D01*
X011885Y008193D02*
X012227Y008193D01*
X012448Y008094D02*
X011758Y008094D01*
X011715Y007996D02*
X012514Y007996D01*
X012920Y007996D02*
X018003Y007996D01*
X018003Y008094D02*
X012986Y008094D01*
X013223Y008193D02*
X018003Y008193D01*
X018003Y008291D02*
X013305Y008291D01*
X013664Y008390D02*
X018003Y008390D01*
X018003Y008488D02*
X013732Y008488D01*
X013755Y008587D02*
X016412Y008587D01*
X016403Y008596D02*
X016491Y008508D01*
X016896Y008508D01*
X016983Y008596D01*
X016983Y009000D01*
X016896Y009088D01*
X016491Y009088D01*
X016403Y009000D01*
X016403Y008596D01*
X016403Y008685D02*
X013744Y008685D01*
X013692Y008784D02*
X016403Y008784D01*
X016403Y008882D02*
X013543Y008882D01*
X013387Y008882D02*
X012907Y008882D01*
X012907Y008784D02*
X013238Y008784D01*
X013186Y008685D02*
X013184Y008685D01*
X012912Y008685D02*
X012907Y008685D01*
X012907Y008981D02*
X016403Y008981D01*
X016483Y009079D02*
X012901Y009079D01*
X012803Y009178D02*
X018003Y009178D01*
X018003Y009276D02*
X012704Y009276D01*
X012606Y009375D02*
X018003Y009375D01*
X018003Y009473D02*
X012507Y009473D01*
X012409Y009572D02*
X018003Y009572D01*
X018003Y009670D02*
X012310Y009670D01*
X012212Y009769D02*
X018003Y009769D01*
X018003Y009867D02*
X016976Y009867D01*
X016980Y009871D02*
X016892Y009783D01*
X016487Y009783D01*
X016400Y009871D01*
X016400Y010276D01*
X016487Y010363D01*
X016892Y010363D01*
X016980Y010276D01*
X016980Y009871D01*
X016980Y009966D02*
X018003Y009966D01*
X018003Y010064D02*
X016980Y010064D01*
X016980Y010163D02*
X018003Y010163D01*
X018003Y010261D02*
X016980Y010261D01*
X016895Y010360D02*
X018003Y010360D01*
X018003Y010458D02*
X015291Y010458D01*
X015239Y010437D02*
X015346Y010481D01*
X015428Y010563D01*
X015472Y010669D01*
X015472Y010785D01*
X015428Y010891D01*
X015346Y010973D01*
X015322Y010983D01*
X015346Y010993D01*
X015428Y011075D01*
X015472Y011181D01*
X015472Y011269D01*
X016415Y011269D01*
X016415Y010934D01*
X016503Y010846D01*
X016907Y010846D01*
X016995Y010934D01*
X016995Y011288D01*
X017103Y011395D01*
X017214Y011507D01*
X017214Y011672D01*
X017270Y011728D01*
X017314Y011835D01*
X017314Y011950D01*
X017270Y012057D01*
X017188Y012138D01*
X017082Y012182D01*
X016966Y012182D01*
X016860Y012138D01*
X016806Y012084D01*
X016751Y012138D01*
X016645Y012182D01*
X016529Y012182D01*
X016423Y012138D01*
X016341Y012057D01*
X016310Y011980D01*
X015457Y011980D01*
X015448Y011990D01*
X015448Y012458D01*
X015454Y012474D01*
X015448Y012489D01*
X015448Y013033D01*
X015360Y013121D01*
X014848Y013121D01*
X014760Y013033D01*
X014760Y011925D01*
X014789Y011896D01*
X014789Y011893D01*
X014789Y011816D01*
X014790Y011814D01*
X014790Y011812D01*
X014846Y011759D01*
X014900Y011704D01*
X014902Y011704D01*
X015096Y011517D01*
X015045Y011496D01*
X014672Y011864D01*
X014672Y011899D01*
X014698Y011925D01*
X014698Y013033D01*
X014610Y013121D01*
X014098Y013121D01*
X014010Y013033D01*
X014010Y011925D01*
X014042Y011893D01*
X014042Y011702D01*
X014043Y011625D01*
X014043Y011552D01*
X014029Y011566D01*
X014029Y011658D01*
X014033Y011663D01*
X014029Y011736D01*
X014029Y011810D01*
X014025Y011814D01*
X014024Y011820D01*
X013970Y011869D01*
X013931Y011908D01*
X013948Y011925D01*
X013948Y013033D01*
X013860Y013121D01*
X013348Y013121D01*
X013260Y013033D01*
X013260Y011925D01*
X013289Y011896D01*
X013289Y011373D01*
X013283Y011366D01*
X013285Y011343D01*
X013266Y011297D01*
X013266Y011181D01*
X013310Y011075D01*
X013391Y010993D01*
X013498Y010949D01*
X013613Y010949D01*
X013720Y010993D01*
X013802Y011075D01*
X013821Y011123D01*
X013841Y011075D01*
X013923Y010993D01*
X014029Y010949D01*
X014145Y010949D01*
X014251Y010993D01*
X014333Y011075D01*
X014355Y011127D01*
X014377Y011075D01*
X014458Y010993D01*
X014565Y010949D01*
X014680Y010949D01*
X014787Y010993D01*
X014868Y011075D01*
X014887Y011119D01*
X014902Y011104D01*
X014957Y011049D01*
X014958Y011049D01*
X014959Y011048D01*
X014962Y011048D01*
X015017Y010993D01*
X015042Y010983D01*
X015017Y010973D01*
X014936Y010891D01*
X014892Y010785D01*
X014892Y010669D01*
X014936Y010563D01*
X015017Y010481D01*
X015124Y010437D01*
X015239Y010437D01*
X015072Y010458D02*
X013297Y010458D01*
X013259Y010497D02*
X013153Y010541D01*
X013037Y010541D01*
X012931Y010497D01*
X012849Y010415D01*
X012805Y010308D01*
X012805Y010193D01*
X012849Y010086D01*
X012931Y010005D01*
X013037Y009961D01*
X013153Y009961D01*
X013259Y010005D01*
X013341Y010086D01*
X013385Y010193D01*
X013385Y010308D01*
X013341Y010415D01*
X013259Y010497D01*
X013364Y010360D02*
X016484Y010360D01*
X016400Y010261D02*
X013385Y010261D01*
X013373Y010163D02*
X016400Y010163D01*
X016400Y010064D02*
X013319Y010064D01*
X013166Y009966D02*
X016400Y009966D01*
X016403Y009867D02*
X012113Y009867D01*
X012184Y009966D02*
X013024Y009966D01*
X012871Y010064D02*
X012280Y010064D01*
X012318Y010163D02*
X012817Y010163D01*
X012805Y010261D02*
X012318Y010261D01*
X012282Y010360D02*
X012826Y010360D01*
X012893Y010458D02*
X012195Y010458D01*
X011861Y010458D02*
X011529Y010458D01*
X011529Y010557D02*
X014942Y010557D01*
X014897Y010655D02*
X011529Y010655D01*
X011529Y010754D02*
X014892Y010754D01*
X014920Y010852D02*
X011529Y010852D01*
X011529Y010951D02*
X011583Y010951D01*
X011709Y010951D02*
X012379Y010951D01*
X012504Y010951D02*
X012871Y010951D01*
X012997Y010951D02*
X013493Y010951D01*
X013619Y010951D02*
X014024Y010951D01*
X014150Y010951D02*
X014560Y010951D01*
X014685Y010951D02*
X014995Y010951D01*
X014957Y011049D02*
X014843Y011049D01*
X014402Y011049D02*
X014308Y011049D01*
X013866Y011049D02*
X013776Y011049D01*
X013335Y011049D02*
X013154Y011049D01*
X013210Y011148D02*
X013279Y011148D01*
X013266Y011246D02*
X013224Y011246D01*
X013204Y011345D02*
X013285Y011345D01*
X013289Y011444D02*
X013169Y011444D01*
X013169Y011542D02*
X013289Y011542D01*
X013289Y011641D02*
X013169Y011641D01*
X013169Y011739D02*
X013289Y011739D01*
X013289Y011838D02*
X013169Y011838D01*
X013198Y011936D02*
X013260Y011936D01*
X013260Y012035D02*
X013198Y012035D01*
X013198Y012133D02*
X013260Y012133D01*
X013260Y012232D02*
X013198Y012232D01*
X013198Y012330D02*
X013260Y012330D01*
X013260Y012429D02*
X013198Y012429D01*
X013198Y012527D02*
X013260Y012527D01*
X013260Y012626D02*
X013198Y012626D01*
X013198Y012724D02*
X013260Y012724D01*
X013260Y012823D02*
X013198Y012823D01*
X013198Y012921D02*
X013260Y012921D01*
X013260Y013020D02*
X013198Y013020D01*
X013113Y013118D02*
X013345Y013118D01*
X013863Y013118D02*
X014095Y013118D01*
X014010Y013020D02*
X013948Y013020D01*
X013948Y012921D02*
X014010Y012921D01*
X014010Y012823D02*
X013948Y012823D01*
X013948Y012724D02*
X014010Y012724D01*
X014010Y012626D02*
X013948Y012626D01*
X013948Y012527D02*
X014010Y012527D01*
X014010Y012429D02*
X013948Y012429D01*
X013948Y012330D02*
X014010Y012330D01*
X014010Y012232D02*
X013948Y012232D01*
X013948Y012133D02*
X014010Y012133D01*
X014010Y012035D02*
X013948Y012035D01*
X013948Y011936D02*
X014010Y011936D01*
X014005Y011838D02*
X014042Y011838D01*
X014029Y011739D02*
X014042Y011739D01*
X014042Y011702D02*
X014042Y011702D01*
X014043Y011641D02*
X014029Y011641D01*
X014699Y011838D02*
X014789Y011838D01*
X014799Y011739D02*
X014866Y011739D01*
X014899Y011641D02*
X014968Y011641D01*
X014999Y011542D02*
X015070Y011542D01*
X015472Y011246D02*
X016415Y011246D01*
X016415Y011148D02*
X015458Y011148D01*
X015402Y011049D02*
X016415Y011049D01*
X016415Y010951D02*
X015368Y010951D01*
X015444Y010852D02*
X016497Y010852D01*
X016913Y010852D02*
X018003Y010852D01*
X018003Y010754D02*
X015472Y010754D01*
X015466Y010655D02*
X018003Y010655D01*
X018003Y010557D02*
X015422Y010557D01*
X014760Y011936D02*
X014698Y011936D01*
X014698Y012035D02*
X014760Y012035D01*
X014760Y012133D02*
X014698Y012133D01*
X014698Y012232D02*
X014760Y012232D01*
X014760Y012330D02*
X014698Y012330D01*
X014698Y012429D02*
X014760Y012429D01*
X014760Y012527D02*
X014698Y012527D01*
X014698Y012626D02*
X014760Y012626D01*
X014760Y012724D02*
X014698Y012724D01*
X014698Y012823D02*
X014760Y012823D01*
X014760Y012921D02*
X014698Y012921D01*
X014698Y013020D02*
X014760Y013020D01*
X014845Y013118D02*
X014613Y013118D01*
X015363Y013118D02*
X015612Y013118D01*
X015631Y013071D02*
X015542Y013287D01*
X015542Y013521D01*
X015631Y013737D01*
X015797Y013903D01*
X016013Y013992D01*
X016246Y013992D01*
X016371Y013940D01*
X016378Y013948D01*
X016619Y013948D01*
X016529Y013985D01*
X016448Y014067D01*
X016403Y014173D01*
X016403Y014289D01*
X016448Y014395D01*
X016529Y014477D01*
X016636Y014521D01*
X016751Y014521D01*
X016858Y014477D01*
X016939Y014395D01*
X016983Y014289D01*
X016983Y014173D01*
X016939Y014067D01*
X016858Y013985D01*
X016768Y013948D01*
X017487Y013948D01*
X017575Y013860D01*
X017575Y012948D01*
X017487Y012860D01*
X016378Y012860D01*
X016371Y012868D01*
X016246Y012816D01*
X016013Y012816D01*
X015797Y012906D01*
X015631Y013071D01*
X015683Y013020D02*
X015448Y013020D01*
X015448Y012921D02*
X015781Y012921D01*
X015998Y012823D02*
X015448Y012823D01*
X015448Y012724D02*
X018003Y012724D01*
X018003Y012626D02*
X015448Y012626D01*
X015448Y012527D02*
X018003Y012527D01*
X018003Y012429D02*
X015448Y012429D01*
X015448Y012330D02*
X018003Y012330D01*
X018003Y012232D02*
X015448Y012232D01*
X015448Y012133D02*
X016418Y012133D01*
X016332Y012035D02*
X015448Y012035D01*
X016261Y012823D02*
X018003Y012823D01*
X018003Y012921D02*
X017547Y012921D01*
X017575Y013020D02*
X018003Y013020D01*
X018003Y013118D02*
X017575Y013118D01*
X017575Y013217D02*
X018003Y013217D01*
X018003Y013315D02*
X017575Y013315D01*
X017575Y013414D02*
X018003Y013414D01*
X018003Y013512D02*
X017575Y013512D01*
X017575Y013611D02*
X018003Y013611D01*
X018003Y013709D02*
X017575Y013709D01*
X017575Y013808D02*
X018003Y013808D01*
X018003Y013906D02*
X017529Y013906D01*
X018003Y014005D02*
X016877Y014005D01*
X016954Y014103D02*
X018003Y014103D01*
X018003Y014202D02*
X016983Y014202D01*
X016979Y014300D02*
X018003Y014300D01*
X018003Y014399D02*
X016936Y014399D01*
X016809Y014497D02*
X018003Y014497D01*
X018003Y014596D02*
X015448Y014596D01*
X015448Y014694D02*
X018003Y014694D01*
X018003Y014793D02*
X017480Y014793D01*
X017606Y014891D02*
X018003Y014891D01*
X018003Y014990D02*
X017648Y014990D01*
X017653Y015088D02*
X018003Y015088D01*
X017245Y014793D02*
X015448Y014793D01*
X015448Y014497D02*
X016578Y014497D01*
X016451Y014399D02*
X015448Y014399D01*
X015448Y014300D02*
X016408Y014300D01*
X016403Y014202D02*
X015448Y014202D01*
X015448Y014103D02*
X016433Y014103D01*
X016510Y014005D02*
X015448Y014005D01*
X015448Y013906D02*
X015805Y013906D01*
X015702Y013808D02*
X015448Y013808D01*
X015382Y013709D02*
X015620Y013709D01*
X015579Y013611D02*
X012689Y013611D01*
X012691Y013512D02*
X015542Y013512D01*
X015542Y013414D02*
X012692Y013414D01*
X012663Y013315D02*
X015542Y013315D01*
X015571Y013217D02*
X012585Y013217D01*
X012010Y012527D02*
X009306Y012527D01*
X009306Y012429D02*
X012010Y012429D01*
X012010Y012330D02*
X009306Y012330D01*
X009306Y012232D02*
X012010Y012232D01*
X012010Y012133D02*
X009221Y012133D01*
X008658Y010754D02*
X007308Y010754D01*
X007229Y010655D02*
X008535Y010655D01*
X008494Y010557D02*
X006905Y010557D01*
X006994Y010458D02*
X008490Y010458D01*
X008520Y010360D02*
X007093Y010360D01*
X006414Y010360D02*
X005072Y010360D01*
X005072Y010458D02*
X006347Y010458D01*
X006325Y010557D02*
X005072Y010557D01*
X005072Y010655D02*
X006336Y010655D01*
X006389Y010754D02*
X005072Y010754D01*
X005072Y010852D02*
X006540Y010852D01*
X006689Y010852D02*
X006758Y010852D01*
X006761Y010951D02*
X005072Y010951D01*
X005072Y011049D02*
X006803Y011049D01*
X006926Y011148D02*
X005072Y011148D01*
X005072Y010261D02*
X006369Y010261D01*
X006328Y010163D02*
X005072Y010163D01*
X005072Y010064D02*
X006325Y010064D01*
X006355Y009966D02*
X005072Y009966D01*
X005089Y009867D02*
X006434Y009867D01*
X006388Y009769D02*
X005153Y009769D01*
X005172Y009670D02*
X006336Y009670D01*
X006325Y009572D02*
X005158Y009572D01*
X005102Y009473D02*
X006347Y009473D01*
X004663Y009473D02*
X004630Y009473D01*
X004190Y009473D02*
X004157Y009473D01*
X002396Y009572D02*
X001669Y009572D01*
X001669Y009670D02*
X002348Y009670D01*
X002348Y009769D02*
X001608Y009769D01*
X001187Y009867D02*
X002348Y009867D01*
X002348Y009966D02*
X001187Y009966D01*
X001187Y010064D02*
X002389Y010064D01*
X005835Y012035D02*
X012010Y012035D01*
X012010Y011936D02*
X005923Y011936D01*
X005960Y011838D02*
X011315Y011838D01*
X011216Y011739D02*
X006145Y011739D01*
X006269Y011641D02*
X011149Y011641D01*
X011149Y011542D02*
X006310Y011542D01*
X006314Y011444D02*
X011149Y011444D01*
X011149Y011345D02*
X006284Y011345D01*
X009279Y009966D02*
X009614Y009966D01*
X009592Y009867D02*
X009383Y009867D01*
X009488Y009769D02*
X009592Y009769D01*
X009592Y009670D02*
X009592Y009670D01*
X011621Y010360D02*
X011774Y010360D01*
X011738Y010261D02*
X011719Y010261D01*
X012092Y011049D02*
X012221Y011049D01*
X012662Y011049D02*
X012713Y011049D01*
X011587Y007897D02*
X018003Y007897D01*
X018003Y007799D02*
X010881Y007799D01*
X010874Y007700D02*
X018003Y007700D01*
X018003Y007602D02*
X010829Y007602D01*
X010695Y007503D02*
X018003Y007503D01*
X018003Y007405D02*
X010309Y007405D01*
X010309Y007503D02*
X010487Y007503D01*
X010309Y007306D02*
X018003Y007306D01*
X018003Y007208D02*
X010309Y007208D01*
X010309Y007109D02*
X018003Y007109D01*
X018003Y007011D02*
X010309Y007011D01*
X010309Y006912D02*
X015264Y006912D01*
X015179Y006814D02*
X010309Y006814D01*
X010309Y006715D02*
X015144Y006715D01*
X015144Y006617D02*
X014327Y006617D01*
X014297Y006647D02*
X013893Y006647D01*
X013805Y006559D01*
X013805Y006155D01*
X013893Y006067D01*
X014297Y006067D01*
X014385Y006155D01*
X014385Y006559D01*
X014297Y006647D01*
X014385Y006518D02*
X015183Y006518D01*
X015224Y006420D02*
X014385Y006420D01*
X014385Y006321D02*
X015224Y006321D01*
X015224Y006223D02*
X014385Y006223D01*
X014355Y006124D02*
X015224Y006124D01*
X015224Y006026D02*
X010309Y006026D01*
X010309Y006124D02*
X011831Y006124D01*
X011817Y006139D02*
X011905Y006051D01*
X012309Y006051D01*
X012397Y006139D01*
X012397Y006543D01*
X012309Y006631D01*
X011905Y006631D01*
X011817Y006543D01*
X011817Y006139D01*
X011817Y006223D02*
X010309Y006223D01*
X010309Y006321D02*
X011817Y006321D01*
X011817Y006420D02*
X010309Y006420D01*
X010309Y006518D02*
X011817Y006518D01*
X011890Y006617D02*
X010309Y006617D01*
X010273Y005927D02*
X015224Y005927D01*
X015224Y005829D02*
X010174Y005829D01*
X012382Y006124D02*
X013835Y006124D01*
X013805Y006223D02*
X012397Y006223D01*
X012397Y006321D02*
X013805Y006321D01*
X013805Y006420D02*
X012397Y006420D01*
X012397Y006518D02*
X013805Y006518D01*
X013863Y006617D02*
X012323Y006617D01*
X011359Y007897D02*
X010854Y007897D01*
X015142Y004154D02*
X018003Y004154D01*
X018003Y004056D02*
X015044Y004056D01*
X014945Y003957D02*
X018003Y003957D01*
X018003Y003859D02*
X014847Y003859D01*
X014748Y003760D02*
X018003Y003760D01*
X018003Y003662D02*
X014650Y003662D01*
X014551Y003563D02*
X018003Y003563D01*
X018003Y003465D02*
X014453Y003465D01*
X014354Y003366D02*
X016820Y003366D01*
X016649Y003268D02*
X014256Y003268D01*
X014157Y003169D02*
X016534Y003169D01*
X016435Y003071D02*
X014059Y003071D01*
X013990Y002972D02*
X016367Y002972D01*
X016310Y002874D02*
X013990Y002874D01*
X013990Y002775D02*
X016260Y002775D01*
X016234Y002677D02*
X014975Y002677D01*
X015136Y002578D02*
X015605Y002578D01*
X015441Y002480D02*
X015231Y002480D01*
X015272Y002381D02*
X015345Y002381D01*
X014601Y002677D02*
X013990Y002677D01*
X013990Y002578D02*
X014439Y002578D01*
X014345Y002480D02*
X014135Y002480D01*
X014231Y002381D02*
X014304Y002381D01*
X013570Y002578D02*
X011971Y002578D01*
X012135Y002480D02*
X013441Y002480D01*
X013345Y002381D02*
X012231Y002381D01*
X012272Y002283D02*
X013304Y002283D01*
X013268Y002184D02*
X012308Y002184D01*
X012308Y002086D02*
X013268Y002086D01*
X013268Y001987D02*
X012308Y001987D01*
X012267Y001889D02*
X013309Y001889D01*
X013354Y001790D02*
X012222Y001790D01*
X012124Y001692D02*
X013452Y001692D01*
X013570Y002677D02*
X010975Y002677D01*
X011136Y002578D02*
X011605Y002578D01*
X011441Y002480D02*
X011231Y002480D01*
X011272Y002381D02*
X011345Y002381D01*
X011266Y001987D02*
X011268Y001987D01*
X011309Y001889D02*
X011221Y001889D01*
X011122Y001790D02*
X011354Y001790D01*
X011452Y001692D02*
X010941Y001692D01*
X010635Y001692D02*
X001187Y001692D01*
X001187Y001790D02*
X010454Y001790D01*
X010355Y001889D02*
X001187Y001889D01*
X001187Y001987D02*
X010310Y001987D01*
X010269Y002086D02*
X001187Y002086D01*
X001187Y002184D02*
X010268Y002184D01*
X010268Y002283D02*
X001187Y002283D01*
X001187Y002381D02*
X010304Y002381D01*
X010345Y002480D02*
X001187Y002480D01*
X001187Y002578D02*
X010439Y002578D01*
X010601Y002677D02*
X001187Y002677D01*
X001187Y002775D02*
X013570Y002775D01*
X013570Y002874D02*
X001187Y002874D01*
X001187Y002972D02*
X013570Y002972D01*
X015241Y004253D02*
X018003Y004253D01*
X018003Y004351D02*
X015339Y004351D01*
X015438Y004450D02*
X018003Y004450D01*
X018003Y004548D02*
X015536Y004548D01*
X015635Y004647D02*
X018003Y004647D01*
X018003Y004745D02*
X015644Y004745D01*
X015644Y004844D02*
X018003Y004844D01*
X018003Y004942D02*
X015644Y004942D01*
X015644Y005041D02*
X018003Y005041D01*
X018003Y005139D02*
X015644Y005139D01*
X015644Y005238D02*
X018003Y005238D01*
X018003Y005336D02*
X015644Y005336D01*
X015644Y005435D02*
X018003Y005435D01*
X018003Y005533D02*
X015644Y005533D01*
X015644Y005632D02*
X018003Y005632D01*
X018003Y005730D02*
X015644Y005730D01*
X015644Y005829D02*
X018003Y005829D01*
X018003Y005927D02*
X015644Y005927D01*
X015644Y006026D02*
X018003Y006026D01*
X018003Y006124D02*
X015644Y006124D01*
X015644Y006223D02*
X018003Y006223D01*
X018003Y006321D02*
X015644Y006321D01*
X015644Y006420D02*
X018003Y006420D01*
X018003Y006518D02*
X015684Y006518D01*
X015724Y006617D02*
X018003Y006617D01*
X018003Y006715D02*
X015724Y006715D01*
X015689Y006814D02*
X018003Y006814D01*
X018003Y006912D02*
X015603Y006912D01*
X016975Y008587D02*
X018003Y008587D01*
X018003Y008685D02*
X016983Y008685D01*
X016983Y008784D02*
X018003Y008784D01*
X018003Y008882D02*
X016983Y008882D01*
X016983Y008981D02*
X018003Y008981D01*
X018003Y009079D02*
X016904Y009079D01*
X016995Y010951D02*
X018003Y010951D01*
X018003Y011049D02*
X016995Y011049D01*
X016995Y011148D02*
X018003Y011148D01*
X018003Y011246D02*
X016995Y011246D01*
X017053Y011345D02*
X018003Y011345D01*
X018003Y011444D02*
X017151Y011444D01*
X017214Y011542D02*
X018003Y011542D01*
X018003Y011641D02*
X017214Y011641D01*
X017275Y011739D02*
X018003Y011739D01*
X018003Y011838D02*
X017314Y011838D01*
X017314Y011936D02*
X018003Y011936D01*
X018003Y012035D02*
X017279Y012035D01*
X017194Y012133D02*
X018003Y012133D01*
X016855Y012133D02*
X016757Y012133D01*
X012032Y015088D02*
X001187Y015088D01*
X015971Y002578D02*
X016207Y002578D01*
X016192Y002480D02*
X016135Y002480D01*
X017724Y003366D02*
X018003Y003366D01*
X018003Y003268D02*
X017895Y003268D01*
D14*
X015434Y006672D03*
X013465Y008601D03*
X013048Y008428D03*
X012717Y008203D03*
X012371Y008448D03*
X012075Y008865D03*
X011760Y008455D03*
X011473Y008164D03*
X010591Y007774D03*
X010158Y007774D03*
X009725Y007774D03*
X008190Y007774D03*
X007835Y007223D03*
X007717Y008444D03*
X006615Y008640D03*
X006615Y009113D03*
X006615Y009585D03*
X006615Y010097D03*
X006615Y010570D03*
X007048Y010885D03*
X006024Y011475D03*
X005670Y011790D03*
X005512Y010412D03*
X004882Y009664D03*
X004410Y009664D03*
X003938Y009664D03*
X005001Y008680D03*
X005473Y008680D03*
X004922Y007459D03*
X006024Y007223D03*
X003426Y007696D03*
X002599Y008522D03*
X002087Y007617D03*
X001418Y006711D03*
X001772Y003286D03*
X003347Y003286D03*
X011379Y009743D03*
X011615Y009270D03*
X012028Y010215D03*
X013095Y010251D03*
X012934Y011239D03*
X012441Y011239D03*
X011646Y011239D03*
X013556Y011239D03*
X014087Y011239D03*
X014623Y011239D03*
X015182Y011239D03*
X015182Y010727D03*
X016587Y011892D03*
X017024Y011892D03*
X016693Y014231D03*
X017363Y015058D03*
X012402Y013444D03*
X008780Y010491D03*
X008504Y012774D03*
X003229Y012066D03*
X001890Y012341D03*
X001615Y012656D03*
X001339Y013010D03*
X002087Y014703D03*
D15*
X012229Y014979D02*
X012245Y014333D01*
X012229Y014329D01*
X012479Y014329D02*
X012479Y013532D01*
X012402Y013444D01*
X012229Y014979D02*
X012323Y015058D01*
X017363Y015058D01*
X015434Y006672D02*
X015434Y004743D01*
X013780Y003089D01*
X013780Y002099D01*
X013788Y002092D01*
D16*
X014095Y006357D03*
X012107Y006341D03*
X008504Y009270D03*
X009882Y009743D03*
X009016Y012420D03*
X006300Y014192D03*
X006300Y014782D03*
X005197Y013365D03*
X003190Y013365D03*
X001379Y014703D03*
X002638Y009822D03*
X001379Y009507D03*
X002087Y005018D03*
X003898Y004940D03*
X006733Y004940D03*
X007323Y007302D03*
X016693Y008798D03*
X016690Y010073D03*
X016705Y011136D03*
D17*
X016898Y011459D02*
X017024Y011585D01*
X017024Y011892D01*
X016587Y011892D02*
X016587Y011888D01*
X016489Y011790D01*
X015375Y011790D01*
X015253Y011920D01*
X015249Y012471D01*
X015229Y012479D01*
X014979Y012479D02*
X014979Y011894D01*
X015430Y011459D01*
X016898Y011459D01*
X015182Y011239D02*
X015036Y011239D01*
X014483Y011784D01*
X014479Y012479D01*
X014229Y012479D02*
X014233Y011625D01*
X014623Y011239D01*
X014087Y011239D02*
X013839Y011487D01*
X013839Y011731D01*
X013729Y011829D01*
X013729Y012479D01*
X013479Y012479D02*
X013479Y011304D01*
X013556Y011239D01*
X012979Y011288D02*
X012934Y011239D01*
X012979Y011288D02*
X012979Y012479D01*
X012729Y012479D02*
X012729Y011530D01*
X012441Y011239D01*
X012012Y011239D02*
X012473Y011715D01*
X012473Y012465D01*
X012479Y012479D01*
X012229Y012479D02*
X012241Y011849D01*
X012134Y011743D01*
X011489Y011743D01*
X011339Y011593D01*
X011339Y010373D01*
X012717Y008995D01*
X012717Y008203D01*
X012075Y008865D02*
X010170Y008865D01*
X008796Y010160D01*
X007024Y010160D01*
X006615Y010570D01*
X006615Y010097D02*
X006753Y009959D01*
X008666Y009959D01*
X010209Y008455D01*
X011760Y008455D01*
X011473Y008164D02*
X010123Y008164D01*
X008662Y009585D01*
X006615Y009585D01*
X006615Y008640D02*
X006615Y006633D01*
X007323Y005924D01*
X010001Y005924D01*
X010119Y006042D01*
X010119Y007735D01*
X010158Y007774D01*
X011646Y011239D02*
X012012Y011239D01*
X004882Y012420D02*
X004882Y009664D01*
X004410Y009664D02*
X004410Y012184D01*
X003938Y012656D01*
X001615Y012656D01*
X001890Y012341D02*
X003662Y012341D01*
X003938Y012066D01*
X003938Y009664D01*
X004410Y008680D02*
X003426Y007696D01*
X004410Y008680D02*
X005001Y008680D01*
X004882Y012420D02*
X004292Y013010D01*
X001339Y013010D01*
M02*
