G75*
%MOIN*%
%OFA0B0*%
%FSLAX24Y24*%
%IPPOS*%
%LPD*%
%AMOC8*
5,1,8,0,0,1.08239X$1,22.5*
%
%ADD10C,0.1340*%
%ADD11R,0.0011X0.0069*%
%ADD12R,0.0011X0.0080*%
%ADD13R,0.0011X0.0218*%
%ADD14R,0.0011X0.0310*%
%ADD15R,0.0011X0.0380*%
%ADD16R,0.0012X0.0425*%
%ADD17R,0.0011X0.0471*%
%ADD18R,0.0011X0.0517*%
%ADD19R,0.0011X0.0092*%
%ADD20R,0.0011X0.0563*%
%ADD21R,0.0011X0.0161*%
%ADD22R,0.0011X0.0586*%
%ADD23R,0.0011X0.0782*%
%ADD24R,0.0012X0.0816*%
%ADD25R,0.0011X0.0655*%
%ADD26R,0.0011X0.0851*%
%ADD27R,0.0011X0.0678*%
%ADD28R,0.0011X0.0862*%
%ADD29R,0.0011X0.0288*%
%ADD30R,0.0011X0.0448*%
%ADD31R,0.0011X0.0241*%
%ADD32R,0.0011X0.0253*%
%ADD33R,0.0011X0.0391*%
%ADD34R,0.0012X0.0230*%
%ADD35R,0.0012X0.0345*%
%ADD36R,0.0011X0.0207*%
%ADD37R,0.0011X0.0207*%
%ADD38R,0.0011X0.0299*%
%ADD39R,0.0011X0.0195*%
%ADD40R,0.0011X0.0184*%
%ADD41R,0.0012X0.0173*%
%ADD42R,0.0012X0.0195*%
%ADD43R,0.0012X0.0322*%
%ADD44R,0.0012X0.0184*%
%ADD45R,0.0011X0.0173*%
%ADD46R,0.0011X0.0230*%
%ADD47R,0.0011X0.0184*%
%ADD48R,0.0011X0.0092*%
%ADD49R,0.0012X0.0161*%
%ADD50R,0.0012X0.0092*%
%ADD51R,0.0011X0.0149*%
%ADD52R,0.0011X0.0150*%
%ADD53R,0.0011X0.0069*%
%ADD54R,0.0011X0.0046*%
%ADD55R,0.0012X0.0149*%
%ADD56R,0.0012X0.0023*%
%ADD57R,0.0012X0.0138*%
%ADD58R,0.0011X0.0138*%
%ADD59R,0.0011X0.0103*%
%ADD60R,0.0011X0.0057*%
%ADD61R,0.0011X0.0035*%
%ADD62R,0.0012X0.0103*%
%ADD63R,0.0012X0.0011*%
%ADD64R,0.0012X0.0127*%
%ADD65R,0.0012X0.0057*%
%ADD66R,0.0011X0.0127*%
%ADD67R,0.0011X0.0011*%
%ADD68R,0.0011X0.0023*%
%ADD69R,0.0012X0.0092*%
%ADD70R,0.0011X0.0115*%
%ADD71R,0.0011X0.0126*%
%ADD72R,0.0012X0.0126*%
%ADD73R,0.0011X0.0265*%
%ADD74R,0.0012X0.0150*%
%ADD75R,0.0012X0.0276*%
%ADD76R,0.0011X0.0322*%
%ADD77R,0.0011X0.0345*%
%ADD78R,0.0011X0.0368*%
%ADD79R,0.0012X0.0368*%
%ADD80R,0.0011X0.0379*%
%ADD81R,0.0012X0.0207*%
%ADD82R,0.0012X0.0207*%
%ADD83R,0.0012X0.0678*%
%ADD84R,0.0011X0.0621*%
%ADD85R,0.0011X0.0552*%
%ADD86R,0.0011X0.0552*%
%ADD87R,0.0012X0.0517*%
%ADD88R,0.0011X0.0425*%
%ADD89R,0.0012X0.0218*%
%ADD90R,0.0011X0.0437*%
%ADD91R,0.0012X0.0437*%
%ADD92R,0.0012X0.0080*%
%ADD93R,0.0012X0.0333*%
%ADD94R,0.0011X0.0356*%
%ADD95R,0.0011X0.0403*%
%ADD96R,0.0012X0.0115*%
%ADD97R,0.0012X0.0069*%
%ADD98R,0.0012X0.0391*%
%ADD99R,0.0011X0.0264*%
%ADD100R,0.0012X0.0288*%
%ADD101R,0.0012X0.0403*%
%ADD102R,0.0011X0.0299*%
%ADD103R,0.0011X0.0276*%
%ADD104R,0.0012X0.0069*%
%ADD105R,0.0011X0.0414*%
%ADD106R,0.0011X0.0333*%
%ADD107R,0.0011X0.0322*%
%ADD108R,0.0170X0.0660*%
%ADD109R,0.0660X0.0170*%
%ADD110R,0.0552X0.0395*%
%ADD111R,0.0395X0.0552*%
%ADD112C,0.0820*%
%ADD113C,0.0434*%
%ADD114C,0.0356*%
%ADD115R,0.0651X0.0186*%
%ADD116R,0.0186X0.0651*%
%ADD117R,0.0789X0.0552*%
%ADD118R,0.0552X0.0631*%
%ADD119R,0.0218X0.0552*%
%ADD120R,0.0710X0.0631*%
%ADD121R,0.0651X0.0592*%
%ADD122R,0.0828X0.0828*%
%ADD123R,0.0237X0.0611*%
%ADD124R,0.0789X0.0710*%
%ADD125R,0.0260X0.0620*%
%ADD126R,0.0631X0.0710*%
%ADD127R,0.0592X0.0671*%
%ADD128R,0.0552X0.0552*%
%ADD129C,0.0360*%
%ADD130R,0.0360X0.0360*%
D10*
X017272Y002381D03*
D11*
X010518Y004588D03*
X009138Y003898D03*
X008873Y004266D03*
X008839Y005163D03*
X008827Y005255D03*
X008896Y005278D03*
X008931Y005290D03*
X008965Y005301D03*
X009138Y006164D03*
X009172Y006164D03*
D12*
X009184Y006169D03*
X009195Y006169D03*
X009161Y006158D03*
X009103Y005997D03*
X009080Y005997D03*
X009069Y005997D03*
X009057Y005997D03*
X009046Y005997D03*
X009023Y005997D03*
X009011Y005997D03*
X009000Y005997D03*
X008988Y005997D03*
X008965Y005997D03*
X008954Y005997D03*
X008908Y005985D03*
X008885Y005974D03*
X008885Y006181D03*
X008896Y006181D03*
X008873Y006181D03*
X008850Y006192D03*
X008839Y006192D03*
X009126Y005985D03*
X009138Y005985D03*
X009161Y005974D03*
X009172Y005974D03*
X009195Y005962D03*
X009195Y005594D03*
X009184Y005594D03*
X009172Y005594D03*
X009161Y005594D03*
X009138Y005594D03*
X009126Y005594D03*
X009115Y005594D03*
X009103Y005594D03*
X009080Y005594D03*
X009069Y005594D03*
X009057Y005594D03*
X009046Y005594D03*
X009023Y005594D03*
X009011Y005594D03*
X009000Y005594D03*
X008988Y005594D03*
X008965Y005594D03*
X008954Y005594D03*
X008942Y005594D03*
X008931Y005594D03*
X008908Y005594D03*
X008896Y005594D03*
X008885Y005594D03*
X008873Y005594D03*
X008850Y005594D03*
X008839Y005594D03*
X008827Y005594D03*
X008816Y005594D03*
X008908Y005284D03*
X008885Y005272D03*
X008873Y005272D03*
X008850Y005261D03*
X008839Y005261D03*
X008827Y005169D03*
X008850Y005157D03*
X008873Y005146D03*
X008885Y005146D03*
X008896Y005146D03*
X008908Y005134D03*
X008931Y005134D03*
X008942Y005123D03*
X008954Y005123D03*
X008965Y005123D03*
X008988Y005111D03*
X009000Y005100D03*
X009011Y005100D03*
X009023Y005100D03*
X009046Y005088D03*
X009057Y005088D03*
X009069Y005077D03*
X009080Y005077D03*
X009172Y005042D03*
X009184Y005042D03*
X009195Y005031D03*
X009218Y005031D03*
X009230Y005019D03*
X009241Y005019D03*
X009276Y005008D03*
X009299Y004996D03*
X009310Y004996D03*
X009333Y004985D03*
X009195Y005376D03*
X009184Y005376D03*
X009172Y005376D03*
X009161Y005364D03*
X009218Y005387D03*
X009241Y005399D03*
X009253Y005399D03*
X009276Y005410D03*
X009287Y005410D03*
X009310Y005422D03*
X009080Y005341D03*
X009069Y005341D03*
X009057Y005330D03*
X009046Y005330D03*
X009023Y005318D03*
X009011Y005318D03*
X009000Y005318D03*
X008988Y005307D03*
X008954Y005295D03*
X008942Y005295D03*
X008724Y005215D03*
X009218Y005594D03*
X009230Y005594D03*
X009241Y005594D03*
X009253Y005594D03*
X010081Y005456D03*
X010161Y005629D03*
X010518Y005882D03*
X009966Y004973D03*
X009253Y004490D03*
X009241Y004490D03*
X009230Y004490D03*
X009218Y004490D03*
X009195Y004490D03*
X009184Y004490D03*
X009172Y004490D03*
X009161Y004490D03*
X009138Y004490D03*
X009126Y004490D03*
X009115Y004490D03*
X009103Y004490D03*
X009080Y004490D03*
X009069Y004490D03*
X008965Y004490D03*
X008954Y004490D03*
X008942Y004490D03*
X008931Y004490D03*
X008908Y004490D03*
X008896Y004490D03*
X008885Y004490D03*
X008873Y004490D03*
X008850Y004490D03*
X008839Y004490D03*
X008827Y004490D03*
X008816Y004490D03*
X008885Y004272D03*
X008896Y004272D03*
X008850Y004260D03*
X009161Y004283D03*
X009172Y004283D03*
X009184Y004283D03*
X009195Y004283D03*
X009218Y004272D03*
X009218Y003915D03*
X009195Y003904D03*
X009184Y003904D03*
X009172Y003904D03*
X009161Y003904D03*
X008873Y003927D03*
X008850Y003927D03*
X008839Y003927D03*
X008827Y006514D03*
X008850Y006526D03*
X008873Y006526D03*
X008885Y006526D03*
X009126Y006537D03*
X009138Y006537D03*
X009195Y006537D03*
X009218Y006537D03*
D13*
X009333Y006353D03*
X009655Y006158D03*
X009655Y005606D03*
X010276Y005583D03*
X010506Y005882D03*
X010345Y006158D03*
X009851Y005019D03*
X009655Y004870D03*
X009655Y004318D03*
X008988Y004019D03*
X010345Y004318D03*
X010506Y004594D03*
X010345Y004870D03*
X008988Y006284D03*
D14*
X008758Y006353D03*
X009310Y006353D03*
X009506Y005882D03*
X010311Y005525D03*
X010345Y005560D03*
X010495Y005882D03*
X010495Y004594D03*
D15*
X010483Y004594D03*
X010483Y005882D03*
X009299Y005744D03*
X008770Y005744D03*
D16*
X010472Y005882D03*
X010472Y004594D03*
D17*
X010460Y004594D03*
X009540Y004594D03*
X009540Y005882D03*
X010460Y005882D03*
D18*
X010449Y005882D03*
X010449Y004594D03*
D19*
X010219Y005324D03*
X010230Y005336D03*
X010265Y005370D03*
X010276Y005382D03*
X010288Y005393D03*
X010449Y005497D03*
X009333Y005428D03*
X009230Y005393D03*
X009161Y005048D03*
X008735Y005209D03*
X008850Y005957D03*
X008873Y005968D03*
X008908Y006187D03*
X008827Y006198D03*
X008839Y006520D03*
X009115Y006532D03*
X009161Y006543D03*
X009172Y006543D03*
X009184Y006543D03*
X009230Y006532D03*
X009241Y006520D03*
X009230Y006187D03*
X009218Y006175D03*
X009184Y005968D03*
X009218Y005945D03*
X009138Y004278D03*
X009126Y004278D03*
X008816Y004243D03*
X008816Y003944D03*
X008827Y003933D03*
X008931Y003933D03*
D20*
X010437Y004594D03*
X010437Y005882D03*
D21*
X010207Y005600D03*
X010437Y005497D03*
X009908Y004991D03*
X009736Y004232D03*
X009747Y004220D03*
X009759Y004209D03*
X009770Y004209D03*
X010219Y004197D03*
X010230Y004209D03*
X010253Y004220D03*
X010265Y004232D03*
X009276Y004209D03*
X009276Y003979D03*
X008816Y005209D03*
X009276Y006244D03*
X009736Y006244D03*
X009747Y006256D03*
X009759Y006256D03*
X009770Y006267D03*
X009793Y006279D03*
X010230Y006267D03*
X010253Y006256D03*
X010265Y006244D03*
D22*
X009575Y005882D03*
X009575Y004594D03*
X010414Y004594D03*
X010426Y004594D03*
D23*
X010426Y005784D03*
D24*
X010414Y005778D03*
D25*
X009598Y005882D03*
X009598Y004594D03*
X010403Y004594D03*
D26*
X010403Y005784D03*
D27*
X010391Y004594D03*
D28*
X010391Y005790D03*
D29*
X010380Y006089D03*
X009621Y005675D03*
X010380Y004801D03*
X010380Y004387D03*
X009621Y004387D03*
X009023Y004099D03*
X009011Y004076D03*
D30*
X010380Y005594D03*
D31*
X009816Y005042D03*
X010368Y004352D03*
X008735Y006353D03*
D32*
X009000Y006313D03*
X009632Y006118D03*
X009632Y005646D03*
X009805Y005048D03*
X009632Y004830D03*
X009632Y004358D03*
X009000Y004048D03*
X008735Y004094D03*
X010368Y004830D03*
X010368Y006118D03*
D33*
X010368Y005577D03*
X009287Y005750D03*
X008781Y005750D03*
X009138Y005209D03*
D34*
X009839Y005025D03*
X010357Y004853D03*
X010357Y004335D03*
X010357Y006141D03*
D35*
X010357Y005566D03*
X009092Y005209D03*
X008747Y005727D03*
D36*
X010334Y006175D03*
X010334Y004301D03*
D37*
X010334Y004887D03*
X009862Y005014D03*
X009678Y004899D03*
X010265Y005589D03*
D38*
X010322Y005531D03*
X010334Y005543D03*
X009770Y005060D03*
X009621Y004795D03*
X009506Y004588D03*
X009333Y005704D03*
X009621Y006083D03*
D39*
X009678Y006192D03*
X010253Y005594D03*
X009943Y005295D03*
X009931Y005307D03*
X009920Y005318D03*
X009908Y005330D03*
X009885Y005353D03*
X009874Y005364D03*
X009862Y005376D03*
X009851Y005387D03*
X009828Y005410D03*
X009816Y005422D03*
X009805Y005433D03*
X009690Y005560D03*
X009678Y005571D03*
X009966Y005272D03*
X009977Y005261D03*
X009989Y005249D03*
X010000Y005238D03*
X010023Y005215D03*
X010035Y005203D03*
X010046Y005192D03*
X010058Y005180D03*
X010081Y005157D03*
X009874Y005008D03*
X009690Y004916D03*
X010311Y004916D03*
X010322Y004904D03*
X010322Y004283D03*
X010311Y004272D03*
X009690Y004272D03*
X009678Y004283D03*
X008724Y004088D03*
X010322Y006192D03*
X008724Y006353D03*
D40*
X009690Y006198D03*
X009701Y006210D03*
X010311Y006198D03*
X010173Y005577D03*
X009793Y005451D03*
X009770Y005474D03*
X009759Y005485D03*
X009736Y005508D03*
X009713Y005531D03*
X009701Y005543D03*
X010092Y005140D03*
X010104Y005129D03*
X010115Y005117D03*
X010150Y005083D03*
X010161Y005071D03*
X010173Y005060D03*
X010207Y005025D03*
X010219Y005014D03*
X010230Y005002D03*
X010265Y004968D03*
X010276Y004956D03*
X010288Y004945D03*
X009885Y005002D03*
X009069Y004209D03*
D41*
X009724Y004237D03*
X010299Y004260D03*
X009897Y004996D03*
X010184Y005583D03*
D42*
X009954Y005284D03*
X009897Y005341D03*
X009839Y005399D03*
X010012Y005226D03*
X010069Y005169D03*
X010299Y004927D03*
D43*
X010299Y005520D03*
D44*
X010242Y005600D03*
X009782Y005462D03*
X009724Y005520D03*
X010127Y005106D03*
X010184Y005048D03*
X010242Y004991D03*
X008977Y003990D03*
X010299Y006210D03*
X008977Y006256D03*
D45*
X009069Y006468D03*
X009276Y006468D03*
X009713Y006227D03*
X010276Y006238D03*
X010288Y006227D03*
X010230Y005606D03*
X010196Y005594D03*
X010288Y004249D03*
X010276Y004237D03*
X009713Y004249D03*
X009701Y004260D03*
D46*
X009644Y004335D03*
X009333Y004094D03*
X009057Y004174D03*
X009644Y004853D03*
X009828Y005037D03*
X010288Y005577D03*
X009644Y005623D03*
X009644Y006141D03*
X009057Y006440D03*
D47*
X009747Y005497D03*
X010138Y005094D03*
X010196Y005037D03*
X010253Y004979D03*
D48*
X010253Y005359D03*
X009299Y005416D03*
X009253Y005014D03*
X009287Y005002D03*
X009230Y004266D03*
X009115Y004266D03*
X008839Y004255D03*
X008827Y004255D03*
X008885Y003921D03*
X008896Y003921D03*
X008908Y003921D03*
X009230Y003921D03*
X009115Y005991D03*
X008942Y005991D03*
X008931Y005991D03*
X008896Y005980D03*
X008816Y006210D03*
X008816Y006509D03*
D49*
X009264Y005888D03*
X009724Y006233D03*
X010242Y006256D03*
X010242Y004209D03*
D50*
X009207Y003910D03*
X009264Y005405D03*
X010242Y005347D03*
D51*
X010219Y005606D03*
X010173Y006296D03*
X009828Y006296D03*
X009345Y006353D03*
X009816Y004180D03*
X009851Y004168D03*
D52*
X009805Y004191D03*
X009793Y004191D03*
X010196Y004191D03*
X010207Y004191D03*
X009345Y004088D03*
X008965Y003973D03*
X008965Y006227D03*
X009805Y006284D03*
X010196Y006284D03*
X010207Y006284D03*
X010219Y006273D03*
D53*
X010207Y005324D03*
X008896Y006532D03*
D54*
X010196Y005324D03*
X009989Y004968D03*
D55*
X010184Y004180D03*
X008804Y005215D03*
D56*
X010184Y005324D03*
D57*
X010184Y006290D03*
X010127Y006313D03*
X010069Y006325D03*
X009839Y006302D03*
X009839Y004174D03*
X009897Y004151D03*
X009954Y004140D03*
X010012Y004140D03*
X010127Y004163D03*
D58*
X010138Y004163D03*
X010150Y004163D03*
X010161Y004174D03*
X010173Y004174D03*
X010115Y004151D03*
X010104Y004151D03*
X010092Y004151D03*
X010081Y004151D03*
X010046Y004140D03*
X010035Y004140D03*
X010023Y004140D03*
X010000Y004140D03*
X009989Y004140D03*
X009977Y004140D03*
X009966Y004140D03*
X009920Y004151D03*
X009908Y004151D03*
X009885Y004151D03*
X009874Y004163D03*
X009862Y004163D03*
X009828Y004174D03*
X009080Y004232D03*
X009920Y004991D03*
X009690Y005106D03*
X008793Y005209D03*
X008781Y005209D03*
X009816Y006290D03*
X009851Y006302D03*
X009862Y006313D03*
X009874Y006313D03*
X009885Y006313D03*
X009908Y006325D03*
X009920Y006325D03*
X009931Y006325D03*
X009943Y006325D03*
X010058Y006325D03*
X010081Y006325D03*
X010092Y006325D03*
X010104Y006325D03*
X010115Y006313D03*
X010138Y006313D03*
X010150Y006302D03*
X010161Y006302D03*
X009080Y006497D03*
D59*
X009103Y006526D03*
X009253Y006514D03*
X009253Y006204D03*
X009241Y006192D03*
X009230Y005939D03*
X009241Y005928D03*
X008942Y006204D03*
X008931Y006192D03*
X008793Y006227D03*
X008839Y005951D03*
X008827Y005939D03*
X010092Y005456D03*
X010104Y005468D03*
X010115Y005479D03*
X010138Y005502D03*
X010150Y005514D03*
X010161Y005525D03*
X009241Y004260D03*
X009253Y004249D03*
X009103Y004260D03*
X009253Y003938D03*
X009241Y003927D03*
X008942Y003938D03*
D60*
X009977Y004973D03*
X009678Y005111D03*
X010150Y005629D03*
D61*
X010138Y005629D03*
X010058Y005456D03*
X009483Y005882D03*
X009483Y004594D03*
D62*
X008804Y004237D03*
X008804Y003950D03*
X010127Y005491D03*
X008804Y006215D03*
D63*
X010127Y005629D03*
D64*
X010012Y006330D03*
X009954Y006330D03*
X009264Y006215D03*
X010069Y004145D03*
D65*
X010069Y005456D03*
D66*
X010046Y006330D03*
X010035Y006330D03*
X010023Y006330D03*
X010000Y006330D03*
X009989Y006330D03*
X009977Y006330D03*
X009966Y006330D03*
X009943Y004145D03*
X009931Y004145D03*
X010058Y004145D03*
X008712Y004088D03*
D67*
X010046Y005456D03*
D68*
X010000Y004968D03*
D69*
X009954Y004979D03*
X009322Y004991D03*
X009207Y005957D03*
X008862Y005968D03*
X008919Y006187D03*
X009149Y006543D03*
D70*
X008954Y006210D03*
X008816Y005922D03*
X008758Y005209D03*
X008793Y004220D03*
X008793Y003967D03*
X009943Y004979D03*
D71*
X009931Y004985D03*
X009253Y005916D03*
X008712Y006353D03*
X008793Y006480D03*
X008770Y005215D03*
X008954Y003950D03*
D72*
X009264Y004237D03*
X008804Y005905D03*
X009897Y006319D03*
D73*
X008724Y005686D03*
X009793Y005054D03*
X009046Y004145D03*
D74*
X009782Y004203D03*
X009782Y006273D03*
D75*
X009322Y006359D03*
X009034Y006382D03*
X009782Y005060D03*
X009322Y004094D03*
D76*
X009310Y004094D03*
X008758Y004094D03*
X009759Y005060D03*
D77*
X009747Y005060D03*
X009299Y004094D03*
X008770Y004094D03*
X009299Y006359D03*
D78*
X009287Y006359D03*
X009517Y005876D03*
X008758Y005738D03*
X009103Y005209D03*
X009115Y005209D03*
X009701Y005014D03*
X009736Y005060D03*
X009517Y004588D03*
X009287Y004094D03*
D79*
X009724Y005048D03*
D80*
X009713Y005031D03*
X009126Y005203D03*
D81*
X009667Y004301D03*
X009667Y006175D03*
D82*
X009667Y005589D03*
X009667Y004887D03*
D83*
X009609Y004594D03*
X009609Y005882D03*
D84*
X009586Y005876D03*
X009586Y004588D03*
D85*
X009563Y004588D03*
D86*
X009563Y005876D03*
D87*
X009552Y005882D03*
X009552Y004594D03*
D88*
X009529Y004594D03*
X008724Y004663D03*
X009529Y005882D03*
D89*
X009494Y005882D03*
X009494Y004594D03*
D90*
X009333Y004669D03*
X009310Y004669D03*
X009299Y004669D03*
X009287Y004669D03*
X009276Y004669D03*
X008793Y004669D03*
X008781Y004669D03*
X008770Y004669D03*
X008758Y004669D03*
X008735Y004669D03*
D91*
X008747Y004669D03*
X009322Y004669D03*
D92*
X009264Y004490D03*
X009207Y004490D03*
X009149Y004490D03*
X009092Y004490D03*
X008977Y004490D03*
X008919Y004490D03*
X008862Y004490D03*
X008804Y004490D03*
X008862Y004260D03*
X009149Y004283D03*
X009207Y004272D03*
X008919Y003927D03*
X008862Y003927D03*
X009264Y005008D03*
X009207Y005031D03*
X009034Y005088D03*
X008977Y005111D03*
X008919Y005134D03*
X008862Y005157D03*
X008919Y005284D03*
X008977Y005307D03*
X009034Y005330D03*
X009207Y005387D03*
X009322Y005422D03*
X009264Y005594D03*
X009207Y005594D03*
X009149Y005594D03*
X009092Y005594D03*
X009034Y005594D03*
X008977Y005594D03*
X008919Y005594D03*
X008862Y005594D03*
X008804Y005594D03*
X008919Y005985D03*
X008977Y005997D03*
X009034Y005997D03*
X009092Y005997D03*
X009149Y005985D03*
X009149Y006158D03*
X009207Y006169D03*
X008862Y006181D03*
X008862Y006526D03*
X009207Y006537D03*
D93*
X009322Y005721D03*
D94*
X009310Y005732D03*
X008781Y006353D03*
X008781Y004099D03*
D95*
X008988Y004651D03*
X009000Y004651D03*
X009011Y004651D03*
X009023Y004651D03*
X009046Y004651D03*
X009057Y004651D03*
X009276Y005755D03*
D96*
X009264Y006497D03*
X009092Y006509D03*
X008804Y006497D03*
X008747Y005209D03*
X009092Y004255D03*
X009264Y003956D03*
D97*
X009149Y003898D03*
D98*
X009149Y005209D03*
D99*
X009046Y006411D03*
D100*
X008747Y006353D03*
X009034Y004122D03*
X008747Y004088D03*
D101*
X009034Y004651D03*
D102*
X009023Y006359D03*
D103*
X009011Y006336D03*
D104*
X008862Y005267D03*
D105*
X008793Y005761D03*
D106*
X008770Y006353D03*
D107*
X008735Y005715D03*
D108*
X011404Y007456D03*
X011564Y007456D03*
X011724Y007456D03*
X011874Y007456D03*
X012034Y007456D03*
X012194Y007456D03*
X012354Y007456D03*
X012504Y007456D03*
X012664Y007456D03*
X012824Y007456D03*
X012984Y007456D03*
X013134Y007456D03*
X013294Y007456D03*
X013454Y007456D03*
X013604Y007456D03*
X013764Y007456D03*
X013924Y007456D03*
X014084Y007456D03*
X014234Y007456D03*
X014394Y007456D03*
X014554Y007456D03*
X014714Y007456D03*
X014864Y007456D03*
X015024Y007456D03*
X015184Y007456D03*
X015184Y012656D03*
X015024Y012656D03*
X014864Y012656D03*
X014714Y012656D03*
X014554Y012656D03*
X014394Y012656D03*
X014234Y012656D03*
X014084Y012656D03*
X013924Y012656D03*
X013764Y012656D03*
X013604Y012656D03*
X013454Y012656D03*
X013294Y012656D03*
X013134Y012656D03*
X012984Y012656D03*
X012824Y012656D03*
X012664Y012656D03*
X012504Y012656D03*
X012354Y012656D03*
X012194Y012656D03*
X012034Y012656D03*
X011874Y012656D03*
X011724Y012656D03*
X011564Y012656D03*
X011404Y012656D03*
D109*
X010694Y011946D03*
X010694Y011786D03*
X010694Y011626D03*
X010694Y011476D03*
X010694Y011316D03*
X010694Y011156D03*
X010694Y010996D03*
X010694Y010846D03*
X010694Y010686D03*
X010694Y010526D03*
X010694Y010366D03*
X010694Y010216D03*
X010694Y010056D03*
X010694Y009896D03*
X010694Y009746D03*
X010694Y009586D03*
X010694Y009426D03*
X010694Y009266D03*
X010694Y009116D03*
X010694Y008956D03*
X010694Y008796D03*
X010694Y008636D03*
X010694Y008486D03*
X010694Y008326D03*
X010694Y008166D03*
X015894Y008166D03*
X015894Y008326D03*
X015894Y008486D03*
X015894Y008636D03*
X015894Y008796D03*
X015894Y008956D03*
X015894Y009116D03*
X015894Y009266D03*
X015894Y009426D03*
X015894Y009586D03*
X015894Y009746D03*
X015894Y009896D03*
X015894Y010056D03*
X015894Y010216D03*
X015894Y010366D03*
X015894Y010526D03*
X015894Y010686D03*
X015894Y010846D03*
X015894Y010996D03*
X015894Y011156D03*
X015894Y011316D03*
X015894Y011476D03*
X015894Y011626D03*
X015894Y011786D03*
X015894Y011946D03*
D110*
X015831Y014076D03*
X015200Y014076D03*
X014528Y014073D03*
X014528Y014782D03*
X015200Y014784D03*
X015831Y014785D03*
X011379Y014782D03*
X011379Y014073D03*
X008504Y012262D03*
X008504Y011554D03*
X009264Y009751D03*
X009871Y009752D03*
X009871Y009043D03*
X009264Y009042D03*
X008504Y009270D03*
X008504Y008562D03*
X011484Y006326D03*
X012105Y006331D03*
X012739Y006333D03*
X013376Y006342D03*
X013376Y005634D03*
X012739Y005625D03*
X012105Y005623D03*
X011484Y005618D03*
X014091Y005650D03*
X014091Y006358D03*
X017016Y007093D03*
X017670Y007107D03*
X017670Y007816D03*
X017016Y007802D03*
X002638Y002696D03*
X002638Y001987D03*
D111*
X001379Y001908D03*
X002087Y001908D03*
X002087Y005018D03*
X001379Y005018D03*
X001379Y006042D03*
X002087Y006042D03*
X003898Y005570D03*
X004607Y005570D03*
X006024Y005570D03*
X006733Y005570D03*
X006615Y007223D03*
X007323Y007223D03*
X003426Y007696D03*
X002717Y007696D03*
X002087Y008247D03*
X001379Y008247D03*
X001379Y008877D03*
X002087Y008877D03*
X002087Y009507D03*
X001379Y009507D03*
X001379Y010136D03*
X002087Y010136D03*
X002087Y010727D03*
X001379Y010727D03*
X003190Y013286D03*
X003898Y013286D03*
X004489Y013286D03*
X005197Y013286D03*
X004922Y014192D03*
X004922Y014782D03*
X004213Y014782D03*
X004213Y014192D03*
X002087Y014703D03*
X001379Y014703D03*
X016704Y011142D03*
X017413Y011142D03*
X017398Y010065D03*
X016689Y010065D03*
X016694Y008812D03*
X017403Y008812D03*
D112*
X015788Y002092D03*
X014788Y002192D03*
X013788Y002092D03*
X012788Y002192D03*
X011788Y002092D03*
X010788Y002192D03*
D113*
X011328Y013404D03*
D114*
X016129Y013404D03*
D115*
X007727Y011731D03*
X007727Y011534D03*
X007727Y011337D03*
X007727Y011140D03*
X007727Y010944D03*
X007727Y010747D03*
X007727Y010550D03*
X007727Y010353D03*
X007727Y010156D03*
X007727Y009959D03*
X007727Y009762D03*
X007727Y009566D03*
X007727Y009369D03*
X007727Y009172D03*
X007727Y008975D03*
X007727Y008778D03*
X003298Y008778D03*
X003298Y008975D03*
X003298Y009172D03*
X003298Y009369D03*
X003298Y009566D03*
X003298Y009762D03*
X003298Y009959D03*
X003298Y010156D03*
X003298Y010353D03*
X003298Y010550D03*
X003298Y010747D03*
X003298Y010944D03*
X003298Y011140D03*
X003298Y011337D03*
X003298Y011534D03*
X003298Y011731D03*
D116*
X004036Y012469D03*
X004233Y012469D03*
X004430Y012469D03*
X004627Y012469D03*
X004823Y012469D03*
X005020Y012469D03*
X005217Y012469D03*
X005414Y012469D03*
X005611Y012469D03*
X005808Y012469D03*
X006004Y012469D03*
X006201Y012469D03*
X006398Y012469D03*
X006595Y012469D03*
X006792Y012469D03*
X006989Y012469D03*
X006989Y008040D03*
X006792Y008040D03*
X006595Y008040D03*
X006398Y008040D03*
X006201Y008040D03*
X006004Y008040D03*
X005808Y008040D03*
X005611Y008040D03*
X005414Y008040D03*
X005217Y008040D03*
X005020Y008040D03*
X004823Y008040D03*
X004627Y008040D03*
X004430Y008040D03*
X004233Y008040D03*
X004036Y008040D03*
D117*
X012166Y013955D03*
X012166Y014900D03*
X013741Y014900D03*
X013741Y013955D03*
D118*
X002107Y007577D03*
X001438Y007577D03*
X001438Y006711D03*
X002107Y006711D03*
D119*
X002117Y011662D03*
X001861Y011662D03*
X001605Y011662D03*
X001349Y011662D03*
X001349Y013965D03*
X001605Y013965D03*
X001861Y013965D03*
X002117Y013965D03*
D120*
X004213Y003266D03*
X006733Y003266D03*
D121*
X006821Y002302D03*
X004125Y002302D03*
D122*
X005001Y002302D03*
X005945Y002302D03*
D123*
X005985Y003355D03*
X005729Y003355D03*
X005473Y003355D03*
X005217Y003355D03*
X004961Y003355D03*
D124*
X003347Y003247D03*
X003347Y002144D03*
D125*
X002152Y002584D03*
X001902Y002584D03*
X001642Y002584D03*
X001392Y002584D03*
X001392Y004304D03*
X001642Y004304D03*
X001902Y004304D03*
X002152Y004304D03*
D126*
X003504Y006396D03*
X004607Y006396D03*
X006024Y006396D03*
X007127Y006396D03*
X007245Y013365D03*
X006142Y013365D03*
D127*
X006044Y004940D03*
X006713Y004940D03*
X004587Y004940D03*
X003918Y004940D03*
D128*
X005453Y014192D03*
X005453Y014782D03*
X006280Y014782D03*
X006280Y014192D03*
D129*
X008504Y012774D03*
X007048Y010885D03*
X006615Y010570D03*
X006615Y010097D03*
X006615Y009585D03*
X006615Y009113D03*
X006615Y008640D03*
X007717Y008444D03*
X008190Y007774D03*
X007835Y007223D03*
X006024Y007223D03*
X004922Y007459D03*
X005001Y008680D03*
X005473Y008680D03*
X004882Y009664D03*
X004410Y009664D03*
X003938Y009664D03*
X002599Y008522D03*
X003426Y007696D03*
X002087Y007617D03*
X001418Y006711D03*
X001772Y003286D03*
X003347Y003286D03*
X009725Y007774D03*
X010158Y007774D03*
X010591Y007774D03*
X011473Y008164D03*
X011760Y008455D03*
X012075Y008865D03*
X012371Y008448D03*
X012717Y008203D03*
X013048Y008428D03*
X013465Y008601D03*
X011615Y009270D03*
X011379Y009743D03*
X012028Y010412D03*
X011646Y011239D03*
X012441Y011239D03*
X012934Y011239D03*
X013556Y011239D03*
X014087Y011239D03*
X014623Y011239D03*
X015182Y011239D03*
X015182Y010727D03*
X016587Y011892D03*
X017024Y011892D03*
X016693Y014231D03*
X017363Y015058D03*
X012402Y013444D03*
X008780Y010491D03*
X006024Y011475D03*
X005670Y011790D03*
X005512Y010412D03*
X003229Y012066D03*
X001890Y012341D03*
X001615Y012656D03*
X001339Y013010D03*
X002087Y014703D03*
X013095Y010251D03*
X015434Y006672D03*
D130*
X014095Y006357D03*
X012107Y006341D03*
X008504Y009270D03*
X009882Y009743D03*
X009016Y012420D03*
X006300Y014192D03*
X006300Y014782D03*
X005197Y013365D03*
X003190Y013365D03*
X001379Y014703D03*
X002638Y009822D03*
X001379Y009507D03*
X002087Y005018D03*
X003898Y004940D03*
X006733Y004940D03*
X007323Y007302D03*
X016693Y008798D03*
X016690Y010073D03*
X016705Y011136D03*
M02*
