%
M48
M72
T01C0.0120
T02C0.0276
T03C0.0354
T04C0.0400
T05C0.1260
%
T01
X1772Y3286
X3347Y3286
X3898Y4940
X2087Y5018
X1418Y6711
X2087Y7617
X2599Y8522
X3426Y7696
X4922Y7459
X6024Y7223
X7323Y7302
X7835Y7223
X8190Y7774
X7717Y8444
X6615Y8640
X6615Y9113
X6615Y9585
X6615Y10097
X6615Y10570
X7048Y10885
X6024Y11475
X5670Y11790
X5512Y10412
X4882Y9664
X4410Y9664
X3938Y9664
X5001Y8680
X5473Y8680
X2638Y9822
X1379Y9507
X3229Y12066
X1890Y12341
X1615Y12656
X1339Y13010
X3190Y13365
X2087Y14703
X1379Y14703
X5197Y13365
X6300Y14192
X6300Y14782
X8504Y12774
X9016Y12420
X8780Y10491
X9882Y9743
X8504Y9270
X9725Y7774
X10158Y7774
X10591Y7774
X11473Y8164
X11760Y8455
X12075Y8865
X12371Y8448
X12717Y8203
X13048Y8428
X13465Y8601
X11615Y9270
X11379Y9743
X12028Y10412
X11646Y11239
X12441Y11239
X12934Y11239
X13556Y11239
X14087Y11239
X14623Y11239
X15182Y11239
X15182Y10727
X16705Y11136
X16587Y11892
X17024Y11892
X16690Y10073
X16693Y8798
X15434Y6672
X14095Y6357
X12107Y6341
X13095Y10251
X12402Y13444
X16693Y14231
X17363Y15058
X6733Y4940
T02
X16129Y13404
T03
X11328Y13404
T04
X10788Y2192
X11788Y2092
X12788Y2192
X13788Y2092
X14788Y2192
X15788Y2092
T05
X17272Y2381
M30
