G75*
%MOIN*%
%OFA0B0*%
%FSLAX24Y24*%
%IPPOS*%
%LPD*%
%AMOC8*
5,1,8,0,0,1.08239X$1,22.5*
%
%ADD10C,0.0740*%
%ADD11C,0.0160*%
%ADD12C,0.0280*%
%ADD13C,0.0240*%
%ADD14R,0.0280X0.0280*%
D10*
X001621Y000889D02*
X002361Y000889D01*
X002361Y001889D02*
X001621Y001889D01*
X001621Y002889D02*
X002361Y002889D01*
X002361Y004432D02*
X001621Y004432D01*
X001621Y005432D02*
X002361Y005432D01*
X002361Y006432D02*
X001621Y006432D01*
X001621Y007975D02*
X002361Y007975D01*
X002361Y008975D02*
X001621Y008975D01*
X001621Y009975D02*
X002361Y009975D01*
X002361Y011519D02*
X001621Y011519D01*
X001621Y012519D02*
X002361Y012519D01*
X002361Y013519D02*
X001621Y013519D01*
D11*
X001014Y014070D02*
X001014Y000660D01*
X001120Y000660D01*
X001071Y000779D01*
X001071Y000998D01*
X001155Y001200D01*
X001309Y001355D01*
X001512Y001439D01*
X002470Y001439D01*
X002673Y001355D01*
X002827Y001200D01*
X002911Y000998D01*
X002911Y000779D01*
X002862Y000660D01*
X010372Y000660D01*
X010372Y001173D01*
X010337Y007936D01*
X010337Y008526D01*
X006755Y008526D01*
X006755Y014070D01*
X001014Y014070D01*
X001014Y013970D02*
X001294Y013970D01*
X001309Y013985D02*
X001155Y013830D01*
X001071Y013628D01*
X001071Y013409D01*
X001155Y013207D01*
X001309Y013052D01*
X001512Y012969D01*
X002470Y012969D01*
X002673Y013052D01*
X002827Y013207D01*
X002911Y013409D01*
X002911Y013628D01*
X002827Y013830D01*
X002673Y013985D01*
X002470Y014069D01*
X001512Y014069D01*
X001309Y013985D01*
X001147Y013811D02*
X001014Y013811D01*
X001014Y013653D02*
X001081Y013653D01*
X001071Y013494D02*
X001014Y013494D01*
X001014Y013336D02*
X001102Y013336D01*
X001185Y013177D02*
X001014Y013177D01*
X001014Y013019D02*
X001391Y013019D01*
X001014Y012860D02*
X005254Y012860D01*
X005254Y012881D02*
X005254Y012754D01*
X005302Y012637D01*
X005314Y012625D01*
X005314Y008396D01*
X005353Y008300D01*
X005426Y008227D01*
X006371Y007282D01*
X006467Y007243D01*
X006570Y007243D01*
X007507Y007243D01*
X007518Y007232D01*
X007636Y007183D01*
X007763Y007183D01*
X007881Y007232D01*
X007971Y007322D01*
X008020Y007439D01*
X008020Y007566D01*
X007971Y007684D01*
X007940Y007715D01*
X008137Y007715D01*
X008148Y007704D01*
X008266Y007655D01*
X008393Y007655D01*
X008511Y007704D01*
X008601Y007794D01*
X008650Y007912D01*
X008650Y008039D01*
X008601Y008157D01*
X008511Y008247D01*
X008393Y008295D01*
X008266Y008295D01*
X008148Y008247D01*
X008137Y008235D01*
X006666Y008235D01*
X006227Y008674D01*
X006227Y012035D01*
X006239Y012046D01*
X006287Y012164D01*
X006287Y012291D01*
X006239Y012409D01*
X006149Y012499D01*
X006031Y012547D01*
X005904Y012547D01*
X005834Y012518D01*
X005834Y012625D01*
X005845Y012637D01*
X005894Y012754D01*
X005894Y012881D01*
X005845Y012999D01*
X005755Y013089D01*
X005637Y013138D01*
X005510Y013138D01*
X005392Y013089D01*
X005302Y012999D01*
X005254Y012881D01*
X005322Y013019D02*
X002591Y013019D01*
X002797Y013177D02*
X006755Y013177D01*
X006755Y013019D02*
X005826Y013019D01*
X005894Y012860D02*
X006755Y012860D01*
X006755Y012702D02*
X005872Y012702D01*
X005894Y012543D02*
X005834Y012543D01*
X006041Y012543D02*
X006755Y012543D01*
X006755Y012385D02*
X006249Y012385D01*
X006287Y012226D02*
X006755Y012226D01*
X006755Y012068D02*
X006248Y012068D01*
X006227Y011909D02*
X006755Y011909D01*
X006755Y011751D02*
X006227Y011751D01*
X006227Y011592D02*
X006755Y011592D01*
X006755Y011434D02*
X006227Y011434D01*
X006227Y011275D02*
X006755Y011275D01*
X006755Y011117D02*
X006227Y011117D01*
X006227Y010958D02*
X006755Y010958D01*
X006755Y010800D02*
X006227Y010800D01*
X006227Y010641D02*
X006755Y010641D01*
X006755Y010483D02*
X006227Y010483D01*
X006227Y010324D02*
X006755Y010324D01*
X006755Y010166D02*
X006227Y010166D01*
X006227Y010007D02*
X006755Y010007D01*
X006755Y009849D02*
X006227Y009849D01*
X006227Y009690D02*
X006755Y009690D01*
X006755Y009532D02*
X006227Y009532D01*
X006227Y009373D02*
X006755Y009373D01*
X006755Y009215D02*
X006227Y009215D01*
X006227Y009056D02*
X006755Y009056D01*
X006755Y008898D02*
X006227Y008898D01*
X006227Y008739D02*
X006755Y008739D01*
X006755Y008581D02*
X006320Y008581D01*
X006479Y008422D02*
X010337Y008422D01*
X010337Y008264D02*
X008470Y008264D01*
X008622Y008105D02*
X010337Y008105D01*
X010337Y007947D02*
X008650Y007947D01*
X008595Y007788D02*
X010338Y007788D01*
X010339Y007630D02*
X007994Y007630D01*
X008020Y007471D02*
X010340Y007471D01*
X010341Y007313D02*
X007962Y007313D01*
X007700Y007503D02*
X006519Y007503D01*
X005574Y008448D01*
X005574Y012818D01*
X005275Y012702D02*
X001014Y012702D01*
X001014Y012543D02*
X005314Y012543D01*
X005314Y012385D02*
X001014Y012385D01*
X001014Y012226D02*
X005314Y012226D01*
X005314Y012068D02*
X002473Y012068D01*
X002470Y012069D02*
X001512Y012069D01*
X001309Y011985D01*
X001155Y011830D01*
X001071Y011628D01*
X001071Y011409D01*
X001155Y011207D01*
X001309Y011052D01*
X001512Y010969D01*
X002470Y010969D01*
X002673Y011052D01*
X002827Y011207D01*
X002911Y011409D01*
X002911Y011628D01*
X002827Y011830D01*
X002673Y011985D01*
X002470Y012069D01*
X002748Y011909D02*
X005314Y011909D01*
X005314Y011751D02*
X002860Y011751D01*
X002911Y011592D02*
X005314Y011592D01*
X005314Y011434D02*
X002911Y011434D01*
X002855Y011275D02*
X005314Y011275D01*
X005314Y011117D02*
X002737Y011117D01*
X002470Y010525D02*
X001512Y010525D01*
X001309Y010442D01*
X001155Y010287D01*
X001071Y010085D01*
X001071Y009866D01*
X001155Y009664D01*
X001309Y009509D01*
X001512Y009425D01*
X002470Y009425D01*
X002673Y009509D01*
X002827Y009664D01*
X002911Y009866D01*
X002911Y010085D01*
X002827Y010287D01*
X002673Y010442D01*
X002470Y010525D01*
X002574Y010483D02*
X005314Y010483D01*
X005314Y010641D02*
X001014Y010641D01*
X001014Y010483D02*
X001408Y010483D01*
X001192Y010324D02*
X001014Y010324D01*
X001014Y010166D02*
X001105Y010166D01*
X001071Y010007D02*
X001014Y010007D01*
X001014Y009849D02*
X001078Y009849D01*
X001014Y009690D02*
X001144Y009690D01*
X001014Y009532D02*
X001287Y009532D01*
X001014Y009373D02*
X005314Y009373D01*
X005314Y009215D02*
X001014Y009215D01*
X001014Y009056D02*
X005314Y009056D01*
X005314Y008898D02*
X001014Y008898D01*
X001014Y008739D02*
X005314Y008739D01*
X005314Y008581D02*
X001014Y008581D01*
X001014Y008422D02*
X001290Y008422D01*
X001309Y008442D02*
X001155Y008287D01*
X001071Y008085D01*
X001071Y007866D01*
X001155Y007664D01*
X001309Y007509D01*
X001512Y007425D01*
X002470Y007425D01*
X002673Y007509D01*
X002827Y007664D01*
X002911Y007866D01*
X002911Y008085D01*
X002827Y008287D01*
X002673Y008442D01*
X002470Y008525D01*
X001512Y008525D01*
X001309Y008442D01*
X001145Y008264D02*
X001014Y008264D01*
X001014Y008105D02*
X001079Y008105D01*
X001071Y007947D02*
X001014Y007947D01*
X001014Y007788D02*
X001103Y007788D01*
X001189Y007630D02*
X001014Y007630D01*
X001014Y007471D02*
X001401Y007471D01*
X001014Y007313D02*
X006341Y007313D01*
X006183Y007471D02*
X002581Y007471D01*
X002793Y007630D02*
X006024Y007630D01*
X005866Y007788D02*
X002879Y007788D01*
X002911Y007947D02*
X005707Y007947D01*
X005549Y008105D02*
X002903Y008105D01*
X002837Y008264D02*
X005390Y008264D01*
X005314Y008422D02*
X002692Y008422D01*
X002695Y009532D02*
X005314Y009532D01*
X005314Y009690D02*
X002838Y009690D01*
X002904Y009849D02*
X005314Y009849D01*
X005314Y010007D02*
X002911Y010007D01*
X002878Y010166D02*
X005314Y010166D01*
X005314Y010324D02*
X002790Y010324D01*
X001245Y011117D02*
X001014Y011117D01*
X001014Y011275D02*
X001127Y011275D01*
X001071Y011434D02*
X001014Y011434D01*
X001014Y011592D02*
X001071Y011592D01*
X001122Y011751D02*
X001014Y011751D01*
X001014Y011909D02*
X001234Y011909D01*
X001014Y012068D02*
X001509Y012068D01*
X001014Y010958D02*
X005314Y010958D01*
X005314Y010800D02*
X001014Y010800D01*
X002881Y013336D02*
X006755Y013336D01*
X006755Y013494D02*
X002911Y013494D01*
X002901Y013653D02*
X006755Y013653D01*
X006755Y013811D02*
X002835Y013811D01*
X002688Y013970D02*
X006755Y013970D01*
X005967Y012227D02*
X005967Y008566D01*
X006558Y007975D01*
X008330Y007975D01*
X008189Y008264D02*
X006637Y008264D01*
X006700Y006681D02*
X006573Y006681D01*
X006455Y006632D01*
X006365Y006542D01*
X006317Y006425D01*
X006317Y006297D01*
X006365Y006180D01*
X006377Y006169D01*
X006377Y005333D01*
X006365Y005322D01*
X006317Y005204D01*
X006317Y005077D01*
X006365Y004959D01*
X006455Y004869D01*
X006573Y004821D01*
X006700Y004821D01*
X006818Y004869D01*
X006908Y004959D01*
X006957Y005077D01*
X006957Y005204D01*
X006908Y005322D01*
X006897Y005333D01*
X006897Y006169D01*
X006908Y006180D01*
X006957Y006297D01*
X006957Y006425D01*
X006908Y006542D01*
X006818Y006632D01*
X006700Y006681D01*
X006707Y006679D02*
X010344Y006679D01*
X010343Y006837D02*
X002734Y006837D01*
X002673Y006898D02*
X002470Y006982D01*
X001512Y006982D01*
X001309Y006898D01*
X001155Y006744D01*
X001071Y006541D01*
X001071Y006323D01*
X001155Y006120D01*
X001309Y005966D01*
X001512Y005882D01*
X002470Y005882D01*
X002673Y005966D01*
X002827Y006120D01*
X002911Y006323D01*
X002911Y006541D01*
X002827Y006744D01*
X002673Y006898D01*
X002854Y006679D02*
X006567Y006679D01*
X006356Y006520D02*
X002911Y006520D01*
X002911Y006362D02*
X006317Y006362D01*
X006356Y006203D02*
X002861Y006203D01*
X002751Y006045D02*
X006377Y006045D01*
X006377Y005886D02*
X002480Y005886D01*
X002470Y004982D02*
X001512Y004982D01*
X001309Y004898D01*
X001155Y004744D01*
X001071Y004541D01*
X001071Y004323D01*
X001155Y004120D01*
X001309Y003966D01*
X001512Y003882D01*
X002470Y003882D01*
X002673Y003966D01*
X002827Y004120D01*
X002911Y004323D01*
X002911Y004541D01*
X002827Y004744D01*
X002673Y004898D01*
X002470Y004982D01*
X002584Y004935D02*
X006390Y004935D01*
X006317Y005094D02*
X001014Y005094D01*
X001014Y005252D02*
X006336Y005252D01*
X006377Y005411D02*
X001014Y005411D01*
X001014Y005569D02*
X006377Y005569D01*
X006377Y005728D02*
X001014Y005728D01*
X001014Y005886D02*
X001502Y005886D01*
X001231Y006045D02*
X001014Y006045D01*
X001014Y006203D02*
X001121Y006203D01*
X001071Y006362D02*
X001014Y006362D01*
X001014Y006520D02*
X001071Y006520D01*
X001014Y006679D02*
X001128Y006679D01*
X001014Y006837D02*
X001248Y006837D01*
X001014Y006996D02*
X010342Y006996D01*
X010341Y007154D02*
X001014Y007154D01*
X001014Y004935D02*
X001398Y004935D01*
X001188Y004777D02*
X001014Y004777D01*
X001014Y004618D02*
X001103Y004618D01*
X001071Y004460D02*
X001014Y004460D01*
X001014Y004301D02*
X001080Y004301D01*
X001014Y004143D02*
X001146Y004143D01*
X001014Y003984D02*
X001291Y003984D01*
X001014Y003826D02*
X006844Y003826D01*
X007002Y003984D02*
X002691Y003984D01*
X002836Y004143D02*
X007161Y004143D01*
X007319Y004301D02*
X002902Y004301D01*
X002911Y004460D02*
X007478Y004460D01*
X007636Y004618D02*
X002879Y004618D01*
X002794Y004777D02*
X007773Y004777D01*
X007773Y004762D02*
X007775Y004757D01*
X006175Y003157D01*
X002845Y003157D01*
X002827Y003200D01*
X002673Y003355D01*
X002470Y003439D01*
X001512Y003439D01*
X001309Y003355D01*
X001155Y003200D01*
X001071Y002998D01*
X001071Y002779D01*
X001155Y002577D01*
X001309Y002422D01*
X001512Y002339D01*
X002470Y002339D01*
X002673Y002422D01*
X002827Y002577D01*
X002852Y002637D01*
X006334Y002637D01*
X006430Y002676D01*
X008241Y004487D01*
X008314Y004560D01*
X008337Y004617D01*
X008365Y004644D01*
X008413Y004762D01*
X008413Y004889D01*
X008365Y005007D01*
X008275Y005097D01*
X008157Y005146D01*
X008030Y005146D01*
X007912Y005097D01*
X007822Y005007D01*
X007773Y004889D01*
X007773Y004762D01*
X007792Y004935D02*
X006884Y004935D01*
X006957Y005094D02*
X007909Y005094D01*
X008093Y004826D02*
X008093Y004708D01*
X006282Y002897D01*
X001999Y002897D01*
X001991Y002889D01*
X001305Y003350D02*
X001014Y003350D01*
X001014Y003192D02*
X001151Y003192D01*
X001085Y003033D02*
X001014Y003033D01*
X001014Y002875D02*
X001071Y002875D01*
X001097Y002716D02*
X001014Y002716D01*
X001014Y002558D02*
X001174Y002558D01*
X001014Y002399D02*
X001366Y002399D01*
X001014Y002241D02*
X010366Y002241D01*
X010366Y002399D02*
X002616Y002399D01*
X002808Y002558D02*
X010365Y002558D01*
X010364Y002716D02*
X006470Y002716D01*
X006628Y002875D02*
X010363Y002875D01*
X010362Y003033D02*
X006787Y003033D01*
X006945Y003192D02*
X010362Y003192D01*
X010361Y003350D02*
X007104Y003350D01*
X007262Y003509D02*
X010360Y003509D01*
X010359Y003667D02*
X007421Y003667D01*
X007579Y003826D02*
X010358Y003826D01*
X010358Y003984D02*
X007738Y003984D01*
X007896Y004143D02*
X010357Y004143D01*
X010298Y004038D02*
X011952Y004038D01*
X011677Y003778D02*
X010619Y003778D01*
X010634Y000660D01*
X016201Y000660D01*
X016182Y000680D01*
X016035Y000933D01*
X015960Y001215D01*
X015960Y001507D01*
X016035Y001790D01*
X016182Y002043D01*
X016388Y002249D01*
X016641Y002395D01*
X016924Y002471D01*
X017216Y002471D01*
X017498Y002395D01*
X017751Y002249D01*
X017771Y002230D01*
X017771Y014070D01*
X010377Y014070D01*
X010377Y008786D01*
X010389Y008786D01*
X010434Y008768D01*
X010513Y008768D01*
X010618Y008662D01*
X010618Y004298D01*
X011677Y004298D01*
X011737Y004358D01*
X012166Y004358D01*
X012272Y004253D01*
X012272Y003911D01*
X012277Y003915D01*
X012706Y003915D01*
X012766Y003855D01*
X016178Y003855D01*
X016210Y003887D01*
X016210Y006742D01*
X016135Y006818D01*
X015968Y006818D01*
X015863Y006923D01*
X015863Y007352D01*
X015968Y007457D01*
X016397Y007457D01*
X016503Y007352D01*
X016503Y007185D01*
X016691Y006997D01*
X016730Y006902D01*
X016730Y003728D01*
X016691Y003632D01*
X016433Y003375D01*
X016338Y003335D01*
X012766Y003335D01*
X012706Y003275D01*
X012277Y003275D01*
X012171Y003381D01*
X012171Y003723D01*
X012166Y003718D01*
X011737Y003718D01*
X011677Y003778D01*
X012171Y003667D02*
X010619Y003667D01*
X010620Y003509D02*
X012171Y003509D01*
X012202Y003350D02*
X010621Y003350D01*
X010622Y003192D02*
X017771Y003192D01*
X017771Y003350D02*
X016373Y003350D01*
X016567Y003509D02*
X017771Y003509D01*
X017771Y003667D02*
X016705Y003667D01*
X016730Y003826D02*
X017771Y003826D01*
X017771Y003984D02*
X016730Y003984D01*
X016730Y004143D02*
X017771Y004143D01*
X017771Y004301D02*
X016730Y004301D01*
X016730Y004460D02*
X017771Y004460D01*
X017771Y004618D02*
X016730Y004618D01*
X016730Y004777D02*
X017771Y004777D01*
X017771Y004935D02*
X016730Y004935D01*
X016730Y005094D02*
X017771Y005094D01*
X017771Y005252D02*
X016730Y005252D01*
X016730Y005411D02*
X017771Y005411D01*
X017771Y005569D02*
X016730Y005569D01*
X016730Y005728D02*
X017771Y005728D01*
X017771Y005886D02*
X016730Y005886D01*
X016730Y006045D02*
X017771Y006045D01*
X017771Y006203D02*
X016730Y006203D01*
X016730Y006362D02*
X017771Y006362D01*
X017771Y006520D02*
X016730Y006520D01*
X016730Y006679D02*
X017771Y006679D01*
X017771Y006837D02*
X016730Y006837D01*
X016691Y006996D02*
X017771Y006996D01*
X017771Y007154D02*
X016534Y007154D01*
X016503Y007313D02*
X017771Y007313D01*
X017771Y007471D02*
X010618Y007471D01*
X010618Y007313D02*
X015863Y007313D01*
X015863Y007154D02*
X010618Y007154D01*
X010618Y006996D02*
X015863Y006996D01*
X015949Y006837D02*
X010618Y006837D01*
X010618Y006679D02*
X016210Y006679D01*
X016210Y006520D02*
X010618Y006520D01*
X010618Y006362D02*
X016210Y006362D01*
X016210Y006203D02*
X010618Y006203D01*
X010618Y006045D02*
X016210Y006045D01*
X016210Y005886D02*
X010618Y005886D01*
X010618Y005728D02*
X016210Y005728D01*
X016210Y005569D02*
X010618Y005569D01*
X010618Y005411D02*
X016210Y005411D01*
X016210Y005252D02*
X010618Y005252D01*
X010618Y005094D02*
X016210Y005094D01*
X016210Y004935D02*
X010618Y004935D01*
X010618Y004777D02*
X016210Y004777D01*
X016210Y004618D02*
X010618Y004618D01*
X010618Y004460D02*
X016210Y004460D01*
X016210Y004301D02*
X012223Y004301D01*
X012272Y004143D02*
X016210Y004143D01*
X016210Y003984D02*
X012272Y003984D01*
X012491Y003595D02*
X016286Y003595D01*
X016470Y003779D01*
X016470Y006850D01*
X016183Y007138D01*
X017771Y007630D02*
X010618Y007630D01*
X010618Y007788D02*
X017771Y007788D01*
X017771Y007947D02*
X010618Y007947D01*
X010618Y008105D02*
X017771Y008105D01*
X017771Y008264D02*
X011563Y008264D01*
X011563Y008233D02*
X011458Y008128D01*
X011028Y008128D01*
X010923Y008233D01*
X010923Y008662D01*
X010983Y008722D01*
X010983Y010429D01*
X011023Y010524D01*
X011096Y010597D01*
X012007Y011508D01*
X012007Y012350D01*
X011995Y012361D01*
X011947Y012479D01*
X011947Y012606D01*
X011995Y012723D01*
X012085Y012813D01*
X012203Y012862D01*
X012330Y012862D01*
X012448Y012813D01*
X012538Y012723D01*
X012587Y012606D01*
X012587Y012479D01*
X012538Y012361D01*
X012527Y012350D01*
X012527Y011349D01*
X012487Y011253D01*
X011503Y010269D01*
X011503Y008722D01*
X011563Y008662D01*
X011563Y008233D01*
X011563Y008422D02*
X017771Y008422D01*
X017771Y008581D02*
X011563Y008581D01*
X011503Y008739D02*
X014397Y008739D01*
X014487Y008649D01*
X014605Y008600D01*
X014732Y008600D01*
X014849Y008649D01*
X014939Y008739D01*
X014988Y008857D01*
X014988Y008872D01*
X015125Y009009D01*
X015164Y009105D01*
X015164Y009712D01*
X015176Y009723D01*
X015224Y009841D01*
X015224Y009968D01*
X015176Y010086D01*
X015158Y010103D01*
X015164Y010106D01*
X015254Y010196D01*
X015303Y010313D01*
X015303Y010441D01*
X015254Y010558D01*
X015164Y010648D01*
X015047Y010697D01*
X014919Y010697D01*
X014802Y010648D01*
X014791Y010637D01*
X013396Y010637D01*
X013300Y010597D01*
X013227Y010524D01*
X012888Y010185D01*
X012872Y010185D01*
X012755Y010136D01*
X012665Y010046D01*
X012616Y009929D01*
X012616Y009801D01*
X012629Y009771D01*
X012223Y009771D01*
X012212Y009782D01*
X012094Y009831D01*
X011967Y009831D01*
X011849Y009782D01*
X011759Y009692D01*
X011710Y009574D01*
X011710Y009447D01*
X011759Y009329D01*
X011849Y009239D01*
X011967Y009191D01*
X012094Y009191D01*
X012212Y009239D01*
X012223Y009251D01*
X012228Y009251D01*
X012183Y009141D01*
X012183Y009014D01*
X012232Y008896D01*
X012322Y008806D01*
X012439Y008758D01*
X012566Y008758D01*
X012684Y008806D01*
X012695Y008818D01*
X013373Y008818D01*
X013385Y008806D01*
X013502Y008758D01*
X013629Y008758D01*
X013747Y008806D01*
X013837Y008896D01*
X013886Y009014D01*
X013886Y009141D01*
X013841Y009251D01*
X013846Y009251D01*
X013846Y009251D01*
X013936Y009161D01*
X014053Y009112D01*
X014181Y009112D01*
X014298Y009161D01*
X014388Y009251D01*
X014437Y009368D01*
X014437Y009496D01*
X014388Y009613D01*
X014298Y009703D01*
X014181Y009752D01*
X014135Y009752D01*
X014090Y009771D01*
X013243Y009771D01*
X013256Y009801D01*
X013256Y009817D01*
X013555Y010117D01*
X014664Y010117D01*
X014633Y010086D01*
X014584Y009968D01*
X014584Y009841D01*
X014633Y009723D01*
X014644Y009712D01*
X014644Y009264D01*
X014620Y009240D01*
X014605Y009240D01*
X014487Y009191D01*
X014397Y009101D01*
X014348Y008984D01*
X014348Y008857D01*
X014397Y008739D01*
X014348Y008898D02*
X013838Y008898D01*
X013886Y009056D02*
X014378Y009056D01*
X014352Y009215D02*
X014543Y009215D01*
X014644Y009373D02*
X014437Y009373D01*
X014422Y009532D02*
X014644Y009532D01*
X014644Y009690D02*
X014312Y009690D01*
X014117Y009432D02*
X014038Y009511D01*
X012030Y009511D01*
X011909Y009215D02*
X011503Y009215D01*
X011503Y009373D02*
X011741Y009373D01*
X011710Y009532D02*
X011503Y009532D01*
X011503Y009690D02*
X011758Y009690D01*
X011503Y009849D02*
X012616Y009849D01*
X012648Y010007D02*
X011503Y010007D01*
X011503Y010166D02*
X012825Y010166D01*
X013027Y010324D02*
X011558Y010324D01*
X011716Y010483D02*
X013186Y010483D01*
X013448Y010377D02*
X014983Y010377D01*
X015286Y010483D02*
X017771Y010483D01*
X017771Y010641D02*
X015172Y010641D01*
X015303Y010324D02*
X017771Y010324D01*
X017771Y010166D02*
X015224Y010166D01*
X015208Y010007D02*
X017771Y010007D01*
X017771Y009849D02*
X015224Y009849D01*
X015164Y009690D02*
X017771Y009690D01*
X017771Y009532D02*
X015164Y009532D01*
X015164Y009373D02*
X017771Y009373D01*
X017771Y009215D02*
X015164Y009215D01*
X015144Y009056D02*
X017771Y009056D01*
X017771Y008898D02*
X015013Y008898D01*
X014940Y008739D02*
X017771Y008739D01*
X017771Y010800D02*
X012033Y010800D01*
X012192Y010958D02*
X017771Y010958D01*
X017771Y011117D02*
X012350Y011117D01*
X012496Y011275D02*
X017771Y011275D01*
X017771Y011434D02*
X012527Y011434D01*
X012527Y011592D02*
X017771Y011592D01*
X017771Y011751D02*
X012527Y011751D01*
X012527Y011909D02*
X015373Y011909D01*
X015421Y011861D02*
X015648Y011767D01*
X015893Y011767D01*
X016121Y011861D01*
X016294Y012035D01*
X016388Y012262D01*
X016388Y012508D01*
X016294Y012735D01*
X016121Y012908D01*
X015893Y013003D01*
X015648Y013003D01*
X015421Y012908D01*
X015247Y012735D01*
X015153Y012508D01*
X015153Y012262D01*
X015247Y012035D01*
X015421Y011861D01*
X015233Y012068D02*
X012527Y012068D01*
X012527Y012226D02*
X015168Y012226D01*
X015153Y012385D02*
X012548Y012385D01*
X012587Y012543D02*
X015167Y012543D01*
X015233Y012702D02*
X012547Y012702D01*
X012336Y012860D02*
X015372Y012860D01*
X016169Y012860D02*
X017771Y012860D01*
X017771Y012702D02*
X016308Y012702D01*
X016374Y012543D02*
X017771Y012543D01*
X017771Y012385D02*
X016388Y012385D01*
X016374Y012226D02*
X017771Y012226D01*
X017771Y012068D02*
X016308Y012068D01*
X016169Y011909D02*
X017771Y011909D01*
X017771Y013019D02*
X011469Y013019D01*
X011413Y013042D02*
X011655Y012942D01*
X011839Y012757D01*
X011940Y012515D01*
X011940Y012254D01*
X011839Y012012D01*
X011655Y011828D01*
X011413Y011728D01*
X011152Y011728D01*
X010910Y011828D01*
X010725Y012012D01*
X010625Y012254D01*
X010625Y012515D01*
X010725Y012757D01*
X010910Y012942D01*
X011152Y013042D01*
X011413Y013042D01*
X011095Y013019D02*
X010377Y013019D01*
X010377Y013177D02*
X017771Y013177D01*
X017771Y013336D02*
X010377Y013336D01*
X010377Y013494D02*
X017771Y013494D01*
X017771Y013653D02*
X010377Y013653D01*
X010416Y013566D02*
X011243Y013566D01*
X010828Y012860D02*
X010377Y012860D01*
X010377Y012702D02*
X010702Y012702D01*
X010637Y012543D02*
X010377Y012543D01*
X010377Y012385D02*
X010625Y012385D01*
X010637Y012226D02*
X010377Y012226D01*
X010377Y012068D02*
X010702Y012068D01*
X010829Y011909D02*
X010377Y011909D01*
X010377Y011751D02*
X011096Y011751D01*
X011469Y011751D02*
X012007Y011751D01*
X012007Y011909D02*
X011736Y011909D01*
X011862Y012068D02*
X012007Y012068D01*
X012007Y012226D02*
X011928Y012226D01*
X011940Y012385D02*
X011986Y012385D01*
X011947Y012543D02*
X011928Y012543D01*
X011986Y012702D02*
X011862Y012702D01*
X011736Y012860D02*
X012198Y012860D01*
X012267Y012542D02*
X012267Y011400D01*
X011243Y010377D01*
X011243Y008448D01*
X010923Y008422D02*
X010618Y008422D01*
X010618Y008264D02*
X010923Y008264D01*
X010923Y008581D02*
X010618Y008581D01*
X010541Y008739D02*
X010983Y008739D01*
X010983Y008898D02*
X010377Y008898D01*
X010377Y009056D02*
X010983Y009056D01*
X010983Y009215D02*
X010377Y009215D01*
X010377Y009373D02*
X010983Y009373D01*
X010983Y009532D02*
X010377Y009532D01*
X010377Y009690D02*
X010983Y009690D01*
X010983Y009849D02*
X010377Y009849D01*
X010377Y010007D02*
X010983Y010007D01*
X010983Y010166D02*
X010377Y010166D01*
X010377Y010324D02*
X010983Y010324D01*
X011005Y010483D02*
X010377Y010483D01*
X010377Y010641D02*
X011139Y010641D01*
X011298Y010800D02*
X010377Y010800D01*
X010377Y010958D02*
X011456Y010958D01*
X011615Y011117D02*
X010377Y011117D01*
X010377Y011275D02*
X011773Y011275D01*
X011932Y011434D02*
X010377Y011434D01*
X010377Y011592D02*
X012007Y011592D01*
X011875Y010641D02*
X014795Y010641D01*
X014601Y010007D02*
X013446Y010007D01*
X013287Y009849D02*
X014584Y009849D01*
X014904Y009904D02*
X014904Y009156D01*
X014668Y008920D01*
X013882Y009215D02*
X013855Y009215D01*
X013566Y009078D02*
X012503Y009078D01*
X012213Y009215D02*
X012152Y009215D01*
X012183Y009056D02*
X011503Y009056D01*
X011503Y008898D02*
X012231Y008898D01*
X012936Y009865D02*
X013448Y010377D01*
X010377Y013811D02*
X017771Y013811D01*
X017771Y013970D02*
X010377Y013970D01*
X010345Y006520D02*
X006917Y006520D01*
X006957Y006362D02*
X010345Y006362D01*
X010346Y006203D02*
X006918Y006203D01*
X006897Y006045D02*
X010347Y006045D01*
X010348Y005886D02*
X006897Y005886D01*
X006897Y005728D02*
X010349Y005728D01*
X010349Y005569D02*
X006897Y005569D01*
X006897Y005411D02*
X010350Y005411D01*
X010351Y005252D02*
X006937Y005252D01*
X006637Y005141D02*
X006637Y006361D01*
X008278Y005094D02*
X010352Y005094D01*
X010353Y004935D02*
X008394Y004935D01*
X008413Y004777D02*
X010354Y004777D01*
X010354Y004618D02*
X008338Y004618D01*
X008213Y004460D02*
X010355Y004460D01*
X010356Y004301D02*
X008055Y004301D01*
X006685Y003667D02*
X001014Y003667D01*
X001014Y003509D02*
X006527Y003509D01*
X006368Y003350D02*
X002677Y003350D01*
X002831Y003192D02*
X006210Y003192D01*
X002856Y001131D02*
X010372Y001131D01*
X010372Y000973D02*
X002911Y000973D01*
X002911Y000814D02*
X010372Y000814D01*
X010634Y000814D02*
X016104Y000814D01*
X016025Y000973D02*
X010633Y000973D01*
X010632Y001131D02*
X015982Y001131D01*
X015960Y001290D02*
X010631Y001290D01*
X010630Y001448D02*
X015960Y001448D01*
X015986Y001607D02*
X010630Y001607D01*
X010629Y001765D02*
X016029Y001765D01*
X016113Y001924D02*
X010628Y001924D01*
X010627Y002082D02*
X016221Y002082D01*
X016379Y002241D02*
X010626Y002241D01*
X010626Y002399D02*
X016655Y002399D01*
X017485Y002399D02*
X017771Y002399D01*
X017760Y002241D02*
X017771Y002241D01*
X017771Y002558D02*
X010625Y002558D01*
X010624Y002716D02*
X017771Y002716D01*
X017771Y002875D02*
X010623Y002875D01*
X010622Y003033D02*
X017771Y003033D01*
X011680Y004301D02*
X010618Y004301D01*
X010367Y002082D02*
X001014Y002082D01*
X001014Y001924D02*
X010368Y001924D01*
X010369Y001765D02*
X001014Y001765D01*
X001014Y001607D02*
X010370Y001607D01*
X010370Y001448D02*
X001014Y001448D01*
X001014Y001290D02*
X001244Y001290D01*
X001126Y001131D02*
X001014Y001131D01*
X001014Y000973D02*
X001071Y000973D01*
X001071Y000814D02*
X001014Y000814D01*
X002738Y001290D02*
X010371Y001290D01*
D12*
X008093Y004826D03*
X006637Y005141D03*
X006637Y006361D03*
X007700Y007503D03*
X008330Y007975D03*
X012030Y009511D03*
X012503Y009078D03*
X012936Y009865D03*
X013566Y009078D03*
X014117Y009432D03*
X014668Y008920D03*
X014904Y009904D03*
X014983Y010377D03*
X014038Y012385D03*
X013526Y012385D03*
X013015Y012385D03*
X012267Y012542D03*
X011243Y013566D03*
X005967Y012227D03*
X005574Y012818D03*
D13*
X008330Y012739D02*
X008330Y011204D01*
X008330Y009747D01*
X008093Y009511D01*
X007345Y009511D01*
X008330Y012739D02*
X009156Y013566D01*
X010416Y013566D01*
D14*
X010603Y013141D03*
X008330Y011204D03*
X006676Y011243D03*
X006676Y011519D03*
X006676Y011794D03*
X006676Y012070D03*
X006676Y012345D03*
X006676Y012621D03*
X006676Y012897D03*
X006676Y013172D03*
X006676Y013448D03*
X006676Y013723D03*
X006676Y013999D03*
X006400Y013999D03*
X006125Y013999D03*
X005849Y013999D03*
X005574Y013999D03*
X005298Y013999D03*
X005023Y013999D03*
X004747Y013999D03*
X004471Y013999D03*
X004196Y013999D03*
X003920Y013999D03*
X003645Y013999D03*
X003369Y013999D03*
X003093Y013999D03*
X000967Y014038D03*
X000967Y013763D03*
X000967Y013487D03*
X000967Y013251D03*
X000967Y012975D03*
X000967Y012700D03*
X000967Y012424D03*
X000967Y012149D03*
X000967Y011873D03*
X000967Y011597D03*
X000967Y011361D03*
X000967Y011086D03*
X000967Y010810D03*
X000967Y010534D03*
X000967Y010259D03*
X000967Y009983D03*
X000967Y009708D03*
X000967Y009432D03*
X000967Y009196D03*
X000967Y008920D03*
X000967Y008645D03*
X000967Y008369D03*
X000967Y008093D03*
X000967Y007818D03*
X000967Y007542D03*
X000967Y007267D03*
X000967Y006991D03*
X000967Y006715D03*
X000967Y006440D03*
X000967Y006164D03*
X000967Y005889D03*
X000967Y005613D03*
X000967Y005337D03*
X000967Y005062D03*
X000967Y004786D03*
X000967Y004511D03*
X000967Y004235D03*
X000967Y003960D03*
X000967Y003684D03*
X000967Y003448D03*
X000967Y003172D03*
X000967Y002897D03*
X000967Y002621D03*
X000967Y002385D03*
X000967Y002109D03*
X000967Y001834D03*
X000967Y001558D03*
X000967Y001282D03*
X000967Y001007D03*
X000967Y000731D03*
X003881Y000731D03*
X004156Y000731D03*
X004432Y000731D03*
X004708Y000731D03*
X004983Y000731D03*
X005259Y000731D03*
X005534Y000731D03*
X005810Y000731D03*
X006086Y000731D03*
X006361Y000731D03*
X006637Y000731D03*
X006912Y000731D03*
X007188Y000731D03*
X007463Y000731D03*
X007739Y000731D03*
X008015Y000731D03*
X008290Y000731D03*
X008566Y000731D03*
X008841Y000731D03*
X009117Y000731D03*
X009353Y000731D03*
X009589Y000731D03*
X009826Y000731D03*
X010062Y000731D03*
X010298Y000731D03*
X010298Y001007D03*
X010298Y001282D03*
X010692Y001282D03*
X010692Y001007D03*
X010692Y000731D03*
X010967Y000731D03*
X011204Y000731D03*
X011479Y000731D03*
X011755Y000731D03*
X011991Y000731D03*
X012267Y000731D03*
X012503Y000731D03*
X012778Y000731D03*
X013054Y000731D03*
X013330Y000731D03*
X013605Y000731D03*
X013881Y000731D03*
X014156Y000731D03*
X014432Y000731D03*
X014708Y000731D03*
X014983Y000731D03*
X015259Y000731D03*
X015534Y000731D03*
X015810Y000731D03*
X016086Y000731D03*
X017700Y002463D03*
X017700Y002739D03*
X017700Y003015D03*
X017700Y003290D03*
X017700Y003566D03*
X017700Y003841D03*
X017700Y004117D03*
X017700Y004393D03*
X017700Y004668D03*
X017700Y004944D03*
X017700Y005219D03*
X017700Y005495D03*
X017700Y005771D03*
X017700Y006046D03*
X017700Y006322D03*
X017700Y006597D03*
X017700Y006873D03*
X017700Y007149D03*
X017700Y007424D03*
X017700Y007700D03*
X017700Y007975D03*
X017700Y008251D03*
X017700Y008526D03*
X017700Y008802D03*
X017700Y009078D03*
X017700Y009353D03*
X017700Y009629D03*
X017700Y009904D03*
X017700Y010180D03*
X017700Y010456D03*
X017700Y010731D03*
X017700Y011007D03*
X017700Y011282D03*
X017700Y011558D03*
X017700Y011834D03*
X017700Y012109D03*
X017700Y012385D03*
X017700Y012660D03*
X017700Y012936D03*
X017700Y013211D03*
X017700Y013487D03*
X017700Y013763D03*
X017700Y014038D03*
X017424Y014038D03*
X017149Y014038D03*
X016873Y014038D03*
X016597Y014038D03*
X016322Y014038D03*
X016046Y014038D03*
X015771Y014038D03*
X015495Y014038D03*
X011637Y010023D03*
X011637Y009038D03*
X011243Y008448D03*
X010416Y008920D03*
X010416Y009196D03*
X010416Y009471D03*
X010416Y009747D03*
X010416Y010023D03*
X010416Y010298D03*
X010416Y010574D03*
X010416Y010849D03*
X008605Y008487D03*
X008330Y008487D03*
X008054Y008487D03*
X007778Y008487D03*
X007503Y008487D03*
X007227Y008487D03*
X006952Y008487D03*
X006676Y008487D03*
X006676Y008763D03*
X006676Y009038D03*
X006676Y009314D03*
X006676Y009589D03*
X006676Y009865D03*
X006676Y010141D03*
X006676Y010416D03*
X006676Y010692D03*
X006676Y010967D03*
X007345Y009511D03*
X004826Y010731D03*
X005416Y006952D03*
X003290Y003369D03*
X007700Y003054D03*
X010298Y003093D03*
X010298Y002818D03*
X010298Y002542D03*
X010298Y002267D03*
X010692Y002267D03*
X010692Y002542D03*
X010692Y002818D03*
X010692Y003093D03*
X010692Y003369D03*
X010692Y003645D03*
X010298Y003645D03*
X010298Y003369D03*
X010298Y004038D03*
X010298Y004393D03*
X010298Y004668D03*
X010298Y004944D03*
X010298Y005219D03*
X010298Y005495D03*
X010298Y005771D03*
X010298Y006046D03*
X010298Y006322D03*
X010298Y006597D03*
X010298Y006873D03*
X010298Y007149D03*
X010298Y007424D03*
X010298Y007700D03*
X010298Y007936D03*
X010298Y008211D03*
X010298Y008448D03*
X010692Y007424D03*
X010692Y007149D03*
X010692Y006873D03*
X010692Y006597D03*
X010692Y006322D03*
X010692Y006046D03*
X010692Y005771D03*
X010692Y005495D03*
X010692Y005219D03*
X010692Y004944D03*
X010692Y004668D03*
X010692Y004393D03*
X011952Y004038D03*
X012491Y003595D03*
X014320Y005121D03*
X015180Y004481D03*
X016183Y007138D03*
X015456Y009629D03*
X013645Y009904D03*
M02*
