G75*
%MOIN*%
%OFA0B0*%
%FSLAX24Y24*%
%IPPOS*%
%LPD*%
%AMOC8*
5,1,8,0,0,1.08239X$1,22.5*
%
%ADD10C,0.1340*%
%ADD11R,0.0069X0.0011*%
%ADD12R,0.0080X0.0011*%
%ADD13R,0.0218X0.0011*%
%ADD14R,0.0310X0.0011*%
%ADD15R,0.0380X0.0011*%
%ADD16R,0.0425X0.0012*%
%ADD17R,0.0471X0.0011*%
%ADD18R,0.0517X0.0011*%
%ADD19R,0.0092X0.0011*%
%ADD20R,0.0563X0.0011*%
%ADD21R,0.0161X0.0011*%
%ADD22R,0.0586X0.0011*%
%ADD23R,0.0782X0.0011*%
%ADD24R,0.0816X0.0012*%
%ADD25R,0.0655X0.0011*%
%ADD26R,0.0851X0.0011*%
%ADD27R,0.0678X0.0011*%
%ADD28R,0.0862X0.0011*%
%ADD29R,0.0288X0.0011*%
%ADD30R,0.0448X0.0011*%
%ADD31R,0.0241X0.0011*%
%ADD32R,0.0253X0.0011*%
%ADD33R,0.0391X0.0011*%
%ADD34R,0.0230X0.0012*%
%ADD35R,0.0345X0.0012*%
%ADD36R,0.0207X0.0011*%
%ADD37R,0.0207X0.0011*%
%ADD38R,0.0299X0.0011*%
%ADD39R,0.0195X0.0011*%
%ADD40R,0.0184X0.0011*%
%ADD41R,0.0173X0.0012*%
%ADD42R,0.0195X0.0012*%
%ADD43R,0.0322X0.0012*%
%ADD44R,0.0184X0.0012*%
%ADD45R,0.0173X0.0011*%
%ADD46R,0.0230X0.0011*%
%ADD47R,0.0184X0.0011*%
%ADD48R,0.0092X0.0011*%
%ADD49R,0.0161X0.0012*%
%ADD50R,0.0092X0.0012*%
%ADD51R,0.0149X0.0011*%
%ADD52R,0.0150X0.0011*%
%ADD53R,0.0069X0.0011*%
%ADD54R,0.0046X0.0011*%
%ADD55R,0.0149X0.0012*%
%ADD56R,0.0023X0.0012*%
%ADD57R,0.0138X0.0012*%
%ADD58R,0.0138X0.0011*%
%ADD59R,0.0103X0.0011*%
%ADD60R,0.0057X0.0011*%
%ADD61R,0.0035X0.0011*%
%ADD62R,0.0103X0.0012*%
%ADD63R,0.0011X0.0012*%
%ADD64R,0.0127X0.0012*%
%ADD65R,0.0057X0.0012*%
%ADD66R,0.0127X0.0011*%
%ADD67R,0.0011X0.0011*%
%ADD68R,0.0023X0.0011*%
%ADD69R,0.0092X0.0012*%
%ADD70R,0.0115X0.0011*%
%ADD71R,0.0126X0.0011*%
%ADD72R,0.0126X0.0012*%
%ADD73R,0.0265X0.0011*%
%ADD74R,0.0150X0.0012*%
%ADD75R,0.0276X0.0012*%
%ADD76R,0.0322X0.0011*%
%ADD77R,0.0345X0.0011*%
%ADD78R,0.0368X0.0011*%
%ADD79R,0.0368X0.0012*%
%ADD80R,0.0379X0.0011*%
%ADD81R,0.0207X0.0012*%
%ADD82R,0.0207X0.0012*%
%ADD83R,0.0678X0.0012*%
%ADD84R,0.0621X0.0011*%
%ADD85R,0.0552X0.0011*%
%ADD86R,0.0552X0.0011*%
%ADD87R,0.0517X0.0012*%
%ADD88R,0.0425X0.0011*%
%ADD89R,0.0218X0.0012*%
%ADD90R,0.0437X0.0011*%
%ADD91R,0.0437X0.0012*%
%ADD92R,0.0080X0.0012*%
%ADD93R,0.0333X0.0012*%
%ADD94R,0.0356X0.0011*%
%ADD95R,0.0403X0.0011*%
%ADD96R,0.0115X0.0012*%
%ADD97R,0.0069X0.0012*%
%ADD98R,0.0391X0.0012*%
%ADD99R,0.0264X0.0011*%
%ADD100R,0.0288X0.0012*%
%ADD101R,0.0403X0.0012*%
%ADD102R,0.0299X0.0011*%
%ADD103R,0.0276X0.0011*%
%ADD104R,0.0069X0.0012*%
%ADD105R,0.0414X0.0011*%
%ADD106R,0.0333X0.0011*%
%ADD107R,0.0322X0.0011*%
%ADD108R,0.0534X0.0237*%
%ADD109R,0.0395X0.0552*%
%ADD110R,0.0552X0.0395*%
%ADD111C,0.0820*%
%ADD112R,0.0620X0.0260*%
%ADD113R,0.0631X0.0552*%
%ADD114R,0.1064X0.0867*%
%ADD115R,0.0157X0.1004*%
%ADD116C,0.0434*%
%ADD117C,0.0356*%
%ADD118C,0.0360*%
%ADD119R,0.0360X0.0360*%
D10*
X017070Y001361D03*
D11*
X014187Y002710D03*
X014187Y002744D03*
X013325Y002917D03*
X013313Y002951D03*
X013302Y002986D03*
X013279Y003055D03*
X013187Y003043D03*
X012290Y003009D03*
X011922Y002744D03*
X012612Y001364D03*
D12*
X012997Y001916D03*
X013480Y001801D03*
X013653Y001721D03*
X013906Y001364D03*
X013009Y002549D03*
X013020Y002572D03*
X013020Y002583D03*
X013032Y002606D03*
X013043Y002641D03*
X013043Y002652D03*
X013055Y002664D03*
X013055Y002687D03*
X013066Y002698D03*
X013066Y002710D03*
X013101Y002802D03*
X013101Y002813D03*
X013112Y002825D03*
X013112Y002836D03*
X013124Y002859D03*
X013124Y002871D03*
X013124Y002882D03*
X013135Y002894D03*
X013147Y002917D03*
X013147Y002928D03*
X013147Y002940D03*
X013158Y002951D03*
X013158Y002974D03*
X013170Y002986D03*
X013170Y002997D03*
X013170Y003009D03*
X013181Y003032D03*
X013193Y003055D03*
X013285Y003043D03*
X013285Y003032D03*
X013296Y003009D03*
X013296Y002997D03*
X013308Y002974D03*
X013319Y002940D03*
X013319Y002928D03*
X013331Y002894D03*
X013342Y002882D03*
X013342Y002871D03*
X013342Y002859D03*
X013354Y002836D03*
X013354Y002825D03*
X013365Y002813D03*
X013365Y002802D03*
X013388Y002721D03*
X013400Y002710D03*
X013400Y002698D03*
X013400Y002687D03*
X013411Y002664D03*
X013423Y002641D03*
X013423Y002629D03*
X013434Y002606D03*
X013434Y002595D03*
X013446Y002572D03*
X013618Y002629D03*
X013618Y002641D03*
X013618Y002652D03*
X013618Y002664D03*
X013618Y002687D03*
X013618Y002698D03*
X013618Y002710D03*
X013618Y002721D03*
X013618Y002744D03*
X013618Y002756D03*
X013618Y002767D03*
X013618Y002779D03*
X013618Y002802D03*
X013618Y002813D03*
X013618Y002825D03*
X013618Y002836D03*
X013618Y002859D03*
X013618Y002871D03*
X013618Y002882D03*
X013618Y002894D03*
X013618Y002917D03*
X013618Y002928D03*
X013618Y002940D03*
X013618Y002951D03*
X013618Y002974D03*
X013618Y002986D03*
X013618Y002997D03*
X013618Y003009D03*
X013618Y003032D03*
X013618Y003043D03*
X013618Y003055D03*
X013618Y003066D03*
X013998Y002997D03*
X014009Y002974D03*
X014021Y002928D03*
X014021Y002917D03*
X014021Y002894D03*
X014021Y002882D03*
X014021Y002871D03*
X014021Y002859D03*
X014021Y002836D03*
X014021Y002825D03*
X014021Y002813D03*
X014021Y002802D03*
X014021Y002779D03*
X014009Y002756D03*
X014009Y002744D03*
X013998Y002721D03*
X013998Y002710D03*
X013986Y002687D03*
X014182Y002721D03*
X014193Y002698D03*
X014193Y002687D03*
X014205Y002986D03*
X014205Y002997D03*
X014205Y003009D03*
X014216Y003032D03*
X014216Y003043D03*
X014538Y003055D03*
X014550Y003032D03*
X014550Y003009D03*
X014550Y002997D03*
X014561Y002756D03*
X014561Y002744D03*
X014561Y002687D03*
X014561Y002664D03*
X013239Y003158D03*
X012514Y003066D03*
X012514Y003055D03*
X012514Y003043D03*
X012514Y003032D03*
X012514Y003009D03*
X012514Y002997D03*
X012514Y002986D03*
X012514Y002974D03*
X012514Y002951D03*
X012514Y002940D03*
X012514Y002928D03*
X012514Y002917D03*
X012514Y002813D03*
X012514Y002802D03*
X012514Y002779D03*
X012514Y002767D03*
X012514Y002756D03*
X012514Y002744D03*
X012514Y002721D03*
X012514Y002710D03*
X012514Y002698D03*
X012514Y002687D03*
X012514Y002664D03*
X012514Y002652D03*
X012514Y002641D03*
X012514Y002629D03*
X012307Y002687D03*
X012307Y002698D03*
X012307Y002710D03*
X012307Y002721D03*
X012296Y002664D03*
X012296Y002986D03*
X012296Y002997D03*
X012284Y003032D03*
X011951Y003032D03*
X011951Y003043D03*
X011951Y003009D03*
X011928Y002721D03*
X011928Y002710D03*
X011928Y002698D03*
X011928Y002687D03*
X011939Y002664D03*
D13*
X012043Y002894D03*
X012342Y002227D03*
X012894Y002227D03*
X013043Y002031D03*
X012894Y001537D03*
X012618Y001376D03*
X012342Y001537D03*
X013607Y001606D03*
X013906Y001376D03*
X014182Y001537D03*
X014182Y002227D03*
X014377Y002549D03*
X014308Y002894D03*
X013630Y002227D03*
D14*
X013906Y002376D03*
X014377Y002572D03*
X014377Y003124D03*
X013549Y001571D03*
X013584Y001537D03*
X013906Y001387D03*
X012618Y001387D03*
D15*
X012618Y001399D03*
X013906Y001399D03*
X013768Y002583D03*
X013768Y003112D03*
D16*
X013906Y001410D03*
X012618Y001410D03*
D17*
X012618Y001422D03*
X012618Y002342D03*
X013906Y002342D03*
X013906Y001422D03*
D18*
X013906Y001433D03*
X012618Y001433D03*
D19*
X013348Y001663D03*
X013359Y001652D03*
X013394Y001617D03*
X013405Y001606D03*
X013417Y001594D03*
X013520Y001433D03*
X013451Y002549D03*
X013417Y002652D03*
X013072Y002721D03*
X013233Y003147D03*
X013980Y003032D03*
X013992Y003009D03*
X014210Y002974D03*
X014222Y003055D03*
X014544Y003043D03*
X014555Y002767D03*
X014567Y002721D03*
X014567Y002710D03*
X014567Y002698D03*
X014555Y002652D03*
X014544Y002641D03*
X014210Y002652D03*
X014199Y002664D03*
X013992Y002698D03*
X013969Y002664D03*
X012301Y002744D03*
X012301Y002756D03*
X012267Y003066D03*
X011968Y003066D03*
X011956Y003055D03*
X011956Y002951D03*
D20*
X012618Y001445D03*
X013906Y001445D03*
D21*
X013624Y001675D03*
X013520Y001445D03*
X013014Y001974D03*
X012255Y002146D03*
X012244Y002135D03*
X012232Y002123D03*
X012232Y002112D03*
X012221Y001663D03*
X012232Y001652D03*
X012244Y001629D03*
X012255Y001617D03*
X012232Y002606D03*
X012002Y002606D03*
X013233Y003066D03*
X014268Y002606D03*
X014268Y002146D03*
X014279Y002135D03*
X014279Y002123D03*
X014291Y002112D03*
X014302Y002089D03*
X014291Y001652D03*
X014279Y001629D03*
X014268Y001617D03*
D22*
X013906Y002307D03*
X012618Y002307D03*
X012618Y001468D03*
X012618Y001456D03*
D23*
X013808Y001456D03*
D24*
X013802Y001468D03*
D25*
X013906Y002284D03*
X012618Y002284D03*
X012618Y001479D03*
D26*
X013808Y001479D03*
D27*
X012618Y001491D03*
D28*
X013814Y001491D03*
D29*
X014113Y001502D03*
X013699Y002261D03*
X012825Y001502D03*
X012411Y001502D03*
X012411Y002261D03*
X012123Y002859D03*
X012100Y002871D03*
D30*
X013618Y001502D03*
D31*
X013066Y002066D03*
X012376Y001514D03*
X014377Y003147D03*
D32*
X014337Y002882D03*
X014141Y002250D03*
X013670Y002250D03*
X013072Y002077D03*
X012853Y002250D03*
X012382Y002250D03*
X012853Y001514D03*
X014141Y001514D03*
X012071Y002882D03*
X012117Y003147D03*
D33*
X013233Y002744D03*
X013773Y002595D03*
X013773Y003101D03*
X013601Y001514D03*
D34*
X014164Y001525D03*
X013049Y002043D03*
X012876Y001525D03*
X012359Y001525D03*
D35*
X013589Y001525D03*
X013233Y002790D03*
X013750Y003135D03*
D36*
X014199Y001548D03*
X012324Y001548D03*
D37*
X012911Y001548D03*
X013037Y002020D03*
X012922Y002204D03*
X013612Y001617D03*
D38*
X013555Y001560D03*
X013566Y001548D03*
X013083Y002112D03*
X012819Y002261D03*
X012612Y002376D03*
X013727Y002549D03*
X014107Y002261D03*
D39*
X014216Y002204D03*
X013595Y002204D03*
X013584Y002192D03*
X013457Y002077D03*
X013446Y002066D03*
X013434Y002054D03*
X013411Y002031D03*
X013400Y002020D03*
X013388Y002008D03*
X013377Y001997D03*
X013354Y001974D03*
X013342Y001962D03*
X013331Y001951D03*
X013319Y001939D03*
X013296Y001916D03*
X013285Y001905D03*
X013273Y001893D03*
X013262Y001882D03*
X013239Y001859D03*
X013227Y001847D03*
X013216Y001836D03*
X013204Y001824D03*
X013181Y001801D03*
X012940Y001571D03*
X012928Y001560D03*
X013032Y002008D03*
X012940Y002192D03*
X012307Y002204D03*
X012296Y002192D03*
X012296Y001571D03*
X012307Y001560D03*
X013618Y001629D03*
X014216Y001560D03*
X014377Y003158D03*
X012112Y003158D03*
D40*
X012232Y002813D03*
X013026Y001997D03*
X013164Y001790D03*
X013152Y001778D03*
X013141Y001767D03*
X013106Y001732D03*
X013095Y001721D03*
X013083Y001709D03*
X013049Y001675D03*
X013037Y001663D03*
X013026Y001652D03*
X012991Y001617D03*
X012980Y001606D03*
X012968Y001594D03*
X013601Y001709D03*
X013474Y002089D03*
X013497Y002112D03*
X013509Y002123D03*
X013532Y002146D03*
X013555Y002169D03*
X013566Y002181D03*
X014222Y002192D03*
X014233Y002181D03*
X014222Y001571D03*
D41*
X013607Y001698D03*
X013020Y001985D03*
X012261Y002158D03*
X012284Y001583D03*
D42*
X012951Y001583D03*
X013193Y001813D03*
X013250Y001870D03*
X013308Y001928D03*
X013365Y001985D03*
X013423Y002043D03*
D43*
X013543Y001583D03*
D44*
X013624Y001640D03*
X013129Y001755D03*
X013072Y001698D03*
X013014Y001640D03*
X013486Y002100D03*
X013543Y002158D03*
X014233Y001583D03*
X014279Y002905D03*
X012014Y002905D03*
D45*
X012284Y002181D03*
X012273Y002169D03*
X012261Y001606D03*
X012273Y001594D03*
X013618Y001686D03*
X013630Y001652D03*
X014251Y001594D03*
X014262Y001606D03*
X014251Y002169D03*
X014492Y002606D03*
X014492Y002813D03*
D46*
X014463Y002825D03*
X014164Y002238D03*
X013647Y002238D03*
X013060Y002054D03*
X012876Y002238D03*
X012359Y002238D03*
X012117Y002549D03*
X012198Y002825D03*
X013601Y001594D03*
D47*
X013118Y001744D03*
X013060Y001686D03*
X013003Y001629D03*
X013520Y002135D03*
D48*
X013440Y002583D03*
X013037Y002629D03*
X013026Y002595D03*
X012290Y002652D03*
X012290Y002767D03*
X012278Y003043D03*
X012278Y003055D03*
X011945Y002997D03*
X011945Y002986D03*
X011945Y002974D03*
X011945Y002652D03*
X013382Y001629D03*
X014015Y002767D03*
X014015Y002940D03*
X014015Y002951D03*
X014003Y002986D03*
X014233Y003066D03*
X014532Y003066D03*
D49*
X013911Y002618D03*
X014256Y002158D03*
X014279Y001640D03*
X012232Y001640D03*
D50*
X013371Y001640D03*
X013428Y002618D03*
X011933Y002675D03*
D51*
X012204Y002066D03*
X012192Y002031D03*
X013630Y001663D03*
X014320Y001709D03*
X014320Y002054D03*
X014377Y002537D03*
D52*
X014251Y002917D03*
X014308Y002077D03*
X014308Y001686D03*
X014308Y001675D03*
X014297Y001663D03*
X012215Y001675D03*
X012215Y001686D03*
X012215Y002077D03*
X012215Y002089D03*
X012112Y002537D03*
X011997Y002917D03*
D53*
X013348Y001675D03*
X014555Y002986D03*
D54*
X013348Y001686D03*
X012991Y001893D03*
D55*
X012204Y001698D03*
X013239Y003078D03*
D56*
X013348Y001698D03*
D57*
X014314Y001698D03*
X014337Y001755D03*
X014348Y001813D03*
X014325Y002043D03*
X012198Y002043D03*
X012175Y001985D03*
X012163Y001928D03*
X012163Y001870D03*
X012186Y001755D03*
D58*
X012186Y001744D03*
X012186Y001732D03*
X012198Y001721D03*
X012198Y001709D03*
X012175Y001767D03*
X012175Y001778D03*
X012175Y001790D03*
X012175Y001801D03*
X012163Y001836D03*
X012163Y001847D03*
X012163Y001859D03*
X012163Y001882D03*
X012163Y001893D03*
X012163Y001905D03*
X012163Y001916D03*
X012175Y001962D03*
X012175Y001974D03*
X012175Y001997D03*
X012186Y002008D03*
X012186Y002020D03*
X012198Y002054D03*
X013014Y001962D03*
X013129Y002192D03*
X012255Y002802D03*
X013233Y003089D03*
X013233Y003101D03*
X014521Y002802D03*
X014314Y002066D03*
X014325Y002031D03*
X014337Y002020D03*
X014337Y002008D03*
X014337Y001997D03*
X014348Y001974D03*
X014348Y001962D03*
X014348Y001951D03*
X014348Y001939D03*
X014348Y001824D03*
X014348Y001801D03*
X014348Y001790D03*
X014348Y001778D03*
X014337Y001767D03*
X014337Y001744D03*
X014325Y001732D03*
X014325Y001721D03*
D59*
X013549Y001721D03*
X013538Y001732D03*
X013526Y001744D03*
X013503Y001767D03*
X013492Y001778D03*
X013480Y001790D03*
X013952Y002641D03*
X013963Y002652D03*
X014216Y002641D03*
X014228Y002629D03*
X014538Y002629D03*
X014550Y002779D03*
X014228Y002940D03*
X014216Y002951D03*
X014251Y003089D03*
X013975Y003043D03*
X013963Y003055D03*
X012284Y002779D03*
X012284Y002641D03*
X012273Y002629D03*
X011962Y002629D03*
X011951Y002641D03*
X011962Y002940D03*
D60*
X013135Y002204D03*
X012997Y001905D03*
X013653Y001732D03*
D61*
X013653Y001744D03*
X013480Y001824D03*
X013906Y002399D03*
X012618Y002399D03*
D62*
X012261Y003078D03*
X011974Y003078D03*
X013515Y001755D03*
X014239Y003078D03*
D63*
X013653Y001755D03*
D64*
X014354Y001870D03*
X014354Y001928D03*
X014239Y002618D03*
X012169Y001813D03*
D65*
X013480Y001813D03*
D66*
X014354Y001836D03*
X014354Y001847D03*
X014354Y001859D03*
X014354Y001882D03*
X014354Y001893D03*
X014354Y001905D03*
X014354Y001916D03*
X012169Y001939D03*
X012169Y001951D03*
X012169Y001824D03*
X012112Y003170D03*
D67*
X013480Y001836D03*
D68*
X012991Y001882D03*
D69*
X013003Y001928D03*
X013014Y002560D03*
X013980Y002675D03*
X014210Y002963D03*
X013992Y003020D03*
X014567Y002733D03*
D70*
X014233Y002928D03*
X013946Y003066D03*
X013233Y003124D03*
X012244Y003089D03*
X011991Y003089D03*
X013003Y001939D03*
D71*
X013009Y001951D03*
X013940Y002629D03*
X014504Y003089D03*
X014377Y003170D03*
X013239Y003112D03*
X011974Y002928D03*
D72*
X012261Y002618D03*
X013929Y003078D03*
X014343Y001985D03*
D73*
X013078Y002089D03*
X012169Y002836D03*
X013710Y003158D03*
D74*
X014297Y002100D03*
X012227Y002100D03*
D75*
X012117Y002560D03*
X013083Y002100D03*
X014383Y002560D03*
X014406Y002848D03*
D76*
X013083Y002123D03*
X012117Y002572D03*
X012117Y003124D03*
D77*
X012117Y003112D03*
X012117Y002583D03*
X013083Y002135D03*
X014383Y002583D03*
D78*
X014383Y002595D03*
X013900Y002365D03*
X013233Y002767D03*
X013233Y002779D03*
X013762Y003124D03*
X013037Y002181D03*
X013083Y002146D03*
X012612Y002365D03*
X012117Y002595D03*
D79*
X013072Y002158D03*
D80*
X013055Y002169D03*
X013227Y002756D03*
D81*
X012324Y002215D03*
X014199Y002215D03*
D82*
X013612Y002215D03*
X012911Y002215D03*
D83*
X012618Y002273D03*
X013906Y002273D03*
D84*
X013900Y002296D03*
X012612Y002296D03*
D85*
X012612Y002319D03*
D86*
X013900Y002319D03*
D87*
X013906Y002330D03*
X012618Y002330D03*
D88*
X012618Y002353D03*
X012687Y003158D03*
X013906Y002353D03*
D89*
X013906Y002388D03*
X012618Y002388D03*
D90*
X012692Y002549D03*
X012692Y002572D03*
X012692Y002583D03*
X012692Y002595D03*
X012692Y002606D03*
X012692Y003089D03*
X012692Y003101D03*
X012692Y003112D03*
X012692Y003124D03*
X012692Y003147D03*
D91*
X012692Y003135D03*
X012692Y002560D03*
D92*
X012514Y002618D03*
X012514Y002675D03*
X012514Y002733D03*
X012514Y002790D03*
X012514Y002905D03*
X012514Y002963D03*
X012514Y003020D03*
X012514Y003078D03*
X012284Y003020D03*
X012307Y002733D03*
X012296Y002675D03*
X011951Y002963D03*
X011951Y003020D03*
X013032Y002618D03*
X013055Y002675D03*
X013112Y002848D03*
X013135Y002905D03*
X013158Y002963D03*
X013181Y003020D03*
X013308Y002963D03*
X013331Y002905D03*
X013354Y002848D03*
X013411Y002675D03*
X013446Y002560D03*
X013618Y002618D03*
X013618Y002675D03*
X013618Y002733D03*
X013618Y002790D03*
X013618Y002848D03*
X013618Y002905D03*
X013618Y002963D03*
X013618Y003020D03*
X013618Y003078D03*
X014009Y002963D03*
X014021Y002905D03*
X014021Y002848D03*
X014021Y002790D03*
X014009Y002733D03*
X014182Y002733D03*
X014193Y002675D03*
X014561Y002675D03*
X014550Y003020D03*
X014205Y003020D03*
D93*
X013745Y002560D03*
D94*
X013756Y002572D03*
X014377Y003101D03*
X012123Y003101D03*
D95*
X012675Y002894D03*
X012675Y002882D03*
X012675Y002871D03*
X012675Y002859D03*
X012675Y002836D03*
X012675Y002825D03*
X013779Y002606D03*
D96*
X013233Y003135D03*
X012278Y002790D03*
X011979Y002618D03*
X014521Y002618D03*
X014532Y002790D03*
X014521Y003078D03*
D97*
X011922Y002733D03*
D98*
X013233Y002733D03*
D99*
X014435Y002836D03*
D100*
X014377Y003135D03*
X012146Y002848D03*
X012112Y003135D03*
D101*
X012675Y002848D03*
D102*
X014383Y002859D03*
D103*
X014360Y002871D03*
D104*
X013290Y003020D03*
D105*
X013785Y003089D03*
D106*
X014377Y003112D03*
D107*
X013739Y003147D03*
D108*
X011940Y003930D03*
X011940Y004186D03*
X011940Y004442D03*
X011940Y004698D03*
X011940Y004954D03*
X011940Y005210D03*
X011940Y005465D03*
X011940Y005721D03*
X011940Y005977D03*
X011940Y006233D03*
X011940Y006489D03*
X011940Y006745D03*
X011940Y007001D03*
X011940Y007257D03*
X009066Y007257D03*
X009066Y007001D03*
X009066Y006745D03*
X009066Y006489D03*
X009066Y006233D03*
X009066Y005977D03*
X009066Y005721D03*
X009066Y005465D03*
X009066Y005210D03*
X009066Y004954D03*
X009066Y004698D03*
X009066Y004442D03*
X009066Y004186D03*
X009066Y003930D03*
D109*
X009078Y003133D03*
X009786Y003133D03*
X010141Y001834D03*
X010849Y001834D03*
X011243Y007897D03*
X011243Y008448D03*
X011952Y008448D03*
X011952Y007897D03*
X009786Y007936D03*
X009786Y008487D03*
X009786Y009117D03*
X009078Y009117D03*
X009078Y008487D03*
X009078Y007936D03*
X009393Y011204D03*
X008684Y011204D03*
D110*
X007345Y010495D03*
X007345Y009786D03*
X004432Y009983D03*
X003841Y009983D03*
X003251Y009983D03*
X003251Y009274D03*
X003841Y009274D03*
X003841Y008684D03*
X003251Y008684D03*
X003251Y007975D03*
X003841Y007975D03*
X004432Y007975D03*
X004432Y008684D03*
X004432Y009274D03*
X004432Y011519D03*
X003841Y011519D03*
X003251Y011519D03*
X003251Y012227D03*
X003841Y012227D03*
X003841Y012818D03*
X003251Y012818D03*
X003251Y013526D03*
X003841Y013526D03*
X004432Y013526D03*
X004432Y012818D03*
X004432Y012227D03*
X004432Y006440D03*
X003841Y006440D03*
X003251Y006440D03*
X003251Y005731D03*
X003251Y005141D03*
X003841Y005141D03*
X003841Y005731D03*
X004432Y005731D03*
X004432Y005141D03*
X004432Y004432D03*
X003841Y004432D03*
X003251Y004432D03*
X012936Y007818D03*
X013566Y007818D03*
X014117Y007818D03*
X014708Y007818D03*
X015298Y007818D03*
X015889Y007818D03*
X015889Y008526D03*
X015298Y008526D03*
X014708Y008526D03*
X014117Y008526D03*
X013566Y008526D03*
X012936Y008526D03*
X013641Y005157D03*
X013641Y004449D03*
X015849Y004426D03*
X015849Y005134D03*
D111*
X002361Y005432D02*
X001621Y005432D01*
X001621Y004432D02*
X002361Y004432D01*
X002361Y002889D02*
X001621Y002889D01*
X001621Y001889D02*
X002361Y001889D01*
X002361Y000889D02*
X001621Y000889D01*
X001621Y006432D02*
X002361Y006432D01*
X002361Y007975D02*
X001621Y007975D01*
X001621Y008975D02*
X002361Y008975D01*
X002361Y009975D02*
X001621Y009975D01*
X001621Y011519D02*
X002361Y011519D01*
X002361Y012519D02*
X001621Y012519D01*
X001621Y013519D02*
X002361Y013519D01*
D112*
X008060Y010481D03*
X008060Y010231D03*
X008060Y009971D03*
X008060Y009721D03*
X009780Y009721D03*
X009780Y009971D03*
X009780Y010231D03*
X009780Y010481D03*
D113*
X014312Y005126D03*
X014312Y004457D03*
X015178Y004457D03*
X015178Y005126D03*
D114*
X016484Y012395D03*
X010569Y012385D03*
D115*
X011776Y013310D03*
X012026Y013310D03*
X012276Y013310D03*
X012526Y013310D03*
X012776Y013310D03*
X013026Y013310D03*
X013276Y013310D03*
X013526Y013310D03*
X013776Y013310D03*
X014026Y013310D03*
X014276Y013310D03*
X014526Y013310D03*
X014776Y013310D03*
X015026Y013310D03*
X015276Y013310D03*
X015276Y011460D03*
X015026Y011460D03*
X014776Y011460D03*
X014526Y011460D03*
X014276Y011460D03*
X014026Y011460D03*
X013776Y011460D03*
X013526Y011460D03*
X013276Y011460D03*
X013026Y011460D03*
X012776Y011460D03*
X012526Y011460D03*
X012276Y011460D03*
X012026Y011460D03*
X011776Y011460D03*
D116*
X011282Y012385D03*
D117*
X015771Y012385D03*
D118*
X014038Y012385D03*
X013526Y012385D03*
X013015Y012385D03*
X012267Y012542D03*
X011243Y013566D03*
X014983Y010377D03*
X014904Y009904D03*
X014117Y009432D03*
X013566Y009078D03*
X012936Y009865D03*
X012503Y009078D03*
X012030Y009511D03*
X014668Y008920D03*
X008330Y007975D03*
X007700Y007503D03*
X006637Y006361D03*
X006637Y005141D03*
X008093Y004826D03*
X005967Y012227D03*
X005574Y012818D03*
D119*
X000967Y000731D03*
X000967Y001007D03*
X000967Y001282D03*
X000967Y001558D03*
X000967Y001834D03*
X000967Y002109D03*
X000967Y002385D03*
X000967Y002621D03*
X000967Y002897D03*
X000967Y003172D03*
X000967Y003448D03*
X000967Y003684D03*
X000967Y003960D03*
X000967Y004235D03*
X000967Y004511D03*
X000967Y004786D03*
X000967Y005062D03*
X000967Y005337D03*
X000967Y005613D03*
X000967Y005889D03*
X000967Y006164D03*
X000967Y006440D03*
X000967Y006715D03*
X000967Y006991D03*
X000967Y007267D03*
X000967Y007542D03*
X000967Y007818D03*
X000967Y008093D03*
X000967Y008369D03*
X000967Y008645D03*
X000967Y008920D03*
X000967Y009196D03*
X000967Y009432D03*
X000967Y009708D03*
X000967Y009983D03*
X000967Y010259D03*
X000967Y010534D03*
X000967Y010810D03*
X000967Y011086D03*
X000967Y011361D03*
X000967Y011597D03*
X000967Y011873D03*
X000967Y012149D03*
X000967Y012424D03*
X000967Y012700D03*
X000967Y012975D03*
X000967Y013251D03*
X000967Y013487D03*
X000967Y013763D03*
X000967Y014038D03*
X003093Y013999D03*
X003369Y013999D03*
X003645Y013999D03*
X003920Y013999D03*
X004196Y013999D03*
X004471Y013999D03*
X004747Y013999D03*
X005023Y013999D03*
X005298Y013999D03*
X005574Y013999D03*
X005849Y013999D03*
X006125Y013999D03*
X006400Y013999D03*
X006676Y013999D03*
X006676Y013723D03*
X006676Y013448D03*
X006676Y013172D03*
X006676Y012897D03*
X006676Y012621D03*
X006676Y012345D03*
X006676Y012070D03*
X006676Y011794D03*
X006676Y011519D03*
X006676Y011243D03*
X006676Y010967D03*
X006676Y010692D03*
X006676Y010416D03*
X006676Y010141D03*
X006676Y009865D03*
X006676Y009589D03*
X006676Y009314D03*
X006676Y009038D03*
X006676Y008763D03*
X006676Y008487D03*
X006952Y008487D03*
X007227Y008487D03*
X007503Y008487D03*
X007778Y008487D03*
X008054Y008487D03*
X008330Y008487D03*
X008605Y008487D03*
X007345Y009511D03*
X008330Y011204D03*
X010416Y010849D03*
X010416Y010574D03*
X010416Y010298D03*
X010416Y010023D03*
X010416Y009747D03*
X010416Y009471D03*
X010416Y009196D03*
X010416Y008920D03*
X010298Y008448D03*
X010298Y008211D03*
X010298Y007936D03*
X010298Y007700D03*
X010298Y007424D03*
X010298Y007149D03*
X010298Y006873D03*
X010298Y006597D03*
X010298Y006322D03*
X010298Y006046D03*
X010298Y005771D03*
X010298Y005495D03*
X010298Y005219D03*
X010298Y004944D03*
X010298Y004668D03*
X010298Y004393D03*
X010298Y004038D03*
X010298Y003645D03*
X010298Y003369D03*
X010298Y003093D03*
X010298Y002818D03*
X010298Y002542D03*
X010298Y002267D03*
X010692Y002267D03*
X010692Y002542D03*
X010692Y002818D03*
X010692Y003093D03*
X010692Y003369D03*
X010692Y003645D03*
X010692Y004393D03*
X010692Y004668D03*
X010692Y004944D03*
X010692Y005219D03*
X010692Y005495D03*
X010692Y005771D03*
X010692Y006046D03*
X010692Y006322D03*
X010692Y006597D03*
X010692Y006873D03*
X010692Y007149D03*
X010692Y007424D03*
X011243Y008448D03*
X011637Y009038D03*
X011637Y010023D03*
X013645Y009904D03*
X015456Y009629D03*
X017700Y009629D03*
X017700Y009904D03*
X017700Y010180D03*
X017700Y010456D03*
X017700Y010731D03*
X017700Y011007D03*
X017700Y011282D03*
X017700Y011558D03*
X017700Y011834D03*
X017700Y012109D03*
X017700Y012385D03*
X017700Y012660D03*
X017700Y012936D03*
X017700Y013211D03*
X017700Y013487D03*
X017700Y013763D03*
X017700Y014038D03*
X017424Y014038D03*
X017149Y014038D03*
X016873Y014038D03*
X016597Y014038D03*
X016322Y014038D03*
X016046Y014038D03*
X015771Y014038D03*
X015495Y014038D03*
X010603Y013141D03*
X004826Y010731D03*
X005416Y006952D03*
X003290Y003369D03*
X003881Y000731D03*
X004156Y000731D03*
X004432Y000731D03*
X004708Y000731D03*
X004983Y000731D03*
X005259Y000731D03*
X005534Y000731D03*
X005810Y000731D03*
X006086Y000731D03*
X006361Y000731D03*
X006637Y000731D03*
X006912Y000731D03*
X007188Y000731D03*
X007463Y000731D03*
X007739Y000731D03*
X008015Y000731D03*
X008290Y000731D03*
X008566Y000731D03*
X008841Y000731D03*
X009117Y000731D03*
X009353Y000731D03*
X009589Y000731D03*
X009826Y000731D03*
X010062Y000731D03*
X010298Y000731D03*
X010298Y001007D03*
X010298Y001282D03*
X010692Y001282D03*
X010692Y001007D03*
X010692Y000731D03*
X010967Y000731D03*
X011204Y000731D03*
X011479Y000731D03*
X011755Y000731D03*
X011991Y000731D03*
X012267Y000731D03*
X012503Y000731D03*
X012778Y000731D03*
X013054Y000731D03*
X013330Y000731D03*
X013605Y000731D03*
X013881Y000731D03*
X014156Y000731D03*
X014432Y000731D03*
X014708Y000731D03*
X014983Y000731D03*
X015259Y000731D03*
X015534Y000731D03*
X015810Y000731D03*
X016086Y000731D03*
X017700Y002463D03*
X017700Y002739D03*
X017700Y003015D03*
X017700Y003290D03*
X017700Y003566D03*
X017700Y003841D03*
X017700Y004117D03*
X017700Y004393D03*
X017700Y004668D03*
X017700Y004944D03*
X017700Y005219D03*
X017700Y005495D03*
X017700Y005771D03*
X017700Y006046D03*
X017700Y006322D03*
X017700Y006597D03*
X017700Y006873D03*
X017700Y007149D03*
X017700Y007424D03*
X017700Y007700D03*
X017700Y007975D03*
X017700Y008251D03*
X017700Y008526D03*
X017700Y008802D03*
X017700Y009078D03*
X017700Y009353D03*
X016183Y007138D03*
X014320Y005121D03*
X015180Y004481D03*
X012491Y003595D03*
X011952Y004038D03*
X007700Y003054D03*
M02*
