G75*
G70*
%OFA0B0*%
%FSLAX24Y24*%
%IPPOS*%
%LPD*%
%AMOC8*
5,1,8,0,0,1.08239X$1,22.5*
%
%ADD10C,0.0000*%
%ADD11C,0.0030*%
%ADD12C,0.0060*%
%ADD13C,0.0080*%
%ADD14C,0.0050*%
%ADD15C,0.0010*%
D10*
X007150Y004957D02*
X007540Y004957D01*
X007540Y005067D01*
X007150Y005067D01*
X007150Y004957D01*
X007150Y005157D02*
X007540Y005157D01*
X007540Y005267D01*
X007150Y005267D01*
X007150Y005157D01*
X007150Y005347D02*
X007540Y005347D01*
X007540Y005457D01*
X007150Y005457D01*
X007150Y005347D01*
X007150Y005547D02*
X007540Y005547D01*
X007540Y005657D01*
X007150Y005657D01*
X007150Y005547D01*
X007150Y005747D02*
X007540Y005747D01*
X007540Y005857D01*
X007150Y005857D01*
X007150Y005747D01*
X007150Y005937D02*
X007540Y005937D01*
X007540Y006047D01*
X007150Y006047D01*
X007150Y005937D01*
X007150Y006137D02*
X007540Y006137D01*
X007540Y006247D01*
X007150Y006247D01*
X007150Y006137D01*
X007150Y006337D02*
X007540Y006337D01*
X007540Y006447D01*
X007150Y006447D01*
X007150Y006337D01*
X007150Y006527D02*
X007540Y006527D01*
X007540Y006637D01*
X007150Y006637D01*
X007150Y006527D01*
X007150Y006727D02*
X007540Y006727D01*
X007540Y006837D01*
X007150Y006837D01*
X007150Y006727D01*
X007150Y006927D02*
X007540Y006927D01*
X007540Y007037D01*
X007150Y007037D01*
X007150Y006927D01*
X007150Y007117D02*
X007540Y007117D01*
X007540Y007227D01*
X007150Y007227D01*
X007150Y007117D01*
X007150Y007317D02*
X007540Y007317D01*
X007540Y007427D01*
X007150Y007427D01*
X007150Y007317D01*
X007150Y007517D02*
X007540Y007517D01*
X007540Y007627D01*
X007150Y007627D01*
X007150Y007517D01*
X007150Y007707D02*
X007540Y007707D01*
X007540Y007817D01*
X007150Y007817D01*
X007150Y007707D01*
X007150Y007907D02*
X007540Y007907D01*
X007540Y007997D01*
X008040Y008497D01*
X008130Y008497D01*
X008130Y008887D01*
X008020Y008887D01*
X008020Y008497D01*
X008040Y008497D01*
X008220Y008497D02*
X008220Y008887D01*
X008330Y008887D01*
X008330Y008497D01*
X008220Y008497D01*
X008410Y008497D02*
X008410Y008887D01*
X008520Y008887D01*
X008520Y008497D01*
X008410Y008497D01*
X008610Y008497D02*
X008610Y008887D01*
X008720Y008887D01*
X008720Y008497D01*
X008610Y008497D01*
X008810Y008497D02*
X008810Y008887D01*
X008920Y008887D01*
X008920Y008497D01*
X008810Y008497D01*
X009000Y008497D02*
X009000Y008887D01*
X009110Y008887D01*
X009110Y008497D01*
X009000Y008497D01*
X009200Y008497D02*
X009200Y008887D01*
X009310Y008887D01*
X009310Y008497D01*
X009200Y008497D01*
X009400Y008497D02*
X009400Y008887D01*
X009510Y008887D01*
X009510Y008497D01*
X009400Y008497D01*
X009590Y008497D02*
X009590Y008887D01*
X009700Y008887D01*
X009700Y008497D01*
X009590Y008497D01*
X009790Y008497D02*
X009790Y008887D01*
X009900Y008887D01*
X009900Y008497D01*
X009790Y008497D01*
X009990Y008497D02*
X009990Y008887D01*
X010100Y008887D01*
X010100Y008497D01*
X009990Y008497D01*
X010180Y008497D02*
X010180Y008887D01*
X010290Y008887D01*
X010290Y008497D01*
X010180Y008497D01*
X010380Y008497D02*
X010380Y008887D01*
X010490Y008887D01*
X010490Y008497D01*
X010380Y008497D01*
X010580Y008497D02*
X010580Y008887D01*
X010690Y008887D01*
X010690Y008497D01*
X010580Y008497D01*
X010770Y008497D02*
X010770Y008887D01*
X010880Y008887D01*
X010880Y008497D01*
X010770Y008497D01*
X010970Y008497D02*
X010970Y008887D01*
X011080Y008887D01*
X011080Y008497D01*
X010970Y008497D01*
X011560Y008497D02*
X007540Y008497D01*
X007540Y004477D01*
X011560Y004477D01*
X011560Y008497D01*
X011560Y008017D02*
X011950Y008017D01*
X011950Y007907D01*
X011560Y007907D01*
X011560Y008017D01*
X011560Y007817D02*
X011950Y007817D01*
X011950Y007707D01*
X011560Y007707D01*
X011560Y007817D01*
X011560Y007627D02*
X011950Y007627D01*
X011950Y007517D01*
X011560Y007517D01*
X011560Y007627D01*
X011560Y007427D02*
X011950Y007427D01*
X011950Y007317D01*
X011560Y007317D01*
X011560Y007427D01*
X011560Y007227D02*
X011950Y007227D01*
X011950Y007117D01*
X011560Y007117D01*
X011560Y007227D01*
X011560Y007037D02*
X011950Y007037D01*
X011950Y006927D01*
X011560Y006927D01*
X011560Y007037D01*
X011560Y006837D02*
X011950Y006837D01*
X011950Y006727D01*
X011560Y006727D01*
X011560Y006837D01*
X011560Y006637D02*
X011950Y006637D01*
X011950Y006527D01*
X011560Y006527D01*
X011560Y006637D01*
X011560Y006447D02*
X011950Y006447D01*
X011950Y006337D01*
X011560Y006337D01*
X011560Y006447D01*
X011560Y006247D02*
X011950Y006247D01*
X011950Y006137D01*
X011560Y006137D01*
X011560Y006247D01*
X011560Y006047D02*
X011950Y006047D01*
X011950Y005937D01*
X011560Y005937D01*
X011560Y006047D01*
X011560Y005857D02*
X011950Y005857D01*
X011950Y005747D01*
X011560Y005747D01*
X011560Y005857D01*
X011560Y005657D02*
X011950Y005657D01*
X011950Y005547D01*
X011560Y005547D01*
X011560Y005657D01*
X011560Y005457D02*
X011950Y005457D01*
X011950Y005347D01*
X011560Y005347D01*
X011560Y005457D01*
X011560Y005267D02*
X011950Y005267D01*
X011950Y005157D01*
X011560Y005157D01*
X011560Y005267D01*
X011560Y005067D02*
X011950Y005067D01*
X011950Y004957D01*
X011560Y004957D01*
X011560Y005067D01*
X011080Y004477D02*
X011080Y004087D01*
X010970Y004087D01*
X010970Y004477D01*
X011080Y004477D01*
X010880Y004477D02*
X010880Y004087D01*
X010770Y004087D01*
X010770Y004477D01*
X010880Y004477D01*
X010690Y004477D02*
X010690Y004087D01*
X010580Y004087D01*
X010580Y004477D01*
X010690Y004477D01*
X010490Y004477D02*
X010490Y004087D01*
X010380Y004087D01*
X010380Y004477D01*
X010490Y004477D01*
X010290Y004477D02*
X010290Y004087D01*
X010180Y004087D01*
X010180Y004477D01*
X010290Y004477D01*
X010100Y004477D02*
X010100Y004087D01*
X009990Y004087D01*
X009990Y004477D01*
X010100Y004477D01*
X009900Y004477D02*
X009900Y004087D01*
X009790Y004087D01*
X009790Y004477D01*
X009900Y004477D01*
X009700Y004477D02*
X009700Y004087D01*
X009590Y004087D01*
X009590Y004477D01*
X009700Y004477D01*
X009510Y004477D02*
X009510Y004087D01*
X009400Y004087D01*
X009400Y004477D01*
X009510Y004477D01*
X009310Y004477D02*
X009310Y004087D01*
X009200Y004087D01*
X009200Y004477D01*
X009310Y004477D01*
X009110Y004477D02*
X009110Y004087D01*
X009000Y004087D01*
X009000Y004477D01*
X009110Y004477D01*
X008920Y004477D02*
X008920Y004087D01*
X008810Y004087D01*
X008810Y004477D01*
X008920Y004477D01*
X008720Y004477D02*
X008720Y004087D01*
X008610Y004087D01*
X008610Y004477D01*
X008720Y004477D01*
X008520Y004477D02*
X008520Y004087D01*
X008410Y004087D01*
X008410Y004477D01*
X008520Y004477D01*
X008330Y004477D02*
X008330Y004087D01*
X008220Y004087D01*
X008220Y004477D01*
X008330Y004477D01*
X008130Y004477D02*
X008130Y004087D01*
X008020Y004087D01*
X008020Y004477D01*
X008130Y004477D01*
X007150Y007907D02*
X007150Y008017D01*
X007540Y008017D01*
X007540Y007997D01*
X006060Y012227D02*
X004040Y012227D01*
X004040Y014247D01*
X006060Y014247D01*
X006060Y012227D01*
X006060Y012647D02*
X006060Y012797D01*
X006060Y012727D02*
X005560Y012227D01*
X005490Y012227D02*
X005640Y012227D01*
X005380Y012227D02*
X005230Y012227D01*
X005120Y012227D02*
X004980Y012227D01*
X004870Y012227D02*
X004720Y012227D01*
X004610Y012227D02*
X004460Y012227D01*
X004040Y012647D02*
X004040Y012797D01*
X004040Y012907D02*
X004040Y013057D01*
X004040Y013167D02*
X004040Y013307D01*
X004040Y013417D02*
X004040Y013567D01*
X004040Y013677D02*
X004040Y013827D01*
X004460Y014247D02*
X004610Y014247D01*
X004720Y014247D02*
X004870Y014247D01*
X004980Y014247D02*
X005120Y014247D01*
X005230Y014247D02*
X005380Y014247D01*
X005490Y014247D02*
X005640Y014247D01*
X006060Y013827D02*
X006060Y013677D01*
X006060Y013567D02*
X006060Y013417D01*
X006060Y013307D02*
X006060Y013167D01*
X006060Y013057D02*
X006060Y012907D01*
D11*
X006341Y012603D02*
X006655Y012290D01*
X006655Y012446D02*
X006341Y012446D01*
X006341Y012290D02*
X006655Y012603D01*
X006498Y012603D02*
X006498Y012290D01*
X006545Y008364D02*
X006859Y008050D01*
X006859Y008207D02*
X006545Y008207D01*
X006545Y008050D02*
X006859Y008364D01*
X006702Y008364D02*
X006702Y008050D01*
D12*
X005518Y008273D02*
X005282Y008273D01*
X005282Y008700D02*
X005518Y008700D01*
X005518Y009173D02*
X005282Y009173D01*
X005282Y009350D02*
X005518Y009350D01*
X005518Y009823D02*
X005282Y009823D01*
X005298Y011030D02*
X005062Y011030D01*
X005062Y011503D02*
X005298Y011503D01*
X006914Y010555D02*
X006914Y010319D01*
X007386Y010319D02*
X007386Y010555D01*
X007764Y010555D02*
X007764Y010319D01*
X008236Y010319D02*
X008236Y010555D01*
X009114Y010555D02*
X009114Y010319D01*
X009586Y010319D02*
X009586Y010555D01*
X009914Y010555D02*
X009914Y010319D01*
X010386Y010319D02*
X010386Y010555D01*
X010954Y010809D02*
X010954Y011045D01*
X011426Y011045D02*
X011426Y010809D01*
X011594Y010809D02*
X011594Y011045D01*
X012066Y011045D02*
X012066Y010809D01*
X013182Y011750D02*
X013418Y011750D01*
X013418Y012223D02*
X013182Y012223D01*
X015182Y012223D02*
X015418Y012223D01*
X015418Y011750D02*
X015182Y011750D01*
X017182Y011750D02*
X017418Y011750D01*
X017418Y012223D02*
X017182Y012223D01*
X013668Y009823D02*
X013432Y009823D01*
X013432Y009350D02*
X013668Y009350D01*
X013668Y009173D02*
X013432Y009173D01*
X013432Y008700D02*
X013668Y008700D01*
X013668Y007873D02*
X013432Y007873D01*
X013432Y007400D02*
X013668Y007400D01*
X014394Y007289D02*
X014394Y007525D01*
X014866Y007525D02*
X014866Y007289D01*
X010546Y013179D02*
X010546Y013415D01*
X010074Y013415D02*
X010074Y013179D01*
X009816Y013179D02*
X009816Y013415D01*
X009344Y013415D02*
X009344Y013179D01*
X009076Y013179D02*
X009076Y013415D01*
X008604Y013415D02*
X008604Y013179D01*
X008356Y013179D02*
X008356Y013415D01*
X007884Y013415D02*
X007884Y013179D01*
X007596Y013179D02*
X007596Y013415D01*
X007124Y013415D02*
X007124Y013179D01*
X005918Y015000D02*
X005682Y015000D01*
X005682Y015473D02*
X005918Y015473D01*
X003466Y013585D02*
X003466Y013349D01*
X002994Y013349D02*
X002994Y013585D01*
X005282Y007800D02*
X005518Y007800D01*
X005518Y007633D02*
X005282Y007633D01*
X005282Y007160D02*
X005518Y007160D01*
X004268Y007003D02*
X004032Y007003D01*
X004032Y006530D02*
X004268Y006530D01*
X004532Y005673D02*
X004768Y005673D01*
X004768Y005200D02*
X004532Y005200D01*
D13*
X001550Y001737D02*
X001550Y001237D01*
X001800Y000987D01*
X002300Y000987D01*
X002550Y001237D01*
X002800Y000987D01*
X003300Y000987D01*
X003550Y001237D01*
X003800Y000987D01*
X004300Y000987D01*
X004550Y001237D01*
X004800Y000987D01*
X005300Y000987D01*
X005550Y001237D01*
X005800Y000987D01*
X006300Y000987D01*
X006550Y001237D01*
X006800Y000987D01*
X007300Y000987D01*
X007550Y001237D01*
X007800Y000987D01*
X008300Y000987D01*
X008550Y001237D01*
X008800Y000987D01*
X009300Y000987D01*
X009550Y001237D01*
X009800Y000987D01*
X010300Y000987D01*
X010550Y001237D01*
X010800Y000987D01*
X011300Y000987D01*
X011550Y001237D01*
X011800Y000987D01*
X012300Y000987D01*
X012550Y001237D01*
X012800Y000987D01*
X013300Y000987D01*
X013550Y001237D01*
X013800Y000987D01*
X014300Y000987D01*
X014550Y001237D01*
X014800Y000987D01*
X015300Y000987D01*
X015550Y001237D01*
X015800Y000987D01*
X016300Y000987D01*
X016550Y001237D01*
X016800Y000987D01*
X017300Y000987D01*
X017550Y001237D01*
X017550Y001737D01*
X017300Y001987D01*
X016800Y001987D01*
X016550Y001737D01*
X016300Y001987D01*
X015800Y001987D01*
X015550Y001737D01*
X015300Y001987D01*
X014800Y001987D01*
X014550Y001737D01*
X014300Y001987D01*
X013800Y001987D01*
X013550Y001737D01*
X013300Y001987D01*
X012800Y001987D01*
X012550Y001737D01*
X012300Y001987D01*
X011800Y001987D01*
X011550Y001737D01*
X011300Y001987D01*
X010800Y001987D01*
X010550Y001737D01*
X010300Y001987D01*
X009800Y001987D01*
X009550Y001737D01*
X009300Y001987D01*
X008800Y001987D01*
X008550Y001737D01*
X008300Y001987D01*
X007800Y001987D01*
X007550Y001737D01*
X007300Y001987D01*
X006800Y001987D01*
X006550Y001737D01*
X006300Y001987D01*
X005800Y001987D01*
X005550Y001737D01*
X005300Y001987D01*
X004800Y001987D01*
X004550Y001737D01*
X004300Y001987D01*
X003800Y001987D01*
X003550Y001737D01*
X003300Y001987D01*
X002800Y001987D01*
X002550Y001737D01*
X002300Y001987D01*
X001800Y001987D01*
X001550Y001737D01*
X001550Y001237D01*
X003679Y004652D02*
X003819Y004652D01*
X003889Y004722D01*
X004069Y004722D02*
X004069Y004862D01*
X004279Y004862D01*
X004349Y004792D01*
X004349Y004722D01*
X004279Y004652D01*
X004139Y004652D01*
X004069Y004722D01*
X004069Y004862D02*
X004209Y005002D01*
X004349Y005072D01*
X004530Y005002D02*
X004600Y005072D01*
X004740Y005072D01*
X004810Y005002D01*
X004530Y004722D01*
X004600Y004652D01*
X004740Y004652D01*
X004810Y004722D01*
X004810Y005002D01*
X004530Y005002D02*
X004530Y004722D01*
X003889Y005002D02*
X003819Y005072D01*
X003679Y005072D01*
X003609Y005002D01*
X003609Y004722D01*
X003679Y004652D01*
X002050Y005487D02*
X002050Y005987D01*
X001800Y006237D01*
X002050Y006487D01*
X002050Y006987D01*
X001800Y007237D01*
X002050Y007487D01*
X002050Y007987D01*
X001800Y008237D01*
X001300Y008237D01*
X001050Y007987D01*
X001050Y007487D01*
X001300Y007237D01*
X001050Y006987D01*
X001050Y006487D01*
X001300Y006237D01*
X001050Y005987D01*
X001050Y005487D01*
X001300Y005237D01*
X001800Y005237D01*
X002050Y005487D01*
X002660Y006925D02*
X002730Y006996D01*
X002730Y007066D01*
X002660Y007136D01*
X002310Y007136D01*
X002310Y007066D02*
X002310Y007206D01*
X002310Y007386D02*
X002310Y007596D01*
X002380Y007666D01*
X002520Y007666D01*
X002590Y007596D01*
X002590Y007386D01*
X002730Y007386D02*
X002310Y007386D01*
X002450Y007846D02*
X002310Y007986D01*
X002730Y007986D01*
X002730Y007846D02*
X002730Y008127D01*
X001760Y008316D02*
X001760Y008597D01*
X001760Y008456D02*
X001340Y008456D01*
X001480Y008316D01*
X003890Y007482D02*
X003890Y007202D01*
X003960Y007132D01*
X004100Y007132D01*
X004170Y007202D01*
X004350Y007202D02*
X004420Y007132D01*
X004561Y007132D01*
X004631Y007202D01*
X004631Y007342D01*
X004561Y007412D01*
X004491Y007412D01*
X004350Y007342D01*
X004350Y007552D01*
X004631Y007552D01*
X004639Y007602D02*
X004569Y007672D01*
X004429Y007672D01*
X004359Y007602D01*
X004359Y007322D01*
X004429Y007252D01*
X004569Y007252D01*
X004639Y007322D01*
X004811Y007272D02*
X004881Y007342D01*
X005021Y007342D01*
X005091Y007272D01*
X005091Y007202D01*
X005021Y007132D01*
X004881Y007132D01*
X004811Y007202D01*
X004811Y007272D01*
X004819Y007322D02*
X004889Y007252D01*
X005029Y007252D01*
X005099Y007322D01*
X005099Y007462D01*
X005029Y007532D01*
X004959Y007532D01*
X004819Y007462D01*
X004819Y007672D01*
X005099Y007672D01*
X005210Y007762D02*
X005350Y007762D01*
X005420Y007832D01*
X005490Y007672D02*
X005350Y007672D01*
X005280Y007602D01*
X005280Y007532D01*
X005350Y007462D01*
X005560Y007462D01*
X005560Y007602D02*
X005490Y007672D01*
X005560Y007602D02*
X005560Y007322D01*
X005490Y007252D01*
X005350Y007252D01*
X005280Y007322D01*
X005091Y007412D02*
X005021Y007342D01*
X005091Y007412D02*
X005091Y007482D01*
X005021Y007552D01*
X004881Y007552D01*
X004811Y007482D01*
X004811Y007412D01*
X004881Y007342D01*
X005210Y007762D02*
X005140Y007832D01*
X005140Y008112D01*
X005210Y008182D01*
X005350Y008182D01*
X005420Y008112D01*
X005600Y007972D02*
X005881Y007972D01*
X006061Y007972D02*
X006061Y007832D01*
X006131Y007762D01*
X006271Y007762D01*
X006341Y007832D01*
X006341Y007902D01*
X006271Y007972D01*
X006061Y007972D01*
X006201Y008112D01*
X006341Y008182D01*
X005811Y008182D02*
X005811Y007762D01*
X005600Y007972D02*
X005811Y008182D01*
X005811Y009302D02*
X005670Y009302D01*
X005600Y009372D01*
X005600Y009512D02*
X005741Y009582D01*
X005811Y009582D01*
X005881Y009512D01*
X005881Y009372D01*
X005811Y009302D01*
X005600Y009512D02*
X005600Y009722D01*
X005881Y009722D01*
X005811Y009952D02*
X005670Y009952D01*
X005600Y010022D01*
X005600Y010162D02*
X005741Y010232D01*
X005811Y010232D01*
X005881Y010162D01*
X005881Y010022D01*
X005811Y009952D01*
X006061Y010022D02*
X006131Y009952D01*
X006271Y009952D01*
X006341Y010022D01*
X006341Y010162D01*
X006271Y010232D01*
X006201Y010232D01*
X006061Y010162D01*
X006061Y010372D01*
X006341Y010372D01*
X006365Y010387D02*
X006365Y010247D01*
X006435Y010177D01*
X006715Y010177D01*
X006785Y010247D01*
X006785Y010387D01*
X006715Y010457D01*
X006575Y010637D02*
X006575Y010917D01*
X006785Y010847D02*
X006365Y010847D01*
X006575Y010637D01*
X006435Y010457D02*
X006365Y010387D01*
X005881Y010372D02*
X005600Y010372D01*
X005600Y010162D01*
X005420Y010302D02*
X005350Y010372D01*
X005210Y010372D01*
X005140Y010302D01*
X005140Y010022D01*
X005210Y009952D01*
X005350Y009952D01*
X005420Y010022D01*
X005350Y009722D02*
X005210Y009722D01*
X005140Y009652D01*
X005140Y009372D01*
X005210Y009302D01*
X005350Y009302D01*
X005420Y009372D01*
X005420Y009652D02*
X005350Y009722D01*
X006061Y009512D02*
X006341Y009512D01*
X006271Y009302D02*
X006271Y009722D01*
X006061Y009512D01*
X005270Y010482D02*
X005130Y010482D01*
X005060Y010552D01*
X005060Y010692D01*
X005270Y010692D01*
X005340Y010622D01*
X005340Y010552D01*
X005270Y010482D01*
X005060Y010692D02*
X005200Y010832D01*
X005340Y010902D01*
X004879Y010832D02*
X004809Y010902D01*
X004669Y010902D01*
X004599Y010832D01*
X004599Y010552D01*
X004669Y010482D01*
X004809Y010482D01*
X004879Y010552D01*
X006365Y011097D02*
X006365Y011378D01*
X006435Y011378D01*
X006715Y011097D01*
X006785Y011097D01*
X008365Y010456D02*
X008785Y010456D01*
X008785Y010316D02*
X008785Y010597D01*
X008505Y010316D02*
X008365Y010456D01*
X008365Y010136D02*
X008435Y009996D01*
X008575Y009856D01*
X008575Y010066D01*
X008645Y010136D01*
X008715Y010136D01*
X008785Y010066D01*
X008785Y009926D01*
X008715Y009856D01*
X008575Y009856D01*
X008715Y009676D02*
X008785Y009606D01*
X008785Y009466D01*
X008715Y009395D01*
X008435Y009395D01*
X008365Y009466D01*
X008365Y009606D01*
X008435Y009676D01*
X009365Y010247D02*
X009435Y010177D01*
X009715Y010177D01*
X009785Y010247D01*
X009785Y010387D01*
X009715Y010457D01*
X009715Y010526D02*
X009715Y010386D01*
X009785Y010316D01*
X009715Y010136D02*
X009785Y009996D01*
X009925Y009856D01*
X009925Y010066D01*
X009995Y010136D01*
X010065Y010136D01*
X010135Y010066D01*
X010135Y009926D01*
X010065Y009856D01*
X009925Y009856D01*
X010065Y009676D02*
X010135Y009606D01*
X010135Y009466D01*
X010065Y009395D01*
X009785Y009395D01*
X009715Y009466D01*
X009715Y009606D01*
X009785Y009676D01*
X009365Y010247D02*
X009365Y010387D01*
X009435Y010457D01*
X009575Y010637D02*
X009575Y010847D01*
X009645Y010917D01*
X009715Y010917D01*
X009785Y010847D01*
X009785Y010707D01*
X009715Y010637D01*
X009575Y010637D01*
X009435Y010777D01*
X009365Y010917D01*
X009435Y011097D02*
X009365Y011168D01*
X009365Y011308D01*
X009435Y011378D01*
X009505Y011378D01*
X009575Y011308D01*
X009645Y011378D01*
X009715Y011378D01*
X009785Y011308D01*
X009785Y011168D01*
X009715Y011097D01*
X009575Y011238D02*
X009575Y011308D01*
X009785Y010597D02*
X009715Y010526D01*
X009785Y010597D02*
X009855Y010597D01*
X010135Y010316D01*
X010135Y010597D01*
X010405Y010737D02*
X010405Y010877D01*
X010475Y010947D01*
X010405Y011127D02*
X010405Y011407D01*
X010475Y011407D01*
X010755Y011127D01*
X010825Y011127D01*
X010755Y010947D02*
X010825Y010877D01*
X010825Y010737D01*
X010755Y010667D01*
X010475Y010667D01*
X010405Y010737D01*
X010545Y011587D02*
X010405Y011728D01*
X010825Y011728D01*
X010825Y011868D02*
X010825Y011587D01*
X012195Y011016D02*
X012195Y010876D01*
X012265Y010806D01*
X012335Y010806D01*
X012405Y010876D01*
X012405Y011016D01*
X012475Y011087D01*
X012545Y011087D01*
X012615Y011016D01*
X012615Y010876D01*
X012545Y010806D01*
X012475Y010806D01*
X012405Y010876D01*
X012405Y011016D02*
X012335Y011087D01*
X012265Y011087D01*
X012195Y011016D01*
X012405Y010626D02*
X012405Y010346D01*
X012195Y010556D01*
X012615Y010556D01*
X012545Y010166D02*
X012615Y010096D01*
X012615Y009956D01*
X012545Y009885D01*
X012265Y009885D01*
X012195Y009956D01*
X012195Y010096D01*
X012265Y010166D01*
X012579Y009222D02*
X012509Y009152D01*
X012509Y008872D01*
X012579Y008802D01*
X012719Y008802D01*
X012789Y008872D01*
X012969Y008872D02*
X013039Y008802D01*
X013179Y008802D01*
X013249Y008872D01*
X013249Y009012D01*
X013179Y009082D01*
X013109Y009082D01*
X012969Y009012D01*
X012969Y009222D01*
X013249Y009222D01*
X013430Y009012D02*
X013640Y009012D01*
X013710Y008942D01*
X013710Y008872D01*
X013640Y008802D01*
X013500Y008802D01*
X013430Y008872D01*
X013430Y009012D01*
X013570Y009152D01*
X013710Y009222D01*
X013710Y008572D02*
X013430Y008572D01*
X013360Y008422D02*
X013290Y008352D01*
X013290Y008072D01*
X013360Y008002D01*
X013500Y008002D01*
X013570Y008072D01*
X013430Y008152D02*
X013430Y008222D01*
X013710Y008502D01*
X013710Y008572D01*
X013500Y008422D02*
X013360Y008422D01*
X013249Y008362D02*
X013249Y008222D01*
X013179Y008152D01*
X013039Y008152D01*
X012969Y008222D01*
X012969Y008362D02*
X013109Y008432D01*
X013179Y008432D01*
X013249Y008362D01*
X013249Y008572D02*
X012969Y008572D01*
X012969Y008362D01*
X012789Y008502D02*
X012719Y008572D01*
X012579Y008572D01*
X012509Y008502D01*
X012509Y008222D01*
X012579Y008152D01*
X012719Y008152D01*
X012789Y008222D01*
X013500Y008422D02*
X013570Y008352D01*
X013750Y008212D02*
X013961Y008212D01*
X014031Y008142D01*
X014031Y008072D01*
X013961Y008002D01*
X013820Y008002D01*
X013750Y008072D01*
X013750Y008212D01*
X013891Y008352D01*
X014031Y008422D01*
X014211Y008212D02*
X014491Y008212D01*
X014421Y008002D02*
X014421Y008422D01*
X014211Y008212D01*
X014995Y007496D02*
X015065Y007567D01*
X015135Y007567D01*
X015205Y007496D01*
X015275Y007567D01*
X015345Y007567D01*
X015415Y007496D01*
X015415Y007356D01*
X015345Y007286D01*
X015345Y007106D02*
X015415Y007036D01*
X015415Y006896D01*
X015345Y006826D01*
X015205Y006826D02*
X015135Y006966D01*
X015135Y007036D01*
X015205Y007106D01*
X015345Y007106D01*
X015205Y006826D02*
X014995Y006826D01*
X014995Y007106D01*
X015065Y007286D02*
X014995Y007356D01*
X014995Y007496D01*
X015205Y007496D02*
X015205Y007426D01*
X015345Y006646D02*
X015415Y006576D01*
X015415Y006436D01*
X015345Y006365D01*
X015065Y006365D01*
X014995Y006436D01*
X014995Y006576D01*
X015065Y006646D01*
X012789Y009152D02*
X012719Y009222D01*
X012579Y009222D01*
X013110Y012352D02*
X013250Y012352D01*
X013320Y012422D01*
X013500Y012422D02*
X013500Y012352D01*
X013500Y012422D02*
X013781Y012702D01*
X013781Y012772D01*
X013500Y012772D01*
X013320Y012702D02*
X013250Y012772D01*
X013110Y012772D01*
X013040Y012702D01*
X013040Y012422D01*
X013110Y012352D01*
X013050Y012487D02*
X012550Y012487D01*
X012300Y012737D01*
X012300Y013237D01*
X012550Y013487D01*
X013050Y013487D01*
X013300Y013237D01*
X013550Y013487D01*
X014050Y013487D01*
X014300Y013237D01*
X014550Y013487D01*
X015050Y013487D01*
X015300Y013237D01*
X015550Y013487D01*
X016050Y013487D01*
X016300Y013237D01*
X016550Y013487D01*
X017050Y013487D01*
X017300Y013237D01*
X017550Y013487D01*
X018050Y013487D01*
X018300Y013237D01*
X018300Y012737D01*
X018050Y012487D01*
X017550Y012487D01*
X017300Y012737D01*
X017050Y012487D01*
X016550Y012487D01*
X016300Y012737D01*
X016050Y012487D01*
X015550Y012487D01*
X015300Y012737D01*
X015050Y012487D01*
X014550Y012487D01*
X014300Y012737D01*
X014050Y012487D01*
X013550Y012487D01*
X013300Y012737D01*
X013050Y012487D01*
X013961Y012352D02*
X014241Y012632D01*
X014241Y012702D01*
X014171Y012772D01*
X014031Y012772D01*
X013961Y012702D01*
X013961Y012352D02*
X014241Y012352D01*
X015040Y012422D02*
X015110Y012352D01*
X015250Y012352D01*
X015320Y012422D01*
X015500Y012422D02*
X015500Y012352D01*
X015500Y012422D02*
X015781Y012702D01*
X015781Y012772D01*
X015500Y012772D01*
X015320Y012702D02*
X015250Y012772D01*
X015110Y012772D01*
X015040Y012702D01*
X015040Y012422D01*
X015961Y012562D02*
X016241Y012562D01*
X016171Y012352D02*
X016171Y012772D01*
X015961Y012562D01*
X017040Y012702D02*
X017040Y012422D01*
X017110Y012352D01*
X017250Y012352D01*
X017320Y012422D01*
X017500Y012422D02*
X017500Y012352D01*
X017500Y012422D02*
X017781Y012702D01*
X017781Y012772D01*
X017500Y012772D01*
X017320Y012702D02*
X017250Y012772D01*
X017110Y012772D01*
X017040Y012702D01*
X017129Y012227D02*
X017269Y012227D01*
X017199Y012227D02*
X017199Y011877D01*
X017129Y011807D01*
X017059Y011807D01*
X016989Y011877D01*
X017449Y011947D02*
X017659Y011947D01*
X017729Y012017D01*
X017729Y012157D01*
X017659Y012227D01*
X017449Y012227D01*
X017449Y011807D01*
X017910Y012017D02*
X018190Y012017D01*
X018120Y011807D02*
X018120Y012227D01*
X017910Y012017D01*
X018031Y012352D02*
X017961Y012422D01*
X018031Y012352D02*
X018171Y012352D01*
X018241Y012422D01*
X018241Y012492D01*
X018171Y012562D01*
X018101Y012562D01*
X018171Y012562D02*
X018241Y012632D01*
X018241Y012702D01*
X018171Y012772D01*
X018031Y012772D01*
X017961Y012702D01*
X017711Y014319D02*
X013144Y014319D01*
X013144Y014634D01*
X017711Y014634D01*
X017711Y014319D01*
X017711Y014634D02*
X017711Y017075D01*
X013144Y017075D01*
X013144Y014634D01*
X009945Y013707D02*
X009945Y013567D01*
X009875Y013497D01*
X009735Y013497D02*
X009665Y013637D01*
X009665Y013707D01*
X009735Y013777D01*
X009875Y013777D01*
X009945Y013707D01*
X009735Y013497D02*
X009525Y013497D01*
X009525Y013777D01*
X009215Y013707D02*
X008795Y013707D01*
X009005Y013497D01*
X009005Y013777D01*
X009145Y013317D02*
X009215Y013247D01*
X009215Y013107D01*
X009145Y013037D01*
X008865Y013037D01*
X008795Y013107D01*
X008795Y013247D01*
X008865Y013317D01*
X008475Y013247D02*
X008475Y013107D01*
X008405Y013037D01*
X008125Y013037D01*
X008055Y013107D01*
X008055Y013247D01*
X008125Y013317D01*
X008125Y013497D02*
X008055Y013567D01*
X008055Y013707D01*
X008125Y013777D01*
X008195Y013777D01*
X008265Y013707D01*
X008335Y013777D01*
X008405Y013777D01*
X008475Y013707D01*
X008475Y013567D01*
X008405Y013497D01*
X008405Y013317D02*
X008475Y013247D01*
X008265Y013637D02*
X008265Y013707D01*
X007755Y013777D02*
X007755Y013497D01*
X007475Y013777D01*
X007405Y013777D01*
X007335Y013707D01*
X007335Y013567D01*
X007405Y013497D01*
X007405Y013317D02*
X007335Y013247D01*
X007335Y013107D01*
X007405Y013037D01*
X007685Y013037D01*
X007755Y013107D01*
X007755Y013247D01*
X007685Y013317D01*
X006995Y013247D02*
X006995Y013107D01*
X006925Y013037D01*
X006645Y013037D01*
X006575Y013107D01*
X006575Y013247D01*
X006645Y013317D01*
X006715Y013497D02*
X006575Y013637D01*
X006995Y013637D01*
X006995Y013497D02*
X006995Y013777D01*
X006925Y013317D02*
X006995Y013247D01*
X009525Y013247D02*
X009525Y013107D01*
X009595Y013037D01*
X009875Y013037D01*
X009945Y013107D01*
X009945Y013247D01*
X009875Y013317D01*
X009595Y013317D02*
X009525Y013247D01*
X006281Y015952D02*
X006281Y016022D01*
X006000Y016022D01*
X005820Y015952D02*
X005750Y016022D01*
X005610Y016022D01*
X005540Y015952D01*
X005540Y015672D01*
X005610Y015602D01*
X005750Y015602D01*
X005820Y015672D01*
X006000Y015672D02*
X006000Y015602D01*
X006000Y015672D02*
X006281Y015952D01*
X006410Y016527D02*
X006340Y016597D01*
X006340Y016947D01*
X006620Y016947D02*
X006620Y016597D01*
X006550Y016527D01*
X006410Y016527D01*
X006800Y016527D02*
X007081Y016807D01*
X007081Y016877D01*
X007011Y016947D01*
X006870Y016947D01*
X006800Y016877D01*
X006800Y016527D02*
X007081Y016527D01*
X003860Y016376D02*
X003860Y016236D01*
X003790Y016166D01*
X003790Y015986D02*
X003860Y015916D01*
X003860Y015776D01*
X003790Y015706D01*
X003790Y015526D02*
X003860Y015456D01*
X003860Y015316D01*
X003790Y015245D01*
X003510Y015245D01*
X003440Y015316D01*
X003440Y015456D01*
X003510Y015526D01*
X003510Y015706D02*
X003440Y015776D01*
X003440Y015916D01*
X003510Y015986D01*
X003580Y015986D01*
X003650Y015916D01*
X003720Y015986D01*
X003790Y015986D01*
X003650Y015916D02*
X003650Y015846D01*
X003510Y016166D02*
X003440Y016236D01*
X003440Y016376D01*
X003510Y016447D01*
X003580Y016447D01*
X003650Y016376D01*
X003720Y016447D01*
X003790Y016447D01*
X003860Y016376D01*
X003650Y016376D02*
X003650Y016306D01*
X002850Y016537D02*
X002850Y016937D01*
X001316Y016237D02*
X001318Y016299D01*
X001324Y016362D01*
X001334Y016423D01*
X001348Y016484D01*
X001365Y016544D01*
X001386Y016603D01*
X001412Y016660D01*
X001440Y016715D01*
X001472Y016769D01*
X001508Y016820D01*
X001546Y016870D01*
X001588Y016916D01*
X001632Y016960D01*
X001680Y017001D01*
X001729Y017039D01*
X001781Y017073D01*
X001835Y017104D01*
X001891Y017132D01*
X001949Y017156D01*
X002008Y017177D01*
X002068Y017193D01*
X002129Y017206D01*
X002191Y017215D01*
X002253Y017220D01*
X002316Y017221D01*
X002378Y017218D01*
X002440Y017211D01*
X002502Y017200D01*
X002562Y017185D01*
X002622Y017167D01*
X002680Y017145D01*
X002737Y017119D01*
X002792Y017089D01*
X002845Y017056D01*
X002896Y017020D01*
X002944Y016981D01*
X002990Y016938D01*
X003033Y016893D01*
X003073Y016845D01*
X003110Y016795D01*
X003144Y016742D01*
X003175Y016688D01*
X003201Y016632D01*
X003225Y016574D01*
X003244Y016514D01*
X003260Y016454D01*
X003272Y016392D01*
X003280Y016331D01*
X003284Y016268D01*
X003284Y016206D01*
X003280Y016143D01*
X003272Y016082D01*
X003260Y016020D01*
X003244Y015960D01*
X003225Y015900D01*
X003201Y015842D01*
X003175Y015786D01*
X003144Y015732D01*
X003110Y015679D01*
X003073Y015629D01*
X003033Y015581D01*
X002990Y015536D01*
X002944Y015493D01*
X002896Y015454D01*
X002845Y015418D01*
X002792Y015385D01*
X002737Y015355D01*
X002680Y015329D01*
X002622Y015307D01*
X002562Y015289D01*
X002502Y015274D01*
X002440Y015263D01*
X002378Y015256D01*
X002316Y015253D01*
X002253Y015254D01*
X002191Y015259D01*
X002129Y015268D01*
X002068Y015281D01*
X002008Y015297D01*
X001949Y015318D01*
X001891Y015342D01*
X001835Y015370D01*
X001781Y015401D01*
X001729Y015435D01*
X001680Y015473D01*
X001632Y015514D01*
X001588Y015558D01*
X001546Y015604D01*
X001508Y015654D01*
X001472Y015705D01*
X001440Y015759D01*
X001412Y015814D01*
X001386Y015871D01*
X001365Y015930D01*
X001348Y015990D01*
X001334Y016051D01*
X001324Y016112D01*
X001318Y016175D01*
X001316Y016237D01*
X002515Y014408D02*
X002585Y014408D01*
X002655Y014338D01*
X002655Y014198D01*
X002585Y014127D01*
X002515Y014127D01*
X002445Y014198D01*
X002445Y014338D01*
X002515Y014408D01*
X002655Y014338D02*
X002725Y014408D01*
X002795Y014408D01*
X002865Y014338D01*
X002865Y014198D01*
X002795Y014127D01*
X002725Y014127D01*
X002655Y014198D01*
X002585Y013947D02*
X002515Y013947D01*
X002445Y013877D01*
X002445Y013737D01*
X002515Y013667D01*
X002515Y013487D02*
X002445Y013417D01*
X002445Y013277D01*
X002515Y013207D01*
X002795Y013207D01*
X002865Y013277D01*
X002865Y013417D01*
X002795Y013487D01*
X002865Y013667D02*
X002585Y013947D01*
X002865Y013947D02*
X002865Y013667D01*
X002050Y013487D02*
X001800Y013237D01*
X002050Y012987D01*
X002050Y012487D01*
X001800Y012237D01*
X002050Y011987D01*
X002050Y011487D01*
X001800Y011237D01*
X001300Y011237D01*
X001050Y011487D01*
X001050Y011987D01*
X001300Y012237D01*
X001050Y012487D01*
X001050Y012987D01*
X001300Y013237D01*
X001050Y013487D01*
X001050Y013987D01*
X001300Y014237D01*
X001800Y014237D01*
X002050Y013987D01*
X002050Y013487D01*
X000790Y012378D02*
X000720Y012448D01*
X000580Y012448D01*
X000510Y012378D01*
X000510Y012308D01*
X000580Y012167D01*
X000370Y012167D01*
X000370Y012448D01*
X000790Y012378D02*
X000790Y012238D01*
X000720Y012167D01*
X000580Y011987D02*
X000650Y011917D01*
X000650Y011707D01*
X000790Y011707D02*
X000370Y011707D01*
X000370Y011917D01*
X000440Y011987D01*
X000580Y011987D01*
X000370Y011527D02*
X000370Y011387D01*
X000370Y011457D02*
X000720Y011457D01*
X000790Y011387D01*
X000790Y011317D01*
X000720Y011247D01*
X001340Y010917D02*
X001760Y010917D01*
X001760Y010777D02*
X001760Y011057D01*
X001480Y010777D02*
X001340Y010917D01*
X003960Y007552D02*
X003890Y007482D01*
X003960Y007552D02*
X004100Y007552D01*
X004170Y007482D01*
X017550Y001737D02*
X017550Y001237D01*
X018550Y001237D02*
X018550Y001737D01*
X018800Y001987D01*
X018550Y002237D01*
X018550Y002737D01*
X018800Y002987D01*
X018550Y003237D01*
X018550Y003737D01*
X018800Y003987D01*
X018550Y004237D01*
X018550Y004737D01*
X018800Y004987D01*
X018550Y005237D01*
X018550Y005737D01*
X018800Y005987D01*
X018550Y006237D01*
X018550Y006737D01*
X018800Y006987D01*
X019300Y006987D01*
X019550Y006737D01*
X019550Y006237D01*
X019300Y005987D01*
X019550Y005737D01*
X019550Y005237D01*
X019300Y004987D01*
X019550Y004737D01*
X019550Y004237D01*
X019300Y003987D01*
X019550Y003737D01*
X019550Y003237D01*
X019300Y002987D01*
X019550Y002737D01*
X019550Y002237D01*
X019300Y001987D01*
X019550Y001737D01*
X019550Y001237D01*
X019300Y000987D01*
X018800Y000987D01*
X018550Y001237D01*
X020160Y005675D02*
X020230Y005746D01*
X020230Y005816D01*
X020160Y005886D01*
X019810Y005886D01*
X019810Y005816D02*
X019810Y005956D01*
X019810Y006136D02*
X019810Y006346D01*
X019880Y006416D01*
X020020Y006416D01*
X020090Y006346D01*
X020090Y006136D01*
X020230Y006136D02*
X019810Y006136D01*
X019880Y006596D02*
X019810Y006666D01*
X019810Y006806D01*
X019880Y006877D01*
X019950Y006877D01*
X020230Y006596D01*
X020230Y006877D01*
D14*
X017295Y000742D02*
X017295Y000292D01*
X017145Y000292D02*
X017445Y000292D01*
X017145Y000592D02*
X017295Y000742D01*
X016984Y000742D02*
X016834Y000742D01*
X016909Y000742D02*
X016909Y000367D01*
X016834Y000292D01*
X016759Y000292D01*
X016684Y000367D01*
X005875Y015587D02*
X004225Y015587D01*
X004163Y016137D02*
X004005Y016137D01*
X004937Y016137D02*
X005163Y016137D01*
X004225Y015587D02*
X004190Y015635D01*
X004157Y015685D01*
X004126Y015737D01*
X004099Y015791D01*
X004075Y015846D01*
X004055Y015903D01*
X004037Y015960D01*
X004023Y016018D01*
X004012Y016077D01*
X004005Y016137D01*
X005360Y017240D02*
X005420Y017220D01*
X005479Y017196D01*
X005536Y017168D01*
X005591Y017137D01*
X005645Y017102D01*
X005696Y017065D01*
X005745Y017024D01*
X005791Y016980D01*
X005835Y016934D01*
X005876Y016885D01*
X005914Y016834D01*
X005948Y016781D01*
X005980Y016725D01*
X006007Y016668D01*
X006032Y016609D01*
X006052Y016549D01*
X006070Y016488D01*
X006083Y016426D01*
X006092Y016363D01*
X006098Y016300D01*
X006100Y016236D01*
X006098Y016172D01*
X006092Y016109D01*
X006083Y016046D01*
X006069Y015984D01*
X006052Y015923D01*
X006031Y015863D01*
X006007Y015804D01*
X005979Y015747D01*
X005947Y015691D01*
X005912Y015638D01*
X005875Y015587D01*
X005937Y016137D02*
X006095Y016137D01*
X004740Y017240D02*
X004681Y017220D01*
X004624Y017197D01*
X004567Y017170D01*
X004513Y017139D01*
X004460Y017106D01*
X004410Y017069D01*
X004361Y017030D01*
X004316Y016987D01*
X004272Y016942D01*
X004232Y016895D01*
X004194Y016845D01*
X004159Y016793D01*
X004128Y016739D01*
X004100Y016684D01*
X004075Y016627D01*
X004054Y016568D01*
X004036Y016508D01*
X004021Y016447D01*
X004011Y016386D01*
X004004Y016324D01*
X004000Y016262D01*
X004001Y016199D01*
X004005Y016137D01*
D15*
X013555Y016767D02*
X013580Y016742D01*
X013605Y016742D01*
X013630Y016767D01*
X013630Y016892D01*
X013605Y016892D02*
X013655Y016892D01*
X013702Y016892D02*
X013777Y016892D01*
X013802Y016867D01*
X013802Y016817D01*
X013777Y016792D01*
X013702Y016792D01*
X013702Y016742D02*
X013702Y016892D01*
X013850Y016867D02*
X013875Y016892D01*
X013925Y016892D01*
X013950Y016867D01*
X013950Y016842D01*
X013925Y016817D01*
X013950Y016792D01*
X013950Y016767D01*
X013925Y016742D01*
X013875Y016742D01*
X013850Y016767D01*
X013900Y016817D02*
X013925Y016817D01*
M02*
