G75*
G70*
%OFA0B0*%
%FSLAX24Y24*%
%IPPOS*%
%LPD*%
%AMOC8*
5,1,8,0,0,1.08239X$1,22.5*
%
%ADD10R,0.0740X0.0190*%
%ADD11R,0.0190X0.0740*%
%ADD12R,0.0470X0.0220*%
%ADD13R,0.0220X0.0470*%
%ADD14R,0.1320X0.1320*%
%ADD15R,0.0552X0.0395*%
%ADD16R,0.0730X0.0730*%
%ADD17C,0.0730*%
%ADD18R,0.0395X0.0552*%
%ADD19C,0.0820*%
%ADD20R,0.0880X0.0880*%
%ADD21C,0.0880*%
%ADD22OC8,0.0600*%
%ADD23R,0.0476X0.0476*%
D10*
X007340Y005007D03*
X007340Y005207D03*
X007340Y005407D03*
X007340Y005597D03*
X007340Y005797D03*
X007340Y005997D03*
X007340Y006187D03*
X007340Y006387D03*
X007340Y006587D03*
X007340Y006787D03*
X007340Y006977D03*
X007340Y007177D03*
X007340Y007377D03*
X007340Y007567D03*
X007340Y007767D03*
X007340Y007967D03*
X011760Y007967D03*
X011760Y007767D03*
X011760Y007567D03*
X011760Y007377D03*
X011760Y007177D03*
X011760Y006977D03*
X011760Y006787D03*
X011760Y006587D03*
X011760Y006387D03*
X011760Y006187D03*
X011760Y005997D03*
X011760Y005797D03*
X011760Y005597D03*
X011760Y005407D03*
X011760Y005207D03*
X011760Y005007D03*
D11*
X011030Y004277D03*
X010830Y004277D03*
X010630Y004277D03*
X010440Y004277D03*
X010240Y004277D03*
X010040Y004277D03*
X009850Y004277D03*
X009650Y004277D03*
X009450Y004277D03*
X009250Y004277D03*
X009060Y004277D03*
X008860Y004277D03*
X008660Y004277D03*
X008470Y004277D03*
X008270Y004277D03*
X008070Y004277D03*
X008070Y008697D03*
X008270Y008697D03*
X008470Y008697D03*
X008660Y008697D03*
X008860Y008697D03*
X009060Y008697D03*
X009250Y008697D03*
X009450Y008697D03*
X009650Y008697D03*
X009850Y008697D03*
X010040Y008697D03*
X010240Y008697D03*
X010440Y008697D03*
X010630Y008697D03*
X010830Y008697D03*
X011030Y008697D03*
D12*
X005990Y012727D03*
X005990Y012977D03*
X005990Y013237D03*
X005990Y013497D03*
X005990Y013747D03*
X004110Y013747D03*
X004110Y013497D03*
X004110Y013237D03*
X004110Y012977D03*
X004110Y012727D03*
D13*
X004540Y012297D03*
X004790Y012297D03*
X005050Y012297D03*
X005310Y012297D03*
X005560Y012297D03*
X005560Y014177D03*
X005310Y014177D03*
X005050Y014177D03*
X004790Y014177D03*
X004540Y014177D03*
D14*
X005050Y013237D03*
D15*
X003230Y013112D03*
X003230Y013821D03*
X007150Y010791D03*
X007150Y010082D03*
X008000Y010082D03*
X008000Y010791D03*
X009350Y010791D03*
X009350Y010082D03*
X010150Y010082D03*
X010150Y010791D03*
X011190Y010572D03*
X011830Y010572D03*
X011830Y011281D03*
X011190Y011281D03*
X010310Y012942D03*
X010310Y013651D03*
X009580Y013651D03*
X008840Y013651D03*
X008840Y012942D03*
X009580Y012942D03*
X008120Y012942D03*
X008120Y013651D03*
X007360Y013651D03*
X007360Y012942D03*
X014630Y007761D03*
X014630Y007052D03*
D16*
X002300Y015737D03*
D17*
X002300Y016737D03*
D18*
X005446Y015237D03*
X006154Y015237D03*
X005534Y011267D03*
X004826Y011267D03*
X005046Y009587D03*
X005046Y008937D03*
X005754Y008937D03*
X005754Y009587D03*
X005754Y008037D03*
X005754Y007397D03*
X005046Y007397D03*
X005046Y008037D03*
X004504Y006767D03*
X003796Y006767D03*
X004296Y005437D03*
X005004Y005437D03*
X012946Y011987D03*
X013654Y011987D03*
X014946Y011987D03*
X015654Y011987D03*
X016946Y011987D03*
X017654Y011987D03*
X013904Y009587D03*
X013196Y009587D03*
X013196Y008937D03*
X013904Y008937D03*
X013904Y007637D03*
X013196Y007637D03*
D19*
X002050Y001487D03*
X003050Y001487D03*
X004050Y001487D03*
X005050Y001487D03*
X006050Y001487D03*
X007050Y001487D03*
X008050Y001487D03*
X009050Y001487D03*
X010050Y001487D03*
X011050Y001487D03*
X012050Y001487D03*
X013050Y001487D03*
X014050Y001487D03*
X015050Y001487D03*
X016050Y001487D03*
X017050Y001487D03*
X019050Y001487D03*
X019050Y002487D03*
X019050Y003487D03*
X019050Y004487D03*
X019050Y005487D03*
X019050Y006487D03*
X017800Y012987D03*
X016800Y012987D03*
X015800Y012987D03*
X014800Y012987D03*
X013800Y012987D03*
X012800Y012987D03*
X001550Y012737D03*
X001550Y011737D03*
X001550Y013737D03*
X001550Y007737D03*
X001550Y006737D03*
X001550Y005737D03*
D20*
X013980Y015737D03*
D21*
X015428Y015737D03*
X016876Y015737D03*
D22*
X005550Y016237D03*
X005050Y016987D03*
X004550Y016237D03*
D23*
X007550Y011487D03*
X009800Y011237D03*
X012050Y008737D03*
X013300Y010487D03*
X016800Y009987D03*
X017300Y006987D03*
X018050Y006987D03*
X018050Y006237D03*
X017300Y006237D03*
X016550Y006237D03*
X016050Y006987D03*
X014050Y004487D03*
X012050Y003987D03*
X009550Y003577D03*
X007050Y003987D03*
X005800Y004737D03*
X005620Y005407D03*
X005050Y004737D03*
X004300Y004737D03*
X003550Y004737D03*
X003550Y005417D03*
X002800Y005417D03*
X002800Y004737D03*
X002050Y004737D03*
X001300Y004737D03*
X001300Y003737D03*
X004550Y007487D03*
X004690Y008577D03*
X003550Y008667D03*
X001300Y008917D03*
X001300Y009667D03*
X001300Y010417D03*
X007050Y008737D03*
M02*
