G75*
G70*
%OFA0B0*%
%FSLAX24Y24*%
%IPPOS*%
%LPD*%
%AMOC8*
5,1,8,0,0,1.08239X$1,22.5*
%
%ADD10R,0.0650X0.0650*%
%ADD11C,0.0650*%
%ADD12C,0.0740*%
%ADD13R,0.0800X0.0800*%
%ADD14C,0.0800*%
%ADD15OC8,0.0520*%
%ADD16R,0.0396X0.0396*%
%ADD17C,0.0100*%
D10*
X002300Y015737D03*
D11*
X002300Y016737D03*
D12*
X001550Y013737D03*
X001550Y012737D03*
X001550Y011737D03*
X001550Y007737D03*
X001550Y006737D03*
X001550Y005737D03*
X002050Y001487D03*
X003050Y001487D03*
X004050Y001487D03*
X005050Y001487D03*
X006050Y001487D03*
X007050Y001487D03*
X008050Y001487D03*
X009050Y001487D03*
X010050Y001487D03*
X011050Y001487D03*
X012050Y001487D03*
X013050Y001487D03*
X014050Y001487D03*
X015050Y001487D03*
X016050Y001487D03*
X017050Y001487D03*
X019050Y001487D03*
X019050Y002487D03*
X019050Y003487D03*
X019050Y004487D03*
X019050Y005487D03*
X019050Y006487D03*
X017800Y012987D03*
X016800Y012987D03*
X015800Y012987D03*
X014800Y012987D03*
X013800Y012987D03*
X012800Y012987D03*
D13*
X013980Y015737D03*
D14*
X015428Y015737D03*
X016876Y015737D03*
D15*
X005550Y016237D03*
X005050Y016987D03*
X004550Y016237D03*
D16*
X007550Y011487D03*
X009800Y011237D03*
X012050Y008737D03*
X013300Y010487D03*
X016800Y009987D03*
X017300Y006987D03*
X018050Y006987D03*
X018050Y006237D03*
X017300Y006237D03*
X016550Y006237D03*
X016050Y006987D03*
X014050Y004487D03*
X012050Y003987D03*
X009550Y003577D03*
X007050Y003987D03*
X005800Y004737D03*
X005620Y005407D03*
X005050Y004737D03*
X004300Y004737D03*
X003550Y004737D03*
X003550Y005417D03*
X002800Y005417D03*
X002800Y004737D03*
X002050Y004737D03*
X001300Y004737D03*
X001300Y003737D03*
X004550Y007487D03*
X004690Y008577D03*
X003550Y008667D03*
X001300Y008917D03*
X001300Y009667D03*
X001300Y010417D03*
X007050Y008737D03*
D17*
X001000Y003343D02*
X001000Y000937D01*
X001862Y000937D01*
X001721Y000995D01*
X001558Y001158D01*
X001470Y001371D01*
X001470Y001602D01*
X001558Y001815D01*
X001721Y001978D01*
X001935Y002067D01*
X002165Y002067D01*
X002379Y001978D01*
X002542Y001815D01*
X002550Y001795D01*
X002558Y001815D01*
X002721Y001978D01*
X002935Y002067D01*
X003165Y002067D01*
X003379Y001978D01*
X003542Y001815D01*
X003550Y001795D01*
X003558Y001815D01*
X003721Y001978D01*
X003935Y002067D01*
X004165Y002067D01*
X004379Y001978D01*
X004542Y001815D01*
X004550Y001795D01*
X004558Y001815D01*
X004721Y001978D01*
X004935Y002067D01*
X005165Y002067D01*
X005379Y001978D01*
X005542Y001815D01*
X005550Y001795D01*
X005558Y001815D01*
X005721Y001978D01*
X005935Y002067D01*
X006165Y002067D01*
X006379Y001978D01*
X006542Y001815D01*
X006550Y001795D01*
X006558Y001815D01*
X006721Y001978D01*
X006935Y002067D01*
X007165Y002067D01*
X007379Y001978D01*
X007542Y001815D01*
X007550Y001795D01*
X007558Y001815D01*
X007721Y001978D01*
X007935Y002067D01*
X008165Y002067D01*
X008379Y001978D01*
X008542Y001815D01*
X008550Y001795D01*
X008558Y001815D01*
X008721Y001978D01*
X008935Y002067D01*
X009165Y002067D01*
X009379Y001978D01*
X009542Y001815D01*
X009550Y001795D01*
X009558Y001815D01*
X009721Y001978D01*
X009935Y002067D01*
X010165Y002067D01*
X010379Y001978D01*
X010542Y001815D01*
X010550Y001795D01*
X010558Y001815D01*
X010721Y001978D01*
X010935Y002067D01*
X011165Y002067D01*
X011379Y001978D01*
X011542Y001815D01*
X011550Y001795D01*
X011558Y001815D01*
X011721Y001978D01*
X011935Y002067D01*
X012165Y002067D01*
X012379Y001978D01*
X012542Y001815D01*
X012550Y001795D01*
X012558Y001815D01*
X012721Y001978D01*
X012935Y002067D01*
X013165Y002067D01*
X013379Y001978D01*
X013542Y001815D01*
X013550Y001795D01*
X013558Y001815D01*
X013721Y001978D01*
X013935Y002067D01*
X014165Y002067D01*
X014379Y001978D01*
X014542Y001815D01*
X014550Y001795D01*
X014558Y001815D01*
X014721Y001978D01*
X014935Y002067D01*
X015165Y002067D01*
X015379Y001978D01*
X015542Y001815D01*
X015550Y001795D01*
X015558Y001815D01*
X015721Y001978D01*
X015935Y002067D01*
X016165Y002067D01*
X016379Y001978D01*
X016542Y001815D01*
X016550Y001795D01*
X016558Y001815D01*
X016721Y001978D01*
X016935Y002067D01*
X017165Y002067D01*
X017379Y001978D01*
X017542Y001815D01*
X017630Y001602D01*
X017630Y001371D01*
X017542Y001158D01*
X017379Y000995D01*
X017238Y000937D01*
X018862Y000937D01*
X018721Y000995D01*
X018558Y001158D01*
X018470Y001371D01*
X018470Y001602D01*
X018558Y001815D01*
X018721Y001978D01*
X018741Y001987D01*
X018721Y001995D01*
X018558Y002158D01*
X018470Y002371D01*
X018470Y002602D01*
X018558Y002815D01*
X018721Y002978D01*
X018741Y002987D01*
X018721Y002995D01*
X018558Y003158D01*
X018470Y003371D01*
X018470Y003602D01*
X018558Y003815D01*
X018721Y003978D01*
X018741Y003987D01*
X018721Y003995D01*
X018558Y004158D01*
X018470Y004371D01*
X018470Y004602D01*
X018558Y004815D01*
X018721Y004978D01*
X018741Y004987D01*
X018721Y004995D01*
X018558Y005158D01*
X018470Y005371D01*
X018470Y005602D01*
X018558Y005815D01*
X018721Y005978D01*
X018935Y006067D01*
X019165Y006067D01*
X019342Y005993D01*
X019342Y017407D01*
X001000Y017407D01*
X001000Y012924D01*
X001058Y013065D01*
X001221Y013228D01*
X001435Y013317D01*
X001665Y013317D01*
X001879Y013228D01*
X002042Y013065D01*
X002130Y012852D01*
X002130Y012621D01*
X002042Y012408D01*
X001879Y012245D01*
X001859Y012237D01*
X001879Y012228D01*
X002042Y012065D01*
X002070Y011997D01*
X006442Y011997D01*
X006830Y012384D01*
X006903Y012457D01*
X006998Y012497D01*
X011602Y012497D01*
X011697Y012457D01*
X013260Y010895D01*
X013585Y010895D01*
X013708Y010772D01*
X013708Y010202D01*
X013585Y010079D01*
X013015Y010079D01*
X012892Y010202D01*
X012892Y010527D01*
X011442Y011977D01*
X007158Y011977D01*
X006697Y011516D01*
X006602Y011477D01*
X002070Y011477D01*
X002042Y011408D01*
X001879Y011245D01*
X001665Y011157D01*
X001435Y011157D01*
X001221Y011245D01*
X001058Y011408D01*
X001000Y011549D01*
X001000Y007924D01*
X001058Y008065D01*
X001221Y008228D01*
X001435Y008317D01*
X001665Y008317D01*
X001879Y008228D01*
X002042Y008065D01*
X002130Y007852D01*
X002130Y007621D01*
X002042Y007408D01*
X001879Y007245D01*
X001859Y007237D01*
X001879Y007228D01*
X002042Y007065D01*
X002130Y006852D01*
X002130Y006621D01*
X002042Y006408D01*
X001879Y006245D01*
X001859Y006237D01*
X001879Y006228D01*
X002042Y006065D01*
X002130Y005852D01*
X002130Y005621D01*
X002042Y005408D01*
X001879Y005245D01*
X001665Y005157D01*
X001435Y005157D01*
X001221Y005245D01*
X001058Y005408D01*
X001000Y005549D01*
X001000Y004130D01*
X001015Y004145D01*
X001585Y004145D01*
X001708Y004022D01*
X001708Y003997D01*
X005442Y003997D01*
X006330Y004884D01*
X006403Y004957D01*
X006498Y004997D01*
X006540Y004997D01*
X006540Y006629D01*
X005942Y007227D01*
X004958Y007227D01*
X004958Y007202D01*
X004835Y007079D01*
X004310Y007079D01*
X004310Y006094D01*
X004738Y005667D01*
X005212Y005667D01*
X005212Y005692D01*
X005335Y005815D01*
X005905Y005815D01*
X006028Y005692D01*
X006028Y005122D01*
X005905Y004999D01*
X005335Y004999D01*
X005212Y005122D01*
X005212Y005147D01*
X004578Y005147D01*
X004483Y005186D01*
X004410Y005259D01*
X003830Y005839D01*
X003790Y005935D01*
X003790Y007788D01*
X003830Y007884D01*
X003903Y007957D01*
X004282Y008336D01*
X004282Y008862D01*
X004405Y008985D01*
X004430Y008985D01*
X004430Y009678D01*
X004470Y009774D01*
X004830Y010134D01*
X004903Y010207D01*
X004998Y010247D01*
X005942Y010247D01*
X007142Y011446D01*
X007142Y011772D01*
X007265Y011895D01*
X007835Y011895D01*
X007958Y011772D01*
X007958Y011202D01*
X007835Y011079D01*
X007510Y011079D01*
X006197Y009766D01*
X006102Y009727D01*
X005158Y009727D01*
X004950Y009519D01*
X004950Y008985D01*
X004975Y008985D01*
X005098Y008862D01*
X005098Y008292D01*
X004975Y008169D01*
X004850Y008169D01*
X004576Y007895D01*
X004835Y007895D01*
X004958Y007772D01*
X004958Y007747D01*
X006102Y007747D01*
X006197Y007707D01*
X006270Y007634D01*
X006270Y007634D01*
X006947Y006957D01*
X006947Y006957D01*
X007020Y006884D01*
X007060Y006788D01*
X007060Y005094D01*
X007158Y004997D01*
X008442Y004997D01*
X008537Y004957D01*
X009510Y003985D01*
X009590Y003985D01*
X010813Y005207D01*
X010908Y005247D01*
X013192Y005247D01*
X015153Y007207D01*
X015248Y007247D01*
X015642Y007247D01*
X015642Y007272D01*
X015765Y007395D01*
X016335Y007395D01*
X016458Y007272D01*
X016458Y006702D01*
X016335Y006579D01*
X015765Y006579D01*
X015642Y006702D01*
X015642Y006727D01*
X015408Y006727D01*
X013520Y004839D01*
X013447Y004766D01*
X013352Y004727D01*
X011068Y004727D01*
X009958Y003617D01*
X009958Y003292D01*
X009835Y003169D01*
X009265Y003169D01*
X009142Y003292D01*
X009142Y003617D01*
X008282Y004477D01*
X006658Y004477D01*
X005697Y003516D01*
X005602Y003477D01*
X001708Y003477D01*
X001708Y003452D01*
X001585Y003329D01*
X001015Y003329D01*
X001000Y003343D01*
X001000Y003343D01*
X001000Y003245D02*
X009189Y003245D01*
X009142Y003343D02*
X001600Y003343D01*
X001698Y003442D02*
X009142Y003442D01*
X009142Y003540D02*
X005721Y003540D01*
X005820Y003639D02*
X009120Y003639D01*
X009022Y003737D02*
X005918Y003737D01*
X006017Y003836D02*
X008923Y003836D01*
X008825Y003934D02*
X006115Y003934D01*
X006214Y004033D02*
X008726Y004033D01*
X008628Y004131D02*
X006312Y004131D01*
X006411Y004230D02*
X008529Y004230D01*
X008431Y004328D02*
X006509Y004328D01*
X006608Y004427D02*
X008332Y004427D01*
X008390Y004737D02*
X009550Y003577D01*
X010960Y004987D01*
X013300Y004987D01*
X015300Y006987D01*
X016050Y006987D01*
X016458Y006988D02*
X019342Y006988D01*
X019342Y007086D02*
X016458Y007086D01*
X016458Y007185D02*
X019342Y007185D01*
X019342Y007283D02*
X016447Y007283D01*
X016348Y007382D02*
X019342Y007382D01*
X019342Y007480D02*
X006424Y007480D01*
X006523Y007382D02*
X015752Y007382D01*
X015653Y007283D02*
X006621Y007283D01*
X006720Y007185D02*
X015130Y007185D01*
X015032Y007086D02*
X006818Y007086D01*
X006917Y006988D02*
X014933Y006988D01*
X014835Y006889D02*
X007015Y006889D01*
X007059Y006791D02*
X014736Y006791D01*
X014638Y006692D02*
X007060Y006692D01*
X007060Y006594D02*
X014539Y006594D01*
X014441Y006495D02*
X007060Y006495D01*
X007060Y006397D02*
X014342Y006397D01*
X014244Y006298D02*
X007060Y006298D01*
X007060Y006200D02*
X014145Y006200D01*
X014047Y006101D02*
X007060Y006101D01*
X007060Y006003D02*
X013948Y006003D01*
X013850Y005904D02*
X007060Y005904D01*
X007060Y005806D02*
X013751Y005806D01*
X013653Y005707D02*
X007060Y005707D01*
X007060Y005609D02*
X013554Y005609D01*
X013456Y005510D02*
X007060Y005510D01*
X007060Y005412D02*
X013357Y005412D01*
X013259Y005313D02*
X007060Y005313D01*
X007060Y005215D02*
X010831Y005215D01*
X010722Y005116D02*
X007060Y005116D01*
X007137Y005018D02*
X010623Y005018D01*
X010525Y004919D02*
X008575Y004919D01*
X008674Y004821D02*
X010426Y004821D01*
X010328Y004722D02*
X008772Y004722D01*
X008871Y004624D02*
X010229Y004624D01*
X010131Y004525D02*
X008969Y004525D01*
X009068Y004427D02*
X010032Y004427D01*
X009934Y004328D02*
X009166Y004328D01*
X009265Y004230D02*
X009835Y004230D01*
X009737Y004131D02*
X009363Y004131D01*
X009462Y004033D02*
X009638Y004033D01*
X009980Y003639D02*
X018485Y003639D01*
X018470Y003540D02*
X009958Y003540D01*
X009958Y003442D02*
X018470Y003442D01*
X018482Y003343D02*
X009958Y003343D01*
X009911Y003245D02*
X018522Y003245D01*
X018570Y003146D02*
X001000Y003146D01*
X001000Y003048D02*
X018669Y003048D01*
X018692Y002949D02*
X001000Y002949D01*
X001000Y002851D02*
X018594Y002851D01*
X018532Y002752D02*
X001000Y002752D01*
X001000Y002654D02*
X018491Y002654D01*
X018470Y002555D02*
X001000Y002555D01*
X001000Y002457D02*
X018470Y002457D01*
X018475Y002358D02*
X001000Y002358D01*
X001000Y002260D02*
X018516Y002260D01*
X018557Y002161D02*
X001000Y002161D01*
X001000Y002063D02*
X001925Y002063D01*
X001707Y001964D02*
X001000Y001964D01*
X001000Y001866D02*
X001609Y001866D01*
X001538Y001767D02*
X001000Y001767D01*
X001000Y001669D02*
X001498Y001669D01*
X001470Y001570D02*
X001000Y001570D01*
X001000Y001472D02*
X001470Y001472D01*
X001470Y001373D02*
X001000Y001373D01*
X001000Y001275D02*
X001510Y001275D01*
X001551Y001176D02*
X001000Y001176D01*
X001000Y001078D02*
X001639Y001078D01*
X001760Y000979D02*
X001000Y000979D01*
X002175Y002063D02*
X002925Y002063D01*
X002707Y001964D02*
X002393Y001964D01*
X002491Y001866D02*
X002609Y001866D01*
X003175Y002063D02*
X003925Y002063D01*
X003707Y001964D02*
X003393Y001964D01*
X003491Y001866D02*
X003609Y001866D01*
X004175Y002063D02*
X004925Y002063D01*
X004707Y001964D02*
X004393Y001964D01*
X004491Y001866D02*
X004609Y001866D01*
X005175Y002063D02*
X005925Y002063D01*
X005707Y001964D02*
X005393Y001964D01*
X005491Y001866D02*
X005609Y001866D01*
X006175Y002063D02*
X006925Y002063D01*
X006707Y001964D02*
X006393Y001964D01*
X006491Y001866D02*
X006609Y001866D01*
X007175Y002063D02*
X007925Y002063D01*
X007707Y001964D02*
X007393Y001964D01*
X007491Y001866D02*
X007609Y001866D01*
X008175Y002063D02*
X008925Y002063D01*
X008707Y001964D02*
X008393Y001964D01*
X008491Y001866D02*
X008609Y001866D01*
X009175Y002063D02*
X009925Y002063D01*
X009707Y001964D02*
X009393Y001964D01*
X009491Y001866D02*
X009609Y001866D01*
X010175Y002063D02*
X010925Y002063D01*
X010707Y001964D02*
X010393Y001964D01*
X010491Y001866D02*
X010609Y001866D01*
X011175Y002063D02*
X011925Y002063D01*
X012175Y002063D02*
X012925Y002063D01*
X012707Y001964D02*
X012393Y001964D01*
X012491Y001866D02*
X012609Y001866D01*
X013175Y002063D02*
X013925Y002063D01*
X013707Y001964D02*
X013393Y001964D01*
X013491Y001866D02*
X013609Y001866D01*
X014175Y002063D02*
X014925Y002063D01*
X014707Y001964D02*
X014393Y001964D01*
X014491Y001866D02*
X014609Y001866D01*
X015175Y002063D02*
X015925Y002063D01*
X015707Y001964D02*
X015393Y001964D01*
X015491Y001866D02*
X015609Y001866D01*
X016175Y002063D02*
X016925Y002063D01*
X016707Y001964D02*
X016393Y001964D01*
X016491Y001866D02*
X016609Y001866D01*
X017175Y002063D02*
X018654Y002063D01*
X018707Y001964D02*
X017393Y001964D01*
X017491Y001866D02*
X018609Y001866D01*
X018538Y001767D02*
X017562Y001767D01*
X017602Y001669D02*
X018498Y001669D01*
X018470Y001570D02*
X017630Y001570D01*
X017630Y001472D02*
X018470Y001472D01*
X018470Y001373D02*
X017630Y001373D01*
X017590Y001275D02*
X018510Y001275D01*
X018551Y001176D02*
X017549Y001176D01*
X017461Y001078D02*
X018639Y001078D01*
X018760Y000979D02*
X017340Y000979D01*
X018526Y003737D02*
X010078Y003737D01*
X010177Y003836D02*
X018579Y003836D01*
X018677Y003934D02*
X010275Y003934D01*
X010374Y004033D02*
X018684Y004033D01*
X018585Y004131D02*
X010472Y004131D01*
X010571Y004230D02*
X018529Y004230D01*
X018488Y004328D02*
X010669Y004328D01*
X010768Y004427D02*
X018470Y004427D01*
X018470Y004525D02*
X010866Y004525D01*
X010965Y004624D02*
X018479Y004624D01*
X018520Y004722D02*
X011063Y004722D01*
X013502Y004821D02*
X018564Y004821D01*
X018662Y004919D02*
X013600Y004919D01*
X013699Y005018D02*
X018699Y005018D01*
X018600Y005116D02*
X013797Y005116D01*
X013896Y005215D02*
X018535Y005215D01*
X018494Y005313D02*
X013994Y005313D01*
X014093Y005412D02*
X018470Y005412D01*
X018470Y005510D02*
X014191Y005510D01*
X014290Y005609D02*
X018473Y005609D01*
X018514Y005707D02*
X014388Y005707D01*
X014487Y005806D02*
X018554Y005806D01*
X018647Y005904D02*
X014585Y005904D01*
X014684Y006003D02*
X018780Y006003D01*
X019320Y006003D02*
X019342Y006003D01*
X019342Y006101D02*
X014782Y006101D01*
X014881Y006200D02*
X019342Y006200D01*
X019342Y006298D02*
X014979Y006298D01*
X015078Y006397D02*
X019342Y006397D01*
X019342Y006495D02*
X015176Y006495D01*
X015275Y006594D02*
X015750Y006594D01*
X015651Y006692D02*
X015373Y006692D01*
X016350Y006594D02*
X019342Y006594D01*
X019342Y006692D02*
X016449Y006692D01*
X016458Y006791D02*
X019342Y006791D01*
X019342Y006889D02*
X016458Y006889D01*
X019342Y007579D02*
X006326Y007579D01*
X006227Y007677D02*
X019342Y007677D01*
X019342Y007776D02*
X004954Y007776D01*
X004856Y007874D02*
X019342Y007874D01*
X019342Y007973D02*
X004654Y007973D01*
X004752Y008071D02*
X019342Y008071D01*
X019342Y008170D02*
X004976Y008170D01*
X005075Y008268D02*
X019342Y008268D01*
X019342Y008367D02*
X005098Y008367D01*
X005098Y008465D02*
X019342Y008465D01*
X019342Y008564D02*
X005098Y008564D01*
X005098Y008662D02*
X019342Y008662D01*
X019342Y008761D02*
X005098Y008761D01*
X005098Y008859D02*
X019342Y008859D01*
X019342Y008958D02*
X005002Y008958D01*
X004950Y009056D02*
X019342Y009056D01*
X019342Y009155D02*
X004950Y009155D01*
X004950Y009253D02*
X019342Y009253D01*
X019342Y009352D02*
X004950Y009352D01*
X004950Y009450D02*
X019342Y009450D01*
X019342Y009549D02*
X004980Y009549D01*
X005078Y009647D02*
X019342Y009647D01*
X019342Y009746D02*
X006148Y009746D01*
X006275Y009844D02*
X019342Y009844D01*
X019342Y009943D02*
X006374Y009943D01*
X006472Y010041D02*
X019342Y010041D01*
X019342Y010140D02*
X013646Y010140D01*
X013708Y010238D02*
X019342Y010238D01*
X019342Y010337D02*
X013708Y010337D01*
X013708Y010435D02*
X019342Y010435D01*
X019342Y010534D02*
X013708Y010534D01*
X013708Y010632D02*
X019342Y010632D01*
X019342Y010731D02*
X013708Y010731D01*
X013651Y010829D02*
X019342Y010829D01*
X019342Y010928D02*
X013227Y010928D01*
X013128Y011026D02*
X019342Y011026D01*
X019342Y011125D02*
X013030Y011125D01*
X012931Y011223D02*
X019342Y011223D01*
X019342Y011322D02*
X012833Y011322D01*
X012734Y011420D02*
X019342Y011420D01*
X019342Y011519D02*
X012636Y011519D01*
X012537Y011617D02*
X019342Y011617D01*
X019342Y011716D02*
X012439Y011716D01*
X012340Y011814D02*
X019342Y011814D01*
X019342Y011913D02*
X012242Y011913D01*
X012143Y012011D02*
X019342Y012011D01*
X019342Y012110D02*
X012045Y012110D01*
X011946Y012208D02*
X019342Y012208D01*
X019342Y012307D02*
X011848Y012307D01*
X011749Y012405D02*
X019342Y012405D01*
X019342Y012504D02*
X018137Y012504D01*
X018129Y012495D02*
X018292Y012658D01*
X018380Y012871D01*
X018380Y013102D01*
X018292Y013315D01*
X018129Y013478D01*
X017915Y013567D01*
X017685Y013567D01*
X017471Y013478D01*
X017308Y013315D01*
X017300Y013295D01*
X017292Y013315D01*
X017129Y013478D01*
X016915Y013567D01*
X016685Y013567D01*
X016471Y013478D01*
X016308Y013315D01*
X016300Y013295D01*
X016292Y013315D01*
X016129Y013478D01*
X015915Y013567D01*
X015685Y013567D01*
X015471Y013478D01*
X015308Y013315D01*
X015300Y013295D01*
X015292Y013315D01*
X015129Y013478D01*
X014915Y013567D01*
X014685Y013567D01*
X014471Y013478D01*
X014308Y013315D01*
X014300Y013295D01*
X014292Y013315D01*
X014129Y013478D01*
X013915Y013567D01*
X013685Y013567D01*
X013471Y013478D01*
X013308Y013315D01*
X013300Y013295D01*
X013292Y013315D01*
X013129Y013478D01*
X012915Y013567D01*
X012685Y013567D01*
X012471Y013478D01*
X012308Y013315D01*
X012220Y013102D01*
X012220Y012871D01*
X012308Y012658D01*
X012471Y012495D01*
X012685Y012407D01*
X012915Y012407D01*
X013129Y012495D01*
X013292Y012658D01*
X013300Y012678D01*
X013308Y012658D01*
X013471Y012495D01*
X013685Y012407D01*
X013915Y012407D01*
X014129Y012495D01*
X014292Y012658D01*
X014300Y012678D01*
X014308Y012658D01*
X014471Y012495D01*
X014685Y012407D01*
X014915Y012407D01*
X015129Y012495D01*
X015292Y012658D01*
X015300Y012678D01*
X015308Y012658D01*
X015471Y012495D01*
X015685Y012407D01*
X015915Y012407D01*
X016129Y012495D01*
X016292Y012658D01*
X016300Y012678D01*
X016308Y012658D01*
X016471Y012495D01*
X016685Y012407D01*
X016915Y012407D01*
X017129Y012495D01*
X017292Y012658D01*
X017300Y012678D01*
X017308Y012658D01*
X017471Y012495D01*
X017685Y012407D01*
X017915Y012407D01*
X018129Y012495D01*
X018236Y012602D02*
X019342Y012602D01*
X019342Y012701D02*
X018309Y012701D01*
X018350Y012799D02*
X019342Y012799D01*
X019342Y012898D02*
X018380Y012898D01*
X018380Y012996D02*
X019342Y012996D01*
X019342Y013095D02*
X018380Y013095D01*
X018342Y013193D02*
X019342Y013193D01*
X019342Y013292D02*
X018301Y013292D01*
X018217Y013390D02*
X019342Y013390D01*
X019342Y013489D02*
X018104Y013489D01*
X017496Y013489D02*
X017104Y013489D01*
X017217Y013390D02*
X017383Y013390D01*
X017364Y012602D02*
X017236Y012602D01*
X017137Y012504D02*
X017463Y012504D01*
X016463Y012504D02*
X016137Y012504D01*
X016236Y012602D02*
X016364Y012602D01*
X016383Y013390D02*
X016217Y013390D01*
X016104Y013489D02*
X016496Y013489D01*
X015496Y013489D02*
X015104Y013489D01*
X015217Y013390D02*
X015383Y013390D01*
X015364Y012602D02*
X015236Y012602D01*
X015137Y012504D02*
X015463Y012504D01*
X014463Y012504D02*
X014137Y012504D01*
X014236Y012602D02*
X014364Y012602D01*
X014383Y013390D02*
X014217Y013390D01*
X014104Y013489D02*
X014496Y013489D01*
X013496Y013489D02*
X013104Y013489D01*
X013217Y013390D02*
X013383Y013390D01*
X013364Y012602D02*
X013236Y012602D01*
X013137Y012504D02*
X013463Y012504D01*
X012463Y012504D02*
X002081Y012504D01*
X002122Y012602D02*
X012364Y012602D01*
X012291Y012701D02*
X002130Y012701D01*
X002130Y012799D02*
X012250Y012799D01*
X012220Y012898D02*
X002111Y012898D01*
X002070Y012996D02*
X012220Y012996D01*
X012220Y013095D02*
X002012Y013095D01*
X001914Y013193D02*
X012258Y013193D01*
X012299Y013292D02*
X001726Y013292D01*
X001374Y013292D02*
X001000Y013292D01*
X001000Y013390D02*
X012383Y013390D01*
X012496Y013489D02*
X001000Y013489D01*
X001000Y013587D02*
X019342Y013587D01*
X019342Y013686D02*
X001000Y013686D01*
X001000Y013784D02*
X019342Y013784D01*
X019342Y013883D02*
X001000Y013883D01*
X001000Y013981D02*
X019342Y013981D01*
X019342Y014080D02*
X001000Y014080D01*
X001000Y014178D02*
X019342Y014178D01*
X019342Y014277D02*
X001000Y014277D01*
X001000Y014375D02*
X019342Y014375D01*
X019342Y014474D02*
X001000Y014474D01*
X001000Y014572D02*
X019342Y014572D01*
X019342Y014671D02*
X001000Y014671D01*
X001000Y014769D02*
X019342Y014769D01*
X019342Y014868D02*
X001000Y014868D01*
X001000Y014966D02*
X019342Y014966D01*
X019342Y015065D02*
X001000Y015065D01*
X001000Y015163D02*
X013456Y015163D01*
X013493Y015127D02*
X014467Y015127D01*
X014590Y015250D01*
X014590Y016224D01*
X014467Y016347D01*
X013493Y016347D01*
X013370Y016224D01*
X013370Y015250D01*
X013493Y015127D01*
X013370Y015262D02*
X002772Y015262D01*
X002712Y015202D02*
X002835Y015325D01*
X002835Y016149D01*
X002712Y016272D01*
X001888Y016272D01*
X001765Y016149D01*
X001765Y015325D01*
X001888Y015202D01*
X002712Y015202D01*
X002835Y015360D02*
X013370Y015360D01*
X013370Y015459D02*
X002835Y015459D01*
X002835Y015557D02*
X013370Y015557D01*
X013370Y015656D02*
X002835Y015656D01*
X002835Y015754D02*
X013370Y015754D01*
X013370Y015853D02*
X005831Y015853D01*
X005745Y015767D02*
X006020Y016042D01*
X006020Y016431D01*
X005745Y016707D01*
X005355Y016707D01*
X005080Y016431D01*
X005080Y016042D01*
X005355Y015767D01*
X005745Y015767D01*
X005929Y015951D02*
X013370Y015951D01*
X013370Y016050D02*
X006020Y016050D01*
X006020Y016148D02*
X013370Y016148D01*
X013393Y016247D02*
X006020Y016247D01*
X006020Y016345D02*
X013492Y016345D01*
X014468Y016345D02*
X015303Y016345D01*
X015307Y016347D02*
X015082Y016254D01*
X014911Y016082D01*
X014818Y015858D01*
X014818Y015615D01*
X014911Y015391D01*
X015082Y015220D01*
X015307Y015127D01*
X015549Y015127D01*
X015773Y015220D01*
X015945Y015391D01*
X016038Y015615D01*
X016038Y015858D01*
X015945Y016082D01*
X015773Y016254D01*
X015549Y016347D01*
X015307Y016347D01*
X015553Y016345D02*
X016751Y016345D01*
X016755Y016347D02*
X016530Y016254D01*
X016359Y016082D01*
X016266Y015858D01*
X016266Y015615D01*
X016359Y015391D01*
X016530Y015220D01*
X016755Y015127D01*
X016997Y015127D01*
X017221Y015220D01*
X017393Y015391D01*
X017486Y015615D01*
X017486Y015858D01*
X017393Y016082D01*
X017221Y016254D01*
X016997Y016347D01*
X016755Y016347D01*
X017001Y016345D02*
X019342Y016345D01*
X019342Y016247D02*
X017229Y016247D01*
X017327Y016148D02*
X019342Y016148D01*
X019342Y016050D02*
X017406Y016050D01*
X017447Y015951D02*
X019342Y015951D01*
X019342Y015853D02*
X017486Y015853D01*
X017486Y015754D02*
X019342Y015754D01*
X019342Y015656D02*
X017486Y015656D01*
X017462Y015557D02*
X019342Y015557D01*
X019342Y015459D02*
X017421Y015459D01*
X017362Y015360D02*
X019342Y015360D01*
X019342Y015262D02*
X017264Y015262D01*
X017085Y015163D02*
X019342Y015163D01*
X019342Y016444D02*
X006008Y016444D01*
X005909Y016542D02*
X019342Y016542D01*
X019342Y016641D02*
X005811Y016641D01*
X005289Y016641D02*
X004811Y016641D01*
X004745Y016707D02*
X004355Y016707D01*
X004080Y016431D01*
X004080Y016042D01*
X004355Y015767D01*
X004745Y015767D01*
X005020Y016042D01*
X005020Y016431D01*
X004745Y016707D01*
X004909Y016542D02*
X005191Y016542D01*
X005092Y016444D02*
X005008Y016444D01*
X005020Y016345D02*
X005080Y016345D01*
X005080Y016247D02*
X005020Y016247D01*
X005020Y016148D02*
X005080Y016148D01*
X005080Y016050D02*
X005020Y016050D01*
X004929Y015951D02*
X005171Y015951D01*
X005269Y015853D02*
X004831Y015853D01*
X004269Y015853D02*
X002835Y015853D01*
X002835Y015951D02*
X004171Y015951D01*
X004080Y016050D02*
X002835Y016050D01*
X002835Y016148D02*
X004080Y016148D01*
X004080Y016247D02*
X002737Y016247D01*
X001863Y016247D02*
X001000Y016247D01*
X001000Y016345D02*
X004080Y016345D01*
X004092Y016444D02*
X001000Y016444D01*
X001000Y016542D02*
X004191Y016542D01*
X004289Y016641D02*
X001000Y016641D01*
X001000Y016739D02*
X019342Y016739D01*
X019342Y016838D02*
X001000Y016838D01*
X001000Y016936D02*
X019342Y016936D01*
X019342Y017035D02*
X001000Y017035D01*
X001000Y017133D02*
X019342Y017133D01*
X019342Y017232D02*
X001000Y017232D01*
X001000Y017330D02*
X019342Y017330D01*
X016666Y015163D02*
X015637Y015163D01*
X015816Y015262D02*
X016488Y015262D01*
X016390Y015360D02*
X015914Y015360D01*
X015973Y015459D02*
X016331Y015459D01*
X016290Y015557D02*
X016014Y015557D01*
X016038Y015656D02*
X016266Y015656D01*
X016266Y015754D02*
X016038Y015754D01*
X016038Y015853D02*
X016266Y015853D01*
X016305Y015951D02*
X015999Y015951D01*
X015959Y016050D02*
X016345Y016050D01*
X016425Y016148D02*
X015879Y016148D01*
X015781Y016247D02*
X016523Y016247D01*
X015218Y015163D02*
X014504Y015163D01*
X014590Y015262D02*
X015040Y015262D01*
X014942Y015360D02*
X014590Y015360D01*
X014590Y015459D02*
X014883Y015459D01*
X014842Y015557D02*
X014590Y015557D01*
X014590Y015656D02*
X014818Y015656D01*
X014818Y015754D02*
X014590Y015754D01*
X014590Y015853D02*
X014818Y015853D01*
X014857Y015951D02*
X014590Y015951D01*
X014590Y016050D02*
X014897Y016050D01*
X014977Y016148D02*
X014590Y016148D01*
X014567Y016247D02*
X015075Y016247D01*
X011550Y012237D02*
X013300Y010487D01*
X012892Y010435D02*
X006866Y010435D01*
X006768Y010337D02*
X012892Y010337D01*
X012892Y010238D02*
X006669Y010238D01*
X006571Y010140D02*
X012954Y010140D01*
X012885Y010534D02*
X006965Y010534D01*
X007063Y010632D02*
X012787Y010632D01*
X012688Y010731D02*
X007162Y010731D01*
X007260Y010829D02*
X012590Y010829D01*
X012491Y010928D02*
X007359Y010928D01*
X007457Y011026D02*
X012393Y011026D01*
X012294Y011125D02*
X007881Y011125D01*
X007958Y011223D02*
X012196Y011223D01*
X012097Y011322D02*
X007958Y011322D01*
X007958Y011420D02*
X011999Y011420D01*
X011900Y011519D02*
X007958Y011519D01*
X007958Y011617D02*
X011802Y011617D01*
X011703Y011716D02*
X007958Y011716D01*
X007916Y011814D02*
X011605Y011814D01*
X011506Y011913D02*
X007094Y011913D01*
X007184Y011814D02*
X006995Y011814D01*
X006897Y011716D02*
X007142Y011716D01*
X007142Y011617D02*
X006798Y011617D01*
X006700Y011519D02*
X007142Y011519D01*
X007116Y011420D02*
X002047Y011420D01*
X001955Y011322D02*
X007017Y011322D01*
X006919Y011223D02*
X001826Y011223D01*
X001274Y011223D02*
X001000Y011223D01*
X001000Y011125D02*
X006820Y011125D01*
X006722Y011026D02*
X001000Y011026D01*
X001000Y010928D02*
X006623Y010928D01*
X006525Y010829D02*
X001000Y010829D01*
X001000Y010731D02*
X006426Y010731D01*
X006328Y010632D02*
X001000Y010632D01*
X001000Y010534D02*
X006229Y010534D01*
X006131Y010435D02*
X001000Y010435D01*
X001000Y010337D02*
X006032Y010337D01*
X006050Y009987D02*
X007550Y011487D01*
X006654Y012208D02*
X001899Y012208D01*
X001940Y012307D02*
X006752Y012307D01*
X006851Y012405D02*
X002039Y012405D01*
X001997Y012110D02*
X006555Y012110D01*
X006457Y012011D02*
X002064Y012011D01*
X001550Y011737D02*
X006550Y011737D01*
X007050Y012237D01*
X011550Y012237D01*
X006050Y009987D02*
X005050Y009987D01*
X004690Y009627D01*
X004690Y008577D01*
X004690Y008377D01*
X004050Y007737D01*
X004050Y005987D01*
X004630Y005407D01*
X005620Y005407D01*
X006028Y005412D02*
X006540Y005412D01*
X006540Y005510D02*
X006028Y005510D01*
X006028Y005609D02*
X006540Y005609D01*
X006540Y005707D02*
X006013Y005707D01*
X005914Y005806D02*
X006540Y005806D01*
X006540Y005904D02*
X004500Y005904D01*
X004402Y006003D02*
X006540Y006003D01*
X006540Y006101D02*
X004310Y006101D01*
X004310Y006200D02*
X006540Y006200D01*
X006540Y006298D02*
X004310Y006298D01*
X004310Y006397D02*
X006540Y006397D01*
X006540Y006495D02*
X004310Y006495D01*
X004310Y006594D02*
X006540Y006594D01*
X006477Y006692D02*
X004310Y006692D01*
X004310Y006791D02*
X006378Y006791D01*
X006280Y006889D02*
X004310Y006889D01*
X004310Y006988D02*
X006181Y006988D01*
X006083Y007086D02*
X004843Y007086D01*
X004941Y007185D02*
X005984Y007185D01*
X006050Y007487D02*
X006800Y006737D01*
X006800Y004987D01*
X007050Y004737D01*
X008390Y004737D01*
X007050Y004737D02*
X006550Y004737D01*
X005550Y003737D01*
X001300Y003737D01*
X001697Y004033D02*
X005478Y004033D01*
X005577Y004131D02*
X001599Y004131D01*
X001001Y004131D02*
X001000Y004131D01*
X001000Y004230D02*
X005675Y004230D01*
X005774Y004328D02*
X001000Y004328D01*
X001000Y004427D02*
X005872Y004427D01*
X005971Y004525D02*
X001000Y004525D01*
X001000Y004624D02*
X006069Y004624D01*
X006168Y004722D02*
X001000Y004722D01*
X001000Y004821D02*
X006266Y004821D01*
X006365Y004919D02*
X001000Y004919D01*
X001000Y005018D02*
X005316Y005018D01*
X005217Y005116D02*
X001000Y005116D01*
X001000Y005215D02*
X001295Y005215D01*
X001153Y005313D02*
X001000Y005313D01*
X001000Y005412D02*
X001057Y005412D01*
X001016Y005510D02*
X001000Y005510D01*
X001805Y005215D02*
X004454Y005215D01*
X004356Y005313D02*
X001947Y005313D01*
X002043Y005412D02*
X004257Y005412D01*
X004159Y005510D02*
X002084Y005510D01*
X002125Y005609D02*
X004060Y005609D01*
X003962Y005707D02*
X002130Y005707D01*
X002130Y005806D02*
X003863Y005806D01*
X003803Y005904D02*
X002108Y005904D01*
X002068Y006003D02*
X003790Y006003D01*
X003790Y006101D02*
X002006Y006101D01*
X001907Y006200D02*
X003790Y006200D01*
X003790Y006298D02*
X001932Y006298D01*
X002030Y006397D02*
X003790Y006397D01*
X003790Y006495D02*
X002078Y006495D01*
X002119Y006594D02*
X003790Y006594D01*
X003790Y006692D02*
X002130Y006692D01*
X002130Y006791D02*
X003790Y006791D01*
X003790Y006889D02*
X002115Y006889D01*
X002074Y006988D02*
X003790Y006988D01*
X003790Y007086D02*
X002021Y007086D01*
X001922Y007185D02*
X003790Y007185D01*
X003790Y007283D02*
X001917Y007283D01*
X002015Y007382D02*
X003790Y007382D01*
X003790Y007480D02*
X002072Y007480D01*
X002112Y007579D02*
X003790Y007579D01*
X003790Y007677D02*
X002130Y007677D01*
X002130Y007776D02*
X003790Y007776D01*
X003826Y007874D02*
X002121Y007874D01*
X002080Y007973D02*
X003918Y007973D01*
X004017Y008071D02*
X002036Y008071D01*
X001937Y008170D02*
X004115Y008170D01*
X004214Y008268D02*
X001782Y008268D01*
X001318Y008268D02*
X001000Y008268D01*
X001000Y008170D02*
X001163Y008170D01*
X001064Y008071D02*
X001000Y008071D01*
X001000Y007973D02*
X001020Y007973D01*
X001000Y008367D02*
X004282Y008367D01*
X004282Y008465D02*
X001000Y008465D01*
X001000Y008564D02*
X004282Y008564D01*
X004282Y008662D02*
X001000Y008662D01*
X001000Y008761D02*
X004282Y008761D01*
X004282Y008859D02*
X001000Y008859D01*
X001000Y008958D02*
X004378Y008958D01*
X004430Y009056D02*
X001000Y009056D01*
X001000Y009155D02*
X004430Y009155D01*
X004430Y009253D02*
X001000Y009253D01*
X001000Y009352D02*
X004430Y009352D01*
X004430Y009450D02*
X001000Y009450D01*
X001000Y009549D02*
X004430Y009549D01*
X004430Y009647D02*
X001000Y009647D01*
X001000Y009746D02*
X004458Y009746D01*
X004540Y009844D02*
X001000Y009844D01*
X001000Y009943D02*
X004638Y009943D01*
X004737Y010041D02*
X001000Y010041D01*
X001000Y010140D02*
X004835Y010140D01*
X004978Y010238D02*
X001000Y010238D01*
X001000Y011322D02*
X001145Y011322D01*
X001053Y011420D02*
X001000Y011420D01*
X001000Y011519D02*
X001013Y011519D01*
X001000Y012996D02*
X001030Y012996D01*
X001000Y013095D02*
X001088Y013095D01*
X001000Y013193D02*
X001186Y013193D01*
X001000Y015262D02*
X001828Y015262D01*
X001765Y015360D02*
X001000Y015360D01*
X001000Y015459D02*
X001765Y015459D01*
X001765Y015557D02*
X001000Y015557D01*
X001000Y015656D02*
X001765Y015656D01*
X001765Y015754D02*
X001000Y015754D01*
X001000Y015853D02*
X001765Y015853D01*
X001765Y015951D02*
X001000Y015951D01*
X001000Y016050D02*
X001765Y016050D01*
X001765Y016148D02*
X001000Y016148D01*
X004550Y007487D02*
X006050Y007487D01*
X005326Y005806D02*
X004599Y005806D01*
X004697Y005707D02*
X005227Y005707D01*
X006028Y005313D02*
X006540Y005313D01*
X006540Y005215D02*
X006028Y005215D01*
X006023Y005116D02*
X006540Y005116D01*
X006540Y005018D02*
X005924Y005018D01*
X011393Y001964D02*
X011707Y001964D01*
X011609Y001866D02*
X011491Y001866D01*
M02*
