%
M48
M72
T01C0.0236
T02C0.0276
T03C0.0320
T04C0.0400
T05C0.0472
%
T01
X1300Y3737
X1300Y4737
X2050Y4737
X2800Y4737
X2800Y5417
X3550Y5417
X3550Y4737
X4300Y4737
X5050Y4737
X5800Y4737
X5620Y5407
X7050Y3987
X9550Y3577
X12050Y3987
X14050Y4487
X16550Y6237
X17300Y6237
X18050Y6237
X18050Y6987
X17300Y6987
X16050Y6987
X16800Y9987
X13300Y10487
X12050Y8737
X9800Y11237
X7550Y11487
X7050Y8737
X4690Y8577
X3550Y8667
X4550Y7487
X1300Y8917
X1300Y9667
X1300Y10417
T02
X2300Y15737
X2300Y16737
T03
X4550Y16237
X5050Y16987
X5550Y16237
T04
X2050Y1487
X3050Y1487
X4050Y1487
X5050Y1487
X6050Y1487
X7050Y1487
X8050Y1487
X9050Y1487
X10050Y1487
X11050Y1487
X12050Y1487
X13050Y1487
X14050Y1487
X15050Y1487
X16050Y1487
X17050Y1487
X19050Y1487
X19050Y2487
X19050Y3487
X19050Y4487
X19050Y5487
X19050Y6487
X17800Y12987
X16800Y12987
X15800Y12987
X14800Y12987
X13800Y12987
X12800Y12987
X1550Y12737
X1550Y11737
X1550Y13737
X1550Y7737
X1550Y6737
X1550Y5737
T05
X13980Y15737
X15428Y15737
X16876Y15737
M30
