G75*
G70*
%OFA0B0*%
%FSLAX24Y24*%
%IPPOS*%
%LPD*%
%AMOC8*
5,1,8,0,0,1.08239X$1,22.5*
%
%ADD10C,0.0740*%
%ADD11R,0.0396X0.0396*%
%ADD12C,0.0100*%
D10*
X001000Y001650D03*
X001100Y002650D03*
X001000Y003650D03*
X001100Y004650D03*
X001000Y005650D03*
X001100Y006650D03*
X005000Y005650D03*
X005100Y004650D03*
X005000Y003650D03*
X005100Y002650D03*
X005000Y001650D03*
X005100Y006650D03*
D11*
X008050Y011150D03*
X012050Y009150D03*
D12*
X000715Y000673D02*
X000739Y000639D01*
X000773Y000615D01*
X000812Y000602D01*
X000833Y000600D01*
X014841Y000600D01*
X014880Y000603D01*
X014955Y000627D01*
X015018Y000674D01*
X015065Y000737D01*
X015089Y000812D01*
X015092Y000852D01*
X015092Y013496D01*
X015091Y013507D01*
X015084Y013530D01*
X015070Y013548D01*
X015052Y013562D01*
X015030Y013569D01*
X015018Y013570D01*
X000726Y013570D01*
X000722Y013570D01*
X000714Y013567D01*
X000708Y013562D01*
X000703Y013556D01*
X000700Y013548D01*
X000700Y013544D01*
X000700Y006240D01*
X000869Y006310D01*
X001131Y006310D01*
X001374Y006210D01*
X001560Y006024D01*
X001660Y005781D01*
X001660Y005519D01*
X001560Y005276D01*
X001483Y005200D01*
X001660Y005024D01*
X001760Y004781D01*
X001760Y004519D01*
X001660Y004276D01*
X001483Y004100D01*
X001560Y004024D01*
X001660Y003781D01*
X001660Y003519D01*
X001560Y003276D01*
X001483Y003200D01*
X001660Y003024D01*
X001760Y002781D01*
X001760Y002519D01*
X001660Y002276D01*
X001474Y002090D01*
X001231Y001990D01*
X000969Y001990D01*
X000726Y002090D01*
X000700Y002117D01*
X000700Y000733D01*
X000702Y000712D01*
X000715Y000673D01*
X000736Y000643D02*
X014976Y000643D01*
X015066Y000741D02*
X000700Y000741D01*
X000700Y000840D02*
X015091Y000840D01*
X015092Y000938D02*
X000700Y000938D01*
X000700Y001037D02*
X015092Y001037D01*
X015092Y001135D02*
X000700Y001135D01*
X000700Y001234D02*
X015092Y001234D01*
X015092Y001332D02*
X000700Y001332D01*
X000700Y001431D02*
X015092Y001431D01*
X015092Y001529D02*
X000700Y001529D01*
X000700Y001628D02*
X015092Y001628D01*
X015092Y001726D02*
X000700Y001726D01*
X000700Y001825D02*
X015092Y001825D01*
X015092Y001923D02*
X000700Y001923D01*
X000700Y002022D02*
X000893Y002022D01*
X001307Y002022D02*
X004893Y002022D01*
X004969Y001990D02*
X005231Y001990D01*
X005474Y002090D01*
X005660Y002276D01*
X005760Y002519D01*
X005760Y002781D01*
X005660Y003024D01*
X005483Y003200D01*
X005560Y003276D01*
X005660Y003519D01*
X005660Y003781D01*
X005560Y004024D01*
X005483Y004100D01*
X005660Y004276D01*
X005760Y004519D01*
X005760Y004781D01*
X005660Y005024D01*
X005483Y005200D01*
X005560Y005276D01*
X005660Y005519D01*
X005660Y005781D01*
X005560Y006024D01*
X005374Y006210D01*
X005131Y006310D01*
X004869Y006310D01*
X004626Y006210D01*
X004440Y006024D01*
X004340Y005781D01*
X004340Y005519D01*
X004440Y005276D01*
X004617Y005100D01*
X004540Y005024D01*
X004440Y004781D01*
X004440Y004519D01*
X004540Y004276D01*
X004617Y004200D01*
X004440Y004024D01*
X004340Y003781D01*
X004340Y003519D01*
X004440Y003276D01*
X004617Y003100D01*
X004540Y003024D01*
X004440Y002781D01*
X004440Y002519D01*
X004540Y002276D01*
X004726Y002090D01*
X004969Y001990D01*
X004697Y002120D02*
X001503Y002120D01*
X001602Y002219D02*
X004598Y002219D01*
X004524Y002317D02*
X001676Y002317D01*
X001717Y002416D02*
X004483Y002416D01*
X004442Y002514D02*
X001758Y002514D01*
X001760Y002613D02*
X004440Y002613D01*
X004440Y002711D02*
X001760Y002711D01*
X001748Y002810D02*
X004452Y002810D01*
X004492Y002908D02*
X001708Y002908D01*
X001667Y003007D02*
X004533Y003007D01*
X004612Y003105D02*
X001578Y003105D01*
X001487Y003204D02*
X004513Y003204D01*
X004430Y003302D02*
X001570Y003302D01*
X001611Y003401D02*
X004389Y003401D01*
X004348Y003499D02*
X001652Y003499D01*
X001660Y003598D02*
X004340Y003598D01*
X004340Y003696D02*
X001660Y003696D01*
X001655Y003795D02*
X004345Y003795D01*
X004386Y003893D02*
X001614Y003893D01*
X001573Y003992D02*
X004427Y003992D01*
X004507Y004090D02*
X001493Y004090D01*
X001572Y004189D02*
X004605Y004189D01*
X004536Y004287D02*
X001664Y004287D01*
X001705Y004386D02*
X004495Y004386D01*
X004454Y004484D02*
X001746Y004484D01*
X001760Y004583D02*
X004440Y004583D01*
X004440Y004681D02*
X001760Y004681D01*
X001760Y004780D02*
X004440Y004780D01*
X004480Y004878D02*
X001720Y004878D01*
X001679Y004977D02*
X004521Y004977D01*
X004592Y005075D02*
X001608Y005075D01*
X001510Y005174D02*
X004543Y005174D01*
X004445Y005272D02*
X001555Y005272D01*
X001599Y005371D02*
X004401Y005371D01*
X004361Y005469D02*
X001639Y005469D01*
X001660Y005568D02*
X004340Y005568D01*
X004340Y005666D02*
X001660Y005666D01*
X001660Y005765D02*
X004340Y005765D01*
X004374Y005863D02*
X001626Y005863D01*
X001585Y005962D02*
X004415Y005962D01*
X004477Y006060D02*
X001523Y006060D01*
X001425Y006159D02*
X004575Y006159D01*
X004741Y006257D02*
X001259Y006257D01*
X000741Y006257D02*
X000700Y006257D01*
X000700Y006356D02*
X015092Y006356D01*
X015092Y006454D02*
X000700Y006454D01*
X000700Y006553D02*
X015092Y006553D01*
X015092Y006651D02*
X000700Y006651D01*
X000700Y006750D02*
X015092Y006750D01*
X015092Y006848D02*
X000700Y006848D01*
X000700Y006947D02*
X015092Y006947D01*
X015092Y007045D02*
X000700Y007045D01*
X000700Y007144D02*
X015092Y007144D01*
X015092Y007242D02*
X000700Y007242D01*
X000700Y007341D02*
X015092Y007341D01*
X015092Y007439D02*
X000700Y007439D01*
X000700Y007538D02*
X015092Y007538D01*
X015092Y007636D02*
X000700Y007636D01*
X000700Y007735D02*
X015092Y007735D01*
X015092Y007833D02*
X000700Y007833D01*
X000700Y007932D02*
X015092Y007932D01*
X015092Y008030D02*
X000700Y008030D01*
X000700Y008129D02*
X015092Y008129D01*
X015092Y008227D02*
X000700Y008227D01*
X000700Y008326D02*
X015092Y008326D01*
X015092Y008424D02*
X000700Y008424D01*
X000700Y008523D02*
X015092Y008523D01*
X015092Y008621D02*
X000700Y008621D01*
X000700Y008720D02*
X015092Y008720D01*
X015092Y008818D02*
X000700Y008818D01*
X000700Y008917D02*
X015092Y008917D01*
X015092Y009015D02*
X000700Y009015D01*
X000700Y009114D02*
X015092Y009114D01*
X015092Y009212D02*
X000700Y009212D01*
X000700Y009311D02*
X015092Y009311D01*
X015092Y009409D02*
X000700Y009409D01*
X000700Y009508D02*
X015092Y009508D01*
X015092Y009606D02*
X000700Y009606D01*
X000700Y009705D02*
X015092Y009705D01*
X015092Y009803D02*
X000700Y009803D01*
X000700Y009902D02*
X015092Y009902D01*
X015092Y010000D02*
X000700Y010000D01*
X000700Y010099D02*
X015092Y010099D01*
X015092Y010197D02*
X000700Y010197D01*
X000700Y010296D02*
X015092Y010296D01*
X015092Y010394D02*
X000700Y010394D01*
X000700Y010493D02*
X015092Y010493D01*
X015092Y010591D02*
X000700Y010591D01*
X000700Y010690D02*
X015092Y010690D01*
X015092Y010788D02*
X000700Y010788D01*
X000700Y010887D02*
X015092Y010887D01*
X015092Y010985D02*
X000700Y010985D01*
X000700Y011084D02*
X015092Y011084D01*
X015092Y011182D02*
X000700Y011182D01*
X000700Y011281D02*
X015092Y011281D01*
X015092Y011379D02*
X000700Y011379D01*
X000700Y011478D02*
X015092Y011478D01*
X015092Y011576D02*
X000700Y011576D01*
X000700Y011675D02*
X015092Y011675D01*
X015092Y011773D02*
X000700Y011773D01*
X000700Y011872D02*
X015092Y011872D01*
X015092Y011970D02*
X000700Y011970D01*
X000700Y012069D02*
X015092Y012069D01*
X015092Y012167D02*
X000700Y012167D01*
X000700Y012266D02*
X015092Y012266D01*
X015092Y012364D02*
X000700Y012364D01*
X000700Y012463D02*
X015092Y012463D01*
X015092Y012561D02*
X000700Y012561D01*
X000700Y012660D02*
X015092Y012660D01*
X015092Y012758D02*
X000700Y012758D01*
X000700Y012857D02*
X015092Y012857D01*
X015092Y012955D02*
X000700Y012955D01*
X000700Y013054D02*
X015092Y013054D01*
X015092Y013152D02*
X000700Y013152D01*
X000700Y013251D02*
X015092Y013251D01*
X015092Y013349D02*
X000700Y013349D01*
X000700Y013448D02*
X015092Y013448D01*
X015072Y013546D02*
X000700Y013546D01*
X005259Y006257D02*
X015092Y006257D01*
X015092Y006159D02*
X005425Y006159D01*
X005523Y006060D02*
X015092Y006060D01*
X015092Y005962D02*
X005585Y005962D01*
X005626Y005863D02*
X015092Y005863D01*
X015092Y005765D02*
X005660Y005765D01*
X005660Y005666D02*
X015092Y005666D01*
X015092Y005568D02*
X005660Y005568D01*
X005639Y005469D02*
X015092Y005469D01*
X015092Y005371D02*
X005599Y005371D01*
X005555Y005272D02*
X015092Y005272D01*
X015092Y005174D02*
X005510Y005174D01*
X005608Y005075D02*
X015092Y005075D01*
X015092Y004977D02*
X005679Y004977D01*
X005720Y004878D02*
X015092Y004878D01*
X015092Y004780D02*
X005760Y004780D01*
X005760Y004681D02*
X015092Y004681D01*
X015092Y004583D02*
X005760Y004583D01*
X005746Y004484D02*
X015092Y004484D01*
X015092Y004386D02*
X005705Y004386D01*
X005664Y004287D02*
X015092Y004287D01*
X015092Y004189D02*
X005572Y004189D01*
X005493Y004090D02*
X015092Y004090D01*
X015092Y003992D02*
X005573Y003992D01*
X005614Y003893D02*
X015092Y003893D01*
X015092Y003795D02*
X005655Y003795D01*
X005660Y003696D02*
X015092Y003696D01*
X015092Y003598D02*
X005660Y003598D01*
X005652Y003499D02*
X015092Y003499D01*
X015092Y003401D02*
X005611Y003401D01*
X005570Y003302D02*
X015092Y003302D01*
X015092Y003204D02*
X005487Y003204D01*
X005578Y003105D02*
X015092Y003105D01*
X015092Y003007D02*
X005667Y003007D01*
X005708Y002908D02*
X015092Y002908D01*
X015092Y002810D02*
X005748Y002810D01*
X005760Y002711D02*
X015092Y002711D01*
X015092Y002613D02*
X005760Y002613D01*
X005758Y002514D02*
X015092Y002514D01*
X015092Y002416D02*
X005717Y002416D01*
X005676Y002317D02*
X015092Y002317D01*
X015092Y002219D02*
X005602Y002219D01*
X005503Y002120D02*
X015092Y002120D01*
X015092Y002022D02*
X005307Y002022D01*
M02*
