G75*
G70*
%OFA0B0*%
%FSLAX24Y24*%
%IPPOS*%
%LPD*%
%AMOC8*
5,1,8,0,0,1.08239X$1,22.5*
%
%ADD10R,0.0220X0.0572*%
%ADD11R,0.0572X0.0220*%
%ADD12R,0.1320X0.1320*%
%ADD13R,0.0395X0.0552*%
%ADD14R,0.0789X0.0710*%
%ADD15R,0.0710X0.0789*%
%ADD16C,0.0820*%
%ADD17R,0.0631X0.0552*%
%ADD18R,0.0476X0.0476*%
D10*
X007540Y010159D03*
X007790Y010159D03*
X008050Y010159D03*
X008310Y010159D03*
X008560Y010159D03*
X008560Y012141D03*
X008310Y012141D03*
X008050Y012141D03*
X007790Y012141D03*
X007540Y012141D03*
X011540Y010141D03*
X011790Y010141D03*
X012050Y010141D03*
X012310Y010141D03*
X012560Y010141D03*
X012560Y008159D03*
X012310Y008159D03*
X012050Y008159D03*
X011790Y008159D03*
X011540Y008159D03*
D11*
X011059Y008640D03*
X011059Y008890D03*
X011059Y009150D03*
X011059Y009410D03*
X011059Y009660D03*
X013041Y009660D03*
X013041Y009410D03*
X013041Y009150D03*
X013041Y008890D03*
X013041Y008640D03*
X009041Y010640D03*
X009041Y010890D03*
X009041Y011150D03*
X009041Y011410D03*
X009041Y011660D03*
X007059Y011660D03*
X007059Y011410D03*
X007059Y011150D03*
X007059Y010890D03*
X007059Y010640D03*
D12*
X008050Y011150D03*
X012050Y009150D03*
D13*
X011796Y011150D03*
X012504Y011150D03*
X009404Y008250D03*
X008696Y008250D03*
X008204Y008250D03*
X007496Y008250D03*
X007896Y009150D03*
X008604Y009150D03*
X006204Y010250D03*
X005496Y010250D03*
X004604Y010250D03*
X003896Y010250D03*
X007696Y012950D03*
X008404Y012950D03*
D14*
X002050Y006901D03*
X002050Y005799D03*
X002050Y003201D03*
X002050Y002099D03*
D15*
X007499Y003150D03*
X007499Y004150D03*
X007499Y005150D03*
X007499Y006150D03*
X007499Y007150D03*
X008601Y007150D03*
X008601Y006150D03*
X008601Y005150D03*
X008601Y004150D03*
X008601Y003150D03*
X010999Y002650D03*
X010999Y003650D03*
X010999Y004650D03*
X010999Y005650D03*
X010999Y006650D03*
X012101Y006650D03*
X012101Y005650D03*
X012101Y004650D03*
X012101Y003650D03*
X012101Y002650D03*
D16*
X001000Y001650D03*
X001100Y002650D03*
X001000Y003650D03*
X001100Y004650D03*
X001000Y005650D03*
X001100Y006650D03*
X005000Y005650D03*
X005100Y004650D03*
X005000Y003650D03*
X005100Y002650D03*
X005000Y001650D03*
X005100Y006650D03*
D17*
X005850Y008159D03*
X005850Y009341D03*
X004150Y009341D03*
X004150Y008159D03*
D18*
X008050Y011150D03*
X012050Y009150D03*
M02*
