G75*
G70*
%OFA0B0*%
%FSLAX24Y24*%
%IPPOS*%
%LPD*%
%AMOC8*
5,1,8,0,0,1.08239X$1,22.5*
%
%ADD10C,0.0000*%
%ADD11C,0.0030*%
%ADD12C,0.0060*%
%ADD13C,0.0080*%
%ADD14C,0.0050*%
D10*
X007040Y010140D02*
X009060Y010140D01*
X009060Y012160D01*
X007040Y012160D01*
X007040Y010140D01*
X007040Y010560D02*
X007040Y010710D01*
X007040Y010640D02*
X007540Y010140D01*
X007610Y010140D02*
X007460Y010140D01*
X007720Y010140D02*
X007870Y010140D01*
X007980Y010140D02*
X008120Y010140D01*
X008230Y010140D02*
X008380Y010140D01*
X008490Y010140D02*
X008640Y010140D01*
X009060Y010560D02*
X009060Y010710D01*
X009060Y010820D02*
X009060Y010970D01*
X009060Y011080D02*
X009060Y011220D01*
X009060Y011330D02*
X009060Y011480D01*
X009060Y011590D02*
X009060Y011740D01*
X008640Y012160D02*
X008490Y012160D01*
X008380Y012160D02*
X008230Y012160D01*
X008120Y012160D02*
X007980Y012160D01*
X007870Y012160D02*
X007720Y012160D01*
X007610Y012160D02*
X007460Y012160D01*
X007040Y011740D02*
X007040Y011590D01*
X007040Y011480D02*
X007040Y011330D01*
X007040Y011220D02*
X007040Y011080D01*
X007040Y010970D02*
X007040Y010820D01*
X011040Y010160D02*
X011040Y008140D01*
X013060Y008140D01*
X013060Y010160D01*
X011040Y010160D01*
X011460Y010160D02*
X011610Y010160D01*
X011720Y010160D02*
X011870Y010160D01*
X011980Y010160D02*
X012120Y010160D01*
X012230Y010160D02*
X012380Y010160D01*
X012490Y010160D02*
X012640Y010160D01*
X013060Y009740D02*
X013060Y009590D01*
X013060Y009480D02*
X013060Y009330D01*
X013060Y009220D02*
X013060Y009080D01*
X013060Y008970D02*
X013060Y008820D01*
X013060Y008710D02*
X013060Y008560D01*
X012640Y008140D02*
X012490Y008140D01*
X012380Y008140D02*
X012230Y008140D01*
X012120Y008140D02*
X011980Y008140D01*
X011870Y008140D02*
X011720Y008140D01*
X011610Y008140D02*
X011460Y008140D01*
X011540Y008140D02*
X011040Y008640D01*
X011040Y008710D02*
X011040Y008560D01*
X011040Y008820D02*
X011040Y008970D01*
X011040Y009080D02*
X011040Y009220D01*
X011040Y009330D02*
X011040Y009480D01*
X011040Y009590D02*
X011040Y009740D01*
D11*
X011103Y007859D02*
X011417Y007545D01*
X011417Y007702D02*
X011103Y007702D01*
X011103Y007545D02*
X011417Y007859D01*
X011260Y007859D02*
X011260Y007545D01*
X007417Y009545D02*
X007103Y009859D01*
X007260Y009859D02*
X007260Y009545D01*
X007103Y009545D02*
X007417Y009859D01*
X007417Y009702D02*
X007103Y009702D01*
D12*
X008132Y009386D02*
X008368Y009386D01*
X008368Y008914D02*
X008132Y008914D01*
X007968Y008486D02*
X007732Y008486D01*
X007732Y008014D02*
X007968Y008014D01*
X008932Y008014D02*
X009168Y008014D01*
X009168Y008486D02*
X008932Y008486D01*
X005968Y010014D02*
X005732Y010014D01*
X005732Y010486D02*
X005968Y010486D01*
X004368Y010486D02*
X004132Y010486D01*
X004132Y010014D02*
X004368Y010014D01*
X007932Y012714D02*
X008168Y012714D01*
X008168Y013186D02*
X007932Y013186D01*
X012032Y011386D02*
X012268Y011386D01*
X012268Y010914D02*
X012032Y010914D01*
D13*
X001550Y001150D02*
X000550Y001150D01*
X000550Y002150D01*
X000800Y002150D01*
X001300Y002150D01*
X001550Y002150D01*
X001550Y001150D01*
X001300Y002150D02*
X001550Y002400D01*
X001550Y002900D01*
X001300Y003150D01*
X000800Y003150D01*
X000550Y003400D01*
X000550Y003900D01*
X000800Y004150D01*
X001300Y004150D01*
X001550Y003900D01*
X001550Y003400D01*
X001300Y003150D01*
X000800Y003150D02*
X000550Y002900D01*
X000550Y002400D01*
X000800Y002150D01*
X000800Y004150D02*
X000550Y004400D01*
X000550Y004900D01*
X000800Y005150D01*
X001300Y005150D01*
X001550Y004900D01*
X001550Y004400D01*
X001300Y004150D01*
X001300Y005150D02*
X001550Y005400D01*
X001550Y005900D01*
X001300Y006150D01*
X000800Y006150D01*
X000550Y006400D01*
X000550Y006900D01*
X000800Y007150D01*
X001300Y007150D01*
X001550Y006900D01*
X001550Y006400D01*
X001300Y006150D01*
X000800Y006150D02*
X000550Y005900D01*
X000550Y005400D01*
X000800Y005150D01*
X003756Y007805D02*
X004544Y007805D01*
X004544Y008356D01*
X004386Y008632D02*
X004150Y008868D01*
X003914Y008632D01*
X004386Y008632D01*
X004426Y008868D02*
X004150Y008868D01*
X003874Y008868D01*
X003756Y009144D02*
X003756Y009695D01*
X004544Y009695D01*
X004544Y009144D01*
X004410Y009465D02*
X004130Y009465D01*
X004270Y009465D02*
X004270Y009885D01*
X004130Y009745D01*
X003949Y009675D02*
X003879Y009605D01*
X003669Y009605D01*
X003560Y009601D02*
X003560Y009321D01*
X003560Y009461D02*
X003140Y009461D01*
X003280Y009321D01*
X003210Y009141D02*
X003140Y009071D01*
X003140Y008861D01*
X003560Y008861D01*
X003560Y009071D01*
X003490Y009141D01*
X003210Y009141D01*
X003140Y008681D02*
X003140Y008400D01*
X003560Y008400D01*
X003560Y008681D01*
X003350Y008541D02*
X003350Y008400D01*
X003560Y008220D02*
X003560Y007940D01*
X003140Y007940D01*
X003756Y007805D02*
X003756Y008356D01*
X003669Y009465D02*
X003669Y009885D01*
X003879Y009885D01*
X003949Y009815D01*
X003949Y009675D01*
X003809Y009605D02*
X003949Y009465D01*
X005456Y009695D02*
X005456Y009144D01*
X005614Y008868D02*
X005850Y008632D01*
X006086Y008868D01*
X005614Y008868D01*
X005574Y008632D02*
X005850Y008632D01*
X006126Y008632D01*
X006119Y008385D02*
X005909Y008385D01*
X005909Y007965D01*
X005909Y008105D02*
X006119Y008105D01*
X006189Y008175D01*
X006189Y008315D01*
X006119Y008385D01*
X006244Y008356D02*
X006244Y007805D01*
X005456Y007805D01*
X005456Y008356D01*
X006049Y008105D02*
X006189Y007965D01*
X006369Y007965D02*
X006649Y008245D01*
X006649Y008315D01*
X006579Y008385D01*
X006439Y008385D01*
X006369Y008315D01*
X006440Y008259D02*
X006860Y008259D01*
X006860Y008539D01*
X006900Y008385D02*
X007040Y008385D01*
X007110Y008315D01*
X007110Y008245D01*
X007040Y008175D01*
X007110Y008105D01*
X007110Y008035D01*
X007040Y007965D01*
X006900Y007965D01*
X006830Y008035D01*
X006860Y008079D02*
X006860Y007798D01*
X006440Y007798D01*
X006369Y007965D02*
X006649Y007965D01*
X006650Y008259D02*
X006650Y008399D01*
X006830Y008315D02*
X006900Y008385D01*
X006970Y008175D02*
X007040Y008175D01*
X006860Y008719D02*
X006440Y008719D01*
X006440Y008929D01*
X006510Y008999D01*
X006790Y008999D01*
X006860Y008929D01*
X006860Y008719D01*
X006440Y008539D02*
X006440Y008259D01*
X006244Y009144D02*
X006244Y009695D01*
X005456Y009695D01*
X005590Y010615D02*
X005590Y011035D01*
X005800Y011035D01*
X005870Y010965D01*
X005870Y010825D01*
X005800Y010755D01*
X005590Y010755D01*
X005730Y010755D02*
X005870Y010615D01*
X006050Y010615D02*
X006331Y010895D01*
X006331Y010965D01*
X006261Y011035D01*
X006120Y011035D01*
X006050Y010965D01*
X006050Y010615D02*
X006331Y010615D01*
X007490Y009865D02*
X007490Y009585D01*
X007560Y009515D01*
X007700Y009515D01*
X007770Y009585D01*
X007950Y009585D02*
X008020Y009515D01*
X008161Y009515D01*
X008231Y009585D01*
X008231Y009655D01*
X008161Y009725D01*
X008091Y009725D01*
X008161Y009725D02*
X008231Y009795D01*
X008231Y009865D01*
X008161Y009935D01*
X008020Y009935D01*
X007950Y009865D01*
X007770Y009865D02*
X007700Y009935D01*
X007560Y009935D01*
X007490Y009865D01*
X006860Y009460D02*
X006860Y009180D01*
X006580Y009460D01*
X006510Y009460D01*
X006440Y009390D01*
X006440Y009250D01*
X006510Y009180D01*
X008411Y009515D02*
X008691Y009515D01*
X008551Y009515D02*
X008551Y009935D01*
X008411Y009795D01*
X009090Y009135D02*
X009300Y009135D01*
X009370Y009065D01*
X009370Y008925D01*
X009300Y008855D01*
X009090Y008855D01*
X009090Y008715D02*
X009090Y009135D01*
X009230Y008855D02*
X009370Y008715D01*
X009550Y008715D02*
X009831Y008995D01*
X009831Y009065D01*
X009761Y009135D01*
X009620Y009135D01*
X009550Y009065D01*
X009550Y008715D02*
X009831Y008715D01*
X010011Y008925D02*
X010291Y008925D01*
X010221Y008715D02*
X010221Y009135D01*
X010011Y008925D01*
X011460Y011515D02*
X011600Y011515D01*
X011670Y011585D01*
X011850Y011515D02*
X012131Y011795D01*
X012131Y011865D01*
X012061Y011935D01*
X011920Y011935D01*
X011850Y011865D01*
X011670Y011865D02*
X011600Y011935D01*
X011460Y011935D01*
X011390Y011865D01*
X011390Y011585D01*
X011460Y011515D01*
X011850Y011515D02*
X012131Y011515D01*
X012311Y011585D02*
X012311Y011655D01*
X012381Y011725D01*
X012521Y011725D01*
X012591Y011655D01*
X012591Y011585D01*
X012521Y011515D01*
X012381Y011515D01*
X012311Y011585D01*
X012381Y011725D02*
X012311Y011795D01*
X012311Y011865D01*
X012381Y011935D01*
X012521Y011935D01*
X012591Y011865D01*
X012591Y011795D01*
X012521Y011725D01*
X008491Y013385D02*
X008421Y013315D01*
X008281Y013315D01*
X008211Y013385D01*
X008491Y013665D01*
X008491Y013385D01*
X008211Y013385D02*
X008211Y013665D01*
X008281Y013735D01*
X008421Y013735D01*
X008491Y013665D01*
X008031Y013665D02*
X008031Y013595D01*
X007961Y013525D01*
X008031Y013455D01*
X008031Y013385D01*
X007961Y013315D01*
X007820Y013315D01*
X007750Y013385D01*
X007570Y013385D02*
X007500Y013315D01*
X007360Y013315D01*
X007290Y013385D01*
X007290Y013665D01*
X007360Y013735D01*
X007500Y013735D01*
X007570Y013665D01*
X007750Y013665D02*
X007820Y013735D01*
X007961Y013735D01*
X008031Y013665D01*
X007961Y013525D02*
X007891Y013525D01*
X005300Y007150D02*
X004800Y007150D01*
X004550Y006900D01*
X004550Y006400D01*
X004800Y006150D01*
X005300Y006150D01*
X005550Y005900D01*
X005550Y005400D01*
X005300Y005150D01*
X004800Y005150D01*
X004550Y005400D01*
X004550Y005900D01*
X004800Y006150D01*
X005300Y006150D02*
X005550Y006400D01*
X005550Y006900D01*
X005300Y007150D01*
X005300Y005150D02*
X005550Y004900D01*
X005550Y004400D01*
X005300Y004150D01*
X004800Y004150D01*
X004550Y004400D01*
X004550Y004900D01*
X004800Y005150D01*
X004800Y004150D02*
X004550Y003900D01*
X004550Y003400D01*
X004800Y003150D01*
X005300Y003150D01*
X005550Y002900D01*
X005550Y002400D01*
X005300Y002150D01*
X005550Y002150D01*
X005550Y001150D01*
X004550Y001150D01*
X004550Y002150D01*
X004800Y002150D01*
X005300Y002150D01*
X004800Y002150D02*
X004550Y002400D01*
X004550Y002900D01*
X004800Y003150D01*
X005300Y003150D02*
X005550Y003400D01*
X005550Y003900D01*
X005300Y004150D01*
D14*
X002975Y003015D02*
X002975Y002715D01*
X002675Y003015D01*
X002600Y003015D01*
X002525Y002940D01*
X002525Y002790D01*
X002600Y002715D01*
X002600Y002554D02*
X002525Y002479D01*
X002525Y002329D01*
X002600Y002254D01*
X002900Y002254D01*
X002975Y002329D01*
X002975Y002479D01*
X002900Y002554D01*
X002900Y005494D02*
X002600Y005494D01*
X002525Y005569D01*
X002525Y005719D01*
X002600Y005794D01*
X002675Y005954D02*
X002525Y006104D01*
X002975Y006104D01*
X002975Y005954D02*
X002975Y006254D01*
X002975Y006415D02*
X002675Y006715D01*
X002600Y006715D01*
X002525Y006640D01*
X002525Y006490D01*
X002600Y006415D01*
X002975Y006415D02*
X002975Y006715D01*
X002900Y005794D02*
X002975Y005719D01*
X002975Y005569D01*
X002900Y005494D01*
X009125Y005361D02*
X009125Y005210D01*
X009200Y005135D01*
X009275Y005135D01*
X009350Y005210D01*
X009350Y005361D01*
X009425Y005436D01*
X009500Y005436D01*
X009575Y005361D01*
X009575Y005210D01*
X009500Y005135D01*
X009425Y005135D01*
X009350Y005210D01*
X009350Y005361D02*
X009275Y005436D01*
X009200Y005436D01*
X009125Y005361D01*
X009200Y005675D02*
X009500Y005675D01*
X009575Y005750D01*
X009575Y005900D01*
X009500Y005975D01*
X009500Y006135D02*
X009575Y006135D01*
X009500Y006135D02*
X009200Y006436D01*
X009125Y006436D01*
X009125Y006135D01*
X009200Y005975D02*
X009125Y005900D01*
X009125Y005750D01*
X009200Y005675D01*
X009200Y004975D02*
X009125Y004900D01*
X009125Y004750D01*
X009200Y004675D01*
X009500Y004675D01*
X009575Y004750D01*
X009575Y004900D01*
X009500Y004975D01*
X009500Y004436D02*
X009200Y004436D01*
X009125Y004361D01*
X009125Y004210D01*
X009200Y004135D01*
X009275Y004135D01*
X009350Y004210D01*
X009350Y004436D01*
X009500Y004436D02*
X009575Y004361D01*
X009575Y004210D01*
X009500Y004135D01*
X009500Y003975D02*
X009575Y003900D01*
X009575Y003750D01*
X009500Y003675D01*
X009200Y003675D01*
X009125Y003750D01*
X009125Y003900D01*
X009200Y003975D01*
X009575Y003596D02*
X009575Y003296D01*
X009575Y003446D02*
X009125Y003446D01*
X009275Y003296D01*
X009575Y003136D02*
X009575Y002835D01*
X009575Y002986D02*
X009125Y002986D01*
X009275Y002835D01*
X009200Y002675D02*
X009125Y002600D01*
X009125Y002450D01*
X009200Y002375D01*
X009500Y002375D01*
X009575Y002450D01*
X009575Y002600D01*
X009500Y002675D01*
X012725Y002915D02*
X012800Y002765D01*
X012950Y002615D01*
X012950Y002840D01*
X013025Y002915D01*
X013100Y002915D01*
X013175Y002840D01*
X013175Y002690D01*
X013100Y002615D01*
X012950Y002615D01*
X013100Y002454D02*
X013175Y002379D01*
X013175Y002229D01*
X013100Y002154D01*
X012800Y002154D01*
X012725Y002229D01*
X012725Y002379D01*
X012800Y002454D01*
X012800Y003154D02*
X013100Y003154D01*
X013175Y003229D01*
X013175Y003379D01*
X013100Y003454D01*
X013100Y003615D02*
X013175Y003690D01*
X013175Y003840D01*
X013100Y003915D01*
X012950Y003915D01*
X012875Y003840D01*
X012875Y003765D01*
X012950Y003615D01*
X012725Y003615D01*
X012725Y003915D01*
X012800Y004154D02*
X013100Y004154D01*
X013175Y004229D01*
X013175Y004379D01*
X013100Y004454D01*
X012950Y004615D02*
X012950Y004915D01*
X013175Y004840D02*
X012725Y004840D01*
X012950Y004615D01*
X012800Y004454D02*
X012725Y004379D01*
X012725Y004229D01*
X012800Y004154D01*
X012800Y003454D02*
X012725Y003379D01*
X012725Y003229D01*
X012800Y003154D01*
X012800Y005154D02*
X013100Y005154D01*
X013175Y005229D01*
X013175Y005379D01*
X013100Y005454D01*
X013100Y005615D02*
X013175Y005690D01*
X013175Y005840D01*
X013100Y005915D01*
X013025Y005915D01*
X012950Y005840D01*
X012950Y005765D01*
X012950Y005840D02*
X012875Y005915D01*
X012800Y005915D01*
X012725Y005840D01*
X012725Y005690D01*
X012800Y005615D01*
X012800Y005454D02*
X012725Y005379D01*
X012725Y005229D01*
X012800Y005154D01*
X012800Y006254D02*
X013100Y006254D01*
X013175Y006329D01*
X013175Y006479D01*
X013100Y006554D01*
X013175Y006715D02*
X013175Y007015D01*
X013175Y006865D02*
X012725Y006865D01*
X012875Y006715D01*
X012800Y006554D02*
X012725Y006479D01*
X012725Y006329D01*
X012800Y006254D01*
X009575Y006750D02*
X009500Y006675D01*
X009200Y006675D01*
X009125Y006750D01*
X009125Y006900D01*
X009200Y006975D01*
X009275Y007135D02*
X009125Y007286D01*
X009575Y007286D01*
X009575Y007436D02*
X009575Y007135D01*
X009500Y006975D02*
X009575Y006900D01*
X009575Y006750D01*
X009500Y007596D02*
X009200Y007596D01*
X009125Y007671D01*
X009125Y007821D01*
X009200Y007896D01*
X009500Y007596D01*
X009575Y007671D01*
X009575Y007821D01*
X009500Y007896D01*
X009200Y007896D01*
M02*
