G75*
G70*
%OFA0B0*%
%FSLAX24Y24*%
%IPPOS*%
%LPD*%
%AMOC8*
5,1,8,0,0,1.08239X$1,22.5*
%
%ADD10C,0.0000*%
%ADD11R,0.0140X0.0492*%
%ADD12R,0.0492X0.0140*%
%ADD13R,0.1240X0.1240*%
%ADD14R,0.0315X0.0472*%
%ADD15R,0.0709X0.0630*%
%ADD16R,0.0630X0.0709*%
%ADD17C,0.0740*%
%ADD18R,0.0551X0.0472*%
%ADD19C,0.0100*%
%ADD20C,0.0140*%
%ADD21R,0.0396X0.0396*%
%ADD22C,0.0320*%
%ADD23C,0.0160*%
D10*
X000250Y000733D02*
X000250Y013544D01*
X000252Y013585D01*
X000257Y013627D01*
X000266Y013667D01*
X000279Y013707D01*
X000295Y013745D01*
X000314Y013782D01*
X000336Y013817D01*
X000361Y013850D01*
X000389Y013881D01*
X000420Y013909D01*
X000453Y013934D01*
X000488Y013956D01*
X000525Y013975D01*
X000563Y013991D01*
X000603Y014004D01*
X000643Y014013D01*
X000685Y014018D01*
X000726Y014020D01*
X015018Y014020D01*
X015061Y014018D01*
X015104Y014013D01*
X015147Y014004D01*
X015188Y013992D01*
X015228Y013976D01*
X015267Y013957D01*
X015305Y013935D01*
X015340Y013910D01*
X015373Y013882D01*
X015404Y013851D01*
X015432Y013818D01*
X015457Y013783D01*
X015479Y013745D01*
X015498Y013706D01*
X015514Y013666D01*
X015526Y013625D01*
X015535Y013582D01*
X015540Y013539D01*
X015542Y013496D01*
X015542Y000852D01*
X015543Y000852D02*
X015541Y000802D01*
X015536Y000752D01*
X015527Y000703D01*
X015515Y000654D01*
X015499Y000607D01*
X015480Y000560D01*
X015457Y000516D01*
X015432Y000472D01*
X015403Y000431D01*
X015372Y000392D01*
X015337Y000356D01*
X015301Y000321D01*
X015262Y000290D01*
X015221Y000261D01*
X015177Y000236D01*
X015133Y000213D01*
X015086Y000194D01*
X015039Y000178D01*
X014990Y000166D01*
X014941Y000157D01*
X014891Y000152D01*
X014841Y000150D01*
X000833Y000150D01*
X000785Y000152D01*
X000737Y000158D01*
X000690Y000168D01*
X000644Y000182D01*
X000599Y000199D01*
X000556Y000220D01*
X000514Y000245D01*
X000475Y000273D01*
X000438Y000304D01*
X000404Y000338D01*
X000373Y000375D01*
X000345Y000414D01*
X000320Y000456D01*
X000299Y000499D01*
X000282Y000544D01*
X000268Y000590D01*
X000258Y000637D01*
X000252Y000685D01*
X000250Y000733D01*
D11*
X007540Y010159D03*
X007790Y010159D03*
X008050Y010159D03*
X008310Y010159D03*
X008560Y010159D03*
X008560Y012141D03*
X008310Y012141D03*
X008050Y012141D03*
X007790Y012141D03*
X007540Y012141D03*
X011540Y010141D03*
X011790Y010141D03*
X012050Y010141D03*
X012310Y010141D03*
X012560Y010141D03*
X012560Y008159D03*
X012310Y008159D03*
X012050Y008159D03*
X011790Y008159D03*
X011540Y008159D03*
D12*
X011059Y008640D03*
X011059Y008890D03*
X011059Y009150D03*
X011059Y009410D03*
X011059Y009660D03*
X013041Y009660D03*
X013041Y009410D03*
X013041Y009150D03*
X013041Y008890D03*
X013041Y008640D03*
X009041Y010640D03*
X009041Y010890D03*
X009041Y011150D03*
X009041Y011410D03*
X009041Y011660D03*
X007059Y011660D03*
X007059Y011410D03*
X007059Y011150D03*
X007059Y010890D03*
X007059Y010640D03*
D13*
X008050Y011150D03*
X012050Y009150D03*
D14*
X011796Y011150D03*
X012504Y011150D03*
X009404Y008250D03*
X008696Y008250D03*
X008204Y008250D03*
X007496Y008250D03*
X007896Y009150D03*
X008604Y009150D03*
X006204Y010250D03*
X005496Y010250D03*
X004604Y010250D03*
X003896Y010250D03*
X007696Y012950D03*
X008404Y012950D03*
D15*
X002050Y006901D03*
X002050Y005799D03*
X002050Y003201D03*
X002050Y002099D03*
D16*
X007499Y003150D03*
X007499Y004150D03*
X007499Y005150D03*
X007499Y006150D03*
X007499Y007150D03*
X008601Y007150D03*
X008601Y006150D03*
X008601Y005150D03*
X008601Y004150D03*
X008601Y003150D03*
X010999Y002650D03*
X010999Y003650D03*
X010999Y004650D03*
X010999Y005650D03*
X010999Y006650D03*
X012101Y006650D03*
X012101Y005650D03*
X012101Y004650D03*
X012101Y003650D03*
X012101Y002650D03*
D17*
X005100Y002650D03*
X005000Y001650D03*
X005000Y003650D03*
X005100Y004650D03*
X005000Y005650D03*
X005100Y006650D03*
X001100Y006650D03*
X001000Y005650D03*
X001100Y004650D03*
X001000Y003650D03*
X001100Y002650D03*
X001000Y001650D03*
D18*
X004150Y008159D03*
X004150Y009341D03*
X005850Y009341D03*
X005850Y008159D03*
D19*
X000715Y000673D02*
X000739Y000639D01*
X000773Y000615D01*
X000812Y000602D01*
X000833Y000600D01*
X003464Y000600D01*
X003169Y000895D01*
X003100Y001060D01*
X003100Y002566D01*
X002915Y002751D01*
X002662Y002751D01*
X002650Y002722D01*
X002569Y002640D01*
X002462Y002596D01*
X001760Y002596D01*
X001760Y002519D01*
X001660Y002276D01*
X001474Y002090D01*
X001231Y001990D01*
X000969Y001990D01*
X000726Y002090D01*
X000700Y002117D01*
X000700Y000733D01*
X000702Y000712D01*
X000715Y000673D01*
X000736Y000643D02*
X003421Y000643D01*
X003323Y000741D02*
X000700Y000741D01*
X000700Y000840D02*
X003224Y000840D01*
X003151Y000938D02*
X000700Y000938D01*
X000700Y001037D02*
X003110Y001037D01*
X003100Y001135D02*
X000700Y001135D01*
X000700Y001234D02*
X003100Y001234D01*
X003100Y001332D02*
X000700Y001332D01*
X000700Y001431D02*
X003100Y001431D01*
X003100Y001529D02*
X000700Y001529D01*
X000700Y001628D02*
X003100Y001628D01*
X003100Y001726D02*
X000700Y001726D01*
X000700Y001825D02*
X003100Y001825D01*
X003100Y001923D02*
X000700Y001923D01*
X000700Y002022D02*
X000893Y002022D01*
X001307Y002022D02*
X003100Y002022D01*
X003100Y002120D02*
X001503Y002120D01*
X001602Y002219D02*
X003100Y002219D01*
X003100Y002317D02*
X001676Y002317D01*
X001717Y002416D02*
X003100Y002416D01*
X003100Y002514D02*
X001758Y002514D01*
X002501Y002613D02*
X003053Y002613D01*
X002955Y002711D02*
X002639Y002711D01*
X003440Y003499D02*
X004178Y003499D01*
X004236Y003440D02*
X004340Y003336D01*
X004431Y003299D01*
X004440Y003276D01*
X004617Y003100D01*
X004540Y003024D01*
X004440Y002781D01*
X004440Y002519D01*
X004540Y002276D01*
X004726Y002090D01*
X004969Y001990D01*
X005231Y001990D01*
X005474Y002090D01*
X005583Y002200D01*
X005864Y002200D01*
X006469Y001595D01*
X006595Y001469D01*
X006760Y001400D01*
X012040Y001400D01*
X012205Y001469D01*
X012331Y001595D01*
X012483Y001746D01*
X012551Y001912D01*
X012551Y002038D01*
X012580Y002050D01*
X012662Y002131D01*
X012706Y002238D01*
X012706Y003062D01*
X012670Y003150D01*
X012706Y003238D01*
X012706Y004062D01*
X012670Y004150D01*
X012706Y004238D01*
X012706Y005062D01*
X012670Y005150D01*
X012706Y005238D01*
X012706Y006062D01*
X012670Y006150D01*
X012706Y006238D01*
X012706Y007062D01*
X012662Y007169D01*
X012580Y007250D01*
X012514Y007278D01*
X012483Y007354D01*
X012431Y007405D01*
X012410Y007426D01*
X012410Y007632D01*
X012432Y007623D01*
X012688Y007623D01*
X012794Y007667D01*
X012876Y007748D01*
X012920Y007855D01*
X012920Y008463D01*
X012876Y008569D01*
X012794Y008651D01*
X012688Y008695D01*
X012432Y008695D01*
X012326Y008651D01*
X012305Y008630D01*
X012284Y008651D01*
X012178Y008695D01*
X011922Y008695D01*
X011920Y008694D01*
X011918Y008695D01*
X011595Y008695D01*
X011595Y009018D01*
X011594Y009020D01*
X011595Y009022D01*
X011595Y009278D01*
X011594Y009280D01*
X011595Y009282D01*
X011595Y009605D01*
X011918Y009605D01*
X011920Y009606D01*
X011922Y009605D01*
X012178Y009605D01*
X012180Y009606D01*
X012182Y009605D01*
X012438Y009605D01*
X012505Y009633D01*
X012505Y009532D01*
X012549Y009426D01*
X012570Y009405D01*
X012549Y009384D01*
X012505Y009278D01*
X012505Y009022D01*
X012549Y008916D01*
X012631Y008834D01*
X012737Y008790D01*
X013345Y008790D01*
X013452Y008834D01*
X013533Y008916D01*
X013577Y009022D01*
X013577Y009278D01*
X013533Y009384D01*
X013512Y009405D01*
X013533Y009426D01*
X013577Y009532D01*
X013577Y009788D01*
X013533Y009894D01*
X013452Y009976D01*
X013345Y010020D01*
X012737Y010020D01*
X012670Y009992D01*
X012670Y010445D01*
X012626Y010552D01*
X012544Y010633D01*
X012499Y010652D01*
X012510Y010678D01*
X012510Y011622D01*
X012455Y011754D01*
X012155Y012054D01*
X012054Y012155D01*
X011922Y012210D01*
X011400Y012210D01*
X011400Y012664D01*
X011436Y012700D01*
X014364Y012700D01*
X014600Y012464D01*
X014600Y001836D01*
X013864Y001100D01*
X004236Y001100D01*
X004000Y001336D01*
X004000Y002842D01*
X003931Y003007D01*
X003805Y003134D01*
X003483Y003456D01*
X003356Y003583D01*
X003191Y003651D01*
X002662Y003651D01*
X002650Y003680D01*
X002569Y003762D01*
X002462Y003806D01*
X001650Y003806D01*
X001560Y004024D01*
X001483Y004100D01*
X001660Y004276D01*
X001760Y004519D01*
X001760Y004781D01*
X001660Y005024D01*
X001483Y005200D01*
X001623Y005200D01*
X001638Y005194D01*
X002462Y005194D01*
X002569Y005238D01*
X002650Y005320D01*
X002667Y005360D01*
X002805Y005417D01*
X003431Y006044D01*
X003500Y006209D01*
X003500Y009842D01*
X003526Y009816D01*
X003526Y009521D01*
X003582Y009385D01*
X003584Y009383D01*
X003584Y009047D01*
X003629Y008940D01*
X003710Y008858D01*
X003817Y008814D01*
X004483Y008814D01*
X004590Y008858D01*
X004671Y008940D01*
X004716Y009047D01*
X004716Y009634D01*
X004671Y009741D01*
X004590Y009823D01*
X004483Y009867D01*
X004306Y009867D01*
X004343Y009956D01*
X004343Y010544D01*
X004299Y010650D01*
X004217Y010732D01*
X004111Y010776D01*
X003813Y010776D01*
X004236Y011200D01*
X006523Y011200D01*
X006523Y011022D01*
X006524Y011020D01*
X006523Y011018D01*
X006523Y010733D01*
X006419Y010776D01*
X005989Y010776D01*
X005883Y010732D01*
X005801Y010650D01*
X005757Y010544D01*
X005757Y009956D01*
X005794Y009867D01*
X005517Y009867D01*
X005410Y009823D01*
X005329Y009741D01*
X005284Y009634D01*
X005284Y009047D01*
X005329Y008940D01*
X005410Y008858D01*
X005517Y008814D01*
X006183Y008814D01*
X006290Y008858D01*
X006371Y008940D01*
X006416Y009047D01*
X006416Y009383D01*
X006518Y009485D01*
X006574Y009621D01*
X006574Y009816D01*
X006608Y009850D01*
X006652Y009956D01*
X006652Y010323D01*
X006699Y010303D01*
X006699Y009643D01*
X006690Y009622D01*
X006690Y009478D01*
X006745Y009346D01*
X006754Y009337D01*
X007049Y009042D01*
X007049Y008545D01*
X007048Y008544D01*
X007048Y008529D01*
X006384Y008529D01*
X006371Y008560D01*
X006290Y008642D01*
X006183Y008686D01*
X005517Y008686D01*
X005410Y008642D01*
X005329Y008560D01*
X005284Y008453D01*
X005284Y007866D01*
X005329Y007759D01*
X005410Y007677D01*
X005517Y007633D01*
X006183Y007633D01*
X006290Y007677D01*
X006371Y007759D01*
X006384Y007789D01*
X007049Y007789D01*
X007049Y007762D01*
X007020Y007750D01*
X006938Y007669D01*
X006894Y007562D01*
X006894Y006738D01*
X006930Y006650D01*
X006894Y006562D01*
X006894Y005738D01*
X006930Y005650D01*
X006894Y005562D01*
X006894Y004738D01*
X006930Y004650D01*
X006894Y004562D01*
X006894Y004443D01*
X006805Y004531D01*
X006305Y005031D01*
X006140Y005100D01*
X005583Y005100D01*
X005483Y005200D01*
X005560Y005276D01*
X005660Y005519D01*
X005660Y005781D01*
X005560Y006024D01*
X005374Y006210D01*
X005131Y006310D01*
X004869Y006310D01*
X004626Y006210D01*
X004520Y006103D01*
X004520Y007648D01*
X004590Y007677D01*
X004671Y007759D01*
X004716Y007866D01*
X004716Y008453D01*
X004671Y008560D01*
X004590Y008642D01*
X004483Y008686D01*
X003817Y008686D01*
X003710Y008642D01*
X003629Y008560D01*
X003584Y008453D01*
X003584Y007866D01*
X003629Y007759D01*
X003710Y007677D01*
X003780Y007648D01*
X003780Y003976D01*
X003836Y003840D01*
X004236Y003440D01*
X004276Y003401D02*
X003538Y003401D01*
X003483Y003456D02*
X003483Y003456D01*
X003320Y003598D02*
X004079Y003598D01*
X003981Y003696D02*
X002635Y003696D01*
X002490Y003795D02*
X003882Y003795D01*
X003815Y003893D02*
X001614Y003893D01*
X001573Y003992D02*
X003780Y003992D01*
X003780Y004090D02*
X001493Y004090D01*
X001572Y004189D02*
X003780Y004189D01*
X003780Y004287D02*
X001664Y004287D01*
X001705Y004386D02*
X003780Y004386D01*
X003780Y004484D02*
X001746Y004484D01*
X001760Y004583D02*
X003780Y004583D01*
X003780Y004681D02*
X001760Y004681D01*
X001760Y004780D02*
X003780Y004780D01*
X003780Y004878D02*
X001720Y004878D01*
X001679Y004977D02*
X003780Y004977D01*
X003780Y005075D02*
X001608Y005075D01*
X001510Y005174D02*
X003780Y005174D01*
X003780Y005272D02*
X002603Y005272D01*
X002692Y005371D02*
X003780Y005371D01*
X003780Y005469D02*
X002857Y005469D01*
X002955Y005568D02*
X003780Y005568D01*
X003780Y005666D02*
X003054Y005666D01*
X003152Y005765D02*
X003780Y005765D01*
X003780Y005863D02*
X003251Y005863D01*
X003349Y005962D02*
X003780Y005962D01*
X003780Y006060D02*
X003438Y006060D01*
X003479Y006159D02*
X003780Y006159D01*
X003780Y006257D02*
X003500Y006257D01*
X003500Y006356D02*
X003780Y006356D01*
X003780Y006454D02*
X003500Y006454D01*
X003500Y006553D02*
X003780Y006553D01*
X003780Y006651D02*
X003500Y006651D01*
X003500Y006750D02*
X003780Y006750D01*
X003780Y006848D02*
X003500Y006848D01*
X003500Y006947D02*
X003780Y006947D01*
X003780Y007045D02*
X003500Y007045D01*
X003500Y007144D02*
X003780Y007144D01*
X003780Y007242D02*
X003500Y007242D01*
X003500Y007341D02*
X003780Y007341D01*
X003780Y007439D02*
X003500Y007439D01*
X003500Y007538D02*
X003780Y007538D01*
X003780Y007636D02*
X003500Y007636D01*
X003500Y007735D02*
X003653Y007735D01*
X003598Y007833D02*
X003500Y007833D01*
X003500Y007932D02*
X003584Y007932D01*
X003584Y008030D02*
X003500Y008030D01*
X003500Y008129D02*
X003584Y008129D01*
X003584Y008227D02*
X003500Y008227D01*
X003500Y008326D02*
X003584Y008326D01*
X003584Y008424D02*
X003500Y008424D01*
X003500Y008523D02*
X003613Y008523D01*
X003690Y008621D02*
X003500Y008621D01*
X003500Y008720D02*
X007049Y008720D01*
X007049Y008818D02*
X006192Y008818D01*
X006348Y008917D02*
X007049Y008917D01*
X007049Y009015D02*
X006402Y009015D01*
X006416Y009114D02*
X006977Y009114D01*
X006879Y009212D02*
X006416Y009212D01*
X006416Y009311D02*
X006780Y009311D01*
X006719Y009409D02*
X006442Y009409D01*
X006527Y009508D02*
X006690Y009508D01*
X006690Y009606D02*
X006568Y009606D01*
X006574Y009705D02*
X006699Y009705D01*
X006699Y009803D02*
X006574Y009803D01*
X006629Y009902D02*
X006699Y009902D01*
X006699Y010000D02*
X006652Y010000D01*
X006652Y010099D02*
X006699Y010099D01*
X006699Y010197D02*
X006652Y010197D01*
X006652Y010296D02*
X006699Y010296D01*
X006523Y010788D02*
X003824Y010788D01*
X003923Y010887D02*
X006523Y010887D01*
X006523Y010985D02*
X004021Y010985D01*
X004120Y011084D02*
X006523Y011084D01*
X006523Y011182D02*
X004218Y011182D01*
X004260Y010690D02*
X005840Y010690D01*
X005776Y010591D02*
X004324Y010591D01*
X004343Y010493D02*
X005757Y010493D01*
X005757Y010394D02*
X004343Y010394D01*
X004343Y010296D02*
X005757Y010296D01*
X005757Y010197D02*
X004343Y010197D01*
X004343Y010099D02*
X005757Y010099D01*
X005757Y010000D02*
X004343Y010000D01*
X004321Y009902D02*
X005779Y009902D01*
X005391Y009803D02*
X004609Y009803D01*
X004687Y009705D02*
X005313Y009705D01*
X005284Y009606D02*
X004716Y009606D01*
X004716Y009508D02*
X005284Y009508D01*
X005284Y009409D02*
X004716Y009409D01*
X004716Y009311D02*
X005284Y009311D01*
X005284Y009212D02*
X004716Y009212D01*
X004716Y009114D02*
X005284Y009114D01*
X005298Y009015D02*
X004702Y009015D01*
X004648Y008917D02*
X005352Y008917D01*
X005508Y008818D02*
X004492Y008818D01*
X004610Y008621D02*
X005390Y008621D01*
X005313Y008523D02*
X004687Y008523D01*
X004716Y008424D02*
X005284Y008424D01*
X005284Y008326D02*
X004716Y008326D01*
X004716Y008227D02*
X005284Y008227D01*
X005284Y008129D02*
X004716Y008129D01*
X004716Y008030D02*
X005284Y008030D01*
X005284Y007932D02*
X004716Y007932D01*
X004702Y007833D02*
X005298Y007833D01*
X005353Y007735D02*
X004647Y007735D01*
X004520Y007636D02*
X005510Y007636D01*
X006190Y007636D02*
X006925Y007636D01*
X006894Y007538D02*
X004520Y007538D01*
X004520Y007439D02*
X006894Y007439D01*
X006894Y007341D02*
X004520Y007341D01*
X004520Y007242D02*
X006894Y007242D01*
X006894Y007144D02*
X004520Y007144D01*
X004520Y007045D02*
X006894Y007045D01*
X006894Y006947D02*
X004520Y006947D01*
X004520Y006848D02*
X006894Y006848D01*
X006894Y006750D02*
X004520Y006750D01*
X004520Y006651D02*
X006930Y006651D01*
X006894Y006553D02*
X004520Y006553D01*
X004520Y006454D02*
X006894Y006454D01*
X006894Y006356D02*
X004520Y006356D01*
X004520Y006257D02*
X004741Y006257D01*
X004575Y006159D02*
X004520Y006159D01*
X005259Y006257D02*
X006894Y006257D01*
X006894Y006159D02*
X005425Y006159D01*
X005523Y006060D02*
X006894Y006060D01*
X006894Y005962D02*
X005585Y005962D01*
X005626Y005863D02*
X006894Y005863D01*
X006894Y005765D02*
X005660Y005765D01*
X005660Y005666D02*
X006924Y005666D01*
X006896Y005568D02*
X005660Y005568D01*
X005639Y005469D02*
X006894Y005469D01*
X006894Y005371D02*
X005599Y005371D01*
X005555Y005272D02*
X006894Y005272D01*
X006894Y005174D02*
X005510Y005174D01*
X006200Y005075D02*
X006894Y005075D01*
X006894Y004977D02*
X006360Y004977D01*
X006458Y004878D02*
X006894Y004878D01*
X006894Y004780D02*
X006557Y004780D01*
X006655Y004681D02*
X006917Y004681D01*
X006902Y004583D02*
X006754Y004583D01*
X006852Y004484D02*
X006894Y004484D01*
X006100Y003964D02*
X006100Y003560D01*
X006169Y003395D01*
X006669Y002895D01*
X006795Y002769D01*
X006899Y002725D01*
X006938Y002631D01*
X007020Y002550D01*
X007126Y002506D01*
X007871Y002506D01*
X007978Y002550D01*
X008060Y002631D01*
X008104Y002738D01*
X008104Y003562D01*
X008067Y003650D01*
X008104Y003738D01*
X008104Y004562D01*
X008067Y004650D01*
X008104Y004738D01*
X008104Y005562D01*
X008067Y005650D01*
X008104Y005738D01*
X008104Y006562D01*
X008067Y006650D01*
X008104Y006738D01*
X008104Y007562D01*
X008060Y007669D01*
X008004Y007724D01*
X008419Y007724D01*
X008450Y007736D01*
X008481Y007724D01*
X008911Y007724D01*
X009017Y007768D01*
X009099Y007850D01*
X009143Y007956D01*
X009143Y008544D01*
X009099Y008650D01*
X009017Y008732D01*
X008998Y008740D01*
X009008Y008750D01*
X009052Y008856D01*
X009052Y009444D01*
X009008Y009550D01*
X008926Y009632D01*
X008819Y009676D01*
X008804Y009676D01*
X008876Y009748D01*
X008920Y009855D01*
X008920Y010280D01*
X009345Y010280D01*
X009452Y010324D01*
X009533Y010406D01*
X009577Y010512D01*
X009577Y010768D01*
X009533Y010874D01*
X009512Y010895D01*
X009533Y010916D01*
X009577Y011022D01*
X009577Y011278D01*
X009576Y011280D01*
X009577Y011282D01*
X009577Y011788D01*
X009533Y011894D01*
X009452Y011976D01*
X009345Y012020D01*
X008920Y012020D01*
X008920Y012445D01*
X008876Y012552D01*
X008794Y012633D01*
X008688Y012677D01*
X008410Y012677D01*
X008410Y013422D01*
X008355Y013554D01*
X008339Y013570D01*
X011088Y013570D01*
X010995Y013531D01*
X010695Y013231D01*
X010569Y013105D01*
X010500Y012940D01*
X010500Y010546D01*
X010490Y010522D01*
X010490Y010078D01*
X010545Y009946D01*
X010582Y009909D01*
X010567Y009894D01*
X010523Y009788D01*
X010523Y009282D01*
X010524Y009280D01*
X010523Y009278D01*
X010523Y009022D01*
X010524Y009020D01*
X010523Y009018D01*
X010523Y008512D01*
X010567Y008406D01*
X010648Y008324D01*
X010699Y008303D01*
X010699Y007470D01*
X010700Y007467D01*
X010700Y007360D01*
X010769Y007195D01*
X010895Y007069D01*
X011060Y007000D01*
X011496Y007000D01*
X011496Y006238D01*
X011533Y006150D01*
X011496Y006062D01*
X011496Y005238D01*
X011533Y005150D01*
X011496Y005062D01*
X011496Y004238D01*
X011533Y004150D01*
X011496Y004062D01*
X011496Y003238D01*
X011533Y003150D01*
X011496Y003062D01*
X011496Y002300D01*
X007036Y002300D01*
X006431Y002905D01*
X006305Y003031D01*
X006140Y003100D01*
X005583Y003100D01*
X005550Y003133D01*
X005550Y003267D01*
X005560Y003276D01*
X005660Y003519D01*
X005660Y003781D01*
X005560Y004024D01*
X005483Y004100D01*
X005583Y004200D01*
X005864Y004200D01*
X006100Y003964D01*
X006072Y003992D02*
X005573Y003992D01*
X005614Y003893D02*
X006100Y003893D01*
X006100Y003795D02*
X005655Y003795D01*
X005660Y003696D02*
X006100Y003696D01*
X006100Y003598D02*
X005660Y003598D01*
X005652Y003499D02*
X006125Y003499D01*
X006166Y003401D02*
X005611Y003401D01*
X005570Y003302D02*
X006262Y003302D01*
X006360Y003204D02*
X005550Y003204D01*
X005578Y003105D02*
X006459Y003105D01*
X006557Y003007D02*
X006330Y003007D01*
X006428Y002908D02*
X006656Y002908D01*
X006754Y002810D02*
X006527Y002810D01*
X006431Y002905D02*
X006431Y002905D01*
X006625Y002711D02*
X006905Y002711D01*
X006957Y002613D02*
X006724Y002613D01*
X006822Y002514D02*
X007106Y002514D01*
X006921Y002416D02*
X011496Y002416D01*
X011496Y002514D02*
X007892Y002514D01*
X008041Y002613D02*
X011496Y002613D01*
X011496Y002711D02*
X008093Y002711D01*
X008104Y002810D02*
X011496Y002810D01*
X011496Y002908D02*
X008104Y002908D01*
X008104Y003007D02*
X011496Y003007D01*
X011514Y003105D02*
X008104Y003105D01*
X008104Y003204D02*
X011511Y003204D01*
X011496Y003302D02*
X008104Y003302D01*
X008104Y003401D02*
X011496Y003401D01*
X011496Y003499D02*
X008104Y003499D01*
X008089Y003598D02*
X011496Y003598D01*
X011496Y003696D02*
X008086Y003696D01*
X008104Y003795D02*
X011496Y003795D01*
X011496Y003893D02*
X008104Y003893D01*
X008104Y003992D02*
X011496Y003992D01*
X011508Y004090D02*
X008104Y004090D01*
X008104Y004189D02*
X011517Y004189D01*
X011496Y004287D02*
X008104Y004287D01*
X008104Y004386D02*
X011496Y004386D01*
X011496Y004484D02*
X008104Y004484D01*
X008095Y004583D02*
X011496Y004583D01*
X011496Y004681D02*
X008080Y004681D01*
X008104Y004780D02*
X011496Y004780D01*
X011496Y004878D02*
X008104Y004878D01*
X008104Y004977D02*
X011496Y004977D01*
X011502Y005075D02*
X008104Y005075D01*
X008104Y005174D02*
X011523Y005174D01*
X011496Y005272D02*
X008104Y005272D01*
X008104Y005371D02*
X011496Y005371D01*
X011496Y005469D02*
X008104Y005469D01*
X008102Y005568D02*
X011496Y005568D01*
X011496Y005666D02*
X008074Y005666D01*
X008104Y005765D02*
X011496Y005765D01*
X011496Y005863D02*
X008104Y005863D01*
X008104Y005962D02*
X011496Y005962D01*
X011496Y006060D02*
X008104Y006060D01*
X008104Y006159D02*
X011529Y006159D01*
X011496Y006257D02*
X008104Y006257D01*
X008104Y006356D02*
X011496Y006356D01*
X011496Y006454D02*
X008104Y006454D01*
X008104Y006553D02*
X011496Y006553D01*
X011496Y006651D02*
X008068Y006651D01*
X008104Y006750D02*
X011496Y006750D01*
X011496Y006848D02*
X008104Y006848D01*
X008104Y006947D02*
X011496Y006947D01*
X010952Y007045D02*
X008104Y007045D01*
X008104Y007144D02*
X010820Y007144D01*
X010749Y007242D02*
X008104Y007242D01*
X008104Y007341D02*
X010708Y007341D01*
X010700Y007439D02*
X008104Y007439D01*
X008104Y007538D02*
X010699Y007538D01*
X010699Y007636D02*
X008073Y007636D01*
X008445Y007735D02*
X008455Y007735D01*
X008937Y007735D02*
X010699Y007735D01*
X010699Y007833D02*
X009083Y007833D01*
X009133Y007932D02*
X010699Y007932D01*
X010699Y008030D02*
X009143Y008030D01*
X009143Y008129D02*
X010699Y008129D01*
X010699Y008227D02*
X009143Y008227D01*
X009143Y008326D02*
X010647Y008326D01*
X010559Y008424D02*
X009143Y008424D01*
X009143Y008523D02*
X010523Y008523D01*
X010523Y008621D02*
X009111Y008621D01*
X009030Y008720D02*
X010523Y008720D01*
X010523Y008818D02*
X009036Y008818D01*
X009052Y008917D02*
X010523Y008917D01*
X010523Y009015D02*
X009052Y009015D01*
X009052Y009114D02*
X010523Y009114D01*
X010523Y009212D02*
X009052Y009212D01*
X009052Y009311D02*
X010523Y009311D01*
X010523Y009409D02*
X009052Y009409D01*
X009025Y009508D02*
X010523Y009508D01*
X010523Y009606D02*
X008952Y009606D01*
X008832Y009705D02*
X010523Y009705D01*
X010529Y009803D02*
X008898Y009803D01*
X008920Y009902D02*
X010574Y009902D01*
X010522Y010000D02*
X008920Y010000D01*
X008920Y010099D02*
X010490Y010099D01*
X010490Y010197D02*
X008920Y010197D01*
X009382Y010296D02*
X010490Y010296D01*
X010490Y010394D02*
X009521Y010394D01*
X009569Y010493D02*
X010490Y010493D01*
X010500Y010591D02*
X009577Y010591D01*
X009577Y010690D02*
X010500Y010690D01*
X010500Y010788D02*
X009569Y010788D01*
X009521Y010887D02*
X010500Y010887D01*
X010500Y010985D02*
X009562Y010985D01*
X009577Y011084D02*
X010500Y011084D01*
X010500Y011182D02*
X009577Y011182D01*
X009577Y011281D02*
X010500Y011281D01*
X010500Y011379D02*
X009577Y011379D01*
X009577Y011478D02*
X010500Y011478D01*
X010500Y011576D02*
X009577Y011576D01*
X009577Y011675D02*
X010500Y011675D01*
X010500Y011773D02*
X009577Y011773D01*
X009543Y011872D02*
X010500Y011872D01*
X010500Y011970D02*
X009457Y011970D01*
X008920Y012069D02*
X010500Y012069D01*
X010500Y012167D02*
X008920Y012167D01*
X008920Y012266D02*
X010500Y012266D01*
X010500Y012364D02*
X008920Y012364D01*
X008913Y012463D02*
X010500Y012463D01*
X010500Y012561D02*
X008866Y012561D01*
X008730Y012660D02*
X010500Y012660D01*
X010500Y012758D02*
X008410Y012758D01*
X008410Y012857D02*
X010500Y012857D01*
X010506Y012955D02*
X008410Y012955D01*
X008410Y013054D02*
X010547Y013054D01*
X010616Y013152D02*
X008410Y013152D01*
X008410Y013251D02*
X010714Y013251D01*
X010813Y013349D02*
X008410Y013349D01*
X008399Y013448D02*
X010911Y013448D01*
X011030Y013546D02*
X008358Y013546D01*
X006861Y013570D02*
X006845Y013554D01*
X006790Y013422D01*
X006790Y012426D01*
X006470Y012107D01*
X006454Y012100D01*
X003960Y012100D01*
X003795Y012031D01*
X002795Y011031D01*
X002669Y010905D01*
X002600Y010740D01*
X002600Y006485D01*
X002502Y006387D01*
X002462Y006404D01*
X001638Y006404D01*
X001531Y006360D01*
X001450Y006278D01*
X001407Y006176D01*
X001374Y006210D01*
X001131Y006310D01*
X000869Y006310D01*
X000700Y006240D01*
X000700Y013544D01*
X000700Y013548D01*
X000703Y013556D01*
X000708Y013562D01*
X000714Y013567D01*
X000722Y013570D01*
X000726Y013570D01*
X006861Y013570D01*
X006842Y013546D02*
X000700Y013546D01*
X000700Y013448D02*
X006801Y013448D01*
X006790Y013349D02*
X000700Y013349D01*
X000700Y013251D02*
X006790Y013251D01*
X006790Y013152D02*
X000700Y013152D01*
X000700Y013054D02*
X006790Y013054D01*
X006790Y012955D02*
X000700Y012955D01*
X000700Y012857D02*
X006790Y012857D01*
X006790Y012758D02*
X000700Y012758D01*
X000700Y012660D02*
X006790Y012660D01*
X006790Y012561D02*
X000700Y012561D01*
X000700Y012463D02*
X006790Y012463D01*
X006728Y012364D02*
X000700Y012364D01*
X000700Y012266D02*
X006629Y012266D01*
X006531Y012167D02*
X000700Y012167D01*
X000700Y012069D02*
X003885Y012069D01*
X003734Y011970D02*
X000700Y011970D01*
X000700Y011872D02*
X003635Y011872D01*
X003537Y011773D02*
X000700Y011773D01*
X000700Y011675D02*
X003438Y011675D01*
X003340Y011576D02*
X000700Y011576D01*
X000700Y011478D02*
X003241Y011478D01*
X003143Y011379D02*
X000700Y011379D01*
X000700Y011281D02*
X003044Y011281D01*
X002946Y011182D02*
X000700Y011182D01*
X000700Y011084D02*
X002847Y011084D01*
X002749Y010985D02*
X000700Y010985D01*
X000700Y010887D02*
X002661Y010887D01*
X002620Y010788D02*
X000700Y010788D01*
X000700Y010690D02*
X002600Y010690D01*
X002600Y010591D02*
X000700Y010591D01*
X000700Y010493D02*
X002600Y010493D01*
X002600Y010394D02*
X000700Y010394D01*
X000700Y010296D02*
X002600Y010296D01*
X002600Y010197D02*
X000700Y010197D01*
X000700Y010099D02*
X002600Y010099D01*
X002600Y010000D02*
X000700Y010000D01*
X000700Y009902D02*
X002600Y009902D01*
X002600Y009803D02*
X000700Y009803D01*
X000700Y009705D02*
X002600Y009705D01*
X002600Y009606D02*
X000700Y009606D01*
X000700Y009508D02*
X002600Y009508D01*
X002600Y009409D02*
X000700Y009409D01*
X000700Y009311D02*
X002600Y009311D01*
X002600Y009212D02*
X000700Y009212D01*
X000700Y009114D02*
X002600Y009114D01*
X002600Y009015D02*
X000700Y009015D01*
X000700Y008917D02*
X002600Y008917D01*
X002600Y008818D02*
X000700Y008818D01*
X000700Y008720D02*
X002600Y008720D01*
X002600Y008621D02*
X000700Y008621D01*
X000700Y008523D02*
X002600Y008523D01*
X002600Y008424D02*
X000700Y008424D01*
X000700Y008326D02*
X002600Y008326D01*
X002600Y008227D02*
X000700Y008227D01*
X000700Y008129D02*
X002600Y008129D01*
X002600Y008030D02*
X000700Y008030D01*
X000700Y007932D02*
X002600Y007932D01*
X002600Y007833D02*
X000700Y007833D01*
X000700Y007735D02*
X002600Y007735D01*
X002600Y007636D02*
X000700Y007636D01*
X000700Y007538D02*
X002600Y007538D01*
X002600Y007439D02*
X000700Y007439D01*
X000700Y007341D02*
X002600Y007341D01*
X002600Y007242D02*
X000700Y007242D01*
X000700Y007144D02*
X002600Y007144D01*
X002600Y007045D02*
X000700Y007045D01*
X000700Y006947D02*
X002600Y006947D01*
X002600Y006848D02*
X000700Y006848D01*
X000700Y006750D02*
X002600Y006750D01*
X002600Y006651D02*
X000700Y006651D01*
X000700Y006553D02*
X002600Y006553D01*
X002569Y006454D02*
X000700Y006454D01*
X000700Y006356D02*
X001527Y006356D01*
X001441Y006257D02*
X001259Y006257D01*
X000741Y006257D02*
X000700Y006257D01*
X001483Y005200D02*
X001483Y005200D01*
X003637Y003302D02*
X004423Y003302D01*
X004513Y003204D02*
X003735Y003204D01*
X003834Y003105D02*
X004612Y003105D01*
X004533Y003007D02*
X003932Y003007D01*
X003973Y002908D02*
X004492Y002908D01*
X004452Y002810D02*
X004000Y002810D01*
X004000Y002711D02*
X004440Y002711D01*
X004440Y002613D02*
X004000Y002613D01*
X004000Y002514D02*
X004442Y002514D01*
X004483Y002416D02*
X004000Y002416D01*
X004000Y002317D02*
X004524Y002317D01*
X004598Y002219D02*
X004000Y002219D01*
X004000Y002120D02*
X004697Y002120D01*
X004893Y002022D02*
X004000Y002022D01*
X004000Y001923D02*
X006141Y001923D01*
X006239Y001825D02*
X004000Y001825D01*
X004000Y001726D02*
X006338Y001726D01*
X006436Y001628D02*
X004000Y001628D01*
X004000Y001529D02*
X006535Y001529D01*
X006469Y001595D02*
X006469Y001595D01*
X006687Y001431D02*
X004000Y001431D01*
X004004Y001332D02*
X014096Y001332D01*
X014194Y001431D02*
X012113Y001431D01*
X012265Y001529D02*
X014293Y001529D01*
X014391Y001628D02*
X012364Y001628D01*
X012462Y001726D02*
X014490Y001726D01*
X014588Y001825D02*
X012515Y001825D01*
X012551Y001923D02*
X014600Y001923D01*
X014600Y002022D02*
X012551Y002022D01*
X012651Y002120D02*
X014600Y002120D01*
X014600Y002219D02*
X012698Y002219D01*
X012706Y002317D02*
X014600Y002317D01*
X014600Y002416D02*
X012706Y002416D01*
X012706Y002514D02*
X014600Y002514D01*
X014600Y002613D02*
X012706Y002613D01*
X012706Y002711D02*
X014600Y002711D01*
X014600Y002810D02*
X012706Y002810D01*
X012706Y002908D02*
X014600Y002908D01*
X014600Y003007D02*
X012706Y003007D01*
X012688Y003105D02*
X014600Y003105D01*
X014600Y003204D02*
X012692Y003204D01*
X012706Y003302D02*
X014600Y003302D01*
X014600Y003401D02*
X012706Y003401D01*
X012706Y003499D02*
X014600Y003499D01*
X014600Y003598D02*
X012706Y003598D01*
X012706Y003696D02*
X014600Y003696D01*
X014600Y003795D02*
X012706Y003795D01*
X012706Y003893D02*
X014600Y003893D01*
X014600Y003992D02*
X012706Y003992D01*
X012695Y004090D02*
X014600Y004090D01*
X014600Y004189D02*
X012686Y004189D01*
X012706Y004287D02*
X014600Y004287D01*
X014600Y004386D02*
X012706Y004386D01*
X012706Y004484D02*
X014600Y004484D01*
X014600Y004583D02*
X012706Y004583D01*
X012706Y004681D02*
X014600Y004681D01*
X014600Y004780D02*
X012706Y004780D01*
X012706Y004878D02*
X014600Y004878D01*
X014600Y004977D02*
X012706Y004977D01*
X012701Y005075D02*
X014600Y005075D01*
X014600Y005174D02*
X012679Y005174D01*
X012706Y005272D02*
X014600Y005272D01*
X014600Y005371D02*
X012706Y005371D01*
X012706Y005469D02*
X014600Y005469D01*
X014600Y005568D02*
X012706Y005568D01*
X012706Y005666D02*
X014600Y005666D01*
X014600Y005765D02*
X012706Y005765D01*
X012706Y005863D02*
X014600Y005863D01*
X014600Y005962D02*
X012706Y005962D01*
X012706Y006060D02*
X014600Y006060D01*
X014600Y006159D02*
X012673Y006159D01*
X012706Y006257D02*
X014600Y006257D01*
X014600Y006356D02*
X012706Y006356D01*
X012706Y006454D02*
X014600Y006454D01*
X014600Y006553D02*
X012706Y006553D01*
X012706Y006651D02*
X014600Y006651D01*
X014600Y006750D02*
X012706Y006750D01*
X012706Y006848D02*
X014600Y006848D01*
X014600Y006947D02*
X012706Y006947D01*
X012706Y007045D02*
X014600Y007045D01*
X014600Y007144D02*
X012672Y007144D01*
X012589Y007242D02*
X014600Y007242D01*
X014600Y007341D02*
X012488Y007341D01*
X012410Y007439D02*
X014600Y007439D01*
X014600Y007538D02*
X012410Y007538D01*
X012720Y007636D02*
X014600Y007636D01*
X014600Y007735D02*
X012862Y007735D01*
X012911Y007833D02*
X014600Y007833D01*
X014600Y007932D02*
X012920Y007932D01*
X012920Y008030D02*
X014600Y008030D01*
X014600Y008129D02*
X012920Y008129D01*
X012920Y008227D02*
X014600Y008227D01*
X014600Y008326D02*
X012920Y008326D01*
X012920Y008424D02*
X014600Y008424D01*
X014600Y008523D02*
X012895Y008523D01*
X012824Y008621D02*
X014600Y008621D01*
X014600Y008720D02*
X011595Y008720D01*
X011595Y008818D02*
X012670Y008818D01*
X012549Y008917D02*
X011595Y008917D01*
X011595Y009015D02*
X012508Y009015D01*
X012505Y009114D02*
X011595Y009114D01*
X011595Y009212D02*
X012505Y009212D01*
X012519Y009311D02*
X011595Y009311D01*
X011595Y009409D02*
X012566Y009409D01*
X012515Y009508D02*
X011595Y009508D01*
X011920Y009606D02*
X011920Y009606D01*
X012180Y009606D02*
X012180Y009606D01*
X012440Y009606D02*
X012505Y009606D01*
X012670Y010000D02*
X012689Y010000D01*
X012670Y010099D02*
X014600Y010099D01*
X014600Y010197D02*
X012670Y010197D01*
X012670Y010296D02*
X014600Y010296D01*
X014600Y010394D02*
X012670Y010394D01*
X012650Y010493D02*
X014600Y010493D01*
X014600Y010591D02*
X012586Y010591D01*
X012510Y010690D02*
X014600Y010690D01*
X014600Y010788D02*
X012510Y010788D01*
X012510Y010887D02*
X014600Y010887D01*
X014600Y010985D02*
X012510Y010985D01*
X012510Y011084D02*
X014600Y011084D01*
X014600Y011182D02*
X012510Y011182D01*
X012510Y011281D02*
X014600Y011281D01*
X014600Y011379D02*
X012510Y011379D01*
X012510Y011478D02*
X014600Y011478D01*
X014600Y011576D02*
X012510Y011576D01*
X012488Y011675D02*
X014600Y011675D01*
X014600Y011773D02*
X012436Y011773D01*
X012338Y011872D02*
X014600Y011872D01*
X014600Y011970D02*
X012239Y011970D01*
X012141Y012069D02*
X014600Y012069D01*
X014600Y012167D02*
X012025Y012167D01*
X011400Y012266D02*
X014600Y012266D01*
X014600Y012364D02*
X011400Y012364D01*
X011400Y012463D02*
X014600Y012463D01*
X014503Y012561D02*
X011400Y012561D01*
X011400Y012660D02*
X014404Y012660D01*
X014600Y010000D02*
X013393Y010000D01*
X013526Y009902D02*
X014600Y009902D01*
X014600Y009803D02*
X013571Y009803D01*
X013577Y009705D02*
X014600Y009705D01*
X014600Y009606D02*
X013577Y009606D01*
X013567Y009508D02*
X014600Y009508D01*
X014600Y009409D02*
X013516Y009409D01*
X013564Y009311D02*
X014600Y009311D01*
X014600Y009212D02*
X013577Y009212D01*
X013577Y009114D02*
X014600Y009114D01*
X014600Y009015D02*
X013574Y009015D01*
X013533Y008917D02*
X014600Y008917D01*
X014600Y008818D02*
X013413Y008818D01*
X008505Y010695D02*
X008182Y010695D01*
X008180Y010694D01*
X008178Y010695D01*
X007922Y010695D01*
X007920Y010694D01*
X007918Y010695D01*
X007668Y010695D01*
X007595Y010695D01*
X007595Y011018D01*
X007594Y011020D01*
X007595Y011022D01*
X007595Y011278D01*
X007594Y011280D01*
X007595Y011282D01*
X007595Y011590D01*
X007622Y011590D01*
X007658Y011605D01*
X007918Y011605D01*
X007920Y011606D01*
X007922Y011605D01*
X008178Y011605D01*
X008180Y011606D01*
X008182Y011605D01*
X008505Y011605D01*
X008505Y011282D01*
X008506Y011280D01*
X008505Y011278D01*
X008505Y011022D01*
X008549Y010916D01*
X008570Y010895D01*
X008549Y010874D01*
X008505Y010768D01*
X008505Y010695D01*
X008514Y010788D02*
X007595Y010788D01*
X007595Y010887D02*
X008562Y010887D01*
X008521Y010985D02*
X007595Y010985D01*
X007595Y011084D02*
X008505Y011084D01*
X008505Y011182D02*
X007595Y011182D01*
X007594Y011281D02*
X008506Y011281D01*
X008505Y011379D02*
X007595Y011379D01*
X007595Y011478D02*
X008505Y011478D01*
X008505Y011576D02*
X007595Y011576D01*
X007049Y008621D02*
X006310Y008621D01*
X006347Y007735D02*
X007004Y007735D01*
X003808Y008818D02*
X003500Y008818D01*
X003500Y008917D02*
X003652Y008917D01*
X003598Y009015D02*
X003500Y009015D01*
X003500Y009114D02*
X003584Y009114D01*
X003584Y009212D02*
X003500Y009212D01*
X003500Y009311D02*
X003584Y009311D01*
X003572Y009409D02*
X003500Y009409D01*
X003500Y009508D02*
X003531Y009508D01*
X003526Y009606D02*
X003500Y009606D01*
X003500Y009705D02*
X003526Y009705D01*
X003526Y009803D02*
X003500Y009803D01*
X005572Y004189D02*
X005875Y004189D01*
X005974Y004090D02*
X005493Y004090D01*
X007019Y002317D02*
X011496Y002317D01*
X013899Y001135D02*
X004201Y001135D01*
X004103Y001234D02*
X013997Y001234D01*
X006042Y002022D02*
X005307Y002022D01*
X005503Y002120D02*
X005944Y002120D01*
D20*
X011150Y007450D02*
X011059Y007541D01*
X011059Y008640D01*
X011540Y008159D02*
X011540Y007460D01*
X011550Y007450D01*
X012050Y007150D02*
X012050Y008159D01*
X012310Y008159D02*
X012310Y008890D01*
X012050Y009150D01*
X012310Y009410D01*
X013041Y009410D01*
X013041Y008890D02*
X013041Y008640D01*
X012550Y009150D02*
X012050Y009150D01*
X012550Y009150D02*
X012550Y009650D01*
X012560Y009660D01*
X012560Y010141D01*
X012050Y010141D02*
X012050Y010650D01*
X012150Y010750D01*
X012150Y011550D01*
X011850Y011850D01*
X011050Y011850D01*
X010950Y011750D01*
X011796Y011150D02*
X011796Y010147D01*
X011790Y010141D01*
X011540Y010141D02*
X011159Y010141D01*
X010950Y010350D01*
X010850Y010450D02*
X010950Y010550D01*
X010850Y010450D02*
X010850Y010150D01*
X011059Y009941D01*
X011059Y009660D01*
X009550Y010350D02*
X009550Y010650D01*
X009310Y010890D01*
X009041Y010890D01*
X008310Y010890D01*
X008050Y011150D01*
X007550Y011950D02*
X007550Y012350D01*
X007250Y012350D01*
X007150Y012450D01*
X007150Y013350D01*
X007350Y013550D01*
X007850Y013550D01*
X008050Y013350D01*
X008050Y012141D01*
X007790Y012141D02*
X007790Y012856D01*
X007696Y012950D01*
X007250Y012350D02*
X007250Y012250D01*
X007450Y012250D01*
X007540Y012160D01*
X007540Y012141D01*
X007331Y012141D01*
X006850Y011660D01*
X006640Y011660D01*
X006650Y011650D01*
X006640Y011660D02*
X006550Y011750D01*
X006650Y011750D02*
X006850Y011750D01*
X007250Y012150D01*
X007250Y012250D01*
X007059Y011660D02*
X006850Y011660D01*
X007059Y010640D02*
X007059Y009559D01*
X007059Y009541D01*
X007499Y009101D01*
X007540Y009142D01*
X007548Y009150D01*
X007896Y009150D01*
X007540Y009142D02*
X007540Y010159D01*
X008050Y010159D02*
X008050Y009704D01*
X008604Y009150D01*
X008604Y008341D01*
X008696Y008250D01*
X008204Y008250D01*
X009404Y008250D02*
X009404Y010204D01*
X009550Y010350D01*
X007059Y009559D02*
X007050Y009550D01*
D21*
X008050Y011150D03*
X012050Y009150D03*
D22*
X010950Y010350D02*
X010950Y010550D01*
X010950Y011750D01*
X010950Y012850D01*
X011250Y013150D01*
X014550Y013150D01*
X015050Y012650D01*
X015050Y001650D01*
X014050Y000650D01*
X004050Y000650D01*
X003550Y001150D01*
X003550Y002752D01*
X003101Y003201D01*
X002050Y003201D01*
X001051Y003201D01*
X001000Y003150D01*
X001000Y002750D01*
X001100Y002650D01*
X001000Y003150D02*
X001000Y003650D01*
X001000Y004650D02*
X001000Y005650D01*
X002050Y005650D01*
X002050Y005799D01*
X002550Y005799D01*
X003050Y006299D01*
X003050Y010650D01*
X004050Y011650D01*
X006650Y011650D01*
X007250Y012250D01*
X007499Y009101D02*
X007499Y008247D01*
X007496Y008250D01*
X007499Y008247D02*
X007499Y007150D01*
X007499Y006150D01*
X007499Y005150D01*
X007499Y004150D01*
X007499Y003150D01*
X007050Y003150D01*
X006550Y003650D01*
X006550Y004150D01*
X006050Y004650D01*
X005100Y004650D01*
X005000Y004750D01*
X005000Y005650D01*
X005000Y003650D02*
X005100Y003550D01*
X005100Y002650D01*
X006050Y002650D01*
X006850Y001850D01*
X011950Y001850D01*
X012101Y002001D01*
X012101Y002650D01*
X012101Y003650D01*
X012101Y004650D01*
X012101Y005650D01*
X012101Y006650D01*
X012101Y007099D01*
X012050Y007150D01*
X011750Y007450D01*
X011550Y007450D01*
X011150Y007450D01*
X001100Y004650D02*
X001000Y004650D01*
D23*
X004150Y004050D02*
X004550Y003650D01*
X005000Y003650D01*
X004150Y004050D02*
X004150Y008159D01*
X004150Y009341D02*
X003896Y009595D01*
X003896Y010250D01*
X005850Y009341D02*
X006204Y009695D01*
X006204Y010250D01*
X005850Y008159D02*
X007405Y008159D01*
X007496Y008250D01*
M02*
