G75*
%MOIN*%
%OFA0B0*%
%FSLAX24Y24*%
%IPPOS*%
%LPD*%
%AMOC8*
5,1,8,0,0,1.08239X$1,22.5*
%
%ADD10C,0.1080*%
%ADD11R,0.1080X0.1080*%
%ADD12C,0.0940*%
%ADD13R,0.0867X0.0552*%
%ADD14C,0.0730*%
%ADD15R,0.0730X0.0730*%
%ADD16R,0.0552X0.0395*%
%ADD17R,0.0395X0.0552*%
%ADD18R,0.0552X0.0867*%
%ADD19C,0.0820*%
%ADD20R,0.0476X0.0476*%
D10*
X004680Y001680D03*
X004680Y002930D03*
X010930Y001680D03*
X010930Y005430D03*
D11*
X004680Y005430D03*
D12*
X005727Y007979D03*
X006979Y007979D03*
X008231Y007979D03*
X010731Y007979D03*
X010731Y012979D03*
X001979Y012979D03*
X001979Y007979D03*
D13*
X003180Y002810D03*
X003180Y001550D03*
X015680Y005050D03*
X015680Y006310D03*
X015680Y007050D03*
X015680Y008310D03*
D14*
X013837Y004930D03*
X013837Y002180D03*
X012837Y013391D03*
D15*
X013837Y013391D03*
X012837Y004930D03*
X012837Y002180D03*
D16*
X015180Y001826D03*
X015180Y002534D03*
X018180Y003326D03*
X018180Y004034D03*
X018180Y004826D03*
X018180Y005534D03*
X018180Y009826D03*
X018180Y010534D03*
X018180Y011326D03*
X018180Y012034D03*
D17*
X002034Y014180D03*
X001326Y014180D03*
D18*
X012550Y011430D03*
X013810Y011430D03*
D19*
X001550Y001680D02*
X000810Y001680D01*
X000810Y002680D02*
X001550Y002680D01*
X001550Y003680D02*
X000810Y003680D01*
X017810Y006680D02*
X018550Y006680D01*
X018550Y007680D02*
X017810Y007680D01*
X017810Y008680D02*
X018550Y008680D01*
D20*
X015652Y010404D03*
X015652Y003711D03*
X002149Y005365D03*
M02*
