%
M48
M72
T01C0.0236
T02C0.0276
T03C0.0440
T04C0.0472
T05C0.0550
%
T01
X2149Y5365
X15652Y3711
X15652Y10404
T02
X13837Y13391
X12837Y13391
X12837Y4930
X13837Y4930
X13837Y2180
X12837Y2180
T03
X1180Y1680
X1180Y2680
X1180Y3680
X18180Y6680
X18180Y7680
X18180Y8680
T04
X10731Y7979
X8231Y7979
X6979Y7979
X5727Y7979
X1979Y7979
X1979Y12979
X10731Y12979
T05
X10930Y5430
X10930Y1680
X4680Y1680
X4680Y2930
X4680Y5430
M30
