G75*
%MOIN*%
%OFA0B0*%
%FSLAX24Y24*%
%IPPOS*%
%LPD*%
%AMOC8*
5,1,8,0,0,1.08239X$1,22.5*
%
%ADD10C,0.1000*%
%ADD11R,0.1000X0.1000*%
%ADD12C,0.0860*%
%ADD13C,0.0650*%
%ADD14R,0.0650X0.0650*%
%ADD15C,0.0740*%
%ADD16C,0.0160*%
%ADD17R,0.0396X0.0396*%
%ADD18C,0.0240*%
D10*
X004680Y001680D03*
X004680Y002930D03*
X010930Y001680D03*
X010930Y005430D03*
D11*
X004680Y005430D03*
D12*
X005727Y007979D03*
X006979Y007979D03*
X008231Y007979D03*
X010731Y007979D03*
X010731Y012979D03*
X001979Y012979D03*
X001979Y007979D03*
D13*
X012837Y013391D03*
X013837Y004930D03*
X013837Y002180D03*
D14*
X012837Y002180D03*
X012837Y004930D03*
X013837Y013391D03*
D15*
X017810Y008680D02*
X018550Y008680D01*
X018550Y007680D02*
X017810Y007680D01*
X017810Y006680D02*
X018550Y006680D01*
X001550Y003680D02*
X000810Y003680D01*
X000810Y002680D02*
X001550Y002680D01*
X001550Y001680D02*
X000810Y001680D01*
D16*
X000660Y001160D02*
X000660Y003082D01*
X000689Y003070D01*
X001671Y003070D01*
X001896Y003163D01*
X002067Y003334D01*
X002160Y003559D01*
X002160Y003801D01*
X002067Y004026D01*
X001896Y004197D01*
X001671Y004290D01*
X000689Y004290D01*
X000660Y004278D01*
X000660Y014570D01*
X018692Y014570D01*
X018692Y009281D01*
X018671Y009290D01*
X017689Y009290D01*
X017464Y009197D01*
X017293Y009026D01*
X017200Y008801D01*
X017200Y008559D01*
X017293Y008334D01*
X017464Y008163D01*
X017689Y008070D01*
X018671Y008070D01*
X018692Y008079D01*
X018692Y007281D01*
X018671Y007290D01*
X017689Y007290D01*
X017464Y007197D01*
X017293Y007026D01*
X017200Y006801D01*
X017200Y006559D01*
X017293Y006334D01*
X017464Y006163D01*
X017689Y006070D01*
X018671Y006070D01*
X018692Y006079D01*
X018692Y001160D01*
X011457Y001160D01*
X011557Y001261D01*
X011670Y001533D01*
X011670Y001681D01*
X011875Y001476D01*
X011976Y001375D01*
X012108Y001320D01*
X013252Y001320D01*
X013384Y001375D01*
X013485Y001476D01*
X013540Y001608D01*
X013540Y007252D01*
X013485Y007384D01*
X013384Y007485D01*
X013252Y007540D01*
X008739Y007540D01*
X008799Y007600D01*
X008901Y007846D01*
X008901Y008112D01*
X008799Y008359D01*
X008611Y008547D01*
X008364Y008649D01*
X008098Y008649D01*
X007852Y008547D01*
X007663Y008359D01*
X007605Y008219D01*
X007547Y008359D01*
X007359Y008547D01*
X007112Y008649D01*
X006846Y008649D01*
X006600Y008547D01*
X006411Y008359D01*
X006353Y008219D01*
X006295Y008359D01*
X006107Y008547D01*
X005861Y008649D01*
X005594Y008649D01*
X005348Y008547D01*
X005159Y008359D01*
X005057Y008112D01*
X005057Y007846D01*
X005159Y007600D01*
X005219Y007540D01*
X004329Y007540D01*
X002985Y008884D01*
X002884Y008985D01*
X002752Y009040D01*
X001108Y009040D01*
X000976Y008985D01*
X000875Y008884D01*
X000820Y008752D01*
X000820Y006108D01*
X000875Y005976D01*
X000976Y005875D01*
X001108Y005820D01*
X009531Y005820D01*
X009820Y005531D01*
X009820Y003608D01*
X009875Y003476D01*
X010931Y002420D01*
X010783Y002420D01*
X010511Y002307D01*
X010303Y002099D01*
X010190Y001827D01*
X010190Y001533D01*
X010303Y001261D01*
X010403Y001160D01*
X005207Y001160D01*
X005307Y001261D01*
X005420Y001533D01*
X005420Y001827D01*
X005307Y002099D01*
X005102Y002305D01*
X005307Y002511D01*
X005420Y002783D01*
X005420Y003077D01*
X005307Y003349D01*
X005099Y003557D01*
X004827Y003670D01*
X004533Y003670D01*
X004261Y003557D01*
X004053Y003349D01*
X003940Y003077D01*
X003940Y002783D01*
X004053Y002511D01*
X004258Y002305D01*
X004053Y002099D01*
X003940Y001827D01*
X003940Y001533D01*
X004053Y001261D01*
X004153Y001160D01*
X000660Y001160D01*
X000660Y001314D02*
X004031Y001314D01*
X003965Y001473D02*
X000660Y001473D01*
X000660Y001631D02*
X003940Y001631D01*
X003940Y001790D02*
X000660Y001790D01*
X000660Y001948D02*
X003990Y001948D01*
X004060Y002107D02*
X000660Y002107D01*
X000660Y002265D02*
X004218Y002265D01*
X004140Y002424D02*
X000660Y002424D01*
X000660Y002582D02*
X004023Y002582D01*
X003958Y002741D02*
X000660Y002741D01*
X000660Y002899D02*
X003940Y002899D01*
X003940Y003058D02*
X000660Y003058D01*
X001949Y003216D02*
X003997Y003216D01*
X004078Y003375D02*
X002084Y003375D01*
X002149Y003533D02*
X004236Y003533D01*
X005124Y003533D02*
X009851Y003533D01*
X009820Y003692D02*
X002160Y003692D01*
X002140Y003850D02*
X009820Y003850D01*
X009820Y004009D02*
X002074Y004009D01*
X001926Y004167D02*
X009820Y004167D01*
X009820Y004326D02*
X000660Y004326D01*
X000660Y004484D02*
X009820Y004484D01*
X009820Y004643D02*
X000660Y004643D01*
X000660Y004801D02*
X009820Y004801D01*
X009820Y004960D02*
X000660Y004960D01*
X000660Y005118D02*
X009820Y005118D01*
X009820Y005277D02*
X000660Y005277D01*
X000660Y005435D02*
X009820Y005435D01*
X009757Y005594D02*
X000660Y005594D01*
X000660Y005752D02*
X009599Y005752D01*
X008822Y007654D02*
X018692Y007654D01*
X018692Y007496D02*
X013359Y007496D01*
X013505Y007337D02*
X018692Y007337D01*
X018692Y007813D02*
X008887Y007813D01*
X008901Y007971D02*
X018692Y007971D01*
X017545Y008130D02*
X008894Y008130D01*
X008828Y008288D02*
X017339Y008288D01*
X017246Y008447D02*
X008711Y008447D01*
X008471Y008605D02*
X017200Y008605D01*
X017200Y008764D02*
X003106Y008764D01*
X002947Y008922D02*
X017250Y008922D01*
X017348Y009081D02*
X000660Y009081D01*
X000660Y009239D02*
X017566Y009239D01*
X018692Y009398D02*
X012907Y009398D01*
X012884Y009375D02*
X012985Y009476D01*
X013040Y009608D01*
X013040Y012863D01*
X013158Y012912D01*
X013316Y013071D01*
X013402Y013278D01*
X013402Y013503D01*
X013316Y013711D01*
X013158Y013870D01*
X012950Y013956D01*
X012913Y013956D01*
X012884Y013985D01*
X012752Y014040D01*
X001108Y014040D01*
X000976Y013985D01*
X000875Y013884D01*
X000820Y013752D01*
X000820Y011608D01*
X000875Y011476D01*
X000976Y011375D01*
X001108Y011320D01*
X001252Y011320D01*
X008031Y011320D01*
X009976Y009375D01*
X010108Y009320D01*
X012752Y009320D01*
X012884Y009375D01*
X013018Y009556D02*
X018692Y009556D01*
X018692Y009715D02*
X013040Y009715D01*
X013040Y009873D02*
X018692Y009873D01*
X018692Y010032D02*
X013040Y010032D01*
X013040Y010190D02*
X018692Y010190D01*
X018692Y010349D02*
X013040Y010349D01*
X013040Y010507D02*
X018692Y010507D01*
X018692Y010666D02*
X013040Y010666D01*
X013040Y010824D02*
X018692Y010824D01*
X018692Y010983D02*
X013040Y010983D01*
X013040Y011141D02*
X018692Y011141D01*
X018692Y011300D02*
X013040Y011300D01*
X013040Y011458D02*
X018692Y011458D01*
X018692Y011617D02*
X013040Y011617D01*
X013040Y011775D02*
X018692Y011775D01*
X018692Y011934D02*
X013040Y011934D01*
X013040Y012092D02*
X018692Y012092D01*
X018692Y012251D02*
X013040Y012251D01*
X013040Y012409D02*
X018692Y012409D01*
X018692Y012568D02*
X013040Y012568D01*
X013040Y012726D02*
X018692Y012726D01*
X018692Y012885D02*
X013092Y012885D01*
X013289Y013043D02*
X018692Y013043D01*
X018692Y013202D02*
X013371Y013202D01*
X013402Y013360D02*
X018692Y013360D01*
X018692Y013519D02*
X013396Y013519D01*
X013330Y013677D02*
X018692Y013677D01*
X018692Y013836D02*
X013192Y013836D01*
X012863Y013994D02*
X018692Y013994D01*
X018692Y014153D02*
X000660Y014153D01*
X000660Y014311D02*
X018692Y014311D01*
X018692Y014470D02*
X000660Y014470D01*
X000660Y013994D02*
X000997Y013994D01*
X000855Y013836D02*
X000660Y013836D01*
X000660Y013677D02*
X000820Y013677D01*
X000820Y013519D02*
X000660Y013519D01*
X000660Y013360D02*
X000820Y013360D01*
X000820Y013202D02*
X000660Y013202D01*
X000660Y013043D02*
X000820Y013043D01*
X000820Y012885D02*
X000660Y012885D01*
X000660Y012726D02*
X000820Y012726D01*
X000820Y012568D02*
X000660Y012568D01*
X000660Y012409D02*
X000820Y012409D01*
X000820Y012251D02*
X000660Y012251D01*
X000660Y012092D02*
X000820Y012092D01*
X000820Y011934D02*
X000660Y011934D01*
X000660Y011775D02*
X000820Y011775D01*
X000820Y011617D02*
X000660Y011617D01*
X000660Y011458D02*
X000893Y011458D01*
X000660Y011300D02*
X008051Y011300D01*
X008210Y011141D02*
X000660Y011141D01*
X000660Y010983D02*
X008368Y010983D01*
X008527Y010824D02*
X000660Y010824D01*
X000660Y010666D02*
X008685Y010666D01*
X008844Y010507D02*
X000660Y010507D01*
X000660Y010349D02*
X009002Y010349D01*
X009161Y010190D02*
X000660Y010190D01*
X000660Y010032D02*
X009319Y010032D01*
X009478Y009873D02*
X000660Y009873D01*
X000660Y009715D02*
X009636Y009715D01*
X009795Y009556D02*
X000660Y009556D01*
X000660Y009398D02*
X009953Y009398D01*
X007991Y008605D02*
X007219Y008605D01*
X007459Y008447D02*
X007751Y008447D01*
X007634Y008288D02*
X007577Y008288D01*
X006739Y008605D02*
X005967Y008605D01*
X006207Y008447D02*
X006499Y008447D01*
X006382Y008288D02*
X006325Y008288D01*
X005487Y008605D02*
X003264Y008605D01*
X003423Y008447D02*
X005247Y008447D01*
X005130Y008288D02*
X003581Y008288D01*
X003740Y008130D02*
X005064Y008130D01*
X005057Y007971D02*
X003898Y007971D01*
X004057Y007813D02*
X005071Y007813D01*
X005137Y007654D02*
X004215Y007654D01*
X000820Y007654D02*
X000660Y007654D01*
X000660Y007496D02*
X000820Y007496D01*
X000820Y007337D02*
X000660Y007337D01*
X000660Y007179D02*
X000820Y007179D01*
X000820Y007020D02*
X000660Y007020D01*
X000660Y006862D02*
X000820Y006862D01*
X000820Y006703D02*
X000660Y006703D01*
X000660Y006545D02*
X000820Y006545D01*
X000820Y006386D02*
X000660Y006386D01*
X000660Y006228D02*
X000820Y006228D01*
X000836Y006069D02*
X000660Y006069D01*
X000660Y005911D02*
X000940Y005911D01*
X000820Y007813D02*
X000660Y007813D01*
X000660Y007971D02*
X000820Y007971D01*
X000820Y008130D02*
X000660Y008130D01*
X000660Y008288D02*
X000820Y008288D01*
X000820Y008447D02*
X000660Y008447D01*
X000660Y008605D02*
X000820Y008605D01*
X000825Y008764D02*
X000660Y008764D01*
X000660Y008922D02*
X000913Y008922D01*
X005282Y003375D02*
X009976Y003375D01*
X010135Y003216D02*
X005363Y003216D01*
X005420Y003058D02*
X010293Y003058D01*
X010452Y002899D02*
X005420Y002899D01*
X005402Y002741D02*
X010610Y002741D01*
X010769Y002582D02*
X005337Y002582D01*
X005220Y002424D02*
X010927Y002424D01*
X010468Y002265D02*
X005142Y002265D01*
X005300Y002107D02*
X010310Y002107D01*
X010240Y001948D02*
X005370Y001948D01*
X005420Y001790D02*
X010190Y001790D01*
X010190Y001631D02*
X005420Y001631D01*
X005395Y001473D02*
X010215Y001473D01*
X010281Y001314D02*
X005329Y001314D01*
X011579Y001314D02*
X018692Y001314D01*
X018692Y001473D02*
X013482Y001473D01*
X013540Y001631D02*
X018692Y001631D01*
X018692Y001790D02*
X013540Y001790D01*
X013540Y001948D02*
X018692Y001948D01*
X018692Y002107D02*
X013540Y002107D01*
X013540Y002265D02*
X018692Y002265D01*
X018692Y002424D02*
X013540Y002424D01*
X013540Y002582D02*
X018692Y002582D01*
X018692Y002741D02*
X013540Y002741D01*
X013540Y002899D02*
X018692Y002899D01*
X018692Y003058D02*
X013540Y003058D01*
X013540Y003216D02*
X018692Y003216D01*
X018692Y003375D02*
X013540Y003375D01*
X013540Y003533D02*
X018692Y003533D01*
X018692Y003692D02*
X013540Y003692D01*
X013540Y003850D02*
X018692Y003850D01*
X018692Y004009D02*
X013540Y004009D01*
X013540Y004167D02*
X018692Y004167D01*
X018692Y004326D02*
X013540Y004326D01*
X013540Y004484D02*
X018692Y004484D01*
X018692Y004643D02*
X013540Y004643D01*
X013540Y004801D02*
X018692Y004801D01*
X018692Y004960D02*
X013540Y004960D01*
X013540Y005118D02*
X018692Y005118D01*
X018692Y005277D02*
X013540Y005277D01*
X013540Y005435D02*
X018692Y005435D01*
X018692Y005594D02*
X013540Y005594D01*
X013540Y005752D02*
X018692Y005752D01*
X018692Y005911D02*
X013540Y005911D01*
X013540Y006069D02*
X018692Y006069D01*
X017400Y006228D02*
X013540Y006228D01*
X013540Y006386D02*
X017272Y006386D01*
X017206Y006545D02*
X013540Y006545D01*
X013540Y006703D02*
X017200Y006703D01*
X017225Y006862D02*
X013540Y006862D01*
X013540Y007020D02*
X017291Y007020D01*
X017446Y007179D02*
X013540Y007179D01*
X011720Y001631D02*
X011670Y001631D01*
X011645Y001473D02*
X011878Y001473D01*
D17*
X015652Y003711D03*
X015652Y010404D03*
X002149Y005365D03*
D18*
X001180Y006180D02*
X001180Y008680D01*
X002680Y008680D01*
X004180Y007180D01*
X013180Y007180D01*
X013180Y001680D01*
X012180Y001680D01*
X010180Y003680D01*
X010180Y005680D01*
X009680Y006180D01*
X001180Y006180D01*
X001180Y006404D02*
X013180Y006404D01*
X013180Y006166D02*
X009694Y006166D01*
X009933Y005927D02*
X013180Y005927D01*
X013180Y005689D02*
X010171Y005689D01*
X010180Y005450D02*
X013180Y005450D01*
X013180Y005212D02*
X010180Y005212D01*
X010180Y004973D02*
X013180Y004973D01*
X013180Y004735D02*
X010180Y004735D01*
X010180Y004496D02*
X013180Y004496D01*
X013180Y004258D02*
X010180Y004258D01*
X010180Y004019D02*
X013180Y004019D01*
X013180Y003781D02*
X010180Y003781D01*
X010318Y003542D02*
X013180Y003542D01*
X013180Y003304D02*
X010556Y003304D01*
X010795Y003065D02*
X013180Y003065D01*
X013180Y002827D02*
X011033Y002827D01*
X011272Y002588D02*
X013180Y002588D01*
X013180Y002350D02*
X011510Y002350D01*
X011749Y002111D02*
X013180Y002111D01*
X013180Y001873D02*
X011987Y001873D01*
X013180Y006643D02*
X001180Y006643D01*
X001180Y006881D02*
X013180Y006881D01*
X013180Y007120D02*
X001180Y007120D01*
X001180Y007358D02*
X004002Y007358D01*
X003763Y007597D02*
X001180Y007597D01*
X001180Y007835D02*
X003525Y007835D01*
X003286Y008074D02*
X001180Y008074D01*
X001180Y008312D02*
X003048Y008312D01*
X002809Y008551D02*
X001180Y008551D01*
X001180Y011680D02*
X001180Y013680D01*
X012680Y013680D01*
X012680Y009680D01*
X010180Y009680D01*
X008180Y011680D01*
X001180Y011680D01*
X001180Y011890D02*
X012680Y011890D01*
X012680Y012128D02*
X001180Y012128D01*
X001180Y012367D02*
X012680Y012367D01*
X012680Y012605D02*
X001180Y012605D01*
X001180Y012844D02*
X012680Y012844D01*
X012680Y013082D02*
X001180Y013082D01*
X001180Y013321D02*
X012680Y013321D01*
X012680Y013559D02*
X001180Y013559D01*
X008209Y011651D02*
X012680Y011651D01*
X012680Y011413D02*
X008447Y011413D01*
X008686Y011174D02*
X012680Y011174D01*
X012680Y010936D02*
X008924Y010936D01*
X009163Y010697D02*
X012680Y010697D01*
X012680Y010459D02*
X009401Y010459D01*
X009640Y010220D02*
X012680Y010220D01*
X012680Y009982D02*
X009878Y009982D01*
X010117Y009743D02*
X012680Y009743D01*
M02*
