G75*
%MOIN*%
%OFA0B0*%
%FSLAX24Y24*%
%IPPOS*%
%LPD*%
%AMOC8*
5,1,8,0,0,1.08239X$1,22.5*
%
%ADD10R,0.0395X0.0552*%
%ADD11R,0.0789X0.0710*%
%ADD12R,0.0710X0.0789*%
%ADD13R,0.0552X0.0395*%
%ADD14R,0.0880X0.0880*%
%ADD15C,0.0880*%
%ADD16R,0.0572X0.0220*%
%ADD17R,0.0220X0.0572*%
%ADD18R,0.1320X0.1320*%
%ADD19R,0.0860X0.0300*%
%ADD20C,0.0740*%
%ADD21R,0.0730X0.0730*%
%ADD22C,0.0600*%
%ADD23OC8,0.0600*%
%ADD24R,0.0750X0.0710*%
%ADD25R,0.0320X0.0450*%
%ADD26R,0.0450X0.0320*%
%ADD27R,0.0966X0.0513*%
%ADD28R,0.1281X0.0883*%
%ADD29R,0.0946X0.1300*%
%ADD30R,0.0568X0.0631*%
%ADD31R,0.0867X0.0552*%
%ADD32C,0.0730*%
%ADD33R,0.0552X0.0867*%
%ADD34R,0.0631X0.0552*%
%ADD35R,0.0552X0.0631*%
%ADD36C,0.0600*%
%ADD37R,0.0671X0.0671*%
%ADD38R,0.0580X0.0580*%
%ADD39R,0.0476X0.0476*%
D10*
X019117Y006125D03*
X019826Y006125D03*
X020574Y011086D03*
X021282Y011086D03*
X026834Y009589D03*
X027542Y009589D03*
X028015Y009589D03*
X028723Y009589D03*
X029196Y009589D03*
X029904Y009589D03*
X034314Y009589D03*
X035023Y009589D03*
X035495Y009589D03*
X036204Y009589D03*
X036676Y009589D03*
X037385Y009589D03*
X037306Y011991D03*
X038015Y011991D03*
X033841Y015101D03*
X033133Y015101D03*
X033999Y015889D03*
X034708Y015889D03*
X034708Y016723D03*
X033999Y016723D03*
X033999Y017542D03*
X034708Y017542D03*
X034708Y018290D03*
X033999Y018290D03*
X033999Y019078D03*
X034708Y019078D03*
X033290Y022857D03*
X032582Y022857D03*
X027621Y019046D03*
X026912Y019046D03*
X026912Y018337D03*
X027621Y018337D03*
X027621Y017589D03*
X026912Y017589D03*
X026912Y016802D03*
X027621Y016802D03*
X027621Y016125D03*
X026912Y016125D03*
X029550Y013763D03*
X030259Y013763D03*
X025334Y021093D03*
X024625Y021093D03*
X019877Y018940D03*
X019168Y018940D03*
X018916Y023861D03*
X018208Y023861D03*
X015771Y027897D03*
X015062Y027897D03*
X013963Y028621D03*
X013255Y028621D03*
X012735Y028621D03*
X012026Y028621D03*
X012444Y023822D03*
X013152Y023822D03*
X009668Y021125D03*
X008960Y021125D03*
X008208Y018979D03*
X007499Y018979D03*
X004129Y020912D03*
X003420Y020912D03*
X002794Y020912D03*
X002086Y020912D03*
X006593Y023861D03*
X007302Y023861D03*
X004113Y027605D03*
X003404Y027605D03*
X002857Y027605D03*
X002149Y027605D03*
X011767Y018940D03*
X011822Y018310D03*
X012530Y018310D03*
X012475Y018940D03*
X020731Y027975D03*
X021440Y027975D03*
X019428Y028511D03*
X018719Y028511D03*
X018239Y028511D03*
X017530Y028511D03*
D11*
X018003Y029267D03*
X018948Y029259D03*
X018948Y030361D03*
X018003Y030369D03*
X013397Y030456D03*
X012491Y030463D03*
X012491Y029361D03*
X013397Y029353D03*
X007278Y029259D03*
X007278Y030361D03*
X003645Y029511D03*
X002621Y029511D03*
X002621Y028408D03*
X003645Y028408D03*
X006129Y023093D03*
X007066Y023093D03*
X007066Y021991D03*
X006129Y021991D03*
X003597Y021794D03*
X002574Y021794D03*
X002574Y022897D03*
X003597Y022897D03*
X011963Y023093D03*
X011963Y021991D03*
X013239Y021991D03*
X013239Y023093D03*
X017711Y023101D03*
X018696Y023109D03*
X018696Y022007D03*
X017711Y021999D03*
D12*
X023912Y019904D03*
X025015Y019904D03*
X031806Y019912D03*
X032908Y019912D03*
X012463Y016609D03*
X011361Y016609D03*
X004676Y020101D03*
X003574Y020101D03*
X002676Y020101D03*
X001574Y020101D03*
X001621Y026834D03*
X002723Y026834D03*
X003582Y026834D03*
X004684Y026834D03*
D13*
X005495Y026046D03*
X005495Y025337D03*
X003511Y025385D03*
X003511Y026093D03*
X002802Y026097D03*
X002802Y025389D03*
X006026Y028830D03*
X006026Y029538D03*
X009393Y027345D03*
X009393Y026637D03*
X010928Y026440D03*
X010928Y027149D03*
X016361Y027227D03*
X016361Y026519D03*
X019416Y025759D03*
X019416Y025050D03*
X019452Y023247D03*
X019452Y022538D03*
X020652Y021952D03*
X020652Y021243D03*
X016125Y019589D03*
X016125Y018881D03*
X014865Y021637D03*
X014865Y022345D03*
X011007Y019629D03*
X011007Y018920D03*
X006164Y018645D03*
X006164Y017936D03*
X003589Y018723D03*
X003589Y019432D03*
X002684Y019432D03*
X002684Y018723D03*
X028904Y020790D03*
X029558Y020782D03*
X029558Y021491D03*
X028904Y021499D03*
X028912Y022003D03*
X028912Y022711D03*
X030652Y026479D03*
X030652Y027188D03*
X034956Y023487D03*
X034956Y022778D03*
X031204Y015377D03*
X031204Y014668D03*
D14*
X008129Y001995D03*
D15*
X006160Y001995D03*
X004192Y001995D03*
D16*
X026004Y020871D03*
X026004Y021121D03*
X026004Y021381D03*
X026004Y021641D03*
X026004Y021891D03*
X027986Y021891D03*
X027986Y021641D03*
X027986Y021381D03*
X027986Y021121D03*
X027986Y020871D03*
X034209Y020999D03*
X034209Y021259D03*
X034209Y021509D03*
X034209Y020739D03*
X034209Y020489D03*
X036191Y020489D03*
X036191Y020739D03*
X036191Y020999D03*
X036191Y021259D03*
X036191Y021509D03*
D17*
X035710Y021990D03*
X035460Y021990D03*
X035200Y021990D03*
X034940Y021990D03*
X034690Y021990D03*
X034690Y020008D03*
X034940Y020008D03*
X035200Y020008D03*
X035460Y020008D03*
X035710Y020008D03*
X027505Y020390D03*
X027255Y020390D03*
X026995Y020390D03*
X026735Y020390D03*
X026485Y020390D03*
X026485Y022372D03*
X026735Y022372D03*
X026995Y022372D03*
X027255Y022372D03*
X027505Y022372D03*
D18*
X026995Y021381D03*
X035200Y020999D03*
D19*
X019496Y021087D03*
X019496Y020587D03*
X019496Y020087D03*
X019496Y019587D03*
X017556Y019587D03*
X017556Y020087D03*
X017556Y020587D03*
X017556Y021087D03*
X013906Y021127D03*
X013906Y020627D03*
X013906Y020127D03*
X013906Y019627D03*
X011966Y019627D03*
X011966Y020127D03*
X011966Y020627D03*
X011966Y021127D03*
X008119Y021127D03*
X008119Y020627D03*
X008119Y020127D03*
X008119Y019627D03*
X006179Y019627D03*
X006179Y020127D03*
X006179Y020627D03*
X006179Y021127D03*
X006257Y026438D03*
X006257Y026938D03*
X006257Y027438D03*
X006257Y027938D03*
X008197Y027938D03*
X008197Y027438D03*
X008197Y026938D03*
X008197Y026438D03*
X012045Y026399D03*
X012045Y026899D03*
X012045Y027399D03*
X012045Y027899D03*
X013985Y027899D03*
X013985Y027399D03*
X013985Y026899D03*
X013985Y026399D03*
X017478Y026438D03*
X017478Y026938D03*
X017478Y027438D03*
X017478Y027938D03*
X019418Y027938D03*
X019418Y027438D03*
X019418Y026938D03*
X019418Y026438D03*
D20*
X026397Y003719D03*
X033290Y003719D03*
D21*
X036290Y003719D03*
X031912Y008515D03*
X029397Y003719D03*
X024826Y008515D03*
D22*
X022318Y001357D03*
D23*
X022318Y003357D03*
X019318Y003357D03*
X019318Y001357D03*
D24*
X024783Y011094D03*
X024783Y014314D03*
X028763Y014314D03*
X032263Y014314D03*
X032263Y011094D03*
X028763Y011094D03*
X036243Y011094D03*
X036243Y014314D03*
D25*
X035673Y014444D03*
X035313Y014444D03*
X034963Y014444D03*
X034603Y014444D03*
X034253Y014444D03*
X033903Y014444D03*
X033543Y014444D03*
X033193Y014444D03*
X032833Y014444D03*
X032833Y010964D03*
X033193Y010964D03*
X033543Y010964D03*
X033903Y010964D03*
X034253Y010964D03*
X034603Y010964D03*
X034963Y010964D03*
X035313Y010964D03*
X035673Y010964D03*
X028193Y010964D03*
X027833Y010964D03*
X027483Y010964D03*
X027123Y010964D03*
X026773Y010964D03*
X026423Y010964D03*
X026063Y010964D03*
X025713Y010964D03*
X025353Y010964D03*
X025353Y014444D03*
X025713Y014444D03*
X026063Y014444D03*
X026423Y014444D03*
X026773Y014444D03*
X027123Y014444D03*
X027483Y014444D03*
X027833Y014444D03*
X028193Y014444D03*
D26*
X028913Y013764D03*
X028913Y013414D03*
X028913Y013054D03*
X028913Y012704D03*
X028913Y012354D03*
X028913Y011994D03*
X028913Y011644D03*
X032113Y011644D03*
X032113Y011994D03*
X032113Y012354D03*
X032113Y012704D03*
X032113Y013054D03*
X032113Y013414D03*
X032113Y013764D03*
X036393Y013764D03*
X036393Y013414D03*
X036393Y013054D03*
X036393Y012704D03*
X036393Y012354D03*
X036393Y011994D03*
X036393Y011644D03*
X024633Y011644D03*
X024633Y011994D03*
X024633Y012354D03*
X024633Y012704D03*
X024633Y013054D03*
X024633Y013414D03*
X024633Y013764D03*
D27*
X028074Y012786D03*
X035554Y012786D03*
D28*
X033735Y011656D03*
X026255Y011656D03*
D29*
X026731Y013211D03*
X025361Y013211D03*
X032841Y013211D03*
X034211Y013211D03*
D30*
X032656Y011782D03*
X025176Y011782D03*
D31*
X026794Y008645D03*
X027975Y008645D03*
X029156Y008645D03*
X029156Y007385D03*
X027975Y007385D03*
X026794Y007385D03*
X034274Y007385D03*
X035456Y007385D03*
X036637Y007385D03*
X036637Y008645D03*
X035456Y008645D03*
X034274Y008645D03*
D32*
X031912Y007515D03*
X024826Y007515D03*
D33*
X024904Y016164D03*
X024904Y017424D03*
X024904Y018645D03*
X026164Y018645D03*
X026164Y017424D03*
X026164Y016164D03*
X031676Y016282D03*
X031676Y017463D03*
X032936Y017463D03*
X032936Y016282D03*
X032936Y018645D03*
X031676Y018645D03*
D34*
X031204Y013881D03*
X031204Y012700D03*
X030652Y024471D03*
X030652Y025652D03*
D35*
X030613Y022857D03*
X031794Y022857D03*
X023251Y011086D03*
X022070Y011086D03*
X021755Y006125D03*
X020574Y006125D03*
D36*
X021613Y018589D02*
X022133Y018589D01*
X022133Y019589D02*
X021613Y019589D01*
X021613Y020589D02*
X022133Y020589D01*
X016337Y024487D02*
X016337Y025007D01*
X015337Y025007D02*
X015337Y024487D01*
X014337Y024487D02*
X014337Y025007D01*
D37*
X001519Y001164D03*
X012267Y003487D03*
X016046Y003487D03*
X016046Y008684D03*
X012267Y008684D03*
X030259Y006637D03*
X036637Y006637D03*
D38*
X030967Y010731D03*
X025574Y015219D03*
X029747Y016479D03*
X029668Y018369D03*
X026243Y019589D03*
X021952Y022660D03*
X021755Y021755D03*
X020456Y023093D03*
X017345Y018841D03*
X015574Y020259D03*
X014904Y021243D03*
X010373Y018448D03*
X008999Y020337D03*
X009983Y020416D03*
X010101Y024314D03*
X010652Y028093D03*
X010652Y029589D03*
X008251Y028566D03*
X004904Y028566D03*
X000928Y030928D03*
X003054Y024117D03*
X005219Y018920D03*
X003566Y015652D03*
X010180Y015613D03*
X015731Y015731D03*
X020692Y015810D03*
X016282Y027621D03*
X014786Y027897D03*
X015101Y029668D03*
X020377Y027975D03*
X021007Y029747D03*
X036558Y018684D03*
X036597Y017306D03*
X037778Y013330D03*
X031322Y001479D03*
X037975Y030889D03*
D39*
X022936Y021637D03*
X021243Y024274D03*
X020613Y024865D03*
X017345Y025928D03*
X011834Y025928D03*
X005416Y026952D03*
M02*
