G75*
%MOIN*%
%OFA0B0*%
%FSLAX24Y24*%
%IPPOS*%
%LPD*%
%AMOC8*
5,1,8,0,0,1.08239X$1,22.5*
%
%ADD10R,0.0880X0.0880*%
%ADD11C,0.0880*%
%ADD12C,0.0740*%
%ADD13R,0.0730X0.0730*%
%ADD14C,0.0600*%
%ADD15OC8,0.0600*%
%ADD16C,0.0730*%
%ADD17R,0.0789X0.0710*%
%ADD18C,0.0600*%
%ADD19R,0.0671X0.0671*%
%ADD20R,0.0580X0.0580*%
%ADD21R,0.0476X0.0476*%
D10*
X008129Y001995D03*
D11*
X006160Y001995D03*
X004192Y001995D03*
D12*
X026397Y003719D03*
X033290Y003719D03*
D13*
X036290Y003719D03*
X031912Y008515D03*
X029397Y003719D03*
X024826Y008515D03*
D14*
X022318Y001357D03*
D15*
X022318Y003357D03*
X019318Y003357D03*
X019318Y001357D03*
D16*
X024826Y007515D03*
X031912Y007515D03*
D17*
X029393Y002542D03*
X029393Y001440D03*
D18*
X022133Y018589D02*
X021613Y018589D01*
X021613Y019589D02*
X022133Y019589D01*
X022133Y020589D02*
X021613Y020589D01*
X016337Y024487D02*
X016337Y025007D01*
X015337Y025007D02*
X015337Y024487D01*
X014337Y024487D02*
X014337Y025007D01*
D19*
X001519Y001164D03*
X012267Y003487D03*
X016046Y003487D03*
X016046Y008684D03*
X012267Y008684D03*
X030259Y006637D03*
X036637Y006637D03*
D20*
X030967Y010731D03*
X025574Y015219D03*
X029747Y016479D03*
X029668Y018369D03*
X026243Y019589D03*
X021952Y022660D03*
X021755Y021755D03*
X020456Y023093D03*
X017345Y018841D03*
X015574Y020259D03*
X014904Y021243D03*
X010373Y018448D03*
X008999Y020337D03*
X009983Y020416D03*
X010101Y024314D03*
X010652Y028093D03*
X010652Y029589D03*
X008251Y028566D03*
X004904Y028566D03*
X000928Y030928D03*
X003054Y024117D03*
X005219Y018920D03*
X003566Y015652D03*
X010180Y015613D03*
X015731Y015731D03*
X020692Y015810D03*
X016282Y027621D03*
X014786Y027897D03*
X015101Y029668D03*
X020377Y027975D03*
X021007Y029747D03*
X036558Y018684D03*
X036597Y017306D03*
X037778Y013330D03*
X031322Y001479D03*
X037975Y030889D03*
D21*
X022936Y021637D03*
X021243Y024274D03*
X020613Y024865D03*
X017345Y025928D03*
X011834Y025928D03*
X005416Y026952D03*
M02*
