%
M48
M72
T01C0.0197
T02C0.0236
T03C0.0276
T04C0.0320
T05C0.0394
T06C0.0400
T07C0.0512
%
T01
X3566Y15652
X5219Y18920
X8999Y20337
X9983Y20416
X10373Y18448
X10180Y15613
X15731Y15731
X17345Y18841
X15574Y20259
X14904Y21243
X10101Y24314
X10652Y28093
X10652Y29589
X8251Y28566
X4904Y28566
X928Y30928
X3054Y24117
X14786Y27897
X16282Y27621
X15101Y29668
X20377Y27975
X21007Y29747
X20456Y23093
X21952Y22660
X21755Y21755
X26243Y19589
X29668Y18369
X29747Y16479
X25574Y15219
X20692Y15810
X30967Y10731
X37778Y13330
X36597Y17306
X36558Y18684
X37975Y30889
X31322Y1479
T02
X22936Y21637
X21243Y24274
X20613Y24865
X17345Y25928
X11834Y25928
X5416Y26952
T03
X24826Y8515
X24826Y7515
X31912Y7515
X31912Y8515
T04
X22318Y3357
X22318Y1357
X19318Y1357
X19318Y3357
X21873Y18589
X21873Y19589
X21873Y20589
X16337Y24747
X15337Y24747
X14337Y24747
T05
X1519Y1164
X12267Y3487
X16046Y3487
X16046Y8684
X12267Y8684
X30259Y6637
X36637Y6637
T06
X36290Y3719
X33290Y3719
X29397Y3719
X26397Y3719
T07
X8129Y1995
X6160Y1995
X4192Y1995
M30
