G75*
%MOIN*%
%OFA0B0*%
%FSLAX24Y24*%
%IPPOS*%
%LPD*%
%AMOC8*
5,1,8,0,0,1.08239X$1,22.5*
%
%ADD10R,0.0880X0.0880*%
%ADD11C,0.0880*%
%ADD12C,0.0740*%
%ADD13R,0.0730X0.0730*%
%ADD14C,0.0600*%
%ADD15OC8,0.0600*%
%ADD16C,0.0730*%
%ADD17R,0.0789X0.0710*%
%ADD18C,0.0680*%
%ADD19R,0.0671X0.0671*%
%ADD20R,0.0476X0.0476*%
%ADD21R,0.0580X0.0580*%
D10*
X008937Y001995D03*
D11*
X006969Y001995D03*
X005000Y001995D03*
D12*
X027205Y003719D03*
X034099Y003719D03*
D13*
X037099Y003719D03*
X032721Y008515D03*
X030205Y003719D03*
X025634Y008515D03*
D14*
X023126Y001357D03*
D15*
X023126Y003357D03*
X020126Y003357D03*
X020126Y001357D03*
D16*
X025634Y007515D03*
X032721Y007515D03*
D17*
X030201Y002542D03*
X030201Y001440D03*
D18*
X008267Y026601D02*
X007667Y026601D01*
X005267Y027601D02*
X004667Y027601D01*
X003267Y026601D02*
X002667Y026601D01*
X002675Y029389D02*
X003275Y029389D01*
X004675Y030389D02*
X005275Y030389D01*
X007675Y029389D02*
X008275Y029389D01*
D19*
X013075Y008684D03*
X016854Y008684D03*
X016854Y003487D03*
X013075Y003487D03*
X031067Y006637D03*
X037445Y006637D03*
D20*
X021921Y024255D03*
X018795Y025089D03*
X010595Y025097D03*
X010697Y022692D03*
X004957Y021298D03*
X003036Y021589D03*
X002484Y024881D03*
X001583Y028523D03*
X001571Y031086D03*
X003303Y010818D03*
X003811Y008349D03*
X009000Y004664D03*
D21*
X001831Y000956D03*
X008295Y008243D03*
X001890Y010837D03*
X011012Y018475D03*
X008339Y018503D03*
X011681Y013873D03*
X018457Y013991D03*
X025709Y015211D03*
X030555Y016479D03*
X030477Y018369D03*
X027051Y019589D03*
X037366Y018684D03*
X037406Y017306D03*
X038587Y013330D03*
X031776Y010731D03*
X032130Y001479D03*
X010721Y027168D03*
X012886Y029696D03*
X038709Y030818D03*
M02*
