G75*
%MOIN*%
%OFA0B0*%
%FSLAX24Y24*%
%IPPOS*%
%LPD*%
%AMOC8*
5,1,8,0,0,1.08239X$1,22.5*
%
%ADD10R,0.0552X0.0395*%
%ADD11R,0.0710X0.0789*%
%ADD12R,0.0789X0.0710*%
%ADD13R,0.0395X0.0552*%
%ADD14R,0.0880X0.0880*%
%ADD15C,0.0880*%
%ADD16R,0.0572X0.0220*%
%ADD17R,0.0220X0.0572*%
%ADD18R,0.1320X0.1320*%
%ADD19C,0.0740*%
%ADD20R,0.0730X0.0730*%
%ADD21C,0.0600*%
%ADD22OC8,0.0600*%
%ADD23R,0.0750X0.0710*%
%ADD24R,0.0320X0.0450*%
%ADD25R,0.0450X0.0320*%
%ADD26R,0.0966X0.0513*%
%ADD27R,0.1281X0.0883*%
%ADD28R,0.0946X0.1300*%
%ADD29R,0.0568X0.0631*%
%ADD30R,0.0867X0.0552*%
%ADD31C,0.0730*%
%ADD32R,0.0552X0.0867*%
%ADD33R,0.0631X0.0552*%
%ADD34R,0.0552X0.0631*%
%ADD35R,0.0316X0.0946*%
%ADD36C,0.0680*%
%ADD37R,0.0671X0.0671*%
%ADD38R,0.0476X0.0476*%
%ADD39R,0.0580X0.0580*%
D10*
X005776Y005483D03*
X005776Y006192D03*
X005776Y006818D03*
X005776Y007526D03*
X013075Y020983D03*
X013075Y021692D03*
X011799Y022538D03*
X011799Y023247D03*
X011799Y023845D03*
X011799Y024554D03*
X015067Y026074D03*
X015839Y026074D03*
X015839Y026782D03*
X015067Y026782D03*
X016240Y022613D03*
X016240Y021904D03*
X014575Y021692D03*
X014575Y020983D03*
X029713Y020790D03*
X030366Y020782D03*
X030366Y021491D03*
X029713Y021499D03*
X029721Y022003D03*
X029721Y022711D03*
X031461Y026479D03*
X031461Y027188D03*
X035764Y023487D03*
X035764Y022778D03*
X032012Y015377D03*
X032012Y014668D03*
D11*
X032614Y019912D03*
X033717Y019912D03*
X025823Y019904D03*
X024721Y019904D03*
X009075Y023432D03*
X007973Y023432D03*
X007953Y024991D03*
X009055Y024991D03*
X008528Y021688D03*
X007425Y021688D03*
X006795Y020495D03*
X005693Y020495D03*
X004268Y020495D03*
X003165Y020495D03*
X003500Y018149D03*
X004602Y018149D03*
X005480Y018145D03*
X006583Y018145D03*
X006256Y014727D03*
X007358Y014727D03*
X004752Y014617D03*
X003650Y014617D03*
X004410Y009735D03*
X005512Y009735D03*
X006410Y009731D03*
X007512Y009731D03*
X004894Y006995D03*
X004894Y005971D03*
X003791Y005971D03*
X003791Y006995D03*
D12*
X006587Y006971D03*
X006587Y006074D03*
X006587Y004971D03*
X006587Y008074D03*
X007969Y011515D03*
X007969Y012617D03*
X013721Y019093D03*
X014760Y019097D03*
X014760Y020200D03*
X013721Y020196D03*
X017071Y021369D03*
X017071Y022471D03*
X014299Y025881D03*
X014299Y026983D03*
D13*
X008528Y024227D03*
X007819Y024227D03*
X005669Y025676D03*
X004961Y025676D03*
X003437Y023948D03*
X003441Y023290D03*
X002732Y023290D03*
X002728Y023948D03*
X007827Y022617D03*
X008536Y022617D03*
X006016Y019239D03*
X005307Y019239D03*
X004760Y019239D03*
X004051Y019239D03*
X003945Y017357D03*
X003236Y017357D03*
X003508Y015519D03*
X004217Y015519D03*
X004748Y015503D03*
X005457Y015503D03*
X006095Y015503D03*
X006803Y015503D03*
X007740Y013999D03*
X007740Y013361D03*
X008449Y013361D03*
X008449Y013999D03*
X007662Y010617D03*
X006953Y010617D03*
X003299Y012030D03*
X002591Y012030D03*
X002587Y012743D03*
X003295Y012743D03*
X006122Y017365D03*
X006831Y017365D03*
X007256Y006987D03*
X007965Y006987D03*
X007965Y006082D03*
X007256Y006082D03*
X019925Y006125D03*
X020634Y006125D03*
X021382Y011086D03*
X022091Y011086D03*
X027642Y009589D03*
X028351Y009589D03*
X028823Y009589D03*
X029532Y009589D03*
X030004Y009589D03*
X030713Y009589D03*
X035122Y009589D03*
X035831Y009589D03*
X036303Y009589D03*
X037012Y009589D03*
X037484Y009589D03*
X038193Y009589D03*
X038114Y011991D03*
X038823Y011991D03*
X034650Y015101D03*
X033941Y015101D03*
X034807Y015889D03*
X035516Y015889D03*
X035516Y016723D03*
X034807Y016723D03*
X034807Y017542D03*
X035516Y017542D03*
X035516Y018290D03*
X034807Y018290D03*
X034807Y019078D03*
X035516Y019078D03*
X034099Y022857D03*
X033390Y022857D03*
X028429Y019046D03*
X027721Y019046D03*
X027721Y018337D03*
X028429Y018337D03*
X028429Y017589D03*
X027721Y017589D03*
X027721Y016802D03*
X027721Y016125D03*
X028429Y016125D03*
X028429Y016802D03*
X030358Y013763D03*
X031067Y013763D03*
X026142Y021093D03*
X025433Y021093D03*
D14*
X008937Y001995D03*
D15*
X006969Y001995D03*
X005000Y001995D03*
D16*
X026812Y020871D03*
X026812Y021121D03*
X026812Y021381D03*
X026812Y021641D03*
X026812Y021891D03*
X028794Y021891D03*
X028794Y021641D03*
X028794Y021381D03*
X028794Y021121D03*
X028794Y020871D03*
X035017Y020999D03*
X035017Y021259D03*
X035017Y021509D03*
X035017Y020739D03*
X035017Y020489D03*
X036999Y020489D03*
X036999Y020739D03*
X036999Y020999D03*
X036999Y021259D03*
X036999Y021509D03*
D17*
X036518Y021990D03*
X036268Y021990D03*
X036008Y021990D03*
X035748Y021990D03*
X035498Y021990D03*
X035498Y020008D03*
X035748Y020008D03*
X036008Y020008D03*
X036268Y020008D03*
X036518Y020008D03*
X028313Y020390D03*
X028063Y020390D03*
X027803Y020390D03*
X027543Y020390D03*
X027293Y020390D03*
X027293Y022372D03*
X027543Y022372D03*
X027803Y022372D03*
X028063Y022372D03*
X028313Y022372D03*
D18*
X027803Y021381D03*
X036008Y020999D03*
D19*
X034099Y003719D03*
X027205Y003719D03*
D20*
X030205Y003719D03*
X032721Y008515D03*
X037099Y003719D03*
X025634Y008515D03*
D21*
X023126Y001357D03*
D22*
X023126Y003357D03*
X020126Y003357D03*
X020126Y001357D03*
D23*
X025591Y011094D03*
X025591Y014314D03*
X029571Y014314D03*
X033071Y014314D03*
X033071Y011094D03*
X029571Y011094D03*
X037051Y011094D03*
X037051Y014314D03*
D24*
X036481Y014444D03*
X036121Y014444D03*
X035771Y014444D03*
X035411Y014444D03*
X035061Y014444D03*
X034711Y014444D03*
X034351Y014444D03*
X034001Y014444D03*
X033641Y014444D03*
X033641Y010964D03*
X034001Y010964D03*
X034351Y010964D03*
X034711Y010964D03*
X035061Y010964D03*
X035411Y010964D03*
X035771Y010964D03*
X036121Y010964D03*
X036481Y010964D03*
X029001Y010964D03*
X028641Y010964D03*
X028291Y010964D03*
X027931Y010964D03*
X027581Y010964D03*
X027231Y010964D03*
X026871Y010964D03*
X026521Y010964D03*
X026161Y010964D03*
X026161Y014444D03*
X026521Y014444D03*
X026871Y014444D03*
X027231Y014444D03*
X027581Y014444D03*
X027931Y014444D03*
X028291Y014444D03*
X028641Y014444D03*
X029001Y014444D03*
D25*
X029721Y013764D03*
X029721Y013414D03*
X029721Y013054D03*
X029721Y012704D03*
X029721Y012354D03*
X029721Y011994D03*
X029721Y011644D03*
X032921Y011644D03*
X032921Y011994D03*
X032921Y012354D03*
X032921Y012704D03*
X032921Y013054D03*
X032921Y013414D03*
X032921Y013764D03*
X037201Y013764D03*
X037201Y013414D03*
X037201Y013054D03*
X037201Y012704D03*
X037201Y012354D03*
X037201Y011994D03*
X037201Y011644D03*
X025441Y011644D03*
X025441Y011994D03*
X025441Y012354D03*
X025441Y012704D03*
X025441Y013054D03*
X025441Y013414D03*
X025441Y013764D03*
D26*
X028882Y012786D03*
X036362Y012786D03*
D27*
X034543Y011656D03*
X027063Y011656D03*
D28*
X027540Y013211D03*
X026169Y013211D03*
X033650Y013211D03*
X035020Y013211D03*
D29*
X033465Y011782D03*
X025984Y011782D03*
D30*
X027602Y008645D03*
X028784Y008645D03*
X029965Y008645D03*
X029965Y007385D03*
X028784Y007385D03*
X027602Y007385D03*
X035083Y007385D03*
X036264Y007385D03*
X037445Y007385D03*
X037445Y008645D03*
X036264Y008645D03*
X035083Y008645D03*
D31*
X032721Y007515D03*
X025634Y007515D03*
D32*
X025713Y016164D03*
X026973Y016164D03*
X026973Y017424D03*
X025713Y017424D03*
X025713Y018645D03*
X026973Y018645D03*
X032484Y018645D03*
X033744Y018645D03*
X033744Y017463D03*
X033744Y016282D03*
X032484Y016282D03*
X032484Y017463D03*
D33*
X032012Y013881D03*
X032012Y012700D03*
X031461Y024471D03*
X031461Y025652D03*
D34*
X031421Y022857D03*
X032602Y022857D03*
X024059Y011086D03*
X022878Y011086D03*
X022563Y006125D03*
X021382Y006125D03*
D35*
X006957Y011499D03*
X006457Y011499D03*
X005957Y011499D03*
X005457Y011499D03*
X004957Y011499D03*
X004457Y011499D03*
X003957Y011499D03*
X003957Y013546D03*
X004457Y013546D03*
X004957Y013546D03*
X005457Y013546D03*
X005957Y013546D03*
X006457Y013546D03*
X006957Y013546D03*
X006929Y022617D03*
X006429Y022617D03*
X005929Y022617D03*
X005429Y022617D03*
X004929Y022617D03*
X004429Y022617D03*
X003929Y022617D03*
X003929Y024664D03*
X004429Y024664D03*
X004929Y024664D03*
X005429Y024664D03*
X005929Y024664D03*
X006429Y024664D03*
X006929Y024664D03*
X012575Y024664D03*
X013075Y024664D03*
X013575Y024664D03*
X014075Y024664D03*
X014575Y024664D03*
X015075Y024664D03*
X015575Y024664D03*
X015575Y022617D03*
X015075Y022617D03*
X014575Y022617D03*
X014075Y022617D03*
X013575Y022617D03*
X013075Y022617D03*
X012575Y022617D03*
D36*
X008267Y026601D02*
X007667Y026601D01*
X005267Y027601D02*
X004667Y027601D01*
X003267Y026601D02*
X002667Y026601D01*
X002675Y029389D02*
X003275Y029389D01*
X004675Y030389D02*
X005275Y030389D01*
X007675Y029389D02*
X008275Y029389D01*
D37*
X013075Y008684D03*
X016854Y008684D03*
X016854Y003487D03*
X013075Y003487D03*
X031067Y006637D03*
X037445Y006637D03*
D38*
X021921Y024255D03*
X018795Y025089D03*
X010595Y025097D03*
X010697Y022692D03*
X004957Y021298D03*
X003036Y021589D03*
X002484Y024881D03*
X001583Y028523D03*
X001571Y031086D03*
X003303Y010818D03*
X003811Y008349D03*
X009000Y004664D03*
D39*
X001831Y000956D03*
X008295Y008243D03*
X001890Y010837D03*
X011012Y018475D03*
X008339Y018503D03*
X011681Y013873D03*
X018457Y013991D03*
X025709Y015211D03*
X030555Y016479D03*
X030477Y018369D03*
X027051Y019589D03*
X037366Y018684D03*
X037406Y017306D03*
X038587Y013330D03*
X031776Y010731D03*
X032130Y001479D03*
X010721Y027168D03*
X012886Y029696D03*
X038709Y030818D03*
M02*
