G75*
%MOIN*%
%OFA0B0*%
%FSLAX24Y24*%
%IPPOS*%
%LPD*%
%AMOC8*
5,1,8,0,0,1.08239X$1,22.5*
%
%ADD10C,0.0000*%
%ADD11C,0.0070*%
%ADD12C,0.0060*%
%ADD13R,0.0472X0.0315*%
%ADD14R,0.0630X0.0709*%
%ADD15R,0.0709X0.0630*%
%ADD16R,0.0315X0.0472*%
%ADD17R,0.0800X0.0800*%
%ADD18C,0.0800*%
%ADD19R,0.0492X0.0140*%
%ADD20R,0.0140X0.0492*%
%ADD21R,0.1240X0.1240*%
%ADD22C,0.0660*%
%ADD23R,0.0650X0.0650*%
%ADD24C,0.0520*%
%ADD25OC8,0.0520*%
%ADD26R,0.0670X0.0630*%
%ADD27R,0.0240X0.0370*%
%ADD28R,0.0370X0.0240*%
%ADD29R,0.0886X0.0433*%
%ADD30R,0.1201X0.0803*%
%ADD31R,0.0866X0.1220*%
%ADD32R,0.0488X0.0551*%
%ADD33R,0.0787X0.0472*%
%ADD34C,0.0650*%
%ADD35R,0.0472X0.0787*%
%ADD36R,0.0551X0.0472*%
%ADD37R,0.0472X0.0551*%
%ADD38R,0.0236X0.0866*%
%ADD39C,0.0600*%
%ADD40R,0.0591X0.0591*%
%ADD41C,0.0160*%
%ADD42R,0.0396X0.0396*%
%ADD43C,0.0120*%
%ADD44R,0.0500X0.0500*%
%ADD45C,0.0100*%
D10*
X000988Y000180D02*
X000988Y031676D01*
X039571Y031676D01*
X039571Y000180D01*
X000988Y000180D01*
D11*
X029133Y028818D02*
X029133Y029608D01*
X029529Y029608D01*
X029661Y029476D01*
X029661Y029213D01*
X029529Y029081D01*
X029133Y029081D01*
X028869Y029081D02*
X028869Y029476D01*
X028737Y029608D01*
X028342Y029608D01*
X028342Y029081D01*
X028077Y029081D02*
X027814Y029081D01*
X027945Y029081D02*
X027945Y029872D01*
X027814Y029872D02*
X028077Y029872D01*
X028481Y030306D02*
X028877Y030306D01*
X029008Y030437D01*
X029008Y030569D01*
X028877Y030701D01*
X028481Y030701D01*
X028481Y030306D02*
X028481Y031096D01*
X028877Y031096D01*
X029008Y030964D01*
X029008Y030833D01*
X028877Y030701D01*
X029273Y030701D02*
X029273Y030437D01*
X029405Y030306D01*
X029669Y030306D01*
X029800Y030437D01*
X029800Y030701D01*
X029669Y030833D01*
X029405Y030833D01*
X029273Y030701D01*
X030065Y030437D02*
X030197Y030569D01*
X030592Y030569D01*
X030592Y030701D02*
X030592Y030306D01*
X030197Y030306D01*
X030065Y030437D01*
X030197Y030833D02*
X030460Y030833D01*
X030592Y030701D01*
X030857Y030833D02*
X030857Y030306D01*
X030857Y030569D02*
X031121Y030833D01*
X031252Y030833D01*
X031517Y030701D02*
X031517Y030437D01*
X031649Y030306D01*
X032044Y030306D01*
X032044Y031096D01*
X032044Y030833D02*
X031649Y030833D01*
X031517Y030701D01*
X032300Y029872D02*
X032564Y029608D01*
X032564Y029081D01*
X032829Y029081D02*
X033224Y029081D01*
X033356Y029213D01*
X033356Y029476D01*
X033224Y029608D01*
X032829Y029608D01*
X032829Y029872D02*
X032829Y029081D01*
X032564Y029476D02*
X032037Y029476D01*
X032037Y029608D02*
X032300Y029872D01*
X032037Y029608D02*
X032037Y029081D01*
X030981Y029081D02*
X030849Y029213D01*
X030849Y029740D01*
X030717Y029608D02*
X030981Y029608D01*
X030452Y029608D02*
X030452Y029081D01*
X030057Y029081D01*
X029925Y029213D01*
X029925Y029608D01*
X027425Y030174D02*
X027425Y030833D01*
X027029Y030833D01*
X026898Y030701D01*
X026898Y030437D01*
X027029Y030306D01*
X027425Y030306D01*
X027425Y030174D02*
X027293Y030042D01*
X027161Y030042D01*
X026757Y029740D02*
X026625Y029872D01*
X026362Y029872D01*
X026230Y029740D01*
X026230Y029213D01*
X026362Y029081D01*
X026625Y029081D01*
X026757Y029213D01*
X025965Y029081D02*
X025965Y029608D01*
X025702Y029872D01*
X025438Y029608D01*
X025438Y029081D01*
X025438Y029476D02*
X025965Y029476D01*
X025841Y030306D02*
X025578Y030306D01*
X025710Y030306D02*
X025710Y030833D01*
X025578Y030833D01*
X025313Y030833D02*
X025181Y030833D01*
X024918Y030569D01*
X024918Y030306D02*
X024918Y030833D01*
X024653Y030701D02*
X024653Y030569D01*
X024126Y030569D01*
X024126Y030437D02*
X024126Y030701D01*
X024258Y030833D01*
X024521Y030833D01*
X024653Y030701D01*
X024521Y030306D02*
X024258Y030306D01*
X024126Y030437D01*
X023862Y030306D02*
X023730Y030437D01*
X023730Y030964D01*
X023598Y030833D02*
X023862Y030833D01*
X023202Y031096D02*
X023202Y030306D01*
X023070Y030306D02*
X023334Y030306D01*
X022806Y030306D02*
X022542Y030306D01*
X022674Y030306D02*
X022674Y030833D01*
X022542Y030833D01*
X022674Y031096D02*
X022674Y031228D01*
X023070Y031096D02*
X023202Y031096D01*
X022278Y031096D02*
X021750Y031096D01*
X021750Y030306D01*
X021750Y030701D02*
X022014Y030701D01*
X021743Y029872D02*
X021743Y029081D01*
X021743Y029345D02*
X022138Y029608D01*
X022402Y029476D02*
X022930Y029476D01*
X023194Y029345D02*
X023590Y029345D01*
X023721Y029476D01*
X023721Y029740D01*
X023590Y029872D01*
X023194Y029872D01*
X023194Y029081D01*
X023986Y029081D02*
X023986Y029872D01*
X024382Y029608D02*
X023986Y029345D01*
X024382Y029081D01*
X026106Y030306D02*
X026106Y030833D01*
X026501Y030833D01*
X026633Y030701D01*
X026633Y030306D01*
X025710Y031096D02*
X025710Y031228D01*
X022138Y029081D02*
X021743Y029345D01*
X021478Y029476D02*
X021346Y029345D01*
X020951Y029345D01*
X020951Y029081D02*
X020951Y029872D01*
X021346Y029872D01*
X021478Y029740D01*
X021478Y029476D01*
X020562Y030306D02*
X020694Y030437D01*
X020694Y030964D01*
X020562Y031096D01*
X020167Y031096D01*
X020167Y030306D01*
X020562Y030306D01*
X019902Y030306D02*
X019902Y030833D01*
X019638Y031096D01*
X019375Y030833D01*
X019375Y030306D01*
X019110Y030306D02*
X018583Y030306D01*
X018583Y031096D01*
X019110Y031096D01*
X018846Y030701D02*
X018583Y030701D01*
X018318Y030569D02*
X018318Y030437D01*
X018186Y030306D01*
X017923Y030306D01*
X017791Y030437D01*
X017923Y030701D02*
X017791Y030833D01*
X017791Y030964D01*
X017923Y031096D01*
X018186Y031096D01*
X018318Y030964D01*
X018186Y030701D02*
X018318Y030569D01*
X018186Y030701D02*
X017923Y030701D01*
X018178Y029872D02*
X017783Y029476D01*
X018310Y029476D01*
X018575Y029213D02*
X019102Y029740D01*
X019102Y029213D01*
X018970Y029081D01*
X018707Y029081D01*
X018575Y029213D01*
X018575Y029740D01*
X018707Y029872D01*
X018970Y029872D01*
X019102Y029740D01*
X019367Y029872D02*
X019367Y029345D01*
X019630Y029081D01*
X019894Y029345D01*
X019894Y029872D01*
X019902Y030701D02*
X019375Y030701D01*
X018178Y029872D02*
X018178Y029081D01*
X033101Y030833D02*
X033364Y030306D01*
X033628Y030833D01*
X033893Y030833D02*
X034156Y031096D01*
X034156Y030306D01*
X033893Y030306D02*
X034420Y030306D01*
X034684Y030306D02*
X034816Y030306D01*
X034816Y030437D01*
X034684Y030437D01*
X034684Y030306D01*
X035080Y030437D02*
X035080Y030701D01*
X035476Y030701D01*
X035607Y030569D01*
X035607Y030437D01*
X035476Y030306D01*
X035212Y030306D01*
X035080Y030437D01*
X035080Y030701D02*
X035344Y030964D01*
X035607Y031096D01*
X035600Y029872D02*
X035864Y029608D01*
X036127Y029872D01*
X036127Y029081D01*
X036392Y029213D02*
X036524Y029345D01*
X036919Y029345D01*
X036919Y029476D02*
X036919Y029081D01*
X036524Y029081D01*
X036392Y029213D01*
X036524Y029608D02*
X036788Y029608D01*
X036919Y029476D01*
X037184Y029608D02*
X037711Y029081D01*
X037976Y029081D02*
X037976Y029213D01*
X037976Y029476D02*
X037976Y030004D01*
X037711Y029608D02*
X037184Y029081D01*
X035600Y029081D02*
X035600Y029872D01*
X034544Y029213D02*
X034544Y029081D01*
X034413Y029081D01*
X034413Y029213D01*
X034544Y029213D01*
X034148Y029213D02*
X034016Y029345D01*
X033752Y029345D01*
X033621Y029476D01*
X033752Y029608D01*
X034148Y029608D01*
X034148Y029213D02*
X034016Y029081D01*
X033621Y029081D01*
D12*
X034406Y028535D02*
X034640Y028301D01*
X034873Y028535D01*
X034873Y027834D01*
X035106Y027951D02*
X035223Y028068D01*
X035573Y028068D01*
X035573Y028185D02*
X035573Y027834D01*
X035223Y027834D01*
X035106Y027951D01*
X035223Y028301D02*
X035456Y028301D01*
X035573Y028185D01*
X035806Y028301D02*
X035806Y027834D01*
X036273Y027834D02*
X036273Y028185D01*
X036156Y028301D01*
X035806Y028301D01*
X036505Y028185D02*
X036505Y027951D01*
X036622Y027834D01*
X036856Y027834D01*
X036972Y027951D01*
X036972Y028185D01*
X036856Y028301D01*
X036622Y028301D01*
X036505Y028185D01*
X037205Y028301D02*
X037439Y027834D01*
X037672Y028301D01*
X037905Y028301D02*
X038022Y028301D01*
X038022Y027834D01*
X037905Y027834D02*
X038139Y027834D01*
X038022Y028535D02*
X038022Y028652D01*
X034406Y028535D02*
X034406Y027834D01*
X033474Y027951D02*
X033474Y028185D01*
X033357Y028301D01*
X033123Y028301D01*
X033006Y028185D01*
X033006Y027951D01*
X033123Y027834D01*
X033357Y027834D01*
X033474Y027951D01*
X032773Y027834D02*
X032540Y027834D01*
X032657Y027834D02*
X032657Y028535D01*
X032540Y028535D01*
X032307Y028301D02*
X032074Y027834D01*
X031840Y028301D01*
X031607Y028185D02*
X031607Y027834D01*
X031257Y027834D01*
X031140Y027951D01*
X031257Y028068D01*
X031607Y028068D01*
X031607Y028185D02*
X031491Y028301D01*
X031257Y028301D01*
X030908Y028185D02*
X030908Y028418D01*
X030791Y028535D01*
X030441Y028535D01*
X030441Y027834D01*
X030441Y028068D02*
X030791Y028068D01*
X030908Y028185D01*
X029508Y028185D02*
X029041Y028185D01*
X029391Y028535D01*
X029391Y027834D01*
X028808Y027834D02*
X028341Y027834D01*
X028575Y027834D02*
X028575Y028535D01*
X028341Y028301D01*
X028108Y028418D02*
X028108Y027951D01*
X027992Y027834D01*
X027758Y027834D01*
X027641Y027951D01*
X028108Y028418D01*
X027992Y028535D01*
X027758Y028535D01*
X027641Y028418D01*
X027641Y027951D01*
X027409Y027834D02*
X026942Y027834D01*
X027409Y028301D01*
X027409Y028418D01*
X027292Y028535D01*
X027058Y028535D01*
X026942Y028418D01*
X026009Y028301D02*
X025775Y028535D01*
X025542Y028301D02*
X025192Y028301D01*
X025075Y028185D01*
X025075Y027951D01*
X025192Y027834D01*
X025542Y027834D01*
X025775Y027834D02*
X026009Y028068D01*
X026009Y028301D01*
X026008Y027161D02*
X026242Y026694D01*
X026476Y027161D01*
X026708Y027395D02*
X026825Y027395D01*
X026825Y026694D01*
X026708Y026694D02*
X026942Y026694D01*
X027175Y026811D02*
X027292Y026694D01*
X027525Y026694D01*
X027642Y026811D01*
X027642Y027045D01*
X027525Y027161D01*
X027292Y027161D01*
X027175Y027045D01*
X027175Y026811D01*
X027875Y026811D02*
X027875Y026694D01*
X027991Y026694D01*
X027991Y026811D01*
X027875Y026811D01*
X028224Y026694D02*
X028224Y027161D01*
X028341Y027161D01*
X028458Y027045D01*
X028575Y027161D01*
X028692Y027045D01*
X028692Y026694D01*
X028458Y026694D02*
X028458Y027045D01*
X028924Y027045D02*
X029041Y027161D01*
X029275Y027161D01*
X029391Y027045D01*
X029391Y026928D01*
X028924Y026928D01*
X028924Y026811D02*
X028924Y027045D01*
X028924Y026811D02*
X029041Y026694D01*
X029275Y026694D01*
X025776Y026694D02*
X025425Y026694D01*
X025309Y026811D01*
X025425Y026928D01*
X025776Y026928D01*
X025776Y027045D02*
X025776Y026694D01*
X025776Y027045D02*
X025659Y027161D01*
X025425Y027161D01*
X025076Y027045D02*
X025076Y026811D01*
X024959Y026694D01*
X024609Y026694D01*
X024609Y026461D02*
X024609Y027161D01*
X024959Y027161D01*
X025076Y027045D01*
X024842Y027834D02*
X024609Y028068D01*
X024609Y028301D01*
X024842Y028535D01*
D13*
X031461Y027188D03*
X031461Y026479D03*
X035764Y023487D03*
X035764Y022778D03*
X030366Y021491D03*
X029713Y021499D03*
X029721Y022003D03*
X029721Y022711D03*
X029713Y020790D03*
X030366Y020782D03*
X032012Y015377D03*
X032012Y014668D03*
X016240Y021904D03*
X016240Y022613D03*
X014575Y021692D03*
X014575Y020983D03*
X013075Y020983D03*
X013075Y021692D03*
X011799Y022538D03*
X011799Y023247D03*
X011799Y023845D03*
X011799Y024554D03*
X015067Y026074D03*
X015839Y026074D03*
X015839Y026782D03*
X015067Y026782D03*
X005776Y007526D03*
X005776Y006818D03*
X005776Y006192D03*
X005776Y005483D03*
D14*
X004894Y005971D03*
X004894Y006995D03*
X003791Y006995D03*
X003791Y005971D03*
X004410Y009735D03*
X005512Y009735D03*
X006410Y009731D03*
X007512Y009731D03*
X004752Y014617D03*
X003650Y014617D03*
X006256Y014727D03*
X007358Y014727D03*
X006583Y018145D03*
X005480Y018145D03*
X004602Y018149D03*
X003500Y018149D03*
X003165Y020495D03*
X004268Y020495D03*
X005693Y020495D03*
X006795Y020495D03*
X007425Y021688D03*
X008528Y021688D03*
X009075Y023432D03*
X007973Y023432D03*
X007953Y024991D03*
X009055Y024991D03*
X024721Y019904D03*
X025823Y019904D03*
X032614Y019912D03*
X033717Y019912D03*
D15*
X017071Y021369D03*
X017071Y022471D03*
X014760Y020200D03*
X013721Y020196D03*
X013721Y019093D03*
X014760Y019097D03*
X007969Y012617D03*
X007969Y011515D03*
X006587Y008074D03*
X006587Y006971D03*
X006587Y006074D03*
X006587Y004971D03*
X014299Y025881D03*
X014299Y026983D03*
D16*
X008528Y024227D03*
X007819Y024227D03*
X005669Y025676D03*
X004961Y025676D03*
X003437Y023948D03*
X003441Y023290D03*
X002732Y023290D03*
X002728Y023948D03*
X007827Y022617D03*
X008536Y022617D03*
X006016Y019239D03*
X005307Y019239D03*
X004760Y019239D03*
X004051Y019239D03*
X003945Y017357D03*
X003236Y017357D03*
X003508Y015519D03*
X004217Y015519D03*
X004748Y015503D03*
X005457Y015503D03*
X006095Y015503D03*
X006803Y015503D03*
X007740Y013999D03*
X007740Y013361D03*
X008449Y013361D03*
X008449Y013999D03*
X007662Y010617D03*
X006953Y010617D03*
X003299Y012030D03*
X002591Y012030D03*
X002587Y012743D03*
X003295Y012743D03*
X006122Y017365D03*
X006831Y017365D03*
X007256Y006987D03*
X007965Y006987D03*
X007965Y006082D03*
X007256Y006082D03*
X019925Y006125D03*
X020634Y006125D03*
X021382Y011086D03*
X022091Y011086D03*
X027642Y009589D03*
X028351Y009589D03*
X028823Y009589D03*
X029532Y009589D03*
X030004Y009589D03*
X030713Y009589D03*
X035122Y009589D03*
X035831Y009589D03*
X036303Y009589D03*
X037012Y009589D03*
X037484Y009589D03*
X038193Y009589D03*
X038114Y011991D03*
X038823Y011991D03*
X034650Y015101D03*
X033941Y015101D03*
X034807Y015889D03*
X035516Y015889D03*
X035516Y016723D03*
X034807Y016723D03*
X034807Y017542D03*
X035516Y017542D03*
X035516Y018290D03*
X034807Y018290D03*
X034807Y019078D03*
X035516Y019078D03*
X034099Y022857D03*
X033390Y022857D03*
X028429Y019046D03*
X027721Y019046D03*
X027721Y018337D03*
X028429Y018337D03*
X028429Y017589D03*
X027721Y017589D03*
X027721Y016802D03*
X027721Y016125D03*
X028429Y016125D03*
X028429Y016802D03*
X030358Y013763D03*
X031067Y013763D03*
X026142Y021093D03*
X025433Y021093D03*
D17*
X008937Y001995D03*
D18*
X006969Y001995D03*
X005000Y001995D03*
D19*
X026812Y020871D03*
X026812Y021121D03*
X026812Y021381D03*
X026812Y021641D03*
X026812Y021891D03*
X028794Y021891D03*
X028794Y021641D03*
X028794Y021381D03*
X028794Y021121D03*
X028794Y020871D03*
X035017Y020999D03*
X035017Y021259D03*
X035017Y021509D03*
X035017Y020739D03*
X035017Y020489D03*
X036999Y020489D03*
X036999Y020739D03*
X036999Y020999D03*
X036999Y021259D03*
X036999Y021509D03*
D20*
X036518Y021990D03*
X036268Y021990D03*
X036008Y021990D03*
X035748Y021990D03*
X035498Y021990D03*
X035498Y020008D03*
X035748Y020008D03*
X036008Y020008D03*
X036268Y020008D03*
X036518Y020008D03*
X028313Y020390D03*
X028063Y020390D03*
X027803Y020390D03*
X027543Y020390D03*
X027293Y020390D03*
X027293Y022372D03*
X027543Y022372D03*
X027803Y022372D03*
X028063Y022372D03*
X028313Y022372D03*
D21*
X027803Y021381D03*
X036008Y020999D03*
D22*
X034099Y003719D03*
X027205Y003719D03*
D23*
X030205Y003719D03*
X032721Y008515D03*
X037099Y003719D03*
X025634Y008515D03*
D24*
X023126Y001357D03*
D25*
X023126Y003357D03*
X020126Y003357D03*
X020126Y001357D03*
D26*
X025591Y011094D03*
X025591Y014314D03*
X029571Y014314D03*
X033071Y014314D03*
X033071Y011094D03*
X029571Y011094D03*
X037051Y011094D03*
X037051Y014314D03*
D27*
X036481Y014444D03*
X036121Y014444D03*
X035771Y014444D03*
X035411Y014444D03*
X035061Y014444D03*
X034711Y014444D03*
X034351Y014444D03*
X034001Y014444D03*
X033641Y014444D03*
X033641Y010964D03*
X034001Y010964D03*
X034351Y010964D03*
X034711Y010964D03*
X035061Y010964D03*
X035411Y010964D03*
X035771Y010964D03*
X036121Y010964D03*
X036481Y010964D03*
X029001Y010964D03*
X028641Y010964D03*
X028291Y010964D03*
X027931Y010964D03*
X027581Y010964D03*
X027231Y010964D03*
X026871Y010964D03*
X026521Y010964D03*
X026161Y010964D03*
X026161Y014444D03*
X026521Y014444D03*
X026871Y014444D03*
X027231Y014444D03*
X027581Y014444D03*
X027931Y014444D03*
X028291Y014444D03*
X028641Y014444D03*
X029001Y014444D03*
D28*
X029721Y013764D03*
X029721Y013414D03*
X029721Y013054D03*
X029721Y012704D03*
X029721Y012354D03*
X029721Y011994D03*
X029721Y011644D03*
X032921Y011644D03*
X032921Y011994D03*
X032921Y012354D03*
X032921Y012704D03*
X032921Y013054D03*
X032921Y013414D03*
X032921Y013764D03*
X037201Y013764D03*
X037201Y013414D03*
X037201Y013054D03*
X037201Y012704D03*
X037201Y012354D03*
X037201Y011994D03*
X037201Y011644D03*
X025441Y011644D03*
X025441Y011994D03*
X025441Y012354D03*
X025441Y012704D03*
X025441Y013054D03*
X025441Y013414D03*
X025441Y013764D03*
D29*
X028882Y012786D03*
X036362Y012786D03*
D30*
X034543Y011656D03*
X027063Y011656D03*
D31*
X027540Y013211D03*
X026169Y013211D03*
X033650Y013211D03*
X035020Y013211D03*
D32*
X033465Y011782D03*
X025984Y011782D03*
D33*
X027602Y008645D03*
X028784Y008645D03*
X029965Y008645D03*
X029965Y007385D03*
X028784Y007385D03*
X027602Y007385D03*
X035083Y007385D03*
X036264Y007385D03*
X037445Y007385D03*
X037445Y008645D03*
X036264Y008645D03*
X035083Y008645D03*
D34*
X032721Y007515D03*
X025634Y007515D03*
D35*
X025713Y016164D03*
X026973Y016164D03*
X026973Y017424D03*
X025713Y017424D03*
X025713Y018645D03*
X026973Y018645D03*
X032484Y018645D03*
X033744Y018645D03*
X033744Y017463D03*
X033744Y016282D03*
X032484Y016282D03*
X032484Y017463D03*
D36*
X032012Y013881D03*
X032012Y012700D03*
X031461Y024471D03*
X031461Y025652D03*
D37*
X031421Y022857D03*
X032602Y022857D03*
X024059Y011086D03*
X022878Y011086D03*
X022563Y006125D03*
X021382Y006125D03*
D38*
X006957Y011499D03*
X006457Y011499D03*
X005957Y011499D03*
X005457Y011499D03*
X004957Y011499D03*
X004457Y011499D03*
X003957Y011499D03*
X003957Y013546D03*
X004457Y013546D03*
X004957Y013546D03*
X005457Y013546D03*
X005957Y013546D03*
X006457Y013546D03*
X006957Y013546D03*
X006929Y022617D03*
X006429Y022617D03*
X005929Y022617D03*
X005429Y022617D03*
X004929Y022617D03*
X004429Y022617D03*
X003929Y022617D03*
X003929Y024664D03*
X004429Y024664D03*
X004929Y024664D03*
X005429Y024664D03*
X005929Y024664D03*
X006429Y024664D03*
X006929Y024664D03*
X012575Y024664D03*
X013075Y024664D03*
X013575Y024664D03*
X014075Y024664D03*
X014575Y024664D03*
X015075Y024664D03*
X015575Y024664D03*
X015575Y022617D03*
X015075Y022617D03*
X014575Y022617D03*
X014075Y022617D03*
X013575Y022617D03*
X013075Y022617D03*
X012575Y022617D03*
D39*
X008267Y026601D02*
X007667Y026601D01*
X005267Y027601D02*
X004667Y027601D01*
X003267Y026601D02*
X002667Y026601D01*
X002675Y029389D02*
X003275Y029389D01*
X004675Y030389D02*
X005275Y030389D01*
X007675Y029389D02*
X008275Y029389D01*
D40*
X013075Y008684D03*
X016854Y008684D03*
X016854Y003487D03*
X013075Y003487D03*
X031067Y006637D03*
X037445Y006637D03*
D41*
X037970Y006927D02*
X037970Y007027D01*
X037836Y007162D01*
X037054Y007162D01*
X036920Y007027D01*
X036920Y006246D01*
X037054Y006111D01*
X037836Y006111D01*
X037970Y006246D01*
X037970Y006347D01*
X038211Y006347D01*
X038318Y006391D01*
X038400Y006472D01*
X038675Y006748D01*
X038719Y006855D01*
X038719Y008505D01*
X038675Y008612D01*
X038594Y008694D01*
X038397Y008890D01*
X038290Y008935D01*
X038069Y008935D01*
X038069Y008976D01*
X037934Y009111D01*
X036956Y009111D01*
X036854Y009009D01*
X036753Y009111D01*
X035775Y009111D01*
X035673Y009009D01*
X035572Y009111D01*
X034594Y009111D01*
X034459Y008976D01*
X034459Y008955D01*
X033256Y008955D01*
X033141Y009070D01*
X033031Y009070D01*
X033031Y009422D01*
X033597Y009988D01*
X034802Y009988D01*
X034735Y009921D01*
X034735Y009258D01*
X034869Y009123D01*
X035375Y009123D01*
X035477Y009225D01*
X035578Y009123D01*
X036556Y009123D01*
X036691Y009258D01*
X036691Y009921D01*
X036556Y010056D01*
X036401Y010056D01*
X036401Y010277D01*
X036460Y010218D01*
X036538Y010139D01*
X036641Y010097D01*
X037204Y010097D01*
X037204Y010028D01*
X037097Y009921D01*
X037097Y009258D01*
X037232Y009123D01*
X037737Y009123D01*
X037872Y009258D01*
X037872Y009921D01*
X037764Y010028D01*
X037764Y010354D01*
X037722Y010457D01*
X037643Y010535D01*
X037564Y010614D01*
X037461Y010657D01*
X036813Y010657D01*
X036809Y010661D01*
X036831Y010684D01*
X036831Y011244D01*
X036697Y011379D01*
X035374Y011379D01*
X035374Y012153D01*
X035239Y012288D01*
X033848Y012288D01*
X033713Y012153D01*
X033713Y011306D01*
X033651Y011244D01*
X033651Y010684D01*
X033727Y010608D01*
X033407Y010608D01*
X033293Y010561D01*
X033206Y010474D01*
X032458Y009726D01*
X032411Y009612D01*
X032411Y009070D01*
X032300Y009070D01*
X032166Y008935D01*
X032166Y008094D01*
X032300Y007960D01*
X033141Y007960D01*
X033276Y008094D01*
X033276Y008335D01*
X034459Y008335D01*
X034459Y008313D01*
X034594Y008178D01*
X035572Y008178D01*
X035673Y008280D01*
X035775Y008178D01*
X036753Y008178D01*
X036854Y008280D01*
X036956Y008178D01*
X037934Y008178D01*
X038069Y008313D01*
X038069Y008355D01*
X038112Y008355D01*
X038139Y008328D01*
X038139Y007032D01*
X038034Y006927D01*
X037970Y006927D01*
X037970Y006996D02*
X038102Y006996D01*
X038139Y007154D02*
X037844Y007154D01*
X038139Y007313D02*
X031377Y007313D01*
X031377Y007162D02*
X031377Y008431D01*
X031330Y008545D01*
X031054Y008820D01*
X030967Y008907D01*
X030853Y008955D01*
X030588Y008955D01*
X030588Y008976D01*
X030454Y009111D01*
X029476Y009111D01*
X029374Y009009D01*
X029273Y009111D01*
X028295Y009111D01*
X028193Y009009D01*
X028091Y009111D01*
X027114Y009111D01*
X026979Y008976D01*
X026979Y008825D01*
X026189Y008825D01*
X026189Y008935D01*
X026054Y009070D01*
X025944Y009070D01*
X025944Y009619D01*
X026432Y010106D01*
X027332Y010106D01*
X027332Y009998D01*
X027254Y009921D01*
X027254Y009258D01*
X027389Y009123D01*
X027895Y009123D01*
X027996Y009225D01*
X028098Y009123D01*
X029076Y009123D01*
X029210Y009258D01*
X029210Y009921D01*
X029145Y009987D01*
X029145Y010110D01*
X029155Y010106D01*
X029674Y010106D01*
X029674Y009979D01*
X029617Y009921D01*
X029617Y009258D01*
X029751Y009123D01*
X030257Y009123D01*
X030358Y009225D01*
X030460Y009123D01*
X030965Y009123D01*
X031100Y009258D01*
X031100Y009921D01*
X031023Y009998D01*
X031023Y010655D01*
X030976Y010769D01*
X030468Y011277D01*
X030380Y011364D01*
X030273Y011408D01*
X030487Y011622D01*
X030574Y011709D01*
X030621Y011823D01*
X030621Y012305D01*
X030574Y012419D01*
X030464Y012529D01*
X030377Y012616D01*
X030263Y012663D01*
X030136Y012663D01*
X030136Y013296D01*
X030611Y013296D01*
X030746Y013431D01*
X030746Y014094D01*
X030611Y014229D01*
X030136Y014229D01*
X030136Y014724D01*
X030001Y014859D01*
X028252Y014859D01*
X028228Y014919D01*
X028082Y015064D01*
X027995Y015151D01*
X027881Y015199D01*
X027117Y015199D01*
X026179Y016136D01*
X026179Y016653D01*
X026044Y016788D01*
X026023Y016788D01*
X026023Y016800D01*
X026044Y016800D01*
X026179Y016935D01*
X026179Y017199D01*
X026185Y017254D01*
X026179Y017276D01*
X026179Y017913D01*
X026058Y018034D01*
X026179Y018156D01*
X026179Y019134D01*
X026133Y019180D01*
X026133Y019320D01*
X026233Y019320D01*
X026368Y019455D01*
X026368Y019635D01*
X026479Y019681D01*
X026878Y020080D01*
X026993Y020080D01*
X026993Y020048D01*
X027128Y019914D01*
X028033Y019914D01*
X028033Y019255D01*
X028028Y019229D01*
X028033Y019200D01*
X026133Y019200D01*
X026179Y019042D02*
X028042Y019042D01*
X028042Y019149D02*
X028042Y018715D01*
X028065Y018692D01*
X028042Y018669D01*
X028042Y018006D01*
X028084Y017963D01*
X028042Y017921D01*
X028042Y017258D01*
X028104Y017196D01*
X028042Y017134D01*
X028042Y016471D01*
X028049Y016463D01*
X028042Y016456D01*
X028042Y015793D01*
X028177Y015659D01*
X028682Y015659D01*
X028817Y015793D01*
X028817Y015819D01*
X028920Y015862D01*
X029195Y016138D01*
X029283Y016225D01*
X029330Y016339D01*
X029330Y019343D01*
X029857Y019870D01*
X030932Y019870D01*
X031046Y019917D01*
X031400Y020272D01*
X031487Y020359D01*
X031535Y020473D01*
X031535Y022352D01*
X031753Y022352D01*
X031888Y022486D01*
X031888Y023228D01*
X031753Y023363D01*
X031535Y023363D01*
X031535Y023391D01*
X031487Y023505D01*
X031094Y023899D01*
X031028Y023964D01*
X037710Y023964D01*
X038198Y023477D01*
X038198Y016568D01*
X037828Y016199D01*
X035903Y016199D01*
X035903Y016220D01*
X035826Y016298D01*
X035826Y016314D01*
X035903Y016392D01*
X035903Y017055D01*
X035826Y017132D01*
X035826Y017133D01*
X035903Y017211D01*
X035903Y017874D01*
X035861Y017916D01*
X035903Y017959D01*
X035903Y018622D01*
X035841Y018684D01*
X035903Y018746D01*
X035903Y019069D01*
X036245Y019411D01*
X036288Y019514D01*
X036288Y019596D01*
X036353Y019532D01*
X036683Y019532D01*
X036818Y019666D01*
X036818Y020349D01*
X036683Y020484D01*
X036353Y020484D01*
X036263Y020394D01*
X036173Y020484D01*
X035493Y020484D01*
X035493Y021514D01*
X036433Y021514D01*
X036523Y021604D01*
X036523Y021344D01*
X036613Y021254D01*
X036523Y021164D01*
X036523Y020834D01*
X036658Y020699D01*
X037341Y020699D01*
X037475Y020834D01*
X037475Y021164D01*
X037386Y021254D01*
X037475Y021344D01*
X037475Y021674D01*
X037341Y021809D01*
X036658Y021809D01*
X036568Y021719D01*
X036568Y022331D01*
X036480Y022420D01*
X036494Y022433D01*
X036497Y022435D01*
X036534Y022472D01*
X036572Y022508D01*
X036574Y022511D01*
X036576Y022514D01*
X036596Y022562D01*
X036617Y022610D01*
X036617Y022613D01*
X036619Y022616D01*
X036619Y022669D01*
X036620Y022721D01*
X036619Y022724D01*
X036619Y023029D01*
X036624Y023052D01*
X036619Y023085D01*
X036619Y023118D01*
X036610Y023139D01*
X036606Y023162D01*
X036589Y023190D01*
X036576Y023220D01*
X036560Y023237D01*
X036548Y023257D01*
X036521Y023276D01*
X036497Y023299D01*
X036476Y023308D01*
X036422Y023347D01*
X036399Y023370D01*
X036377Y023379D01*
X036359Y023393D01*
X036327Y023400D01*
X036296Y023413D01*
X036273Y023413D01*
X036250Y023418D01*
X036218Y023413D01*
X035415Y023413D01*
X035364Y023415D01*
X035359Y023413D01*
X035354Y023413D01*
X035307Y023393D01*
X035260Y023376D01*
X035256Y023372D01*
X035251Y023370D01*
X035215Y023334D01*
X035087Y023215D01*
X035082Y023213D01*
X035046Y023177D01*
X035009Y023142D01*
X035007Y023138D01*
X035003Y023134D01*
X034984Y023087D01*
X034962Y023041D01*
X034962Y023036D01*
X034960Y023031D01*
X034960Y022980D01*
X034958Y022930D01*
X034960Y022925D01*
X034960Y021848D01*
X034941Y021829D01*
X033879Y021829D01*
X033765Y021781D01*
X033678Y021694D01*
X033454Y021470D01*
X033407Y021356D01*
X033407Y020497D01*
X033306Y020497D01*
X033172Y020362D01*
X033172Y019463D01*
X033306Y019328D01*
X033434Y019328D01*
X033434Y019268D01*
X033413Y019268D01*
X033278Y019134D01*
X033278Y018156D01*
X033380Y018054D01*
X033278Y017952D01*
X033278Y016974D01*
X033380Y016873D01*
X033278Y016771D01*
X033278Y016255D01*
X032781Y015758D01*
X032694Y015671D01*
X032647Y015557D01*
X032647Y014859D01*
X032641Y014859D01*
X032506Y014724D01*
X032506Y014223D01*
X032396Y014334D01*
X032478Y014415D01*
X032478Y014921D01*
X032343Y015056D01*
X031680Y015056D01*
X031546Y014921D01*
X031546Y014415D01*
X031628Y014334D01*
X031506Y014212D01*
X031506Y013549D01*
X031641Y013415D01*
X032383Y013415D01*
X032506Y013538D01*
X032506Y013042D01*
X032383Y013166D01*
X031641Y013166D01*
X031506Y013031D01*
X031506Y012368D01*
X031641Y012233D01*
X032383Y012233D01*
X032518Y012368D01*
X032518Y012414D01*
X032581Y012414D01*
X032641Y012354D01*
X033202Y012354D01*
X033219Y012371D01*
X034178Y012371D01*
X034313Y012506D01*
X034313Y013917D01*
X034178Y014052D01*
X033879Y014052D01*
X033991Y014164D01*
X033991Y014635D01*
X034194Y014635D01*
X034295Y014737D01*
X034361Y014671D01*
X034361Y014164D01*
X034482Y014043D01*
X034357Y013917D01*
X034357Y012506D01*
X034491Y012371D01*
X035548Y012371D01*
X035683Y012506D01*
X035683Y013917D01*
X035548Y014052D01*
X035299Y014052D01*
X035411Y014164D01*
X035411Y014724D01*
X035314Y014821D01*
X035868Y014821D01*
X035771Y014724D01*
X035771Y014164D01*
X035906Y014029D01*
X036337Y014029D01*
X036697Y014029D01*
X036831Y014164D01*
X036831Y014724D01*
X036734Y014821D01*
X037211Y014821D01*
X037401Y014631D01*
X037401Y014114D01*
X036921Y014114D01*
X036786Y013979D01*
X036786Y013199D01*
X036921Y013064D01*
X037482Y013064D01*
X037616Y013199D01*
X037616Y013483D01*
X037658Y013483D01*
X037761Y013525D01*
X037840Y013604D01*
X037919Y013683D01*
X037961Y013786D01*
X037961Y014803D01*
X037919Y014906D01*
X037840Y014984D01*
X037486Y015339D01*
X037383Y015381D01*
X035037Y015381D01*
X035037Y015433D01*
X034902Y015567D01*
X034397Y015567D01*
X034295Y015466D01*
X034194Y015567D01*
X033688Y015567D01*
X033554Y015433D01*
X033554Y015267D01*
X033468Y015181D01*
X033389Y015102D01*
X033346Y014999D01*
X033346Y014859D01*
X033267Y014859D01*
X033267Y015367D01*
X033559Y015659D01*
X034076Y015659D01*
X034210Y015793D01*
X034210Y016771D01*
X034109Y016873D01*
X034210Y016974D01*
X034210Y017952D01*
X034109Y018054D01*
X034210Y018156D01*
X034210Y019134D01*
X034076Y019268D01*
X034054Y019268D01*
X034054Y019328D01*
X034127Y019328D01*
X034262Y019463D01*
X034262Y020362D01*
X034127Y020497D01*
X034027Y020497D01*
X034027Y021166D01*
X034069Y021209D01*
X034541Y021209D01*
X034541Y020324D01*
X034675Y020189D01*
X034921Y020189D01*
X035198Y019912D01*
X035198Y019666D01*
X035218Y019646D01*
X035218Y019499D01*
X035128Y019409D01*
X035128Y018746D01*
X035191Y018684D01*
X035128Y018622D01*
X035128Y017959D01*
X035171Y017916D01*
X035128Y017874D01*
X035128Y017211D01*
X035206Y017133D01*
X035206Y017132D01*
X035128Y017055D01*
X035128Y016392D01*
X035206Y016314D01*
X035206Y016298D01*
X035128Y016220D01*
X035128Y015557D01*
X035263Y015422D01*
X035769Y015422D01*
X035903Y015557D01*
X035903Y015579D01*
X038018Y015579D01*
X038132Y015626D01*
X038684Y016177D01*
X038771Y016264D01*
X038818Y016378D01*
X038818Y023667D01*
X038771Y023781D01*
X038102Y024450D01*
X038014Y024537D01*
X037900Y024584D01*
X031966Y024584D01*
X031966Y024803D01*
X031832Y024938D01*
X031090Y024938D01*
X030955Y024803D01*
X030955Y024584D01*
X022313Y024584D01*
X022215Y024683D01*
X021628Y024683D01*
X021493Y024548D01*
X021493Y024033D01*
X020290Y024033D01*
X019224Y025100D01*
X019224Y025383D01*
X019089Y025518D01*
X018502Y025518D01*
X018367Y025383D01*
X018367Y024796D01*
X018502Y024661D01*
X018785Y024661D01*
X019848Y023599D01*
X019848Y021686D01*
X014616Y016455D01*
X005612Y016455D01*
X005498Y016407D01*
X005411Y016320D01*
X005237Y016147D01*
X005190Y016033D01*
X005190Y015955D01*
X005069Y015834D01*
X005069Y015201D01*
X004604Y015201D01*
X004604Y015850D01*
X004469Y015985D01*
X003964Y015985D01*
X003862Y015883D01*
X003761Y015985D01*
X003255Y015985D01*
X003121Y015850D01*
X003121Y015829D01*
X002443Y015829D01*
X002235Y016037D01*
X002235Y024453D01*
X002778Y024453D01*
X002912Y024587D01*
X002912Y024617D01*
X003127Y024402D01*
X003127Y024357D01*
X003050Y024279D01*
X003050Y023616D01*
X003054Y023612D01*
X003054Y022959D01*
X003151Y022862D01*
X003151Y022797D01*
X002860Y022506D01*
X002773Y022419D01*
X002726Y022305D01*
X002726Y022001D01*
X002607Y021883D01*
X002607Y021296D01*
X002742Y021161D01*
X003329Y021161D01*
X003464Y021296D01*
X003464Y021883D01*
X003346Y022001D01*
X003346Y022115D01*
X003581Y022350D01*
X003581Y022089D01*
X003619Y022051D01*
X003619Y021036D01*
X003576Y021079D01*
X002755Y021079D01*
X002621Y020945D01*
X002621Y020045D01*
X002755Y019911D01*
X002895Y019911D01*
X002895Y019075D01*
X002939Y018968D01*
X003021Y018887D01*
X003375Y018533D01*
X003482Y018488D01*
X003734Y018488D01*
X003761Y018461D01*
X003761Y017823D01*
X003692Y017823D01*
X003558Y017689D01*
X003558Y017026D01*
X003692Y016891D01*
X004198Y016891D01*
X004332Y017026D01*
X004332Y017189D01*
X005735Y017189D01*
X005735Y017034D01*
X005869Y016899D01*
X006375Y016899D01*
X006510Y017034D01*
X006510Y017697D01*
X006375Y017831D01*
X006310Y017831D01*
X006310Y018437D01*
X006420Y018437D01*
X006527Y018481D01*
X006608Y018563D01*
X007041Y018996D01*
X007085Y019103D01*
X007085Y019911D01*
X007206Y019911D01*
X007340Y020045D01*
X007340Y020945D01*
X007206Y021079D01*
X006385Y021079D01*
X006250Y020945D01*
X006250Y020376D01*
X006238Y020388D01*
X006238Y020666D01*
X006239Y020670D01*
X006239Y021954D01*
X006643Y021954D01*
X006679Y021991D01*
X006716Y021954D01*
X007143Y021954D01*
X007277Y022089D01*
X007277Y022307D01*
X007439Y022307D01*
X007439Y022286D01*
X007574Y022151D01*
X007996Y022151D01*
X007983Y022137D01*
X007983Y021238D01*
X008117Y021104D01*
X008938Y021104D01*
X009073Y021238D01*
X009073Y021245D01*
X009226Y021092D01*
X009332Y021047D01*
X012609Y021047D01*
X012609Y020730D01*
X012743Y020596D01*
X013136Y020596D01*
X013136Y019786D01*
X013271Y019651D01*
X013468Y019651D01*
X013463Y019638D01*
X013271Y019638D01*
X013136Y019504D01*
X013136Y018683D01*
X013271Y018548D01*
X014170Y018548D01*
X014305Y018683D01*
X014305Y019355D01*
X015463Y019355D01*
X015570Y019399D01*
X015664Y019493D01*
X015746Y019575D01*
X015790Y019681D01*
X015790Y021636D01*
X015909Y021517D01*
X016485Y021517D01*
X016487Y021515D01*
X016487Y020959D01*
X016621Y020824D01*
X017521Y020824D01*
X017655Y020959D01*
X017655Y021067D01*
X017833Y021067D01*
X017940Y021111D01*
X018022Y021193D01*
X018238Y021409D01*
X018282Y021516D01*
X018282Y026328D01*
X018238Y026435D01*
X018157Y026516D01*
X017157Y027516D01*
X017050Y027561D01*
X015183Y027561D01*
X015076Y027516D01*
X014994Y027435D01*
X014903Y027343D01*
X014903Y027343D01*
X014821Y027262D01*
X014783Y027170D01*
X014736Y027170D01*
X014601Y027035D01*
X014601Y026722D01*
X013694Y026722D01*
X013588Y026678D01*
X013411Y026501D01*
X013385Y026475D01*
X013385Y027435D01*
X013338Y027549D01*
X010322Y030564D01*
X010235Y030651D01*
X010121Y030699D01*
X005714Y030699D01*
X005575Y030838D01*
X005380Y030919D01*
X004569Y030919D01*
X004374Y030838D01*
X004225Y030689D01*
X004145Y030494D01*
X004145Y030283D01*
X004225Y030088D01*
X004374Y029939D01*
X004569Y029859D01*
X005380Y029859D01*
X005575Y029939D01*
X005714Y030079D01*
X006487Y030079D01*
X006120Y029695D01*
X003718Y029695D01*
X003575Y029838D01*
X003380Y029919D01*
X003251Y029919D01*
X003251Y030112D01*
X003204Y030226D01*
X003117Y030313D01*
X002233Y031196D01*
X017648Y031196D01*
X017641Y031189D01*
X017566Y031115D01*
X017526Y031017D01*
X017526Y030780D01*
X017566Y030683D01*
X017614Y030635D01*
X017566Y030587D01*
X017526Y030490D01*
X017526Y030385D01*
X017566Y030287D01*
X017773Y030081D01*
X017870Y030041D01*
X017972Y030041D01*
X017954Y030022D01*
X017954Y030022D01*
X017633Y029701D01*
X017559Y029627D01*
X017518Y029529D01*
X017518Y029424D01*
X017559Y029326D01*
X017633Y029252D01*
X017730Y029211D01*
X017913Y029211D01*
X017913Y029028D01*
X017954Y028931D01*
X018028Y028856D01*
X018126Y028816D01*
X018231Y028816D01*
X018329Y028856D01*
X018403Y028931D01*
X018426Y028987D01*
X018557Y028856D01*
X018654Y028816D01*
X019023Y028816D01*
X019120Y028856D01*
X019195Y028931D01*
X019300Y029036D01*
X019406Y028931D01*
X019480Y028856D01*
X019578Y028816D01*
X019683Y028816D01*
X019781Y028856D01*
X020044Y029120D01*
X020119Y029195D01*
X020159Y029292D01*
X020159Y029925D01*
X020119Y030022D01*
X020090Y030050D01*
X020114Y030041D01*
X020615Y030041D01*
X020712Y030081D01*
X020844Y030213D01*
X020918Y030287D01*
X020959Y030385D01*
X020959Y031017D01*
X020918Y031115D01*
X020837Y031196D01*
X021505Y031196D01*
X021485Y031149D01*
X021485Y030253D01*
X021526Y030155D01*
X021589Y030093D01*
X021544Y030048D01*
X021496Y030096D01*
X021399Y030137D01*
X020898Y030137D01*
X020801Y030096D01*
X020726Y030022D01*
X020686Y029925D01*
X020686Y029028D01*
X020726Y028931D01*
X020801Y028856D01*
X020898Y028816D01*
X021003Y028816D01*
X021101Y028856D01*
X021175Y028931D01*
X021216Y029028D01*
X021216Y029080D01*
X021399Y029080D01*
X021478Y029112D01*
X021478Y029028D01*
X021518Y028931D01*
X021592Y028856D01*
X021690Y028816D01*
X021795Y028816D01*
X021893Y028856D01*
X021934Y028898D01*
X022035Y028831D01*
X022138Y028811D01*
X022242Y028832D01*
X022329Y028890D01*
X022388Y028978D01*
X022408Y029081D01*
X022387Y029185D01*
X022370Y029211D01*
X022929Y029211D01*
X022929Y029028D01*
X022970Y028931D01*
X023044Y028856D01*
X023142Y028816D01*
X023247Y028816D01*
X023344Y028856D01*
X023419Y028931D01*
X023459Y029028D01*
X023459Y029080D01*
X023642Y029080D01*
X023721Y029112D01*
X023721Y029028D01*
X023762Y028931D01*
X023836Y028856D01*
X023933Y028816D01*
X024039Y028816D01*
X024136Y028856D01*
X024178Y028898D01*
X024278Y028831D01*
X024382Y028811D01*
X024485Y028832D01*
X024573Y028890D01*
X024631Y028978D01*
X024652Y029081D01*
X024631Y029185D01*
X024572Y029272D01*
X024464Y029345D01*
X024572Y029417D01*
X024631Y029505D01*
X024652Y029608D01*
X024631Y029711D01*
X024573Y029799D01*
X024485Y029858D01*
X024382Y029878D01*
X024278Y029858D01*
X024251Y029840D01*
X024251Y029925D01*
X024211Y030022D01*
X024183Y030050D01*
X024205Y030041D01*
X024574Y030041D01*
X024671Y030081D01*
X024720Y030129D01*
X024768Y030081D01*
X024865Y030041D01*
X024971Y030041D01*
X025068Y030081D01*
X025143Y030155D01*
X025183Y030253D01*
X025183Y030459D01*
X025291Y030568D01*
X025366Y030568D01*
X025445Y030600D01*
X025445Y030537D01*
X025428Y030530D01*
X025353Y030456D01*
X025313Y030358D01*
X025313Y030253D01*
X025353Y030155D01*
X025428Y030081D01*
X025504Y030049D01*
X025477Y030022D01*
X025213Y029758D01*
X025212Y029756D01*
X025173Y029661D01*
X024641Y029661D01*
X024630Y029503D02*
X025173Y029503D01*
X025173Y029661D02*
X025173Y029028D01*
X025213Y028931D01*
X025288Y028856D01*
X025385Y028816D01*
X025491Y028816D01*
X025588Y028856D01*
X025663Y028931D01*
X025702Y029025D01*
X025740Y028931D01*
X025815Y028856D01*
X025912Y028816D01*
X026018Y028816D01*
X026115Y028856D01*
X026163Y028905D01*
X026212Y028856D01*
X026309Y028816D01*
X026678Y028816D01*
X026775Y028856D01*
X026982Y029063D01*
X027022Y029160D01*
X027022Y029266D01*
X026982Y029363D01*
X026907Y029438D01*
X026813Y029476D01*
X026907Y029515D01*
X026982Y029590D01*
X027022Y029687D01*
X027022Y029793D01*
X027012Y029817D01*
X027108Y029777D01*
X027346Y029777D01*
X027443Y029817D01*
X027549Y029923D01*
X027549Y029819D01*
X027589Y029722D01*
X027663Y029647D01*
X027680Y029640D01*
X027680Y029313D01*
X027663Y029306D01*
X027589Y029231D01*
X027549Y029134D01*
X027549Y029028D01*
X027589Y028931D01*
X027663Y028856D01*
X027761Y028816D01*
X028130Y028816D01*
X028209Y028849D01*
X028289Y028816D01*
X028394Y028816D01*
X028492Y028856D01*
X028566Y028931D01*
X028605Y029025D01*
X028644Y028931D01*
X028719Y028856D01*
X028816Y028816D01*
X028868Y028816D01*
X028868Y028765D01*
X028909Y028667D01*
X028983Y028593D01*
X029053Y028564D01*
X028894Y028405D01*
X028835Y028346D01*
X028835Y028587D01*
X028795Y028682D01*
X028722Y028755D01*
X028626Y028795D01*
X028523Y028795D01*
X028427Y028755D01*
X028283Y028611D01*
X028256Y028638D01*
X028139Y028755D01*
X028043Y028795D01*
X027706Y028795D01*
X027611Y028755D01*
X027525Y028669D01*
X027512Y028682D01*
X027439Y028755D01*
X027344Y028795D01*
X027007Y028795D01*
X026911Y028755D01*
X026721Y028565D01*
X026682Y028470D01*
X026682Y028366D01*
X026721Y028271D01*
X026794Y028198D01*
X026890Y028158D01*
X026898Y028158D01*
X026721Y027982D01*
X026682Y027886D01*
X026682Y027783D01*
X026721Y027687D01*
X026753Y027655D01*
X026657Y027655D01*
X026561Y027615D01*
X026488Y027542D01*
X026448Y027447D01*
X026448Y027424D01*
X026442Y027424D01*
X026344Y027392D01*
X026266Y027324D01*
X026242Y027276D01*
X026218Y027324D01*
X026140Y027392D01*
X026042Y027424D01*
X025938Y027417D01*
X025846Y027371D01*
X025833Y027355D01*
X025806Y027382D01*
X025711Y027421D01*
X025374Y027421D01*
X025278Y027382D01*
X025205Y027309D01*
X025198Y027291D01*
X025106Y027382D01*
X025011Y027421D01*
X024557Y027421D01*
X024462Y027382D01*
X024388Y027309D01*
X024349Y027213D01*
X024349Y026409D01*
X024388Y026313D01*
X024462Y026240D01*
X024557Y026201D01*
X024661Y026201D01*
X024756Y026240D01*
X024829Y026313D01*
X024869Y026409D01*
X024869Y026434D01*
X025011Y026434D01*
X025068Y026458D01*
X025106Y026474D01*
X025108Y026475D01*
X025192Y026560D01*
X025278Y026474D01*
X025374Y026434D01*
X025827Y026434D01*
X025923Y026474D01*
X025996Y026547D01*
X026008Y026575D01*
X026012Y026563D01*
X026024Y026549D01*
X026033Y026532D01*
X026058Y026510D01*
X026079Y026485D01*
X026096Y026476D01*
X026111Y026464D01*
X026142Y026453D01*
X026172Y026439D01*
X026191Y026437D01*
X026209Y026431D01*
X026242Y026434D01*
X026275Y026431D01*
X026293Y026437D01*
X026312Y026439D01*
X026342Y026453D01*
X026373Y026464D01*
X026388Y026476D01*
X026405Y026485D01*
X026426Y026510D01*
X026451Y026532D01*
X026460Y026549D01*
X026472Y026563D01*
X026476Y026575D01*
X026488Y026547D01*
X026561Y026474D01*
X026657Y026434D01*
X026994Y026434D01*
X027089Y026474D01*
X027117Y026501D01*
X027144Y026474D01*
X027240Y026434D01*
X027577Y026434D01*
X027632Y026457D01*
X027672Y026474D01*
X027700Y026501D01*
X027727Y026474D01*
X027823Y026434D01*
X028043Y026434D01*
X028108Y026461D01*
X028173Y026434D01*
X028276Y026434D01*
X028341Y026461D01*
X028406Y026434D01*
X028510Y026434D01*
X028575Y026461D01*
X028640Y026434D01*
X028743Y026434D01*
X028839Y026474D01*
X028866Y026501D01*
X028894Y026474D01*
X028989Y026434D01*
X029326Y026434D01*
X029422Y026474D01*
X029495Y026547D01*
X029535Y026643D01*
X029535Y026706D01*
X029539Y026707D01*
X029612Y026781D01*
X029651Y026876D01*
X029651Y027096D01*
X029612Y027192D01*
X029539Y027265D01*
X029422Y027382D01*
X029326Y027421D01*
X028989Y027421D01*
X028894Y027382D01*
X028808Y027296D01*
X028722Y027382D01*
X028627Y027421D01*
X028523Y027421D01*
X028458Y027394D01*
X028393Y027421D01*
X028173Y027421D01*
X028077Y027382D01*
X028004Y027309D01*
X027964Y027213D01*
X027964Y027071D01*
X027902Y027071D01*
X027902Y027096D01*
X027862Y027192D01*
X027746Y027309D01*
X027672Y027382D01*
X027577Y027421D01*
X027240Y027421D01*
X027144Y027382D01*
X027085Y027322D01*
X027085Y027447D01*
X027045Y027542D01*
X027013Y027574D01*
X027460Y027574D01*
X027556Y027614D01*
X027583Y027641D01*
X027611Y027614D01*
X027706Y027574D01*
X028043Y027574D01*
X028100Y027598D01*
X028139Y027614D01*
X028140Y027615D01*
X028166Y027641D01*
X028194Y027614D01*
X028289Y027574D01*
X028860Y027574D01*
X028955Y027614D01*
X029029Y027687D01*
X029068Y027783D01*
X029068Y027886D01*
X029052Y027925D01*
X029131Y027925D01*
X029131Y027783D01*
X029171Y027687D01*
X029244Y027614D01*
X029339Y027574D01*
X029443Y027574D01*
X029538Y027614D01*
X029612Y027687D01*
X029651Y027783D01*
X029651Y027962D01*
X029655Y027964D01*
X029728Y028037D01*
X029768Y028133D01*
X029768Y028236D01*
X029728Y028332D01*
X029655Y028405D01*
X029651Y028407D01*
X029651Y028587D01*
X029612Y028682D01*
X029538Y028755D01*
X029443Y028795D01*
X029398Y028795D01*
X029398Y028816D01*
X029581Y028816D01*
X029679Y028856D01*
X029793Y028971D01*
X029832Y028931D01*
X029907Y028856D01*
X030004Y028816D01*
X030505Y028816D01*
X030602Y028856D01*
X030677Y028931D01*
X030700Y028987D01*
X030831Y028856D01*
X030928Y028816D01*
X031033Y028816D01*
X031131Y028856D01*
X031205Y028931D01*
X031246Y029028D01*
X031246Y029134D01*
X031205Y029231D01*
X031114Y029323D01*
X031114Y029377D01*
X031131Y029384D01*
X031205Y029458D01*
X031246Y029556D01*
X031246Y029661D01*
X031205Y029758D01*
X031131Y029833D01*
X031090Y029850D01*
X031074Y029890D01*
X030999Y029965D01*
X030902Y030005D01*
X030796Y030005D01*
X030699Y029965D01*
X030624Y029890D01*
X030607Y029850D01*
X030585Y029840D01*
X030505Y029873D01*
X030400Y029873D01*
X030302Y029833D01*
X030228Y029758D01*
X030189Y029664D01*
X030150Y029758D01*
X030075Y029833D01*
X029978Y029873D01*
X029873Y029873D01*
X029775Y029833D01*
X029727Y029785D01*
X029679Y029833D01*
X029581Y029873D01*
X029081Y029873D01*
X028983Y029833D01*
X028935Y029785D01*
X028887Y029833D01*
X028790Y029873D01*
X028342Y029873D01*
X028342Y029925D01*
X028302Y030022D01*
X028227Y030096D01*
X028130Y030137D01*
X027761Y030137D01*
X027683Y030105D01*
X027690Y030121D01*
X027690Y030885D01*
X027649Y030983D01*
X027575Y031057D01*
X027477Y031098D01*
X026977Y031098D01*
X026879Y031057D01*
X026765Y030943D01*
X026651Y031057D01*
X026554Y031098D01*
X026053Y031098D01*
X025975Y031065D01*
X025975Y031196D01*
X028236Y031196D01*
X028216Y031149D01*
X028216Y030253D01*
X028257Y030155D01*
X028331Y030081D01*
X028429Y030041D01*
X028929Y030041D01*
X029027Y030081D01*
X029101Y030155D01*
X029141Y030195D01*
X029255Y030081D01*
X029352Y030041D01*
X029721Y030041D01*
X029819Y030081D01*
X029933Y030195D01*
X030047Y030081D01*
X030144Y030041D01*
X030645Y030041D01*
X030725Y030074D01*
X030804Y030041D01*
X030910Y030041D01*
X031007Y030081D01*
X031082Y030155D01*
X031122Y030253D01*
X031122Y030459D01*
X031230Y030568D01*
X031252Y030568D01*
X031252Y030385D01*
X031292Y030287D01*
X031367Y030213D01*
X031499Y030081D01*
X031596Y030041D01*
X032094Y030041D01*
X032076Y030022D01*
X031812Y029758D01*
X031811Y029756D01*
X031772Y029661D01*
X031246Y029661D01*
X031224Y029503D02*
X031772Y029503D01*
X031772Y029661D02*
X031772Y029028D01*
X031812Y028931D01*
X031887Y028856D01*
X031984Y028816D01*
X032090Y028816D01*
X032187Y028856D01*
X032262Y028931D01*
X032300Y029025D01*
X032339Y028931D01*
X032414Y028856D01*
X032511Y028816D01*
X032617Y028816D01*
X032696Y028849D01*
X032776Y028816D01*
X033277Y028816D01*
X033374Y028856D01*
X033422Y028905D01*
X033471Y028856D01*
X033568Y028816D01*
X034069Y028816D01*
X034166Y028856D01*
X034214Y028905D01*
X034262Y028856D01*
X034360Y028816D01*
X034597Y028816D01*
X034694Y028856D01*
X034769Y028931D01*
X034809Y029028D01*
X034809Y029266D01*
X034769Y029363D01*
X034694Y029438D01*
X034597Y029478D01*
X034381Y029478D01*
X034413Y029556D01*
X034413Y029661D01*
X034372Y029758D01*
X034298Y029833D01*
X034201Y029873D01*
X033700Y029873D01*
X033602Y029833D01*
X033528Y029758D01*
X033488Y029719D01*
X033449Y029758D01*
X033374Y029833D01*
X033277Y029873D01*
X033094Y029873D01*
X033094Y029925D01*
X033053Y030022D01*
X032979Y030096D01*
X032882Y030137D01*
X033155Y030137D01*
X033151Y030140D02*
X033176Y030118D01*
X033199Y030092D01*
X033216Y030083D01*
X033230Y030071D01*
X033263Y030060D01*
X033293Y030045D01*
X033312Y030044D01*
X033330Y030037D01*
X033364Y030040D01*
X033398Y030037D01*
X033416Y030044D01*
X033436Y030045D01*
X033466Y030060D01*
X033498Y030071D01*
X033513Y030083D01*
X033530Y030092D01*
X033552Y030118D01*
X033578Y030140D01*
X033586Y030157D01*
X033599Y030172D01*
X033610Y030204D01*
X033631Y030246D01*
X033668Y030155D01*
X033742Y030081D01*
X033840Y030041D01*
X034472Y030041D01*
X034552Y030074D01*
X034632Y030041D01*
X034869Y030041D01*
X034966Y030081D01*
X035014Y030129D01*
X035062Y030081D01*
X035159Y030041D01*
X035394Y030041D01*
X035376Y030022D01*
X035376Y030022D01*
X035336Y029926D01*
X035335Y029925D01*
X035335Y029028D01*
X035376Y028931D01*
X035450Y028856D01*
X035548Y028816D01*
X035653Y028816D01*
X035750Y028856D01*
X035825Y028931D01*
X035864Y029025D01*
X035903Y028931D01*
X035977Y028856D01*
X036075Y028816D01*
X036180Y028816D01*
X036278Y028856D01*
X036326Y028905D01*
X036374Y028856D01*
X036471Y028816D01*
X036972Y028816D01*
X037052Y028849D01*
X037131Y028816D01*
X037237Y028816D01*
X037334Y028856D01*
X037448Y028970D01*
X037561Y028856D01*
X037659Y028816D01*
X037764Y028816D01*
X037844Y028849D01*
X037849Y028847D01*
X037801Y028799D01*
X037762Y028703D01*
X037762Y028547D01*
X037742Y028557D01*
X037639Y028564D01*
X037541Y028532D01*
X037463Y028464D01*
X037439Y028416D01*
X037415Y028464D01*
X037336Y028532D01*
X037238Y028564D01*
X037135Y028557D01*
X037043Y028511D01*
X037029Y028495D01*
X037003Y028522D01*
X036907Y028561D01*
X036570Y028561D01*
X036475Y028522D01*
X036389Y028436D01*
X036303Y028522D01*
X036208Y028561D01*
X035754Y028561D01*
X035658Y028522D01*
X035631Y028494D01*
X035603Y028522D01*
X035508Y028561D01*
X035171Y028561D01*
X035133Y028546D01*
X035133Y028587D01*
X035121Y028615D01*
X035094Y028682D01*
X035020Y028755D01*
X034928Y028794D01*
X034925Y028795D01*
X034821Y028795D01*
X034793Y028783D01*
X034726Y028755D01*
X034640Y028669D01*
X034553Y028755D01*
X034458Y028795D01*
X034354Y028795D01*
X034259Y028755D01*
X034186Y028682D01*
X034146Y028587D01*
X034146Y027783D01*
X034186Y027687D01*
X034259Y027614D01*
X034354Y027574D01*
X034458Y027574D01*
X034553Y027614D01*
X034626Y027687D01*
X034640Y027719D01*
X034653Y027687D01*
X034726Y027614D01*
X034821Y027574D01*
X034925Y027574D01*
X035020Y027614D01*
X035048Y027641D01*
X035075Y027614D01*
X035171Y027574D01*
X035625Y027574D01*
X035689Y027601D01*
X035754Y027574D01*
X035857Y027574D01*
X035953Y027614D01*
X036026Y027687D01*
X036039Y027719D01*
X036052Y027687D01*
X036125Y027614D01*
X036221Y027574D01*
X036324Y027574D01*
X036420Y027614D01*
X036447Y027641D01*
X036475Y027614D01*
X036570Y027574D01*
X036907Y027574D01*
X036963Y027597D01*
X037003Y027614D01*
X037173Y027784D01*
X037198Y027735D01*
X037208Y027703D01*
X037221Y027689D01*
X037229Y027672D01*
X037254Y027650D01*
X037276Y027625D01*
X037293Y027616D01*
X037307Y027604D01*
X037339Y027593D01*
X037369Y027579D01*
X037388Y027577D01*
X037406Y027571D01*
X037439Y027574D01*
X037472Y027571D01*
X037490Y027577D01*
X037509Y027579D01*
X037538Y027593D01*
X037570Y027604D01*
X037584Y027616D01*
X037601Y027625D01*
X037623Y027650D01*
X037648Y027672D01*
X037657Y027689D01*
X037669Y027703D01*
X037673Y027715D01*
X037685Y027687D01*
X037758Y027614D01*
X037853Y027574D01*
X038190Y027574D01*
X038286Y027614D01*
X038359Y027687D01*
X038399Y027783D01*
X038399Y027886D01*
X038359Y027982D01*
X038286Y028055D01*
X038282Y028056D01*
X038282Y028353D01*
X038255Y028418D01*
X038282Y028483D01*
X038282Y028703D01*
X038242Y028799D01*
X038169Y028872D01*
X038150Y028880D01*
X038201Y028931D01*
X038241Y029028D01*
X038241Y029266D01*
X038208Y029345D01*
X038241Y029424D01*
X038241Y030056D01*
X038201Y030154D01*
X038126Y030228D01*
X038029Y030269D01*
X037923Y030269D01*
X037826Y030228D01*
X037751Y030154D01*
X037711Y030056D01*
X037711Y029873D01*
X037659Y029873D01*
X037561Y029833D01*
X037448Y029719D01*
X037334Y029833D01*
X037237Y029873D01*
X037131Y029873D01*
X037034Y029833D01*
X036986Y029785D01*
X036938Y029833D01*
X036840Y029873D01*
X036471Y029873D01*
X036392Y029841D01*
X036392Y029925D01*
X036352Y030022D01*
X036278Y030096D01*
X036180Y030137D01*
X036075Y030137D01*
X035977Y030096D01*
X035903Y030022D01*
X035903Y030022D01*
X035864Y029983D01*
X035825Y030022D01*
X035756Y030091D01*
X035750Y030096D01*
X035673Y030128D01*
X035758Y030213D01*
X035832Y030287D01*
X035872Y030385D01*
X035872Y030622D01*
X035832Y030719D01*
X035703Y030848D01*
X035773Y030883D01*
X035842Y030962D01*
X035876Y031062D01*
X035868Y031168D01*
X035854Y031196D01*
X039091Y031196D01*
X039091Y000660D01*
X001468Y000660D01*
X001468Y028094D01*
X001732Y028094D01*
X001663Y028025D01*
X001615Y027911D01*
X001615Y015847D01*
X001663Y015733D01*
X001750Y015646D01*
X002139Y015256D01*
X002253Y015209D01*
X003121Y015209D01*
X003121Y015187D01*
X003255Y015052D01*
X003761Y015052D01*
X003862Y015154D01*
X003895Y015121D01*
X003895Y014209D01*
X003743Y014209D01*
X003609Y014074D01*
X003609Y013149D01*
X003548Y013209D01*
X003043Y013209D01*
X002908Y013074D01*
X002908Y012412D01*
X002935Y012385D01*
X002912Y012362D01*
X002912Y011699D01*
X002993Y011617D01*
X002993Y011229D01*
X002875Y011111D01*
X002875Y010524D01*
X003010Y010390D01*
X003597Y010390D01*
X003731Y010524D01*
X003731Y010848D01*
X003743Y010836D01*
X004147Y010836D01*
X004147Y010319D01*
X003999Y010319D01*
X003865Y010185D01*
X003865Y009286D01*
X003999Y009151D01*
X004647Y009151D01*
X004647Y008659D01*
X004223Y008659D01*
X004105Y008777D01*
X003518Y008777D01*
X003383Y008643D01*
X003383Y008056D01*
X003518Y007921D01*
X004105Y007921D01*
X004223Y008039D01*
X004824Y008039D01*
X005284Y007579D01*
X004484Y007579D01*
X004349Y007445D01*
X004349Y006545D01*
X004411Y006483D01*
X004349Y006421D01*
X004349Y005522D01*
X004484Y005387D01*
X005304Y005387D01*
X005310Y005392D01*
X005310Y005230D01*
X005444Y005096D01*
X005498Y005096D01*
X005533Y005012D01*
X005620Y004925D01*
X005836Y004709D01*
X005950Y004661D01*
X006002Y004661D01*
X006002Y004561D01*
X006137Y004426D01*
X007036Y004426D01*
X007171Y004561D01*
X007171Y004661D01*
X008565Y004661D01*
X008572Y004654D01*
X008572Y004371D01*
X008707Y004236D01*
X009294Y004236D01*
X009428Y004371D01*
X009428Y004958D01*
X009294Y005092D01*
X009010Y005092D01*
X008956Y005147D01*
X008869Y005234D01*
X008755Y005281D01*
X007171Y005281D01*
X007171Y005382D01*
X007036Y005516D01*
X006242Y005516D01*
X006242Y005529D01*
X007036Y005529D01*
X007123Y005615D01*
X007509Y005615D01*
X007644Y005750D01*
X007644Y006413D01*
X007522Y006534D01*
X007644Y006656D01*
X007644Y007319D01*
X007509Y007453D01*
X007099Y007453D01*
X007036Y007516D01*
X006468Y007516D01*
X006480Y007529D01*
X007036Y007529D01*
X007171Y007663D01*
X007171Y008484D01*
X007036Y008619D01*
X006137Y008619D01*
X006002Y008484D01*
X006002Y007928D01*
X005989Y007914D01*
X005827Y007914D01*
X005267Y008474D01*
X005267Y009151D01*
X005433Y009151D01*
X005698Y008886D01*
X005785Y008799D01*
X005899Y008752D01*
X007400Y008752D01*
X007514Y008799D01*
X007695Y008980D01*
X007783Y009067D01*
X007816Y009147D01*
X007922Y009147D01*
X008057Y009282D01*
X008057Y010181D01*
X008001Y010237D01*
X008049Y010286D01*
X008049Y010948D01*
X008028Y010970D01*
X008418Y010970D01*
X008553Y011104D01*
X008553Y011748D01*
X008602Y011748D01*
X008655Y011747D01*
X008659Y011748D01*
X008663Y011748D01*
X008713Y011769D01*
X008763Y011788D01*
X008766Y011790D01*
X008770Y011792D01*
X008808Y011830D01*
X008971Y011984D01*
X008975Y011985D01*
X009013Y012023D01*
X009052Y012060D01*
X009054Y012064D01*
X009057Y012067D01*
X009077Y012116D01*
X009099Y012165D01*
X009099Y012169D01*
X009101Y012173D01*
X009101Y012227D01*
X009103Y012280D01*
X009101Y012284D01*
X009101Y013983D01*
X009102Y013986D01*
X009101Y014041D01*
X009101Y014096D01*
X009100Y014098D01*
X009100Y014101D01*
X009078Y014152D01*
X009057Y014203D01*
X009055Y014204D01*
X009054Y014207D01*
X009014Y014245D01*
X008975Y014284D01*
X008973Y014285D01*
X008896Y014359D01*
X008857Y014398D01*
X008855Y014399D01*
X008853Y014401D01*
X008802Y014421D01*
X008751Y014442D01*
X008748Y014442D01*
X008746Y014443D01*
X008724Y014443D01*
X008702Y014465D01*
X008385Y014465D01*
X008385Y014667D01*
X008340Y014773D01*
X008222Y014892D01*
X008141Y014973D01*
X008034Y015017D01*
X007903Y015017D01*
X007903Y015177D01*
X007769Y015312D01*
X006948Y015312D01*
X006813Y015177D01*
X006813Y014278D01*
X006882Y014209D01*
X006743Y014209D01*
X006707Y014173D01*
X006701Y014178D01*
X006801Y014278D01*
X006801Y015177D01*
X006666Y015312D01*
X006482Y015312D01*
X006482Y015834D01*
X006482Y015835D01*
X014806Y015835D01*
X014920Y015882D01*
X020333Y021295D01*
X020420Y021382D01*
X020468Y021496D01*
X020468Y023413D01*
X030702Y023413D01*
X030915Y023201D01*
X030915Y020663D01*
X030832Y020581D01*
X030832Y021035D01*
X030731Y021137D01*
X030832Y021238D01*
X030832Y021744D01*
X030698Y021879D01*
X030187Y021879D01*
X030187Y022256D01*
X030052Y022390D01*
X029389Y022390D01*
X029254Y022256D01*
X029254Y022072D01*
X029136Y022191D01*
X028613Y022191D01*
X028613Y022713D01*
X028479Y022848D01*
X028148Y022848D01*
X028058Y022758D01*
X027969Y022848D01*
X027128Y022848D01*
X026993Y022713D01*
X026993Y022191D01*
X026471Y022191D01*
X026336Y022056D01*
X026336Y021881D01*
X025893Y021881D01*
X025790Y021839D01*
X025629Y021677D01*
X025550Y021598D01*
X025508Y021496D01*
X025508Y020489D01*
X025413Y020489D01*
X025278Y020354D01*
X025278Y019455D01*
X025413Y019320D01*
X025513Y019320D01*
X025513Y019268D01*
X025381Y019268D01*
X025247Y019134D01*
X025247Y018156D01*
X025368Y018034D01*
X025247Y017913D01*
X025247Y016935D01*
X025381Y016800D01*
X025403Y016800D01*
X025403Y016788D01*
X025381Y016788D01*
X025247Y016653D01*
X025247Y016447D01*
X024879Y016447D01*
X024765Y016399D01*
X024678Y016312D01*
X023934Y015568D01*
X023887Y015454D01*
X023887Y012646D01*
X023934Y012532D01*
X023995Y012471D01*
X023796Y012273D01*
X023749Y012159D01*
X023749Y011591D01*
X023728Y011591D01*
X023593Y011456D01*
X023593Y010715D01*
X023728Y010580D01*
X024391Y010580D01*
X024525Y010715D01*
X024525Y011456D01*
X024391Y011591D01*
X024369Y011591D01*
X024369Y011969D01*
X024457Y012057D01*
X024489Y012044D01*
X025026Y012044D01*
X025026Y010684D01*
X025161Y010549D01*
X025998Y010549D01*
X025371Y009923D01*
X025324Y009809D01*
X025324Y009070D01*
X025214Y009070D01*
X025079Y008935D01*
X025079Y008094D01*
X025214Y007960D01*
X026054Y007960D01*
X026189Y008094D01*
X026189Y008205D01*
X027087Y008205D01*
X027114Y008178D01*
X028091Y008178D01*
X028193Y008280D01*
X028295Y008178D01*
X029273Y008178D01*
X029374Y008280D01*
X029476Y008178D01*
X030454Y008178D01*
X030588Y008313D01*
X030588Y008335D01*
X030663Y008335D01*
X030757Y008241D01*
X030757Y007162D01*
X030677Y007162D01*
X030542Y007027D01*
X030542Y006246D01*
X030677Y006111D01*
X031458Y006111D01*
X031592Y006246D01*
X031592Y007027D01*
X031458Y007162D01*
X031377Y007162D01*
X031466Y007154D02*
X037047Y007154D01*
X036920Y006996D02*
X031592Y006996D01*
X031592Y006837D02*
X036920Y006837D01*
X036920Y006679D02*
X031592Y006679D01*
X031592Y006520D02*
X036920Y006520D01*
X036920Y006362D02*
X031592Y006362D01*
X031549Y006203D02*
X036963Y006203D01*
X037927Y006203D02*
X039091Y006203D01*
X039091Y006045D02*
X023029Y006045D01*
X023029Y006203D02*
X030585Y006203D01*
X030542Y006362D02*
X023029Y006362D01*
X023029Y006496D02*
X023029Y005754D01*
X022895Y005619D01*
X022656Y005619D01*
X022656Y003580D01*
X022923Y003847D01*
X023329Y003847D01*
X023616Y003560D01*
X023616Y003154D01*
X023329Y002867D01*
X022923Y002867D01*
X022656Y003134D01*
X022656Y001836D01*
X022784Y001708D01*
X022849Y001773D01*
X023029Y001847D01*
X023224Y001847D01*
X023404Y001773D01*
X023542Y001635D01*
X023616Y001455D01*
X023616Y001260D01*
X023542Y001080D01*
X023404Y000942D01*
X023224Y000867D01*
X023029Y000867D01*
X022849Y000942D01*
X022723Y001067D01*
X022667Y001067D01*
X022560Y001111D01*
X022202Y001470D01*
X022120Y001551D01*
X022076Y001658D01*
X022076Y005986D01*
X022097Y006036D01*
X022097Y006496D01*
X022232Y006630D01*
X022895Y006630D01*
X023029Y006496D01*
X023005Y006520D02*
X030542Y006520D01*
X030542Y006679D02*
X007644Y006679D01*
X007644Y006837D02*
X030542Y006837D01*
X030542Y006996D02*
X007644Y006996D01*
X007644Y007154D02*
X030669Y007154D01*
X030757Y007313D02*
X007644Y007313D01*
X007256Y006987D02*
X006602Y006987D01*
X006587Y006971D01*
X006587Y006074D01*
X006595Y006082D01*
X007256Y006082D01*
X007644Y006045D02*
X020247Y006045D01*
X020247Y006203D02*
X007644Y006203D01*
X007644Y006362D02*
X020247Y006362D01*
X020247Y006456D02*
X020247Y005793D01*
X020381Y005659D01*
X020887Y005659D01*
X020949Y005721D01*
X021051Y005619D01*
X021714Y005619D01*
X021848Y005754D01*
X021848Y006496D01*
X021714Y006630D01*
X021051Y006630D01*
X020949Y006529D01*
X020887Y006591D01*
X020381Y006591D01*
X020247Y006456D01*
X020310Y006520D02*
X007537Y006520D01*
X007644Y005886D02*
X020247Y005886D01*
X020312Y005728D02*
X007621Y005728D01*
X007077Y005569D02*
X022076Y005569D01*
X022076Y005411D02*
X007142Y005411D01*
X006587Y004971D02*
X008693Y004971D01*
X009000Y004664D01*
X009009Y005094D02*
X022076Y005094D01*
X022076Y005252D02*
X008826Y005252D01*
X008956Y005147D02*
X008956Y005147D01*
X009428Y004935D02*
X022076Y004935D01*
X022076Y004777D02*
X009428Y004777D01*
X009428Y004618D02*
X022076Y004618D01*
X022076Y004460D02*
X009428Y004460D01*
X009358Y004301D02*
X022076Y004301D01*
X022076Y004143D02*
X001468Y004143D01*
X001468Y004301D02*
X008642Y004301D01*
X008572Y004460D02*
X007069Y004460D01*
X007171Y004618D02*
X008572Y004618D01*
X006587Y004971D02*
X006012Y004971D01*
X005795Y005188D01*
X005795Y005463D01*
X005776Y005483D01*
X005310Y005252D02*
X001468Y005252D01*
X001468Y005094D02*
X005499Y005094D01*
X005610Y004935D02*
X001468Y004935D01*
X001468Y004777D02*
X005768Y004777D01*
X006002Y004618D02*
X001468Y004618D01*
X001468Y004460D02*
X006104Y004460D01*
X004460Y005411D02*
X001468Y005411D01*
X001468Y005569D02*
X004349Y005569D01*
X004349Y005728D02*
X001468Y005728D01*
X001468Y005886D02*
X004349Y005886D01*
X004349Y006045D02*
X001468Y006045D01*
X001468Y006203D02*
X004349Y006203D01*
X004349Y006362D02*
X001468Y006362D01*
X001468Y006520D02*
X004374Y006520D01*
X004349Y006679D02*
X001468Y006679D01*
X001468Y006837D02*
X004349Y006837D01*
X004349Y006996D02*
X001468Y006996D01*
X001468Y007154D02*
X004349Y007154D01*
X004349Y007313D02*
X001468Y007313D01*
X001468Y007471D02*
X004375Y007471D01*
X004130Y007947D02*
X004917Y007947D01*
X005076Y007788D02*
X001468Y007788D01*
X001468Y007630D02*
X005234Y007630D01*
X005776Y007526D02*
X004957Y008345D01*
X004953Y008349D01*
X003811Y008349D01*
X003383Y008422D02*
X001468Y008422D01*
X001468Y008264D02*
X003383Y008264D01*
X003383Y008105D02*
X001468Y008105D01*
X001468Y007947D02*
X003492Y007947D01*
X003383Y008581D02*
X001468Y008581D01*
X001468Y008739D02*
X003479Y008739D01*
X003936Y009215D02*
X001468Y009215D01*
X001468Y009373D02*
X003865Y009373D01*
X003865Y009532D02*
X001468Y009532D01*
X001468Y009690D02*
X003865Y009690D01*
X003865Y009849D02*
X001468Y009849D01*
X001468Y010007D02*
X003865Y010007D01*
X003865Y010166D02*
X001468Y010166D01*
X001468Y010324D02*
X004147Y010324D01*
X004147Y010483D02*
X003689Y010483D01*
X003731Y010641D02*
X004147Y010641D01*
X004147Y010800D02*
X003731Y010800D01*
X003303Y010818D02*
X003303Y012026D01*
X003299Y012030D01*
X002912Y012068D02*
X001468Y012068D01*
X001468Y012226D02*
X002912Y012226D01*
X002935Y012385D02*
X001468Y012385D01*
X001468Y012543D02*
X002908Y012543D01*
X002908Y012702D02*
X001468Y012702D01*
X001468Y012860D02*
X002908Y012860D01*
X002908Y013019D02*
X001468Y013019D01*
X001468Y013177D02*
X003010Y013177D01*
X003580Y013177D02*
X003609Y013177D01*
X003609Y013336D02*
X001468Y013336D01*
X001468Y013494D02*
X003609Y013494D01*
X003609Y013653D02*
X001468Y013653D01*
X001468Y013811D02*
X003609Y013811D01*
X003609Y013970D02*
X001468Y013970D01*
X001468Y014128D02*
X003662Y014128D01*
X003895Y014287D02*
X001468Y014287D01*
X001468Y014445D02*
X003895Y014445D01*
X003895Y014604D02*
X001468Y014604D01*
X001468Y014762D02*
X003895Y014762D01*
X003895Y014921D02*
X001468Y014921D01*
X001468Y015079D02*
X003229Y015079D01*
X003508Y015519D02*
X002315Y015519D01*
X001925Y015908D01*
X001925Y027849D01*
X002606Y028530D01*
X008252Y028530D01*
X009055Y027727D01*
X009055Y024991D01*
X009055Y024306D01*
X008980Y024231D01*
X008532Y024231D01*
X008528Y024227D01*
X008915Y023921D02*
X009042Y023921D01*
X009156Y023968D01*
X009243Y024056D01*
X009318Y024130D01*
X009365Y024244D01*
X009365Y024407D01*
X009465Y024407D01*
X009600Y024541D01*
X009600Y025441D01*
X009465Y025575D01*
X009365Y025575D01*
X009365Y027789D01*
X009318Y027903D01*
X009231Y027990D01*
X008428Y028793D01*
X008314Y028840D01*
X002545Y028840D01*
X002431Y028793D01*
X002344Y028706D01*
X002011Y028373D01*
X002011Y028816D01*
X001876Y028951D01*
X001468Y028951D01*
X001468Y030657D01*
X001864Y030657D01*
X001880Y030673D01*
X002631Y029922D01*
X002631Y029919D01*
X002569Y029919D01*
X002374Y029838D01*
X002225Y029689D01*
X002145Y029494D01*
X002145Y029283D01*
X002225Y029088D01*
X002374Y028939D01*
X002569Y028859D01*
X003380Y028859D01*
X003575Y028939D01*
X003710Y029075D01*
X006194Y029075D01*
X006197Y029073D01*
X006256Y029075D01*
X006314Y029075D01*
X006317Y029076D01*
X006321Y029076D01*
X006374Y029100D01*
X006428Y029122D01*
X006430Y029124D01*
X006433Y029126D01*
X006474Y029168D01*
X006515Y029209D01*
X006516Y029212D01*
X006904Y029618D01*
X007196Y029618D01*
X007145Y029494D01*
X007145Y029283D01*
X007225Y029088D01*
X007374Y028939D01*
X007569Y028859D01*
X008380Y028859D01*
X008575Y028939D01*
X008724Y029088D01*
X008805Y029283D01*
X008805Y029494D01*
X008753Y029618D01*
X009859Y029618D01*
X012265Y027183D01*
X012265Y025231D01*
X012227Y025193D01*
X012227Y024137D01*
X012131Y024233D01*
X011468Y024233D01*
X011394Y024159D01*
X011026Y024159D01*
X010905Y024281D01*
X010905Y024686D01*
X011023Y024804D01*
X011023Y025391D01*
X010888Y025525D01*
X010301Y025525D01*
X010167Y025391D01*
X010167Y024804D01*
X010285Y024686D01*
X010285Y024091D01*
X010332Y023977D01*
X010635Y023674D01*
X010722Y023586D01*
X010836Y023539D01*
X011148Y023539D01*
X011076Y023510D01*
X010687Y023120D01*
X010404Y023120D01*
X010269Y022985D01*
X010269Y022398D01*
X010404Y022264D01*
X010990Y022264D01*
X011125Y022398D01*
X011125Y022682D01*
X011381Y022937D01*
X011390Y022937D01*
X011468Y022859D01*
X012131Y022859D01*
X012227Y022955D01*
X012227Y022089D01*
X012362Y021954D01*
X012618Y021954D01*
X012609Y021945D01*
X012609Y021627D01*
X009510Y021627D01*
X009285Y021852D01*
X009204Y021934D01*
X009097Y021978D01*
X009073Y021978D01*
X009073Y022137D01*
X008938Y022272D01*
X008910Y022272D01*
X008923Y022286D01*
X008923Y022948D01*
X008788Y023083D01*
X008518Y023083D01*
X008518Y023761D01*
X008780Y023761D01*
X008915Y023896D01*
X008915Y023921D01*
X008816Y023797D02*
X010512Y023797D01*
X010354Y023955D02*
X009124Y023955D01*
X009301Y024114D02*
X010285Y024114D01*
X010285Y024272D02*
X009365Y024272D01*
X009489Y024431D02*
X010285Y024431D01*
X010285Y024589D02*
X009600Y024589D01*
X009600Y024748D02*
X010223Y024748D01*
X010167Y024906D02*
X009600Y024906D01*
X009600Y025065D02*
X010167Y025065D01*
X010167Y025223D02*
X009600Y025223D01*
X009600Y025382D02*
X010167Y025382D01*
X010595Y025097D02*
X010595Y024152D01*
X010898Y023849D01*
X011795Y023849D01*
X011799Y023845D01*
X011799Y023247D02*
X011252Y023247D01*
X010697Y022692D01*
X010269Y022687D02*
X008923Y022687D01*
X008923Y022529D02*
X010269Y022529D01*
X010297Y022370D02*
X008923Y022370D01*
X008999Y022212D02*
X012227Y022212D01*
X012227Y022370D02*
X011097Y022370D01*
X011125Y022529D02*
X012227Y022529D01*
X012227Y022687D02*
X011131Y022687D01*
X011289Y022846D02*
X012227Y022846D01*
X012575Y022617D02*
X013075Y022617D01*
X013075Y021692D01*
X012609Y021736D02*
X009401Y021736D01*
X009243Y021895D02*
X012609Y021895D01*
X012262Y022053D02*
X009073Y022053D01*
X008536Y021711D02*
X008528Y021688D01*
X008536Y021711D02*
X008536Y022617D01*
X008923Y022846D02*
X010269Y022846D01*
X010288Y023004D02*
X008868Y023004D01*
X008518Y023163D02*
X010729Y023163D01*
X010888Y023321D02*
X008518Y023321D01*
X008518Y023480D02*
X011046Y023480D01*
X010671Y023638D02*
X008518Y023638D01*
X007973Y023432D02*
X007819Y023586D01*
X007819Y024227D01*
X007606Y023798D02*
X007819Y023586D01*
X007606Y023798D02*
X006099Y023798D01*
X005929Y023967D01*
X005929Y024664D01*
X005429Y024664D02*
X005429Y024038D01*
X005327Y023936D01*
X003449Y023936D01*
X003437Y023948D01*
X003437Y024530D01*
X002949Y025019D01*
X002622Y025019D01*
X002484Y024881D01*
X002912Y024589D02*
X002940Y024589D01*
X003099Y024431D02*
X002235Y024431D01*
X002235Y024272D02*
X003050Y024272D01*
X003050Y024114D02*
X002235Y024114D01*
X002235Y023955D02*
X003050Y023955D01*
X003050Y023797D02*
X002235Y023797D01*
X002235Y023638D02*
X003050Y023638D01*
X003054Y023480D02*
X002235Y023480D01*
X002235Y023321D02*
X003054Y023321D01*
X003054Y023163D02*
X002235Y023163D01*
X002235Y023004D02*
X003054Y023004D01*
X003151Y022846D02*
X002235Y022846D01*
X002235Y022687D02*
X003041Y022687D01*
X002883Y022529D02*
X002235Y022529D01*
X002235Y022370D02*
X002753Y022370D01*
X002726Y022212D02*
X002235Y022212D01*
X002235Y022053D02*
X002726Y022053D01*
X002619Y021895D02*
X002235Y021895D01*
X002235Y021736D02*
X002607Y021736D01*
X002607Y021578D02*
X002235Y021578D01*
X002235Y021419D02*
X002607Y021419D01*
X002643Y021261D02*
X002235Y021261D01*
X002235Y021102D02*
X003619Y021102D01*
X003619Y021261D02*
X003428Y021261D01*
X003464Y021419D02*
X003619Y021419D01*
X003619Y021578D02*
X003464Y021578D01*
X003464Y021736D02*
X003619Y021736D01*
X003619Y021895D02*
X003452Y021895D01*
X003346Y022053D02*
X003617Y022053D01*
X003581Y022212D02*
X003443Y022212D01*
X003036Y022243D02*
X003036Y021589D01*
X003036Y022243D02*
X003461Y022668D01*
X003461Y023345D01*
X003441Y023290D01*
X003461Y023345D02*
X005276Y023345D01*
X005429Y023192D01*
X005429Y022617D01*
X004929Y022617D02*
X004929Y021326D01*
X004957Y021298D01*
X004268Y020495D02*
X003929Y020834D01*
X003929Y022617D01*
X004429Y022617D01*
X005929Y022617D02*
X005929Y020731D01*
X005693Y020495D01*
X006016Y020172D01*
X006016Y019239D01*
X005307Y019239D02*
X005272Y019204D01*
X005272Y018345D01*
X005347Y018420D01*
X005480Y018145D01*
X004799Y018503D02*
X004721Y018424D01*
X004602Y018149D01*
X004799Y018503D02*
X004799Y019200D01*
X004760Y019239D01*
X005307Y019239D01*
X004051Y019239D02*
X004051Y020278D01*
X004268Y020495D01*
X002895Y019834D02*
X002235Y019834D01*
X002235Y019676D02*
X002895Y019676D01*
X002895Y019517D02*
X002235Y019517D01*
X002235Y019359D02*
X002895Y019359D01*
X002895Y019200D02*
X002235Y019200D01*
X002235Y019042D02*
X002909Y019042D01*
X003025Y018883D02*
X002235Y018883D01*
X002235Y018725D02*
X003183Y018725D01*
X003342Y018566D02*
X002235Y018566D01*
X002235Y018408D02*
X003761Y018408D01*
X003761Y018249D02*
X002235Y018249D01*
X002235Y018091D02*
X003761Y018091D01*
X003761Y017932D02*
X002235Y017932D01*
X002235Y017774D02*
X003642Y017774D01*
X003558Y017615D02*
X002235Y017615D01*
X002235Y017457D02*
X003558Y017457D01*
X003558Y017298D02*
X002235Y017298D01*
X002235Y017140D02*
X003558Y017140D01*
X003602Y016981D02*
X002235Y016981D01*
X002235Y016823D02*
X014984Y016823D01*
X015142Y016981D02*
X006457Y016981D01*
X006510Y017140D02*
X015301Y017140D01*
X015459Y017298D02*
X006510Y017298D01*
X006510Y017457D02*
X015618Y017457D01*
X015776Y017615D02*
X006510Y017615D01*
X006433Y017774D02*
X015935Y017774D01*
X016093Y017932D02*
X006310Y017932D01*
X006310Y018091D02*
X016252Y018091D01*
X016410Y018249D02*
X006310Y018249D01*
X006310Y018408D02*
X016569Y018408D01*
X016727Y018566D02*
X014188Y018566D01*
X014305Y018725D02*
X016886Y018725D01*
X017044Y018883D02*
X014305Y018883D01*
X014305Y019042D02*
X017203Y019042D01*
X017361Y019200D02*
X014305Y019200D01*
X013246Y019676D02*
X007085Y019676D01*
X007085Y019834D02*
X013136Y019834D01*
X013136Y019993D02*
X007288Y019993D01*
X007340Y020151D02*
X013136Y020151D01*
X013136Y020310D02*
X007340Y020310D01*
X007340Y020468D02*
X013136Y020468D01*
X012713Y020627D02*
X007340Y020627D01*
X007340Y020785D02*
X012609Y020785D01*
X012609Y020944D02*
X007340Y020944D01*
X007983Y021261D02*
X006239Y021261D01*
X006239Y021419D02*
X007983Y021419D01*
X007983Y021578D02*
X006239Y021578D01*
X006239Y021736D02*
X007983Y021736D01*
X007983Y021895D02*
X006239Y021895D01*
X006429Y022617D02*
X006929Y022617D01*
X007827Y022617D01*
X007513Y022212D02*
X007277Y022212D01*
X007242Y022053D02*
X007983Y022053D01*
X009215Y021102D02*
X006239Y021102D01*
X006239Y020944D02*
X006250Y020944D01*
X006239Y020785D02*
X006250Y020785D01*
X006238Y020627D02*
X006250Y020627D01*
X006238Y020468D02*
X006250Y020468D01*
X007085Y019517D02*
X013150Y019517D01*
X013136Y019359D02*
X007085Y019359D01*
X007085Y019200D02*
X013136Y019200D01*
X013136Y019042D02*
X007060Y019042D01*
X006928Y018883D02*
X013136Y018883D01*
X013136Y018725D02*
X006770Y018725D01*
X006611Y018566D02*
X013253Y018566D01*
X015473Y019359D02*
X017520Y019359D01*
X017678Y019517D02*
X015688Y019517D01*
X015788Y019676D02*
X017837Y019676D01*
X017995Y019834D02*
X015790Y019834D01*
X015790Y019993D02*
X018154Y019993D01*
X018312Y020151D02*
X015790Y020151D01*
X015790Y020310D02*
X018471Y020310D01*
X018629Y020468D02*
X015790Y020468D01*
X015790Y020627D02*
X018788Y020627D01*
X018946Y020785D02*
X015790Y020785D01*
X015790Y020944D02*
X016502Y020944D01*
X016487Y021102D02*
X015790Y021102D01*
X015790Y021261D02*
X016487Y021261D01*
X016487Y021419D02*
X015790Y021419D01*
X015790Y021578D02*
X015848Y021578D01*
X016240Y021904D02*
X016536Y021904D01*
X017071Y021369D01*
X017640Y020944D02*
X019105Y020944D01*
X019263Y021102D02*
X017918Y021102D01*
X018089Y021261D02*
X019422Y021261D01*
X019580Y021419D02*
X018242Y021419D01*
X018282Y021578D02*
X019739Y021578D01*
X019848Y021736D02*
X018282Y021736D01*
X018282Y021895D02*
X019848Y021895D01*
X019848Y022053D02*
X018282Y022053D01*
X018282Y022212D02*
X019848Y022212D01*
X019848Y022370D02*
X018282Y022370D01*
X018282Y022529D02*
X019848Y022529D01*
X019848Y022687D02*
X018282Y022687D01*
X018282Y022846D02*
X019848Y022846D01*
X019848Y023004D02*
X018282Y023004D01*
X018282Y023163D02*
X019848Y023163D01*
X019848Y023321D02*
X018282Y023321D01*
X018282Y023480D02*
X019848Y023480D01*
X019808Y023638D02*
X018282Y023638D01*
X018282Y023797D02*
X019650Y023797D01*
X019491Y023955D02*
X018282Y023955D01*
X018282Y024114D02*
X019333Y024114D01*
X019174Y024272D02*
X018282Y024272D01*
X018282Y024431D02*
X019016Y024431D01*
X018857Y024589D02*
X018282Y024589D01*
X018282Y024748D02*
X018416Y024748D01*
X018367Y024906D02*
X018282Y024906D01*
X018282Y025065D02*
X018367Y025065D01*
X018367Y025223D02*
X018282Y025223D01*
X018282Y025382D02*
X018367Y025382D01*
X018282Y025540D02*
X030955Y025540D01*
X030955Y025382D02*
X019224Y025382D01*
X019224Y025223D02*
X031053Y025223D01*
X031090Y025186D02*
X031832Y025186D01*
X031966Y025321D01*
X031966Y025984D01*
X031832Y026119D01*
X031819Y026119D01*
X031927Y026226D01*
X031927Y026732D01*
X031792Y026867D01*
X031129Y026867D01*
X030995Y026732D01*
X030995Y026226D01*
X031102Y026119D01*
X031090Y026119D01*
X030955Y025984D01*
X030955Y025321D01*
X031090Y025186D01*
X031058Y024906D02*
X019417Y024906D01*
X019259Y025065D02*
X039091Y025065D01*
X039091Y025223D02*
X031868Y025223D01*
X031966Y025382D02*
X039091Y025382D01*
X039091Y025540D02*
X031966Y025540D01*
X031966Y025699D02*
X039091Y025699D01*
X039091Y025857D02*
X031966Y025857D01*
X031935Y026016D02*
X039091Y026016D01*
X039091Y026174D02*
X031875Y026174D01*
X031927Y026333D02*
X039091Y026333D01*
X039091Y026491D02*
X031927Y026491D01*
X031927Y026650D02*
X039091Y026650D01*
X039091Y026808D02*
X031851Y026808D01*
X031071Y026808D02*
X029623Y026808D01*
X029651Y026967D02*
X039091Y026967D01*
X039091Y027125D02*
X029639Y027125D01*
X029520Y027284D02*
X039091Y027284D01*
X039091Y027442D02*
X027085Y027442D01*
X027524Y027601D02*
X027643Y027601D01*
X027771Y027284D02*
X027994Y027284D01*
X027964Y027125D02*
X027890Y027125D01*
X028107Y027601D02*
X028226Y027601D01*
X028139Y027614D02*
X028139Y027614D01*
X028923Y027601D02*
X029276Y027601D01*
X029141Y027759D02*
X029058Y027759D01*
X029055Y027918D02*
X029131Y027918D01*
X029506Y027601D02*
X030325Y027601D01*
X030293Y027614D02*
X030389Y027574D01*
X030492Y027574D01*
X030588Y027614D01*
X030661Y027687D01*
X030701Y027783D01*
X030701Y027808D01*
X030843Y027808D01*
X030907Y027835D01*
X030920Y027804D01*
X030993Y027731D01*
X031110Y027614D01*
X031205Y027574D01*
X031659Y027574D01*
X031755Y027614D01*
X031828Y027687D01*
X031839Y027715D01*
X031843Y027703D01*
X031856Y027689D01*
X031864Y027672D01*
X031889Y027650D01*
X031911Y027625D01*
X031928Y027616D01*
X031942Y027604D01*
X031974Y027593D01*
X032004Y027579D01*
X032023Y027577D01*
X032040Y027571D01*
X032074Y027574D01*
X032107Y027571D01*
X032125Y027577D01*
X032144Y027579D01*
X032173Y027593D01*
X032205Y027604D01*
X032219Y027616D01*
X032236Y027625D01*
X032258Y027650D01*
X032283Y027672D01*
X032292Y027689D01*
X032304Y027703D01*
X032308Y027715D01*
X032319Y027687D01*
X032393Y027614D01*
X032488Y027574D01*
X032825Y027574D01*
X032921Y027614D01*
X032948Y027641D01*
X032976Y027614D01*
X033071Y027574D01*
X033408Y027574D01*
X033464Y027597D01*
X033504Y027614D01*
X033694Y027804D01*
X033734Y027899D01*
X033734Y028236D01*
X033694Y028332D01*
X033577Y028449D01*
X033504Y028522D01*
X033408Y028561D01*
X033071Y028561D01*
X032976Y028522D01*
X032917Y028462D01*
X032917Y028587D01*
X032877Y028682D01*
X032804Y028755D01*
X032708Y028795D01*
X032488Y028795D01*
X032393Y028755D01*
X032319Y028682D01*
X032280Y028587D01*
X032280Y028564D01*
X032274Y028564D01*
X032176Y028532D01*
X032098Y028464D01*
X032074Y028416D01*
X032050Y028464D01*
X031971Y028532D01*
X031873Y028564D01*
X031770Y028557D01*
X031678Y028511D01*
X031664Y028495D01*
X031638Y028522D01*
X031542Y028561D01*
X031205Y028561D01*
X031141Y028535D01*
X031128Y028565D01*
X031055Y028638D01*
X030938Y028755D01*
X030843Y028795D01*
X030389Y028795D01*
X030293Y028755D01*
X030220Y028682D01*
X030181Y028587D01*
X030181Y028016D01*
X030181Y027783D01*
X030220Y027687D01*
X030293Y027614D01*
X030190Y027759D02*
X029641Y027759D01*
X029651Y027918D02*
X030181Y027918D01*
X030181Y028076D02*
X029744Y028076D01*
X029768Y028235D02*
X030181Y028235D01*
X030181Y028393D02*
X029667Y028393D01*
X029651Y028552D02*
X030181Y028552D01*
X030248Y028710D02*
X029584Y028710D01*
X029691Y028869D02*
X029895Y028869D01*
X029832Y028931D02*
X029832Y028931D01*
X030615Y028869D02*
X030819Y028869D01*
X030983Y028710D02*
X032347Y028710D01*
X032402Y028869D02*
X032199Y028869D01*
X032236Y028552D02*
X031912Y028552D01*
X031759Y028552D02*
X031566Y028552D01*
X031182Y028552D02*
X031134Y028552D01*
X031143Y028869D02*
X031875Y028869D01*
X031773Y029027D02*
X031245Y029027D01*
X031224Y029186D02*
X031772Y029186D01*
X031772Y029344D02*
X031114Y029344D01*
X031144Y029820D02*
X031873Y029820D01*
X032032Y029978D02*
X030967Y029978D01*
X031063Y030137D02*
X031443Y030137D01*
X031289Y030295D02*
X031122Y030295D01*
X031122Y030454D02*
X031252Y030454D01*
X030731Y029978D02*
X028320Y029978D01*
X028276Y030137D02*
X028131Y030137D01*
X028216Y030295D02*
X027690Y030295D01*
X027690Y030137D02*
X027760Y030137D01*
X027690Y030454D02*
X028216Y030454D01*
X028216Y030612D02*
X027690Y030612D01*
X027690Y030771D02*
X028216Y030771D01*
X028216Y030929D02*
X027672Y030929D01*
X027502Y031088D02*
X028216Y031088D01*
X026952Y031088D02*
X026578Y031088D01*
X026029Y031088D02*
X025975Y031088D01*
X025352Y030454D02*
X025183Y030454D01*
X025183Y030295D02*
X025313Y030295D01*
X025372Y030137D02*
X025124Y030137D01*
X025433Y029978D02*
X024229Y029978D01*
X024542Y029820D02*
X025274Y029820D01*
X025477Y030022D02*
X025477Y030022D01*
X025173Y029344D02*
X024465Y029344D01*
X024631Y029186D02*
X025173Y029186D01*
X025174Y029027D02*
X024641Y029027D01*
X024540Y028869D02*
X025276Y028869D01*
X025063Y028682D02*
X024990Y028755D01*
X024894Y028795D01*
X024791Y028795D01*
X024695Y028755D01*
X024388Y028449D01*
X024349Y028353D01*
X024349Y028016D01*
X024388Y027921D01*
X024462Y027847D01*
X024695Y027614D01*
X024791Y027574D01*
X024894Y027574D01*
X024990Y027614D01*
X025017Y027641D01*
X025045Y027614D01*
X025140Y027574D01*
X025594Y027574D01*
X025659Y027601D01*
X025723Y027574D01*
X025827Y027574D01*
X025922Y027614D01*
X026156Y027847D01*
X026229Y027921D01*
X026269Y028016D01*
X026269Y028353D01*
X026229Y028449D01*
X025922Y028755D01*
X025827Y028795D01*
X025723Y028795D01*
X025628Y028755D01*
X025555Y028682D01*
X025515Y028587D01*
X025515Y028561D01*
X025140Y028561D01*
X025102Y028546D01*
X025102Y028587D01*
X025063Y028682D01*
X025035Y028710D02*
X025583Y028710D01*
X025600Y028869D02*
X025803Y028869D01*
X025968Y028710D02*
X026866Y028710D01*
X026787Y028869D02*
X027651Y028869D01*
X027566Y028710D02*
X027484Y028710D01*
X027549Y029027D02*
X026946Y029027D01*
X027022Y029186D02*
X027570Y029186D01*
X027680Y029344D02*
X026989Y029344D01*
X026876Y029503D02*
X027680Y029503D01*
X027650Y029661D02*
X027011Y029661D01*
X027445Y029820D02*
X027549Y029820D01*
X028184Y028710D02*
X028382Y028710D01*
X028504Y028869D02*
X028706Y028869D01*
X028767Y028710D02*
X028891Y028710D01*
X028835Y028552D02*
X029040Y028552D01*
X028882Y028393D02*
X028835Y028393D01*
X028900Y029820D02*
X028970Y029820D01*
X029082Y030137D02*
X029199Y030137D01*
X029692Y029820D02*
X029762Y029820D01*
X030089Y029820D02*
X030289Y029820D01*
X029991Y030137D02*
X029874Y030137D01*
X032076Y030022D02*
X032076Y030022D01*
X032250Y030137D02*
X032269Y030155D01*
X032309Y030253D01*
X032309Y031149D01*
X032289Y031196D01*
X033881Y031196D01*
X033752Y031067D01*
X033699Y031093D01*
X033594Y031101D01*
X033494Y031067D01*
X033414Y030998D01*
X033364Y030898D01*
X033314Y030998D01*
X033234Y031067D01*
X033134Y031101D01*
X033029Y031093D01*
X032935Y031046D01*
X032866Y030966D01*
X032833Y030866D01*
X032840Y030761D01*
X033119Y030204D01*
X033129Y030172D01*
X033142Y030157D01*
X033151Y030140D01*
X033073Y030295D02*
X032309Y030295D01*
X032309Y030454D02*
X032994Y030454D01*
X032915Y030612D02*
X032309Y030612D01*
X032309Y030771D02*
X032839Y030771D01*
X032853Y030929D02*
X032309Y030929D01*
X032309Y031088D02*
X033018Y031088D01*
X033174Y031088D02*
X033554Y031088D01*
X033711Y031088D02*
X033773Y031088D01*
X033380Y030929D02*
X033349Y030929D01*
X033574Y030137D02*
X033687Y030137D01*
X033589Y029820D02*
X033388Y029820D01*
X033072Y029978D02*
X035358Y029978D01*
X035335Y029820D02*
X034311Y029820D01*
X034413Y029661D02*
X035335Y029661D01*
X035335Y029503D02*
X034391Y029503D01*
X034777Y029344D02*
X035335Y029344D01*
X035335Y029186D02*
X034809Y029186D01*
X034809Y029027D02*
X035336Y029027D01*
X035438Y028869D02*
X034707Y028869D01*
X034681Y028710D02*
X034599Y028710D01*
X034250Y028869D02*
X034178Y028869D01*
X034214Y028710D02*
X032849Y028710D01*
X032917Y028552D02*
X033048Y028552D01*
X033432Y028552D02*
X034146Y028552D01*
X034146Y028393D02*
X033633Y028393D01*
X033734Y028235D02*
X034146Y028235D01*
X034146Y028076D02*
X033734Y028076D01*
X033734Y027918D02*
X034146Y027918D01*
X034156Y027759D02*
X033649Y027759D01*
X033472Y027601D02*
X034291Y027601D01*
X034521Y027601D02*
X034758Y027601D01*
X034988Y027601D02*
X035107Y027601D01*
X035688Y027601D02*
X035690Y027601D01*
X035921Y027601D02*
X036158Y027601D01*
X036388Y027601D02*
X036507Y027601D01*
X036971Y027601D02*
X037318Y027601D01*
X037186Y027759D02*
X037148Y027759D01*
X037560Y027601D02*
X037790Y027601D01*
X038254Y027601D02*
X039091Y027601D01*
X039091Y027759D02*
X038389Y027759D01*
X038385Y027918D02*
X039091Y027918D01*
X039091Y028076D02*
X038282Y028076D01*
X038282Y028235D02*
X039091Y028235D01*
X039091Y028393D02*
X038265Y028393D01*
X038282Y028552D02*
X039091Y028552D01*
X039091Y028710D02*
X038279Y028710D01*
X038173Y028869D02*
X039091Y028869D01*
X039091Y029027D02*
X038240Y029027D01*
X038241Y029186D02*
X039091Y029186D01*
X039091Y029344D02*
X038209Y029344D01*
X038241Y029503D02*
X039091Y029503D01*
X039091Y029661D02*
X038241Y029661D01*
X038241Y029820D02*
X039091Y029820D01*
X039091Y029978D02*
X038241Y029978D01*
X038208Y030137D02*
X039091Y030137D01*
X039091Y030295D02*
X035835Y030295D01*
X035872Y030454D02*
X039091Y030454D01*
X039091Y030612D02*
X035872Y030612D01*
X035781Y030771D02*
X039091Y030771D01*
X039091Y030929D02*
X035813Y030929D01*
X035874Y031088D02*
X039091Y031088D01*
X037744Y030137D02*
X036181Y030137D01*
X036074Y030137D02*
X035681Y030137D01*
X035750Y030096D02*
X035750Y030096D01*
X035825Y030022D02*
X035825Y030022D01*
X036370Y029978D02*
X037711Y029978D01*
X037548Y029820D02*
X037348Y029820D01*
X037021Y029820D02*
X036951Y029820D01*
X037346Y028869D02*
X037549Y028869D01*
X037765Y028710D02*
X035066Y028710D01*
X035133Y028552D02*
X035147Y028552D01*
X035531Y028552D02*
X035730Y028552D01*
X035763Y028869D02*
X035965Y028869D01*
X036290Y028869D02*
X036362Y028869D01*
X036231Y028552D02*
X036547Y028552D01*
X036931Y028552D02*
X037124Y028552D01*
X037277Y028552D02*
X037601Y028552D01*
X037753Y028552D02*
X037762Y028552D01*
X033459Y028869D02*
X033386Y028869D01*
X033008Y027601D02*
X032889Y027601D01*
X032425Y027601D02*
X032195Y027601D01*
X031953Y027601D02*
X031723Y027601D01*
X031142Y027601D02*
X030556Y027601D01*
X030691Y027759D02*
X030965Y027759D01*
X030995Y026650D02*
X029535Y026650D01*
X029439Y026491D02*
X030995Y026491D01*
X030995Y026333D02*
X024837Y026333D01*
X025106Y026474D02*
X025106Y026474D01*
X025124Y026491D02*
X025261Y026491D01*
X025940Y026491D02*
X026074Y026491D01*
X026410Y026491D02*
X026544Y026491D01*
X027106Y026491D02*
X027127Y026491D01*
X027690Y026491D02*
X027710Y026491D01*
X028856Y026491D02*
X028877Y026491D01*
X030987Y026016D02*
X018282Y026016D01*
X018282Y026174D02*
X031047Y026174D01*
X030955Y025857D02*
X018282Y025857D01*
X018282Y025699D02*
X030955Y025699D01*
X030955Y024748D02*
X019576Y024748D01*
X019734Y024589D02*
X021534Y024589D01*
X021493Y024431D02*
X019893Y024431D01*
X020051Y024272D02*
X021493Y024272D01*
X021493Y024114D02*
X020210Y024114D01*
X020162Y023723D02*
X020158Y023719D01*
X020158Y021558D01*
X014744Y016145D01*
X005673Y016145D01*
X005500Y015971D01*
X005500Y015546D01*
X005457Y015503D01*
X005457Y013546D01*
X005957Y013546D02*
X005957Y014318D01*
X006256Y014727D01*
X006095Y014778D01*
X006095Y015503D01*
X006482Y015555D02*
X023929Y015555D01*
X023887Y015396D02*
X006482Y015396D01*
X006740Y015238D02*
X006874Y015238D01*
X006813Y015079D02*
X006801Y015079D01*
X006801Y014921D02*
X006813Y014921D01*
X006801Y014762D02*
X006813Y014762D01*
X006801Y014604D02*
X006813Y014604D01*
X006801Y014445D02*
X006813Y014445D01*
X006801Y014287D02*
X006813Y014287D01*
X006957Y013546D02*
X006457Y013546D01*
X006957Y013546D02*
X007142Y013361D01*
X007740Y013361D01*
X007740Y013999D01*
X008385Y014604D02*
X023887Y014604D01*
X023887Y014762D02*
X008345Y014762D01*
X008193Y014921D02*
X023887Y014921D01*
X023887Y015079D02*
X007903Y015079D01*
X007843Y015238D02*
X023887Y015238D01*
X024197Y015393D02*
X024941Y016137D01*
X025685Y016137D01*
X025713Y016164D01*
X026941Y014936D01*
X026941Y014889D01*
X026870Y014818D01*
X026870Y014445D01*
X026871Y014444D01*
X026521Y014444D01*
X026171Y014445D02*
X024507Y014445D01*
X024507Y014287D02*
X026171Y014287D01*
X026171Y014164D02*
X026306Y014029D01*
X026988Y014029D01*
X026876Y013917D01*
X026876Y012506D01*
X027011Y012371D01*
X028068Y012371D01*
X028203Y012506D01*
X028203Y013760D01*
X028572Y013390D01*
X028572Y013233D01*
X028344Y013233D01*
X028209Y013098D01*
X028209Y012474D01*
X028344Y012340D01*
X029306Y012340D01*
X029306Y011664D01*
X029296Y011639D01*
X029141Y011639D01*
X029006Y011504D01*
X029006Y011379D01*
X027894Y011379D01*
X027894Y012153D01*
X027759Y012288D01*
X026367Y012288D01*
X026346Y012266D01*
X026324Y012288D01*
X025856Y012288D01*
X025856Y012569D01*
X025721Y012704D01*
X025161Y012704D01*
X025121Y012664D01*
X024679Y012664D01*
X024609Y012734D01*
X024609Y012734D01*
X024507Y012836D01*
X024507Y015264D01*
X025069Y015827D01*
X025247Y015827D01*
X025247Y015675D01*
X025381Y015541D01*
X025898Y015541D01*
X026560Y014878D01*
X026560Y014859D01*
X026306Y014859D01*
X026171Y014724D01*
X026171Y014164D01*
X026207Y014128D02*
X024507Y014128D01*
X024507Y013970D02*
X026929Y013970D01*
X026876Y013811D02*
X024507Y013811D01*
X024507Y013653D02*
X026876Y013653D01*
X026876Y013494D02*
X024507Y013494D01*
X024507Y013336D02*
X026876Y013336D01*
X026876Y013177D02*
X024507Y013177D01*
X024507Y013019D02*
X026876Y013019D01*
X026876Y012860D02*
X024507Y012860D01*
X024641Y012702D02*
X025158Y012702D01*
X025441Y012354D02*
X024551Y012354D01*
X024433Y012471D01*
X024059Y012097D01*
X024059Y011086D01*
X023593Y011117D02*
X023344Y011117D01*
X023344Y011275D02*
X023593Y011275D01*
X023593Y011434D02*
X023344Y011434D01*
X023344Y011456D02*
X023210Y011591D01*
X022547Y011591D01*
X022425Y011470D01*
X022343Y011552D01*
X021838Y011552D01*
X021703Y011417D01*
X021703Y010754D01*
X021838Y010619D01*
X022343Y010619D01*
X022425Y010701D01*
X022547Y010580D01*
X023210Y010580D01*
X023344Y010715D01*
X023344Y011456D01*
X023749Y011592D02*
X008553Y011592D01*
X008553Y011434D02*
X021720Y011434D01*
X021703Y011275D02*
X008553Y011275D01*
X008553Y011117D02*
X021703Y011117D01*
X021703Y010958D02*
X008040Y010958D01*
X008049Y010800D02*
X021703Y010800D01*
X021816Y010641D02*
X008049Y010641D01*
X008049Y010483D02*
X025931Y010483D01*
X025773Y010324D02*
X008049Y010324D01*
X008057Y010166D02*
X025614Y010166D01*
X025456Y010007D02*
X008057Y010007D01*
X008057Y009849D02*
X025341Y009849D01*
X025324Y009690D02*
X008057Y009690D01*
X008057Y009532D02*
X025324Y009532D01*
X025324Y009373D02*
X008057Y009373D01*
X007990Y009215D02*
X025324Y009215D01*
X025200Y009056D02*
X017380Y009056D01*
X017380Y009074D02*
X017245Y009209D01*
X016464Y009209D01*
X016329Y009074D01*
X016329Y008293D01*
X016464Y008159D01*
X017245Y008159D01*
X017380Y008293D01*
X017380Y009074D01*
X017380Y008898D02*
X025079Y008898D01*
X025079Y008739D02*
X017380Y008739D01*
X017380Y008581D02*
X025079Y008581D01*
X025079Y008422D02*
X017380Y008422D01*
X017350Y008264D02*
X025079Y008264D01*
X025079Y008105D02*
X007171Y008105D01*
X007171Y007947D02*
X030757Y007947D01*
X030757Y008105D02*
X026189Y008105D01*
X025634Y008515D02*
X025634Y009747D01*
X026303Y010416D01*
X027721Y010416D01*
X027642Y010337D01*
X027642Y009589D01*
X027254Y009532D02*
X025944Y009532D01*
X025944Y009373D02*
X027254Y009373D01*
X027298Y009215D02*
X025944Y009215D01*
X026068Y009056D02*
X027059Y009056D01*
X026979Y008898D02*
X026189Y008898D01*
X025634Y008515D02*
X027473Y008515D01*
X027602Y008645D01*
X028784Y008645D01*
X029965Y008645D01*
X030791Y008645D01*
X031067Y008369D01*
X031067Y006637D01*
X030757Y007471D02*
X007082Y007471D01*
X007137Y007630D02*
X030757Y007630D01*
X030757Y007788D02*
X007171Y007788D01*
X007171Y008264D02*
X012580Y008264D01*
X012550Y008293D02*
X012684Y008159D01*
X013465Y008159D01*
X013600Y008293D01*
X013600Y009074D01*
X013465Y009209D01*
X012684Y009209D01*
X012550Y009074D01*
X012550Y008293D01*
X012550Y008422D02*
X007171Y008422D01*
X007074Y008581D02*
X012550Y008581D01*
X012550Y008739D02*
X005267Y008739D01*
X005267Y008581D02*
X006099Y008581D01*
X006002Y008422D02*
X005319Y008422D01*
X005477Y008264D02*
X006002Y008264D01*
X006002Y008105D02*
X005636Y008105D01*
X005794Y007947D02*
X006002Y007947D01*
X006040Y007526D02*
X005776Y007526D01*
X006040Y007526D02*
X006587Y008074D01*
X005687Y008898D02*
X005267Y008898D01*
X005267Y009056D02*
X005528Y009056D01*
X005961Y009062D02*
X005488Y009534D01*
X005512Y009735D01*
X005961Y009062D02*
X007339Y009062D01*
X007520Y009243D01*
X007520Y009723D01*
X007512Y009731D01*
X007662Y009881D01*
X007662Y010617D01*
X006953Y010617D02*
X006957Y010460D01*
X006957Y011499D01*
X007969Y011515D01*
X008669Y011751D02*
X023749Y011751D01*
X023749Y011909D02*
X008892Y011909D01*
X009057Y012068D02*
X023749Y012068D01*
X023777Y012226D02*
X009101Y012226D01*
X009101Y012385D02*
X023908Y012385D01*
X023930Y012543D02*
X009101Y012543D01*
X009101Y012702D02*
X023887Y012702D01*
X023887Y012860D02*
X009101Y012860D01*
X009101Y013019D02*
X023887Y013019D01*
X023887Y013177D02*
X009101Y013177D01*
X009101Y013336D02*
X023887Y013336D01*
X023887Y013494D02*
X009101Y013494D01*
X009101Y013653D02*
X023887Y013653D01*
X023887Y013811D02*
X009101Y013811D01*
X009101Y013970D02*
X023887Y013970D01*
X023887Y014128D02*
X009088Y014128D01*
X008972Y014287D02*
X023887Y014287D01*
X023887Y014445D02*
X008722Y014445D01*
X008449Y013361D02*
X008449Y013097D01*
X007969Y012617D01*
X006957Y011499D02*
X006457Y011499D01*
X005957Y011499D02*
X005957Y010664D01*
X006406Y010215D01*
X006406Y009735D01*
X006410Y009731D01*
X007613Y008898D02*
X012550Y008898D01*
X012550Y009056D02*
X007771Y009056D01*
X004957Y008345D02*
X004957Y011499D01*
X004457Y011499D02*
X004457Y009806D01*
X004410Y009735D01*
X004647Y009056D02*
X001468Y009056D01*
X001468Y008898D02*
X004647Y008898D01*
X004647Y008739D02*
X004143Y008739D01*
X002917Y010483D02*
X001468Y010483D01*
X001468Y010641D02*
X002875Y010641D01*
X002875Y010800D02*
X001468Y010800D01*
X001468Y010958D02*
X002875Y010958D01*
X002881Y011117D02*
X001468Y011117D01*
X001468Y011275D02*
X002993Y011275D01*
X002993Y011434D02*
X001468Y011434D01*
X001468Y011592D02*
X002993Y011592D01*
X002912Y011751D02*
X001468Y011751D01*
X001468Y011909D02*
X002912Y011909D01*
X003957Y011499D02*
X004457Y011499D01*
X004457Y013546D02*
X004221Y013546D01*
X004205Y013562D01*
X004205Y015235D01*
X004217Y015247D01*
X004217Y015519D01*
X004604Y015555D02*
X005069Y015555D01*
X005069Y015713D02*
X004604Y015713D01*
X004583Y015872D02*
X005107Y015872D01*
X005190Y016030D02*
X002242Y016030D01*
X002235Y016189D02*
X005279Y016189D01*
X005411Y016320D02*
X005411Y016320D01*
X005437Y016347D02*
X002235Y016347D01*
X002235Y016506D02*
X014667Y016506D01*
X014825Y016664D02*
X002235Y016664D01*
X001615Y016664D02*
X001468Y016664D01*
X001468Y016506D02*
X001615Y016506D01*
X001615Y016347D02*
X001468Y016347D01*
X001468Y016189D02*
X001615Y016189D01*
X001615Y016030D02*
X001468Y016030D01*
X001468Y015872D02*
X001615Y015872D01*
X001682Y015713D02*
X001468Y015713D01*
X001468Y015555D02*
X001841Y015555D01*
X001999Y015396D02*
X001468Y015396D01*
X001468Y015238D02*
X002184Y015238D01*
X002401Y015872D02*
X003142Y015872D01*
X003787Y015079D02*
X003895Y015079D01*
X004604Y015238D02*
X005069Y015238D01*
X005069Y015396D02*
X004604Y015396D01*
X004752Y014617D02*
X004957Y014412D01*
X004957Y013546D01*
X004221Y013546D02*
X003957Y013546D01*
X006482Y015713D02*
X024079Y015713D01*
X024238Y015872D02*
X014895Y015872D01*
X015068Y016030D02*
X024396Y016030D01*
X024555Y016189D02*
X015227Y016189D01*
X015385Y016347D02*
X024713Y016347D01*
X025247Y016506D02*
X015544Y016506D01*
X015702Y016664D02*
X025257Y016664D01*
X025359Y016823D02*
X015861Y016823D01*
X016019Y016981D02*
X025247Y016981D01*
X025247Y017140D02*
X016178Y017140D01*
X016336Y017298D02*
X025247Y017298D01*
X025247Y017457D02*
X016495Y017457D01*
X016653Y017615D02*
X025247Y017615D01*
X025247Y017774D02*
X016812Y017774D01*
X016970Y017932D02*
X025265Y017932D01*
X025312Y018091D02*
X017129Y018091D01*
X017287Y018249D02*
X025247Y018249D01*
X025247Y018408D02*
X017446Y018408D01*
X017604Y018566D02*
X025247Y018566D01*
X025247Y018725D02*
X017763Y018725D01*
X017921Y018883D02*
X025247Y018883D01*
X025247Y019042D02*
X018080Y019042D01*
X018238Y019200D02*
X025313Y019200D01*
X025374Y019359D02*
X018397Y019359D01*
X018555Y019517D02*
X025278Y019517D01*
X025278Y019676D02*
X018714Y019676D01*
X018872Y019834D02*
X025278Y019834D01*
X025278Y019993D02*
X019031Y019993D01*
X019189Y020151D02*
X025278Y020151D01*
X025278Y020310D02*
X019348Y020310D01*
X019506Y020468D02*
X025392Y020468D01*
X025508Y020627D02*
X019665Y020627D01*
X019823Y020785D02*
X025508Y020785D01*
X025508Y020944D02*
X019982Y020944D01*
X020140Y021102D02*
X025508Y021102D01*
X025508Y021261D02*
X020299Y021261D01*
X020436Y021419D02*
X025508Y021419D01*
X025541Y021578D02*
X020468Y021578D01*
X020468Y021736D02*
X025688Y021736D01*
X026336Y021895D02*
X020468Y021895D01*
X020468Y022053D02*
X026336Y022053D01*
X026993Y022212D02*
X020468Y022212D01*
X020468Y022370D02*
X026993Y022370D01*
X026993Y022529D02*
X020468Y022529D01*
X020468Y022687D02*
X026993Y022687D01*
X027126Y022846D02*
X020468Y022846D01*
X020468Y023004D02*
X030915Y023004D01*
X030915Y022846D02*
X028481Y022846D01*
X028613Y022687D02*
X030915Y022687D01*
X030915Y022529D02*
X028613Y022529D01*
X028613Y022370D02*
X029369Y022370D01*
X029254Y022212D02*
X028613Y022212D01*
X028318Y021896D02*
X028148Y021896D01*
X028058Y021986D01*
X027969Y021896D01*
X027288Y021896D01*
X027288Y020866D01*
X027638Y020866D01*
X027898Y020866D01*
X028318Y020866D01*
X028318Y021896D01*
X028318Y021895D02*
X027288Y021895D01*
X027288Y021736D02*
X028318Y021736D01*
X028318Y021578D02*
X027288Y021578D01*
X027288Y021419D02*
X028318Y021419D01*
X028318Y021261D02*
X027288Y021261D01*
X027288Y021102D02*
X028318Y021102D01*
X028318Y020944D02*
X027288Y020944D01*
X026812Y020871D02*
X026812Y020453D01*
X026749Y020390D01*
X026303Y019944D01*
X025862Y019944D01*
X025823Y019904D01*
X025823Y018692D01*
X025713Y018645D01*
X025713Y017424D01*
X025713Y016164D01*
X026179Y016189D02*
X028042Y016189D01*
X028042Y016347D02*
X026179Y016347D01*
X026179Y016506D02*
X028042Y016506D01*
X028042Y016664D02*
X026168Y016664D01*
X026066Y016823D02*
X028042Y016823D01*
X028042Y016981D02*
X026179Y016981D01*
X026179Y017140D02*
X028048Y017140D01*
X028042Y017298D02*
X026179Y017298D01*
X026179Y017457D02*
X028042Y017457D01*
X028042Y017615D02*
X026179Y017615D01*
X026179Y017774D02*
X028042Y017774D01*
X028053Y017932D02*
X026160Y017932D01*
X026114Y018091D02*
X028042Y018091D01*
X028042Y018249D02*
X026179Y018249D01*
X026179Y018408D02*
X028042Y018408D01*
X028042Y018566D02*
X026179Y018566D01*
X026179Y018725D02*
X028042Y018725D01*
X028042Y018883D02*
X026179Y018883D01*
X026272Y019359D02*
X028033Y019359D01*
X028033Y019517D02*
X026368Y019517D01*
X026466Y019676D02*
X028033Y019676D01*
X028033Y019834D02*
X026632Y019834D01*
X026790Y019993D02*
X027049Y019993D01*
X027293Y020390D02*
X026749Y020390D01*
X028033Y019200D02*
X028033Y019169D01*
X028042Y019149D01*
X028429Y019046D02*
X028429Y018337D01*
X028429Y017589D01*
X028429Y016802D01*
X028429Y016125D01*
X028744Y016125D01*
X029020Y016400D01*
X029020Y019471D01*
X029728Y020180D01*
X030870Y020180D01*
X031225Y020534D01*
X031225Y023093D01*
X031421Y022897D01*
X031421Y022857D01*
X031225Y023093D02*
X031225Y023330D01*
X030831Y023723D01*
X020162Y023723D01*
X018795Y025089D01*
X018280Y026333D02*
X024381Y026333D01*
X024349Y026491D02*
X018182Y026491D01*
X018157Y026516D02*
X018157Y026516D01*
X018023Y026650D02*
X024349Y026650D01*
X024349Y026808D02*
X017865Y026808D01*
X017706Y026967D02*
X024349Y026967D01*
X024349Y027125D02*
X017548Y027125D01*
X017389Y027284D02*
X024378Y027284D01*
X024727Y027601D02*
X013286Y027601D01*
X013382Y027442D02*
X015002Y027442D01*
X014994Y027435D02*
X014994Y027435D01*
X014843Y027284D02*
X013385Y027284D01*
X013385Y027125D02*
X014691Y027125D01*
X014601Y026967D02*
X013385Y026967D01*
X013385Y026808D02*
X014601Y026808D01*
X013560Y026650D02*
X013385Y026650D01*
X013385Y026491D02*
X013401Y026491D01*
X013075Y027373D02*
X010059Y030389D01*
X004975Y030389D01*
X005613Y029978D02*
X006391Y029978D01*
X006239Y029820D02*
X003593Y029820D01*
X003251Y029978D02*
X004336Y029978D01*
X004205Y030137D02*
X003241Y030137D01*
X003135Y030295D02*
X004145Y030295D01*
X004145Y030454D02*
X002976Y030454D01*
X002818Y030612D02*
X004193Y030612D01*
X004307Y030771D02*
X002659Y030771D01*
X002501Y030929D02*
X017526Y030929D01*
X017530Y030771D02*
X005642Y030771D01*
X006772Y029928D02*
X006252Y029385D01*
X002978Y029385D01*
X002975Y029389D01*
X002941Y029422D01*
X002941Y030050D01*
X001906Y031086D01*
X001571Y031086D01*
X001468Y030612D02*
X001941Y030612D01*
X002099Y030454D02*
X001468Y030454D01*
X001468Y030295D02*
X002258Y030295D01*
X002416Y030137D02*
X001468Y030137D01*
X001468Y029978D02*
X002575Y029978D01*
X002356Y029820D02*
X001468Y029820D01*
X001468Y029661D02*
X002214Y029661D01*
X002148Y029503D02*
X001468Y029503D01*
X001468Y029344D02*
X002145Y029344D01*
X002185Y029186D02*
X001468Y029186D01*
X001468Y029027D02*
X002287Y029027D01*
X002545Y028869D02*
X001958Y028869D01*
X002011Y028710D02*
X002348Y028710D01*
X002189Y028552D02*
X002011Y028552D01*
X002011Y028393D02*
X002031Y028393D01*
X001714Y028076D02*
X001468Y028076D01*
X001468Y027918D02*
X001618Y027918D01*
X001615Y027759D02*
X001468Y027759D01*
X001468Y027601D02*
X001615Y027601D01*
X001615Y027442D02*
X001468Y027442D01*
X001468Y027284D02*
X001615Y027284D01*
X001615Y027125D02*
X001468Y027125D01*
X001468Y026967D02*
X001615Y026967D01*
X001615Y026808D02*
X001468Y026808D01*
X001468Y026650D02*
X001615Y026650D01*
X001615Y026491D02*
X001468Y026491D01*
X001468Y026333D02*
X001615Y026333D01*
X001615Y026174D02*
X001468Y026174D01*
X001468Y026016D02*
X001615Y026016D01*
X001615Y025857D02*
X001468Y025857D01*
X001468Y025699D02*
X001615Y025699D01*
X001615Y025540D02*
X001468Y025540D01*
X001468Y025382D02*
X001615Y025382D01*
X001615Y025223D02*
X001468Y025223D01*
X001468Y025065D02*
X001615Y025065D01*
X001615Y024906D02*
X001468Y024906D01*
X001468Y024748D02*
X001615Y024748D01*
X001615Y024589D02*
X001468Y024589D01*
X001468Y024431D02*
X001615Y024431D01*
X001615Y024272D02*
X001468Y024272D01*
X001468Y024114D02*
X001615Y024114D01*
X001615Y023955D02*
X001468Y023955D01*
X001468Y023797D02*
X001615Y023797D01*
X001615Y023638D02*
X001468Y023638D01*
X001468Y023480D02*
X001615Y023480D01*
X001615Y023321D02*
X001468Y023321D01*
X001468Y023163D02*
X001615Y023163D01*
X001615Y023004D02*
X001468Y023004D01*
X001468Y022846D02*
X001615Y022846D01*
X001615Y022687D02*
X001468Y022687D01*
X001468Y022529D02*
X001615Y022529D01*
X001615Y022370D02*
X001468Y022370D01*
X001468Y022212D02*
X001615Y022212D01*
X001615Y022053D02*
X001468Y022053D01*
X001468Y021895D02*
X001615Y021895D01*
X001615Y021736D02*
X001468Y021736D01*
X001468Y021578D02*
X001615Y021578D01*
X001615Y021419D02*
X001468Y021419D01*
X001468Y021261D02*
X001615Y021261D01*
X001615Y021102D02*
X001468Y021102D01*
X001468Y020944D02*
X001615Y020944D01*
X001615Y020785D02*
X001468Y020785D01*
X001468Y020627D02*
X001615Y020627D01*
X001615Y020468D02*
X001468Y020468D01*
X001468Y020310D02*
X001615Y020310D01*
X001615Y020151D02*
X001468Y020151D01*
X001468Y019993D02*
X001615Y019993D01*
X001615Y019834D02*
X001468Y019834D01*
X001468Y019676D02*
X001615Y019676D01*
X001615Y019517D02*
X001468Y019517D01*
X001468Y019359D02*
X001615Y019359D01*
X001615Y019200D02*
X001468Y019200D01*
X001468Y019042D02*
X001615Y019042D01*
X001615Y018883D02*
X001468Y018883D01*
X001468Y018725D02*
X001615Y018725D01*
X001615Y018566D02*
X001468Y018566D01*
X001468Y018408D02*
X001615Y018408D01*
X001615Y018249D02*
X001468Y018249D01*
X001468Y018091D02*
X001615Y018091D01*
X001615Y017932D02*
X001468Y017932D01*
X001468Y017774D02*
X001615Y017774D01*
X001615Y017615D02*
X001468Y017615D01*
X001468Y017457D02*
X001615Y017457D01*
X001615Y017298D02*
X001468Y017298D01*
X001468Y017140D02*
X001615Y017140D01*
X001615Y016981D02*
X001468Y016981D01*
X001468Y016823D02*
X001615Y016823D01*
X004288Y016981D02*
X005787Y016981D01*
X005735Y017140D02*
X004332Y017140D01*
X006608Y018563D02*
X006608Y018563D01*
X002673Y019993D02*
X002235Y019993D01*
X002235Y020151D02*
X002621Y020151D01*
X002621Y020310D02*
X002235Y020310D01*
X002235Y020468D02*
X002621Y020468D01*
X002621Y020627D02*
X002235Y020627D01*
X002235Y020785D02*
X002621Y020785D01*
X002621Y020944D02*
X002235Y020944D01*
X002860Y022506D02*
X002860Y022506D01*
X003929Y024664D02*
X003929Y025639D01*
X002967Y026601D01*
X004429Y027064D02*
X004967Y027601D01*
X004429Y027064D02*
X004429Y024664D01*
X004929Y024664D02*
X004929Y025645D01*
X004961Y025676D01*
X005669Y025676D02*
X006307Y025676D01*
X006429Y025554D01*
X006429Y024664D01*
X006929Y024664D01*
X007067Y024664D01*
X007394Y024991D01*
X007953Y024991D01*
X009365Y025699D02*
X012265Y025699D01*
X012265Y025857D02*
X009365Y025857D01*
X009365Y026016D02*
X012265Y026016D01*
X012265Y026174D02*
X009365Y026174D01*
X009365Y026333D02*
X012265Y026333D01*
X012265Y026491D02*
X009365Y026491D01*
X009365Y026650D02*
X012265Y026650D01*
X012265Y026808D02*
X009365Y026808D01*
X009365Y026967D02*
X012265Y026967D01*
X012265Y027125D02*
X009365Y027125D01*
X009365Y027284D02*
X012165Y027284D01*
X012009Y027442D02*
X009365Y027442D01*
X009365Y027601D02*
X011852Y027601D01*
X011695Y027759D02*
X009365Y027759D01*
X009303Y027918D02*
X011539Y027918D01*
X011382Y028076D02*
X009145Y028076D01*
X008986Y028235D02*
X011226Y028235D01*
X011069Y028393D02*
X008828Y028393D01*
X008669Y028552D02*
X010912Y028552D01*
X010756Y028710D02*
X008511Y028710D01*
X008404Y028869D02*
X010599Y028869D01*
X010443Y029027D02*
X008662Y029027D01*
X008764Y029186D02*
X010286Y029186D01*
X010130Y029344D02*
X008805Y029344D01*
X008801Y029503D02*
X009973Y029503D01*
X009988Y029928D02*
X006772Y029928D01*
X006794Y029503D02*
X007148Y029503D01*
X007145Y029344D02*
X006642Y029344D01*
X006491Y029186D02*
X007185Y029186D01*
X007287Y029027D02*
X003662Y029027D01*
X003404Y028869D02*
X007545Y028869D01*
X009988Y029928D02*
X012575Y027310D01*
X012575Y024664D01*
X012227Y024589D02*
X010905Y024589D01*
X010905Y024431D02*
X012227Y024431D01*
X012227Y024272D02*
X010913Y024272D01*
X010966Y024748D02*
X012227Y024748D01*
X012227Y024906D02*
X011023Y024906D01*
X011023Y025065D02*
X012227Y025065D01*
X012257Y025223D02*
X011023Y025223D01*
X011023Y025382D02*
X012265Y025382D01*
X012265Y025540D02*
X009501Y025540D01*
X012652Y028235D02*
X024349Y028235D01*
X024365Y028393D02*
X012493Y028393D01*
X012335Y028552D02*
X024491Y028552D01*
X024650Y028710D02*
X012176Y028710D01*
X012018Y028869D02*
X018016Y028869D01*
X017914Y029027D02*
X011859Y029027D01*
X011701Y029186D02*
X017913Y029186D01*
X017551Y029344D02*
X011542Y029344D01*
X011384Y029503D02*
X017518Y029503D01*
X017593Y029661D02*
X011225Y029661D01*
X011067Y029820D02*
X017751Y029820D01*
X017910Y029978D02*
X010908Y029978D01*
X010750Y030137D02*
X017717Y030137D01*
X017563Y030295D02*
X010591Y030295D01*
X010433Y030454D02*
X017526Y030454D01*
X017591Y030612D02*
X010274Y030612D01*
X012810Y028076D02*
X024349Y028076D01*
X024391Y027918D02*
X012969Y027918D01*
X013127Y027759D02*
X024550Y027759D01*
X024958Y027601D02*
X025077Y027601D01*
X025658Y027601D02*
X025660Y027601D01*
X025890Y027601D02*
X026546Y027601D01*
X026448Y027442D02*
X017231Y027442D01*
X018341Y028869D02*
X018545Y028869D01*
X019133Y028869D02*
X019468Y028869D01*
X019310Y029027D02*
X019291Y029027D01*
X019793Y028869D02*
X020788Y028869D01*
X020686Y029027D02*
X019951Y029027D01*
X020110Y029186D02*
X020686Y029186D01*
X020686Y029344D02*
X020159Y029344D01*
X020159Y029503D02*
X020686Y029503D01*
X020686Y029661D02*
X020159Y029661D01*
X020159Y029820D02*
X020686Y029820D01*
X020708Y029978D02*
X020137Y029978D01*
X020768Y030137D02*
X020897Y030137D01*
X020922Y030295D02*
X021485Y030295D01*
X021485Y030454D02*
X020959Y030454D01*
X020959Y030612D02*
X021485Y030612D01*
X021485Y030771D02*
X020959Y030771D01*
X020959Y030929D02*
X021485Y030929D01*
X021485Y031088D02*
X020930Y031088D01*
X021399Y030137D02*
X021545Y030137D01*
X021478Y029027D02*
X021215Y029027D01*
X021113Y028869D02*
X021580Y028869D01*
X021905Y028869D02*
X021979Y028869D01*
X022297Y028869D02*
X023032Y028869D01*
X022930Y029027D02*
X022397Y029027D01*
X022387Y029186D02*
X022929Y029186D01*
X023356Y028869D02*
X023824Y028869D01*
X023722Y029027D02*
X023459Y029027D01*
X024148Y028869D02*
X024223Y028869D01*
X025102Y028552D02*
X025117Y028552D01*
X026126Y028552D02*
X026715Y028552D01*
X026682Y028393D02*
X026252Y028393D01*
X026269Y028235D02*
X026757Y028235D01*
X026816Y028076D02*
X026269Y028076D01*
X026226Y027918D02*
X026695Y027918D01*
X026691Y027759D02*
X026068Y027759D01*
X026238Y027284D02*
X026246Y027284D01*
X026199Y028869D02*
X026127Y028869D01*
X022309Y024589D02*
X030955Y024589D01*
X031461Y024471D02*
X031461Y024274D01*
X021941Y024274D01*
X021921Y024255D01*
X020468Y023321D02*
X030795Y023321D01*
X030915Y023163D02*
X020468Y023163D01*
X016240Y022613D02*
X016236Y022617D01*
X015575Y022617D01*
X015075Y022617D01*
X014575Y022617D02*
X014575Y021692D01*
X015075Y024664D02*
X015575Y024664D01*
X013075Y024664D02*
X013075Y027373D01*
X017555Y031088D02*
X002342Y031088D01*
X002971Y029393D02*
X002975Y029389D01*
X024197Y015393D02*
X024197Y012708D01*
X024433Y012471D01*
X024369Y011909D02*
X025026Y011909D01*
X025026Y011751D02*
X024369Y011751D01*
X024369Y011592D02*
X025026Y011592D01*
X025026Y011434D02*
X024525Y011434D01*
X024525Y011275D02*
X025026Y011275D01*
X025026Y011117D02*
X024525Y011117D01*
X024525Y010958D02*
X025026Y010958D01*
X025026Y010800D02*
X024525Y010800D01*
X024452Y010641D02*
X025069Y010641D01*
X025591Y011094D02*
X025591Y011494D01*
X025696Y011494D01*
X025984Y011782D01*
X025591Y011494D02*
X025441Y011644D01*
X025441Y011994D01*
X025441Y012023D01*
X025441Y012022D01*
X025441Y011994D01*
X025441Y011994D01*
X025441Y012354D01*
X025856Y012385D02*
X026998Y012385D01*
X026876Y012543D02*
X025856Y012543D01*
X025724Y012702D02*
X026876Y012702D01*
X027821Y012226D02*
X029306Y012226D01*
X029306Y012068D02*
X027894Y012068D01*
X027894Y011909D02*
X029306Y011909D01*
X029306Y011751D02*
X027894Y011751D01*
X027894Y011592D02*
X029094Y011592D01*
X029006Y011434D02*
X027894Y011434D01*
X028272Y010964D02*
X028272Y010613D01*
X028075Y010416D01*
X027721Y010416D01*
X027332Y010007D02*
X026332Y010007D01*
X026174Y009849D02*
X027254Y009849D01*
X027254Y009690D02*
X026015Y009690D01*
X026161Y010964D02*
X026031Y011094D01*
X025591Y011094D01*
X023667Y010641D02*
X023271Y010641D01*
X023344Y010800D02*
X023593Y010800D01*
X023593Y010958D02*
X023344Y010958D01*
X022485Y010641D02*
X022365Y010641D01*
X024507Y014604D02*
X026171Y014604D01*
X026209Y014762D02*
X024507Y014762D01*
X024507Y014921D02*
X026518Y014921D01*
X026360Y015079D02*
X024507Y015079D01*
X024507Y015238D02*
X026201Y015238D01*
X026043Y015396D02*
X024639Y015396D01*
X024797Y015555D02*
X025367Y015555D01*
X025247Y015713D02*
X024956Y015713D01*
X026285Y016030D02*
X028042Y016030D01*
X028042Y015872D02*
X026444Y015872D01*
X026602Y015713D02*
X028122Y015713D01*
X028736Y015713D02*
X032736Y015713D01*
X032647Y015555D02*
X026761Y015555D01*
X026919Y015396D02*
X032647Y015396D01*
X032647Y015238D02*
X027078Y015238D01*
X026941Y014889D02*
X027819Y014889D01*
X027965Y014743D01*
X027965Y014404D01*
X027931Y014438D01*
X027931Y014444D01*
X028291Y014444D01*
X028291Y014443D01*
X028291Y014109D01*
X028776Y013625D01*
X028882Y013625D01*
X029571Y014314D01*
X030136Y014287D02*
X031581Y014287D01*
X031546Y014445D02*
X030136Y014445D01*
X030136Y014604D02*
X031546Y014604D01*
X031546Y014762D02*
X030098Y014762D01*
X030712Y014128D02*
X031506Y014128D01*
X031506Y013970D02*
X030746Y013970D01*
X030746Y013811D02*
X031506Y013811D01*
X031506Y013653D02*
X030746Y013653D01*
X030746Y013494D02*
X031562Y013494D01*
X031506Y013019D02*
X030136Y013019D01*
X030136Y013177D02*
X032506Y013177D01*
X032506Y013336D02*
X030650Y013336D01*
X030358Y013763D02*
X029722Y013763D01*
X029721Y013764D01*
X028882Y013625D02*
X028882Y012786D01*
X029639Y012786D01*
X029721Y012704D01*
X029721Y012354D01*
X029722Y012353D01*
X030201Y012353D01*
X030311Y012243D01*
X030311Y011885D01*
X030070Y011644D01*
X029721Y011644D01*
X029571Y011494D01*
X029571Y011094D01*
X029578Y011101D01*
X030205Y011101D01*
X030713Y010593D01*
X030713Y009589D01*
X031100Y009532D02*
X032411Y009532D01*
X032411Y009373D02*
X031100Y009373D01*
X031057Y009215D02*
X032411Y009215D01*
X032287Y009056D02*
X030508Y009056D01*
X030369Y009215D02*
X030348Y009215D01*
X030977Y008898D02*
X032166Y008898D01*
X032166Y008739D02*
X031135Y008739D01*
X031294Y008581D02*
X032166Y008581D01*
X032166Y008422D02*
X031377Y008422D01*
X031377Y008264D02*
X032166Y008264D01*
X032166Y008105D02*
X031377Y008105D01*
X031377Y007947D02*
X038139Y007947D01*
X038139Y008105D02*
X033276Y008105D01*
X033276Y008264D02*
X034509Y008264D01*
X035083Y008645D02*
X032851Y008645D01*
X032721Y008515D01*
X032721Y009550D01*
X033469Y010298D01*
X035201Y010298D01*
X035122Y010219D01*
X035122Y009589D01*
X034735Y009532D02*
X033140Y009532D01*
X033031Y009373D02*
X034735Y009373D01*
X034778Y009215D02*
X033031Y009215D01*
X033155Y009056D02*
X034539Y009056D01*
X034735Y009690D02*
X033299Y009690D01*
X033457Y009849D02*
X034735Y009849D01*
X035201Y010298D02*
X035595Y010298D01*
X035752Y010456D01*
X035752Y010945D01*
X035771Y010964D01*
X035374Y011434D02*
X039091Y011434D01*
X039091Y011592D02*
X038434Y011592D01*
X038367Y011525D02*
X038502Y011660D01*
X038502Y012323D01*
X038367Y012457D01*
X037862Y012457D01*
X037727Y012323D01*
X037727Y012271D01*
X037554Y012271D01*
X037482Y012344D01*
X036921Y012344D01*
X036786Y012209D01*
X036786Y011779D01*
X036921Y011644D01*
X037482Y011644D01*
X037549Y011711D01*
X037727Y011711D01*
X037727Y011660D01*
X037862Y011525D01*
X038367Y011525D01*
X038502Y011751D02*
X039091Y011751D01*
X039091Y011909D02*
X038502Y011909D01*
X038502Y012068D02*
X039091Y012068D01*
X039091Y012226D02*
X038502Y012226D01*
X038440Y012385D02*
X039091Y012385D01*
X039091Y012543D02*
X035683Y012543D01*
X035683Y012702D02*
X039091Y012702D01*
X039091Y012860D02*
X035683Y012860D01*
X035683Y013019D02*
X039091Y013019D01*
X039091Y013177D02*
X037595Y013177D01*
X037616Y013336D02*
X039091Y013336D01*
X039091Y013494D02*
X037686Y013494D01*
X037888Y013653D02*
X039091Y013653D01*
X039091Y013811D02*
X037961Y013811D01*
X037961Y013970D02*
X039091Y013970D01*
X039091Y014128D02*
X037961Y014128D01*
X037961Y014287D02*
X039091Y014287D01*
X039091Y014445D02*
X037961Y014445D01*
X037961Y014604D02*
X039091Y014604D01*
X039091Y014762D02*
X037961Y014762D01*
X037904Y014921D02*
X039091Y014921D01*
X039091Y015079D02*
X037745Y015079D01*
X037587Y015238D02*
X039091Y015238D01*
X039091Y015396D02*
X035037Y015396D01*
X035131Y015555D02*
X034915Y015555D01*
X035128Y015713D02*
X034130Y015713D01*
X034207Y015555D02*
X034384Y015555D01*
X034210Y015872D02*
X035128Y015872D01*
X035128Y016030D02*
X034210Y016030D01*
X034210Y016189D02*
X035128Y016189D01*
X035173Y016347D02*
X034210Y016347D01*
X034210Y016506D02*
X035128Y016506D01*
X035128Y016664D02*
X034210Y016664D01*
X034159Y016823D02*
X035128Y016823D01*
X035128Y016981D02*
X034210Y016981D01*
X034210Y017140D02*
X035200Y017140D01*
X035128Y017298D02*
X034210Y017298D01*
X034210Y017457D02*
X035128Y017457D01*
X035128Y017615D02*
X034210Y017615D01*
X034210Y017774D02*
X035128Y017774D01*
X035155Y017932D02*
X034210Y017932D01*
X034145Y018091D02*
X035128Y018091D01*
X035128Y018249D02*
X034210Y018249D01*
X034210Y018408D02*
X035128Y018408D01*
X035128Y018566D02*
X034210Y018566D01*
X034210Y018725D02*
X035150Y018725D01*
X035128Y018883D02*
X034210Y018883D01*
X034210Y019042D02*
X035128Y019042D01*
X035128Y019200D02*
X034144Y019200D01*
X034157Y019359D02*
X035128Y019359D01*
X035218Y019517D02*
X034262Y019517D01*
X034262Y019676D02*
X035198Y019676D01*
X035198Y019834D02*
X034262Y019834D01*
X034262Y019993D02*
X035117Y019993D01*
X034959Y020151D02*
X034262Y020151D01*
X034262Y020310D02*
X034555Y020310D01*
X034541Y020468D02*
X034155Y020468D01*
X034027Y020627D02*
X034541Y020627D01*
X034541Y020785D02*
X034027Y020785D01*
X034027Y020944D02*
X034541Y020944D01*
X034541Y021102D02*
X034027Y021102D01*
X033717Y021294D02*
X033941Y021519D01*
X035007Y021519D01*
X035017Y021509D01*
X034960Y021895D02*
X031535Y021895D01*
X031535Y022053D02*
X034960Y022053D01*
X034960Y022212D02*
X031535Y022212D01*
X031771Y022370D02*
X032253Y022370D01*
X032271Y022352D02*
X032934Y022352D01*
X033055Y022473D01*
X033137Y022391D01*
X033643Y022391D01*
X033777Y022526D01*
X033777Y023189D01*
X033643Y023323D01*
X033137Y023323D01*
X033055Y023241D01*
X032934Y023363D01*
X032271Y023363D01*
X032136Y023228D01*
X032136Y022486D01*
X032271Y022352D01*
X032136Y022529D02*
X031888Y022529D01*
X031888Y022687D02*
X032136Y022687D01*
X032136Y022846D02*
X031888Y022846D01*
X031888Y023004D02*
X032136Y023004D01*
X032136Y023163D02*
X031888Y023163D01*
X031795Y023321D02*
X032229Y023321D01*
X032976Y023321D02*
X033135Y023321D01*
X033645Y023321D02*
X035201Y023321D01*
X035030Y023163D02*
X033777Y023163D01*
X033777Y023004D02*
X034960Y023004D01*
X034960Y022846D02*
X033777Y022846D01*
X033777Y022687D02*
X034960Y022687D01*
X034960Y022529D02*
X033777Y022529D01*
X033720Y021736D02*
X031535Y021736D01*
X031535Y021578D02*
X033562Y021578D01*
X033433Y021419D02*
X031535Y021419D01*
X031535Y021261D02*
X033407Y021261D01*
X033407Y021102D02*
X031535Y021102D01*
X031535Y020944D02*
X033407Y020944D01*
X033407Y020785D02*
X031535Y020785D01*
X031535Y020627D02*
X033407Y020627D01*
X033278Y020468D02*
X031533Y020468D01*
X031438Y020310D02*
X033172Y020310D01*
X033172Y020151D02*
X031280Y020151D01*
X031121Y019993D02*
X033172Y019993D01*
X033172Y019834D02*
X029821Y019834D01*
X029662Y019676D02*
X033172Y019676D01*
X033172Y019517D02*
X029504Y019517D01*
X029345Y019359D02*
X033276Y019359D01*
X033344Y019200D02*
X029330Y019200D01*
X029330Y019042D02*
X033278Y019042D01*
X033278Y018883D02*
X029330Y018883D01*
X029330Y018725D02*
X033278Y018725D01*
X033278Y018566D02*
X029330Y018566D01*
X029330Y018408D02*
X033278Y018408D01*
X033278Y018249D02*
X029330Y018249D01*
X029330Y018091D02*
X033343Y018091D01*
X033278Y017932D02*
X029330Y017932D01*
X029330Y017774D02*
X033278Y017774D01*
X033278Y017615D02*
X029330Y017615D01*
X029330Y017457D02*
X033278Y017457D01*
X033278Y017298D02*
X029330Y017298D01*
X029330Y017140D02*
X033278Y017140D01*
X033278Y016981D02*
X029330Y016981D01*
X029330Y016823D02*
X033329Y016823D01*
X033278Y016664D02*
X029330Y016664D01*
X029330Y016506D02*
X033278Y016506D01*
X033278Y016347D02*
X029330Y016347D01*
X029246Y016189D02*
X033212Y016189D01*
X033053Y016030D02*
X029088Y016030D01*
X028929Y015872D02*
X032895Y015872D01*
X032957Y015495D02*
X032957Y014428D01*
X033071Y014314D01*
X033650Y013735D01*
X033650Y013211D01*
X034313Y013177D02*
X034357Y013177D01*
X034357Y013019D02*
X034313Y013019D01*
X034313Y012860D02*
X034357Y012860D01*
X034357Y012702D02*
X034313Y012702D01*
X034313Y012543D02*
X034357Y012543D01*
X034478Y012385D02*
X034191Y012385D01*
X033786Y012226D02*
X030621Y012226D01*
X030621Y012068D02*
X033713Y012068D01*
X033713Y011909D02*
X030621Y011909D01*
X030591Y011751D02*
X033713Y011751D01*
X033713Y011592D02*
X030457Y011592D01*
X030298Y011434D02*
X033713Y011434D01*
X033682Y011275D02*
X030470Y011275D01*
X030628Y011117D02*
X033651Y011117D01*
X033651Y010958D02*
X030787Y010958D01*
X030945Y010800D02*
X033651Y010800D01*
X033694Y010641D02*
X031023Y010641D01*
X031023Y010483D02*
X033215Y010483D01*
X033056Y010324D02*
X031023Y010324D01*
X031023Y010166D02*
X032898Y010166D01*
X032739Y010007D02*
X031023Y010007D01*
X031100Y009849D02*
X032581Y009849D01*
X032443Y009690D02*
X031100Y009690D01*
X030004Y009589D02*
X029984Y009609D01*
X029984Y010251D01*
X029835Y010400D01*
X029815Y010400D01*
X029799Y010416D01*
X029217Y010416D01*
X029001Y010632D01*
X029001Y010964D01*
X028641Y010964D02*
X028641Y010358D01*
X028835Y010164D01*
X028835Y009601D01*
X028823Y009589D01*
X029210Y009532D02*
X029617Y009532D01*
X029617Y009690D02*
X029210Y009690D01*
X029210Y009849D02*
X029617Y009849D01*
X029674Y010007D02*
X029145Y010007D01*
X029210Y009373D02*
X029617Y009373D01*
X029660Y009215D02*
X029167Y009215D01*
X029327Y009056D02*
X029421Y009056D01*
X029391Y008264D02*
X029358Y008264D01*
X028209Y008264D02*
X028177Y008264D01*
X028146Y009056D02*
X028240Y009056D01*
X028006Y009215D02*
X027986Y009215D01*
X028272Y010964D02*
X028291Y010964D01*
X028299Y012385D02*
X028081Y012385D01*
X028203Y012543D02*
X028209Y012543D01*
X028203Y012702D02*
X028209Y012702D01*
X028203Y012860D02*
X028209Y012860D01*
X028203Y013019D02*
X028209Y013019D01*
X028203Y013177D02*
X028288Y013177D01*
X028203Y013336D02*
X028572Y013336D01*
X028468Y013494D02*
X028203Y013494D01*
X028203Y013653D02*
X028310Y013653D01*
X029721Y013054D02*
X029721Y012704D01*
X030136Y012702D02*
X031506Y012702D01*
X031506Y012860D02*
X030136Y012860D01*
X030450Y012543D02*
X031506Y012543D01*
X031506Y012385D02*
X030588Y012385D01*
X032518Y012385D02*
X032610Y012385D01*
X032921Y012704D02*
X032921Y013054D01*
X032921Y013414D01*
X032921Y013764D01*
X032921Y014164D01*
X033071Y014314D01*
X033201Y014444D01*
X033641Y014444D01*
X033991Y014445D02*
X034361Y014445D01*
X034361Y014287D02*
X033991Y014287D01*
X033956Y014128D02*
X034397Y014128D01*
X034409Y013970D02*
X034260Y013970D01*
X034313Y013811D02*
X034357Y013811D01*
X034357Y013653D02*
X034313Y013653D01*
X034313Y013494D02*
X034357Y013494D01*
X034357Y013336D02*
X034313Y013336D01*
X035376Y014128D02*
X035807Y014128D01*
X035771Y014287D02*
X035411Y014287D01*
X035411Y014445D02*
X035771Y014445D01*
X035771Y014604D02*
X035411Y014604D01*
X035373Y014762D02*
X035809Y014762D01*
X035901Y015555D02*
X039091Y015555D01*
X039091Y015713D02*
X038220Y015713D01*
X038378Y015872D02*
X039091Y015872D01*
X039091Y016030D02*
X038537Y016030D01*
X038695Y016189D02*
X039091Y016189D01*
X039091Y016347D02*
X038805Y016347D01*
X038818Y016506D02*
X039091Y016506D01*
X039091Y016664D02*
X038818Y016664D01*
X038818Y016823D02*
X039091Y016823D01*
X039091Y016981D02*
X038818Y016981D01*
X038818Y017140D02*
X039091Y017140D01*
X039091Y017298D02*
X038818Y017298D01*
X038818Y017457D02*
X039091Y017457D01*
X039091Y017615D02*
X038818Y017615D01*
X038818Y017774D02*
X039091Y017774D01*
X039091Y017932D02*
X038818Y017932D01*
X038818Y018091D02*
X039091Y018091D01*
X039091Y018249D02*
X038818Y018249D01*
X038818Y018408D02*
X039091Y018408D01*
X039091Y018566D02*
X038818Y018566D01*
X038818Y018725D02*
X039091Y018725D01*
X039091Y018883D02*
X038818Y018883D01*
X038818Y019042D02*
X039091Y019042D01*
X039091Y019200D02*
X038818Y019200D01*
X038818Y019359D02*
X039091Y019359D01*
X039091Y019517D02*
X038818Y019517D01*
X038818Y019676D02*
X039091Y019676D01*
X039091Y019834D02*
X038818Y019834D01*
X038818Y019993D02*
X039091Y019993D01*
X039091Y020151D02*
X038818Y020151D01*
X038818Y020310D02*
X039091Y020310D01*
X039091Y020468D02*
X038818Y020468D01*
X038818Y020627D02*
X039091Y020627D01*
X039091Y020785D02*
X038818Y020785D01*
X038818Y020944D02*
X039091Y020944D01*
X039091Y021102D02*
X038818Y021102D01*
X038818Y021261D02*
X039091Y021261D01*
X039091Y021419D02*
X038818Y021419D01*
X038818Y021578D02*
X039091Y021578D01*
X039091Y021736D02*
X038818Y021736D01*
X038818Y021895D02*
X039091Y021895D01*
X039091Y022053D02*
X038818Y022053D01*
X038818Y022212D02*
X039091Y022212D01*
X039091Y022370D02*
X038818Y022370D01*
X038818Y022529D02*
X039091Y022529D01*
X039091Y022687D02*
X038818Y022687D01*
X038818Y022846D02*
X039091Y022846D01*
X039091Y023004D02*
X038818Y023004D01*
X038818Y023163D02*
X039091Y023163D01*
X039091Y023321D02*
X038818Y023321D01*
X038818Y023480D02*
X039091Y023480D01*
X039091Y023638D02*
X038818Y023638D01*
X038755Y023797D02*
X039091Y023797D01*
X039091Y023955D02*
X038597Y023955D01*
X038438Y024114D02*
X039091Y024114D01*
X039091Y024272D02*
X038280Y024272D01*
X038121Y024431D02*
X039091Y024431D01*
X039091Y024589D02*
X031966Y024589D01*
X031966Y024748D02*
X039091Y024748D01*
X039091Y024906D02*
X031863Y024906D01*
X031461Y024274D02*
X037839Y024274D01*
X038508Y023605D01*
X038508Y016440D01*
X037957Y015889D01*
X035516Y015889D01*
X035516Y016723D01*
X035516Y017542D01*
X035516Y018290D01*
X035516Y019078D01*
X035903Y019042D02*
X038198Y019042D01*
X038198Y019200D02*
X036034Y019200D01*
X036193Y019359D02*
X038198Y019359D01*
X038198Y019517D02*
X036288Y019517D01*
X036818Y019676D02*
X038198Y019676D01*
X038198Y019834D02*
X036818Y019834D01*
X036818Y019993D02*
X038198Y019993D01*
X038198Y020151D02*
X036818Y020151D01*
X036818Y020310D02*
X038198Y020310D01*
X038198Y020468D02*
X036699Y020468D01*
X036572Y020785D02*
X035493Y020785D01*
X035493Y020627D02*
X038198Y020627D01*
X038198Y020785D02*
X037427Y020785D01*
X037475Y020944D02*
X038198Y020944D01*
X038198Y021102D02*
X037475Y021102D01*
X037392Y021261D02*
X038198Y021261D01*
X038198Y021419D02*
X037475Y021419D01*
X037475Y021578D02*
X038198Y021578D01*
X038198Y021736D02*
X037413Y021736D01*
X038198Y021895D02*
X036568Y021895D01*
X036568Y022053D02*
X038198Y022053D01*
X038198Y022212D02*
X036568Y022212D01*
X036529Y022370D02*
X038198Y022370D01*
X038198Y022529D02*
X036582Y022529D01*
X036619Y022687D02*
X038198Y022687D01*
X038198Y022846D02*
X036619Y022846D01*
X036619Y023004D02*
X038198Y023004D01*
X038198Y023163D02*
X036606Y023163D01*
X036458Y023321D02*
X038198Y023321D01*
X038195Y023480D02*
X031498Y023480D01*
X031355Y023638D02*
X038037Y023638D01*
X037878Y023797D02*
X031196Y023797D01*
X031094Y023899D02*
X031094Y023899D01*
X031038Y023955D02*
X037720Y023955D01*
X036585Y021736D02*
X036568Y021736D01*
X036523Y021578D02*
X036497Y021578D01*
X036523Y021419D02*
X035493Y021419D01*
X035493Y021261D02*
X036606Y021261D01*
X036523Y021102D02*
X035493Y021102D01*
X035493Y020944D02*
X036523Y020944D01*
X036337Y020468D02*
X036189Y020468D01*
X035903Y018883D02*
X038198Y018883D01*
X038198Y018725D02*
X035882Y018725D01*
X035903Y018566D02*
X038198Y018566D01*
X038198Y018408D02*
X035903Y018408D01*
X035903Y018249D02*
X038198Y018249D01*
X038198Y018091D02*
X035903Y018091D01*
X035877Y017932D02*
X038198Y017932D01*
X038198Y017774D02*
X035903Y017774D01*
X035903Y017615D02*
X038198Y017615D01*
X038198Y017457D02*
X035903Y017457D01*
X035903Y017298D02*
X038198Y017298D01*
X038198Y017140D02*
X035832Y017140D01*
X035903Y016981D02*
X038198Y016981D01*
X038198Y016823D02*
X035903Y016823D01*
X035903Y016664D02*
X038198Y016664D01*
X038135Y016506D02*
X035903Y016506D01*
X035859Y016347D02*
X037977Y016347D01*
X037270Y014762D02*
X036793Y014762D01*
X036831Y014604D02*
X037401Y014604D01*
X037401Y014445D02*
X036831Y014445D01*
X036831Y014287D02*
X037401Y014287D01*
X037401Y014128D02*
X036796Y014128D01*
X036786Y013970D02*
X035630Y013970D01*
X035683Y013811D02*
X036786Y013811D01*
X036786Y013653D02*
X035683Y013653D01*
X035683Y013494D02*
X036786Y013494D01*
X036786Y013336D02*
X035683Y013336D01*
X035683Y013177D02*
X036808Y013177D01*
X036803Y012226D02*
X035301Y012226D01*
X035374Y012068D02*
X036786Y012068D01*
X036786Y011909D02*
X035374Y011909D01*
X035374Y011751D02*
X036814Y011751D01*
X036800Y011275D02*
X039091Y011275D01*
X039091Y011117D02*
X036831Y011117D01*
X036831Y010958D02*
X039091Y010958D01*
X039091Y010800D02*
X036831Y010800D01*
X036460Y010218D02*
X036460Y010218D01*
X036512Y010166D02*
X036401Y010166D01*
X036605Y010007D02*
X037183Y010007D01*
X037097Y009849D02*
X036691Y009849D01*
X036691Y009690D02*
X037097Y009690D01*
X037097Y009532D02*
X036691Y009532D01*
X036691Y009373D02*
X037097Y009373D01*
X037140Y009215D02*
X036647Y009215D01*
X036808Y009056D02*
X036901Y009056D01*
X037445Y008645D02*
X036264Y008645D01*
X035083Y008645D01*
X035627Y009056D02*
X035720Y009056D01*
X035487Y009215D02*
X035466Y009215D01*
X035657Y008264D02*
X035690Y008264D01*
X036838Y008264D02*
X036871Y008264D01*
X038019Y008264D02*
X038139Y008264D01*
X038139Y007788D02*
X031377Y007788D01*
X031377Y007630D02*
X038139Y007630D01*
X038139Y007471D02*
X031377Y007471D01*
X030734Y008264D02*
X030539Y008264D01*
X027522Y004194D02*
X027316Y004279D01*
X027093Y004279D01*
X026888Y004194D01*
X026730Y004037D01*
X026645Y003831D01*
X026645Y003608D01*
X026730Y003402D01*
X026888Y003245D01*
X027093Y003159D01*
X027316Y003159D01*
X027522Y003245D01*
X027680Y003402D01*
X027765Y003608D01*
X027765Y003831D01*
X027680Y004037D01*
X027522Y004194D01*
X027574Y004143D02*
X036546Y004143D01*
X036544Y004140D02*
X036544Y003299D01*
X036678Y003164D01*
X037519Y003164D01*
X037654Y003299D01*
X037654Y004140D01*
X037519Y004274D01*
X036678Y004274D01*
X036544Y004140D01*
X036544Y003984D02*
X027701Y003984D01*
X027765Y003826D02*
X036544Y003826D01*
X036544Y003667D02*
X027765Y003667D01*
X027724Y003509D02*
X036544Y003509D01*
X036544Y003350D02*
X027627Y003350D01*
X027394Y003192D02*
X036651Y003192D01*
X037546Y003192D02*
X039091Y003192D01*
X039091Y003350D02*
X037654Y003350D01*
X037654Y003509D02*
X039091Y003509D01*
X039091Y003667D02*
X037654Y003667D01*
X037654Y003826D02*
X039091Y003826D01*
X039091Y003984D02*
X037654Y003984D01*
X037651Y004143D02*
X039091Y004143D01*
X039091Y004301D02*
X022656Y004301D01*
X022656Y004143D02*
X026836Y004143D01*
X026708Y003984D02*
X022656Y003984D01*
X022656Y003826D02*
X022901Y003826D01*
X022743Y003667D02*
X022656Y003667D01*
X022076Y003667D02*
X020509Y003667D01*
X020616Y003560D02*
X020329Y003847D01*
X019923Y003847D01*
X019636Y003560D01*
X019636Y003154D01*
X019923Y002867D01*
X020329Y002867D01*
X020616Y003154D01*
X020616Y003560D01*
X020616Y003509D02*
X022076Y003509D01*
X022076Y003350D02*
X020616Y003350D01*
X020616Y003192D02*
X022076Y003192D01*
X022076Y003033D02*
X020495Y003033D01*
X020336Y002875D02*
X022076Y002875D01*
X022076Y002716D02*
X001468Y002716D01*
X001468Y002558D02*
X004712Y002558D01*
X004643Y002529D02*
X004466Y002352D01*
X004370Y002120D01*
X004370Y001870D01*
X004466Y001638D01*
X004643Y001461D01*
X004875Y001365D01*
X005125Y001365D01*
X005357Y001461D01*
X005534Y001638D01*
X005630Y001870D01*
X005630Y002120D01*
X005534Y002352D01*
X005357Y002529D01*
X005125Y002625D01*
X004875Y002625D01*
X004643Y002529D01*
X004513Y002399D02*
X001468Y002399D01*
X001468Y002241D02*
X004420Y002241D01*
X004370Y002082D02*
X001468Y002082D01*
X001468Y001924D02*
X004370Y001924D01*
X004413Y001765D02*
X001468Y001765D01*
X001468Y001607D02*
X004498Y001607D01*
X004674Y001448D02*
X001468Y001448D01*
X001468Y001290D02*
X019636Y001290D01*
X019636Y001154D02*
X019636Y001560D01*
X019923Y001847D01*
X020329Y001847D01*
X020616Y001560D01*
X020616Y001154D01*
X020329Y000867D01*
X019923Y000867D01*
X019636Y001154D01*
X019659Y001131D02*
X001468Y001131D01*
X001468Y000973D02*
X019818Y000973D01*
X019636Y001448D02*
X009515Y001448D01*
X009567Y001500D02*
X009432Y001365D01*
X008442Y001365D01*
X008307Y001500D01*
X008307Y002490D01*
X008442Y002625D01*
X009432Y002625D01*
X009567Y002490D01*
X009567Y001500D01*
X009567Y001607D02*
X019682Y001607D01*
X019841Y001765D02*
X009567Y001765D01*
X009567Y001924D02*
X022076Y001924D01*
X022076Y002082D02*
X009567Y002082D01*
X009567Y002241D02*
X022076Y002241D01*
X022076Y002399D02*
X009567Y002399D01*
X009500Y002558D02*
X022076Y002558D01*
X022656Y002558D02*
X039091Y002558D01*
X039091Y002716D02*
X022656Y002716D01*
X022656Y002875D02*
X022916Y002875D01*
X022757Y003033D02*
X022656Y003033D01*
X022656Y002399D02*
X039091Y002399D01*
X039091Y002241D02*
X022656Y002241D01*
X022656Y002082D02*
X039091Y002082D01*
X039091Y001924D02*
X022656Y001924D01*
X022727Y001765D02*
X022841Y001765D01*
X023411Y001765D02*
X039091Y001765D01*
X039091Y001607D02*
X023553Y001607D01*
X023616Y001448D02*
X039091Y001448D01*
X039091Y001290D02*
X023616Y001290D01*
X023563Y001131D02*
X039091Y001131D01*
X039091Y000973D02*
X023434Y000973D01*
X022818Y000973D02*
X020434Y000973D01*
X020593Y001131D02*
X022541Y001131D01*
X022382Y001290D02*
X020616Y001290D01*
X020616Y001448D02*
X022224Y001448D01*
X022097Y001607D02*
X020570Y001607D01*
X020411Y001765D02*
X022076Y001765D01*
X023336Y002875D02*
X039091Y002875D01*
X039091Y003033D02*
X023495Y003033D01*
X023616Y003192D02*
X027016Y003192D01*
X026782Y003350D02*
X023616Y003350D01*
X023616Y003509D02*
X026686Y003509D01*
X026645Y003667D02*
X023509Y003667D01*
X023351Y003826D02*
X026645Y003826D01*
X023003Y005728D02*
X039091Y005728D01*
X039091Y005886D02*
X023029Y005886D01*
X022656Y005569D02*
X039091Y005569D01*
X039091Y005411D02*
X022656Y005411D01*
X022656Y005252D02*
X039091Y005252D01*
X039091Y005094D02*
X022656Y005094D01*
X022656Y004935D02*
X039091Y004935D01*
X039091Y004777D02*
X022656Y004777D01*
X022656Y004618D02*
X039091Y004618D01*
X039091Y004460D02*
X022656Y004460D01*
X022076Y003984D02*
X017273Y003984D01*
X017245Y004012D02*
X016464Y004012D01*
X016329Y003878D01*
X016329Y003097D01*
X016464Y002962D01*
X017245Y002962D01*
X017380Y003097D01*
X017380Y003878D01*
X017245Y004012D01*
X017380Y003826D02*
X019901Y003826D01*
X019743Y003667D02*
X017380Y003667D01*
X017380Y003509D02*
X019636Y003509D01*
X019636Y003350D02*
X017380Y003350D01*
X017380Y003192D02*
X019636Y003192D01*
X019757Y003033D02*
X017316Y003033D01*
X016393Y003033D02*
X013537Y003033D01*
X013600Y003097D02*
X013465Y002962D01*
X012684Y002962D01*
X012550Y003097D01*
X012550Y003878D01*
X012684Y004012D01*
X013465Y004012D01*
X013600Y003878D01*
X013600Y003097D01*
X013600Y003192D02*
X016329Y003192D01*
X016329Y003350D02*
X013600Y003350D01*
X013600Y003509D02*
X016329Y003509D01*
X016329Y003667D02*
X013600Y003667D01*
X013600Y003826D02*
X016329Y003826D01*
X016436Y003984D02*
X013494Y003984D01*
X012656Y003984D02*
X001468Y003984D01*
X001468Y003826D02*
X012550Y003826D01*
X012550Y003667D02*
X001468Y003667D01*
X001468Y003509D02*
X012550Y003509D01*
X012550Y003350D02*
X001468Y003350D01*
X001468Y003192D02*
X012550Y003192D01*
X012613Y003033D02*
X001468Y003033D01*
X001468Y002875D02*
X019916Y002875D01*
X020351Y003826D02*
X022076Y003826D01*
X022076Y005728D02*
X021822Y005728D01*
X021848Y005886D02*
X022076Y005886D01*
X022097Y006045D02*
X021848Y006045D01*
X021848Y006203D02*
X022097Y006203D01*
X022097Y006362D02*
X021848Y006362D01*
X021824Y006520D02*
X022121Y006520D01*
X016359Y008264D02*
X013570Y008264D01*
X013600Y008422D02*
X016329Y008422D01*
X016329Y008581D02*
X013600Y008581D01*
X013600Y008739D02*
X016329Y008739D01*
X016329Y008898D02*
X013600Y008898D01*
X013600Y009056D02*
X016329Y009056D01*
X008374Y002558D02*
X007257Y002558D01*
X007325Y002529D02*
X007094Y002625D01*
X006843Y002625D01*
X006612Y002529D01*
X006435Y002352D01*
X006339Y002120D01*
X006339Y001870D01*
X006435Y001638D01*
X006612Y001461D01*
X006843Y001365D01*
X007094Y001365D01*
X007325Y001461D01*
X007503Y001638D01*
X007599Y001870D01*
X007599Y002120D01*
X007503Y002352D01*
X007325Y002529D01*
X007456Y002399D02*
X008307Y002399D01*
X008307Y002241D02*
X007549Y002241D01*
X007599Y002082D02*
X008307Y002082D01*
X008307Y001924D02*
X007599Y001924D01*
X007555Y001765D02*
X008307Y001765D01*
X008307Y001607D02*
X007471Y001607D01*
X007294Y001448D02*
X008359Y001448D01*
X006643Y001448D02*
X005326Y001448D01*
X005503Y001607D02*
X006466Y001607D01*
X006382Y001765D02*
X005587Y001765D01*
X005630Y001924D02*
X006339Y001924D01*
X006339Y002082D02*
X005630Y002082D01*
X005580Y002241D02*
X006388Y002241D01*
X006482Y002399D02*
X005487Y002399D01*
X005288Y002558D02*
X006680Y002558D01*
X004894Y005971D02*
X005114Y006192D01*
X005776Y006192D01*
X005776Y006818D01*
X005268Y006818D01*
X005126Y006960D01*
X004929Y006960D01*
X004894Y006995D01*
X001468Y000814D02*
X039091Y000814D01*
X039091Y006362D02*
X038247Y006362D01*
X038447Y006520D02*
X039091Y006520D01*
X039091Y006679D02*
X038606Y006679D01*
X038712Y006837D02*
X039091Y006837D01*
X039091Y006996D02*
X038719Y006996D01*
X038719Y007154D02*
X039091Y007154D01*
X039091Y007313D02*
X038719Y007313D01*
X038719Y007471D02*
X039091Y007471D01*
X039091Y007630D02*
X038719Y007630D01*
X038719Y007788D02*
X039091Y007788D01*
X039091Y007947D02*
X038719Y007947D01*
X038719Y008105D02*
X039091Y008105D01*
X039091Y008264D02*
X038719Y008264D01*
X038719Y008422D02*
X039091Y008422D01*
X039091Y008581D02*
X038688Y008581D01*
X038548Y008739D02*
X039091Y008739D01*
X039091Y008898D02*
X038380Y008898D01*
X037989Y009056D02*
X039091Y009056D01*
X039091Y009215D02*
X037828Y009215D01*
X037872Y009373D02*
X039091Y009373D01*
X039091Y009532D02*
X037872Y009532D01*
X037872Y009690D02*
X039091Y009690D01*
X039091Y009849D02*
X037872Y009849D01*
X037786Y010007D02*
X039091Y010007D01*
X039091Y010166D02*
X037764Y010166D01*
X037764Y010324D02*
X039091Y010324D01*
X039091Y010483D02*
X037696Y010483D01*
X037500Y010641D02*
X039091Y010641D01*
X037794Y011592D02*
X035374Y011592D01*
X035561Y012385D02*
X037789Y012385D01*
X034361Y014604D02*
X033991Y014604D01*
X033346Y014921D02*
X033267Y014921D01*
X033267Y015079D02*
X033379Y015079D01*
X033267Y015238D02*
X033524Y015238D01*
X033554Y015396D02*
X033296Y015396D01*
X033455Y015555D02*
X033675Y015555D01*
X032957Y015495D02*
X033744Y016282D01*
X033744Y017463D01*
X033744Y018645D01*
X033744Y019885D01*
X033717Y019912D01*
X033717Y021294D01*
X032952Y022370D02*
X034960Y022370D01*
X030915Y022370D02*
X030072Y022370D01*
X030187Y022212D02*
X030915Y022212D01*
X030915Y022053D02*
X030187Y022053D01*
X030187Y021895D02*
X030915Y021895D01*
X030915Y021736D02*
X030832Y021736D01*
X030832Y021578D02*
X030915Y021578D01*
X030915Y021419D02*
X030832Y021419D01*
X030832Y021261D02*
X030915Y021261D01*
X030915Y021102D02*
X030766Y021102D01*
X030832Y020944D02*
X030915Y020944D01*
X030915Y020785D02*
X030832Y020785D01*
X030832Y020627D02*
X030878Y020627D01*
X028146Y022846D02*
X027971Y022846D01*
X025713Y017424D02*
X025870Y017227D01*
X028067Y015079D02*
X032647Y015079D01*
X032647Y014921D02*
X032478Y014921D01*
X032478Y014762D02*
X032544Y014762D01*
X032506Y014604D02*
X032478Y014604D01*
X032478Y014445D02*
X032506Y014445D01*
X032506Y014287D02*
X032443Y014287D01*
X032462Y013494D02*
X032506Y013494D01*
X031546Y014921D02*
X028226Y014921D01*
X032581Y029966D02*
X032525Y030022D01*
X032456Y030091D01*
X032451Y030096D01*
X032451Y030096D01*
X032395Y030120D01*
X032353Y030137D01*
X032250Y030137D01*
X032354Y030137D02*
X032775Y030137D01*
X032776Y030137D02*
X032679Y030096D01*
X032604Y030022D01*
X032581Y029966D01*
X032586Y029978D02*
X032569Y029978D01*
X032525Y030022D02*
X032525Y030022D01*
X032776Y030137D02*
X032882Y030137D01*
D42*
X021921Y024255D03*
X018795Y025089D03*
X010595Y025097D03*
X010697Y022692D03*
X004957Y021298D03*
X003036Y021589D03*
X002484Y024881D03*
X001583Y028523D03*
X001571Y031086D03*
X003303Y010818D03*
X003811Y008349D03*
X009000Y004664D03*
D43*
X005957Y011499D02*
X005953Y011503D01*
X005953Y012408D01*
X005784Y012578D01*
X003567Y012578D01*
X003547Y012597D01*
X003543Y012597D01*
X003382Y012759D01*
X003295Y012743D01*
X003543Y012274D02*
X003299Y012030D01*
X003543Y012274D02*
X005351Y012274D01*
X005457Y012168D01*
X005457Y011499D01*
X005106Y012853D02*
X004957Y013003D01*
X004957Y013546D01*
X004945Y013534D01*
X005106Y012853D02*
X006732Y012853D01*
X007543Y012042D01*
X008606Y012038D01*
X008811Y012231D01*
X008811Y014038D01*
X008693Y014152D01*
X008449Y014152D01*
X008449Y013999D01*
X008095Y013389D02*
X008095Y014609D01*
X007977Y014727D01*
X007358Y014727D01*
X008095Y013389D02*
X008122Y013361D01*
X008449Y013361D01*
X006122Y017365D02*
X006008Y017479D01*
X005902Y017479D01*
X004169Y017479D01*
X004067Y017479D01*
X003945Y017357D01*
X004169Y017479D02*
X004051Y017597D01*
X004051Y018582D01*
X003854Y018778D01*
X003540Y018778D01*
X003185Y019133D01*
X003185Y020475D01*
X003165Y020495D01*
X006020Y018621D02*
X006126Y018727D01*
X006362Y018727D01*
X006795Y019160D01*
X006795Y020495D01*
X008528Y021688D02*
X009040Y021688D01*
X009390Y021337D01*
X013508Y021337D01*
X013575Y021404D01*
X013575Y022617D01*
X014075Y022617D02*
X014075Y023255D01*
X014016Y023314D01*
X011866Y023314D01*
X011799Y023247D01*
X011803Y023841D02*
X011799Y023845D01*
X011803Y023841D02*
X013902Y023841D01*
X014075Y024015D01*
X014075Y024664D01*
X014575Y024664D02*
X014575Y025605D01*
X014299Y025881D01*
X014370Y026074D01*
X015067Y026074D01*
X015839Y026074D02*
X015839Y024928D01*
X015575Y024664D01*
X015677Y024664D01*
X016122Y024219D01*
X017236Y024219D01*
X017323Y024133D01*
X017323Y022723D01*
X017071Y022471D01*
X017071Y021369D02*
X017083Y021357D01*
X017776Y021357D01*
X017992Y021574D01*
X017992Y026271D01*
X016992Y027271D01*
X015240Y027271D01*
X015067Y027097D01*
X015067Y026782D01*
X015839Y026782D02*
X015839Y026460D01*
X015811Y026432D01*
X013752Y026432D01*
X013575Y026255D01*
X013575Y024664D01*
X015575Y022617D02*
X015500Y022542D01*
X015500Y019739D01*
X015406Y019645D01*
X013862Y019645D01*
X013721Y019503D01*
X013721Y019093D01*
X013721Y020196D02*
X013721Y020975D01*
X013768Y020983D01*
X013075Y020983D01*
X013768Y020983D02*
X014575Y020983D01*
X015040Y020479D02*
X014760Y020200D01*
X015040Y020479D02*
X015040Y021570D01*
X014917Y021692D01*
X014575Y021692D01*
X006020Y018621D02*
X006020Y017597D01*
X005902Y017479D01*
X020634Y006125D02*
X021382Y006125D01*
X022366Y005928D02*
X022563Y006125D01*
X022366Y005928D02*
X022366Y001715D01*
X022725Y001357D01*
X023126Y001357D01*
X028351Y009589D02*
X028823Y009589D01*
X032012Y012700D02*
X032016Y012704D01*
X032921Y012704D01*
X032012Y013881D02*
X032012Y014668D01*
X036382Y019471D02*
X036264Y019589D01*
X036264Y020574D01*
X036268Y020570D01*
X036268Y020008D01*
X036461Y020731D02*
X037642Y020731D01*
X036999Y020739D02*
X036468Y020739D01*
X036461Y020731D01*
X036500Y021479D02*
X036518Y021497D01*
X036518Y021990D01*
X033390Y022857D02*
X032602Y022857D01*
X031461Y025652D02*
X031461Y026479D01*
X028075Y022778D02*
X028075Y021834D01*
X028036Y021794D01*
X028063Y022372D02*
X028063Y022767D01*
X028075Y022778D01*
X022878Y011086D02*
X022091Y011086D01*
X037445Y008645D02*
X038232Y008645D01*
X038429Y008448D01*
X038429Y006912D01*
X038154Y006637D01*
X037445Y006637D01*
D44*
X031776Y010731D03*
X025709Y015211D03*
X030555Y016479D03*
X030477Y018369D03*
X027051Y019589D03*
X018457Y013991D03*
X011681Y013873D03*
X011012Y018475D03*
X008339Y018503D03*
X001890Y010837D03*
X008295Y008243D03*
X001831Y000956D03*
X032130Y001479D03*
X038587Y013330D03*
X037406Y017306D03*
X037366Y018684D03*
X038709Y030818D03*
X012886Y029696D03*
X010721Y027168D03*
D45*
X025788Y021440D02*
X025788Y019936D01*
X025823Y019904D01*
X026142Y021093D02*
X026169Y021121D01*
X026812Y021121D01*
X026812Y021381D02*
X026528Y021385D01*
X026311Y021601D01*
X025949Y021601D01*
X025788Y021440D01*
X028313Y020390D02*
X028313Y019225D01*
X028429Y019046D01*
X028547Y019227D01*
X028547Y019550D01*
X028794Y019797D01*
X028794Y020871D01*
X028875Y020790D01*
X029713Y020790D01*
X029721Y020782D01*
X030366Y020782D01*
X030366Y021491D02*
X029721Y021491D01*
X029713Y021499D01*
X029721Y021507D01*
X029721Y022003D01*
X029713Y021499D02*
X029595Y021381D01*
X028794Y021381D01*
X035017Y021509D02*
X035240Y021732D01*
X035240Y021912D01*
X035318Y021990D01*
X035498Y021990D01*
X035748Y021990D02*
X035748Y022743D01*
X035764Y022778D01*
X036008Y022357D02*
X036339Y022672D01*
X036339Y023062D01*
X036240Y023133D01*
X035410Y023133D01*
X035240Y022975D01*
X035240Y021912D01*
X036008Y021990D02*
X036008Y022357D01*
X035017Y020489D02*
X035498Y020008D01*
X035498Y019096D01*
X035516Y019078D01*
X036008Y019570D01*
X036008Y020008D01*
X037327Y015101D02*
X034650Y015101D01*
X033941Y015101D02*
X033784Y015101D01*
X033626Y014944D01*
X033626Y014459D01*
X033641Y014444D01*
X037201Y013764D02*
X037202Y013763D01*
X037602Y013763D01*
X037681Y013841D01*
X037681Y014747D01*
X037327Y015101D01*
X037201Y011994D02*
X037204Y011991D01*
X038114Y011991D01*
X036481Y010964D02*
X036481Y010593D01*
X036697Y010377D01*
X037406Y010377D01*
X037484Y010298D01*
X037484Y009589D01*
X036303Y009589D02*
X035831Y009589D01*
X036121Y009771D02*
X036303Y009589D01*
X036121Y009771D02*
X036121Y010964D01*
M02*
