G75*
%MOIN*%
%OFA0B0*%
%FSLAX24Y24*%
%IPPOS*%
%LPD*%
%AMOC8*
5,1,8,0,0,1.08239X$1,22.5*
%
%ADD10R,0.0800X0.0800*%
%ADD11C,0.0800*%
%ADD12C,0.0660*%
%ADD13R,0.0650X0.0650*%
%ADD14C,0.0520*%
%ADD15OC8,0.0520*%
%ADD16C,0.0650*%
%ADD17R,0.0709X0.0630*%
%ADD18C,0.0600*%
%ADD19R,0.0591X0.0591*%
%ADD20C,0.0160*%
%ADD21R,0.0396X0.0396*%
%ADD22R,0.0500X0.0500*%
D10*
X008937Y001995D03*
D11*
X006969Y001995D03*
X005000Y001995D03*
D12*
X027205Y003719D03*
X034099Y003719D03*
D13*
X037099Y003719D03*
X032721Y008515D03*
X030205Y003719D03*
X025634Y008515D03*
D14*
X023126Y001357D03*
D15*
X023126Y003357D03*
X020126Y003357D03*
X020126Y001357D03*
D16*
X025634Y007515D03*
X032721Y007515D03*
D17*
X030201Y002542D03*
X030201Y001440D03*
D18*
X008267Y026601D02*
X007667Y026601D01*
X005267Y027601D02*
X004667Y027601D01*
X003267Y026601D02*
X002667Y026601D01*
X002675Y029389D02*
X003275Y029389D01*
X004675Y030389D02*
X005275Y030389D01*
X007675Y029389D02*
X008275Y029389D01*
D19*
X013075Y008684D03*
X016854Y008684D03*
X016854Y003487D03*
X013075Y003487D03*
X031067Y006637D03*
X037445Y006637D03*
D20*
X001468Y000660D02*
X001468Y027661D01*
X002223Y026907D01*
X002217Y026901D01*
X002137Y026707D01*
X002137Y026496D01*
X002217Y026301D01*
X002335Y026183D01*
X002183Y026183D01*
X002069Y026136D01*
X001742Y025809D01*
X001655Y025722D01*
X001607Y025608D01*
X001607Y022646D01*
X001655Y022532D01*
X002607Y021579D01*
X002607Y021296D01*
X002742Y021161D01*
X003307Y021161D01*
X002226Y020081D01*
X002139Y019993D01*
X002092Y019879D01*
X002092Y011658D01*
X002139Y011544D01*
X002226Y011457D01*
X002226Y011457D01*
X002875Y010807D01*
X002875Y010524D01*
X003010Y010390D01*
X003597Y010390D01*
X003731Y010524D01*
X003731Y011111D01*
X003597Y011246D01*
X003314Y011246D01*
X002712Y011848D01*
X002712Y019689D01*
X003999Y020977D01*
X004046Y021091D01*
X004046Y022268D01*
X004719Y022941D01*
X010269Y022934D01*
X010269Y022398D01*
X010404Y022264D01*
X010990Y022264D01*
X011125Y022398D01*
X011125Y022985D01*
X011007Y023103D01*
X011007Y023115D01*
X011837Y023945D01*
X021510Y023945D01*
X021628Y023827D01*
X022215Y023827D01*
X022349Y023961D01*
X022349Y024548D01*
X022215Y024683D01*
X021628Y024683D01*
X021510Y024565D01*
X011647Y024565D01*
X011533Y024518D01*
X010569Y023553D01*
X004736Y023561D01*
X003241Y025056D01*
X003154Y025144D01*
X003040Y025191D01*
X002896Y025191D01*
X002778Y025309D01*
X002227Y025309D01*
X002227Y025418D01*
X002373Y025563D01*
X009750Y025563D01*
X010167Y025146D01*
X010167Y024804D01*
X010301Y024669D01*
X010888Y024669D01*
X010998Y024779D01*
X018384Y024779D01*
X018502Y024661D01*
X019089Y024661D01*
X019224Y024796D01*
X019224Y025383D01*
X019089Y025518D01*
X018502Y025518D01*
X018384Y025399D01*
X011014Y025399D01*
X010888Y025525D01*
X010664Y025525D01*
X010141Y026049D01*
X010054Y026136D01*
X009940Y026183D01*
X008598Y026183D01*
X008716Y026301D01*
X008797Y026496D01*
X008797Y026707D01*
X008716Y026901D01*
X008567Y027051D01*
X008372Y027131D01*
X007561Y027131D01*
X007366Y027051D01*
X007217Y026901D01*
X007137Y026707D01*
X007137Y026496D01*
X007217Y026301D01*
X007335Y026183D01*
X003598Y026183D01*
X003716Y026301D01*
X003797Y026496D01*
X003797Y026707D01*
X003716Y026901D01*
X003567Y027051D01*
X003372Y027131D01*
X002875Y027131D01*
X001894Y028112D01*
X002011Y028229D01*
X002011Y028816D01*
X001876Y028951D01*
X001468Y028951D01*
X001468Y030657D01*
X001864Y030657D01*
X001999Y030792D01*
X001999Y031196D01*
X039091Y031196D01*
X039091Y000660D01*
X030253Y000660D01*
X030377Y000783D01*
X030464Y000871D01*
X030474Y000895D01*
X030651Y000895D01*
X030785Y001030D01*
X030785Y001850D01*
X030651Y001985D01*
X029751Y001985D01*
X029617Y001850D01*
X029617Y001030D01*
X029644Y001002D01*
X023464Y001002D01*
X023509Y001047D01*
X029038Y001047D01*
X029152Y001094D01*
X029235Y001177D01*
X029322Y001264D01*
X029369Y001378D01*
X029369Y004028D01*
X029739Y004398D01*
X035982Y004398D01*
X036544Y003836D01*
X036544Y003299D01*
X036678Y003164D01*
X037519Y003164D01*
X037654Y003299D01*
X037654Y003836D01*
X037708Y003890D01*
X037755Y004004D01*
X037755Y006111D01*
X037836Y006111D01*
X037970Y006246D01*
X037970Y007027D01*
X037836Y007162D01*
X037054Y007162D01*
X036920Y007027D01*
X036920Y006246D01*
X037054Y006111D01*
X037135Y006111D01*
X037135Y004274D01*
X036982Y004274D01*
X036286Y004970D01*
X036172Y005018D01*
X029549Y005018D01*
X029435Y004970D01*
X029348Y004883D01*
X028796Y004332D01*
X028749Y004218D01*
X028749Y001667D01*
X023509Y001667D01*
X023404Y001773D01*
X023224Y001847D01*
X023029Y001847D01*
X022849Y001773D01*
X022711Y001635D01*
X022636Y001455D01*
X022636Y001260D01*
X022711Y001080D01*
X022789Y001002D01*
X020487Y001002D01*
X020475Y001013D01*
X020616Y001154D01*
X020616Y001560D01*
X020329Y001847D01*
X019923Y001847D01*
X019747Y001671D01*
X016077Y001671D01*
X015708Y002041D01*
X015708Y007138D01*
X016728Y008159D01*
X017245Y008159D01*
X017380Y008293D01*
X017380Y009074D01*
X017245Y009209D01*
X016464Y009209D01*
X016329Y009074D01*
X016329Y008636D01*
X015222Y007529D01*
X015135Y007442D01*
X015088Y007328D01*
X015088Y001851D01*
X015135Y001737D01*
X015686Y001186D01*
X015773Y001098D01*
X015887Y001051D01*
X019739Y001051D01*
X019816Y000974D01*
X019816Y000862D01*
X019863Y000748D01*
X019952Y000660D01*
X001468Y000660D01*
X001468Y000814D02*
X019836Y000814D01*
X019816Y000973D02*
X001468Y000973D01*
X001468Y001131D02*
X015741Y001131D01*
X015582Y001290D02*
X001468Y001290D01*
X001468Y001448D02*
X004674Y001448D01*
X004643Y001461D02*
X004875Y001365D01*
X005125Y001365D01*
X005357Y001461D01*
X005534Y001638D01*
X005630Y001870D01*
X005630Y002120D01*
X005534Y002352D01*
X005357Y002529D01*
X005125Y002625D01*
X004875Y002625D01*
X004643Y002529D01*
X004466Y002352D01*
X004370Y002120D01*
X004370Y001870D01*
X004466Y001638D01*
X004643Y001461D01*
X004498Y001607D02*
X001468Y001607D01*
X001468Y001765D02*
X004413Y001765D01*
X004370Y001924D02*
X001468Y001924D01*
X001468Y002082D02*
X004370Y002082D01*
X004420Y002241D02*
X001468Y002241D01*
X001468Y002399D02*
X004513Y002399D01*
X004712Y002558D02*
X001468Y002558D01*
X001468Y002716D02*
X006623Y002716D01*
X006623Y002558D02*
X005288Y002558D01*
X005487Y002399D02*
X006482Y002399D01*
X006435Y002352D02*
X006339Y002120D01*
X006339Y001870D01*
X006435Y001638D01*
X006612Y001461D01*
X006843Y001365D01*
X007094Y001365D01*
X007325Y001461D01*
X007503Y001638D01*
X007599Y001870D01*
X007599Y002120D01*
X007503Y002352D01*
X007325Y002529D01*
X007243Y002563D01*
X007243Y005642D01*
X009975Y008374D01*
X012550Y008374D01*
X012550Y008293D01*
X012684Y008159D01*
X013465Y008159D01*
X013600Y008293D01*
X013600Y009074D01*
X013465Y009209D01*
X012684Y009209D01*
X012550Y009074D01*
X012550Y008994D01*
X009785Y008994D01*
X009671Y008947D01*
X006670Y005946D01*
X006623Y005832D01*
X006623Y002534D01*
X006612Y002529D01*
X006435Y002352D01*
X006388Y002241D02*
X005580Y002241D01*
X005630Y002082D02*
X006339Y002082D01*
X006339Y001924D02*
X005630Y001924D01*
X005587Y001765D02*
X006382Y001765D01*
X006466Y001607D02*
X005503Y001607D01*
X005326Y001448D02*
X006643Y001448D01*
X006969Y001995D02*
X006933Y002030D01*
X006933Y005771D01*
X009847Y008684D01*
X013075Y008684D01*
X012550Y009056D02*
X004956Y009056D01*
X004798Y008898D02*
X009622Y008898D01*
X009463Y008739D02*
X004639Y008739D01*
X004481Y008581D02*
X009305Y008581D01*
X009146Y008422D02*
X004322Y008422D01*
X004239Y008339D02*
X005220Y009319D01*
X005267Y009433D01*
X005267Y020887D01*
X005385Y021005D01*
X005385Y021591D01*
X005250Y021726D01*
X004663Y021726D01*
X004529Y021591D01*
X004529Y021005D01*
X004647Y020887D01*
X004647Y009623D01*
X003801Y008777D01*
X003518Y008777D01*
X003383Y008643D01*
X003383Y008056D01*
X003518Y007921D01*
X004105Y007921D01*
X004239Y008056D01*
X004239Y008339D01*
X004239Y008264D02*
X008988Y008264D01*
X008829Y008105D02*
X004239Y008105D01*
X004130Y007947D02*
X008671Y007947D01*
X008512Y007788D02*
X001468Y007788D01*
X001468Y007630D02*
X008354Y007630D01*
X008195Y007471D02*
X001468Y007471D01*
X001468Y007313D02*
X008037Y007313D01*
X007878Y007154D02*
X001468Y007154D01*
X001468Y006996D02*
X007720Y006996D01*
X007561Y006837D02*
X001468Y006837D01*
X001468Y006679D02*
X007403Y006679D01*
X007244Y006520D02*
X001468Y006520D01*
X001468Y006362D02*
X007086Y006362D01*
X006927Y006203D02*
X001468Y006203D01*
X001468Y006045D02*
X006769Y006045D01*
X006645Y005886D02*
X001468Y005886D01*
X001468Y005728D02*
X006623Y005728D01*
X006623Y005569D02*
X001468Y005569D01*
X001468Y005411D02*
X006623Y005411D01*
X006623Y005252D02*
X001468Y005252D01*
X001468Y005094D02*
X006623Y005094D01*
X006623Y004935D02*
X001468Y004935D01*
X001468Y004777D02*
X006623Y004777D01*
X006623Y004618D02*
X001468Y004618D01*
X001468Y004460D02*
X006623Y004460D01*
X006623Y004301D02*
X001468Y004301D01*
X001468Y004143D02*
X006623Y004143D01*
X006623Y003984D02*
X001468Y003984D01*
X001468Y003826D02*
X006623Y003826D01*
X006623Y003667D02*
X001468Y003667D01*
X001468Y003509D02*
X006623Y003509D01*
X006623Y003350D02*
X001468Y003350D01*
X001468Y003192D02*
X006623Y003192D01*
X006623Y003033D02*
X001468Y003033D01*
X001468Y002875D02*
X006623Y002875D01*
X007243Y002875D02*
X008690Y002875D01*
X008690Y003033D02*
X007243Y003033D01*
X007243Y003192D02*
X008690Y003192D01*
X008690Y003350D02*
X007243Y003350D01*
X007243Y003509D02*
X008690Y003509D01*
X008690Y003667D02*
X007243Y003667D01*
X007243Y003826D02*
X008690Y003826D01*
X008690Y003984D02*
X007243Y003984D01*
X007243Y004143D02*
X008690Y004143D01*
X008690Y004253D02*
X008690Y002625D01*
X008442Y002625D01*
X008307Y002490D01*
X008307Y001500D01*
X008442Y001365D01*
X009432Y001365D01*
X009567Y001500D01*
X009567Y002187D01*
X010558Y003177D01*
X012550Y003177D01*
X012550Y003097D01*
X012684Y002962D01*
X013465Y002962D01*
X013600Y003097D01*
X013600Y003878D01*
X013465Y004012D01*
X012684Y004012D01*
X012550Y003878D01*
X012550Y003797D01*
X010368Y003797D01*
X010254Y003750D01*
X009310Y002806D01*
X009310Y004253D01*
X009428Y004371D01*
X009428Y004958D01*
X009294Y005092D01*
X008707Y005092D01*
X008572Y004958D01*
X008572Y004371D01*
X008690Y004253D01*
X008642Y004301D02*
X007243Y004301D01*
X007243Y004460D02*
X008572Y004460D01*
X008572Y004618D02*
X007243Y004618D01*
X007243Y004777D02*
X008572Y004777D01*
X008572Y004935D02*
X007243Y004935D01*
X007243Y005094D02*
X015088Y005094D01*
X015088Y005252D02*
X007243Y005252D01*
X007243Y005411D02*
X015088Y005411D01*
X015088Y005569D02*
X007243Y005569D01*
X007329Y005728D02*
X015088Y005728D01*
X015088Y005886D02*
X007487Y005886D01*
X007646Y006045D02*
X015088Y006045D01*
X015088Y006203D02*
X007804Y006203D01*
X007963Y006362D02*
X015088Y006362D01*
X015088Y006520D02*
X008121Y006520D01*
X008280Y006679D02*
X015088Y006679D01*
X015088Y006837D02*
X008438Y006837D01*
X008597Y006996D02*
X015088Y006996D01*
X015088Y007154D02*
X008755Y007154D01*
X008914Y007313D02*
X015088Y007313D01*
X015164Y007471D02*
X009072Y007471D01*
X009231Y007630D02*
X015322Y007630D01*
X015481Y007788D02*
X009389Y007788D01*
X009548Y007947D02*
X015639Y007947D01*
X015798Y008105D02*
X009706Y008105D01*
X009865Y008264D02*
X012580Y008264D01*
X013570Y008264D02*
X015956Y008264D01*
X016115Y008422D02*
X013600Y008422D01*
X013600Y008581D02*
X016273Y008581D01*
X016329Y008739D02*
X013600Y008739D01*
X013600Y008898D02*
X016329Y008898D01*
X016329Y009056D02*
X013600Y009056D01*
X015398Y007267D02*
X015398Y001912D01*
X015949Y001361D01*
X020122Y001361D01*
X020126Y001357D01*
X020126Y000924D01*
X020358Y000692D01*
X029847Y000692D01*
X030201Y001046D01*
X030201Y001440D01*
X029617Y001448D02*
X029369Y001448D01*
X029369Y001607D02*
X029617Y001607D01*
X029617Y001765D02*
X029369Y001765D01*
X029369Y001924D02*
X029690Y001924D01*
X029369Y002082D02*
X039091Y002082D01*
X039091Y001924D02*
X030712Y001924D01*
X030785Y001765D02*
X039091Y001765D01*
X039091Y001607D02*
X030785Y001607D01*
X030785Y001448D02*
X039091Y001448D01*
X039091Y001290D02*
X030785Y001290D01*
X030785Y001131D02*
X039091Y001131D01*
X039091Y000973D02*
X030728Y000973D01*
X030407Y000814D02*
X039091Y000814D01*
X039091Y002241D02*
X029369Y002241D01*
X029369Y002399D02*
X039091Y002399D01*
X039091Y002558D02*
X029369Y002558D01*
X029369Y002716D02*
X039091Y002716D01*
X039091Y002875D02*
X029369Y002875D01*
X029369Y003033D02*
X039091Y003033D01*
X039091Y003192D02*
X037546Y003192D01*
X037654Y003350D02*
X039091Y003350D01*
X039091Y003509D02*
X037654Y003509D01*
X037654Y003667D02*
X039091Y003667D01*
X039091Y003826D02*
X037654Y003826D01*
X037747Y003984D02*
X039091Y003984D01*
X039091Y004143D02*
X037755Y004143D01*
X037755Y004301D02*
X039091Y004301D01*
X039091Y004460D02*
X037755Y004460D01*
X037755Y004618D02*
X039091Y004618D01*
X039091Y004777D02*
X037755Y004777D01*
X037755Y004935D02*
X039091Y004935D01*
X039091Y005094D02*
X037755Y005094D01*
X037755Y005252D02*
X039091Y005252D01*
X039091Y005411D02*
X037755Y005411D01*
X037755Y005569D02*
X039091Y005569D01*
X039091Y005728D02*
X037755Y005728D01*
X037755Y005886D02*
X039091Y005886D01*
X039091Y006045D02*
X037755Y006045D01*
X037927Y006203D02*
X039091Y006203D01*
X039091Y006362D02*
X037970Y006362D01*
X037970Y006520D02*
X039091Y006520D01*
X039091Y006679D02*
X037970Y006679D01*
X037970Y006837D02*
X039091Y006837D01*
X039091Y006996D02*
X037970Y006996D01*
X037844Y007154D02*
X039091Y007154D01*
X039091Y007313D02*
X015882Y007313D01*
X016041Y007471D02*
X039091Y007471D01*
X039091Y007630D02*
X016199Y007630D01*
X016358Y007788D02*
X039091Y007788D01*
X039091Y007947D02*
X016516Y007947D01*
X016675Y008105D02*
X025079Y008105D01*
X025079Y008094D02*
X025214Y007960D01*
X026054Y007960D01*
X026189Y008094D01*
X026189Y008935D01*
X026054Y009070D01*
X025214Y009070D01*
X025079Y008935D01*
X025079Y008094D01*
X025079Y008264D02*
X017350Y008264D01*
X017380Y008422D02*
X025079Y008422D01*
X025079Y008581D02*
X017380Y008581D01*
X017380Y008739D02*
X025079Y008739D01*
X025079Y008898D02*
X017380Y008898D01*
X017380Y009056D02*
X025200Y009056D01*
X026068Y009056D02*
X032287Y009056D01*
X032300Y009070D02*
X032166Y008935D01*
X032166Y008094D01*
X032300Y007960D01*
X033141Y007960D01*
X033276Y008094D01*
X033276Y008935D01*
X033141Y009070D01*
X032300Y009070D01*
X032166Y008898D02*
X026189Y008898D01*
X026189Y008739D02*
X032166Y008739D01*
X032166Y008581D02*
X026189Y008581D01*
X026189Y008422D02*
X032166Y008422D01*
X032166Y008264D02*
X026189Y008264D01*
X026189Y008105D02*
X032166Y008105D01*
X033276Y008105D02*
X039091Y008105D01*
X039091Y008264D02*
X033276Y008264D01*
X033276Y008422D02*
X039091Y008422D01*
X039091Y008581D02*
X033276Y008581D01*
X033276Y008739D02*
X039091Y008739D01*
X039091Y008898D02*
X033276Y008898D01*
X033155Y009056D02*
X039091Y009056D01*
X039091Y009215D02*
X005115Y009215D01*
X005242Y009373D02*
X039091Y009373D01*
X039091Y009532D02*
X005267Y009532D01*
X005267Y009690D02*
X039091Y009690D01*
X039091Y009849D02*
X005267Y009849D01*
X005267Y010007D02*
X039091Y010007D01*
X039091Y010166D02*
X005267Y010166D01*
X005267Y010324D02*
X039091Y010324D01*
X039091Y010483D02*
X005267Y010483D01*
X005267Y010641D02*
X039091Y010641D01*
X039091Y010800D02*
X005267Y010800D01*
X005267Y010958D02*
X039091Y010958D01*
X039091Y011117D02*
X005267Y011117D01*
X005267Y011275D02*
X039091Y011275D01*
X039091Y011434D02*
X005267Y011434D01*
X005267Y011592D02*
X039091Y011592D01*
X039091Y011751D02*
X005267Y011751D01*
X005267Y011909D02*
X039091Y011909D01*
X039091Y012068D02*
X005267Y012068D01*
X005267Y012226D02*
X039091Y012226D01*
X039091Y012385D02*
X005267Y012385D01*
X005267Y012543D02*
X039091Y012543D01*
X039091Y012702D02*
X005267Y012702D01*
X005267Y012860D02*
X039091Y012860D01*
X039091Y013019D02*
X005267Y013019D01*
X005267Y013177D02*
X039091Y013177D01*
X039091Y013336D02*
X005267Y013336D01*
X005267Y013494D02*
X039091Y013494D01*
X039091Y013653D02*
X005267Y013653D01*
X005267Y013811D02*
X039091Y013811D01*
X039091Y013970D02*
X005267Y013970D01*
X005267Y014128D02*
X039091Y014128D01*
X039091Y014287D02*
X005267Y014287D01*
X005267Y014445D02*
X039091Y014445D01*
X039091Y014604D02*
X005267Y014604D01*
X005267Y014762D02*
X039091Y014762D01*
X039091Y014921D02*
X005267Y014921D01*
X005267Y015079D02*
X039091Y015079D01*
X039091Y015238D02*
X005267Y015238D01*
X005267Y015396D02*
X039091Y015396D01*
X039091Y015555D02*
X005267Y015555D01*
X005267Y015713D02*
X039091Y015713D01*
X039091Y015872D02*
X005267Y015872D01*
X005267Y016030D02*
X039091Y016030D01*
X039091Y016189D02*
X005267Y016189D01*
X005267Y016347D02*
X039091Y016347D01*
X039091Y016506D02*
X005267Y016506D01*
X005267Y016664D02*
X039091Y016664D01*
X039091Y016823D02*
X005267Y016823D01*
X005267Y016981D02*
X039091Y016981D01*
X039091Y017140D02*
X005267Y017140D01*
X005267Y017298D02*
X039091Y017298D01*
X039091Y017457D02*
X005267Y017457D01*
X005267Y017615D02*
X039091Y017615D01*
X039091Y017774D02*
X005267Y017774D01*
X005267Y017932D02*
X039091Y017932D01*
X039091Y018091D02*
X005267Y018091D01*
X005267Y018249D02*
X039091Y018249D01*
X039091Y018408D02*
X005267Y018408D01*
X005267Y018566D02*
X039091Y018566D01*
X039091Y018725D02*
X005267Y018725D01*
X005267Y018883D02*
X039091Y018883D01*
X039091Y019042D02*
X005267Y019042D01*
X005267Y019200D02*
X039091Y019200D01*
X039091Y019359D02*
X005267Y019359D01*
X005267Y019517D02*
X039091Y019517D01*
X039091Y019676D02*
X005267Y019676D01*
X005267Y019834D02*
X039091Y019834D01*
X039091Y019993D02*
X005267Y019993D01*
X005267Y020151D02*
X039091Y020151D01*
X039091Y020310D02*
X005267Y020310D01*
X005267Y020468D02*
X039091Y020468D01*
X039091Y020627D02*
X005267Y020627D01*
X005267Y020785D02*
X039091Y020785D01*
X039091Y020944D02*
X005324Y020944D01*
X005385Y021102D02*
X039091Y021102D01*
X039091Y021261D02*
X005385Y021261D01*
X005385Y021419D02*
X039091Y021419D01*
X039091Y021578D02*
X005385Y021578D01*
X004957Y021298D02*
X004957Y009495D01*
X003811Y008349D01*
X003383Y008422D02*
X001468Y008422D01*
X001468Y008264D02*
X003383Y008264D01*
X003383Y008105D02*
X001468Y008105D01*
X001468Y007947D02*
X003492Y007947D01*
X003383Y008581D02*
X001468Y008581D01*
X001468Y008739D02*
X003479Y008739D01*
X003921Y008898D02*
X001468Y008898D01*
X001468Y009056D02*
X004079Y009056D01*
X004238Y009215D02*
X001468Y009215D01*
X001468Y009373D02*
X004396Y009373D01*
X004555Y009532D02*
X001468Y009532D01*
X001468Y009690D02*
X004647Y009690D01*
X004647Y009849D02*
X001468Y009849D01*
X001468Y010007D02*
X004647Y010007D01*
X004647Y010166D02*
X001468Y010166D01*
X001468Y010324D02*
X004647Y010324D01*
X004647Y010483D02*
X003689Y010483D01*
X003731Y010641D02*
X004647Y010641D01*
X004647Y010800D02*
X003731Y010800D01*
X003731Y010958D02*
X004647Y010958D01*
X004647Y011117D02*
X003726Y011117D01*
X003284Y011275D02*
X004647Y011275D01*
X004647Y011434D02*
X003126Y011434D01*
X002967Y011592D02*
X004647Y011592D01*
X004647Y011751D02*
X002809Y011751D01*
X002712Y011909D02*
X004647Y011909D01*
X004647Y012068D02*
X002712Y012068D01*
X002712Y012226D02*
X004647Y012226D01*
X004647Y012385D02*
X002712Y012385D01*
X002712Y012543D02*
X004647Y012543D01*
X004647Y012702D02*
X002712Y012702D01*
X002712Y012860D02*
X004647Y012860D01*
X004647Y013019D02*
X002712Y013019D01*
X002712Y013177D02*
X004647Y013177D01*
X004647Y013336D02*
X002712Y013336D01*
X002712Y013494D02*
X004647Y013494D01*
X004647Y013653D02*
X002712Y013653D01*
X002712Y013811D02*
X004647Y013811D01*
X004647Y013970D02*
X002712Y013970D01*
X002712Y014128D02*
X004647Y014128D01*
X004647Y014287D02*
X002712Y014287D01*
X002712Y014445D02*
X004647Y014445D01*
X004647Y014604D02*
X002712Y014604D01*
X002712Y014762D02*
X004647Y014762D01*
X004647Y014921D02*
X002712Y014921D01*
X002712Y015079D02*
X004647Y015079D01*
X004647Y015238D02*
X002712Y015238D01*
X002712Y015396D02*
X004647Y015396D01*
X004647Y015555D02*
X002712Y015555D01*
X002712Y015713D02*
X004647Y015713D01*
X004647Y015872D02*
X002712Y015872D01*
X002712Y016030D02*
X004647Y016030D01*
X004647Y016189D02*
X002712Y016189D01*
X002712Y016347D02*
X004647Y016347D01*
X004647Y016506D02*
X002712Y016506D01*
X002712Y016664D02*
X004647Y016664D01*
X004647Y016823D02*
X002712Y016823D01*
X002712Y016981D02*
X004647Y016981D01*
X004647Y017140D02*
X002712Y017140D01*
X002712Y017298D02*
X004647Y017298D01*
X004647Y017457D02*
X002712Y017457D01*
X002712Y017615D02*
X004647Y017615D01*
X004647Y017774D02*
X002712Y017774D01*
X002712Y017932D02*
X004647Y017932D01*
X004647Y018091D02*
X002712Y018091D01*
X002712Y018249D02*
X004647Y018249D01*
X004647Y018408D02*
X002712Y018408D01*
X002712Y018566D02*
X004647Y018566D01*
X004647Y018725D02*
X002712Y018725D01*
X002712Y018883D02*
X004647Y018883D01*
X004647Y019042D02*
X002712Y019042D01*
X002712Y019200D02*
X004647Y019200D01*
X004647Y019359D02*
X002712Y019359D01*
X002712Y019517D02*
X004647Y019517D01*
X004647Y019676D02*
X002712Y019676D01*
X002856Y019834D02*
X004647Y019834D01*
X004647Y019993D02*
X003015Y019993D01*
X003173Y020151D02*
X004647Y020151D01*
X004647Y020310D02*
X003332Y020310D01*
X003490Y020468D02*
X004647Y020468D01*
X004647Y020627D02*
X003649Y020627D01*
X003807Y020785D02*
X004647Y020785D01*
X004590Y020944D02*
X003966Y020944D01*
X004046Y021102D02*
X004529Y021102D01*
X004529Y021261D02*
X004046Y021261D01*
X004046Y021419D02*
X004529Y021419D01*
X004529Y021578D02*
X004046Y021578D01*
X004046Y021736D02*
X039091Y021736D01*
X039091Y021895D02*
X004046Y021895D01*
X004046Y022053D02*
X039091Y022053D01*
X039091Y022212D02*
X004046Y022212D01*
X004148Y022370D02*
X010297Y022370D01*
X010269Y022529D02*
X004307Y022529D01*
X004465Y022687D02*
X010269Y022687D01*
X010269Y022846D02*
X004624Y022846D01*
X004608Y023251D02*
X002978Y024881D01*
X002484Y024881D01*
X002864Y025223D02*
X010090Y025223D01*
X010167Y025065D02*
X003233Y025065D01*
X003391Y024906D02*
X010167Y024906D01*
X010223Y024748D02*
X003550Y024748D01*
X003708Y024589D02*
X021534Y024589D01*
X021921Y024255D02*
X011709Y024255D01*
X010697Y023243D01*
X010669Y023243D01*
X010697Y023215D01*
X010697Y022692D01*
X011125Y022687D02*
X039091Y022687D01*
X039091Y022529D02*
X011125Y022529D01*
X011097Y022370D02*
X039091Y022370D01*
X039091Y022846D02*
X011125Y022846D01*
X011106Y023004D02*
X039091Y023004D01*
X039091Y023163D02*
X011055Y023163D01*
X011213Y023321D02*
X039091Y023321D01*
X039091Y023480D02*
X011372Y023480D01*
X011530Y023638D02*
X039091Y023638D01*
X039091Y023797D02*
X011689Y023797D01*
X011288Y024272D02*
X004025Y024272D01*
X003867Y024431D02*
X011446Y024431D01*
X011129Y024114D02*
X004184Y024114D01*
X004342Y023955D02*
X010971Y023955D01*
X010812Y023797D02*
X004501Y023797D01*
X004659Y023638D02*
X010654Y023638D01*
X010669Y023243D02*
X004608Y023251D01*
X004591Y023251D01*
X003736Y022397D01*
X003736Y021152D01*
X002402Y019818D01*
X002402Y011719D01*
X003303Y010818D01*
X002875Y010800D02*
X001468Y010800D01*
X001468Y010958D02*
X002725Y010958D01*
X002566Y011117D02*
X001468Y011117D01*
X001468Y011275D02*
X002408Y011275D01*
X002249Y011434D02*
X001468Y011434D01*
X001468Y011592D02*
X002119Y011592D01*
X002092Y011751D02*
X001468Y011751D01*
X001468Y011909D02*
X002092Y011909D01*
X002092Y012068D02*
X001468Y012068D01*
X001468Y012226D02*
X002092Y012226D01*
X002092Y012385D02*
X001468Y012385D01*
X001468Y012543D02*
X002092Y012543D01*
X002092Y012702D02*
X001468Y012702D01*
X001468Y012860D02*
X002092Y012860D01*
X002092Y013019D02*
X001468Y013019D01*
X001468Y013177D02*
X002092Y013177D01*
X002092Y013336D02*
X001468Y013336D01*
X001468Y013494D02*
X002092Y013494D01*
X002092Y013653D02*
X001468Y013653D01*
X001468Y013811D02*
X002092Y013811D01*
X002092Y013970D02*
X001468Y013970D01*
X001468Y014128D02*
X002092Y014128D01*
X002092Y014287D02*
X001468Y014287D01*
X001468Y014445D02*
X002092Y014445D01*
X002092Y014604D02*
X001468Y014604D01*
X001468Y014762D02*
X002092Y014762D01*
X002092Y014921D02*
X001468Y014921D01*
X001468Y015079D02*
X002092Y015079D01*
X002092Y015238D02*
X001468Y015238D01*
X001468Y015396D02*
X002092Y015396D01*
X002092Y015555D02*
X001468Y015555D01*
X001468Y015713D02*
X002092Y015713D01*
X002092Y015872D02*
X001468Y015872D01*
X001468Y016030D02*
X002092Y016030D01*
X002092Y016189D02*
X001468Y016189D01*
X001468Y016347D02*
X002092Y016347D01*
X002092Y016506D02*
X001468Y016506D01*
X001468Y016664D02*
X002092Y016664D01*
X002092Y016823D02*
X001468Y016823D01*
X001468Y016981D02*
X002092Y016981D01*
X002092Y017140D02*
X001468Y017140D01*
X001468Y017298D02*
X002092Y017298D01*
X002092Y017457D02*
X001468Y017457D01*
X001468Y017615D02*
X002092Y017615D01*
X002092Y017774D02*
X001468Y017774D01*
X001468Y017932D02*
X002092Y017932D01*
X002092Y018091D02*
X001468Y018091D01*
X001468Y018249D02*
X002092Y018249D01*
X002092Y018408D02*
X001468Y018408D01*
X001468Y018566D02*
X002092Y018566D01*
X002092Y018725D02*
X001468Y018725D01*
X001468Y018883D02*
X002092Y018883D01*
X002092Y019042D02*
X001468Y019042D01*
X001468Y019200D02*
X002092Y019200D01*
X002092Y019359D02*
X001468Y019359D01*
X001468Y019517D02*
X002092Y019517D01*
X002092Y019676D02*
X001468Y019676D01*
X001468Y019834D02*
X002092Y019834D01*
X002139Y019993D02*
X001468Y019993D01*
X001468Y020151D02*
X002297Y020151D01*
X002455Y020310D02*
X001468Y020310D01*
X001468Y020468D02*
X002614Y020468D01*
X002772Y020627D02*
X001468Y020627D01*
X001468Y020785D02*
X002931Y020785D01*
X003089Y020944D02*
X001468Y020944D01*
X001468Y021102D02*
X003248Y021102D01*
X003036Y021589D02*
X001917Y022708D01*
X001917Y025546D01*
X002244Y025873D01*
X009878Y025873D01*
X010595Y025156D01*
X010595Y025097D01*
X010602Y025089D01*
X018795Y025089D01*
X019224Y025065D02*
X039091Y025065D01*
X039091Y025223D02*
X019224Y025223D01*
X019224Y025382D02*
X039091Y025382D01*
X039091Y025540D02*
X010649Y025540D01*
X010491Y025699D02*
X039091Y025699D01*
X039091Y025857D02*
X010332Y025857D01*
X010174Y026016D02*
X039091Y026016D01*
X039091Y026174D02*
X009961Y026174D01*
X009773Y025540D02*
X002350Y025540D01*
X002227Y025382D02*
X009931Y025382D01*
X010966Y024748D02*
X018416Y024748D01*
X019175Y024748D02*
X039091Y024748D01*
X039091Y024906D02*
X019224Y024906D01*
X022309Y024589D02*
X039091Y024589D01*
X039091Y024431D02*
X022349Y024431D01*
X022349Y024272D02*
X039091Y024272D01*
X039091Y024114D02*
X022349Y024114D01*
X022343Y023955D02*
X039091Y023955D01*
X039091Y026333D02*
X008729Y026333D01*
X008795Y026491D02*
X039091Y026491D01*
X039091Y026650D02*
X008797Y026650D01*
X008755Y026808D02*
X039091Y026808D01*
X039091Y026967D02*
X008651Y026967D01*
X008387Y027125D02*
X039091Y027125D01*
X039091Y027284D02*
X005698Y027284D01*
X005716Y027301D02*
X005797Y027496D01*
X005797Y027707D01*
X005716Y027901D01*
X005567Y028051D01*
X005372Y028131D01*
X004561Y028131D01*
X004366Y028051D01*
X004217Y027901D01*
X004137Y027707D01*
X004137Y027496D01*
X004217Y027301D01*
X004366Y027152D01*
X004561Y027071D01*
X005372Y027071D01*
X005567Y027152D01*
X005716Y027301D01*
X005774Y027442D02*
X039091Y027442D01*
X039091Y027601D02*
X005797Y027601D01*
X005775Y027759D02*
X039091Y027759D01*
X039091Y027918D02*
X005700Y027918D01*
X005505Y028076D02*
X039091Y028076D01*
X039091Y028235D02*
X002011Y028235D01*
X002011Y028393D02*
X039091Y028393D01*
X039091Y028552D02*
X002011Y028552D01*
X002011Y028710D02*
X039091Y028710D01*
X039091Y028869D02*
X008404Y028869D01*
X008380Y028859D02*
X008575Y028939D01*
X008724Y029088D01*
X008805Y029283D01*
X008805Y029494D01*
X008724Y029689D01*
X008575Y029838D01*
X008380Y029919D01*
X007569Y029919D01*
X007374Y029838D01*
X007225Y029689D01*
X007145Y029494D01*
X007145Y029283D01*
X007225Y029088D01*
X007374Y028939D01*
X007569Y028859D01*
X008380Y028859D01*
X008662Y029027D02*
X039091Y029027D01*
X039091Y029186D02*
X008764Y029186D01*
X008805Y029344D02*
X039091Y029344D01*
X039091Y029503D02*
X008801Y029503D01*
X008735Y029661D02*
X039091Y029661D01*
X039091Y029820D02*
X008593Y029820D01*
X007356Y029820D02*
X003593Y029820D01*
X003575Y029838D02*
X003724Y029689D01*
X003805Y029494D01*
X003805Y029283D01*
X003724Y029088D01*
X003575Y028939D01*
X003380Y028859D01*
X002569Y028859D01*
X002374Y028939D01*
X002225Y029088D01*
X002145Y029283D01*
X002145Y029494D01*
X002225Y029689D01*
X002374Y029838D01*
X002569Y029919D01*
X003380Y029919D01*
X003575Y029838D01*
X003735Y029661D02*
X007214Y029661D01*
X007148Y029503D02*
X003801Y029503D01*
X003805Y029344D02*
X007145Y029344D01*
X007185Y029186D02*
X003764Y029186D01*
X003662Y029027D02*
X007287Y029027D01*
X007545Y028869D02*
X003404Y028869D01*
X002545Y028869D02*
X001958Y028869D01*
X002287Y029027D02*
X001468Y029027D01*
X001468Y029186D02*
X002185Y029186D01*
X002145Y029344D02*
X001468Y029344D01*
X001468Y029503D02*
X002148Y029503D01*
X002214Y029661D02*
X001468Y029661D01*
X001468Y029820D02*
X002356Y029820D01*
X001468Y029978D02*
X004336Y029978D01*
X004374Y029939D02*
X004225Y030088D01*
X004145Y030283D01*
X004145Y030494D01*
X004225Y030689D01*
X004374Y030838D01*
X004569Y030919D01*
X005380Y030919D01*
X005575Y030838D01*
X005724Y030689D01*
X005805Y030494D01*
X005805Y030283D01*
X005724Y030088D01*
X005575Y029939D01*
X005380Y029859D01*
X004569Y029859D01*
X004374Y029939D01*
X004205Y030137D02*
X001468Y030137D01*
X001468Y030295D02*
X004145Y030295D01*
X004145Y030454D02*
X001468Y030454D01*
X001468Y030612D02*
X004193Y030612D01*
X004307Y030771D02*
X001978Y030771D01*
X001999Y030929D02*
X039091Y030929D01*
X039091Y030771D02*
X005642Y030771D01*
X005756Y030612D02*
X039091Y030612D01*
X039091Y030454D02*
X005805Y030454D01*
X005805Y030295D02*
X039091Y030295D01*
X039091Y030137D02*
X005744Y030137D01*
X005613Y029978D02*
X039091Y029978D01*
X039091Y031088D02*
X001999Y031088D01*
X001583Y028523D02*
X001583Y027985D01*
X002967Y026601D01*
X003387Y027125D02*
X004431Y027125D01*
X004235Y027284D02*
X002723Y027284D01*
X002564Y027442D02*
X004159Y027442D01*
X004137Y027601D02*
X002406Y027601D01*
X002247Y027759D02*
X004158Y027759D01*
X004233Y027918D02*
X002089Y027918D01*
X001930Y028076D02*
X004428Y028076D01*
X005502Y027125D02*
X007546Y027125D01*
X007282Y026967D02*
X003651Y026967D01*
X003755Y026808D02*
X007179Y026808D01*
X007137Y026650D02*
X003797Y026650D01*
X003795Y026491D02*
X007139Y026491D01*
X007204Y026333D02*
X003729Y026333D01*
X002204Y026333D02*
X001468Y026333D01*
X001468Y026491D02*
X002139Y026491D01*
X002137Y026650D02*
X001468Y026650D01*
X001468Y026808D02*
X002179Y026808D01*
X002163Y026967D02*
X001468Y026967D01*
X001468Y027125D02*
X002004Y027125D01*
X001846Y027284D02*
X001468Y027284D01*
X001468Y027442D02*
X001687Y027442D01*
X001529Y027601D02*
X001468Y027601D01*
X001468Y026174D02*
X002161Y026174D01*
X001948Y026016D02*
X001468Y026016D01*
X001468Y025857D02*
X001790Y025857D01*
X001645Y025699D02*
X001468Y025699D01*
X001468Y025540D02*
X001607Y025540D01*
X001607Y025382D02*
X001468Y025382D01*
X001468Y025223D02*
X001607Y025223D01*
X001607Y025065D02*
X001468Y025065D01*
X001468Y024906D02*
X001607Y024906D01*
X001607Y024748D02*
X001468Y024748D01*
X001468Y024589D02*
X001607Y024589D01*
X001607Y024431D02*
X001468Y024431D01*
X001468Y024272D02*
X001607Y024272D01*
X001607Y024114D02*
X001468Y024114D01*
X001468Y023955D02*
X001607Y023955D01*
X001607Y023797D02*
X001468Y023797D01*
X001468Y023638D02*
X001607Y023638D01*
X001607Y023480D02*
X001468Y023480D01*
X001468Y023321D02*
X001607Y023321D01*
X001607Y023163D02*
X001468Y023163D01*
X001468Y023004D02*
X001607Y023004D01*
X001607Y022846D02*
X001468Y022846D01*
X001468Y022687D02*
X001607Y022687D01*
X001658Y022529D02*
X001468Y022529D01*
X001468Y022370D02*
X001817Y022370D01*
X001975Y022212D02*
X001468Y022212D01*
X001468Y022053D02*
X002134Y022053D01*
X002292Y021895D02*
X001468Y021895D01*
X001468Y021736D02*
X002451Y021736D01*
X002607Y021578D02*
X001468Y021578D01*
X001468Y021419D02*
X002607Y021419D01*
X002643Y021261D02*
X001468Y021261D01*
X001468Y010641D02*
X002875Y010641D01*
X002917Y010483D02*
X001468Y010483D01*
X009000Y004664D02*
X009000Y002058D01*
X008937Y001995D01*
X010429Y003487D01*
X013075Y003487D01*
X012613Y003033D02*
X010414Y003033D01*
X010255Y002875D02*
X015088Y002875D01*
X015088Y003033D02*
X013537Y003033D01*
X013600Y003192D02*
X015088Y003192D01*
X015088Y003350D02*
X013600Y003350D01*
X013600Y003509D02*
X015088Y003509D01*
X015088Y003667D02*
X013600Y003667D01*
X013600Y003826D02*
X015088Y003826D01*
X015088Y003984D02*
X013494Y003984D01*
X012656Y003984D02*
X009310Y003984D01*
X009310Y003826D02*
X012550Y003826D01*
X010171Y003667D02*
X009310Y003667D01*
X009310Y003509D02*
X010012Y003509D01*
X009854Y003350D02*
X009310Y003350D01*
X009310Y003192D02*
X009695Y003192D01*
X009537Y003033D02*
X009310Y003033D01*
X009310Y002875D02*
X009378Y002875D01*
X009780Y002399D02*
X015088Y002399D01*
X015088Y002241D02*
X009621Y002241D01*
X009567Y002082D02*
X015088Y002082D01*
X015088Y001924D02*
X009567Y001924D01*
X009567Y001765D02*
X015123Y001765D01*
X015265Y001607D02*
X009567Y001607D01*
X009515Y001448D02*
X015424Y001448D01*
X015825Y001924D02*
X028749Y001924D01*
X028749Y002082D02*
X015708Y002082D01*
X015708Y002241D02*
X028749Y002241D01*
X028749Y002399D02*
X015708Y002399D01*
X015708Y002558D02*
X028749Y002558D01*
X028749Y002716D02*
X015708Y002716D01*
X015708Y002875D02*
X019916Y002875D01*
X019923Y002867D02*
X020329Y002867D01*
X020616Y003154D01*
X020616Y003560D01*
X020329Y003847D01*
X019923Y003847D01*
X019873Y003797D01*
X017380Y003797D01*
X017380Y003878D01*
X017245Y004012D01*
X016464Y004012D01*
X016329Y003878D01*
X016329Y003097D01*
X016464Y002962D01*
X017245Y002962D01*
X017380Y003097D01*
X017380Y003177D01*
X019636Y003177D01*
X019636Y003154D01*
X019923Y002867D01*
X019757Y003033D02*
X017316Y003033D01*
X016854Y003487D02*
X019996Y003487D01*
X020126Y003357D01*
X020616Y003350D02*
X022636Y003350D01*
X022636Y003192D02*
X020616Y003192D01*
X020495Y003033D02*
X022757Y003033D01*
X022636Y003154D02*
X022923Y002867D01*
X023329Y002867D01*
X023509Y003047D01*
X026904Y003047D01*
X027018Y003094D01*
X027086Y003162D01*
X027093Y003159D01*
X027316Y003159D01*
X027522Y003245D01*
X027680Y003402D01*
X027765Y003608D01*
X027765Y003831D01*
X027680Y004037D01*
X027522Y004194D01*
X027515Y004197D01*
X027515Y005245D01*
X028203Y005933D01*
X030735Y005933D01*
X030849Y005980D01*
X030980Y006111D01*
X031458Y006111D01*
X031592Y006246D01*
X031592Y007027D01*
X031458Y007162D01*
X030677Y007162D01*
X030542Y007027D01*
X030542Y006553D01*
X028013Y006553D01*
X027899Y006506D01*
X027812Y006419D01*
X026942Y005549D01*
X026895Y005435D01*
X026895Y004197D01*
X026888Y004194D01*
X026730Y004037D01*
X026645Y003831D01*
X026645Y003667D01*
X023509Y003667D01*
X023329Y003847D01*
X022923Y003847D01*
X022636Y003560D01*
X022636Y003154D01*
X022916Y002875D02*
X020336Y002875D01*
X020616Y003509D02*
X022636Y003509D01*
X022743Y003667D02*
X020509Y003667D01*
X020351Y003826D02*
X022901Y003826D01*
X023351Y003826D02*
X026645Y003826D01*
X026708Y003984D02*
X017273Y003984D01*
X017380Y003826D02*
X019901Y003826D01*
X019841Y001765D02*
X015983Y001765D01*
X015088Y002558D02*
X009938Y002558D01*
X010097Y002716D02*
X015088Y002716D01*
X015708Y003033D02*
X016393Y003033D01*
X016329Y003192D02*
X015708Y003192D01*
X015708Y003350D02*
X016329Y003350D01*
X016329Y003509D02*
X015708Y003509D01*
X015708Y003667D02*
X016329Y003667D01*
X016329Y003826D02*
X015708Y003826D01*
X015708Y003984D02*
X016436Y003984D01*
X015708Y004143D02*
X026836Y004143D01*
X026895Y004301D02*
X015708Y004301D01*
X015708Y004460D02*
X026895Y004460D01*
X026895Y004618D02*
X015708Y004618D01*
X015708Y004777D02*
X026895Y004777D01*
X026895Y004935D02*
X015708Y004935D01*
X015708Y005094D02*
X026895Y005094D01*
X026895Y005252D02*
X015708Y005252D01*
X015708Y005411D02*
X026895Y005411D01*
X026963Y005569D02*
X015708Y005569D01*
X015708Y005728D02*
X027121Y005728D01*
X027280Y005886D02*
X015708Y005886D01*
X015708Y006045D02*
X027438Y006045D01*
X027597Y006203D02*
X015708Y006203D01*
X015708Y006362D02*
X027755Y006362D01*
X027934Y006520D02*
X015708Y006520D01*
X015708Y006679D02*
X030542Y006679D01*
X030542Y006837D02*
X015708Y006837D01*
X015708Y006996D02*
X030542Y006996D01*
X030669Y007154D02*
X015724Y007154D01*
X015398Y007267D02*
X016815Y008684D01*
X016854Y008684D01*
X015088Y004935D02*
X009428Y004935D01*
X009428Y004777D02*
X015088Y004777D01*
X015088Y004618D02*
X009428Y004618D01*
X009428Y004460D02*
X015088Y004460D01*
X015088Y004301D02*
X009358Y004301D01*
X009310Y004143D02*
X015088Y004143D01*
X020411Y001765D02*
X022841Y001765D01*
X022699Y001607D02*
X020570Y001607D01*
X020616Y001448D02*
X022636Y001448D01*
X022636Y001290D02*
X020616Y001290D01*
X020593Y001131D02*
X022689Y001131D01*
X023126Y001357D02*
X028977Y001357D01*
X029059Y001440D01*
X029059Y004156D01*
X029610Y004708D01*
X036110Y004708D01*
X037099Y003719D01*
X037445Y004066D01*
X037445Y006637D01*
X036920Y006679D02*
X031592Y006679D01*
X031592Y006837D02*
X036920Y006837D01*
X036920Y006996D02*
X031592Y006996D01*
X031466Y007154D02*
X037047Y007154D01*
X036920Y006520D02*
X031592Y006520D01*
X031592Y006362D02*
X036920Y006362D01*
X036963Y006203D02*
X031549Y006203D01*
X031067Y006637D02*
X030673Y006243D01*
X028075Y006243D01*
X027205Y005373D01*
X027205Y003719D01*
X026843Y003357D01*
X023126Y003357D01*
X023495Y003033D02*
X028749Y003033D01*
X028749Y002875D02*
X023336Y002875D01*
X023411Y001765D02*
X028749Y001765D01*
X029332Y001290D02*
X029617Y001290D01*
X029617Y001131D02*
X029189Y001131D01*
X029235Y001177D02*
X029235Y001177D01*
X030201Y002542D02*
X030201Y003715D01*
X030205Y003719D01*
X034099Y003719D01*
X036079Y004301D02*
X029642Y004301D01*
X029484Y004143D02*
X036237Y004143D01*
X036396Y003984D02*
X029369Y003984D01*
X029369Y003826D02*
X036544Y003826D01*
X036544Y003667D02*
X029369Y003667D01*
X029369Y003509D02*
X036544Y003509D01*
X036544Y003350D02*
X029369Y003350D01*
X029369Y003192D02*
X036651Y003192D01*
X036955Y004301D02*
X037135Y004301D01*
X037135Y004460D02*
X036797Y004460D01*
X036638Y004618D02*
X037135Y004618D01*
X037135Y004777D02*
X036480Y004777D01*
X036321Y004935D02*
X037135Y004935D01*
X037135Y005094D02*
X027515Y005094D01*
X027522Y005252D02*
X037135Y005252D01*
X037135Y005411D02*
X027681Y005411D01*
X027839Y005569D02*
X037135Y005569D01*
X037135Y005728D02*
X027998Y005728D01*
X028156Y005886D02*
X037135Y005886D01*
X037135Y006045D02*
X030913Y006045D01*
X029399Y004935D02*
X027515Y004935D01*
X027515Y004777D02*
X029241Y004777D01*
X029082Y004618D02*
X027515Y004618D01*
X027515Y004460D02*
X028924Y004460D01*
X028784Y004301D02*
X027515Y004301D01*
X027574Y004143D02*
X028749Y004143D01*
X028749Y003984D02*
X027701Y003984D01*
X027765Y003826D02*
X028749Y003826D01*
X028749Y003667D02*
X027765Y003667D01*
X027724Y003509D02*
X028749Y003509D01*
X028749Y003350D02*
X027627Y003350D01*
X027394Y003192D02*
X028749Y003192D01*
X008690Y002716D02*
X007243Y002716D01*
X007257Y002558D02*
X008374Y002558D01*
X008307Y002399D02*
X007456Y002399D01*
X007549Y002241D02*
X008307Y002241D01*
X008307Y002082D02*
X007599Y002082D01*
X007599Y001924D02*
X008307Y001924D01*
X008307Y001765D02*
X007555Y001765D01*
X007471Y001607D02*
X008307Y001607D01*
X008359Y001448D02*
X007294Y001448D01*
D21*
X009000Y004664D03*
X003811Y008349D03*
X003303Y010818D03*
X004957Y021298D03*
X003036Y021589D03*
X002484Y024881D03*
X001583Y028523D03*
X001571Y031086D03*
X010595Y025097D03*
X010697Y022692D03*
X018795Y025089D03*
X021921Y024255D03*
D22*
X027051Y019589D03*
X030477Y018369D03*
X030555Y016479D03*
X025709Y015211D03*
X031776Y010731D03*
X038587Y013330D03*
X037406Y017306D03*
X037366Y018684D03*
X038709Y030818D03*
X018457Y013991D03*
X011681Y013873D03*
X011012Y018475D03*
X008339Y018503D03*
X001890Y010837D03*
X008295Y008243D03*
X001831Y000956D03*
X032130Y001479D03*
X010721Y027168D03*
X012886Y029696D03*
M02*
