%
M48
M72
T01C0.0197
T02C0.0236
T03C0.0276
T04C0.0320
T05C0.0394
T06C0.0400
T07C0.0512
%
T01
X1831Y956
X8295Y8243
X1890Y10837
X11012Y18475
X8339Y18503
X11681Y13873
X18457Y13991
X25709Y15211
X30555Y16479
X30477Y18369
X27051Y19589
X37366Y18684
X37406Y17306
X38587Y13330
X31776Y10731
X32130Y1479
X10721Y27168
X12886Y29696
X38709Y30818
T02
X21921Y24255
X18795Y25089
X10595Y25097
X10697Y22692
X4957Y21298
X3036Y21589
X2484Y24881
X1583Y28523
X1571Y31086
X3303Y10818
X3811Y8349
X9000Y4664
T03
X25634Y7515
X25634Y8515
X32721Y8515
X32721Y7515
T04
X23126Y3357
X23126Y1357
X20126Y1357
X20126Y3357
T05
X16854Y3487
X13075Y3487
X13075Y8684
X16854Y8684
X31067Y6637
X37445Y6637
T06
X37099Y3719
X34099Y3719
X30205Y3719
X27205Y3719
X7967Y26601
X4967Y27601
X2967Y26601
X2975Y29389
X4975Y30389
X7975Y29389
T07
X8937Y1995
X6969Y1995
X5000Y1995
M30
