G75*
%MOIN*%
%OFA0B0*%
%FSLAX24Y24*%
%IPPOS*%
%LPD*%
%AMOC8*
5,1,8,0,0,1.08239X$1,22.5*
%
%ADD10C,0.0000*%
%ADD11R,0.0315X0.0472*%
%ADD12R,0.0709X0.0630*%
%ADD13R,0.0630X0.0709*%
%ADD14R,0.0472X0.0315*%
%ADD15R,0.0800X0.0800*%
%ADD16C,0.0800*%
%ADD17R,0.0492X0.0140*%
%ADD18R,0.0140X0.0492*%
%ADD19R,0.1240X0.1240*%
%ADD20R,0.0780X0.0220*%
%ADD21C,0.0660*%
%ADD22R,0.0650X0.0650*%
%ADD23C,0.0520*%
%ADD24OC8,0.0520*%
%ADD25R,0.0670X0.0630*%
%ADD26R,0.0240X0.0370*%
%ADD27R,0.0370X0.0240*%
%ADD28R,0.0886X0.0433*%
%ADD29R,0.1201X0.0803*%
%ADD30R,0.0866X0.1220*%
%ADD31R,0.0488X0.0551*%
%ADD32R,0.0787X0.0472*%
%ADD33C,0.0650*%
%ADD34R,0.0472X0.0787*%
%ADD35R,0.0551X0.0472*%
%ADD36R,0.0472X0.0551*%
%ADD37C,0.0520*%
%ADD38R,0.0591X0.0591*%
%ADD39C,0.0100*%
%ADD40C,0.0160*%
%ADD41R,0.0500X0.0500*%
%ADD42C,0.0120*%
%ADD43R,0.0396X0.0396*%
D10*
X000180Y000180D02*
X000180Y031676D01*
X038763Y031676D01*
X038763Y000180D01*
X000180Y000180D01*
D11*
X019117Y006125D03*
X019826Y006125D03*
X020574Y011086D03*
X021282Y011086D03*
X026834Y009589D03*
X027542Y009589D03*
X028015Y009589D03*
X028723Y009589D03*
X029196Y009589D03*
X029904Y009589D03*
X034314Y009589D03*
X035023Y009589D03*
X035495Y009589D03*
X036204Y009589D03*
X036676Y009589D03*
X037385Y009589D03*
X037306Y011991D03*
X038015Y011991D03*
X033841Y015101D03*
X033133Y015101D03*
X033999Y015889D03*
X034708Y015889D03*
X034708Y016723D03*
X033999Y016723D03*
X033999Y017542D03*
X034708Y017542D03*
X034708Y018290D03*
X033999Y018290D03*
X033999Y019078D03*
X034708Y019078D03*
X033290Y022857D03*
X032582Y022857D03*
X027621Y019046D03*
X026912Y019046D03*
X026912Y018337D03*
X027621Y018337D03*
X027621Y017589D03*
X026912Y017589D03*
X026912Y016802D03*
X027621Y016802D03*
X027621Y016125D03*
X026912Y016125D03*
X029550Y013763D03*
X030259Y013763D03*
X025334Y021093D03*
X024625Y021093D03*
X019877Y018940D03*
X019168Y018940D03*
X018916Y023861D03*
X018208Y023861D03*
X015771Y027897D03*
X015062Y027897D03*
X013963Y028621D03*
X013255Y028621D03*
X012735Y028621D03*
X012026Y028621D03*
X012444Y023822D03*
X013152Y023822D03*
X009668Y021125D03*
X008960Y021125D03*
X008208Y018979D03*
X007499Y018979D03*
X004129Y020912D03*
X003420Y020912D03*
X002794Y020912D03*
X002086Y020912D03*
X006593Y023861D03*
X007302Y023861D03*
X004113Y027605D03*
X003404Y027605D03*
X002857Y027605D03*
X002149Y027605D03*
X011767Y018940D03*
X011822Y018310D03*
X012530Y018310D03*
X012475Y018940D03*
X020731Y027975D03*
X021440Y027975D03*
X019428Y028511D03*
X018719Y028511D03*
X018239Y028511D03*
X017530Y028511D03*
D12*
X018003Y029267D03*
X018948Y029259D03*
X018948Y030361D03*
X018003Y030369D03*
X013397Y030456D03*
X012491Y030463D03*
X012491Y029361D03*
X013397Y029353D03*
X007278Y029259D03*
X007278Y030361D03*
X003645Y029511D03*
X002621Y029511D03*
X002621Y028408D03*
X003645Y028408D03*
X006129Y023093D03*
X007066Y023093D03*
X007066Y021991D03*
X006129Y021991D03*
X003597Y021794D03*
X002574Y021794D03*
X002574Y022897D03*
X003597Y022897D03*
X011963Y023093D03*
X011963Y021991D03*
X013239Y021991D03*
X013239Y023093D03*
X017711Y023101D03*
X018696Y023109D03*
X018696Y022007D03*
X017711Y021999D03*
D13*
X023912Y019904D03*
X025015Y019904D03*
X031806Y019912D03*
X032908Y019912D03*
X012463Y016609D03*
X011361Y016609D03*
X004676Y020101D03*
X003574Y020101D03*
X002676Y020101D03*
X001574Y020101D03*
X001621Y026834D03*
X002723Y026834D03*
X003582Y026834D03*
X004684Y026834D03*
D14*
X005495Y026046D03*
X005495Y025337D03*
X003511Y025385D03*
X003511Y026093D03*
X002802Y026097D03*
X002802Y025389D03*
X006026Y028830D03*
X006026Y029538D03*
X009393Y027345D03*
X009393Y026637D03*
X010928Y026440D03*
X010928Y027149D03*
X016361Y027227D03*
X016361Y026519D03*
X019416Y025759D03*
X019416Y025050D03*
X019452Y023247D03*
X019452Y022538D03*
X020652Y021952D03*
X020652Y021243D03*
X016125Y019589D03*
X016125Y018881D03*
X014865Y021637D03*
X014865Y022345D03*
X011007Y019629D03*
X011007Y018920D03*
X006164Y018645D03*
X006164Y017936D03*
X003589Y018723D03*
X003589Y019432D03*
X002684Y019432D03*
X002684Y018723D03*
X028904Y020790D03*
X029558Y020782D03*
X029558Y021491D03*
X028904Y021499D03*
X028912Y022003D03*
X028912Y022711D03*
X030652Y026479D03*
X030652Y027188D03*
X034956Y023487D03*
X034956Y022778D03*
X031204Y015377D03*
X031204Y014668D03*
D15*
X008129Y001995D03*
D16*
X006160Y001995D03*
X004192Y001995D03*
D17*
X026004Y020871D03*
X026004Y021121D03*
X026004Y021381D03*
X026004Y021641D03*
X026004Y021891D03*
X027986Y021891D03*
X027986Y021641D03*
X027986Y021381D03*
X027986Y021121D03*
X027986Y020871D03*
X034209Y020999D03*
X034209Y021259D03*
X034209Y021509D03*
X034209Y020739D03*
X034209Y020489D03*
X036191Y020489D03*
X036191Y020739D03*
X036191Y020999D03*
X036191Y021259D03*
X036191Y021509D03*
D18*
X035710Y021990D03*
X035460Y021990D03*
X035200Y021990D03*
X034940Y021990D03*
X034690Y021990D03*
X034690Y020008D03*
X034940Y020008D03*
X035200Y020008D03*
X035460Y020008D03*
X035710Y020008D03*
X027505Y020390D03*
X027255Y020390D03*
X026995Y020390D03*
X026735Y020390D03*
X026485Y020390D03*
X026485Y022372D03*
X026735Y022372D03*
X026995Y022372D03*
X027255Y022372D03*
X027505Y022372D03*
D19*
X026995Y021381D03*
X035200Y020999D03*
D20*
X019496Y021087D03*
X019496Y020587D03*
X019496Y020087D03*
X019496Y019587D03*
X017556Y019587D03*
X017556Y020087D03*
X017556Y020587D03*
X017556Y021087D03*
X013906Y021127D03*
X013906Y020627D03*
X013906Y020127D03*
X013906Y019627D03*
X011966Y019627D03*
X011966Y020127D03*
X011966Y020627D03*
X011966Y021127D03*
X008119Y021127D03*
X008119Y020627D03*
X008119Y020127D03*
X008119Y019627D03*
X006179Y019627D03*
X006179Y020127D03*
X006179Y020627D03*
X006179Y021127D03*
X006257Y026438D03*
X006257Y026938D03*
X006257Y027438D03*
X006257Y027938D03*
X008197Y027938D03*
X008197Y027438D03*
X008197Y026938D03*
X008197Y026438D03*
X012045Y026399D03*
X012045Y026899D03*
X012045Y027399D03*
X012045Y027899D03*
X013985Y027899D03*
X013985Y027399D03*
X013985Y026899D03*
X013985Y026399D03*
X017478Y026438D03*
X017478Y026938D03*
X017478Y027438D03*
X017478Y027938D03*
X019418Y027938D03*
X019418Y027438D03*
X019418Y026938D03*
X019418Y026438D03*
D21*
X026397Y003719D03*
X033290Y003719D03*
D22*
X036290Y003719D03*
X031912Y008515D03*
X029397Y003719D03*
X024826Y008515D03*
D23*
X022318Y001357D03*
D24*
X022318Y003357D03*
X019318Y003357D03*
X019318Y001357D03*
D25*
X024783Y011094D03*
X024783Y014314D03*
X028763Y014314D03*
X032263Y014314D03*
X032263Y011094D03*
X028763Y011094D03*
X036243Y011094D03*
X036243Y014314D03*
D26*
X035673Y014444D03*
X035313Y014444D03*
X034963Y014444D03*
X034603Y014444D03*
X034253Y014444D03*
X033903Y014444D03*
X033543Y014444D03*
X033193Y014444D03*
X032833Y014444D03*
X032833Y010964D03*
X033193Y010964D03*
X033543Y010964D03*
X033903Y010964D03*
X034253Y010964D03*
X034603Y010964D03*
X034963Y010964D03*
X035313Y010964D03*
X035673Y010964D03*
X028193Y010964D03*
X027833Y010964D03*
X027483Y010964D03*
X027123Y010964D03*
X026773Y010964D03*
X026423Y010964D03*
X026063Y010964D03*
X025713Y010964D03*
X025353Y010964D03*
X025353Y014444D03*
X025713Y014444D03*
X026063Y014444D03*
X026423Y014444D03*
X026773Y014444D03*
X027123Y014444D03*
X027483Y014444D03*
X027833Y014444D03*
X028193Y014444D03*
D27*
X028913Y013764D03*
X028913Y013414D03*
X028913Y013054D03*
X028913Y012704D03*
X028913Y012354D03*
X028913Y011994D03*
X028913Y011644D03*
X032113Y011644D03*
X032113Y011994D03*
X032113Y012354D03*
X032113Y012704D03*
X032113Y013054D03*
X032113Y013414D03*
X032113Y013764D03*
X036393Y013764D03*
X036393Y013414D03*
X036393Y013054D03*
X036393Y012704D03*
X036393Y012354D03*
X036393Y011994D03*
X036393Y011644D03*
X024633Y011644D03*
X024633Y011994D03*
X024633Y012354D03*
X024633Y012704D03*
X024633Y013054D03*
X024633Y013414D03*
X024633Y013764D03*
D28*
X028074Y012786D03*
X035554Y012786D03*
D29*
X033735Y011656D03*
X026255Y011656D03*
D30*
X026731Y013211D03*
X025361Y013211D03*
X032841Y013211D03*
X034211Y013211D03*
D31*
X032656Y011782D03*
X025176Y011782D03*
D32*
X026794Y008645D03*
X027975Y008645D03*
X029156Y008645D03*
X029156Y007385D03*
X027975Y007385D03*
X026794Y007385D03*
X034274Y007385D03*
X035456Y007385D03*
X036637Y007385D03*
X036637Y008645D03*
X035456Y008645D03*
X034274Y008645D03*
D33*
X031912Y007515D03*
X024826Y007515D03*
D34*
X024904Y016164D03*
X024904Y017424D03*
X024904Y018645D03*
X026164Y018645D03*
X026164Y017424D03*
X026164Y016164D03*
X031676Y016282D03*
X031676Y017463D03*
X032936Y017463D03*
X032936Y016282D03*
X032936Y018645D03*
X031676Y018645D03*
D35*
X031204Y013881D03*
X031204Y012700D03*
X030652Y024471D03*
X030652Y025652D03*
D36*
X030613Y022857D03*
X031794Y022857D03*
X023251Y011086D03*
X022070Y011086D03*
X021755Y006125D03*
X020574Y006125D03*
D37*
X021613Y018589D02*
X022133Y018589D01*
X022133Y019589D02*
X021613Y019589D01*
X021613Y020589D02*
X022133Y020589D01*
X016337Y024487D02*
X016337Y025007D01*
X015337Y025007D02*
X015337Y024487D01*
X014337Y024487D02*
X014337Y025007D01*
D38*
X016046Y008684D03*
X012267Y008684D03*
X012267Y003487D03*
X016046Y003487D03*
X030259Y006637D03*
X036637Y006637D03*
X001519Y001164D03*
D39*
X001574Y001219D01*
X001574Y020101D01*
X001574Y020400D01*
X002086Y020912D01*
X002794Y020912D02*
X002794Y021574D01*
X002574Y021794D01*
X003420Y021617D02*
X003597Y021794D01*
X003420Y021617D02*
X003420Y020912D01*
X002794Y020912D01*
X002676Y020101D02*
X002676Y019440D01*
X002684Y019432D01*
X002676Y020101D02*
X003574Y020101D01*
X003574Y019448D01*
X003589Y019432D01*
X004676Y020101D02*
X004702Y020127D01*
X006179Y020127D01*
X006179Y020627D02*
X006179Y021127D01*
X006129Y021177D01*
X006129Y021991D01*
X007066Y021991D02*
X007066Y019948D01*
X007424Y019589D01*
X007503Y019589D01*
X007499Y019586D01*
X007499Y018979D01*
X007503Y019589D02*
X008081Y019589D01*
X008119Y019627D01*
X008119Y020127D02*
X008119Y020627D01*
X007607Y020627D01*
X007503Y020731D01*
X007503Y021400D01*
X007857Y021755D01*
X008448Y021755D01*
X008684Y021991D01*
X011963Y021991D01*
X012582Y022306D02*
X012582Y021400D01*
X012308Y021127D01*
X011966Y021127D01*
X011966Y020627D01*
X011952Y020613D01*
X011164Y020613D01*
X009668Y019117D01*
X009668Y018015D01*
X009904Y017778D01*
X010613Y017778D01*
X011145Y018310D01*
X011822Y018310D01*
X012176Y018633D02*
X012176Y017900D01*
X012149Y017897D01*
X011873Y017621D01*
X012463Y018243D02*
X012530Y018310D01*
X012550Y018290D01*
X013133Y018290D01*
X013906Y019063D01*
X013906Y019627D01*
X013906Y020127D02*
X013906Y020627D01*
X013920Y020613D01*
X015101Y020613D01*
X015298Y020810D01*
X015771Y020810D01*
X016007Y021046D01*
X016007Y023015D01*
X016873Y023881D01*
X018188Y023881D01*
X018208Y023861D01*
X018916Y023861D02*
X018916Y023330D01*
X018696Y023109D01*
X018834Y023247D01*
X019452Y023247D01*
X019452Y022538D02*
X017814Y022538D01*
X017700Y022424D01*
X017700Y022011D01*
X017711Y021999D01*
X017274Y021999D01*
X016873Y021597D01*
X016873Y020298D01*
X017030Y020141D01*
X017503Y020141D01*
X017556Y020087D01*
X017556Y020587D02*
X018158Y020587D01*
X018290Y020456D01*
X018290Y019078D01*
X018448Y018920D01*
X019149Y018920D01*
X019168Y018940D01*
X019865Y018952D02*
X019877Y018940D01*
X019865Y018952D02*
X019865Y019393D01*
X019670Y019587D01*
X019496Y019587D01*
X019496Y020087D02*
X021375Y020087D01*
X021873Y019589D01*
X021871Y020587D02*
X021873Y020589D01*
X021871Y020587D02*
X019496Y020587D01*
X019496Y021087D02*
X019946Y021087D01*
X020062Y021204D01*
X020613Y021204D01*
X020652Y021243D01*
X018696Y021609D02*
X018172Y021086D01*
X017558Y021086D01*
X017556Y021087D01*
X017556Y020587D01*
X017556Y019587D02*
X017345Y019587D01*
X016127Y019587D01*
X016125Y019589D02*
X016117Y019589D01*
X016038Y019511D01*
X014904Y021243D02*
X014865Y021282D01*
X014865Y021637D01*
X014316Y021127D01*
X013906Y021127D01*
X013239Y021467D02*
X012975Y021204D01*
X012975Y020416D01*
X012582Y020023D01*
X012582Y018940D01*
X012475Y018940D01*
X012176Y018633D02*
X012145Y018664D01*
X012019Y018837D01*
X011869Y018837D01*
X011767Y018940D01*
X011966Y019627D02*
X011005Y019627D01*
X011007Y019629D01*
X011005Y019627D02*
X010969Y019627D01*
X011966Y020127D02*
X011991Y020101D01*
X012503Y020101D01*
X012582Y020023D01*
X013239Y021467D02*
X013239Y021991D01*
X012818Y022542D02*
X012582Y022306D01*
X012818Y022542D02*
X013763Y022542D01*
X013920Y022700D01*
X013920Y023605D01*
X013802Y023723D01*
X013251Y023723D01*
X013152Y023822D01*
X012444Y023822D02*
X012444Y023625D01*
X012924Y023145D01*
X013239Y023093D01*
X012444Y023822D02*
X011963Y023341D01*
X011963Y023093D01*
X008958Y021127D02*
X008960Y021125D01*
X008958Y021127D02*
X008119Y021127D01*
X008684Y021991D02*
X008448Y022227D01*
X008448Y023408D01*
X008054Y023802D01*
X007361Y023802D01*
X007302Y023861D01*
X006593Y023861D02*
X006593Y023566D01*
X007066Y023093D01*
X006593Y023861D02*
X006129Y023397D01*
X006129Y023093D01*
X005298Y024196D02*
X005298Y020723D01*
X004676Y020101D01*
X004676Y020365D01*
X004129Y020912D01*
X005298Y024196D02*
X006479Y025377D01*
X008448Y025377D01*
X008841Y025771D01*
X008841Y027345D01*
X008749Y027438D01*
X008197Y027438D01*
X008197Y027938D02*
X009115Y027938D01*
X009393Y027660D01*
X010259Y027660D02*
X010259Y026361D01*
X011125Y025495D01*
X012503Y025495D01*
X013015Y026007D01*
X013015Y027149D01*
X013251Y027385D01*
X013971Y027385D01*
X013985Y027399D01*
X013985Y027899D02*
X015060Y027899D01*
X015062Y027897D01*
X015416Y028290D02*
X015416Y027149D01*
X015180Y026912D01*
X013998Y026912D01*
X013985Y026899D01*
X013985Y026399D01*
X015337Y025416D02*
X015337Y024747D01*
X015337Y025416D02*
X015574Y025652D01*
X016637Y025652D01*
X016912Y025377D01*
X017778Y025377D01*
X018093Y025692D01*
X018093Y026794D01*
X017950Y026938D01*
X017478Y026938D01*
X017491Y027424D02*
X017478Y027438D01*
X017491Y027424D02*
X018172Y027424D01*
X018432Y027164D01*
X018432Y025440D01*
X018015Y025023D01*
X016613Y025023D01*
X016337Y024747D01*
X016442Y026438D02*
X016361Y026519D01*
X016442Y026438D02*
X017478Y026438D01*
X018763Y026204D02*
X018960Y026007D01*
X018960Y025141D01*
X019038Y025062D01*
X019404Y025062D01*
X019416Y025050D01*
X019416Y025759D02*
X019416Y026436D01*
X019418Y026438D01*
X019418Y026938D01*
X019420Y026940D01*
X022038Y026940D01*
X022814Y027715D01*
X022814Y029841D01*
X021546Y031109D01*
X018326Y031109D01*
X018003Y030786D01*
X018003Y030369D01*
X018003Y029267D02*
X018239Y029030D01*
X018239Y028511D01*
X018719Y028511D01*
X019428Y028511D02*
X019432Y028515D01*
X020900Y028515D01*
X021086Y028330D01*
X021086Y027582D01*
X020928Y027424D01*
X019431Y027424D01*
X019418Y027438D01*
X019418Y027938D02*
X020694Y027938D01*
X020731Y027975D01*
X019432Y028515D02*
X019432Y028920D01*
X019093Y029259D01*
X018948Y029259D01*
X017530Y028511D02*
X017515Y028526D01*
X016991Y028526D01*
X016558Y028960D01*
X016558Y029826D01*
X015180Y031204D01*
X012897Y031204D01*
X012491Y030798D01*
X012491Y030463D01*
X011841Y030463D01*
X011164Y029904D01*
X011164Y027818D01*
X011597Y027424D01*
X012019Y027424D01*
X012045Y027399D01*
X012045Y026899D01*
X012003Y026440D02*
X010928Y026440D01*
X012003Y026440D02*
X012045Y026399D01*
X010259Y027660D02*
X008660Y029259D01*
X007278Y029259D01*
X006999Y029538D01*
X006026Y029538D01*
X006086Y028920D02*
X006086Y028889D01*
X006026Y028830D01*
X006086Y028920D02*
X006873Y028133D01*
X006873Y027739D01*
X006572Y027438D01*
X006257Y027438D01*
X006257Y026938D01*
X006257Y026438D02*
X005849Y026438D01*
X005611Y026438D01*
X005456Y026282D01*
X005456Y026086D01*
X005495Y026046D01*
X004904Y026952D02*
X004802Y026952D01*
X004684Y026834D01*
X004684Y027034D01*
X004113Y027605D01*
X003404Y027605D02*
X003404Y028168D01*
X003645Y028408D01*
X002857Y028172D02*
X002621Y028408D01*
X002857Y028172D02*
X002857Y027605D01*
X003404Y027605D01*
X003582Y026834D02*
X002936Y026834D01*
X002802Y026700D01*
X002802Y026097D01*
X003511Y026093D02*
X003511Y026763D01*
X003582Y026834D01*
X002936Y026834D02*
X002723Y026834D01*
X002149Y027605D02*
X001621Y027078D01*
X001621Y026834D01*
X004904Y026952D02*
X004904Y027739D01*
X005103Y027938D01*
X006257Y027938D01*
X008197Y026938D02*
X008197Y026438D01*
X012045Y027899D02*
X012045Y028603D01*
X012026Y028621D01*
X011912Y028735D01*
X011912Y029747D01*
X012070Y029904D01*
X013290Y029904D01*
X013397Y029798D01*
X013397Y029353D01*
X012735Y029117D02*
X012491Y029361D01*
X012735Y029117D02*
X012735Y028621D01*
X013255Y028621D01*
X013963Y028621D02*
X015086Y028621D01*
X015416Y028290D01*
X017478Y027938D02*
X018210Y027938D01*
X018763Y027385D01*
X018763Y026204D01*
X018696Y022007D02*
X018696Y021609D01*
X024979Y021440D02*
X024979Y019936D01*
X025015Y019904D01*
X025334Y021093D02*
X025361Y021121D01*
X026004Y021121D01*
X026004Y021381D02*
X025719Y021385D01*
X025503Y021601D01*
X025141Y021601D01*
X024979Y021440D01*
X027505Y020390D02*
X027505Y019225D01*
X027621Y019046D01*
X027739Y019227D01*
X027739Y019550D01*
X027986Y019797D01*
X027986Y020871D01*
X028067Y020790D01*
X028904Y020790D01*
X028912Y020782D01*
X029558Y020782D01*
X029558Y021491D02*
X028912Y021491D01*
X028904Y021499D01*
X028912Y021507D01*
X028912Y022003D01*
X028904Y021499D02*
X028786Y021381D01*
X027986Y021381D01*
X034209Y021509D02*
X034432Y021732D01*
X034432Y021912D01*
X034510Y021990D01*
X034690Y021990D01*
X034940Y021990D02*
X034940Y022743D01*
X034956Y022778D01*
X035200Y022357D02*
X035530Y022672D01*
X035530Y023062D01*
X035432Y023133D01*
X034601Y023133D01*
X034432Y022975D01*
X034432Y021912D01*
X035200Y021990D02*
X035200Y022357D01*
X034209Y020489D02*
X034690Y020008D01*
X034690Y019096D01*
X034708Y019078D01*
X035200Y019570D01*
X035200Y020008D01*
X036519Y015101D02*
X033841Y015101D01*
X033133Y015101D02*
X032975Y015101D01*
X032818Y014944D01*
X032818Y014459D01*
X032833Y014444D01*
X036393Y013764D02*
X036394Y013763D01*
X036794Y013763D01*
X036873Y013841D01*
X036873Y014747D01*
X036519Y015101D01*
X036393Y011994D02*
X036396Y011991D01*
X037306Y011991D01*
X035673Y010964D02*
X035673Y010593D01*
X035889Y010377D01*
X036597Y010377D01*
X036676Y010298D01*
X036676Y009589D01*
X035495Y009589D02*
X035023Y009589D01*
X035313Y009771D02*
X035495Y009589D01*
X035313Y009771D02*
X035313Y010964D01*
X012463Y016609D02*
X012463Y018243D01*
D40*
X012176Y017945D02*
X012183Y017938D01*
X012183Y017193D01*
X012053Y017193D01*
X011919Y017059D01*
X011919Y016160D01*
X012053Y016025D01*
X012874Y016025D01*
X013008Y016160D01*
X013008Y017059D01*
X012874Y017193D01*
X012743Y017193D01*
X012743Y017844D01*
X012783Y017844D01*
X012918Y017978D01*
X012918Y018010D01*
X013188Y018010D01*
X013291Y018053D01*
X013370Y018132D01*
X014143Y018905D01*
X014186Y019008D01*
X014186Y019287D01*
X014391Y019287D01*
X014526Y019422D01*
X014526Y019832D01*
X014481Y019877D01*
X014526Y019922D01*
X014526Y020332D01*
X014525Y020333D01*
X015157Y020333D01*
X015260Y020376D01*
X015414Y020530D01*
X015826Y020530D01*
X015929Y020573D01*
X016008Y020651D01*
X016165Y020809D01*
X016244Y020888D01*
X016287Y020990D01*
X016287Y022899D01*
X016989Y023601D01*
X017820Y023601D01*
X017820Y023530D01*
X017955Y023395D01*
X018111Y023395D01*
X018111Y022818D01*
X017758Y022818D01*
X017655Y022776D01*
X017541Y022661D01*
X017462Y022583D01*
X017446Y022544D01*
X017262Y022544D01*
X017127Y022409D01*
X017127Y022241D01*
X017116Y022236D01*
X016714Y021835D01*
X016636Y021756D01*
X016593Y021653D01*
X016593Y020242D01*
X016636Y020140D01*
X016793Y019982D01*
X016872Y019903D01*
X016946Y019872D01*
X016951Y019867D01*
X016566Y019867D01*
X016456Y019977D01*
X015793Y019977D01*
X015659Y019842D01*
X015659Y019337D01*
X015793Y019202D01*
X016456Y019202D01*
X016562Y019307D01*
X016986Y019307D01*
X016865Y019187D01*
X016865Y018496D01*
X017000Y018361D01*
X017691Y018361D01*
X017825Y018496D01*
X017825Y019187D01*
X017765Y019247D01*
X018010Y019247D01*
X018010Y019022D01*
X018053Y018919D01*
X018210Y018762D01*
X018289Y018683D01*
X018392Y018640D01*
X018781Y018640D01*
X018781Y018608D01*
X018915Y018474D01*
X019421Y018474D01*
X019523Y018575D01*
X019624Y018474D01*
X020130Y018474D01*
X020264Y018608D01*
X020264Y019271D01*
X020145Y019391D01*
X020145Y019448D01*
X020116Y019517D01*
X020116Y019793D01*
X020102Y019807D01*
X021173Y019807D01*
X021123Y019687D01*
X021123Y019492D01*
X021198Y019312D01*
X021335Y019174D01*
X021515Y019099D01*
X022230Y019099D01*
X022410Y019174D01*
X022548Y019312D01*
X022623Y019492D01*
X022623Y019687D01*
X022548Y019867D01*
X022410Y020005D01*
X022230Y020079D01*
X021779Y020079D01*
X021759Y020099D01*
X022230Y020099D01*
X022410Y020174D01*
X022548Y020312D01*
X022623Y020492D01*
X022623Y020687D01*
X022548Y020867D01*
X022410Y021005D01*
X022230Y021079D01*
X021518Y021079D01*
X021713Y021275D01*
X022100Y021275D01*
X022235Y021410D01*
X022235Y022100D01*
X022100Y022235D01*
X021410Y022235D01*
X021275Y022100D01*
X021275Y021713D01*
X021115Y021553D01*
X021061Y021553D01*
X020984Y021630D01*
X020321Y021630D01*
X020186Y021496D01*
X020186Y021484D01*
X020006Y021484D01*
X019903Y021441D01*
X019890Y021427D01*
X019011Y021427D01*
X018876Y021293D01*
X018876Y020882D01*
X018921Y020837D01*
X018876Y020793D01*
X018876Y020382D01*
X018921Y020337D01*
X018876Y020293D01*
X018876Y019882D01*
X018921Y019837D01*
X018876Y019793D01*
X018876Y019382D01*
X018884Y019375D01*
X018781Y019271D01*
X018781Y019200D01*
X018570Y019200D01*
X018570Y020511D01*
X018528Y020614D01*
X018449Y020693D01*
X018317Y020825D01*
X018296Y020834D01*
X018331Y020848D01*
X018409Y020927D01*
X018933Y021451D01*
X018938Y021462D01*
X019145Y021462D01*
X019280Y021597D01*
X019280Y022151D01*
X019783Y022151D01*
X019918Y022286D01*
X019918Y022791D01*
X019816Y022893D01*
X019918Y022994D01*
X019918Y023500D01*
X019783Y023634D01*
X019304Y023634D01*
X019304Y024193D01*
X019169Y024327D01*
X018663Y024327D01*
X018562Y024226D01*
X018460Y024327D01*
X017955Y024327D01*
X017820Y024193D01*
X017820Y024161D01*
X016817Y024161D01*
X016714Y024118D01*
X016636Y024039D01*
X015769Y023173D01*
X015727Y023070D01*
X015727Y021162D01*
X015655Y021090D01*
X015384Y021090D01*
X015384Y021588D01*
X015331Y021641D01*
X015331Y021889D01*
X015197Y022024D01*
X014534Y022024D01*
X014399Y021889D01*
X014399Y021586D01*
X014271Y021467D01*
X013709Y021467D01*
X013823Y021581D01*
X013823Y022264D01*
X013921Y022305D01*
X014000Y022384D01*
X014158Y022541D01*
X014200Y022644D01*
X014200Y023661D01*
X014158Y023764D01*
X014079Y023843D01*
X013961Y023961D01*
X013858Y024003D01*
X013540Y024003D01*
X013540Y024153D01*
X013405Y024288D01*
X012900Y024288D01*
X012798Y024186D01*
X012697Y024288D01*
X012191Y024288D01*
X012056Y024153D01*
X012056Y023830D01*
X011864Y023638D01*
X011514Y023638D01*
X011379Y023504D01*
X011379Y022683D01*
X011514Y022548D01*
X012413Y022548D01*
X012548Y022683D01*
X012548Y023125D01*
X012655Y023018D01*
X012655Y022775D01*
X012423Y022543D01*
X012414Y022535D01*
X012413Y022536D01*
X011514Y022536D01*
X011379Y022401D01*
X011379Y022271D01*
X008800Y022271D01*
X008728Y022343D01*
X008728Y023464D01*
X008685Y023567D01*
X008606Y023646D01*
X008213Y024039D01*
X008110Y024082D01*
X007690Y024082D01*
X007690Y024193D01*
X007555Y024327D01*
X007049Y024327D01*
X006948Y024226D01*
X006846Y024327D01*
X006341Y024327D01*
X006206Y024193D01*
X006206Y023870D01*
X005975Y023638D01*
X005679Y023638D01*
X005578Y023638D01*
X005679Y023638D02*
X005578Y023537D01*
X005578Y024080D01*
X006595Y025097D01*
X008503Y025097D01*
X008606Y025139D01*
X008685Y025218D01*
X009079Y025612D01*
X009121Y025715D01*
X009121Y026958D01*
X009724Y026958D01*
X009859Y027093D01*
X009859Y027598D01*
X009724Y027733D01*
X009666Y027733D01*
X009630Y027819D01*
X009274Y028175D01*
X009171Y028218D01*
X008743Y028218D01*
X008731Y028230D01*
X008731Y028792D01*
X009979Y027544D01*
X009979Y026305D01*
X010021Y026202D01*
X010888Y025336D01*
X010966Y025258D01*
X011069Y025215D01*
X012559Y025215D01*
X012661Y025258D01*
X012740Y025336D01*
X012740Y025336D01*
X013173Y025769D01*
X013252Y025848D01*
X013295Y025951D01*
X013295Y027033D01*
X013365Y027103D01*
X013365Y026693D01*
X013409Y026649D01*
X013365Y026604D01*
X013365Y026193D01*
X013499Y026059D01*
X014470Y026059D01*
X014605Y026193D01*
X014605Y026604D01*
X014576Y026632D01*
X015236Y026632D01*
X015339Y026675D01*
X015417Y026754D01*
X015654Y026990D01*
X015696Y027093D01*
X015696Y028346D01*
X015654Y028449D01*
X015575Y028528D01*
X015244Y028858D01*
X015141Y028901D01*
X014351Y028901D01*
X014351Y028952D01*
X014216Y029087D01*
X013981Y029087D01*
X013981Y029763D01*
X013846Y029898D01*
X013658Y029898D01*
X013634Y029957D01*
X013528Y030063D01*
X013449Y030142D01*
X013346Y030184D01*
X013075Y030184D01*
X013075Y030874D01*
X013025Y030924D01*
X015064Y030924D01*
X016278Y029710D01*
X016278Y028904D01*
X016321Y028801D01*
X016754Y028368D01*
X016832Y028289D01*
X016935Y028246D01*
X016961Y028246D01*
X016858Y028143D01*
X016858Y027733D01*
X016902Y027688D01*
X016858Y027643D01*
X016858Y027233D01*
X016902Y027188D01*
X016858Y027143D01*
X016858Y026733D01*
X016872Y026718D01*
X016827Y026718D01*
X016827Y026771D01*
X016693Y026906D01*
X016030Y026906D01*
X015895Y026771D01*
X015895Y026266D01*
X016030Y026131D01*
X016693Y026131D01*
X016719Y026158D01*
X016917Y026158D01*
X016917Y025768D01*
X016795Y025890D01*
X016692Y025932D01*
X015518Y025932D01*
X015415Y025890D01*
X015179Y025654D01*
X015100Y025575D01*
X015057Y025472D01*
X015057Y025420D01*
X014922Y025284D01*
X014847Y025104D01*
X014847Y024389D01*
X014922Y024209D01*
X015060Y024072D01*
X015240Y023997D01*
X015435Y023997D01*
X015615Y024072D01*
X015753Y024209D01*
X015827Y024389D01*
X015827Y025104D01*
X015753Y025284D01*
X015677Y025360D01*
X015690Y025372D01*
X016010Y025372D01*
X015922Y025284D01*
X015847Y025104D01*
X015847Y024389D01*
X015922Y024209D01*
X016060Y024072D01*
X016240Y023997D01*
X016435Y023997D01*
X016615Y024072D01*
X016753Y024209D01*
X016827Y024389D01*
X016827Y024743D01*
X018070Y024743D01*
X018173Y024785D01*
X018252Y024864D01*
X018669Y025281D01*
X018680Y025306D01*
X018680Y025085D01*
X018722Y024982D01*
X018880Y024825D01*
X018953Y024794D01*
X019085Y024663D01*
X019748Y024663D01*
X019882Y024797D01*
X019882Y025303D01*
X019781Y025404D01*
X019882Y025506D01*
X019882Y026011D01*
X019796Y026098D01*
X019903Y026098D01*
X020038Y026233D01*
X020038Y026643D01*
X020021Y026660D01*
X022094Y026660D01*
X022197Y026702D01*
X022276Y026781D01*
X023051Y027557D01*
X023094Y027660D01*
X023094Y029897D01*
X023051Y030000D01*
X022972Y030079D01*
X021855Y031196D01*
X038283Y031196D01*
X038283Y000660D01*
X001930Y000660D01*
X002044Y000774D01*
X002044Y001555D01*
X001909Y001690D01*
X001854Y001690D01*
X001854Y019517D01*
X001984Y019517D01*
X002218Y019517D01*
X002218Y019565D02*
X002218Y019179D01*
X002352Y019044D01*
X003015Y019044D01*
X003137Y019166D01*
X003258Y019044D01*
X003921Y019044D01*
X004056Y019179D01*
X004056Y019589D01*
X004119Y019652D01*
X004119Y020446D01*
X004131Y020446D01*
X004131Y019652D01*
X004266Y019517D01*
X005086Y019517D01*
X005148Y019579D01*
X005146Y019572D01*
X005146Y019400D01*
X004874Y019400D01*
X004739Y019265D01*
X004739Y018575D01*
X004874Y018440D01*
X005565Y018440D01*
X005698Y018574D01*
X005698Y018392D01*
X005833Y018257D01*
X006496Y018257D01*
X006630Y018392D01*
X006630Y018897D01*
X006496Y019032D01*
X006489Y019032D01*
X006489Y019287D01*
X006664Y019287D01*
X006799Y019422D01*
X006799Y019832D01*
X006754Y019877D01*
X006786Y019909D01*
X006786Y019892D01*
X006828Y019789D01*
X007187Y019431D01*
X007209Y019408D01*
X007111Y019311D01*
X007111Y018648D01*
X007246Y018513D01*
X007752Y018513D01*
X007886Y018648D01*
X007886Y019287D01*
X008604Y019287D01*
X008739Y019422D01*
X008739Y019832D01*
X008713Y019857D01*
X009344Y019857D01*
X009479Y019992D01*
X009479Y020683D01*
X009347Y020815D01*
X009347Y021456D01*
X009212Y021591D01*
X008707Y021591D01*
X008583Y021467D01*
X007965Y021467D01*
X007973Y021475D01*
X008503Y021475D01*
X008606Y021517D01*
X008800Y021711D01*
X011379Y021711D01*
X011379Y021581D01*
X011493Y021467D01*
X011481Y021467D01*
X011346Y021332D01*
X011346Y020922D01*
X011374Y020893D01*
X011109Y020893D01*
X011006Y020850D01*
X009431Y019276D01*
X009388Y019173D01*
X009388Y017959D01*
X009431Y017856D01*
X009510Y017777D01*
X009746Y017541D01*
X009849Y017498D01*
X010669Y017498D01*
X010772Y017541D01*
X010850Y017620D01*
X011261Y018030D01*
X011434Y018030D01*
X011434Y017978D01*
X011569Y017844D01*
X012074Y017844D01*
X012176Y017945D01*
X012183Y017932D02*
X012163Y017932D01*
X012183Y017774D02*
X011004Y017774D01*
X011163Y017932D02*
X011481Y017932D01*
X011434Y018590D02*
X011089Y018590D01*
X010986Y018547D01*
X010853Y018414D01*
X010853Y018793D01*
X010718Y018928D01*
X010685Y018928D01*
X010686Y019241D01*
X011338Y019241D01*
X011432Y019335D01*
X011481Y019287D01*
X012103Y019287D01*
X012088Y019271D01*
X012088Y018763D01*
X012074Y018776D01*
X011569Y018776D01*
X011434Y018641D01*
X011434Y018590D01*
X011517Y018725D02*
X010853Y018725D01*
X010853Y018566D02*
X011031Y018566D01*
X010763Y018883D02*
X012088Y018883D01*
X012088Y019042D02*
X010685Y019042D01*
X010686Y019200D02*
X012088Y019200D01*
X010969Y019627D02*
X010650Y019627D01*
X010377Y019393D01*
X010373Y018448D01*
X010846Y017615D02*
X012183Y017615D01*
X012183Y017457D02*
X001854Y017457D01*
X001854Y017615D02*
X009672Y017615D01*
X009513Y017774D02*
X001854Y017774D01*
X001854Y017932D02*
X009399Y017932D01*
X009388Y018091D02*
X001854Y018091D01*
X001854Y018249D02*
X009388Y018249D01*
X009388Y018408D02*
X006630Y018408D01*
X006630Y018566D02*
X007193Y018566D01*
X007111Y018725D02*
X006630Y018725D01*
X006630Y018883D02*
X007111Y018883D01*
X007111Y019042D02*
X006489Y019042D01*
X006489Y019200D02*
X007111Y019200D01*
X007159Y019359D02*
X006735Y019359D01*
X006799Y019517D02*
X007101Y019517D01*
X006942Y019676D02*
X006799Y019676D01*
X006797Y019834D02*
X006810Y019834D01*
X006179Y019627D02*
X006179Y018659D01*
X006164Y018645D01*
X005698Y018566D02*
X005691Y018566D01*
X005698Y018408D02*
X001854Y018408D01*
X001854Y018566D02*
X004748Y018566D01*
X004739Y018725D02*
X001854Y018725D01*
X001854Y018883D02*
X004739Y018883D01*
X004739Y019042D02*
X001854Y019042D01*
X001854Y019200D02*
X002218Y019200D01*
X002218Y019359D02*
X001854Y019359D01*
X001984Y019517D02*
X002119Y019652D01*
X002119Y020446D01*
X002131Y020446D01*
X002131Y019652D01*
X002218Y019565D01*
X002131Y019676D02*
X002119Y019676D01*
X002119Y019834D02*
X002131Y019834D01*
X002119Y019993D02*
X002131Y019993D01*
X002119Y020151D02*
X002131Y020151D01*
X002119Y020310D02*
X002131Y020310D01*
X001562Y020785D02*
X000660Y020785D01*
X000660Y020627D02*
X001104Y020627D01*
X001163Y020686D02*
X001029Y020551D01*
X001029Y019652D01*
X001163Y019517D01*
X000660Y019517D01*
X000660Y019359D02*
X001294Y019359D01*
X001294Y019517D02*
X001163Y019517D01*
X001294Y019517D02*
X001294Y001690D01*
X001128Y001690D01*
X000993Y001555D01*
X000993Y000774D01*
X001107Y000660D01*
X000660Y000660D01*
X000660Y031196D01*
X012493Y031196D01*
X012305Y031008D01*
X012041Y031008D01*
X011907Y030874D01*
X011907Y030743D01*
X011855Y030743D01*
X011813Y030747D01*
X011799Y030743D01*
X011786Y030743D01*
X011747Y030727D01*
X011706Y030715D01*
X011696Y030706D01*
X011683Y030701D01*
X011653Y030671D01*
X011018Y030147D01*
X011006Y030142D01*
X010976Y030112D01*
X010943Y030085D01*
X010937Y030073D01*
X010927Y030063D01*
X010911Y030024D01*
X010891Y029986D01*
X010890Y029973D01*
X010884Y029960D01*
X010884Y029918D01*
X010880Y029876D01*
X010884Y029862D01*
X010884Y027867D01*
X010882Y027860D01*
X010884Y027811D01*
X010884Y027762D01*
X010887Y027756D01*
X010887Y027749D01*
X010908Y027704D01*
X010927Y027659D01*
X010932Y027654D01*
X010935Y027648D01*
X010971Y027615D01*
X011006Y027580D01*
X011012Y027578D01*
X011404Y027221D01*
X011425Y027201D01*
X011425Y027193D01*
X011469Y027149D01*
X011425Y027104D01*
X011425Y026720D01*
X011367Y026720D01*
X011260Y026827D01*
X010597Y026827D01*
X010539Y026770D01*
X010539Y027716D01*
X010496Y027819D01*
X010417Y027898D01*
X008819Y029496D01*
X008716Y029539D01*
X007863Y029539D01*
X007863Y029669D01*
X007728Y029804D01*
X007090Y029804D01*
X007055Y029818D01*
X006465Y029818D01*
X006358Y029926D01*
X005695Y029926D01*
X005560Y029791D01*
X005560Y029286D01*
X005662Y029184D01*
X005560Y029082D01*
X005560Y028577D01*
X005695Y028442D01*
X006168Y028442D01*
X006332Y028278D01*
X005772Y028278D01*
X005712Y028218D01*
X005048Y028218D01*
X004945Y028175D01*
X004746Y027976D01*
X004667Y027898D01*
X004624Y027795D01*
X004624Y027490D01*
X004501Y027614D01*
X004501Y027937D01*
X004366Y028071D01*
X004229Y028071D01*
X004229Y028819D01*
X004094Y028953D01*
X003195Y028953D01*
X003133Y028891D01*
X003071Y028953D01*
X002171Y028953D01*
X002037Y028819D01*
X002037Y028071D01*
X001896Y028071D01*
X001761Y027937D01*
X001761Y027614D01*
X001565Y027418D01*
X001211Y027418D01*
X001076Y027283D01*
X001076Y026384D01*
X001211Y026249D01*
X002031Y026249D01*
X002166Y026384D01*
X002166Y027139D01*
X002178Y027139D01*
X002178Y026384D01*
X002313Y026249D01*
X002336Y026249D01*
X002336Y025845D01*
X002471Y025710D01*
X003134Y025710D01*
X003154Y025731D01*
X003179Y025706D01*
X003842Y025706D01*
X003977Y025841D01*
X003977Y026249D01*
X003992Y026249D01*
X004127Y026384D01*
X004127Y027139D01*
X004139Y027139D01*
X004139Y026384D01*
X004274Y026249D01*
X005029Y026249D01*
X005029Y025793D01*
X005163Y025659D01*
X005826Y025659D01*
X005961Y025793D01*
X005961Y026098D01*
X006743Y026098D01*
X006877Y026233D01*
X006877Y026643D01*
X006833Y026688D01*
X006877Y026733D01*
X006877Y027143D01*
X006833Y027188D01*
X006877Y027233D01*
X006877Y027347D01*
X007032Y027502D01*
X007110Y027580D01*
X007153Y027683D01*
X007153Y028188D01*
X007110Y028291D01*
X006493Y028909D01*
X006493Y029082D01*
X006391Y029184D01*
X006465Y029258D01*
X006694Y029258D01*
X006694Y028849D01*
X006829Y028714D01*
X007728Y028714D01*
X007771Y028757D01*
X007771Y028278D01*
X007712Y028278D01*
X007577Y028143D01*
X007577Y027733D01*
X007622Y027688D01*
X007577Y027643D01*
X007577Y027233D01*
X007622Y027188D01*
X007577Y027143D01*
X007577Y026733D01*
X007622Y026688D01*
X007577Y026643D01*
X007577Y026233D01*
X007712Y026098D01*
X008561Y026098D01*
X008561Y025887D01*
X008332Y025657D01*
X006424Y025657D01*
X006321Y025614D01*
X005140Y024433D01*
X005061Y024354D01*
X005018Y024251D01*
X005018Y020839D01*
X004864Y020686D01*
X004751Y020686D01*
X004516Y020921D01*
X004516Y021244D01*
X004382Y021379D01*
X004176Y021379D01*
X004182Y021384D01*
X004182Y022204D01*
X004047Y022339D01*
X003148Y022339D01*
X003086Y022277D01*
X003023Y022339D01*
X002124Y022339D01*
X001989Y022204D01*
X001989Y021384D01*
X001995Y021379D01*
X001833Y021379D01*
X001698Y021244D01*
X001698Y020921D01*
X001463Y020686D01*
X001163Y020686D01*
X001029Y020468D02*
X000660Y020468D01*
X000660Y020310D02*
X001029Y020310D01*
X001029Y020151D02*
X000660Y020151D01*
X000660Y019993D02*
X001029Y019993D01*
X001029Y019834D02*
X000660Y019834D01*
X000660Y019676D02*
X001029Y019676D01*
X001294Y019200D02*
X000660Y019200D01*
X000660Y019042D02*
X001294Y019042D01*
X001294Y018883D02*
X000660Y018883D01*
X000660Y018725D02*
X001294Y018725D01*
X001294Y018566D02*
X000660Y018566D01*
X000660Y018408D02*
X001294Y018408D01*
X001294Y018249D02*
X000660Y018249D01*
X000660Y018091D02*
X001294Y018091D01*
X001294Y017932D02*
X000660Y017932D01*
X000660Y017774D02*
X001294Y017774D01*
X001294Y017615D02*
X000660Y017615D01*
X000660Y017457D02*
X001294Y017457D01*
X001294Y017298D02*
X000660Y017298D01*
X000660Y017140D02*
X001294Y017140D01*
X001294Y016981D02*
X000660Y016981D01*
X000660Y016823D02*
X001294Y016823D01*
X001294Y016664D02*
X000660Y016664D01*
X000660Y016506D02*
X001294Y016506D01*
X001294Y016347D02*
X000660Y016347D01*
X000660Y016189D02*
X001294Y016189D01*
X001294Y016030D02*
X000660Y016030D01*
X000660Y015872D02*
X001294Y015872D01*
X001294Y015713D02*
X000660Y015713D01*
X000660Y015555D02*
X001294Y015555D01*
X001294Y015396D02*
X000660Y015396D01*
X000660Y015238D02*
X001294Y015238D01*
X001294Y015079D02*
X000660Y015079D01*
X000660Y014921D02*
X001294Y014921D01*
X001294Y014762D02*
X000660Y014762D01*
X000660Y014604D02*
X001294Y014604D01*
X001294Y014445D02*
X000660Y014445D01*
X000660Y014287D02*
X001294Y014287D01*
X001294Y014128D02*
X000660Y014128D01*
X000660Y013970D02*
X001294Y013970D01*
X001294Y013811D02*
X000660Y013811D01*
X000660Y013653D02*
X001294Y013653D01*
X001294Y013494D02*
X000660Y013494D01*
X000660Y013336D02*
X001294Y013336D01*
X001294Y013177D02*
X000660Y013177D01*
X000660Y013019D02*
X001294Y013019D01*
X001294Y012860D02*
X000660Y012860D01*
X000660Y012702D02*
X001294Y012702D01*
X001294Y012543D02*
X000660Y012543D01*
X000660Y012385D02*
X001294Y012385D01*
X001294Y012226D02*
X000660Y012226D01*
X000660Y012068D02*
X001294Y012068D01*
X001294Y011909D02*
X000660Y011909D01*
X000660Y011751D02*
X001294Y011751D01*
X001294Y011592D02*
X000660Y011592D01*
X000660Y011434D02*
X001294Y011434D01*
X001294Y011275D02*
X000660Y011275D01*
X000660Y011117D02*
X001294Y011117D01*
X001294Y010958D02*
X000660Y010958D01*
X000660Y010800D02*
X001294Y010800D01*
X001294Y010641D02*
X000660Y010641D01*
X000660Y010483D02*
X001294Y010483D01*
X001294Y010324D02*
X000660Y010324D01*
X000660Y010166D02*
X001294Y010166D01*
X001294Y010007D02*
X000660Y010007D01*
X000660Y009849D02*
X001294Y009849D01*
X001294Y009690D02*
X000660Y009690D01*
X000660Y009532D02*
X001294Y009532D01*
X001294Y009373D02*
X000660Y009373D01*
X000660Y009215D02*
X001294Y009215D01*
X001294Y009056D02*
X000660Y009056D01*
X000660Y008898D02*
X001294Y008898D01*
X001294Y008739D02*
X000660Y008739D01*
X000660Y008581D02*
X001294Y008581D01*
X001294Y008422D02*
X000660Y008422D01*
X000660Y008264D02*
X001294Y008264D01*
X001294Y008105D02*
X000660Y008105D01*
X000660Y007947D02*
X001294Y007947D01*
X001294Y007788D02*
X000660Y007788D01*
X000660Y007630D02*
X001294Y007630D01*
X001294Y007471D02*
X000660Y007471D01*
X000660Y007313D02*
X001294Y007313D01*
X001294Y007154D02*
X000660Y007154D01*
X000660Y006996D02*
X001294Y006996D01*
X001294Y006837D02*
X000660Y006837D01*
X000660Y006679D02*
X001294Y006679D01*
X001294Y006520D02*
X000660Y006520D01*
X000660Y006362D02*
X001294Y006362D01*
X001294Y006203D02*
X000660Y006203D01*
X000660Y006045D02*
X001294Y006045D01*
X001294Y005886D02*
X000660Y005886D01*
X000660Y005728D02*
X001294Y005728D01*
X001294Y005569D02*
X000660Y005569D01*
X000660Y005411D02*
X001294Y005411D01*
X001294Y005252D02*
X000660Y005252D01*
X000660Y005094D02*
X001294Y005094D01*
X001294Y004935D02*
X000660Y004935D01*
X000660Y004777D02*
X001294Y004777D01*
X001294Y004618D02*
X000660Y004618D01*
X000660Y004460D02*
X001294Y004460D01*
X001294Y004301D02*
X000660Y004301D01*
X000660Y004143D02*
X001294Y004143D01*
X001294Y003984D02*
X000660Y003984D01*
X000660Y003826D02*
X001294Y003826D01*
X001294Y003667D02*
X000660Y003667D01*
X000660Y003509D02*
X001294Y003509D01*
X001294Y003350D02*
X000660Y003350D01*
X000660Y003192D02*
X001294Y003192D01*
X001294Y003033D02*
X000660Y003033D01*
X000660Y002875D02*
X001294Y002875D01*
X001294Y002716D02*
X000660Y002716D01*
X000660Y002558D02*
X001294Y002558D01*
X001294Y002399D02*
X000660Y002399D01*
X000660Y002241D02*
X001294Y002241D01*
X001294Y002082D02*
X000660Y002082D01*
X000660Y001924D02*
X001294Y001924D01*
X001294Y001765D02*
X000660Y001765D01*
X000660Y001607D02*
X001045Y001607D01*
X000993Y001448D02*
X000660Y001448D01*
X000660Y001290D02*
X000993Y001290D01*
X000993Y001131D02*
X000660Y001131D01*
X000660Y000973D02*
X000993Y000973D01*
X000993Y000814D02*
X000660Y000814D01*
X001854Y001765D02*
X003605Y001765D01*
X003562Y001870D02*
X003658Y001638D01*
X003835Y001461D01*
X004066Y001365D01*
X004317Y001365D01*
X004549Y001461D01*
X004726Y001638D01*
X004822Y001870D01*
X004822Y002120D01*
X004726Y002352D01*
X004549Y002529D01*
X004317Y002625D01*
X004066Y002625D01*
X003835Y002529D01*
X003658Y002352D01*
X003562Y002120D01*
X003562Y001870D01*
X003562Y001924D02*
X001854Y001924D01*
X001854Y002082D02*
X003562Y002082D01*
X003612Y002241D02*
X001854Y002241D01*
X001854Y002399D02*
X003705Y002399D01*
X003904Y002558D02*
X001854Y002558D01*
X001854Y002716D02*
X021268Y002716D01*
X021268Y002558D02*
X008692Y002558D01*
X008759Y002490D02*
X008624Y002625D01*
X007634Y002625D01*
X007499Y002490D01*
X007499Y001500D01*
X007634Y001365D01*
X008624Y001365D01*
X008759Y001500D01*
X008759Y002490D01*
X008759Y002399D02*
X021268Y002399D01*
X021268Y002241D02*
X008759Y002241D01*
X008759Y002082D02*
X021268Y002082D01*
X021268Y001924D02*
X008759Y001924D01*
X008759Y001765D02*
X019033Y001765D01*
X019115Y001847D02*
X018828Y001560D01*
X018828Y001154D01*
X019115Y000867D01*
X019521Y000867D01*
X019808Y001154D01*
X019808Y001560D01*
X019521Y001847D01*
X019115Y001847D01*
X018874Y001607D02*
X008759Y001607D01*
X008707Y001448D02*
X018828Y001448D01*
X018828Y001290D02*
X002044Y001290D01*
X002044Y001448D02*
X003866Y001448D01*
X003689Y001607D02*
X001992Y001607D01*
X002044Y001131D02*
X018851Y001131D01*
X019009Y000973D02*
X002044Y000973D01*
X002044Y000814D02*
X038283Y000814D01*
X038283Y000973D02*
X022626Y000973D01*
X022595Y000942D02*
X022733Y001080D01*
X022808Y001260D01*
X022808Y001455D01*
X022733Y001635D01*
X022595Y001773D01*
X022415Y001847D01*
X022220Y001847D01*
X022040Y001773D01*
X021976Y001708D01*
X021848Y001836D01*
X021848Y003134D01*
X022115Y002867D01*
X022521Y002867D01*
X022808Y003154D01*
X022808Y003560D01*
X022521Y003847D01*
X022115Y003847D01*
X021848Y003580D01*
X021848Y005619D01*
X022086Y005619D01*
X022221Y005754D01*
X022221Y006496D01*
X022086Y006630D01*
X021423Y006630D01*
X021289Y006496D01*
X021289Y006036D01*
X021268Y005986D01*
X021268Y001658D01*
X021312Y001551D01*
X021394Y001470D01*
X021752Y001111D01*
X021859Y001067D01*
X021915Y001067D01*
X022040Y000942D01*
X022220Y000867D01*
X022415Y000867D01*
X022595Y000942D01*
X022754Y001131D02*
X038283Y001131D01*
X038283Y001290D02*
X022808Y001290D01*
X022808Y001448D02*
X038283Y001448D01*
X038283Y001607D02*
X022745Y001607D01*
X022603Y001765D02*
X038283Y001765D01*
X038283Y001924D02*
X021848Y001924D01*
X021848Y002082D02*
X038283Y002082D01*
X038283Y002241D02*
X021848Y002241D01*
X021848Y002399D02*
X038283Y002399D01*
X038283Y002558D02*
X021848Y002558D01*
X021848Y002716D02*
X038283Y002716D01*
X038283Y002875D02*
X022528Y002875D01*
X022687Y003033D02*
X038283Y003033D01*
X038283Y003192D02*
X036738Y003192D01*
X036711Y003164D02*
X036845Y003299D01*
X036845Y004140D01*
X036711Y004274D01*
X035870Y004274D01*
X035735Y004140D01*
X035735Y003299D01*
X035870Y003164D01*
X036711Y003164D01*
X036845Y003350D02*
X038283Y003350D01*
X038283Y003509D02*
X036845Y003509D01*
X036845Y003667D02*
X038283Y003667D01*
X038283Y003826D02*
X036845Y003826D01*
X036845Y003984D02*
X038283Y003984D01*
X038283Y004143D02*
X036842Y004143D01*
X035738Y004143D02*
X026765Y004143D01*
X026714Y004194D02*
X026508Y004279D01*
X026285Y004279D01*
X026079Y004194D01*
X025922Y004037D01*
X025837Y003831D01*
X025837Y003608D01*
X025922Y003402D01*
X026079Y003245D01*
X026285Y003159D01*
X026508Y003159D01*
X026714Y003245D01*
X026871Y003402D01*
X026957Y003608D01*
X026957Y003831D01*
X026871Y004037D01*
X026714Y004194D01*
X026893Y003984D02*
X035735Y003984D01*
X035735Y003826D02*
X026957Y003826D01*
X026957Y003667D02*
X035735Y003667D01*
X035735Y003509D02*
X026915Y003509D01*
X026819Y003350D02*
X035735Y003350D01*
X035843Y003192D02*
X026586Y003192D01*
X026208Y003192D02*
X022808Y003192D01*
X022808Y003350D02*
X025974Y003350D01*
X025878Y003509D02*
X022808Y003509D01*
X022701Y003667D02*
X025837Y003667D01*
X025837Y003826D02*
X022542Y003826D01*
X022093Y003826D02*
X021848Y003826D01*
X021848Y003984D02*
X025900Y003984D01*
X026028Y004143D02*
X021848Y004143D01*
X021848Y004301D02*
X038283Y004301D01*
X038283Y004460D02*
X021848Y004460D01*
X021848Y004618D02*
X038283Y004618D01*
X038283Y004777D02*
X021848Y004777D01*
X021848Y004935D02*
X038283Y004935D01*
X038283Y005094D02*
X021848Y005094D01*
X021848Y005252D02*
X038283Y005252D01*
X038283Y005411D02*
X021848Y005411D01*
X021848Y005569D02*
X038283Y005569D01*
X038283Y005728D02*
X022195Y005728D01*
X022221Y005886D02*
X038283Y005886D01*
X038283Y006045D02*
X022221Y006045D01*
X022221Y006203D02*
X029777Y006203D01*
X029733Y006246D02*
X029868Y006111D01*
X030649Y006111D01*
X030784Y006246D01*
X030784Y007027D01*
X030649Y007162D01*
X030569Y007162D01*
X030569Y008431D01*
X030522Y008545D01*
X030246Y008820D01*
X030159Y008907D01*
X030045Y008955D01*
X029780Y008955D01*
X029780Y008976D01*
X029645Y009111D01*
X028667Y009111D01*
X028566Y009009D01*
X028464Y009111D01*
X027486Y009111D01*
X027385Y009009D01*
X027283Y009111D01*
X026305Y009111D01*
X026170Y008976D01*
X026170Y008825D01*
X025381Y008825D01*
X025381Y008935D01*
X025246Y009070D01*
X025136Y009070D01*
X025136Y009619D01*
X025623Y010106D01*
X026524Y010106D01*
X026524Y009998D01*
X026446Y009921D01*
X026446Y009258D01*
X026581Y009123D01*
X027086Y009123D01*
X027188Y009225D01*
X027289Y009123D01*
X028267Y009123D01*
X028402Y009258D01*
X028402Y009921D01*
X028305Y010018D01*
X028305Y010145D01*
X028351Y010126D01*
X028906Y010126D01*
X028906Y010018D01*
X028808Y009921D01*
X028808Y009258D01*
X028943Y009123D01*
X029448Y009123D01*
X029583Y009258D01*
X029583Y009921D01*
X029486Y010018D01*
X029486Y010316D01*
X029442Y010423D01*
X029360Y010505D01*
X029254Y010610D01*
X029328Y010684D01*
X029328Y011504D01*
X029193Y011639D01*
X028332Y011639D01*
X028198Y011504D01*
X028198Y011379D01*
X027085Y011379D01*
X027085Y012153D01*
X026950Y012288D01*
X025559Y012288D01*
X025537Y012266D01*
X025515Y012288D01*
X025048Y012288D01*
X025048Y012569D01*
X024913Y012704D01*
X024388Y012704D01*
X024388Y015209D01*
X024719Y015541D01*
X025236Y015541D01*
X025371Y015675D01*
X025371Y016653D01*
X025236Y016788D01*
X025214Y016788D01*
X025214Y016800D01*
X025236Y016800D01*
X025371Y016935D01*
X025371Y017199D01*
X025377Y017254D01*
X025371Y017276D01*
X025371Y017913D01*
X025249Y018034D01*
X025371Y018156D01*
X025371Y019134D01*
X025325Y019180D01*
X025325Y019320D01*
X025425Y019320D01*
X025560Y019455D01*
X025560Y019635D01*
X025671Y019681D01*
X026069Y020080D01*
X026185Y020080D01*
X026185Y020048D01*
X026320Y019914D01*
X027225Y019914D01*
X027225Y019255D01*
X027220Y019229D01*
X027225Y019200D01*
X025325Y019200D01*
X025371Y019042D02*
X027233Y019042D01*
X027233Y019149D02*
X027233Y018715D01*
X027256Y018692D01*
X027233Y018669D01*
X027233Y018006D01*
X027276Y017963D01*
X027233Y017921D01*
X027233Y017258D01*
X027296Y017196D01*
X027233Y017134D01*
X027233Y016471D01*
X027241Y016463D01*
X027233Y016456D01*
X027233Y015793D01*
X027368Y015659D01*
X027874Y015659D01*
X028008Y015793D01*
X028008Y015819D01*
X028112Y015862D01*
X028387Y016138D01*
X028474Y016225D01*
X028521Y016339D01*
X028521Y019343D01*
X029049Y019870D01*
X030124Y019870D01*
X030237Y019917D01*
X030592Y020272D01*
X030679Y020359D01*
X030726Y020473D01*
X030726Y022352D01*
X030945Y022352D01*
X031079Y022486D01*
X031079Y023228D01*
X030945Y023363D01*
X030726Y023363D01*
X030726Y023391D01*
X030679Y023505D01*
X030285Y023899D01*
X030220Y023964D01*
X036902Y023964D01*
X037390Y023477D01*
X037390Y016568D01*
X037020Y016199D01*
X035095Y016199D01*
X035095Y016220D01*
X035018Y016298D01*
X035018Y016314D01*
X035095Y016392D01*
X035095Y017055D01*
X035018Y017132D01*
X035018Y017133D01*
X035095Y017211D01*
X035095Y017874D01*
X035053Y017916D01*
X035095Y017959D01*
X035095Y018622D01*
X035033Y018684D01*
X035095Y018746D01*
X035095Y019069D01*
X035437Y019411D01*
X035480Y019514D01*
X035480Y019596D01*
X035544Y019532D01*
X035875Y019532D01*
X036010Y019666D01*
X036010Y020189D01*
X036532Y020189D01*
X036667Y020324D01*
X036667Y020654D01*
X036577Y020744D01*
X036667Y020834D01*
X036667Y021674D01*
X036532Y021809D01*
X035850Y021809D01*
X035760Y021719D01*
X035760Y022331D01*
X035671Y022420D01*
X035686Y022433D01*
X035689Y022435D01*
X035726Y022472D01*
X035764Y022508D01*
X035765Y022511D01*
X035768Y022514D01*
X035788Y022562D01*
X035809Y022610D01*
X035809Y022613D01*
X035810Y022616D01*
X035810Y022669D01*
X035812Y022721D01*
X035810Y022724D01*
X035810Y023029D01*
X035816Y023052D01*
X035810Y023085D01*
X035810Y023118D01*
X035802Y023139D01*
X035798Y023162D01*
X035780Y023190D01*
X035768Y023220D01*
X035751Y023237D01*
X035739Y023257D01*
X035712Y023276D01*
X035689Y023299D01*
X035668Y023308D01*
X035614Y023347D01*
X035591Y023370D01*
X035569Y023379D01*
X035550Y023393D01*
X035518Y023400D01*
X035488Y023413D01*
X035464Y023413D01*
X035442Y023418D01*
X035409Y023413D01*
X034606Y023413D01*
X034556Y023415D01*
X034551Y023413D01*
X034546Y023413D01*
X034499Y023393D01*
X034451Y023376D01*
X034447Y023372D01*
X034443Y023370D01*
X034407Y023334D01*
X034278Y023215D01*
X034273Y023213D01*
X034238Y023177D01*
X034200Y023142D01*
X034198Y023138D01*
X034195Y023134D01*
X034175Y023087D01*
X034154Y023041D01*
X034154Y023036D01*
X034152Y023031D01*
X034152Y022980D01*
X034150Y022930D01*
X034152Y022925D01*
X034152Y021848D01*
X034132Y021829D01*
X033071Y021829D01*
X032957Y021781D01*
X032870Y021694D01*
X032646Y021470D01*
X032598Y021356D01*
X032598Y020497D01*
X032498Y020497D01*
X032363Y020362D01*
X032363Y019463D01*
X032498Y019328D01*
X032626Y019328D01*
X032626Y019268D01*
X032604Y019268D01*
X032470Y019134D01*
X032470Y018156D01*
X032571Y018054D01*
X032470Y017952D01*
X032470Y016974D01*
X032571Y016873D01*
X032470Y016771D01*
X032470Y016255D01*
X031973Y015758D01*
X031886Y015671D01*
X031839Y015557D01*
X031839Y014859D01*
X031833Y014859D01*
X031698Y014724D01*
X031698Y014223D01*
X031588Y014334D01*
X031670Y014415D01*
X031670Y014921D01*
X031535Y015056D01*
X030872Y015056D01*
X030737Y014921D01*
X030737Y014415D01*
X030819Y014334D01*
X030698Y014212D01*
X030698Y013549D01*
X030833Y013415D01*
X031574Y013415D01*
X031698Y013538D01*
X031698Y013042D01*
X031574Y013166D01*
X030833Y013166D01*
X030698Y013031D01*
X030698Y012368D01*
X030833Y012233D01*
X031574Y012233D01*
X031709Y012368D01*
X031709Y012414D01*
X031773Y012414D01*
X031833Y012354D01*
X032393Y012354D01*
X032411Y012371D01*
X033370Y012371D01*
X033504Y012506D01*
X033504Y013917D01*
X033370Y014052D01*
X033071Y014052D01*
X033183Y014164D01*
X033183Y014635D01*
X033386Y014635D01*
X033487Y014737D01*
X033553Y014671D01*
X033553Y014164D01*
X033674Y014043D01*
X033548Y013917D01*
X033548Y012506D01*
X033683Y012371D01*
X034740Y012371D01*
X034875Y012506D01*
X034875Y013917D01*
X034740Y014052D01*
X034491Y014052D01*
X034603Y014164D01*
X034603Y014724D01*
X034506Y014821D01*
X035060Y014821D01*
X034963Y014724D01*
X034963Y014164D01*
X035098Y014029D01*
X035888Y014029D01*
X036023Y014164D01*
X036023Y014724D01*
X035926Y014821D01*
X036403Y014821D01*
X036593Y014631D01*
X036593Y014114D01*
X036113Y014114D01*
X035978Y013979D01*
X035978Y013199D01*
X036113Y013064D01*
X036673Y013064D01*
X036808Y013199D01*
X036808Y013483D01*
X036850Y013483D01*
X036953Y013525D01*
X037032Y013604D01*
X037110Y013683D01*
X037153Y013786D01*
X037153Y014803D01*
X037110Y014906D01*
X037032Y014984D01*
X036677Y015339D01*
X036574Y015381D01*
X034229Y015381D01*
X034229Y015433D01*
X034094Y015567D01*
X033589Y015567D01*
X033487Y015466D01*
X033386Y015567D01*
X032880Y015567D01*
X032745Y015433D01*
X032745Y015267D01*
X032659Y015181D01*
X032580Y015102D01*
X032538Y014999D01*
X032538Y014859D01*
X032459Y014859D01*
X032459Y015367D01*
X032751Y015659D01*
X033267Y015659D01*
X033402Y015793D01*
X033402Y016771D01*
X033301Y016873D01*
X033402Y016974D01*
X033402Y017952D01*
X033301Y018054D01*
X033402Y018156D01*
X033402Y019134D01*
X033267Y019268D01*
X033246Y019268D01*
X033246Y019328D01*
X033319Y019328D01*
X033453Y019463D01*
X033453Y020362D01*
X033319Y020497D01*
X033218Y020497D01*
X033218Y021166D01*
X033261Y021209D01*
X033732Y021209D01*
X033732Y020324D01*
X033867Y020189D01*
X034113Y020189D01*
X034390Y019912D01*
X034390Y019666D01*
X034410Y019646D01*
X034410Y019499D01*
X034320Y019409D01*
X034320Y018746D01*
X034382Y018684D01*
X034320Y018622D01*
X034320Y017959D01*
X034363Y017916D01*
X034320Y017874D01*
X034320Y017211D01*
X034398Y017133D01*
X034398Y017132D01*
X034320Y017055D01*
X034320Y016392D01*
X034398Y016314D01*
X034398Y016298D01*
X034320Y016220D01*
X034320Y015557D01*
X034455Y015422D01*
X034960Y015422D01*
X035095Y015557D01*
X035095Y015579D01*
X037210Y015579D01*
X037324Y015626D01*
X037875Y016177D01*
X037962Y016264D01*
X038010Y016378D01*
X038010Y023667D01*
X037962Y023781D01*
X037293Y024450D01*
X037206Y024537D01*
X037092Y024584D01*
X031158Y024584D01*
X031158Y024803D01*
X031023Y024938D01*
X030282Y024938D01*
X030147Y024803D01*
X030147Y024584D01*
X021654Y024584D01*
X021536Y024703D01*
X021041Y024703D01*
X021041Y025158D01*
X020906Y025293D01*
X020320Y025293D01*
X020185Y025158D01*
X020185Y024572D01*
X020303Y024454D01*
X020303Y024055D01*
X020350Y023941D01*
X020437Y023854D01*
X020831Y023461D01*
X020945Y023413D01*
X022626Y023413D01*
X022626Y022048D01*
X022508Y021930D01*
X022508Y021343D01*
X022643Y021209D01*
X023229Y021209D01*
X023364Y021343D01*
X023364Y021930D01*
X023246Y022048D01*
X023246Y023413D01*
X029894Y023413D01*
X030106Y023201D01*
X030106Y020663D01*
X030024Y020581D01*
X030024Y021035D01*
X029923Y021137D01*
X030024Y021238D01*
X030024Y021744D01*
X029889Y021879D01*
X029379Y021879D01*
X029379Y022256D01*
X029244Y022390D01*
X028581Y022390D01*
X028446Y022256D01*
X028446Y022072D01*
X028327Y022191D01*
X027805Y022191D01*
X027805Y022713D01*
X027670Y022848D01*
X027340Y022848D01*
X027250Y022758D01*
X027160Y022848D01*
X026320Y022848D01*
X026185Y022713D01*
X026185Y022191D01*
X025662Y022191D01*
X025528Y022056D01*
X025528Y021881D01*
X025085Y021881D01*
X024982Y021839D01*
X024821Y021677D01*
X024742Y021598D01*
X024699Y021496D01*
X024699Y020489D01*
X024604Y020489D01*
X024470Y020354D01*
X024470Y019455D01*
X024604Y019320D01*
X024705Y019320D01*
X024705Y019268D01*
X024573Y019268D01*
X024438Y019134D01*
X024438Y018156D01*
X024559Y018034D01*
X024438Y017913D01*
X024438Y016935D01*
X024573Y016800D01*
X024594Y016800D01*
X024594Y016788D01*
X024573Y016788D01*
X024438Y016653D01*
X024438Y016136D01*
X023815Y015513D01*
X023768Y015399D01*
X023768Y012402D01*
X023815Y012288D01*
X023902Y012201D01*
X024012Y012091D01*
X024126Y012044D01*
X024218Y012044D01*
X024218Y011376D01*
X023717Y011376D01*
X023717Y011456D01*
X023582Y011591D01*
X022919Y011591D01*
X022785Y011456D01*
X022785Y010715D01*
X022919Y010580D01*
X023582Y010580D01*
X023717Y010715D01*
X023717Y010796D01*
X024218Y010796D01*
X024218Y010684D01*
X024352Y010549D01*
X025189Y010549D01*
X024563Y009923D01*
X024516Y009809D01*
X024516Y009070D01*
X024405Y009070D01*
X024271Y008935D01*
X024271Y008094D01*
X024405Y007960D01*
X025246Y007960D01*
X025381Y008094D01*
X025381Y008205D01*
X026279Y008205D01*
X026305Y008178D01*
X027283Y008178D01*
X027385Y008280D01*
X027486Y008178D01*
X028464Y008178D01*
X028566Y008280D01*
X028667Y008178D01*
X029645Y008178D01*
X029780Y008313D01*
X029780Y008335D01*
X029855Y008335D01*
X029949Y008241D01*
X029949Y007162D01*
X029868Y007162D01*
X029733Y007027D01*
X029733Y006246D01*
X029733Y006362D02*
X022221Y006362D01*
X022197Y006520D02*
X029733Y006520D01*
X029733Y006679D02*
X001854Y006679D01*
X001854Y006837D02*
X029733Y006837D01*
X029733Y006996D02*
X001854Y006996D01*
X001854Y007154D02*
X029860Y007154D01*
X029949Y007313D02*
X001854Y007313D01*
X001854Y007471D02*
X029949Y007471D01*
X029949Y007630D02*
X001854Y007630D01*
X001854Y007788D02*
X029949Y007788D01*
X029949Y007947D02*
X001854Y007947D01*
X001854Y008105D02*
X024271Y008105D01*
X024271Y008264D02*
X016542Y008264D01*
X016571Y008293D02*
X016437Y008159D01*
X015656Y008159D01*
X015521Y008293D01*
X015521Y009074D01*
X015656Y009209D01*
X016437Y009209D01*
X016571Y009074D01*
X016571Y008293D01*
X016571Y008422D02*
X024271Y008422D01*
X024271Y008581D02*
X016571Y008581D01*
X016571Y008739D02*
X024271Y008739D01*
X024271Y008898D02*
X016571Y008898D01*
X016571Y009056D02*
X024392Y009056D01*
X024516Y009215D02*
X001854Y009215D01*
X001854Y009373D02*
X024516Y009373D01*
X024516Y009532D02*
X001854Y009532D01*
X001854Y009690D02*
X024516Y009690D01*
X024532Y009849D02*
X001854Y009849D01*
X001854Y010007D02*
X024647Y010007D01*
X024806Y010166D02*
X001854Y010166D01*
X001854Y010324D02*
X024964Y010324D01*
X025123Y010483D02*
X001854Y010483D01*
X001854Y010641D02*
X021008Y010641D01*
X021030Y010619D02*
X020895Y010754D01*
X020895Y011417D01*
X021030Y011552D01*
X021535Y011552D01*
X021617Y011470D01*
X021738Y011591D01*
X022401Y011591D01*
X022536Y011456D01*
X022536Y010715D01*
X022401Y010580D01*
X021738Y010580D01*
X021617Y010701D01*
X021535Y010619D01*
X021030Y010619D01*
X020895Y010800D02*
X001854Y010800D01*
X001854Y010958D02*
X020895Y010958D01*
X020895Y011117D02*
X001854Y011117D01*
X001854Y011275D02*
X020895Y011275D01*
X020911Y011434D02*
X001854Y011434D01*
X001854Y011592D02*
X024218Y011592D01*
X024218Y011434D02*
X023717Y011434D01*
X024218Y011751D02*
X001854Y011751D01*
X001854Y011909D02*
X024218Y011909D01*
X024068Y012068D02*
X001854Y012068D01*
X001854Y012226D02*
X023877Y012226D01*
X023775Y012385D02*
X001854Y012385D01*
X001854Y012543D02*
X023768Y012543D01*
X023768Y012702D02*
X001854Y012702D01*
X001854Y012860D02*
X023768Y012860D01*
X023768Y013019D02*
X001854Y013019D01*
X001854Y013177D02*
X023768Y013177D01*
X023768Y013336D02*
X001854Y013336D01*
X001854Y013494D02*
X023768Y013494D01*
X023768Y013653D02*
X001854Y013653D01*
X001854Y013811D02*
X023768Y013811D01*
X023768Y013970D02*
X001854Y013970D01*
X001854Y014128D02*
X023768Y014128D01*
X023768Y014287D02*
X001854Y014287D01*
X001854Y014445D02*
X023768Y014445D01*
X023768Y014604D02*
X001854Y014604D01*
X001854Y014762D02*
X023768Y014762D01*
X023768Y014921D02*
X001854Y014921D01*
X001854Y015079D02*
X023768Y015079D01*
X023768Y015238D02*
X001854Y015238D01*
X001854Y015396D02*
X023768Y015396D01*
X023856Y015555D02*
X001854Y015555D01*
X001854Y015713D02*
X024015Y015713D01*
X024173Y015872D02*
X001854Y015872D01*
X001854Y016030D02*
X012048Y016030D01*
X011919Y016189D02*
X001854Y016189D01*
X001854Y016347D02*
X011919Y016347D01*
X011919Y016506D02*
X001854Y016506D01*
X001854Y016664D02*
X011919Y016664D01*
X011919Y016823D02*
X001854Y016823D01*
X001854Y016981D02*
X011919Y016981D01*
X011999Y017140D02*
X001854Y017140D01*
X001854Y017298D02*
X012183Y017298D01*
X012743Y017298D02*
X024438Y017298D01*
X024438Y017140D02*
X012928Y017140D01*
X013008Y016981D02*
X024438Y016981D01*
X024551Y016823D02*
X013008Y016823D01*
X013008Y016664D02*
X024449Y016664D01*
X024438Y016506D02*
X013008Y016506D01*
X013008Y016347D02*
X024438Y016347D01*
X024438Y016189D02*
X013008Y016189D01*
X012879Y016030D02*
X024332Y016030D01*
X024904Y016164D02*
X024078Y015337D01*
X024078Y012463D01*
X024187Y012354D01*
X024633Y012354D01*
X024633Y011994D01*
X024633Y011644D01*
X024771Y011782D01*
X025176Y011782D01*
X024633Y011644D02*
X024629Y011640D01*
X024629Y011361D01*
X024783Y011207D01*
X024783Y011094D01*
X024913Y010964D01*
X025353Y010964D01*
X025495Y010416D02*
X026912Y010416D01*
X026834Y010337D01*
X026834Y009589D01*
X026446Y009532D02*
X025136Y009532D01*
X025136Y009373D02*
X026446Y009373D01*
X026490Y009215D02*
X025136Y009215D01*
X025260Y009056D02*
X026250Y009056D01*
X026170Y008898D02*
X025381Y008898D01*
X024826Y008515D02*
X024826Y009747D01*
X025495Y010416D01*
X025524Y010007D02*
X026524Y010007D01*
X026446Y009849D02*
X025366Y009849D01*
X025207Y009690D02*
X026446Y009690D01*
X026912Y010416D02*
X027267Y010416D01*
X027463Y010613D01*
X027463Y010945D01*
X027483Y010964D01*
X027085Y011434D02*
X028198Y011434D01*
X028286Y011592D02*
X027085Y011592D01*
X027085Y011751D02*
X028526Y011751D01*
X028498Y011779D02*
X028632Y011644D01*
X029193Y011644D01*
X029328Y011779D01*
X029328Y012209D01*
X029193Y012344D01*
X028632Y012344D01*
X028498Y012209D01*
X028498Y011779D01*
X028498Y011909D02*
X027085Y011909D01*
X027085Y012068D02*
X028498Y012068D01*
X028515Y012226D02*
X027012Y012226D01*
X027260Y012371D02*
X027394Y012506D01*
X027394Y013917D01*
X027260Y014052D01*
X027011Y014052D01*
X027123Y014164D01*
X027123Y014724D01*
X026988Y014859D01*
X026207Y014859D01*
X026073Y014724D01*
X026073Y014164D01*
X026194Y014043D01*
X026068Y013917D01*
X026068Y012506D01*
X026203Y012371D01*
X027260Y012371D01*
X027273Y012385D02*
X030698Y012385D01*
X030698Y012543D02*
X027394Y012543D01*
X027394Y012702D02*
X030698Y012702D01*
X030698Y012860D02*
X027394Y012860D01*
X027394Y013019D02*
X030698Y013019D01*
X030753Y013494D02*
X029938Y013494D01*
X029938Y013431D02*
X029938Y014094D01*
X029803Y014229D01*
X029297Y014229D01*
X029182Y014114D01*
X028632Y014114D01*
X028498Y013979D01*
X028498Y013549D01*
X028498Y013199D01*
X028632Y013064D01*
X029193Y013064D01*
X029328Y013199D01*
X029328Y013296D01*
X029803Y013296D01*
X029938Y013431D01*
X029842Y013336D02*
X031698Y013336D01*
X031698Y013494D02*
X031654Y013494D01*
X031698Y013177D02*
X029306Y013177D01*
X029938Y013653D02*
X030698Y013653D01*
X030698Y013811D02*
X029938Y013811D01*
X029938Y013970D02*
X030698Y013970D01*
X030698Y014128D02*
X029904Y014128D01*
X029196Y014128D02*
X028507Y014128D01*
X028543Y014164D02*
X028543Y014724D01*
X028408Y014859D01*
X027617Y014859D01*
X027483Y014724D01*
X027483Y014164D01*
X027617Y014029D01*
X028048Y014029D01*
X028408Y014029D01*
X028543Y014164D01*
X028543Y014287D02*
X030772Y014287D01*
X030737Y014445D02*
X028543Y014445D01*
X028543Y014604D02*
X030737Y014604D01*
X030737Y014762D02*
X028505Y014762D01*
X028498Y013970D02*
X027342Y013970D01*
X027394Y013811D02*
X028498Y013811D01*
X028498Y013653D02*
X027394Y013653D01*
X027394Y013494D02*
X028498Y013494D01*
X028498Y013336D02*
X027394Y013336D01*
X027394Y013177D02*
X028519Y013177D01*
X029311Y012226D02*
X032978Y012226D01*
X033039Y012288D02*
X032905Y012153D01*
X032905Y011306D01*
X032843Y011244D01*
X032843Y010684D01*
X032918Y010608D01*
X032599Y010608D01*
X032485Y010561D01*
X031649Y009726D01*
X031602Y009612D01*
X031602Y009070D01*
X031492Y009070D01*
X031357Y008935D01*
X031357Y008094D01*
X031492Y007960D01*
X032333Y007960D01*
X032467Y008094D01*
X032467Y008335D01*
X033651Y008335D01*
X033651Y008313D01*
X033786Y008178D01*
X034763Y008178D01*
X034865Y008280D01*
X034967Y008178D01*
X035945Y008178D01*
X036046Y008280D01*
X036148Y008178D01*
X037126Y008178D01*
X037260Y008313D01*
X037260Y008355D01*
X037304Y008355D01*
X037331Y008328D01*
X037331Y007032D01*
X037225Y006927D01*
X037162Y006927D01*
X037162Y007027D01*
X037027Y007162D01*
X036246Y007162D01*
X036111Y007027D01*
X036111Y006246D01*
X036246Y006111D01*
X037027Y006111D01*
X037162Y006246D01*
X037162Y006347D01*
X037403Y006347D01*
X037510Y006391D01*
X037591Y006472D01*
X037867Y006748D01*
X037911Y006855D01*
X037911Y008505D01*
X037867Y008612D01*
X037785Y008694D01*
X037588Y008890D01*
X037482Y008935D01*
X037260Y008935D01*
X037260Y008976D01*
X037126Y009111D01*
X036148Y009111D01*
X036046Y009009D01*
X035945Y009111D01*
X034967Y009111D01*
X034865Y009009D01*
X034763Y009111D01*
X033786Y009111D01*
X033651Y008976D01*
X033651Y008955D01*
X032448Y008955D01*
X032333Y009070D01*
X032222Y009070D01*
X032222Y009422D01*
X032789Y009988D01*
X033994Y009988D01*
X033926Y009921D01*
X033926Y009258D01*
X034061Y009123D01*
X034567Y009123D01*
X034668Y009225D01*
X034770Y009123D01*
X035748Y009123D01*
X035882Y009258D01*
X035882Y009921D01*
X035748Y010056D01*
X035593Y010056D01*
X035593Y010277D01*
X035651Y010218D01*
X035730Y010139D01*
X035833Y010097D01*
X036396Y010097D01*
X036396Y010028D01*
X036289Y009921D01*
X036289Y009258D01*
X036423Y009123D01*
X036929Y009123D01*
X037064Y009258D01*
X037064Y009921D01*
X036956Y010028D01*
X036956Y010354D01*
X036913Y010457D01*
X036835Y010535D01*
X036756Y010614D01*
X036653Y010657D01*
X036005Y010657D01*
X036000Y010661D01*
X036023Y010684D01*
X036023Y011244D01*
X035888Y011379D01*
X034566Y011379D01*
X034566Y012153D01*
X034431Y012288D01*
X033039Y012288D01*
X032905Y012068D02*
X029328Y012068D01*
X029328Y011909D02*
X032905Y011909D01*
X032905Y011751D02*
X029300Y011751D01*
X029240Y011592D02*
X032905Y011592D01*
X032905Y011434D02*
X029328Y011434D01*
X029328Y011275D02*
X032874Y011275D01*
X032843Y011117D02*
X029328Y011117D01*
X029328Y010958D02*
X032843Y010958D01*
X032843Y010800D02*
X029328Y010800D01*
X029285Y010641D02*
X032886Y010641D01*
X032660Y010298D02*
X034393Y010298D01*
X034314Y010219D01*
X034314Y009589D01*
X033926Y009532D02*
X032332Y009532D01*
X032222Y009373D02*
X033926Y009373D01*
X033970Y009215D02*
X032222Y009215D01*
X032346Y009056D02*
X033731Y009056D01*
X033926Y009690D02*
X032491Y009690D01*
X032649Y009849D02*
X033926Y009849D01*
X034393Y010298D02*
X034786Y010298D01*
X034944Y010456D01*
X034944Y010945D01*
X034963Y010964D01*
X034566Y011434D02*
X038283Y011434D01*
X038283Y011592D02*
X037626Y011592D01*
X037559Y011525D02*
X037693Y011660D01*
X037693Y012323D01*
X037559Y012457D01*
X037053Y012457D01*
X036919Y012323D01*
X036919Y012271D01*
X036746Y012271D01*
X036673Y012344D01*
X036113Y012344D01*
X035978Y012209D01*
X035978Y011779D01*
X036113Y011644D01*
X036673Y011644D01*
X036740Y011711D01*
X036919Y011711D01*
X036919Y011660D01*
X037053Y011525D01*
X037559Y011525D01*
X037693Y011751D02*
X038283Y011751D01*
X038283Y011909D02*
X037693Y011909D01*
X037693Y012068D02*
X038283Y012068D01*
X038283Y012226D02*
X037693Y012226D01*
X037631Y012385D02*
X038283Y012385D01*
X038283Y012543D02*
X034875Y012543D01*
X034875Y012702D02*
X038283Y012702D01*
X038283Y012860D02*
X034875Y012860D01*
X034875Y013019D02*
X038283Y013019D01*
X038283Y013177D02*
X036786Y013177D01*
X036808Y013336D02*
X038283Y013336D01*
X038283Y013494D02*
X036877Y013494D01*
X037080Y013653D02*
X038283Y013653D01*
X038283Y013811D02*
X037153Y013811D01*
X037153Y013970D02*
X038283Y013970D01*
X038283Y014128D02*
X037153Y014128D01*
X037153Y014287D02*
X038283Y014287D01*
X038283Y014445D02*
X037153Y014445D01*
X037153Y014604D02*
X038283Y014604D01*
X038283Y014762D02*
X037153Y014762D01*
X037095Y014921D02*
X038283Y014921D01*
X038283Y015079D02*
X036937Y015079D01*
X036778Y015238D02*
X038283Y015238D01*
X038283Y015396D02*
X034229Y015396D01*
X034323Y015555D02*
X034107Y015555D01*
X034320Y015713D02*
X033322Y015713D01*
X033398Y015555D02*
X033576Y015555D01*
X033402Y015872D02*
X034320Y015872D01*
X034320Y016030D02*
X033402Y016030D01*
X033402Y016189D02*
X034320Y016189D01*
X034365Y016347D02*
X033402Y016347D01*
X033402Y016506D02*
X034320Y016506D01*
X034320Y016664D02*
X033402Y016664D01*
X033351Y016823D02*
X034320Y016823D01*
X034320Y016981D02*
X033402Y016981D01*
X033402Y017140D02*
X034391Y017140D01*
X034320Y017298D02*
X033402Y017298D01*
X033402Y017457D02*
X034320Y017457D01*
X034320Y017615D02*
X033402Y017615D01*
X033402Y017774D02*
X034320Y017774D01*
X034347Y017932D02*
X033402Y017932D01*
X033337Y018091D02*
X034320Y018091D01*
X034320Y018249D02*
X033402Y018249D01*
X033402Y018408D02*
X034320Y018408D01*
X034320Y018566D02*
X033402Y018566D01*
X033402Y018725D02*
X034342Y018725D01*
X034320Y018883D02*
X033402Y018883D01*
X033402Y019042D02*
X034320Y019042D01*
X034320Y019200D02*
X033336Y019200D01*
X033349Y019359D02*
X034320Y019359D01*
X034410Y019517D02*
X033453Y019517D01*
X033453Y019676D02*
X034390Y019676D01*
X034390Y019834D02*
X033453Y019834D01*
X033453Y019993D02*
X034309Y019993D01*
X034150Y020151D02*
X033453Y020151D01*
X033453Y020310D02*
X033747Y020310D01*
X033732Y020468D02*
X033347Y020468D01*
X033218Y020627D02*
X033732Y020627D01*
X033732Y020785D02*
X033218Y020785D01*
X033218Y020944D02*
X033732Y020944D01*
X033732Y021102D02*
X033218Y021102D01*
X032908Y021294D02*
X033133Y021519D01*
X034199Y021519D01*
X034209Y021509D01*
X034152Y021895D02*
X030726Y021895D01*
X030726Y022053D02*
X034152Y022053D01*
X034152Y022212D02*
X030726Y022212D01*
X030963Y022370D02*
X031444Y022370D01*
X031463Y022352D02*
X032126Y022352D01*
X032247Y022473D01*
X032329Y022391D01*
X032834Y022391D01*
X032969Y022526D01*
X032969Y023189D01*
X032834Y023323D01*
X032329Y023323D01*
X032247Y023241D01*
X032126Y023363D01*
X031463Y023363D01*
X031328Y023228D01*
X031328Y022486D01*
X031463Y022352D01*
X031328Y022529D02*
X031079Y022529D01*
X031079Y022687D02*
X031328Y022687D01*
X031328Y022846D02*
X031079Y022846D01*
X031079Y023004D02*
X031328Y023004D01*
X031328Y023163D02*
X031079Y023163D01*
X030986Y023321D02*
X031421Y023321D01*
X032167Y023321D02*
X032326Y023321D01*
X032837Y023321D02*
X034393Y023321D01*
X034222Y023163D02*
X032969Y023163D01*
X032969Y023004D02*
X034152Y023004D01*
X034152Y022846D02*
X032969Y022846D01*
X032969Y022687D02*
X034152Y022687D01*
X034152Y022529D02*
X032969Y022529D01*
X032912Y021736D02*
X030726Y021736D01*
X030726Y021578D02*
X032753Y021578D01*
X032625Y021419D02*
X030726Y021419D01*
X030726Y021261D02*
X032598Y021261D01*
X032598Y021102D02*
X030726Y021102D01*
X030726Y020944D02*
X032598Y020944D01*
X032598Y020785D02*
X030726Y020785D01*
X030726Y020627D02*
X032598Y020627D01*
X032470Y020468D02*
X030724Y020468D01*
X030630Y020310D02*
X032363Y020310D01*
X032363Y020151D02*
X030471Y020151D01*
X030313Y019993D02*
X032363Y019993D01*
X032363Y019834D02*
X029013Y019834D01*
X028854Y019676D02*
X032363Y019676D01*
X032363Y019517D02*
X028696Y019517D01*
X028537Y019359D02*
X032468Y019359D01*
X032536Y019200D02*
X028521Y019200D01*
X028521Y019042D02*
X032470Y019042D01*
X032470Y018883D02*
X028521Y018883D01*
X028521Y018725D02*
X032470Y018725D01*
X032470Y018566D02*
X028521Y018566D01*
X028521Y018408D02*
X032470Y018408D01*
X032470Y018249D02*
X028521Y018249D01*
X028521Y018091D02*
X032535Y018091D01*
X032470Y017932D02*
X028521Y017932D01*
X028521Y017774D02*
X032470Y017774D01*
X032470Y017615D02*
X028521Y017615D01*
X028521Y017457D02*
X032470Y017457D01*
X032470Y017298D02*
X028521Y017298D01*
X028521Y017140D02*
X032470Y017140D01*
X032470Y016981D02*
X028521Y016981D01*
X028521Y016823D02*
X032521Y016823D01*
X032470Y016664D02*
X028521Y016664D01*
X028521Y016506D02*
X032470Y016506D01*
X032470Y016347D02*
X028521Y016347D01*
X028438Y016189D02*
X032404Y016189D01*
X032245Y016030D02*
X028279Y016030D01*
X028121Y015872D02*
X032087Y015872D01*
X031928Y015713D02*
X027928Y015713D01*
X027936Y016125D02*
X027621Y016125D01*
X027621Y016802D01*
X027621Y017589D01*
X027621Y018337D01*
X027621Y019046D01*
X027233Y019149D02*
X027225Y019169D01*
X027225Y019200D01*
X027225Y019359D02*
X025463Y019359D01*
X025560Y019517D02*
X027225Y019517D01*
X027225Y019676D02*
X025657Y019676D01*
X025824Y019834D02*
X027225Y019834D01*
X026485Y020390D02*
X025941Y020390D01*
X025495Y019944D01*
X025054Y019944D01*
X025015Y019904D01*
X025015Y018692D01*
X024904Y018645D01*
X024904Y017424D01*
X024904Y016164D01*
X025371Y016189D02*
X027233Y016189D01*
X027233Y016347D02*
X025371Y016347D01*
X025371Y016506D02*
X027233Y016506D01*
X027233Y016664D02*
X025360Y016664D01*
X025258Y016823D02*
X027233Y016823D01*
X027233Y016981D02*
X025371Y016981D01*
X025371Y017140D02*
X027239Y017140D01*
X027233Y017298D02*
X025371Y017298D01*
X025371Y017457D02*
X027233Y017457D01*
X027233Y017615D02*
X025371Y017615D01*
X025371Y017774D02*
X027233Y017774D01*
X027245Y017932D02*
X025352Y017932D01*
X025306Y018091D02*
X027233Y018091D01*
X027233Y018249D02*
X025371Y018249D01*
X025371Y018408D02*
X027233Y018408D01*
X027233Y018566D02*
X025371Y018566D01*
X025371Y018725D02*
X027233Y018725D01*
X027233Y018883D02*
X025371Y018883D01*
X024566Y019359D02*
X022568Y019359D01*
X022623Y019517D02*
X024470Y019517D01*
X024470Y019676D02*
X022623Y019676D01*
X022562Y019834D02*
X024470Y019834D01*
X024470Y019993D02*
X022423Y019993D01*
X022355Y020151D02*
X024470Y020151D01*
X024470Y020310D02*
X022546Y020310D01*
X022613Y020468D02*
X024584Y020468D01*
X024699Y020627D02*
X022623Y020627D01*
X022582Y020785D02*
X024699Y020785D01*
X024699Y020944D02*
X022472Y020944D01*
X022591Y021261D02*
X021699Y021261D01*
X021540Y021102D02*
X024699Y021102D01*
X024699Y021261D02*
X023281Y021261D01*
X023364Y021419D02*
X024699Y021419D01*
X024733Y021578D02*
X023364Y021578D01*
X023364Y021736D02*
X024879Y021736D01*
X025528Y021895D02*
X023364Y021895D01*
X023246Y022053D02*
X025528Y022053D01*
X026185Y022212D02*
X023246Y022212D01*
X023246Y022370D02*
X026185Y022370D01*
X026185Y022529D02*
X023246Y022529D01*
X023246Y022687D02*
X026185Y022687D01*
X026317Y022846D02*
X023246Y022846D01*
X023246Y023004D02*
X030106Y023004D01*
X030106Y022846D02*
X027673Y022846D01*
X027805Y022687D02*
X030106Y022687D01*
X030106Y022529D02*
X027805Y022529D01*
X027805Y022370D02*
X028561Y022370D01*
X028446Y022212D02*
X027805Y022212D01*
X027510Y021896D02*
X027510Y020866D01*
X027090Y020866D01*
X026830Y020866D01*
X026480Y020866D01*
X026480Y021896D01*
X027160Y021896D01*
X027250Y021986D01*
X027340Y021896D01*
X027510Y021896D01*
X027510Y021895D02*
X026480Y021895D01*
X026480Y021736D02*
X027510Y021736D01*
X027510Y021578D02*
X026480Y021578D01*
X026480Y021419D02*
X027510Y021419D01*
X027510Y021261D02*
X026480Y021261D01*
X026480Y021102D02*
X027510Y021102D01*
X027510Y020944D02*
X026480Y020944D01*
X026004Y020871D02*
X026004Y020453D01*
X025941Y020390D01*
X025982Y019993D02*
X026241Y019993D01*
X024505Y019200D02*
X022436Y019200D01*
X022322Y019042D02*
X024438Y019042D01*
X024438Y018883D02*
X022532Y018883D01*
X022548Y018867D02*
X022410Y019005D01*
X022230Y019079D01*
X021515Y019079D01*
X021335Y019005D01*
X021198Y018867D01*
X021123Y018687D01*
X021123Y018492D01*
X021198Y018312D01*
X021335Y018174D01*
X021515Y018099D01*
X022230Y018099D01*
X022410Y018174D01*
X022548Y018312D01*
X022623Y018492D01*
X022623Y018687D01*
X022548Y018867D01*
X022607Y018725D02*
X024438Y018725D01*
X024438Y018566D02*
X022623Y018566D01*
X022588Y018408D02*
X024438Y018408D01*
X024438Y018249D02*
X022485Y018249D01*
X021424Y019042D02*
X020264Y019042D01*
X020264Y019200D02*
X021309Y019200D01*
X021178Y019359D02*
X020177Y019359D01*
X020117Y019517D02*
X021123Y019517D01*
X021123Y019676D02*
X020116Y019676D01*
X020264Y018883D02*
X021214Y018883D01*
X021138Y018725D02*
X020264Y018725D01*
X020222Y018566D02*
X021123Y018566D01*
X021158Y018408D02*
X017737Y018408D01*
X017825Y018566D02*
X018823Y018566D01*
X018247Y018725D02*
X017825Y018725D01*
X017825Y018883D02*
X018089Y018883D01*
X018010Y019042D02*
X017825Y019042D01*
X017812Y019200D02*
X018010Y019200D01*
X018570Y019359D02*
X018868Y019359D01*
X018876Y019517D02*
X018570Y019517D01*
X018570Y019676D02*
X018876Y019676D01*
X018918Y019834D02*
X018570Y019834D01*
X018570Y019993D02*
X018876Y019993D01*
X018876Y020151D02*
X018570Y020151D01*
X018570Y020310D02*
X018893Y020310D01*
X018876Y020468D02*
X018570Y020468D01*
X018515Y020627D02*
X018876Y020627D01*
X018876Y020785D02*
X018357Y020785D01*
X018409Y020927D02*
X018409Y020927D01*
X018426Y020944D02*
X018876Y020944D01*
X018876Y021102D02*
X018585Y021102D01*
X018743Y021261D02*
X018876Y021261D01*
X018902Y021419D02*
X019003Y021419D01*
X019261Y021578D02*
X020268Y021578D01*
X020652Y021243D02*
X021243Y021243D01*
X021755Y021755D01*
X021275Y021736D02*
X019280Y021736D01*
X019280Y021895D02*
X021275Y021895D01*
X021275Y022053D02*
X019280Y022053D01*
X019844Y022212D02*
X021386Y022212D01*
X021139Y021578D02*
X021037Y021578D01*
X022123Y022212D02*
X022626Y022212D01*
X022626Y022370D02*
X019918Y022370D01*
X019918Y022529D02*
X022626Y022529D01*
X022626Y022687D02*
X019918Y022687D01*
X019863Y022846D02*
X022626Y022846D01*
X022626Y023004D02*
X019918Y023004D01*
X019918Y023163D02*
X022626Y023163D01*
X022626Y023321D02*
X019918Y023321D01*
X019918Y023480D02*
X020812Y023480D01*
X020654Y023638D02*
X019304Y023638D01*
X019304Y023797D02*
X020495Y023797D01*
X020345Y023955D02*
X019304Y023955D01*
X019304Y024114D02*
X020303Y024114D01*
X020303Y024272D02*
X019224Y024272D01*
X019000Y024748D02*
X018082Y024748D01*
X018294Y024906D02*
X018798Y024906D01*
X018688Y025065D02*
X018453Y025065D01*
X018611Y025223D02*
X018680Y025223D01*
X018608Y024272D02*
X018516Y024272D01*
X017900Y024272D02*
X016779Y024272D01*
X016827Y024431D02*
X020303Y024431D01*
X020185Y024589D02*
X016827Y024589D01*
X016710Y024114D02*
X016657Y024114D01*
X016551Y023955D02*
X013966Y023955D01*
X014060Y024072D02*
X013922Y024209D01*
X013847Y024389D01*
X013847Y025104D01*
X013922Y025284D01*
X014060Y025422D01*
X014240Y025497D01*
X014435Y025497D01*
X014615Y025422D01*
X014753Y025284D01*
X014827Y025104D01*
X014827Y024389D01*
X014753Y024209D01*
X014615Y024072D01*
X014435Y023997D01*
X014240Y023997D01*
X014060Y024072D01*
X014018Y024114D02*
X013540Y024114D01*
X013421Y024272D02*
X013896Y024272D01*
X013847Y024431D02*
X005929Y024431D01*
X006087Y024589D02*
X013847Y024589D01*
X013847Y024748D02*
X006246Y024748D01*
X006404Y024906D02*
X013847Y024906D01*
X013847Y025065D02*
X006563Y025065D01*
X006088Y025382D02*
X000660Y025382D01*
X000660Y025540D02*
X006246Y025540D01*
X005866Y025699D02*
X008373Y025699D01*
X008532Y025857D02*
X005961Y025857D01*
X005961Y026016D02*
X008561Y026016D01*
X009121Y026016D02*
X010208Y026016D01*
X010050Y026174D02*
X009121Y026174D01*
X009121Y026333D02*
X009979Y026333D01*
X009979Y026491D02*
X009121Y026491D01*
X009121Y026650D02*
X009979Y026650D01*
X009979Y026808D02*
X009121Y026808D01*
X009733Y026967D02*
X009979Y026967D01*
X009979Y027125D02*
X009859Y027125D01*
X009859Y027284D02*
X009979Y027284D01*
X009979Y027442D02*
X009859Y027442D01*
X009856Y027601D02*
X009923Y027601D01*
X009764Y027759D02*
X009655Y027759D01*
X009606Y027918D02*
X009531Y027918D01*
X009447Y028076D02*
X009373Y028076D01*
X009289Y028235D02*
X008731Y028235D01*
X008731Y028393D02*
X009130Y028393D01*
X008972Y028552D02*
X008731Y028552D01*
X008731Y028710D02*
X008813Y028710D01*
X009288Y029027D02*
X010884Y029027D01*
X010884Y028869D02*
X009446Y028869D01*
X009605Y028710D02*
X010884Y028710D01*
X010884Y028552D02*
X009763Y028552D01*
X009922Y028393D02*
X010884Y028393D01*
X010884Y028235D02*
X010080Y028235D01*
X010239Y028076D02*
X010884Y028076D01*
X010884Y027918D02*
X010397Y027918D01*
X010521Y027759D02*
X010886Y027759D01*
X010986Y027601D02*
X010539Y027601D01*
X010539Y027442D02*
X011161Y027442D01*
X011336Y027284D02*
X010539Y027284D01*
X010539Y027125D02*
X011446Y027125D01*
X011425Y026967D02*
X010539Y026967D01*
X010539Y026808D02*
X010577Y026808D01*
X011279Y026808D02*
X011425Y026808D01*
X012045Y026399D02*
X012045Y026139D01*
X011834Y025928D01*
X012578Y025223D02*
X013897Y025223D01*
X014019Y025382D02*
X012785Y025382D01*
X012944Y025540D02*
X015086Y025540D01*
X015179Y025654D02*
X015179Y025654D01*
X015224Y025699D02*
X013102Y025699D01*
X013256Y025857D02*
X015382Y025857D01*
X015895Y026333D02*
X014605Y026333D01*
X014605Y026491D02*
X015895Y026491D01*
X015895Y026650D02*
X015277Y026650D01*
X015472Y026808D02*
X015932Y026808D01*
X015630Y026967D02*
X016858Y026967D01*
X016858Y027125D02*
X015696Y027125D01*
X015696Y027284D02*
X016858Y027284D01*
X016858Y027442D02*
X015696Y027442D01*
X015696Y027601D02*
X016858Y027601D01*
X016858Y027759D02*
X015696Y027759D01*
X015696Y027918D02*
X016858Y027918D01*
X016858Y028076D02*
X015696Y028076D01*
X015696Y028235D02*
X016949Y028235D01*
X016728Y028393D02*
X015677Y028393D01*
X015551Y028552D02*
X016570Y028552D01*
X016411Y028710D02*
X015392Y028710D01*
X015219Y028869D02*
X016293Y028869D01*
X016278Y029027D02*
X014276Y029027D01*
X013981Y029186D02*
X016278Y029186D01*
X016278Y029344D02*
X013981Y029344D01*
X013981Y029503D02*
X016278Y029503D01*
X016278Y029661D02*
X013981Y029661D01*
X013925Y029820D02*
X016168Y029820D01*
X016010Y029978D02*
X013613Y029978D01*
X013454Y030137D02*
X015851Y030137D01*
X015693Y030295D02*
X013075Y030295D01*
X013075Y030454D02*
X015534Y030454D01*
X015376Y030612D02*
X013075Y030612D01*
X013075Y030771D02*
X015217Y030771D01*
X015584Y031196D02*
X018017Y031196D01*
X017765Y030945D01*
X017753Y030914D01*
X017553Y030914D01*
X017419Y030779D01*
X017419Y029959D01*
X017553Y029824D01*
X018452Y029824D01*
X018587Y029959D01*
X018587Y030779D01*
X018537Y030829D01*
X021430Y030829D01*
X022534Y029725D01*
X022534Y027831D01*
X021922Y027220D01*
X021120Y027220D01*
X021165Y027265D01*
X021323Y027423D01*
X021366Y027526D01*
X021366Y027637D01*
X021366Y028385D01*
X021323Y028488D01*
X021244Y028567D01*
X021059Y028752D01*
X020956Y028795D01*
X019816Y028795D01*
X019816Y028842D01*
X019712Y028946D01*
X019712Y028976D01*
X019669Y029079D01*
X019591Y029158D01*
X019532Y029216D01*
X019532Y029669D01*
X019397Y029804D01*
X018498Y029804D01*
X018479Y029785D01*
X018452Y029812D01*
X017553Y029812D01*
X017419Y029677D01*
X017419Y028977D01*
X017278Y028977D01*
X017143Y028842D01*
X017143Y028806D01*
X017107Y028806D01*
X016838Y029076D01*
X016838Y029881D01*
X016795Y029984D01*
X016717Y030063D01*
X015584Y031196D01*
X015692Y031088D02*
X017908Y031088D01*
X017759Y030929D02*
X015851Y030929D01*
X016009Y030771D02*
X017419Y030771D01*
X017419Y030612D02*
X016168Y030612D01*
X016326Y030454D02*
X017419Y030454D01*
X017419Y030295D02*
X016485Y030295D01*
X016643Y030137D02*
X017419Y030137D01*
X017419Y029978D02*
X016798Y029978D01*
X016838Y029820D02*
X022440Y029820D01*
X022534Y029661D02*
X019532Y029661D01*
X019532Y029503D02*
X022534Y029503D01*
X022534Y029344D02*
X019532Y029344D01*
X019563Y029186D02*
X022534Y029186D01*
X022534Y029027D02*
X019691Y029027D01*
X019789Y028869D02*
X022534Y028869D01*
X022534Y028710D02*
X021101Y028710D01*
X021260Y028552D02*
X022534Y028552D01*
X022534Y028393D02*
X021362Y028393D01*
X021366Y028235D02*
X022534Y028235D01*
X022534Y028076D02*
X021366Y028076D01*
X021366Y027918D02*
X022534Y027918D01*
X022461Y027759D02*
X021366Y027759D01*
X021366Y027601D02*
X022303Y027601D01*
X022144Y027442D02*
X021331Y027442D01*
X021183Y027284D02*
X021986Y027284D01*
X022461Y026967D02*
X038283Y026967D01*
X038283Y027125D02*
X022619Y027125D01*
X022778Y027284D02*
X038283Y027284D01*
X038283Y027442D02*
X022936Y027442D01*
X023069Y027601D02*
X038283Y027601D01*
X038283Y027759D02*
X023094Y027759D01*
X023094Y027918D02*
X038283Y027918D01*
X038283Y028076D02*
X023094Y028076D01*
X023094Y028235D02*
X038283Y028235D01*
X038283Y028393D02*
X023094Y028393D01*
X023094Y028552D02*
X038283Y028552D01*
X038283Y028710D02*
X023094Y028710D01*
X023094Y028869D02*
X038283Y028869D01*
X038283Y029027D02*
X023094Y029027D01*
X023094Y029186D02*
X038283Y029186D01*
X038283Y029344D02*
X023094Y029344D01*
X023094Y029503D02*
X038283Y029503D01*
X038283Y029661D02*
X023094Y029661D01*
X023094Y029820D02*
X038283Y029820D01*
X038283Y029978D02*
X023060Y029978D01*
X022915Y030137D02*
X038283Y030137D01*
X038283Y030295D02*
X022756Y030295D01*
X022598Y030454D02*
X038283Y030454D01*
X038283Y030612D02*
X022439Y030612D01*
X022281Y030771D02*
X038283Y030771D01*
X038283Y030929D02*
X022122Y030929D01*
X021964Y031088D02*
X038283Y031088D01*
X038283Y026808D02*
X031043Y026808D01*
X030984Y026867D02*
X030321Y026867D01*
X030186Y026732D01*
X030186Y026226D01*
X030294Y026119D01*
X030282Y026119D01*
X030147Y025984D01*
X030147Y025321D01*
X030282Y025186D01*
X031023Y025186D01*
X031158Y025321D01*
X031158Y025984D01*
X031023Y026119D01*
X031011Y026119D01*
X031119Y026226D01*
X031119Y026732D01*
X030984Y026867D01*
X031119Y026650D02*
X038283Y026650D01*
X038283Y026491D02*
X031119Y026491D01*
X031119Y026333D02*
X038283Y026333D01*
X038283Y026174D02*
X031066Y026174D01*
X031126Y026016D02*
X038283Y026016D01*
X038283Y025857D02*
X031158Y025857D01*
X031158Y025699D02*
X038283Y025699D01*
X038283Y025540D02*
X031158Y025540D01*
X031158Y025382D02*
X038283Y025382D01*
X038283Y025223D02*
X031060Y025223D01*
X031055Y024906D02*
X038283Y024906D01*
X038283Y024748D02*
X031158Y024748D01*
X031158Y024589D02*
X038283Y024589D01*
X038283Y024431D02*
X037313Y024431D01*
X037471Y024272D02*
X038283Y024272D01*
X038283Y024114D02*
X037630Y024114D01*
X037788Y023955D02*
X038283Y023955D01*
X038283Y023797D02*
X037947Y023797D01*
X038010Y023638D02*
X038283Y023638D01*
X038283Y023480D02*
X038010Y023480D01*
X038010Y023321D02*
X038283Y023321D01*
X038283Y023163D02*
X038010Y023163D01*
X038010Y023004D02*
X038283Y023004D01*
X038283Y022846D02*
X038010Y022846D01*
X038010Y022687D02*
X038283Y022687D01*
X038283Y022529D02*
X038010Y022529D01*
X038010Y022370D02*
X038283Y022370D01*
X038283Y022212D02*
X038010Y022212D01*
X038010Y022053D02*
X038283Y022053D01*
X038283Y021895D02*
X038010Y021895D01*
X038010Y021736D02*
X038283Y021736D01*
X038283Y021578D02*
X038010Y021578D01*
X038010Y021419D02*
X038283Y021419D01*
X038283Y021261D02*
X038010Y021261D01*
X038010Y021102D02*
X038283Y021102D01*
X038283Y020944D02*
X038010Y020944D01*
X038010Y020785D02*
X038283Y020785D01*
X038283Y020627D02*
X038010Y020627D01*
X038010Y020468D02*
X038283Y020468D01*
X038283Y020310D02*
X038010Y020310D01*
X038010Y020151D02*
X038283Y020151D01*
X038283Y019993D02*
X038010Y019993D01*
X038010Y019834D02*
X038283Y019834D01*
X038283Y019676D02*
X038010Y019676D01*
X038010Y019517D02*
X038283Y019517D01*
X038283Y019359D02*
X038010Y019359D01*
X038010Y019200D02*
X038283Y019200D01*
X038283Y019042D02*
X038010Y019042D01*
X038010Y018883D02*
X038283Y018883D01*
X038283Y018725D02*
X038010Y018725D01*
X038010Y018566D02*
X038283Y018566D01*
X038283Y018408D02*
X038010Y018408D01*
X038010Y018249D02*
X038283Y018249D01*
X038283Y018091D02*
X038010Y018091D01*
X038010Y017932D02*
X038283Y017932D01*
X038283Y017774D02*
X038010Y017774D01*
X038010Y017615D02*
X038283Y017615D01*
X038283Y017457D02*
X038010Y017457D01*
X038010Y017298D02*
X038283Y017298D01*
X038283Y017140D02*
X038010Y017140D01*
X038010Y016981D02*
X038283Y016981D01*
X038283Y016823D02*
X038010Y016823D01*
X038010Y016664D02*
X038283Y016664D01*
X038283Y016506D02*
X038010Y016506D01*
X037997Y016347D02*
X038283Y016347D01*
X038283Y016189D02*
X037887Y016189D01*
X037728Y016030D02*
X038283Y016030D01*
X038283Y015872D02*
X037570Y015872D01*
X037411Y015713D02*
X038283Y015713D01*
X038283Y015555D02*
X035092Y015555D01*
X034708Y015889D02*
X037149Y015889D01*
X037700Y016440D01*
X037700Y023605D01*
X037030Y024274D01*
X030652Y024274D01*
X030652Y024471D01*
X030652Y024274D02*
X021243Y024274D01*
X021650Y024589D02*
X030147Y024589D01*
X030147Y024748D02*
X021041Y024748D01*
X021041Y024906D02*
X030250Y024906D01*
X030245Y025223D02*
X020977Y025223D01*
X021041Y025065D02*
X038283Y025065D01*
X037070Y023797D02*
X030388Y023797D01*
X030229Y023955D02*
X036911Y023955D01*
X037228Y023638D02*
X030546Y023638D01*
X030690Y023480D02*
X037387Y023480D01*
X037390Y023321D02*
X035650Y023321D01*
X035797Y023163D02*
X037390Y023163D01*
X037390Y023004D02*
X035810Y023004D01*
X035810Y022846D02*
X037390Y022846D01*
X037390Y022687D02*
X035811Y022687D01*
X035774Y022529D02*
X037390Y022529D01*
X037390Y022370D02*
X035721Y022370D01*
X035760Y022212D02*
X037390Y022212D01*
X037390Y022053D02*
X035760Y022053D01*
X035760Y021895D02*
X037390Y021895D01*
X037390Y021736D02*
X036605Y021736D01*
X036667Y021578D02*
X037390Y021578D01*
X037390Y021419D02*
X036667Y021419D01*
X036667Y021261D02*
X037390Y021261D01*
X037390Y021102D02*
X036667Y021102D01*
X036667Y020944D02*
X037390Y020944D01*
X037390Y020785D02*
X036618Y020785D01*
X036667Y020627D02*
X037390Y020627D01*
X037390Y020468D02*
X036667Y020468D01*
X036653Y020310D02*
X037390Y020310D01*
X037390Y020151D02*
X036010Y020151D01*
X036010Y019993D02*
X037390Y019993D01*
X037390Y019834D02*
X036010Y019834D01*
X036010Y019676D02*
X037390Y019676D01*
X037390Y019517D02*
X035480Y019517D01*
X035384Y019359D02*
X037390Y019359D01*
X037390Y019200D02*
X035226Y019200D01*
X035095Y019042D02*
X037390Y019042D01*
X037390Y018883D02*
X035095Y018883D01*
X035073Y018725D02*
X037390Y018725D01*
X037390Y018566D02*
X035095Y018566D01*
X035095Y018408D02*
X037390Y018408D01*
X037390Y018249D02*
X035095Y018249D01*
X035095Y018091D02*
X037390Y018091D01*
X037390Y017932D02*
X035068Y017932D01*
X035095Y017774D02*
X037390Y017774D01*
X037390Y017615D02*
X035095Y017615D01*
X035095Y017457D02*
X037390Y017457D01*
X037390Y017298D02*
X035095Y017298D01*
X035024Y017140D02*
X037390Y017140D01*
X037390Y016981D02*
X035095Y016981D01*
X035095Y016823D02*
X037390Y016823D01*
X037390Y016664D02*
X035095Y016664D01*
X035095Y016506D02*
X037327Y016506D01*
X037168Y016347D02*
X035050Y016347D01*
X034708Y016723D02*
X034708Y015889D01*
X034708Y016723D02*
X034708Y017542D01*
X034708Y018290D01*
X034708Y019078D01*
X034685Y020484D02*
X034685Y020904D01*
X034685Y021164D01*
X034685Y021514D01*
X035625Y021514D01*
X035715Y021604D01*
X035715Y020834D01*
X035805Y020744D01*
X035715Y020654D01*
X035715Y020484D01*
X035544Y020484D01*
X035455Y020394D01*
X035365Y020484D01*
X034685Y020484D01*
X034685Y020627D02*
X035715Y020627D01*
X035763Y020785D02*
X034685Y020785D01*
X034685Y020944D02*
X035715Y020944D01*
X035715Y021102D02*
X034685Y021102D01*
X034685Y021261D02*
X035715Y021261D01*
X035715Y021419D02*
X034685Y021419D01*
X035688Y021578D02*
X035715Y021578D01*
X035760Y021736D02*
X035777Y021736D01*
X035529Y020468D02*
X035381Y020468D01*
X034152Y022370D02*
X032144Y022370D01*
X032908Y021294D02*
X032908Y019912D01*
X032936Y019885D01*
X032936Y018645D01*
X032936Y017463D01*
X032936Y016282D01*
X032149Y015495D01*
X032149Y014428D01*
X032263Y014314D01*
X032841Y013735D01*
X032841Y013211D01*
X033504Y013177D02*
X033548Y013177D01*
X033548Y013019D02*
X033504Y013019D01*
X033504Y012860D02*
X033548Y012860D01*
X033548Y012702D02*
X033504Y012702D01*
X033504Y012543D02*
X033548Y012543D01*
X033670Y012385D02*
X033383Y012385D01*
X033504Y013336D02*
X033548Y013336D01*
X033548Y013494D02*
X033504Y013494D01*
X033504Y013653D02*
X033548Y013653D01*
X033548Y013811D02*
X033504Y013811D01*
X033452Y013970D02*
X033601Y013970D01*
X033589Y014128D02*
X033147Y014128D01*
X033183Y014287D02*
X033553Y014287D01*
X033553Y014445D02*
X033183Y014445D01*
X033183Y014604D02*
X033553Y014604D01*
X032833Y014444D02*
X032393Y014444D01*
X032263Y014314D01*
X032113Y014164D01*
X032113Y013764D01*
X032113Y013414D01*
X032113Y013054D01*
X032113Y012704D01*
X031802Y012385D02*
X031709Y012385D01*
X031698Y014287D02*
X031635Y014287D01*
X031670Y014445D02*
X031698Y014445D01*
X031698Y014604D02*
X031670Y014604D01*
X031670Y014762D02*
X031736Y014762D01*
X031670Y014921D02*
X031839Y014921D01*
X031839Y015079D02*
X024388Y015079D01*
X024388Y014921D02*
X030737Y014921D01*
X031839Y015238D02*
X024416Y015238D01*
X024575Y015396D02*
X031839Y015396D01*
X031839Y015555D02*
X025250Y015555D01*
X025371Y015713D02*
X027314Y015713D01*
X027233Y015872D02*
X025371Y015872D01*
X025371Y016030D02*
X027233Y016030D01*
X027936Y016125D02*
X028211Y016400D01*
X028211Y019471D01*
X028920Y020180D01*
X030062Y020180D01*
X030416Y020534D01*
X030416Y023093D01*
X030613Y022897D01*
X030613Y022857D01*
X030416Y023093D02*
X030416Y023330D01*
X030023Y023723D01*
X022936Y023723D01*
X022936Y021637D01*
X022508Y021578D02*
X022235Y021578D01*
X022235Y021736D02*
X022508Y021736D01*
X022508Y021895D02*
X022235Y021895D01*
X022235Y022053D02*
X022626Y022053D01*
X022508Y021419D02*
X022235Y021419D01*
X023246Y023163D02*
X030106Y023163D01*
X029986Y023321D02*
X023246Y023321D01*
X022936Y023723D02*
X021007Y023723D01*
X020613Y024117D01*
X020613Y024865D01*
X020185Y024906D02*
X019882Y024906D01*
X019882Y025065D02*
X020185Y025065D01*
X020250Y025223D02*
X019882Y025223D01*
X019804Y025382D02*
X030147Y025382D01*
X030147Y025540D02*
X019882Y025540D01*
X019882Y025699D02*
X030147Y025699D01*
X030147Y025857D02*
X019882Y025857D01*
X019878Y026016D02*
X030178Y026016D01*
X030239Y026174D02*
X019979Y026174D01*
X020038Y026333D02*
X030186Y026333D01*
X030186Y026491D02*
X020038Y026491D01*
X020031Y026650D02*
X030186Y026650D01*
X030262Y026808D02*
X022302Y026808D01*
X020731Y027975D02*
X020377Y027975D01*
X018587Y029978D02*
X022281Y029978D01*
X022123Y030137D02*
X018587Y030137D01*
X018587Y030295D02*
X021964Y030295D01*
X021806Y030454D02*
X018587Y030454D01*
X018587Y030612D02*
X021647Y030612D01*
X021489Y030771D02*
X018587Y030771D01*
X017419Y029661D02*
X016838Y029661D01*
X016838Y029503D02*
X017419Y029503D01*
X017419Y029344D02*
X016838Y029344D01*
X016838Y029186D02*
X017419Y029186D01*
X017419Y029027D02*
X016886Y029027D01*
X017045Y028869D02*
X017169Y028869D01*
X016858Y026808D02*
X016791Y026808D01*
X017345Y026306D02*
X017478Y026438D01*
X017345Y026306D02*
X017345Y025928D01*
X016917Y025857D02*
X016828Y025857D01*
X016917Y026016D02*
X013295Y026016D01*
X013295Y026174D02*
X013384Y026174D01*
X013365Y026333D02*
X013295Y026333D01*
X013295Y026491D02*
X013365Y026491D01*
X013408Y026650D02*
X013295Y026650D01*
X013295Y026808D02*
X013365Y026808D01*
X013365Y026967D02*
X013295Y026967D01*
X014585Y026174D02*
X015987Y026174D01*
X015897Y025223D02*
X015778Y025223D01*
X015827Y025065D02*
X015847Y025065D01*
X015847Y024906D02*
X015827Y024906D01*
X015827Y024748D02*
X015847Y024748D01*
X015847Y024589D02*
X015827Y024589D01*
X015827Y024431D02*
X015847Y024431D01*
X015896Y024272D02*
X015779Y024272D01*
X015657Y024114D02*
X016018Y024114D01*
X016393Y023797D02*
X014125Y023797D01*
X014200Y023638D02*
X016234Y023638D01*
X016076Y023480D02*
X014200Y023480D01*
X014200Y023321D02*
X015917Y023321D01*
X015765Y023163D02*
X014200Y023163D01*
X014200Y023004D02*
X015727Y023004D01*
X015727Y022846D02*
X014200Y022846D01*
X014200Y022687D02*
X015727Y022687D01*
X015727Y022529D02*
X014145Y022529D01*
X013986Y022370D02*
X015727Y022370D01*
X015727Y022212D02*
X013823Y022212D01*
X013823Y022053D02*
X015727Y022053D01*
X015727Y021895D02*
X015326Y021895D01*
X015331Y021736D02*
X015727Y021736D01*
X015727Y021578D02*
X015384Y021578D01*
X015384Y021419D02*
X015727Y021419D01*
X015727Y021261D02*
X015384Y021261D01*
X015384Y021102D02*
X015667Y021102D01*
X016142Y020785D02*
X016593Y020785D01*
X016593Y020627D02*
X015983Y020627D01*
X016267Y020944D02*
X016593Y020944D01*
X016593Y021102D02*
X016287Y021102D01*
X016287Y021261D02*
X016593Y021261D01*
X016593Y021419D02*
X016287Y021419D01*
X016287Y021578D02*
X016593Y021578D01*
X016627Y021736D02*
X016287Y021736D01*
X016287Y021895D02*
X016774Y021895D01*
X016933Y022053D02*
X016287Y022053D01*
X016287Y022212D02*
X017091Y022212D01*
X017127Y022370D02*
X016287Y022370D01*
X016287Y022529D02*
X017247Y022529D01*
X017567Y022687D02*
X016287Y022687D01*
X016287Y022846D02*
X018111Y022846D01*
X018111Y023004D02*
X016392Y023004D01*
X016551Y023163D02*
X018111Y023163D01*
X018111Y023321D02*
X016709Y023321D01*
X016868Y023480D02*
X017870Y023480D01*
X019833Y024748D02*
X020185Y024748D01*
X019498Y021086D02*
X019496Y021087D01*
X017345Y019587D02*
X017345Y018842D01*
X017345Y018841D01*
X016865Y018883D02*
X014122Y018883D01*
X014186Y019042D02*
X016865Y019042D01*
X016879Y019200D02*
X014186Y019200D01*
X014463Y019359D02*
X015659Y019359D01*
X015659Y019517D02*
X014526Y019517D01*
X014526Y019676D02*
X015659Y019676D01*
X015659Y019834D02*
X014524Y019834D01*
X014526Y019993D02*
X016783Y019993D01*
X016631Y020151D02*
X014526Y020151D01*
X014526Y020310D02*
X016593Y020310D01*
X016593Y020468D02*
X015352Y020468D01*
X014390Y021578D02*
X013820Y021578D01*
X013823Y021736D02*
X014399Y021736D01*
X014404Y021895D02*
X013823Y021895D01*
X012567Y022687D02*
X012548Y022687D01*
X012548Y022846D02*
X012655Y022846D01*
X012655Y023004D02*
X012548Y023004D01*
X012023Y023797D02*
X008456Y023797D01*
X008614Y023638D02*
X011514Y023638D01*
X011379Y023480D02*
X008721Y023480D01*
X008728Y023321D02*
X011379Y023321D01*
X011379Y023163D02*
X008728Y023163D01*
X008728Y023004D02*
X011379Y023004D01*
X011379Y022846D02*
X008728Y022846D01*
X008728Y022687D02*
X011379Y022687D01*
X011506Y022529D02*
X008728Y022529D01*
X008728Y022370D02*
X011379Y022370D01*
X011382Y021578D02*
X009226Y021578D01*
X009347Y021419D02*
X011433Y021419D01*
X011346Y021261D02*
X009347Y021261D01*
X009347Y021102D02*
X011346Y021102D01*
X011346Y020944D02*
X009347Y020944D01*
X009377Y020785D02*
X010940Y020785D01*
X010782Y020627D02*
X009479Y020627D01*
X009479Y020468D02*
X010623Y020468D01*
X010465Y020310D02*
X009479Y020310D01*
X009479Y020151D02*
X010306Y020151D01*
X010148Y019993D02*
X009479Y019993D01*
X009831Y019676D02*
X008739Y019676D01*
X008737Y019834D02*
X009989Y019834D01*
X009672Y019517D02*
X008739Y019517D01*
X008675Y019359D02*
X009514Y019359D01*
X009400Y019200D02*
X007886Y019200D01*
X007886Y019042D02*
X009388Y019042D01*
X009388Y018883D02*
X007886Y018883D01*
X007886Y018725D02*
X009388Y018725D01*
X009388Y018566D02*
X007805Y018566D01*
X006179Y019627D02*
X005572Y019627D01*
X005456Y019511D01*
X005456Y019156D01*
X005219Y018920D01*
X004739Y019200D02*
X004056Y019200D01*
X004056Y019359D02*
X004832Y019359D01*
X005086Y019517D02*
X005146Y019517D01*
X004266Y019517D02*
X004056Y019517D01*
X004119Y019676D02*
X004131Y019676D01*
X004119Y019834D02*
X004131Y019834D01*
X004119Y019993D02*
X004131Y019993D01*
X004119Y020151D02*
X004131Y020151D01*
X004119Y020310D02*
X004131Y020310D01*
X004652Y020785D02*
X004964Y020785D01*
X005018Y020944D02*
X004516Y020944D01*
X004516Y021102D02*
X005018Y021102D01*
X005018Y021261D02*
X004500Y021261D01*
X004182Y021419D02*
X005018Y021419D01*
X005018Y021578D02*
X004182Y021578D01*
X004182Y021736D02*
X005018Y021736D01*
X005018Y021895D02*
X004182Y021895D01*
X004182Y022053D02*
X005018Y022053D01*
X005018Y022212D02*
X004175Y022212D01*
X005018Y022370D02*
X000660Y022370D01*
X000660Y022212D02*
X001997Y022212D01*
X001989Y022053D02*
X000660Y022053D01*
X000660Y021895D02*
X001989Y021895D01*
X001989Y021736D02*
X000660Y021736D01*
X000660Y021578D02*
X001989Y021578D01*
X001989Y021419D02*
X000660Y021419D01*
X000660Y021261D02*
X001715Y021261D01*
X001698Y021102D02*
X000660Y021102D01*
X000660Y020944D02*
X001698Y020944D01*
X000660Y022529D02*
X005018Y022529D01*
X005018Y022687D02*
X000660Y022687D01*
X000660Y022846D02*
X005018Y022846D01*
X005018Y023004D02*
X000660Y023004D01*
X000660Y023163D02*
X005018Y023163D01*
X005018Y023321D02*
X000660Y023321D01*
X000660Y023480D02*
X005018Y023480D01*
X005018Y023638D02*
X000660Y023638D01*
X000660Y023797D02*
X005018Y023797D01*
X005018Y023955D02*
X000660Y023955D01*
X000660Y024114D02*
X005018Y024114D01*
X005027Y024272D02*
X000660Y024272D01*
X000660Y024431D02*
X005137Y024431D01*
X005295Y024589D02*
X000660Y024589D01*
X000660Y024748D02*
X005454Y024748D01*
X005612Y024906D02*
X000660Y024906D01*
X000660Y025065D02*
X005771Y025065D01*
X005929Y025223D02*
X000660Y025223D01*
X000660Y025699D02*
X005124Y025699D01*
X005029Y025857D02*
X003977Y025857D01*
X003977Y026016D02*
X005029Y026016D01*
X005029Y026174D02*
X003977Y026174D01*
X004075Y026333D02*
X004190Y026333D01*
X004139Y026491D02*
X004127Y026491D01*
X004127Y026650D02*
X004139Y026650D01*
X004127Y026808D02*
X004139Y026808D01*
X004127Y026967D02*
X004139Y026967D01*
X004127Y027125D02*
X004139Y027125D01*
X004514Y027601D02*
X004624Y027601D01*
X004624Y027759D02*
X004501Y027759D01*
X004501Y027918D02*
X004687Y027918D01*
X004845Y028076D02*
X004229Y028076D01*
X004229Y028235D02*
X005729Y028235D01*
X005586Y028552D02*
X004229Y028552D01*
X004229Y028710D02*
X005560Y028710D01*
X005560Y028869D02*
X004179Y028869D01*
X004229Y028393D02*
X006217Y028393D01*
X006533Y028869D02*
X006694Y028869D01*
X006694Y029027D02*
X006493Y029027D01*
X006393Y029186D02*
X006694Y029186D01*
X006692Y028710D02*
X007771Y028710D01*
X007771Y028552D02*
X006850Y028552D01*
X007009Y028393D02*
X007771Y028393D01*
X007669Y028235D02*
X007134Y028235D01*
X007153Y028076D02*
X007577Y028076D01*
X007577Y027918D02*
X007153Y027918D01*
X007153Y027759D02*
X007577Y027759D01*
X007577Y027601D02*
X007119Y027601D01*
X006972Y027442D02*
X007577Y027442D01*
X007577Y027284D02*
X006877Y027284D01*
X006877Y027125D02*
X007577Y027125D01*
X007577Y026967D02*
X006877Y026967D01*
X006877Y026808D02*
X007577Y026808D01*
X007584Y026650D02*
X006871Y026650D01*
X006877Y026491D02*
X007577Y026491D01*
X007577Y026333D02*
X006877Y026333D01*
X006819Y026174D02*
X007636Y026174D01*
X008690Y025223D02*
X011050Y025223D01*
X010888Y025336D02*
X010888Y025336D01*
X010842Y025382D02*
X008848Y025382D01*
X009007Y025540D02*
X010684Y025540D01*
X010525Y025699D02*
X009115Y025699D01*
X009121Y025857D02*
X010367Y025857D01*
X012175Y024272D02*
X007610Y024272D01*
X007690Y024114D02*
X012056Y024114D01*
X012056Y023955D02*
X008297Y023955D01*
X006994Y024272D02*
X006901Y024272D01*
X006285Y024272D02*
X005770Y024272D01*
X005612Y024114D02*
X006206Y024114D01*
X006206Y023955D02*
X005578Y023955D01*
X005578Y023797D02*
X006133Y023797D01*
X008666Y021578D02*
X008693Y021578D01*
X008960Y021125D02*
X008999Y021086D01*
X008999Y020337D01*
X012743Y017774D02*
X024438Y017774D01*
X024438Y017615D02*
X012743Y017615D01*
X012743Y017457D02*
X024438Y017457D01*
X024904Y017424D02*
X025062Y017227D01*
X024457Y017932D02*
X012871Y017932D01*
X013329Y018091D02*
X024503Y018091D01*
X021260Y018249D02*
X013488Y018249D01*
X013646Y018408D02*
X016954Y018408D01*
X016865Y018566D02*
X013805Y018566D01*
X013963Y018725D02*
X016865Y018725D01*
X019513Y018566D02*
X019532Y018566D01*
X024388Y014762D02*
X026111Y014762D01*
X026073Y014604D02*
X024388Y014604D01*
X024388Y014445D02*
X026073Y014445D01*
X026073Y014287D02*
X024388Y014287D01*
X024388Y014128D02*
X026108Y014128D01*
X026121Y013970D02*
X024388Y013970D01*
X024388Y013811D02*
X026068Y013811D01*
X026068Y013653D02*
X024388Y013653D01*
X024388Y013494D02*
X026068Y013494D01*
X026068Y013336D02*
X024388Y013336D01*
X024388Y013177D02*
X026068Y013177D01*
X026068Y013019D02*
X024388Y013019D01*
X024388Y012860D02*
X026068Y012860D01*
X026068Y012702D02*
X024915Y012702D01*
X025048Y012543D02*
X026068Y012543D01*
X026190Y012385D02*
X025048Y012385D01*
X024260Y010641D02*
X023643Y010641D01*
X022858Y010641D02*
X022462Y010641D01*
X022536Y010800D02*
X022785Y010800D01*
X022785Y010958D02*
X022536Y010958D01*
X022536Y011117D02*
X022785Y011117D01*
X022785Y011275D02*
X022536Y011275D01*
X022536Y011434D02*
X022785Y011434D01*
X021677Y010641D02*
X021557Y010641D01*
X024826Y008515D02*
X026664Y008515D01*
X026794Y008645D01*
X027975Y008645D01*
X029156Y008645D01*
X029983Y008645D01*
X030259Y008369D01*
X030259Y006637D01*
X030741Y006203D02*
X036155Y006203D01*
X036111Y006362D02*
X030784Y006362D01*
X030784Y006520D02*
X036111Y006520D01*
X036111Y006679D02*
X030784Y006679D01*
X030784Y006837D02*
X036111Y006837D01*
X036111Y006996D02*
X030784Y006996D01*
X030657Y007154D02*
X036238Y007154D01*
X037035Y007154D02*
X037331Y007154D01*
X037331Y007313D02*
X030569Y007313D01*
X030569Y007471D02*
X037331Y007471D01*
X037331Y007630D02*
X030569Y007630D01*
X030569Y007788D02*
X037331Y007788D01*
X037331Y007947D02*
X030569Y007947D01*
X030569Y008105D02*
X031357Y008105D01*
X031357Y008264D02*
X030569Y008264D01*
X030569Y008422D02*
X031357Y008422D01*
X031357Y008581D02*
X030486Y008581D01*
X030327Y008739D02*
X031357Y008739D01*
X031357Y008898D02*
X030169Y008898D01*
X029700Y009056D02*
X031478Y009056D01*
X031602Y009215D02*
X029540Y009215D01*
X029583Y009373D02*
X031602Y009373D01*
X031602Y009532D02*
X029583Y009532D01*
X029583Y009690D02*
X031635Y009690D01*
X031772Y009849D02*
X029583Y009849D01*
X029497Y010007D02*
X031931Y010007D01*
X032089Y010166D02*
X029486Y010166D01*
X029483Y010324D02*
X032248Y010324D01*
X032406Y010483D02*
X029382Y010483D01*
X028894Y010007D02*
X028316Y010007D01*
X028402Y009849D02*
X028808Y009849D01*
X028808Y009690D02*
X028402Y009690D01*
X028402Y009532D02*
X028808Y009532D01*
X028808Y009373D02*
X028402Y009373D01*
X028359Y009215D02*
X028852Y009215D01*
X028613Y009056D02*
X028519Y009056D01*
X028549Y008264D02*
X028582Y008264D01*
X029731Y008264D02*
X029926Y008264D01*
X029949Y008105D02*
X025381Y008105D01*
X027178Y009215D02*
X027198Y009215D01*
X027338Y009056D02*
X027432Y009056D01*
X027401Y008264D02*
X027368Y008264D01*
X031912Y008515D02*
X031912Y009550D01*
X032660Y010298D01*
X032042Y008645D02*
X031912Y008515D01*
X032042Y008645D02*
X034274Y008645D01*
X035456Y008645D01*
X036637Y008645D01*
X036332Y009215D02*
X035839Y009215D01*
X035882Y009373D02*
X036289Y009373D01*
X036289Y009532D02*
X035882Y009532D01*
X035882Y009690D02*
X036289Y009690D01*
X036289Y009849D02*
X035882Y009849D01*
X035796Y010007D02*
X036375Y010007D01*
X036956Y010166D02*
X038283Y010166D01*
X038283Y010324D02*
X036956Y010324D01*
X036888Y010483D02*
X038283Y010483D01*
X038283Y010641D02*
X036691Y010641D01*
X036023Y010800D02*
X038283Y010800D01*
X038283Y010958D02*
X036023Y010958D01*
X036023Y011117D02*
X038283Y011117D01*
X038283Y011275D02*
X035992Y011275D01*
X036006Y011751D02*
X034566Y011751D01*
X034566Y011909D02*
X035978Y011909D01*
X035978Y012068D02*
X034566Y012068D01*
X034493Y012226D02*
X035995Y012226D01*
X036981Y012385D02*
X034753Y012385D01*
X034566Y011592D02*
X036986Y011592D01*
X036977Y010007D02*
X038283Y010007D01*
X038283Y009849D02*
X037064Y009849D01*
X037064Y009690D02*
X038283Y009690D01*
X038283Y009532D02*
X037064Y009532D01*
X037064Y009373D02*
X038283Y009373D01*
X038283Y009215D02*
X037020Y009215D01*
X037180Y009056D02*
X038283Y009056D01*
X038283Y008898D02*
X037571Y008898D01*
X037740Y008739D02*
X038283Y008739D01*
X038283Y008581D02*
X037880Y008581D01*
X037911Y008422D02*
X038283Y008422D01*
X038283Y008264D02*
X037911Y008264D01*
X037911Y008105D02*
X038283Y008105D01*
X038283Y007947D02*
X037911Y007947D01*
X037911Y007788D02*
X038283Y007788D01*
X038283Y007630D02*
X037911Y007630D01*
X037911Y007471D02*
X038283Y007471D01*
X038283Y007313D02*
X037911Y007313D01*
X037911Y007154D02*
X038283Y007154D01*
X038283Y006996D02*
X037911Y006996D01*
X037904Y006837D02*
X038283Y006837D01*
X038283Y006679D02*
X037797Y006679D01*
X037639Y006520D02*
X038283Y006520D01*
X038283Y006362D02*
X037439Y006362D01*
X037119Y006203D02*
X038283Y006203D01*
X037294Y006996D02*
X037162Y006996D01*
X037331Y008105D02*
X032467Y008105D01*
X032467Y008264D02*
X033700Y008264D01*
X034849Y008264D02*
X034881Y008264D01*
X034912Y009056D02*
X034818Y009056D01*
X034678Y009215D02*
X034658Y009215D01*
X035593Y010166D02*
X035704Y010166D01*
X035999Y009056D02*
X036093Y009056D01*
X036063Y008264D02*
X036030Y008264D01*
X037211Y008264D02*
X037331Y008264D01*
X036000Y013177D02*
X034875Y013177D01*
X034875Y013336D02*
X035978Y013336D01*
X035978Y013494D02*
X034875Y013494D01*
X034875Y013653D02*
X035978Y013653D01*
X035978Y013811D02*
X034875Y013811D01*
X034822Y013970D02*
X035978Y013970D01*
X035987Y014128D02*
X036593Y014128D01*
X036593Y014287D02*
X036023Y014287D01*
X036023Y014445D02*
X036593Y014445D01*
X036593Y014604D02*
X036023Y014604D01*
X035985Y014762D02*
X036462Y014762D01*
X035001Y014762D02*
X034565Y014762D01*
X034603Y014604D02*
X034963Y014604D01*
X034963Y014445D02*
X034603Y014445D01*
X034603Y014287D02*
X034963Y014287D01*
X034999Y014128D02*
X034567Y014128D01*
X032716Y015238D02*
X032459Y015238D01*
X032459Y015079D02*
X032571Y015079D01*
X032538Y014921D02*
X032459Y014921D01*
X032488Y015396D02*
X032745Y015396D01*
X032646Y015555D02*
X032867Y015555D01*
X027521Y014762D02*
X027085Y014762D01*
X027123Y014604D02*
X027483Y014604D01*
X027483Y014445D02*
X027123Y014445D01*
X027123Y014287D02*
X027483Y014287D01*
X027518Y014128D02*
X027087Y014128D01*
X030024Y020627D02*
X030070Y020627D01*
X030106Y020785D02*
X030024Y020785D01*
X030024Y020944D02*
X030106Y020944D01*
X030106Y021102D02*
X029957Y021102D01*
X030024Y021261D02*
X030106Y021261D01*
X030106Y021419D02*
X030024Y021419D01*
X030024Y021578D02*
X030106Y021578D01*
X030106Y021736D02*
X030024Y021736D01*
X030106Y021895D02*
X029379Y021895D01*
X029379Y022053D02*
X030106Y022053D01*
X030106Y022212D02*
X029379Y022212D01*
X029264Y022370D02*
X030106Y022370D01*
X027337Y022846D02*
X027163Y022846D01*
X015018Y024114D02*
X014657Y024114D01*
X014779Y024272D02*
X014896Y024272D01*
X014847Y024431D02*
X014827Y024431D01*
X014827Y024589D02*
X014847Y024589D01*
X014847Y024748D02*
X014827Y024748D01*
X014827Y024906D02*
X014847Y024906D01*
X014847Y025065D02*
X014827Y025065D01*
X014778Y025223D02*
X014897Y025223D01*
X015019Y025382D02*
X014656Y025382D01*
X012884Y024272D02*
X012712Y024272D01*
X014786Y027897D02*
X015062Y027897D01*
X011907Y030771D02*
X000660Y030771D01*
X000660Y030929D02*
X011962Y030929D01*
X012384Y031088D02*
X000660Y031088D01*
X000660Y030612D02*
X011582Y030612D01*
X011390Y030454D02*
X000660Y030454D01*
X000660Y030295D02*
X011198Y030295D01*
X011000Y030137D02*
X000660Y030137D01*
X000660Y029978D02*
X010890Y029978D01*
X010884Y029820D02*
X006464Y029820D01*
X005589Y029820D02*
X000660Y029820D01*
X000660Y029661D02*
X005560Y029661D01*
X005560Y029503D02*
X000660Y029503D01*
X000660Y029344D02*
X005560Y029344D01*
X005660Y029186D02*
X000660Y029186D01*
X000660Y029027D02*
X005560Y029027D01*
X007863Y029661D02*
X010884Y029661D01*
X010884Y029503D02*
X008803Y029503D01*
X008971Y029344D02*
X010884Y029344D01*
X010884Y029186D02*
X009129Y029186D01*
X008251Y028566D02*
X008251Y027991D01*
X008197Y027938D01*
X005849Y026438D02*
X005416Y026871D01*
X005416Y026952D01*
X002336Y026174D02*
X000660Y026174D01*
X000660Y026016D02*
X002336Y026016D01*
X002336Y025857D02*
X000660Y025857D01*
X000660Y026333D02*
X001127Y026333D01*
X001076Y026491D02*
X000660Y026491D01*
X000660Y026650D02*
X001076Y026650D01*
X001076Y026808D02*
X000660Y026808D01*
X000660Y026967D02*
X001076Y026967D01*
X001076Y027125D02*
X000660Y027125D01*
X000660Y027284D02*
X001076Y027284D01*
X000660Y027442D02*
X001589Y027442D01*
X001748Y027601D02*
X000660Y027601D01*
X000660Y027759D02*
X001761Y027759D01*
X001761Y027918D02*
X000660Y027918D01*
X000660Y028076D02*
X002037Y028076D01*
X002037Y028235D02*
X000660Y028235D01*
X000660Y028393D02*
X002037Y028393D01*
X002037Y028552D02*
X000660Y028552D01*
X000660Y028710D02*
X002037Y028710D01*
X002087Y028869D02*
X000660Y028869D01*
X002166Y027125D02*
X002178Y027125D01*
X002166Y026967D02*
X002178Y026967D01*
X002166Y026808D02*
X002178Y026808D01*
X002166Y026650D02*
X002178Y026650D01*
X002166Y026491D02*
X002178Y026491D01*
X002230Y026333D02*
X002115Y026333D01*
X001854Y009056D02*
X011741Y009056D01*
X011741Y009074D02*
X011741Y008293D01*
X011876Y008159D01*
X012657Y008159D01*
X012792Y008293D01*
X012792Y009074D01*
X012657Y009209D01*
X011876Y009209D01*
X011741Y009074D01*
X011741Y008898D02*
X001854Y008898D01*
X001854Y008739D02*
X011741Y008739D01*
X011741Y008581D02*
X001854Y008581D01*
X001854Y008422D02*
X011741Y008422D01*
X011771Y008264D02*
X001854Y008264D01*
X001854Y006520D02*
X019502Y006520D01*
X019438Y006456D02*
X019573Y006591D01*
X020078Y006591D01*
X020141Y006529D01*
X020242Y006630D01*
X020905Y006630D01*
X021040Y006496D01*
X021040Y005754D01*
X020905Y005619D01*
X020242Y005619D01*
X020141Y005721D01*
X020078Y005659D01*
X019573Y005659D01*
X019438Y005793D01*
X019438Y006456D01*
X019438Y006362D02*
X001854Y006362D01*
X001854Y006203D02*
X019438Y006203D01*
X019438Y006045D02*
X001854Y006045D01*
X001854Y005886D02*
X019438Y005886D01*
X019504Y005728D02*
X001854Y005728D01*
X001854Y005569D02*
X021268Y005569D01*
X021268Y005411D02*
X001854Y005411D01*
X001854Y005252D02*
X021268Y005252D01*
X021268Y005094D02*
X001854Y005094D01*
X001854Y004935D02*
X021268Y004935D01*
X021268Y004777D02*
X001854Y004777D01*
X001854Y004618D02*
X021268Y004618D01*
X021268Y004460D02*
X001854Y004460D01*
X001854Y004301D02*
X021268Y004301D01*
X021268Y004143D02*
X001854Y004143D01*
X001854Y003984D02*
X011848Y003984D01*
X011876Y004012D02*
X011741Y003878D01*
X011741Y003097D01*
X011876Y002962D01*
X012657Y002962D01*
X012792Y003097D01*
X012792Y003878D01*
X012657Y004012D01*
X011876Y004012D01*
X011741Y003826D02*
X001854Y003826D01*
X001854Y003667D02*
X011741Y003667D01*
X011741Y003509D02*
X001854Y003509D01*
X001854Y003350D02*
X011741Y003350D01*
X011741Y003192D02*
X001854Y003192D01*
X001854Y003033D02*
X011805Y003033D01*
X012728Y003033D02*
X015584Y003033D01*
X015521Y003097D02*
X015656Y002962D01*
X016437Y002962D01*
X016571Y003097D01*
X016571Y003878D01*
X016437Y004012D01*
X015656Y004012D01*
X015521Y003878D01*
X015521Y003097D01*
X015521Y003192D02*
X012792Y003192D01*
X012792Y003350D02*
X015521Y003350D01*
X015521Y003509D02*
X012792Y003509D01*
X012792Y003667D02*
X015521Y003667D01*
X015521Y003826D02*
X012792Y003826D01*
X012686Y003984D02*
X015627Y003984D01*
X016465Y003984D02*
X021268Y003984D01*
X021268Y003826D02*
X019542Y003826D01*
X019521Y003847D02*
X019115Y003847D01*
X018828Y003560D01*
X018828Y003154D01*
X019115Y002867D01*
X019521Y002867D01*
X019808Y003154D01*
X019808Y003560D01*
X019521Y003847D01*
X019701Y003667D02*
X021268Y003667D01*
X021268Y003509D02*
X019808Y003509D01*
X019808Y003350D02*
X021268Y003350D01*
X021268Y003192D02*
X019808Y003192D01*
X019687Y003033D02*
X021268Y003033D01*
X021268Y002875D02*
X019528Y002875D01*
X019107Y002875D02*
X001854Y002875D01*
X004480Y002558D02*
X005872Y002558D01*
X005803Y002529D02*
X006035Y002625D01*
X006286Y002625D01*
X006517Y002529D01*
X006694Y002352D01*
X006790Y002120D01*
X006790Y001870D01*
X006694Y001638D01*
X006517Y001461D01*
X006286Y001365D01*
X006035Y001365D01*
X005803Y001461D01*
X005626Y001638D01*
X005530Y001870D01*
X005530Y002120D01*
X005626Y002352D01*
X005803Y002529D01*
X005673Y002399D02*
X004679Y002399D01*
X004772Y002241D02*
X005580Y002241D01*
X005530Y002082D02*
X004822Y002082D01*
X004822Y001924D02*
X005530Y001924D01*
X005574Y001765D02*
X004778Y001765D01*
X004694Y001607D02*
X005658Y001607D01*
X005835Y001448D02*
X004518Y001448D01*
X006486Y001448D02*
X007551Y001448D01*
X007499Y001607D02*
X006663Y001607D01*
X006747Y001765D02*
X007499Y001765D01*
X007499Y001924D02*
X006790Y001924D01*
X006790Y002082D02*
X007499Y002082D01*
X007499Y002241D02*
X006741Y002241D01*
X006647Y002399D02*
X007499Y002399D01*
X007566Y002558D02*
X006448Y002558D01*
X012762Y008264D02*
X015551Y008264D01*
X015521Y008422D02*
X012792Y008422D01*
X012792Y008581D02*
X015521Y008581D01*
X015521Y008739D02*
X012792Y008739D01*
X012792Y008898D02*
X015521Y008898D01*
X015521Y009056D02*
X012792Y009056D01*
X016571Y003826D02*
X019093Y003826D01*
X018935Y003667D02*
X016571Y003667D01*
X016571Y003509D02*
X018828Y003509D01*
X018828Y003350D02*
X016571Y003350D01*
X016571Y003192D02*
X018828Y003192D01*
X018949Y003033D02*
X016508Y003033D01*
X019603Y001765D02*
X021268Y001765D01*
X021289Y001607D02*
X019761Y001607D01*
X019808Y001448D02*
X021415Y001448D01*
X021574Y001290D02*
X019808Y001290D01*
X019785Y001131D02*
X021732Y001131D01*
X022009Y000973D02*
X019626Y000973D01*
X021919Y001765D02*
X022033Y001765D01*
X022107Y002875D02*
X021848Y002875D01*
X021848Y003033D02*
X021949Y003033D01*
X021935Y003667D02*
X021848Y003667D01*
X021268Y005728D02*
X021013Y005728D01*
X021040Y005886D02*
X021268Y005886D01*
X021289Y006045D02*
X021040Y006045D01*
X021040Y006203D02*
X021289Y006203D01*
X021289Y006362D02*
X021040Y006362D01*
X021016Y006520D02*
X021313Y006520D01*
D41*
X030967Y010731D03*
X025574Y015219D03*
X029747Y016479D03*
X029668Y018369D03*
X026243Y019589D03*
X021952Y022660D03*
X021755Y021755D03*
X020456Y023093D03*
X017345Y018841D03*
X015574Y020259D03*
X014904Y021243D03*
X010373Y018448D03*
X008999Y020337D03*
X009983Y020416D03*
X010101Y024314D03*
X010652Y028093D03*
X010652Y029589D03*
X008251Y028566D03*
X004904Y028566D03*
X000928Y030928D03*
X003054Y024117D03*
X005219Y018920D03*
X003566Y015652D03*
X010180Y015613D03*
X015731Y015731D03*
X020692Y015810D03*
X016282Y027621D03*
X014786Y027897D03*
X015101Y029668D03*
X020377Y027975D03*
X021007Y029747D03*
X036558Y018684D03*
X036597Y017306D03*
X037778Y013330D03*
X031322Y001479D03*
X037975Y030889D03*
D42*
X030652Y026479D02*
X030652Y025652D01*
X031794Y022857D02*
X032582Y022857D01*
X035710Y021990D02*
X035710Y021497D01*
X035692Y021479D01*
X035660Y020739D02*
X035652Y020731D01*
X036834Y020731D01*
X036191Y020739D02*
X035660Y020739D01*
X035460Y020570D02*
X035456Y020574D01*
X035456Y019589D01*
X035574Y019471D01*
X035460Y020008D02*
X035460Y020570D01*
X031204Y014668D02*
X031204Y013881D01*
X031208Y012704D02*
X031204Y012700D01*
X031208Y012704D02*
X032113Y012704D01*
X029550Y013763D02*
X028914Y013763D01*
X028913Y013764D01*
X028193Y010964D02*
X028193Y010632D01*
X028408Y010416D01*
X029038Y010416D01*
X029196Y010259D01*
X029196Y009589D01*
X028015Y009589D02*
X028015Y010180D01*
X027833Y010362D01*
X027833Y010964D01*
X028015Y009589D02*
X027542Y009589D01*
X024783Y011094D02*
X024774Y011086D01*
X023251Y011086D01*
X022070Y011086D02*
X021282Y011086D01*
X021755Y006125D02*
X021558Y005928D01*
X021558Y001715D01*
X021916Y001357D01*
X022318Y001357D01*
X020574Y006125D02*
X019826Y006125D01*
X036637Y006637D02*
X037345Y006637D01*
X037621Y006912D01*
X037621Y008448D01*
X037424Y008645D01*
X036637Y008645D01*
X027227Y021794D02*
X027267Y021834D01*
X027267Y022778D01*
X027255Y022767D01*
X027255Y022372D01*
D43*
X022936Y021637D03*
X021243Y024274D03*
X020613Y024865D03*
X017345Y025928D03*
X011834Y025928D03*
X005416Y026952D03*
M02*
