G75*
%MOIN*%
%OFA0B0*%
%FSLAX24Y24*%
%IPPOS*%
%LPD*%
%AMOC8*
5,1,8,0,0,1.08239X$1,22.5*
%
%ADD10C,0.0080*%
%ADD11C,0.0050*%
D10*
X020007Y012490D02*
X020401Y012490D01*
X020401Y013277D01*
X020696Y013277D01*
X020696Y014065D01*
X020007Y014065D01*
D11*
X022798Y015443D02*
X022798Y005443D01*
X027286Y005443D01*
X027286Y010954D01*
X032798Y010954D01*
X032798Y005443D01*
X027286Y005443D01*
X029341Y007824D02*
X030522Y009793D01*
X028160Y009793D01*
X029341Y007824D01*
X029223Y008415D02*
X029341Y009124D01*
X029498Y008415D01*
X029223Y008415D01*
X029184Y009399D02*
X029186Y009424D01*
X029192Y009448D01*
X029201Y009470D01*
X029214Y009491D01*
X029230Y009510D01*
X029249Y009526D01*
X029270Y009539D01*
X029292Y009548D01*
X029316Y009554D01*
X029341Y009556D01*
X029366Y009554D01*
X029390Y009548D01*
X029412Y009539D01*
X029433Y009526D01*
X029452Y009510D01*
X029468Y009491D01*
X029481Y009470D01*
X029490Y009448D01*
X029496Y009424D01*
X029498Y009399D01*
X029496Y009374D01*
X029490Y009350D01*
X029481Y009328D01*
X029468Y009307D01*
X029452Y009288D01*
X029433Y009272D01*
X029412Y009259D01*
X029390Y009250D01*
X029366Y009244D01*
X029341Y009242D01*
X029316Y009244D01*
X029292Y009250D01*
X029270Y009259D01*
X029249Y009272D01*
X029230Y009288D01*
X029214Y009307D01*
X029201Y009328D01*
X029192Y009350D01*
X029186Y009374D01*
X029184Y009399D01*
X032798Y010954D02*
X032798Y015443D01*
X022798Y015443D01*
M02*
