%
M48
M72
T01C0.0118
T02C0.0120
T03C0.0276
T04C0.0354
T05C0.0394
T06C0.0470
T07C0.1260
%
T01
X12128Y5797
X12128Y6584
X13061Y2466
X18034Y1860
X10939Y10939
X11672Y13513
T02
X12207Y14970
X9451Y14970
X15110Y14033
X15750Y14458
X16774Y13435
X17522Y13277
X18034Y13277
X18546Y13277
X14924Y11742
X14924Y11466
X14924Y11191
X14924Y10915
X14924Y10639
X14924Y10364
X14924Y10088
X14924Y9813
X14805Y9340
X14805Y9104
X14805Y8828
X14805Y8592
X14805Y8317
X15199Y8317
X15199Y8041
X14805Y8041
X14805Y7765
X15199Y7765
X15199Y7490
X15199Y7214
X14805Y7214
X14805Y7490
X14805Y6939
X15199Y6939
X15199Y6663
X15199Y6387
X14805Y6387
X14805Y6663
X14805Y6112
X15199Y6112
X15199Y5836
X14805Y5836
X14805Y5561
X14805Y5285
X15199Y5285
X15199Y5561
X14805Y4931
X14805Y4537
X15199Y4537
X15199Y4261
X15199Y3986
X14805Y3986
X14805Y4261
X14805Y3710
X15199Y3710
X15199Y3435
X14805Y3435
X14805Y3159
X15199Y3159
X16998Y4488
X16459Y4931
X18827Y6013
X19687Y5373
X19963Y6978
X21931Y7765
X20690Y8030
X19176Y9813
X18624Y10324
X18073Y9970
X17010Y9970
X16538Y10403
X16144Y9931
X15750Y9340
X12994Y9458
X12994Y8671
X17443Y10758
X18152Y10797
X19412Y10797
X19963Y10521
X19490Y11269
X21144Y11309
X21931Y10128
X16144Y10915
X11420Y11821
X1577Y11427
X1577Y9458
X1577Y7490
X1577Y5521
X1577Y13395
X1577Y14970
T03
X20278Y13277
T04
X15790Y13277
T05
X23561Y14510
X23561Y10167
X23561Y6167
X31735Y6675
X31735Y8210
T06
X2770Y4616
X2770Y6584
X2770Y8553
X2770Y10521
X2770Y12490
X2770Y14458
X27876Y2730
X29845Y2730
X31813Y2730
T07
X21577Y2254
M30
