G75*
%MOIN*%
%OFA0B0*%
%FSLAX24Y24*%
%IPPOS*%
%LPD*%
%AMOC8*
5,1,8,0,0,1.08239X$1,22.5*
%
%ADD10C,0.0594*%
%ADD11C,0.0705*%
%ADD12C,0.0160*%
%ADD13C,0.0280*%
%ADD14R,0.0280X0.0280*%
%ADD15C,0.0500*%
%ADD16R,0.0278X0.0278*%
D10*
X023264Y006167D02*
X023858Y006167D01*
X031438Y006675D02*
X032031Y006675D01*
X032031Y008210D02*
X031438Y008210D01*
X023858Y010167D02*
X023264Y010167D01*
X023264Y014510D02*
X023858Y014510D01*
D11*
X003123Y014458D02*
X002418Y014458D01*
X002418Y012490D02*
X003123Y012490D01*
X003123Y010521D02*
X002418Y010521D01*
X002418Y008553D02*
X003123Y008553D01*
X003123Y006584D02*
X002418Y006584D01*
X002418Y004616D02*
X003123Y004616D01*
X027876Y003083D02*
X027876Y002378D01*
X029845Y002378D02*
X029845Y003083D01*
X031813Y003083D02*
X031813Y002378D01*
D12*
X001585Y002254D02*
X001585Y014963D01*
X002243Y014963D01*
X002116Y014910D01*
X001966Y014760D01*
X001885Y014564D01*
X001885Y014352D01*
X001966Y014157D01*
X002116Y014007D01*
X002312Y013926D01*
X003228Y013926D01*
X003424Y014007D01*
X003574Y014157D01*
X003655Y014352D01*
X003655Y014564D01*
X003574Y014760D01*
X003424Y014910D01*
X003297Y014963D01*
X012443Y014963D01*
X012443Y009419D01*
X014845Y009419D01*
X014845Y008828D01*
X014879Y003095D01*
X014879Y002945D01*
X014880Y002944D01*
X014884Y002254D01*
X013642Y002254D01*
X013380Y002515D01*
X013380Y002680D01*
X013275Y002785D01*
X012848Y002785D01*
X012742Y002680D01*
X012742Y002254D01*
X001585Y002254D01*
X001585Y002341D02*
X012742Y002341D01*
X012742Y002499D02*
X001585Y002499D01*
X001585Y002658D02*
X012742Y002658D01*
X013061Y002466D02*
X013668Y001860D01*
X018034Y001860D01*
X020467Y002254D02*
X015144Y002254D01*
X015144Y002254D01*
X015144Y002305D01*
X015144Y002306D01*
X015130Y004671D01*
X016184Y004671D01*
X016244Y004611D01*
X016674Y004611D01*
X016678Y004616D01*
X016678Y004273D01*
X016784Y004168D01*
X017213Y004168D01*
X017273Y004228D01*
X020845Y004228D01*
X020941Y004268D01*
X021198Y004525D01*
X021237Y004620D01*
X021237Y007794D01*
X021198Y007890D01*
X021010Y008078D01*
X021010Y008245D01*
X020904Y008350D01*
X020475Y008350D01*
X020370Y008245D01*
X020370Y007815D01*
X020475Y007710D01*
X020642Y007710D01*
X020717Y007635D01*
X020717Y004780D01*
X020686Y004748D01*
X017273Y004748D01*
X017213Y004808D01*
X016784Y004808D01*
X016779Y004803D01*
X016779Y005145D01*
X016674Y005251D01*
X016244Y005251D01*
X016184Y005191D01*
X015127Y005191D01*
X015125Y005384D01*
X015125Y009555D01*
X015020Y009660D01*
X014942Y009660D01*
X014897Y009679D01*
X014884Y009679D01*
X014884Y014963D01*
X022364Y014963D01*
X022364Y003036D01*
X022259Y003142D01*
X022005Y003288D01*
X021723Y003364D01*
X021431Y003364D01*
X021149Y003288D01*
X020896Y003142D01*
X020689Y002935D01*
X020543Y002682D01*
X020467Y002400D01*
X020467Y002254D01*
X020467Y002341D02*
X015144Y002341D01*
X015143Y002499D02*
X020494Y002499D01*
X020536Y002658D02*
X015142Y002658D01*
X015141Y002816D02*
X020620Y002816D01*
X020728Y002975D02*
X015140Y002975D01*
X015139Y003133D02*
X020887Y003133D01*
X021162Y003292D02*
X015138Y003292D01*
X015137Y003450D02*
X022364Y003450D01*
X022364Y003292D02*
X021992Y003292D01*
X022267Y003133D02*
X022364Y003133D01*
X022364Y003609D02*
X015136Y003609D01*
X015135Y003767D02*
X022364Y003767D01*
X022364Y003926D02*
X015134Y003926D01*
X015133Y004084D02*
X022364Y004084D01*
X022364Y004243D02*
X020880Y004243D01*
X021074Y004401D02*
X022364Y004401D01*
X022364Y004560D02*
X021212Y004560D01*
X021237Y004718D02*
X022364Y004718D01*
X022364Y004877D02*
X021237Y004877D01*
X021237Y005035D02*
X022364Y005035D01*
X022364Y005194D02*
X021237Y005194D01*
X021237Y005352D02*
X022364Y005352D01*
X022364Y005511D02*
X021237Y005511D01*
X021237Y005669D02*
X022364Y005669D01*
X022364Y005828D02*
X021237Y005828D01*
X021237Y005986D02*
X022364Y005986D01*
X022364Y006145D02*
X021237Y006145D01*
X021237Y006303D02*
X022364Y006303D01*
X022364Y006462D02*
X021237Y006462D01*
X021237Y006620D02*
X022364Y006620D01*
X022364Y006779D02*
X021237Y006779D01*
X021237Y006937D02*
X022364Y006937D01*
X022364Y007096D02*
X021237Y007096D01*
X021237Y007254D02*
X022364Y007254D01*
X022364Y007413D02*
X021237Y007413D01*
X021237Y007571D02*
X022364Y007571D01*
X022364Y007730D02*
X021237Y007730D01*
X021199Y007888D02*
X022364Y007888D01*
X022364Y008047D02*
X021041Y008047D01*
X021010Y008205D02*
X022364Y008205D01*
X022364Y008364D02*
X015125Y008364D01*
X015125Y008522D02*
X022364Y008522D01*
X022364Y008681D02*
X015125Y008681D01*
X015125Y008839D02*
X022364Y008839D01*
X022364Y008998D02*
X015125Y008998D01*
X015125Y009156D02*
X015430Y009156D01*
X015430Y009126D02*
X015536Y009020D01*
X015965Y009020D01*
X016070Y009126D01*
X016070Y009555D01*
X016010Y009615D01*
X016010Y011162D01*
X016994Y012146D01*
X017034Y012241D01*
X017034Y013242D01*
X017045Y013253D01*
X017094Y013371D01*
X017094Y013498D01*
X017045Y013616D01*
X016955Y013706D01*
X016838Y013755D01*
X016710Y013755D01*
X016593Y013706D01*
X016503Y013616D01*
X016454Y013498D01*
X016454Y013371D01*
X016503Y013253D01*
X016514Y013242D01*
X016514Y012401D01*
X015603Y011490D01*
X015530Y011417D01*
X015490Y011321D01*
X015490Y009615D01*
X015430Y009555D01*
X015430Y009126D01*
X015430Y009315D02*
X015125Y009315D01*
X015125Y009473D02*
X015430Y009473D01*
X015490Y009632D02*
X015049Y009632D01*
X014884Y009790D02*
X015490Y009790D01*
X015490Y009949D02*
X014884Y009949D01*
X014884Y010107D02*
X015490Y010107D01*
X015490Y010266D02*
X014884Y010266D01*
X014884Y010424D02*
X015490Y010424D01*
X015490Y010583D02*
X014884Y010583D01*
X014884Y010741D02*
X015490Y010741D01*
X015490Y010900D02*
X014884Y010900D01*
X014884Y011058D02*
X015490Y011058D01*
X015490Y011217D02*
X014884Y011217D01*
X014884Y011375D02*
X015513Y011375D01*
X015647Y011534D02*
X014884Y011534D01*
X014884Y011692D02*
X015805Y011692D01*
X015964Y011851D02*
X014884Y011851D01*
X014884Y012009D02*
X016122Y012009D01*
X016281Y012168D02*
X014884Y012168D01*
X014884Y012326D02*
X016439Y012326D01*
X016514Y012485D02*
X014884Y012485D01*
X014884Y012643D02*
X015604Y012643D01*
X015659Y012620D02*
X015417Y012720D01*
X015233Y012905D01*
X015133Y013147D01*
X015133Y013408D01*
X015233Y013649D01*
X015417Y013834D01*
X015659Y013934D01*
X015920Y013934D01*
X016162Y013834D01*
X016347Y013649D01*
X016447Y013408D01*
X016447Y013147D01*
X016347Y012905D01*
X016162Y012720D01*
X015920Y012620D01*
X015659Y012620D01*
X015976Y012643D02*
X016514Y012643D01*
X016514Y012802D02*
X016243Y012802D01*
X016370Y012960D02*
X016514Y012960D01*
X016514Y013119D02*
X016435Y013119D01*
X016447Y013277D02*
X016493Y013277D01*
X016454Y013436D02*
X016435Y013436D01*
X016494Y013594D02*
X016370Y013594D01*
X016244Y013753D02*
X016705Y013753D01*
X016843Y013753D02*
X019879Y013753D01*
X019928Y013801D02*
X019754Y013627D01*
X019660Y013400D01*
X019660Y013154D01*
X019754Y012927D01*
X019928Y012754D01*
X020155Y012659D01*
X020401Y012659D01*
X020628Y012754D01*
X020802Y012927D01*
X020896Y013154D01*
X020896Y013400D01*
X020802Y013627D01*
X020628Y013801D01*
X020401Y013895D01*
X020155Y013895D01*
X019928Y013801D01*
X019740Y013594D02*
X017054Y013594D01*
X017094Y013436D02*
X019675Y013436D01*
X019660Y013277D02*
X017055Y013277D01*
X017034Y013119D02*
X019675Y013119D01*
X019741Y012960D02*
X017034Y012960D01*
X017034Y012802D02*
X019880Y012802D01*
X020676Y012802D02*
X022364Y012802D01*
X022364Y012960D02*
X020815Y012960D01*
X020881Y013119D02*
X022364Y013119D01*
X022364Y013277D02*
X020896Y013277D01*
X020881Y013436D02*
X022364Y013436D01*
X022364Y013594D02*
X020815Y013594D01*
X020676Y013753D02*
X022364Y013753D01*
X022364Y013911D02*
X015977Y013911D01*
X015603Y013911D02*
X014884Y013911D01*
X014884Y013753D02*
X015336Y013753D01*
X015210Y013594D02*
X014884Y013594D01*
X014884Y013436D02*
X015144Y013436D01*
X015133Y013277D02*
X014884Y013277D01*
X014884Y013119D02*
X015144Y013119D01*
X015210Y012960D02*
X014884Y012960D01*
X014884Y012802D02*
X015336Y012802D01*
X016774Y012293D02*
X016774Y013435D01*
X017034Y012643D02*
X022364Y012643D01*
X022364Y012485D02*
X017034Y012485D01*
X017034Y012326D02*
X022364Y012326D01*
X022364Y012168D02*
X017003Y012168D01*
X016858Y012009D02*
X022364Y012009D01*
X022364Y011851D02*
X016699Y011851D01*
X016541Y011692D02*
X022364Y011692D01*
X022364Y011534D02*
X019679Y011534D01*
X019672Y011541D02*
X019554Y011589D01*
X019427Y011589D01*
X019309Y011541D01*
X019298Y011529D01*
X017903Y011529D01*
X017808Y011490D01*
X017396Y011078D01*
X017380Y011078D01*
X017262Y011029D01*
X017172Y010939D01*
X017123Y010821D01*
X017123Y010694D01*
X017136Y010663D01*
X016730Y010663D01*
X016719Y010675D01*
X016601Y010723D01*
X016474Y010723D01*
X016356Y010675D01*
X016266Y010584D01*
X016218Y010467D01*
X016218Y010340D01*
X016266Y010222D01*
X016356Y010132D01*
X016474Y010083D01*
X016601Y010083D01*
X016719Y010132D01*
X016730Y010143D01*
X016735Y010143D01*
X016690Y010034D01*
X016690Y009907D01*
X016739Y009789D01*
X016829Y009699D01*
X016947Y009650D01*
X017074Y009650D01*
X017191Y009699D01*
X017203Y009710D01*
X017881Y009710D01*
X017892Y009699D01*
X018009Y009650D01*
X018137Y009650D01*
X018254Y009699D01*
X018344Y009789D01*
X018393Y009907D01*
X018393Y010034D01*
X018348Y010143D01*
X018353Y010143D01*
X018443Y010053D01*
X018561Y010004D01*
X018688Y010004D01*
X018806Y010053D01*
X018896Y010143D01*
X018944Y010261D01*
X018944Y010388D01*
X018896Y010506D01*
X018806Y010596D01*
X018688Y010644D01*
X018643Y010644D01*
X018597Y010663D01*
X017751Y010663D01*
X017763Y010694D01*
X017763Y010710D01*
X018063Y011009D01*
X019172Y011009D01*
X019140Y010978D01*
X019092Y010861D01*
X019092Y010733D01*
X019140Y010616D01*
X019152Y010604D01*
X019152Y010157D01*
X019128Y010133D01*
X019112Y010133D01*
X018994Y010084D01*
X018904Y009994D01*
X018856Y009876D01*
X018856Y009749D01*
X018904Y009631D01*
X018994Y009541D01*
X019112Y009493D01*
X019239Y009493D01*
X019357Y009541D01*
X019447Y009631D01*
X019496Y009749D01*
X019496Y009765D01*
X019632Y009902D01*
X019672Y009997D01*
X019672Y010604D01*
X019683Y010616D01*
X019732Y010733D01*
X019732Y010861D01*
X019683Y010978D01*
X019666Y010996D01*
X019672Y010998D01*
X019762Y011088D01*
X019810Y011206D01*
X019810Y011333D01*
X019762Y011451D01*
X019672Y011541D01*
X019793Y011375D02*
X022364Y011375D01*
X022364Y011217D02*
X019810Y011217D01*
X019732Y011058D02*
X022364Y011058D01*
X022364Y010900D02*
X019716Y010900D01*
X019732Y010741D02*
X022364Y010741D01*
X022364Y010583D02*
X019672Y010583D01*
X019672Y010424D02*
X022364Y010424D01*
X022364Y010266D02*
X019672Y010266D01*
X019672Y010107D02*
X022364Y010107D01*
X022364Y009949D02*
X019652Y009949D01*
X019521Y009790D02*
X022364Y009790D01*
X022364Y009632D02*
X019447Y009632D01*
X019176Y009813D02*
X019412Y010049D01*
X019412Y010797D01*
X019108Y010900D02*
X017953Y010900D01*
X017794Y010741D02*
X019092Y010741D01*
X019152Y010583D02*
X018819Y010583D01*
X018929Y010424D02*
X019152Y010424D01*
X019152Y010266D02*
X018944Y010266D01*
X018859Y010107D02*
X019050Y010107D01*
X018885Y009949D02*
X018393Y009949D01*
X018389Y010107D02*
X018363Y010107D01*
X018353Y010143D02*
X018353Y010143D01*
X018546Y010403D02*
X018624Y010324D01*
X018546Y010403D02*
X016538Y010403D01*
X016248Y010266D02*
X016010Y010266D01*
X016010Y010424D02*
X016218Y010424D01*
X016266Y010583D02*
X016010Y010583D01*
X016010Y010741D02*
X017123Y010741D01*
X017156Y010900D02*
X016010Y010900D01*
X016010Y011058D02*
X017332Y011058D01*
X017535Y011217D02*
X016065Y011217D01*
X016224Y011375D02*
X017693Y011375D01*
X017955Y011269D02*
X019490Y011269D01*
X019302Y011534D02*
X016382Y011534D01*
X015750Y011269D02*
X015750Y009340D01*
X016070Y009315D02*
X022364Y009315D01*
X022364Y009473D02*
X016070Y009473D01*
X016010Y009632D02*
X018904Y009632D01*
X018856Y009790D02*
X018345Y009790D01*
X018073Y009970D02*
X017010Y009970D01*
X016720Y010107D02*
X016659Y010107D01*
X016690Y009949D02*
X016010Y009949D01*
X016010Y010107D02*
X016417Y010107D01*
X016738Y009790D02*
X016010Y009790D01*
X016070Y009156D02*
X022364Y009156D01*
X020370Y008205D02*
X015125Y008205D01*
X015125Y008047D02*
X020370Y008047D01*
X020370Y007888D02*
X015125Y007888D01*
X015125Y007730D02*
X020456Y007730D01*
X020717Y007571D02*
X015125Y007571D01*
X015125Y007413D02*
X020717Y007413D01*
X020717Y007254D02*
X015125Y007254D01*
X015125Y007096D02*
X020717Y007096D01*
X020717Y006937D02*
X015125Y006937D01*
X015125Y006779D02*
X020717Y006779D01*
X020717Y006620D02*
X015125Y006620D01*
X015125Y006462D02*
X020717Y006462D01*
X020717Y006303D02*
X015125Y006303D01*
X015125Y006145D02*
X020717Y006145D01*
X020717Y005986D02*
X015125Y005986D01*
X015125Y005828D02*
X020717Y005828D01*
X020717Y005669D02*
X015125Y005669D01*
X015125Y005511D02*
X020717Y005511D01*
X020717Y005352D02*
X015126Y005352D01*
X015127Y005194D02*
X016187Y005194D01*
X016459Y004931D02*
X014805Y004931D01*
X014868Y004877D02*
X003591Y004877D01*
X003574Y004917D02*
X003424Y005067D01*
X003228Y005148D01*
X002312Y005148D01*
X002116Y005067D01*
X001966Y004917D01*
X001885Y004722D01*
X001885Y004510D01*
X001966Y004314D01*
X002116Y004164D01*
X002312Y004083D01*
X003228Y004083D01*
X003424Y004164D01*
X003574Y004314D01*
X003655Y004510D01*
X003655Y004722D01*
X003574Y004917D01*
X003456Y005035D02*
X014868Y005035D01*
X014867Y005194D02*
X001585Y005194D01*
X001585Y005352D02*
X014866Y005352D01*
X014865Y005511D02*
X012375Y005511D01*
X012342Y005478D02*
X012447Y005583D01*
X012447Y006011D01*
X012388Y006070D01*
X012388Y006312D01*
X012447Y006371D01*
X012447Y006798D01*
X012342Y006903D01*
X011915Y006903D01*
X011809Y006798D01*
X011809Y006371D01*
X011868Y006312D01*
X011868Y006070D01*
X011809Y006011D01*
X011809Y005583D01*
X011915Y005478D01*
X012342Y005478D01*
X012447Y005669D02*
X014864Y005669D01*
X014863Y005828D02*
X012447Y005828D01*
X012447Y005986D02*
X014862Y005986D01*
X014861Y006145D02*
X012388Y006145D01*
X012388Y006303D02*
X014860Y006303D01*
X014859Y006462D02*
X012447Y006462D01*
X012447Y006620D02*
X014858Y006620D01*
X014857Y006779D02*
X012447Y006779D01*
X012128Y006584D02*
X012128Y005797D01*
X011809Y005828D02*
X001585Y005828D01*
X001585Y005986D02*
X011809Y005986D01*
X011868Y006145D02*
X003436Y006145D01*
X003424Y006133D02*
X003574Y006283D01*
X003655Y006478D01*
X003655Y006690D01*
X003574Y006886D01*
X003424Y007036D01*
X003228Y007117D01*
X002312Y007117D01*
X002116Y007036D01*
X001966Y006886D01*
X001885Y006690D01*
X001885Y006478D01*
X001966Y006283D01*
X002116Y006133D01*
X002312Y006052D01*
X003228Y006052D01*
X003424Y006133D01*
X003582Y006303D02*
X011868Y006303D01*
X011809Y006462D02*
X003648Y006462D01*
X003655Y006620D02*
X011809Y006620D01*
X011809Y006779D02*
X003618Y006779D01*
X003523Y006937D02*
X014856Y006937D01*
X014855Y007096D02*
X003280Y007096D01*
X002260Y007096D02*
X001585Y007096D01*
X001585Y007254D02*
X014854Y007254D01*
X014853Y007413D02*
X001585Y007413D01*
X001585Y007571D02*
X014852Y007571D01*
X014851Y007730D02*
X001585Y007730D01*
X001585Y007888D02*
X014850Y007888D01*
X014849Y008047D02*
X003292Y008047D01*
X003228Y008020D02*
X003424Y008101D01*
X003574Y008251D01*
X003655Y008447D01*
X003655Y008659D01*
X003574Y008854D01*
X003424Y009004D01*
X003228Y009085D01*
X002312Y009085D01*
X002116Y009004D01*
X001966Y008854D01*
X001885Y008659D01*
X001885Y008447D01*
X001966Y008251D01*
X002116Y008101D01*
X002312Y008020D01*
X003228Y008020D01*
X003528Y008205D02*
X014849Y008205D01*
X014848Y008364D02*
X003620Y008364D01*
X003655Y008522D02*
X014847Y008522D01*
X014846Y008681D02*
X003646Y008681D01*
X003580Y008839D02*
X014845Y008839D01*
X014845Y008998D02*
X003431Y008998D01*
X002109Y008998D02*
X001585Y008998D01*
X001585Y009156D02*
X014845Y009156D01*
X014845Y009315D02*
X001585Y009315D01*
X001585Y009473D02*
X012443Y009473D01*
X012443Y009632D02*
X001585Y009632D01*
X001585Y009790D02*
X012443Y009790D01*
X012443Y009949D02*
X001585Y009949D01*
X001585Y010107D02*
X002079Y010107D01*
X002116Y010070D02*
X002312Y009989D01*
X003228Y009989D01*
X003424Y010070D01*
X003574Y010220D01*
X003655Y010415D01*
X003655Y010627D01*
X003574Y010823D01*
X003424Y010973D01*
X003228Y011054D01*
X002312Y011054D01*
X002116Y010973D01*
X001966Y010823D01*
X001885Y010627D01*
X001885Y010415D01*
X001966Y010220D01*
X002116Y010070D01*
X001947Y010266D02*
X001585Y010266D01*
X001585Y010424D02*
X001885Y010424D01*
X001885Y010583D02*
X001585Y010583D01*
X001585Y010741D02*
X001932Y010741D01*
X002043Y010900D02*
X001585Y010900D01*
X001585Y011058D02*
X010620Y011058D01*
X010620Y011152D02*
X010620Y010725D01*
X010726Y010620D01*
X011153Y010620D01*
X011258Y010725D01*
X011258Y011152D01*
X011199Y011211D01*
X011199Y012673D01*
X011720Y013194D01*
X011885Y013194D01*
X011991Y013300D01*
X011991Y013727D01*
X011885Y013833D01*
X011458Y013833D01*
X011353Y013727D01*
X011353Y013562D01*
X010719Y012928D01*
X010679Y012833D01*
X010679Y011211D01*
X010620Y011152D01*
X010679Y011217D02*
X001585Y011217D01*
X001585Y011375D02*
X010679Y011375D01*
X010679Y011534D02*
X001585Y011534D01*
X001585Y011692D02*
X010679Y011692D01*
X010679Y011851D02*
X001585Y011851D01*
X001585Y012009D02*
X002187Y012009D01*
X002116Y012038D02*
X002312Y011957D01*
X003228Y011957D01*
X003424Y012038D01*
X003574Y012188D01*
X003655Y012384D01*
X003655Y012596D01*
X003574Y012791D01*
X003424Y012941D01*
X003228Y013022D01*
X002312Y013022D01*
X002116Y012941D01*
X001966Y012791D01*
X001885Y012596D01*
X001885Y012384D01*
X001966Y012188D01*
X002116Y012038D01*
X001987Y012168D02*
X001585Y012168D01*
X001585Y012326D02*
X001909Y012326D01*
X001885Y012485D02*
X001585Y012485D01*
X001585Y012643D02*
X001905Y012643D01*
X001976Y012802D02*
X001585Y012802D01*
X001585Y012960D02*
X002161Y012960D01*
X001585Y013119D02*
X010909Y013119D01*
X011067Y013277D02*
X001585Y013277D01*
X001585Y013436D02*
X011226Y013436D01*
X011353Y013594D02*
X001585Y013594D01*
X001585Y013753D02*
X011378Y013753D01*
X011965Y013753D02*
X012443Y013753D01*
X012443Y013911D02*
X001585Y013911D01*
X001585Y014070D02*
X002053Y014070D01*
X001937Y014228D02*
X001585Y014228D01*
X001585Y014387D02*
X001885Y014387D01*
X001885Y014545D02*
X001585Y014545D01*
X001585Y014704D02*
X001943Y014704D01*
X002068Y014862D02*
X001585Y014862D01*
X003472Y014862D02*
X012443Y014862D01*
X012443Y014704D02*
X003597Y014704D01*
X003655Y014545D02*
X012443Y014545D01*
X012443Y014387D02*
X003655Y014387D01*
X003603Y014228D02*
X012443Y014228D01*
X012443Y014070D02*
X003487Y014070D01*
X003379Y012960D02*
X010750Y012960D01*
X010679Y012802D02*
X003564Y012802D01*
X003635Y012643D02*
X010679Y012643D01*
X010679Y012485D02*
X003655Y012485D01*
X003631Y012326D02*
X010679Y012326D01*
X010679Y012168D02*
X003553Y012168D01*
X003353Y012009D02*
X010679Y012009D01*
X011199Y012009D02*
X012443Y012009D01*
X012443Y011851D02*
X011199Y011851D01*
X011199Y011692D02*
X012443Y011692D01*
X012443Y011534D02*
X011199Y011534D01*
X011199Y011375D02*
X012443Y011375D01*
X012443Y011217D02*
X011199Y011217D01*
X011258Y011058D02*
X012443Y011058D01*
X012443Y010900D02*
X011258Y010900D01*
X011258Y010741D02*
X012443Y010741D01*
X012443Y010583D02*
X003655Y010583D01*
X003655Y010424D02*
X012443Y010424D01*
X012443Y010266D02*
X003593Y010266D01*
X003461Y010107D02*
X012443Y010107D01*
X010939Y010939D02*
X010939Y012781D01*
X011672Y013513D01*
X011991Y013436D02*
X012443Y013436D01*
X012443Y013594D02*
X011991Y013594D01*
X011968Y013277D02*
X012443Y013277D01*
X012443Y013119D02*
X011644Y013119D01*
X011486Y012960D02*
X012443Y012960D01*
X012443Y012802D02*
X011327Y012802D01*
X011199Y012643D02*
X012443Y012643D01*
X012443Y012485D02*
X011199Y012485D01*
X011199Y012326D02*
X012443Y012326D01*
X012443Y012168D02*
X011199Y012168D01*
X010620Y010900D02*
X003497Y010900D01*
X003608Y010741D02*
X010620Y010741D01*
X015750Y011269D02*
X016774Y012293D01*
X017955Y011269D02*
X017443Y010758D01*
X020690Y008030D02*
X020977Y007743D01*
X020977Y004672D01*
X020793Y004488D01*
X016998Y004488D01*
X016678Y004560D02*
X015130Y004560D01*
X015131Y004401D02*
X016678Y004401D01*
X016709Y004243D02*
X015132Y004243D01*
X014872Y004243D02*
X003502Y004243D01*
X003610Y004401D02*
X014871Y004401D01*
X014870Y004560D02*
X003655Y004560D01*
X003655Y004718D02*
X014869Y004718D01*
X014873Y004084D02*
X003230Y004084D01*
X002310Y004084D02*
X001585Y004084D01*
X001585Y003926D02*
X014874Y003926D01*
X014875Y003767D02*
X001585Y003767D01*
X001585Y003609D02*
X014876Y003609D01*
X014877Y003450D02*
X001585Y003450D01*
X001585Y003292D02*
X014878Y003292D01*
X014879Y003133D02*
X001585Y003133D01*
X001585Y002975D02*
X014879Y002975D01*
X014881Y002816D02*
X001585Y002816D01*
X001585Y004243D02*
X002038Y004243D01*
X001930Y004401D02*
X001585Y004401D01*
X001585Y004560D02*
X001885Y004560D01*
X001885Y004718D02*
X001585Y004718D01*
X001585Y004877D02*
X001949Y004877D01*
X002084Y005035D02*
X001585Y005035D01*
X001585Y005511D02*
X011882Y005511D01*
X011809Y005669D02*
X001585Y005669D01*
X001585Y006145D02*
X002104Y006145D01*
X001958Y006303D02*
X001585Y006303D01*
X001585Y006462D02*
X001892Y006462D01*
X001885Y006620D02*
X001585Y006620D01*
X001585Y006779D02*
X001922Y006779D01*
X002017Y006937D02*
X001585Y006937D01*
X001585Y008047D02*
X002248Y008047D01*
X002012Y008205D02*
X001585Y008205D01*
X001585Y008364D02*
X001920Y008364D01*
X001885Y008522D02*
X001585Y008522D01*
X001585Y008681D02*
X001894Y008681D01*
X001960Y008839D02*
X001585Y008839D01*
X013380Y002658D02*
X014882Y002658D01*
X014883Y002499D02*
X013396Y002499D01*
X013555Y002341D02*
X014884Y002341D01*
X016779Y004877D02*
X020717Y004877D01*
X020717Y005035D02*
X016779Y005035D01*
X016731Y005194D02*
X020717Y005194D01*
X022364Y014070D02*
X014884Y014070D01*
X014884Y014228D02*
X022364Y014228D01*
X022364Y014387D02*
X014884Y014387D01*
X014924Y014458D02*
X015750Y014458D01*
X014884Y014545D02*
X022364Y014545D01*
X022364Y014704D02*
X014884Y014704D01*
X014884Y014862D02*
X022364Y014862D01*
D13*
X018546Y013277D03*
X018034Y013277D03*
X017522Y013277D03*
X016774Y013435D03*
X015750Y014458D03*
X019490Y011269D03*
X019412Y010797D03*
X018624Y010324D03*
X018073Y009970D03*
X017010Y009970D03*
X016538Y010403D03*
X017443Y010758D03*
X019176Y009813D03*
D14*
X019963Y010521D03*
X021144Y011309D03*
X021931Y010128D03*
X018152Y010797D03*
X016144Y010915D03*
X014924Y010915D03*
X014924Y010639D03*
X014924Y010364D03*
X014924Y010088D03*
X014924Y009813D03*
X014805Y009340D03*
X014805Y009104D03*
X014805Y008828D03*
X014805Y008592D03*
X014805Y008317D03*
X015199Y008317D03*
X015199Y008041D03*
X014805Y008041D03*
X014805Y007765D03*
X015199Y007765D03*
X015199Y007490D03*
X015199Y007214D03*
X014805Y007214D03*
X014805Y007490D03*
X014805Y006939D03*
X015199Y006939D03*
X015199Y006663D03*
X015199Y006387D03*
X014805Y006387D03*
X014805Y006663D03*
X014805Y006112D03*
X015199Y006112D03*
X015199Y005836D03*
X014805Y005836D03*
X014805Y005561D03*
X014805Y005285D03*
X015199Y005285D03*
X015199Y005561D03*
X014805Y004931D03*
X014805Y004537D03*
X015199Y004537D03*
X015199Y004261D03*
X015199Y003986D03*
X014805Y003986D03*
X014805Y004261D03*
X014805Y003710D03*
X015199Y003710D03*
X015199Y003435D03*
X014805Y003435D03*
X014805Y003159D03*
X015199Y003159D03*
X016998Y004488D03*
X016459Y004931D03*
X018827Y006013D03*
X019687Y005373D03*
X019963Y006978D03*
X021931Y007765D03*
X020690Y008030D03*
X016144Y009931D03*
X015750Y009340D03*
X012994Y009458D03*
X012994Y008671D03*
X014924Y011191D03*
X014924Y011466D03*
X014924Y011742D03*
X011420Y011821D03*
X015110Y014033D03*
X012207Y014970D03*
X009451Y014970D03*
X001577Y014970D03*
X001577Y013395D03*
X001577Y011427D03*
X001577Y009458D03*
X001577Y007490D03*
X001577Y005521D03*
D15*
X021971Y010128D02*
X022010Y010167D01*
X023561Y010167D01*
X031735Y006675D02*
X031813Y006596D01*
X031813Y002730D01*
D16*
X018034Y001860D03*
X013061Y002466D03*
X012128Y005797D03*
X012128Y006584D03*
X010939Y010939D03*
X011672Y013513D03*
M02*
