G75*
%MOIN*%
%OFA0B0*%
%FSLAX24Y24*%
%IPPOS*%
%LPD*%
%AMOC8*
5,1,8,0,0,1.08239X$1,22.5*
%
%ADD10C,0.1340*%
%ADD11R,0.0069X0.0011*%
%ADD12R,0.0080X0.0011*%
%ADD13R,0.0218X0.0011*%
%ADD14R,0.0310X0.0011*%
%ADD15R,0.0380X0.0011*%
%ADD16R,0.0425X0.0012*%
%ADD17R,0.0471X0.0011*%
%ADD18R,0.0517X0.0011*%
%ADD19R,0.0092X0.0011*%
%ADD20R,0.0563X0.0011*%
%ADD21R,0.0161X0.0011*%
%ADD22R,0.0586X0.0011*%
%ADD23R,0.0782X0.0011*%
%ADD24R,0.0816X0.0012*%
%ADD25R,0.0655X0.0011*%
%ADD26R,0.0851X0.0011*%
%ADD27R,0.0678X0.0011*%
%ADD28R,0.0862X0.0011*%
%ADD29R,0.0288X0.0011*%
%ADD30R,0.0448X0.0011*%
%ADD31R,0.0241X0.0011*%
%ADD32R,0.0253X0.0011*%
%ADD33R,0.0391X0.0011*%
%ADD34R,0.0230X0.0012*%
%ADD35R,0.0345X0.0012*%
%ADD36R,0.0207X0.0011*%
%ADD37R,0.0207X0.0011*%
%ADD38R,0.0299X0.0011*%
%ADD39R,0.0195X0.0011*%
%ADD40R,0.0184X0.0011*%
%ADD41R,0.0173X0.0012*%
%ADD42R,0.0195X0.0012*%
%ADD43R,0.0322X0.0012*%
%ADD44R,0.0184X0.0012*%
%ADD45R,0.0173X0.0011*%
%ADD46R,0.0230X0.0011*%
%ADD47R,0.0184X0.0011*%
%ADD48R,0.0092X0.0011*%
%ADD49R,0.0161X0.0012*%
%ADD50R,0.0092X0.0012*%
%ADD51R,0.0149X0.0011*%
%ADD52R,0.0150X0.0011*%
%ADD53R,0.0069X0.0011*%
%ADD54R,0.0046X0.0011*%
%ADD55R,0.0149X0.0012*%
%ADD56R,0.0023X0.0012*%
%ADD57R,0.0138X0.0012*%
%ADD58R,0.0138X0.0011*%
%ADD59R,0.0103X0.0011*%
%ADD60R,0.0057X0.0011*%
%ADD61R,0.0035X0.0011*%
%ADD62R,0.0103X0.0012*%
%ADD63R,0.0011X0.0012*%
%ADD64R,0.0127X0.0012*%
%ADD65R,0.0057X0.0012*%
%ADD66R,0.0127X0.0011*%
%ADD67R,0.0011X0.0011*%
%ADD68R,0.0023X0.0011*%
%ADD69R,0.0092X0.0012*%
%ADD70R,0.0115X0.0011*%
%ADD71R,0.0126X0.0011*%
%ADD72R,0.0126X0.0012*%
%ADD73R,0.0265X0.0011*%
%ADD74R,0.0150X0.0012*%
%ADD75R,0.0276X0.0012*%
%ADD76R,0.0322X0.0011*%
%ADD77R,0.0345X0.0011*%
%ADD78R,0.0368X0.0011*%
%ADD79R,0.0368X0.0012*%
%ADD80R,0.0379X0.0011*%
%ADD81R,0.0207X0.0012*%
%ADD82R,0.0207X0.0012*%
%ADD83R,0.0678X0.0012*%
%ADD84R,0.0621X0.0011*%
%ADD85R,0.0552X0.0011*%
%ADD86R,0.0552X0.0011*%
%ADD87R,0.0517X0.0012*%
%ADD88R,0.0425X0.0011*%
%ADD89R,0.0218X0.0012*%
%ADD90R,0.0437X0.0011*%
%ADD91R,0.0437X0.0012*%
%ADD92R,0.0080X0.0012*%
%ADD93R,0.0333X0.0012*%
%ADD94R,0.0356X0.0011*%
%ADD95R,0.0403X0.0011*%
%ADD96R,0.0115X0.0012*%
%ADD97R,0.0069X0.0012*%
%ADD98R,0.0391X0.0012*%
%ADD99R,0.0264X0.0011*%
%ADD100R,0.0288X0.0012*%
%ADD101R,0.0403X0.0012*%
%ADD102R,0.0299X0.0011*%
%ADD103R,0.0276X0.0011*%
%ADD104R,0.0069X0.0012*%
%ADD105R,0.0414X0.0011*%
%ADD106R,0.0333X0.0011*%
%ADD107R,0.0322X0.0011*%
%ADD108R,0.0534X0.0237*%
%ADD109R,0.0395X0.0552*%
%ADD110R,0.0552X0.0395*%
%ADD111R,0.0260X0.0620*%
%ADD112R,0.0631X0.0552*%
%ADD113R,0.1064X0.0867*%
%ADD114R,0.0157X0.1004*%
%ADD115C,0.0434*%
%ADD116C,0.0356*%
%ADD117C,0.0674*%
%ADD118C,0.0785*%
%ADD119C,0.0360*%
%ADD120R,0.0360X0.0360*%
%ADD121R,0.0358X0.0358*%
D10*
X021577Y002254D03*
D11*
X014758Y003603D03*
X014758Y003637D03*
X013895Y003810D03*
X013884Y003844D03*
X013872Y003879D03*
X013849Y003948D03*
X013757Y003936D03*
X012860Y003902D03*
X012492Y003637D03*
X013182Y002257D03*
D12*
X013567Y002809D03*
X014050Y002694D03*
X014223Y002614D03*
X014476Y002257D03*
X014016Y003465D03*
X014004Y003488D03*
X014004Y003499D03*
X013993Y003522D03*
X013993Y003534D03*
X013981Y003557D03*
X013970Y003580D03*
X013970Y003591D03*
X013970Y003603D03*
X013958Y003614D03*
X013935Y003695D03*
X013935Y003706D03*
X013924Y003718D03*
X013924Y003729D03*
X013912Y003752D03*
X013912Y003764D03*
X013912Y003775D03*
X013901Y003787D03*
X013889Y003821D03*
X013889Y003833D03*
X013878Y003867D03*
X013866Y003890D03*
X013866Y003902D03*
X013855Y003925D03*
X013855Y003936D03*
X013763Y003948D03*
X013751Y003925D03*
X013740Y003902D03*
X013740Y003890D03*
X013740Y003879D03*
X013728Y003867D03*
X013728Y003844D03*
X013717Y003833D03*
X013717Y003821D03*
X013717Y003810D03*
X013705Y003787D03*
X013694Y003775D03*
X013694Y003764D03*
X013694Y003752D03*
X013682Y003729D03*
X013682Y003718D03*
X013671Y003706D03*
X013671Y003695D03*
X013636Y003603D03*
X013636Y003591D03*
X013625Y003580D03*
X013625Y003557D03*
X013613Y003545D03*
X013613Y003534D03*
X013602Y003499D03*
X013590Y003476D03*
X013590Y003465D03*
X013579Y003442D03*
X013084Y003522D03*
X013084Y003534D03*
X013084Y003545D03*
X013084Y003557D03*
X013084Y003580D03*
X013084Y003591D03*
X013084Y003603D03*
X013084Y003614D03*
X013084Y003637D03*
X013084Y003649D03*
X013084Y003660D03*
X013084Y003672D03*
X013084Y003695D03*
X013084Y003706D03*
X013084Y003810D03*
X013084Y003821D03*
X013084Y003833D03*
X013084Y003844D03*
X013084Y003867D03*
X013084Y003879D03*
X013084Y003890D03*
X013084Y003902D03*
X013084Y003925D03*
X013084Y003936D03*
X013084Y003948D03*
X013084Y003959D03*
X012866Y003890D03*
X012866Y003879D03*
X012854Y003925D03*
X012521Y003925D03*
X012521Y003936D03*
X012521Y003902D03*
X012498Y003614D03*
X012498Y003603D03*
X012498Y003591D03*
X012498Y003580D03*
X012509Y003557D03*
X012866Y003557D03*
X012877Y003580D03*
X012877Y003591D03*
X012877Y003603D03*
X012877Y003614D03*
X013809Y004051D03*
X014188Y003959D03*
X014188Y003948D03*
X014188Y003936D03*
X014188Y003925D03*
X014188Y003902D03*
X014188Y003890D03*
X014188Y003879D03*
X014188Y003867D03*
X014188Y003844D03*
X014188Y003833D03*
X014188Y003821D03*
X014188Y003810D03*
X014188Y003787D03*
X014188Y003775D03*
X014188Y003764D03*
X014188Y003752D03*
X014188Y003729D03*
X014188Y003718D03*
X014188Y003706D03*
X014188Y003695D03*
X014188Y003672D03*
X014188Y003660D03*
X014188Y003649D03*
X014188Y003637D03*
X014188Y003614D03*
X014188Y003603D03*
X014188Y003591D03*
X014188Y003580D03*
X014188Y003557D03*
X014188Y003545D03*
X014188Y003534D03*
X014188Y003522D03*
X014556Y003580D03*
X014568Y003603D03*
X014568Y003614D03*
X014579Y003637D03*
X014579Y003649D03*
X014591Y003672D03*
X014591Y003695D03*
X014591Y003706D03*
X014591Y003718D03*
X014591Y003729D03*
X014591Y003752D03*
X014591Y003764D03*
X014591Y003775D03*
X014591Y003787D03*
X014591Y003810D03*
X014591Y003821D03*
X014579Y003867D03*
X014568Y003890D03*
X014775Y003890D03*
X014775Y003879D03*
X014775Y003902D03*
X014786Y003925D03*
X014786Y003936D03*
X015108Y003948D03*
X015120Y003925D03*
X015120Y003902D03*
X015120Y003890D03*
X015131Y003649D03*
X015131Y003637D03*
X015131Y003580D03*
X015131Y003557D03*
X014763Y003580D03*
X014763Y003591D03*
X014752Y003614D03*
D13*
X014878Y003787D03*
X014947Y003442D03*
X014752Y003120D03*
X014200Y003120D03*
X013613Y002924D03*
X013464Y003120D03*
X012912Y003120D03*
X012912Y002430D03*
X013188Y002269D03*
X013464Y002430D03*
X014177Y002499D03*
X014476Y002269D03*
X014752Y002430D03*
X012613Y003787D03*
D14*
X014476Y003269D03*
X014947Y003465D03*
X014947Y004017D03*
X014119Y002464D03*
X014154Y002430D03*
X014476Y002280D03*
X013188Y002280D03*
D15*
X013188Y002292D03*
X014476Y002292D03*
X014338Y003476D03*
X014338Y004005D03*
D16*
X014476Y002303D03*
X013188Y002303D03*
D17*
X013188Y002315D03*
X014476Y002315D03*
X014476Y003235D03*
X013188Y003235D03*
D18*
X013188Y002326D03*
X014476Y002326D03*
D19*
X014091Y002326D03*
X013987Y002487D03*
X013976Y002499D03*
X013964Y002510D03*
X013930Y002545D03*
X013918Y002556D03*
X014022Y003442D03*
X013987Y003545D03*
X014539Y003557D03*
X014562Y003591D03*
X014769Y003557D03*
X014781Y003545D03*
X015114Y003534D03*
X015126Y003545D03*
X015137Y003591D03*
X015137Y003603D03*
X015137Y003614D03*
X015126Y003660D03*
X015114Y003936D03*
X014792Y003948D03*
X014781Y003867D03*
X014562Y003902D03*
X014551Y003925D03*
X013803Y004040D03*
X013642Y003614D03*
X012872Y003637D03*
X012872Y003649D03*
X012837Y003959D03*
X012538Y003959D03*
X012527Y003948D03*
X012527Y003844D03*
D20*
X013188Y002338D03*
X014476Y002338D03*
D21*
X014091Y002338D03*
X014194Y002568D03*
X014838Y002510D03*
X014850Y002522D03*
X014861Y002545D03*
X014873Y002982D03*
X014861Y003005D03*
X014850Y003016D03*
X014850Y003028D03*
X014838Y003039D03*
X014838Y003499D03*
X013803Y003959D03*
X012803Y003499D03*
X012573Y003499D03*
X012826Y003039D03*
X012814Y003028D03*
X012803Y003016D03*
X012803Y003005D03*
X012791Y002556D03*
X012803Y002545D03*
X012814Y002522D03*
X012826Y002510D03*
X013585Y002867D03*
D22*
X013188Y003200D03*
X014476Y003200D03*
X013188Y002361D03*
X013188Y002349D03*
D23*
X014378Y002349D03*
D24*
X014372Y002361D03*
D25*
X013188Y002372D03*
X013188Y003177D03*
X014476Y003177D03*
D26*
X014378Y002372D03*
D27*
X013188Y002384D03*
D28*
X014384Y002384D03*
D29*
X014683Y002395D03*
X014269Y003154D03*
X013395Y002395D03*
X012981Y002395D03*
X012981Y003154D03*
X012693Y003752D03*
X012670Y003764D03*
D30*
X014188Y002395D03*
D31*
X013636Y002959D03*
X012946Y002407D03*
X014947Y004040D03*
D32*
X014907Y003775D03*
X014712Y003143D03*
X014240Y003143D03*
X013642Y002970D03*
X013424Y003143D03*
X012952Y003143D03*
X012642Y003775D03*
X012688Y004040D03*
X013424Y002407D03*
X014712Y002407D03*
D33*
X014171Y002407D03*
X014344Y003488D03*
X013803Y003637D03*
X014344Y003994D03*
D34*
X013619Y002936D03*
X013447Y002418D03*
X012929Y002418D03*
X014735Y002418D03*
D35*
X014160Y002418D03*
X013803Y003683D03*
X014321Y004028D03*
D36*
X014769Y002441D03*
X012895Y002441D03*
D37*
X013481Y002441D03*
X014183Y002510D03*
X013608Y002913D03*
X013493Y003097D03*
D38*
X013389Y003154D03*
X013182Y003269D03*
X013654Y003005D03*
X014125Y002453D03*
X014137Y002441D03*
X014677Y003154D03*
X014298Y003442D03*
D39*
X014165Y003097D03*
X014154Y003085D03*
X014027Y002970D03*
X014016Y002959D03*
X014004Y002947D03*
X013981Y002924D03*
X013970Y002913D03*
X013958Y002901D03*
X013947Y002890D03*
X013924Y002867D03*
X013912Y002855D03*
X013901Y002844D03*
X013889Y002832D03*
X013866Y002809D03*
X013855Y002798D03*
X013843Y002786D03*
X013832Y002775D03*
X013809Y002752D03*
X013797Y002740D03*
X013786Y002729D03*
X013774Y002717D03*
X013751Y002694D03*
X013510Y002464D03*
X013498Y002453D03*
X012877Y002453D03*
X012866Y002464D03*
X013602Y002901D03*
X013510Y003085D03*
X012877Y003097D03*
X012866Y003085D03*
X014188Y002522D03*
X014786Y002453D03*
X014786Y003097D03*
X014947Y004051D03*
X012682Y004051D03*
D40*
X012803Y003706D03*
X014102Y003039D03*
X014079Y003016D03*
X014068Y003005D03*
X014045Y002982D03*
X014125Y003062D03*
X014137Y003074D03*
X013596Y002890D03*
X013734Y002683D03*
X013723Y002671D03*
X013711Y002660D03*
X013677Y002625D03*
X013665Y002614D03*
X013654Y002602D03*
X013619Y002568D03*
X013608Y002556D03*
X013596Y002545D03*
X013562Y002510D03*
X013550Y002499D03*
X013539Y002487D03*
X014171Y002602D03*
X014792Y002464D03*
X014804Y003074D03*
X014792Y003085D03*
D41*
X014177Y002591D03*
X013590Y002878D03*
X012831Y003051D03*
X012854Y002476D03*
D42*
X013521Y002476D03*
X013763Y002706D03*
X013820Y002763D03*
X013878Y002821D03*
X013935Y002878D03*
X013993Y002936D03*
D43*
X014114Y002476D03*
D44*
X014194Y002533D03*
X013700Y002648D03*
X013642Y002591D03*
X013585Y002533D03*
X014056Y002993D03*
X014114Y003051D03*
X014804Y002476D03*
X014850Y003798D03*
X012584Y003798D03*
D45*
X012854Y003074D03*
X012843Y003062D03*
X012831Y002499D03*
X012843Y002487D03*
X014188Y002579D03*
X014200Y002545D03*
X014821Y002487D03*
X014832Y002499D03*
X014821Y003062D03*
X015062Y003499D03*
X015062Y003706D03*
D46*
X015034Y003718D03*
X014735Y003131D03*
X014217Y003131D03*
X013631Y002947D03*
X013447Y003131D03*
X012929Y003131D03*
X012688Y003442D03*
X012768Y003718D03*
X014171Y002487D03*
D47*
X013688Y002637D03*
X013631Y002579D03*
X013573Y002522D03*
X014091Y003028D03*
D48*
X014010Y003476D03*
X014585Y003660D03*
X014585Y003833D03*
X014585Y003844D03*
X014574Y003879D03*
X014804Y003959D03*
X015103Y003959D03*
X013608Y003522D03*
X013596Y003488D03*
X012860Y003545D03*
X012860Y003660D03*
X012515Y003545D03*
X012515Y003867D03*
X012515Y003879D03*
X012515Y003890D03*
X012849Y003936D03*
X012849Y003948D03*
X013953Y002522D03*
D49*
X014850Y002533D03*
X014827Y003051D03*
X014482Y003511D03*
X012803Y002533D03*
D50*
X013941Y002533D03*
X013999Y003511D03*
X012504Y003568D03*
D51*
X012774Y002959D03*
X012762Y002924D03*
X014200Y002556D03*
X014890Y002602D03*
X014890Y002947D03*
X014947Y003430D03*
D52*
X014821Y003810D03*
X014878Y002970D03*
X014878Y002579D03*
X014878Y002568D03*
X014867Y002556D03*
X012785Y002568D03*
X012785Y002579D03*
X012785Y002970D03*
X012785Y002982D03*
X012682Y003430D03*
X012567Y003810D03*
D53*
X013918Y002568D03*
X015126Y003879D03*
D54*
X013562Y002786D03*
X013918Y002579D03*
D55*
X012774Y002591D03*
X013809Y003971D03*
D56*
X013918Y002591D03*
D57*
X014884Y002591D03*
X014907Y002648D03*
X014919Y002706D03*
X014896Y002936D03*
X012768Y002936D03*
X012745Y002878D03*
X012734Y002821D03*
X012734Y002763D03*
X012757Y002648D03*
D58*
X012757Y002637D03*
X012757Y002625D03*
X012768Y002614D03*
X012768Y002602D03*
X012745Y002660D03*
X012745Y002671D03*
X012745Y002683D03*
X012745Y002694D03*
X012734Y002729D03*
X012734Y002740D03*
X012734Y002752D03*
X012734Y002775D03*
X012734Y002786D03*
X012734Y002798D03*
X012734Y002809D03*
X012745Y002855D03*
X012745Y002867D03*
X012745Y002890D03*
X012757Y002901D03*
X012757Y002913D03*
X012768Y002947D03*
X013585Y002855D03*
X013700Y003085D03*
X014884Y002959D03*
X014896Y002924D03*
X014907Y002913D03*
X014907Y002901D03*
X014907Y002890D03*
X014919Y002867D03*
X014919Y002855D03*
X014919Y002844D03*
X014919Y002832D03*
X014919Y002717D03*
X014919Y002694D03*
X014919Y002683D03*
X014919Y002671D03*
X014907Y002660D03*
X014907Y002637D03*
X014896Y002625D03*
X014896Y002614D03*
X015091Y003695D03*
X013803Y003982D03*
X013803Y003994D03*
X012826Y003695D03*
D59*
X012854Y003672D03*
X012854Y003534D03*
X012843Y003522D03*
X012532Y003522D03*
X012521Y003534D03*
X012532Y003833D03*
X014533Y003948D03*
X014545Y003936D03*
X014786Y003844D03*
X014798Y003833D03*
X014821Y003982D03*
X015120Y003672D03*
X015108Y003522D03*
X014798Y003522D03*
X014786Y003534D03*
X014533Y003545D03*
X014522Y003534D03*
X014050Y002683D03*
X014062Y002671D03*
X014073Y002660D03*
X014096Y002637D03*
X014108Y002625D03*
X014119Y002614D03*
D60*
X014223Y002625D03*
X013567Y002798D03*
X013705Y003097D03*
D61*
X014050Y002717D03*
X014223Y002637D03*
X014476Y003292D03*
X013188Y003292D03*
D62*
X012831Y003971D03*
X012544Y003971D03*
X014809Y003971D03*
X014085Y002648D03*
D63*
X014223Y002648D03*
D64*
X014924Y002763D03*
X014924Y002821D03*
X014809Y003511D03*
X012739Y002706D03*
D65*
X014050Y002706D03*
D66*
X014924Y002729D03*
X014924Y002740D03*
X014924Y002752D03*
X014924Y002775D03*
X014924Y002786D03*
X014924Y002798D03*
X014924Y002809D03*
X012739Y002832D03*
X012739Y002844D03*
X012739Y002717D03*
X012682Y004063D03*
D67*
X014050Y002729D03*
D68*
X013562Y002775D03*
D69*
X013573Y002821D03*
X013585Y003453D03*
X014551Y003568D03*
X014562Y003913D03*
X014781Y003856D03*
X015137Y003626D03*
D70*
X014804Y003821D03*
X014516Y003959D03*
X013803Y004017D03*
X012814Y003982D03*
X012561Y003982D03*
X013573Y002832D03*
D71*
X013579Y002844D03*
X014510Y003522D03*
X015074Y003982D03*
X014947Y004063D03*
X013809Y004005D03*
X012544Y003821D03*
D72*
X012831Y003511D03*
X014499Y003971D03*
X014913Y002878D03*
D73*
X013648Y002982D03*
X012739Y003729D03*
X014280Y004051D03*
D74*
X014867Y002993D03*
X012797Y002993D03*
D75*
X012688Y003453D03*
X013654Y002993D03*
X014953Y003453D03*
X014976Y003741D03*
D76*
X013654Y003016D03*
X012688Y003465D03*
X012688Y004017D03*
D77*
X012688Y004005D03*
X012688Y003476D03*
X013654Y003028D03*
X014953Y003476D03*
D78*
X014953Y003488D03*
X014470Y003258D03*
X013803Y003660D03*
X013803Y003672D03*
X014332Y004017D03*
X013182Y003258D03*
X013608Y003074D03*
X013654Y003039D03*
X012688Y003488D03*
D79*
X013642Y003051D03*
D80*
X013625Y003062D03*
X013797Y003649D03*
D81*
X012895Y003108D03*
X014769Y003108D03*
D82*
X014183Y003108D03*
X013481Y003108D03*
D83*
X013188Y003166D03*
X014476Y003166D03*
D84*
X014470Y003189D03*
X013182Y003189D03*
D85*
X013182Y003212D03*
D86*
X014470Y003212D03*
D87*
X014476Y003223D03*
X013188Y003223D03*
D88*
X013188Y003246D03*
X014476Y003246D03*
X013257Y004051D03*
D89*
X013188Y003281D03*
X014476Y003281D03*
D90*
X013263Y003442D03*
X013263Y003465D03*
X013263Y003476D03*
X013263Y003488D03*
X013263Y003499D03*
X013263Y003982D03*
X013263Y003994D03*
X013263Y004005D03*
X013263Y004017D03*
X013263Y004040D03*
D91*
X013263Y004028D03*
X013263Y003453D03*
D92*
X013084Y003511D03*
X013084Y003568D03*
X013084Y003626D03*
X013084Y003683D03*
X013084Y003798D03*
X013084Y003856D03*
X013084Y003913D03*
X013084Y003971D03*
X012854Y003913D03*
X012521Y003913D03*
X012521Y003856D03*
X012877Y003626D03*
X012866Y003568D03*
X013602Y003511D03*
X013625Y003568D03*
X013682Y003741D03*
X013705Y003798D03*
X013728Y003856D03*
X013751Y003913D03*
X013878Y003856D03*
X013901Y003798D03*
X013924Y003741D03*
X013981Y003568D03*
X014016Y003453D03*
X014188Y003511D03*
X014188Y003568D03*
X014188Y003626D03*
X014188Y003683D03*
X014188Y003741D03*
X014188Y003798D03*
X014188Y003856D03*
X014188Y003913D03*
X014188Y003971D03*
X014579Y003856D03*
X014591Y003798D03*
X014591Y003741D03*
X014591Y003683D03*
X014579Y003626D03*
X014752Y003626D03*
X014763Y003568D03*
X015131Y003568D03*
X015120Y003913D03*
X014775Y003913D03*
D93*
X014315Y003453D03*
D94*
X014326Y003465D03*
X014947Y003994D03*
X012693Y003994D03*
D95*
X013245Y003787D03*
X013245Y003775D03*
X013245Y003764D03*
X013245Y003752D03*
X013245Y003729D03*
X013245Y003718D03*
X014349Y003499D03*
D96*
X015091Y003511D03*
X015103Y003683D03*
X015091Y003971D03*
X013803Y004028D03*
X012849Y003683D03*
X012550Y003511D03*
D97*
X012492Y003626D03*
D98*
X013803Y003626D03*
D99*
X015005Y003729D03*
D100*
X014947Y004028D03*
X012716Y003741D03*
X012682Y004028D03*
D101*
X013245Y003741D03*
D102*
X014953Y003752D03*
D103*
X014930Y003764D03*
D104*
X013861Y003913D03*
D105*
X014355Y003982D03*
D106*
X014947Y004005D03*
D107*
X014309Y004040D03*
D108*
X013573Y004823D03*
X013573Y005078D03*
X013573Y005334D03*
X013573Y005590D03*
X013573Y005846D03*
X013573Y006102D03*
X013573Y006358D03*
X013573Y006614D03*
X013573Y006870D03*
X013573Y007126D03*
X013573Y007382D03*
X013573Y007637D03*
X013573Y007893D03*
X013573Y008149D03*
X016447Y008149D03*
X016447Y007893D03*
X016447Y007637D03*
X016447Y007382D03*
X016447Y007126D03*
X016447Y006870D03*
X016447Y006614D03*
X016447Y006358D03*
X016447Y006102D03*
X016447Y005846D03*
X016447Y005590D03*
X016447Y005334D03*
X016447Y005078D03*
X016447Y004823D03*
D109*
X014294Y004025D03*
X013585Y004025D03*
X014648Y002726D03*
X015357Y002726D03*
X024372Y002647D03*
X025081Y002647D03*
X025553Y002647D03*
X026262Y002647D03*
X016459Y008789D03*
X015750Y008789D03*
X015750Y009340D03*
X016459Y009340D03*
X014294Y009380D03*
X013585Y009380D03*
X013585Y008828D03*
X014294Y008828D03*
X014294Y010010D03*
X013585Y010010D03*
X013270Y013750D03*
X013979Y013750D03*
X013427Y014458D03*
X012719Y014458D03*
D110*
X010711Y014222D03*
X010120Y014222D03*
X009530Y014222D03*
X009530Y013513D03*
X010120Y013513D03*
X010711Y013513D03*
X010711Y012923D03*
X010120Y012923D03*
X009530Y012923D03*
X009530Y012214D03*
X010120Y012214D03*
X010711Y012214D03*
X010711Y010679D03*
X010120Y010679D03*
X009530Y010679D03*
X009530Y009970D03*
X010120Y009970D03*
X010711Y009970D03*
X010711Y009380D03*
X010120Y009380D03*
X009530Y009380D03*
X009530Y008671D03*
X010120Y008671D03*
X010711Y008671D03*
X010711Y007136D03*
X010120Y007136D03*
X009530Y007136D03*
X009530Y006427D03*
X010120Y006427D03*
X010711Y006427D03*
X010711Y005836D03*
X010120Y005836D03*
X009530Y005836D03*
X009530Y005128D03*
X010120Y005128D03*
X010711Y005128D03*
X018148Y005341D03*
X018148Y006050D03*
X020356Y006027D03*
X020356Y005318D03*
X024333Y004183D03*
X025120Y004183D03*
X025120Y003474D03*
X024333Y003474D03*
X020396Y008710D03*
X019805Y008710D03*
X019215Y008710D03*
X018624Y008710D03*
X018073Y008710D03*
X017443Y008710D03*
X017443Y009419D03*
X018073Y009419D03*
X018624Y009419D03*
X019215Y009419D03*
X019805Y009419D03*
X020396Y009419D03*
D111*
X013965Y011315D03*
X013715Y011315D03*
X013455Y011315D03*
X013205Y011315D03*
X013205Y013035D03*
X013455Y013035D03*
X013715Y013035D03*
X013965Y013035D03*
D112*
X018819Y006019D03*
X019686Y006019D03*
X019686Y005349D03*
X018819Y005349D03*
D113*
X020991Y013287D03*
X015076Y013277D03*
D114*
X016284Y012352D03*
X016534Y012352D03*
X016784Y012352D03*
X017034Y012352D03*
X017284Y012352D03*
X017534Y012352D03*
X017784Y012352D03*
X018034Y012352D03*
X018284Y012352D03*
X018534Y012352D03*
X018784Y012352D03*
X019034Y012352D03*
X019284Y012352D03*
X019534Y012352D03*
X019784Y012352D03*
X019784Y014202D03*
X019534Y014202D03*
X019284Y014202D03*
X019034Y014202D03*
X018784Y014202D03*
X018534Y014202D03*
X018284Y014202D03*
X018034Y014202D03*
X017784Y014202D03*
X017534Y014202D03*
X017284Y014202D03*
X017034Y014202D03*
X016784Y014202D03*
X016534Y014202D03*
X016284Y014202D03*
D115*
X015790Y013277D03*
D116*
X020278Y013277D03*
D117*
X023264Y014510D02*
X023858Y014510D01*
X023858Y010167D02*
X023264Y010167D01*
X023264Y006167D02*
X023858Y006167D01*
X031438Y006675D02*
X032031Y006675D01*
X032031Y008210D02*
X031438Y008210D01*
D118*
X003123Y004616D02*
X002418Y004616D01*
X002418Y006584D02*
X003123Y006584D01*
X003123Y008553D02*
X002418Y008553D01*
X002418Y010521D02*
X003123Y010521D01*
X003123Y012490D02*
X002418Y012490D01*
X002418Y014458D02*
X003123Y014458D01*
X027876Y003083D02*
X027876Y002378D01*
X029845Y002378D02*
X029845Y003083D01*
X031813Y003083D02*
X031813Y002378D01*
D119*
X019176Y009813D03*
X018624Y010324D03*
X018073Y009970D03*
X017010Y009970D03*
X016538Y010403D03*
X017443Y010758D03*
X019412Y010797D03*
X019490Y011269D03*
X018546Y013277D03*
X018034Y013277D03*
X017522Y013277D03*
X016774Y013435D03*
X015750Y014458D03*
D120*
X015110Y014033D03*
X012207Y014970D03*
X009451Y014970D03*
X011420Y011821D03*
X014924Y011742D03*
X014924Y011466D03*
X014924Y011191D03*
X014924Y010915D03*
X014924Y010639D03*
X014924Y010364D03*
X014924Y010088D03*
X014924Y009813D03*
X014805Y009340D03*
X014805Y009104D03*
X014805Y008828D03*
X014805Y008592D03*
X014805Y008317D03*
X015199Y008317D03*
X015199Y008041D03*
X014805Y008041D03*
X014805Y007765D03*
X015199Y007765D03*
X015199Y007490D03*
X015199Y007214D03*
X014805Y007214D03*
X014805Y007490D03*
X014805Y006939D03*
X015199Y006939D03*
X015199Y006663D03*
X015199Y006387D03*
X014805Y006387D03*
X014805Y006663D03*
X014805Y006112D03*
X015199Y006112D03*
X015199Y005836D03*
X014805Y005836D03*
X014805Y005561D03*
X014805Y005285D03*
X015199Y005285D03*
X015199Y005561D03*
X014805Y004931D03*
X014805Y004537D03*
X015199Y004537D03*
X015199Y004261D03*
X015199Y003986D03*
X014805Y003986D03*
X014805Y004261D03*
X014805Y003710D03*
X015199Y003710D03*
X015199Y003435D03*
X014805Y003435D03*
X014805Y003159D03*
X015199Y003159D03*
X016998Y004488D03*
X016459Y004931D03*
X018827Y006013D03*
X019687Y005373D03*
X019963Y006978D03*
X021931Y007765D03*
X020690Y008030D03*
X021931Y010128D03*
X019963Y010521D03*
X021144Y011309D03*
X018152Y010797D03*
X016144Y010915D03*
X016144Y009931D03*
X015750Y009340D03*
X012994Y009458D03*
X012994Y008671D03*
X001577Y009458D03*
X001577Y011427D03*
X001577Y013395D03*
X001577Y014970D03*
X001577Y007490D03*
X001577Y005521D03*
D121*
X012128Y005797D03*
X012128Y006584D03*
X013061Y002466D03*
X018034Y001860D03*
X010939Y010939D03*
X011672Y013513D03*
M02*
