G75*
%MOIN*%
%OFA0B0*%
%FSLAX24Y24*%
%IPPOS*%
%LPD*%
%AMOC8*
5,1,8,0,0,1.08239X$1,22.5*
%
%ADD10C,0.1340*%
%ADD11C,0.0434*%
%ADD12C,0.0356*%
%ADD13C,0.0674*%
%ADD14C,0.0785*%
%ADD15C,0.0360*%
%ADD16R,0.0360X0.0360*%
%ADD17R,0.0358X0.0358*%
D10*
X021577Y002254D03*
D11*
X015790Y013277D03*
D12*
X020278Y013277D03*
D13*
X023264Y014510D02*
X023858Y014510D01*
X023858Y010167D02*
X023264Y010167D01*
X023264Y006167D02*
X023858Y006167D01*
X031438Y006675D02*
X032031Y006675D01*
X032031Y008210D02*
X031438Y008210D01*
D14*
X003123Y004616D02*
X002418Y004616D01*
X002418Y006584D02*
X003123Y006584D01*
X003123Y008553D02*
X002418Y008553D01*
X002418Y010521D02*
X003123Y010521D01*
X003123Y012490D02*
X002418Y012490D01*
X002418Y014458D02*
X003123Y014458D01*
X027876Y003083D02*
X027876Y002378D01*
X029845Y002378D02*
X029845Y003083D01*
X031813Y003083D02*
X031813Y002378D01*
D15*
X019176Y009813D03*
X018624Y010324D03*
X018073Y009970D03*
X017010Y009970D03*
X016538Y010403D03*
X017443Y010758D03*
X019412Y010797D03*
X019490Y011269D03*
X018546Y013277D03*
X018034Y013277D03*
X017522Y013277D03*
X016774Y013435D03*
X015750Y014458D03*
D16*
X015110Y014033D03*
X012207Y014970D03*
X009451Y014970D03*
X011420Y011821D03*
X014924Y011742D03*
X014924Y011466D03*
X014924Y011191D03*
X014924Y010915D03*
X014924Y010639D03*
X014924Y010364D03*
X014924Y010088D03*
X014924Y009813D03*
X014805Y009340D03*
X014805Y009104D03*
X014805Y008828D03*
X014805Y008592D03*
X014805Y008317D03*
X015199Y008317D03*
X015199Y008041D03*
X014805Y008041D03*
X014805Y007765D03*
X015199Y007765D03*
X015199Y007490D03*
X015199Y007214D03*
X014805Y007214D03*
X014805Y007490D03*
X014805Y006939D03*
X015199Y006939D03*
X015199Y006663D03*
X015199Y006387D03*
X014805Y006387D03*
X014805Y006663D03*
X014805Y006112D03*
X015199Y006112D03*
X015199Y005836D03*
X014805Y005836D03*
X014805Y005561D03*
X014805Y005285D03*
X015199Y005285D03*
X015199Y005561D03*
X014805Y004931D03*
X014805Y004537D03*
X015199Y004537D03*
X015199Y004261D03*
X015199Y003986D03*
X014805Y003986D03*
X014805Y004261D03*
X014805Y003710D03*
X015199Y003710D03*
X015199Y003435D03*
X014805Y003435D03*
X014805Y003159D03*
X015199Y003159D03*
X016998Y004488D03*
X016459Y004931D03*
X018827Y006013D03*
X019687Y005373D03*
X019963Y006978D03*
X021931Y007765D03*
X020690Y008030D03*
X021931Y010128D03*
X019963Y010521D03*
X021144Y011309D03*
X018152Y010797D03*
X016144Y010915D03*
X016144Y009931D03*
X015750Y009340D03*
X012994Y009458D03*
X012994Y008671D03*
X001577Y009458D03*
X001577Y011427D03*
X001577Y013395D03*
X001577Y014970D03*
X001577Y007490D03*
X001577Y005521D03*
D17*
X012128Y005797D03*
X012128Y006584D03*
X013061Y002466D03*
X018034Y001860D03*
X010939Y010939D03*
X011672Y013513D03*
M02*
