%
M48
M72
T01C0.0120
T02C0.0276
T03C0.0354
T04C0.0394
T05C0.0400
T06C0.1260
%
T01
X3823Y4125
X5556Y3810
X5347Y2247
X12107Y5302
X14095Y5317
X15434Y5632
X13048Y7388
X12717Y7164
X12371Y7408
X13465Y7562
X13095Y9211
X12934Y10199
X12441Y10199
X11646Y10199
X13556Y10199
X14087Y10199
X14623Y10199
X15182Y10199
X16705Y10097
X16587Y10853
X17024Y10853
X16690Y9034
X16693Y7758
X12402Y12404
X9882Y13900
X8414Y11577
X9004Y10593
X9004Y9806
X9882Y8703
X16693Y13191
X17363Y14018
T02
X16129Y12365
T03
X11328Y12365
T04
X5737Y6160
X4737Y6160
T05
X10788Y1152
X11788Y1052
X12788Y1152
X13788Y1052
X14788Y1152
X15788Y1052
T06
X17272Y1341
M30
