G75*
%MOIN*%
%OFA0B0*%
%FSLAX24Y24*%
%IPPOS*%
%LPD*%
%AMOC8*
5,1,8,0,0,1.08239X$1,22.5*
%
%ADD10C,0.0740*%
%ADD11R,0.0138X0.0984*%
%ADD12R,0.0984X0.0787*%
%ADD13C,0.0100*%
%ADD14C,0.0280*%
%ADD15R,0.0591X0.0591*%
%ADD16C,0.0120*%
%ADD17R,0.0280X0.0280*%
%ADD18C,0.0080*%
D10*
X010788Y001152D03*
X011788Y001052D03*
X012788Y001152D03*
X013788Y001052D03*
X014788Y001152D03*
X015788Y001052D03*
D11*
X015479Y011440D03*
X015229Y011440D03*
X014979Y011440D03*
X014729Y011440D03*
X014479Y011440D03*
X014229Y011440D03*
X013979Y011440D03*
X013729Y011440D03*
X013479Y011440D03*
X013229Y011440D03*
X012979Y011440D03*
X012729Y011440D03*
X012479Y011440D03*
X012229Y011440D03*
X011979Y011440D03*
X011979Y013290D03*
X012229Y013290D03*
X012479Y013290D03*
X012729Y013290D03*
X012979Y013290D03*
X013229Y013290D03*
X013479Y013290D03*
X013729Y013290D03*
X013979Y013290D03*
X014229Y013290D03*
X014479Y013290D03*
X014729Y013290D03*
X014979Y013290D03*
X015229Y013290D03*
X015479Y013290D03*
D12*
X016933Y012365D03*
X010525Y012365D03*
D13*
X001187Y014080D02*
X001187Y000610D01*
X011497Y000610D01*
X011493Y000611D01*
X011347Y000758D01*
X011268Y000949D01*
X011268Y000952D01*
X011229Y000858D01*
X011083Y000711D01*
X010891Y000632D01*
X010685Y000632D01*
X010493Y000711D01*
X010347Y000858D01*
X010268Y001049D01*
X010268Y001256D01*
X010347Y001447D01*
X010493Y001593D01*
X010685Y001672D01*
X010891Y001672D01*
X011083Y001593D01*
X011229Y001447D01*
X011308Y001256D01*
X011308Y001252D01*
X011347Y001347D01*
X011493Y001493D01*
X011685Y001572D01*
X011891Y001572D01*
X012083Y001493D01*
X012229Y001347D01*
X012308Y001156D01*
X012308Y000949D01*
X012229Y000758D01*
X012083Y000611D01*
X012079Y000610D01*
X013497Y000610D01*
X013493Y000611D01*
X013347Y000758D01*
X013268Y000949D01*
X013268Y001156D01*
X013347Y001347D01*
X013493Y001493D01*
X013570Y001525D01*
X013570Y002137D01*
X013693Y002260D01*
X015224Y003790D01*
X015224Y005432D01*
X015188Y005468D01*
X015144Y005575D01*
X015144Y005690D01*
X015188Y005797D01*
X015269Y005878D01*
X015376Y005922D01*
X015491Y005922D01*
X015598Y005878D01*
X015679Y005797D01*
X015724Y005690D01*
X015724Y005575D01*
X015679Y005468D01*
X015644Y005432D01*
X015644Y003616D01*
X013990Y001963D01*
X013990Y001531D01*
X014083Y001493D01*
X014229Y001347D01*
X014268Y001252D01*
X014268Y001256D01*
X014347Y001447D01*
X014493Y001593D01*
X014685Y001672D01*
X014891Y001672D01*
X015083Y001593D01*
X015229Y001447D01*
X015308Y001256D01*
X015308Y001252D01*
X015347Y001347D01*
X015493Y001493D01*
X015685Y001572D01*
X015891Y001572D01*
X016083Y001493D01*
X016192Y001383D01*
X016192Y001483D01*
X016266Y001758D01*
X016408Y002004D01*
X016609Y002205D01*
X016855Y002347D01*
X017130Y002421D01*
X017414Y002421D01*
X017689Y002347D01*
X017935Y002205D01*
X018003Y002137D01*
X018003Y014080D01*
X017651Y014080D01*
X017653Y014076D01*
X017653Y013961D01*
X017609Y013854D01*
X017527Y013772D01*
X017420Y013728D01*
X017305Y013728D01*
X017198Y013772D01*
X017163Y013808D01*
X015448Y013808D01*
X015448Y012736D01*
X015360Y012648D01*
X012689Y012648D01*
X012689Y012500D01*
X012692Y012463D01*
X012692Y012462D01*
X012692Y012455D01*
X012695Y012421D01*
X012692Y012418D01*
X012692Y012346D01*
X012648Y012240D01*
X012566Y012158D01*
X012460Y012114D01*
X012344Y012114D01*
X012238Y012158D01*
X012156Y012240D01*
X012112Y012346D01*
X012112Y012462D01*
X012156Y012568D01*
X012236Y012648D01*
X012098Y012648D01*
X012010Y012736D01*
X012010Y013300D01*
X012004Y013323D01*
X012010Y013333D01*
X012010Y013844D01*
X012021Y013855D01*
X012021Y013861D01*
X012012Y013872D01*
X012019Y013946D01*
X012017Y014021D01*
X012026Y014031D01*
X012028Y014045D01*
X012070Y014080D01*
X007422Y014080D01*
X007422Y012696D01*
X007334Y012608D01*
X002486Y012608D01*
X002398Y012696D01*
X002398Y014080D01*
X001187Y014080D01*
X001187Y014049D02*
X002398Y014049D01*
X002398Y013950D02*
X001187Y013950D01*
X001187Y013852D02*
X002398Y013852D01*
X002398Y013753D02*
X001187Y013753D01*
X001187Y013655D02*
X002398Y013655D01*
X002398Y013556D02*
X001187Y013556D01*
X001187Y013458D02*
X002398Y013458D01*
X002398Y013359D02*
X001187Y013359D01*
X001187Y013261D02*
X002398Y013261D01*
X002398Y013162D02*
X001187Y013162D01*
X001187Y013064D02*
X002398Y013064D01*
X002398Y012965D02*
X001187Y012965D01*
X001187Y012867D02*
X002398Y012867D01*
X002398Y012768D02*
X001187Y012768D01*
X001187Y012670D02*
X002425Y012670D01*
X001187Y012571D02*
X009883Y012571D01*
X009883Y012473D02*
X001187Y012473D01*
X001187Y012374D02*
X009883Y012374D01*
X009883Y012276D02*
X001187Y012276D01*
X001187Y012177D02*
X009883Y012177D01*
X009883Y012079D02*
X001187Y012079D01*
X001187Y011980D02*
X009883Y011980D01*
X009883Y011909D02*
X009971Y011821D01*
X011002Y011821D01*
X011204Y011738D01*
X011453Y011738D01*
X011684Y011833D01*
X011860Y012009D01*
X011955Y012240D01*
X011955Y012489D01*
X011860Y012720D01*
X011684Y012896D01*
X011453Y012992D01*
X011204Y012992D01*
X011002Y012908D01*
X009971Y012908D01*
X009883Y012821D01*
X009883Y011909D01*
X009910Y011882D02*
X001187Y011882D01*
X001187Y011783D02*
X008128Y011783D01*
X008124Y011779D02*
X008124Y011375D01*
X008212Y011287D01*
X008616Y011287D01*
X008704Y011375D01*
X008704Y011779D01*
X008616Y011867D01*
X008212Y011867D01*
X008124Y011779D01*
X008124Y011685D02*
X001187Y011685D01*
X001187Y011586D02*
X008124Y011586D01*
X008124Y011488D02*
X001187Y011488D01*
X001187Y011389D02*
X008124Y011389D01*
X008209Y011291D02*
X001187Y011291D01*
X001187Y011192D02*
X012010Y011192D01*
X012010Y011094D02*
X001187Y011094D01*
X001187Y010995D02*
X012010Y010995D01*
X012010Y010897D02*
X001187Y010897D01*
X001187Y010798D02*
X008717Y010798D01*
X008714Y010795D02*
X008714Y010391D01*
X008802Y010303D01*
X009207Y010303D01*
X009294Y010391D01*
X009294Y010795D01*
X009207Y010883D01*
X008802Y010883D01*
X008714Y010795D01*
X008714Y010700D02*
X001187Y010700D01*
X001187Y010601D02*
X008714Y010601D01*
X008714Y010503D02*
X001187Y010503D01*
X001187Y010404D02*
X008714Y010404D01*
X008800Y010306D02*
X001187Y010306D01*
X001187Y010207D02*
X011149Y010207D01*
X011149Y010109D02*
X001187Y010109D01*
X001187Y010010D02*
X008717Y010010D01*
X008714Y010008D02*
X008714Y009604D01*
X008802Y009516D01*
X009207Y009516D01*
X009294Y009604D01*
X009294Y010008D01*
X009207Y010096D01*
X008802Y010096D01*
X008714Y010008D01*
X008714Y009912D02*
X001187Y009912D01*
X001187Y009813D02*
X008714Y009813D01*
X008714Y009715D02*
X001187Y009715D01*
X001187Y009616D02*
X008714Y009616D01*
X008801Y009518D02*
X001187Y009518D01*
X001187Y009419D02*
X011149Y009419D01*
X011149Y009321D02*
X001187Y009321D01*
X001187Y009222D02*
X011182Y009222D01*
X011149Y009255D02*
X012527Y007877D01*
X012527Y007657D01*
X012428Y007698D01*
X012313Y007698D01*
X012206Y007654D01*
X012125Y007572D01*
X012081Y007466D01*
X012081Y007350D01*
X012125Y007244D01*
X012206Y007162D01*
X012313Y007118D01*
X012427Y007118D01*
X012427Y007106D01*
X012471Y007000D01*
X012553Y006918D01*
X012659Y006874D01*
X012775Y006874D01*
X012881Y006918D01*
X012963Y007000D01*
X013004Y007098D01*
X013105Y007098D01*
X013212Y007142D01*
X013294Y007224D01*
X013327Y007305D01*
X013407Y007272D01*
X013523Y007272D01*
X013629Y007316D01*
X013711Y007397D01*
X013755Y007504D01*
X013755Y007619D01*
X013711Y007726D01*
X013629Y007807D01*
X013523Y007852D01*
X013407Y007852D01*
X013301Y007807D01*
X013219Y007726D01*
X013186Y007645D01*
X013105Y007678D01*
X012990Y007678D01*
X012907Y007644D01*
X012907Y008034D01*
X012796Y008145D01*
X011529Y009412D01*
X011529Y009934D01*
X011589Y009909D01*
X011704Y009909D01*
X011810Y009954D01*
X011866Y010009D01*
X011936Y010009D01*
X011937Y010008D01*
X012014Y010009D01*
X012091Y010009D01*
X012092Y010011D01*
X012094Y010011D01*
X012148Y010066D01*
X012173Y010091D01*
X012196Y010035D01*
X012277Y009954D01*
X012384Y009909D01*
X012499Y009909D01*
X012606Y009954D01*
X012687Y010035D01*
X012688Y010036D01*
X012688Y010035D01*
X012769Y009954D01*
X012876Y009909D01*
X012991Y009909D01*
X013098Y009954D01*
X013179Y010035D01*
X013224Y010142D01*
X013224Y010257D01*
X013179Y010364D01*
X013169Y010374D01*
X013169Y010856D01*
X013198Y010885D01*
X013198Y011994D01*
X013110Y012082D01*
X012098Y012082D01*
X012010Y011994D01*
X012010Y010893D01*
X011410Y010893D01*
X011260Y010744D01*
X011149Y010632D01*
X011149Y009255D01*
X011280Y009124D02*
X001187Y009124D01*
X001187Y009025D02*
X011379Y009025D01*
X011477Y008927D02*
X010151Y008927D01*
X010172Y008905D02*
X010085Y008993D01*
X009680Y008993D01*
X009592Y008905D01*
X009592Y008501D01*
X009680Y008413D01*
X010085Y008413D01*
X010172Y008501D01*
X010172Y008905D01*
X010172Y008828D02*
X011576Y008828D01*
X011674Y008730D02*
X010172Y008730D01*
X010172Y008631D02*
X011773Y008631D01*
X011871Y008533D02*
X010172Y008533D01*
X010105Y008434D02*
X011970Y008434D01*
X012068Y008336D02*
X001187Y008336D01*
X001187Y008434D02*
X009660Y008434D01*
X009592Y008533D02*
X001187Y008533D01*
X001187Y008631D02*
X009592Y008631D01*
X009592Y008730D02*
X001187Y008730D01*
X001187Y008828D02*
X009592Y008828D01*
X009614Y008927D02*
X001187Y008927D01*
X001187Y008237D02*
X012167Y008237D01*
X012265Y008139D02*
X001187Y008139D01*
X001187Y008040D02*
X012364Y008040D01*
X012462Y007942D02*
X001187Y007942D01*
X001187Y007843D02*
X012527Y007843D01*
X012527Y007745D02*
X001187Y007745D01*
X001187Y007646D02*
X012198Y007646D01*
X012115Y007548D02*
X001187Y007548D01*
X001187Y007449D02*
X012081Y007449D01*
X012081Y007351D02*
X001187Y007351D01*
X001187Y007252D02*
X012121Y007252D01*
X012227Y007154D02*
X001187Y007154D01*
X001187Y007055D02*
X012448Y007055D01*
X012514Y006957D02*
X001187Y006957D01*
X001187Y006858D02*
X018003Y006858D01*
X018003Y006760D02*
X001187Y006760D01*
X001187Y006661D02*
X018003Y006661D01*
X018003Y006563D02*
X005137Y006563D01*
X005094Y006605D02*
X004379Y006605D01*
X004291Y006517D01*
X004291Y005803D01*
X004379Y005715D01*
X005094Y005715D01*
X005182Y005803D01*
X005182Y006517D01*
X005094Y006605D01*
X005182Y006464D02*
X018003Y006464D01*
X018003Y006366D02*
X005182Y006366D01*
X005182Y006267D02*
X018003Y006267D01*
X018003Y006169D02*
X005182Y006169D01*
X005182Y006070D02*
X018003Y006070D01*
X018003Y005972D02*
X005182Y005972D01*
X005182Y005873D02*
X015264Y005873D01*
X015179Y005775D02*
X005154Y005775D01*
X004320Y005775D02*
X001187Y005775D01*
X001187Y005873D02*
X004291Y005873D01*
X004291Y005972D02*
X001187Y005972D01*
X001187Y006070D02*
X004291Y006070D01*
X004291Y006169D02*
X001187Y006169D01*
X001187Y006267D02*
X004291Y006267D01*
X004291Y006366D02*
X001187Y006366D01*
X001187Y006464D02*
X004291Y006464D01*
X004337Y006563D02*
X001187Y006563D01*
X001187Y005676D02*
X015144Y005676D01*
X015144Y005578D02*
X014327Y005578D01*
X014297Y005607D02*
X013893Y005607D01*
X013805Y005520D01*
X013805Y005115D01*
X013893Y005027D01*
X014297Y005027D01*
X014385Y005115D01*
X014385Y005520D01*
X014297Y005607D01*
X014385Y005479D02*
X015183Y005479D01*
X015224Y005381D02*
X014385Y005381D01*
X014385Y005282D02*
X015224Y005282D01*
X015224Y005184D02*
X014385Y005184D01*
X014355Y005085D02*
X015224Y005085D01*
X015224Y004987D02*
X001187Y004987D01*
X001187Y005085D02*
X011831Y005085D01*
X011817Y005100D02*
X011905Y005012D01*
X012309Y005012D01*
X012397Y005100D01*
X012397Y005504D01*
X012309Y005592D01*
X011905Y005592D01*
X011817Y005504D01*
X011817Y005100D01*
X011817Y005184D02*
X001187Y005184D01*
X001187Y005282D02*
X011817Y005282D01*
X011817Y005381D02*
X001187Y005381D01*
X001187Y005479D02*
X011817Y005479D01*
X011890Y005578D02*
X001187Y005578D01*
X001187Y004888D02*
X015224Y004888D01*
X015224Y004790D02*
X001187Y004790D01*
X001187Y004691D02*
X015224Y004691D01*
X015224Y004593D02*
X001187Y004593D01*
X001187Y004494D02*
X015224Y004494D01*
X015224Y004396D02*
X001187Y004396D01*
X001187Y004297D02*
X015224Y004297D01*
X015224Y004199D02*
X001187Y004199D01*
X001187Y004100D02*
X015224Y004100D01*
X015224Y004002D02*
X005846Y004002D01*
X005846Y004012D02*
X005758Y004100D01*
X005354Y004100D01*
X005266Y004012D01*
X005266Y003607D01*
X005354Y003520D01*
X005758Y003520D01*
X005846Y003607D01*
X005846Y004012D01*
X005846Y003903D02*
X015224Y003903D01*
X015224Y003805D02*
X005846Y003805D01*
X005846Y003706D02*
X015139Y003706D01*
X015041Y003608D02*
X005846Y003608D01*
X005266Y003608D02*
X001187Y003608D01*
X001187Y003706D02*
X005266Y003706D01*
X005266Y003805D02*
X001187Y003805D01*
X001187Y003903D02*
X005266Y003903D01*
X005266Y004002D02*
X001187Y004002D01*
X001187Y003509D02*
X014942Y003509D01*
X014844Y003411D02*
X001187Y003411D01*
X001187Y003312D02*
X014745Y003312D01*
X014647Y003214D02*
X001187Y003214D01*
X001187Y003115D02*
X014548Y003115D01*
X014450Y003017D02*
X001187Y003017D01*
X001187Y002918D02*
X014351Y002918D01*
X014253Y002820D02*
X001187Y002820D01*
X001187Y002721D02*
X014154Y002721D01*
X014056Y002623D02*
X001187Y002623D01*
X001187Y002524D02*
X005259Y002524D01*
X005289Y002537D02*
X005183Y002492D01*
X005101Y002411D01*
X005057Y002304D01*
X005057Y002189D01*
X005101Y002082D01*
X005183Y002001D01*
X005289Y001957D01*
X005405Y001957D01*
X005511Y002001D01*
X005593Y002082D01*
X005637Y002189D01*
X005637Y002304D01*
X005593Y002411D01*
X005511Y002492D01*
X005405Y002537D01*
X005289Y002537D01*
X005435Y002524D02*
X013957Y002524D01*
X013859Y002426D02*
X005578Y002426D01*
X005628Y002327D02*
X013760Y002327D01*
X013662Y002229D02*
X005637Y002229D01*
X005613Y002130D02*
X013570Y002130D01*
X013570Y002032D02*
X005542Y002032D01*
X005152Y002032D02*
X001187Y002032D01*
X001187Y002130D02*
X005081Y002130D01*
X005057Y002229D02*
X001187Y002229D01*
X001187Y002327D02*
X005066Y002327D01*
X005116Y002426D02*
X001187Y002426D01*
X001187Y001933D02*
X013570Y001933D01*
X013570Y001835D02*
X001187Y001835D01*
X001187Y001736D02*
X013570Y001736D01*
X013570Y001638D02*
X010975Y001638D01*
X011136Y001539D02*
X011605Y001539D01*
X011441Y001441D02*
X011231Y001441D01*
X011272Y001342D02*
X011345Y001342D01*
X011266Y000948D02*
X011268Y000948D01*
X011309Y000850D02*
X011221Y000850D01*
X011122Y000751D02*
X011354Y000751D01*
X011452Y000653D02*
X010941Y000653D01*
X010635Y000653D02*
X001187Y000653D01*
X001187Y000751D02*
X010454Y000751D01*
X010355Y000850D02*
X001187Y000850D01*
X001187Y000948D02*
X010310Y000948D01*
X010269Y001047D02*
X001187Y001047D01*
X001187Y001145D02*
X010268Y001145D01*
X010268Y001244D02*
X001187Y001244D01*
X001187Y001342D02*
X010304Y001342D01*
X010345Y001441D02*
X001187Y001441D01*
X001187Y001539D02*
X010439Y001539D01*
X010601Y001638D02*
X001187Y001638D01*
X009208Y009518D02*
X011149Y009518D01*
X011149Y009616D02*
X009294Y009616D01*
X009294Y009715D02*
X011149Y009715D01*
X011149Y009813D02*
X009294Y009813D01*
X009294Y009912D02*
X011149Y009912D01*
X011149Y010010D02*
X009292Y010010D01*
X009209Y010306D02*
X011149Y010306D01*
X011149Y010404D02*
X009294Y010404D01*
X009294Y010503D02*
X011149Y010503D01*
X011149Y010601D02*
X009294Y010601D01*
X009294Y010700D02*
X011216Y010700D01*
X011315Y010798D02*
X009292Y010798D01*
X008619Y011291D02*
X012010Y011291D01*
X012010Y011389D02*
X008704Y011389D01*
X008704Y011488D02*
X012010Y011488D01*
X012010Y011586D02*
X008704Y011586D01*
X008704Y011685D02*
X012010Y011685D01*
X012010Y011783D02*
X011563Y011783D01*
X011732Y011882D02*
X012010Y011882D01*
X012010Y011980D02*
X011831Y011980D01*
X011889Y012079D02*
X012095Y012079D01*
X012219Y012177D02*
X011929Y012177D01*
X011955Y012276D02*
X012141Y012276D01*
X012112Y012374D02*
X011955Y012374D01*
X011955Y012473D02*
X012117Y012473D01*
X012159Y012571D02*
X011922Y012571D01*
X011881Y012670D02*
X012076Y012670D01*
X012010Y012768D02*
X011812Y012768D01*
X011713Y012867D02*
X012010Y012867D01*
X012010Y012965D02*
X011518Y012965D01*
X011139Y012965D02*
X007422Y012965D01*
X007422Y012867D02*
X009929Y012867D01*
X009883Y012768D02*
X007422Y012768D01*
X007395Y012670D02*
X009883Y012670D01*
X008700Y011783D02*
X011094Y011783D01*
X012585Y012177D02*
X015571Y012177D01*
X015542Y012248D02*
X015631Y012032D01*
X015797Y011866D01*
X016013Y011777D01*
X016246Y011777D01*
X016371Y011828D01*
X016378Y011821D01*
X017487Y011821D01*
X017575Y011909D01*
X017575Y012821D01*
X017487Y012908D01*
X016768Y012908D01*
X016858Y012946D01*
X016939Y013027D01*
X016983Y013134D01*
X016983Y013249D01*
X016939Y013356D01*
X016858Y013437D01*
X016751Y013481D01*
X016636Y013481D01*
X016529Y013437D01*
X016448Y013356D01*
X016403Y013249D01*
X016403Y013134D01*
X016448Y013027D01*
X016529Y012946D01*
X016619Y012908D01*
X016378Y012908D01*
X016371Y012901D01*
X016246Y012953D01*
X016013Y012953D01*
X015797Y012863D01*
X015631Y012698D01*
X015542Y012482D01*
X015542Y012248D01*
X015542Y012276D02*
X012663Y012276D01*
X012692Y012374D02*
X015542Y012374D01*
X015542Y012473D02*
X012691Y012473D01*
X012689Y012571D02*
X015579Y012571D01*
X015620Y012670D02*
X015382Y012670D01*
X015448Y012768D02*
X015702Y012768D01*
X015805Y012867D02*
X015448Y012867D01*
X015448Y012965D02*
X016510Y012965D01*
X016433Y013064D02*
X015448Y013064D01*
X015448Y013162D02*
X016403Y013162D01*
X016408Y013261D02*
X015448Y013261D01*
X015448Y013359D02*
X016451Y013359D01*
X016578Y013458D02*
X015448Y013458D01*
X015448Y013556D02*
X018003Y013556D01*
X018003Y013458D02*
X016809Y013458D01*
X016936Y013359D02*
X018003Y013359D01*
X018003Y013261D02*
X016979Y013261D01*
X016983Y013162D02*
X018003Y013162D01*
X018003Y013064D02*
X016954Y013064D01*
X016877Y012965D02*
X018003Y012965D01*
X018003Y012867D02*
X017529Y012867D01*
X017575Y012768D02*
X018003Y012768D01*
X018003Y012670D02*
X017575Y012670D01*
X017575Y012571D02*
X018003Y012571D01*
X018003Y012473D02*
X017575Y012473D01*
X017575Y012374D02*
X018003Y012374D01*
X018003Y012276D02*
X017575Y012276D01*
X017575Y012177D02*
X018003Y012177D01*
X018003Y012079D02*
X017575Y012079D01*
X017575Y011980D02*
X018003Y011980D01*
X018003Y011882D02*
X017547Y011882D01*
X018003Y011783D02*
X016261Y011783D01*
X015998Y011783D02*
X015448Y011783D01*
X015448Y011685D02*
X018003Y011685D01*
X018003Y011586D02*
X015448Y011586D01*
X015448Y011488D02*
X018003Y011488D01*
X018003Y011389D02*
X015448Y011389D01*
X015448Y011418D02*
X015454Y011434D01*
X015448Y011449D01*
X015448Y011994D01*
X015360Y012082D01*
X014848Y012082D01*
X014760Y011994D01*
X014760Y010885D01*
X014789Y010856D01*
X014789Y010853D01*
X014789Y010776D01*
X014790Y010775D01*
X014790Y010773D01*
X014846Y010719D01*
X014900Y010665D01*
X014902Y010665D01*
X015096Y010478D01*
X015045Y010457D01*
X014672Y010825D01*
X014672Y010860D01*
X014698Y010885D01*
X014698Y011994D01*
X014610Y012082D01*
X014098Y012082D01*
X014010Y011994D01*
X014010Y010885D01*
X014042Y010854D01*
X014042Y010663D01*
X014043Y010585D01*
X014043Y010512D01*
X014029Y010526D01*
X014029Y010619D01*
X014033Y010624D01*
X014029Y010697D01*
X014029Y010770D01*
X014025Y010775D01*
X014024Y010781D01*
X013970Y010830D01*
X013931Y010868D01*
X013948Y010885D01*
X013948Y011994D01*
X013860Y012082D01*
X013348Y012082D01*
X013260Y011994D01*
X013260Y010885D01*
X013289Y010856D01*
X013289Y010334D01*
X013283Y010327D01*
X013285Y010304D01*
X013266Y010257D01*
X013266Y010142D01*
X013310Y010035D01*
X013391Y009954D01*
X013498Y009909D01*
X013613Y009909D01*
X013720Y009954D01*
X013802Y010035D01*
X013821Y010083D01*
X013841Y010035D01*
X013923Y009954D01*
X014029Y009909D01*
X014145Y009909D01*
X014251Y009954D01*
X014333Y010035D01*
X014355Y010088D01*
X014377Y010035D01*
X014458Y009954D01*
X014565Y009909D01*
X014680Y009909D01*
X014787Y009954D01*
X014868Y010035D01*
X014887Y010080D01*
X014902Y010064D01*
X014957Y010009D01*
X014958Y010009D01*
X014959Y010009D01*
X014962Y010009D01*
X015017Y009954D01*
X015124Y009909D01*
X015239Y009909D01*
X015346Y009954D01*
X015428Y010035D01*
X015472Y010142D01*
X015472Y010230D01*
X016415Y010230D01*
X016415Y009895D01*
X016503Y009807D01*
X016907Y009807D01*
X016995Y009895D01*
X016995Y010248D01*
X017103Y010356D01*
X017214Y010467D01*
X017214Y010633D01*
X017270Y010689D01*
X017314Y010795D01*
X017314Y010911D01*
X017270Y011017D01*
X017188Y011099D01*
X017082Y011143D01*
X016966Y011143D01*
X016860Y011099D01*
X016806Y011045D01*
X016751Y011099D01*
X016645Y011143D01*
X016529Y011143D01*
X016423Y011099D01*
X016341Y011017D01*
X016310Y010941D01*
X015457Y010941D01*
X015448Y010950D01*
X015448Y011418D01*
X015448Y011291D02*
X018003Y011291D01*
X018003Y011192D02*
X015448Y011192D01*
X015448Y011094D02*
X016418Y011094D01*
X016332Y010995D02*
X015448Y010995D01*
X014968Y010601D02*
X014899Y010601D01*
X014866Y010700D02*
X014799Y010700D01*
X014789Y010798D02*
X014699Y010798D01*
X014698Y010897D02*
X014760Y010897D01*
X014760Y010995D02*
X014698Y010995D01*
X014698Y011094D02*
X014760Y011094D01*
X014760Y011192D02*
X014698Y011192D01*
X014698Y011291D02*
X014760Y011291D01*
X014760Y011389D02*
X014698Y011389D01*
X014698Y011488D02*
X014760Y011488D01*
X014760Y011586D02*
X014698Y011586D01*
X014698Y011685D02*
X014760Y011685D01*
X014760Y011783D02*
X014698Y011783D01*
X014698Y011882D02*
X014760Y011882D01*
X014760Y011980D02*
X014698Y011980D01*
X014613Y012079D02*
X014845Y012079D01*
X015363Y012079D02*
X015612Y012079D01*
X015683Y011980D02*
X015448Y011980D01*
X015448Y011882D02*
X015781Y011882D01*
X016757Y011094D02*
X016855Y011094D01*
X017194Y011094D02*
X018003Y011094D01*
X018003Y010995D02*
X017279Y010995D01*
X017314Y010897D02*
X018003Y010897D01*
X018003Y010798D02*
X017314Y010798D01*
X017275Y010700D02*
X018003Y010700D01*
X018003Y010601D02*
X017214Y010601D01*
X017214Y010503D02*
X018003Y010503D01*
X018003Y010404D02*
X017151Y010404D01*
X017053Y010306D02*
X018003Y010306D01*
X018003Y010207D02*
X016995Y010207D01*
X016995Y010109D02*
X018003Y010109D01*
X018003Y010010D02*
X016995Y010010D01*
X016995Y009912D02*
X018003Y009912D01*
X018003Y009813D02*
X016913Y009813D01*
X016497Y009813D02*
X011529Y009813D01*
X011529Y009715D02*
X018003Y009715D01*
X018003Y009616D02*
X011529Y009616D01*
X011529Y009518D02*
X018003Y009518D01*
X018003Y009419D02*
X013297Y009419D01*
X013259Y009457D02*
X013153Y009501D01*
X013037Y009501D01*
X012931Y009457D01*
X012849Y009375D01*
X012805Y009269D01*
X012805Y009153D01*
X012849Y009047D01*
X012931Y008965D01*
X013037Y008921D01*
X013153Y008921D01*
X013259Y008965D01*
X013341Y009047D01*
X013385Y009153D01*
X013385Y009269D01*
X013341Y009375D01*
X013259Y009457D01*
X013364Y009321D02*
X016484Y009321D01*
X016487Y009324D02*
X016400Y009236D01*
X016400Y008832D01*
X016487Y008744D01*
X016892Y008744D01*
X016980Y008832D01*
X016980Y009236D01*
X016892Y009324D01*
X016487Y009324D01*
X016400Y009222D02*
X013385Y009222D01*
X013373Y009124D02*
X016400Y009124D01*
X016400Y009025D02*
X013319Y009025D01*
X013166Y008927D02*
X016400Y008927D01*
X016403Y008828D02*
X012113Y008828D01*
X012015Y008927D02*
X013024Y008927D01*
X012871Y009025D02*
X011916Y009025D01*
X011818Y009124D02*
X012817Y009124D01*
X012805Y009222D02*
X011719Y009222D01*
X011621Y009321D02*
X012826Y009321D01*
X012893Y009419D02*
X011529Y009419D01*
X011529Y009912D02*
X011583Y009912D01*
X011709Y009912D02*
X012379Y009912D01*
X012504Y009912D02*
X012871Y009912D01*
X012997Y009912D02*
X013493Y009912D01*
X013619Y009912D02*
X014024Y009912D01*
X014150Y009912D02*
X014560Y009912D01*
X014685Y009912D02*
X015119Y009912D01*
X015245Y009912D02*
X016415Y009912D01*
X016415Y010010D02*
X015402Y010010D01*
X015458Y010109D02*
X016415Y010109D01*
X016415Y010207D02*
X015472Y010207D01*
X015070Y010503D02*
X014999Y010503D01*
X014957Y010010D02*
X014843Y010010D01*
X014402Y010010D02*
X014308Y010010D01*
X013866Y010010D02*
X013776Y010010D01*
X013335Y010010D02*
X013154Y010010D01*
X013210Y010109D02*
X013279Y010109D01*
X013266Y010207D02*
X013224Y010207D01*
X013204Y010306D02*
X013285Y010306D01*
X013289Y010404D02*
X013169Y010404D01*
X013169Y010503D02*
X013289Y010503D01*
X013289Y010601D02*
X013169Y010601D01*
X013169Y010700D02*
X013289Y010700D01*
X013289Y010798D02*
X013169Y010798D01*
X013198Y010897D02*
X013260Y010897D01*
X013260Y010995D02*
X013198Y010995D01*
X013198Y011094D02*
X013260Y011094D01*
X013260Y011192D02*
X013198Y011192D01*
X013198Y011291D02*
X013260Y011291D01*
X013260Y011389D02*
X013198Y011389D01*
X013198Y011488D02*
X013260Y011488D01*
X013260Y011586D02*
X013198Y011586D01*
X013198Y011685D02*
X013260Y011685D01*
X013260Y011783D02*
X013198Y011783D01*
X013198Y011882D02*
X013260Y011882D01*
X013260Y011980D02*
X013198Y011980D01*
X013113Y012079D02*
X013345Y012079D01*
X013863Y012079D02*
X014095Y012079D01*
X014010Y011980D02*
X013948Y011980D01*
X013948Y011882D02*
X014010Y011882D01*
X014010Y011783D02*
X013948Y011783D01*
X013948Y011685D02*
X014010Y011685D01*
X014010Y011586D02*
X013948Y011586D01*
X013948Y011488D02*
X014010Y011488D01*
X014010Y011389D02*
X013948Y011389D01*
X013948Y011291D02*
X014010Y011291D01*
X014010Y011192D02*
X013948Y011192D01*
X013948Y011094D02*
X014010Y011094D01*
X014010Y010995D02*
X013948Y010995D01*
X013948Y010897D02*
X014010Y010897D01*
X014005Y010798D02*
X014042Y010798D01*
X014029Y010700D02*
X014042Y010700D01*
X014042Y010663D02*
X014042Y010663D01*
X014043Y010601D02*
X014029Y010601D01*
X012713Y010010D02*
X012662Y010010D01*
X012221Y010010D02*
X012092Y010010D01*
X012212Y008730D02*
X018003Y008730D01*
X018003Y008828D02*
X016976Y008828D01*
X016980Y008927D02*
X018003Y008927D01*
X018003Y009025D02*
X016980Y009025D01*
X016980Y009124D02*
X018003Y009124D01*
X018003Y009222D02*
X016980Y009222D01*
X016895Y009321D02*
X018003Y009321D01*
X018003Y008631D02*
X012310Y008631D01*
X012409Y008533D02*
X018003Y008533D01*
X018003Y008434D02*
X012507Y008434D01*
X012606Y008336D02*
X018003Y008336D01*
X018003Y008237D02*
X012704Y008237D01*
X012803Y008139D02*
X018003Y008139D01*
X018003Y008040D02*
X016904Y008040D01*
X016896Y008048D02*
X016491Y008048D01*
X016403Y007961D01*
X016403Y007556D01*
X016491Y007468D01*
X016896Y007468D01*
X016983Y007556D01*
X016983Y007961D01*
X016896Y008048D01*
X016983Y007942D02*
X018003Y007942D01*
X018003Y007843D02*
X016983Y007843D01*
X016983Y007745D02*
X018003Y007745D01*
X018003Y007646D02*
X016983Y007646D01*
X016975Y007548D02*
X018003Y007548D01*
X018003Y007449D02*
X013732Y007449D01*
X013755Y007548D02*
X016412Y007548D01*
X016403Y007646D02*
X013744Y007646D01*
X013692Y007745D02*
X016403Y007745D01*
X016403Y007843D02*
X013543Y007843D01*
X013387Y007843D02*
X012907Y007843D01*
X012907Y007745D02*
X013238Y007745D01*
X013186Y007646D02*
X013184Y007646D01*
X012912Y007646D02*
X012907Y007646D01*
X012907Y007942D02*
X016403Y007942D01*
X016483Y008040D02*
X012901Y008040D01*
X013664Y007351D02*
X018003Y007351D01*
X018003Y007252D02*
X013305Y007252D01*
X013223Y007154D02*
X018003Y007154D01*
X018003Y007055D02*
X012986Y007055D01*
X012920Y006957D02*
X018003Y006957D01*
X018003Y005873D02*
X015603Y005873D01*
X015689Y005775D02*
X018003Y005775D01*
X018003Y005676D02*
X015724Y005676D01*
X015724Y005578D02*
X018003Y005578D01*
X018003Y005479D02*
X015684Y005479D01*
X015644Y005381D02*
X018003Y005381D01*
X018003Y005282D02*
X015644Y005282D01*
X015644Y005184D02*
X018003Y005184D01*
X018003Y005085D02*
X015644Y005085D01*
X015644Y004987D02*
X018003Y004987D01*
X018003Y004888D02*
X015644Y004888D01*
X015644Y004790D02*
X018003Y004790D01*
X018003Y004691D02*
X015644Y004691D01*
X015644Y004593D02*
X018003Y004593D01*
X018003Y004494D02*
X015644Y004494D01*
X015644Y004396D02*
X018003Y004396D01*
X018003Y004297D02*
X015644Y004297D01*
X015644Y004199D02*
X018003Y004199D01*
X018003Y004100D02*
X015644Y004100D01*
X015644Y004002D02*
X018003Y004002D01*
X018003Y003903D02*
X015644Y003903D01*
X015644Y003805D02*
X018003Y003805D01*
X018003Y003706D02*
X015644Y003706D01*
X015635Y003608D02*
X018003Y003608D01*
X018003Y003509D02*
X015536Y003509D01*
X015438Y003411D02*
X018003Y003411D01*
X018003Y003312D02*
X015339Y003312D01*
X015241Y003214D02*
X018003Y003214D01*
X018003Y003115D02*
X015142Y003115D01*
X015044Y003017D02*
X018003Y003017D01*
X018003Y002918D02*
X014945Y002918D01*
X014847Y002820D02*
X018003Y002820D01*
X018003Y002721D02*
X014748Y002721D01*
X014650Y002623D02*
X018003Y002623D01*
X018003Y002524D02*
X014551Y002524D01*
X014453Y002426D02*
X018003Y002426D01*
X018003Y002327D02*
X017724Y002327D01*
X017895Y002229D02*
X018003Y002229D01*
X016820Y002327D02*
X014354Y002327D01*
X014256Y002229D02*
X016649Y002229D01*
X016534Y002130D02*
X014157Y002130D01*
X014059Y002032D02*
X016435Y002032D01*
X016367Y001933D02*
X013990Y001933D01*
X013990Y001835D02*
X016310Y001835D01*
X016260Y001736D02*
X013990Y001736D01*
X013990Y001638D02*
X014601Y001638D01*
X014439Y001539D02*
X013990Y001539D01*
X014135Y001441D02*
X014345Y001441D01*
X014304Y001342D02*
X014231Y001342D01*
X013570Y001539D02*
X011971Y001539D01*
X012135Y001441D02*
X013441Y001441D01*
X013345Y001342D02*
X012231Y001342D01*
X012272Y001244D02*
X013304Y001244D01*
X013268Y001145D02*
X012308Y001145D01*
X012308Y001047D02*
X013268Y001047D01*
X013268Y000948D02*
X012308Y000948D01*
X012267Y000850D02*
X013309Y000850D01*
X013354Y000751D02*
X012222Y000751D01*
X012124Y000653D02*
X013452Y000653D01*
X014975Y001638D02*
X016234Y001638D01*
X016207Y001539D02*
X015971Y001539D01*
X016135Y001441D02*
X016192Y001441D01*
X015605Y001539D02*
X015136Y001539D01*
X015231Y001441D02*
X015441Y001441D01*
X015345Y001342D02*
X015272Y001342D01*
X013835Y005085D02*
X012382Y005085D01*
X012397Y005184D02*
X013805Y005184D01*
X013805Y005282D02*
X012397Y005282D01*
X012397Y005381D02*
X013805Y005381D01*
X013805Y005479D02*
X012397Y005479D01*
X012323Y005578D02*
X013863Y005578D01*
X012010Y013064D02*
X007422Y013064D01*
X007422Y013162D02*
X012010Y013162D01*
X012010Y013261D02*
X007422Y013261D01*
X007422Y013359D02*
X012010Y013359D01*
X012010Y013458D02*
X007422Y013458D01*
X007422Y013556D02*
X012010Y013556D01*
X012010Y013655D02*
X007422Y013655D01*
X007422Y013753D02*
X012010Y013753D01*
X012017Y013852D02*
X007422Y013852D01*
X007422Y013950D02*
X012019Y013950D01*
X012032Y014049D02*
X007422Y014049D01*
X015448Y013753D02*
X017245Y013753D01*
X017480Y013753D02*
X018003Y013753D01*
X018003Y013655D02*
X015448Y013655D01*
X017606Y013852D02*
X018003Y013852D01*
X018003Y013950D02*
X017648Y013950D01*
X017653Y014049D02*
X018003Y014049D01*
D14*
X017363Y014018D03*
X016693Y013191D03*
X016587Y010853D03*
X017024Y010853D03*
X015182Y010199D03*
X014623Y010199D03*
X014087Y010199D03*
X013556Y010199D03*
X012934Y010199D03*
X012441Y010199D03*
X011646Y010199D03*
X013095Y009211D03*
X013465Y007562D03*
X013048Y007388D03*
X012717Y007164D03*
X012371Y007408D03*
X015434Y005632D03*
X012402Y012404D03*
X009882Y013900D03*
X003823Y004125D03*
X005347Y002247D03*
D15*
X005737Y006160D03*
X004737Y006160D03*
D16*
X012402Y012404D02*
X012479Y012493D01*
X012479Y013290D01*
X012245Y013294D02*
X012229Y013290D01*
X012245Y013294D02*
X012229Y013940D01*
X012323Y014018D01*
X017363Y014018D01*
X015434Y005632D02*
X015434Y003703D01*
X013780Y002050D01*
X013780Y001060D01*
X013788Y001052D01*
D17*
X014095Y005317D03*
X012107Y005302D03*
X009882Y008703D03*
X009004Y009806D03*
X009004Y010593D03*
X008414Y011577D03*
X016705Y010097D03*
X016690Y009034D03*
X016693Y007758D03*
X005556Y003810D03*
D18*
X012717Y007164D02*
X012717Y007955D01*
X011339Y009333D01*
X011339Y010554D01*
X011489Y010703D01*
X012134Y010703D01*
X012241Y010810D01*
X012229Y011440D01*
X012473Y011426D02*
X012479Y011440D01*
X012473Y011426D02*
X012473Y010676D01*
X012012Y010199D01*
X011646Y010199D01*
X012441Y010199D02*
X012729Y010491D01*
X012729Y011440D01*
X012979Y011440D02*
X012979Y010249D01*
X012934Y010199D01*
X013479Y010264D02*
X013556Y010199D01*
X013479Y010264D02*
X013479Y011440D01*
X013729Y011440D02*
X013729Y010790D01*
X013839Y010691D01*
X013839Y010447D01*
X014087Y010199D01*
X014233Y010585D02*
X014623Y010199D01*
X015036Y010199D02*
X015182Y010199D01*
X015036Y010199D02*
X014483Y010745D01*
X014479Y011440D01*
X014229Y011440D02*
X014233Y010585D01*
X014979Y010855D02*
X015430Y010420D01*
X016898Y010420D01*
X017024Y010546D01*
X017024Y010853D01*
X016587Y010853D02*
X016587Y010849D01*
X016489Y010751D01*
X015375Y010751D01*
X015253Y010880D01*
X015249Y011432D01*
X015229Y011440D01*
X014979Y011440D02*
X014979Y010855D01*
M02*
