G75*
%MOIN*%
%OFA0B0*%
%FSLAX24Y24*%
%IPPOS*%
%LPD*%
%AMOC8*
5,1,8,0,0,1.08239X$1,22.5*
%
%ADD10C,0.0000*%
D10*
X000737Y000438D02*
X000737Y014252D01*
X000739Y014283D01*
X000744Y014314D01*
X000753Y014344D01*
X000765Y014373D01*
X000780Y014400D01*
X000798Y014425D01*
X000818Y014449D01*
X000842Y014469D01*
X000867Y014487D01*
X000894Y014502D01*
X000923Y014514D01*
X000953Y014523D01*
X000984Y014528D01*
X001015Y014530D01*
X018175Y014530D01*
X018206Y014528D01*
X018237Y014523D01*
X018267Y014514D01*
X018296Y014502D01*
X018323Y014487D01*
X018348Y014469D01*
X018372Y014449D01*
X018392Y014425D01*
X018410Y014400D01*
X018425Y014373D01*
X018437Y014344D01*
X018446Y014314D01*
X018451Y014283D01*
X018453Y014252D01*
X018453Y000438D01*
X018451Y000407D01*
X018446Y000376D01*
X018437Y000346D01*
X018425Y000317D01*
X018410Y000290D01*
X018392Y000265D01*
X018372Y000241D01*
X018348Y000221D01*
X018323Y000203D01*
X018296Y000188D01*
X018267Y000176D01*
X018237Y000167D01*
X018206Y000162D01*
X018175Y000160D01*
X001015Y000160D01*
X000984Y000162D01*
X000953Y000167D01*
X000923Y000176D01*
X000894Y000188D01*
X000867Y000203D01*
X000842Y000221D01*
X000818Y000241D01*
X000798Y000265D01*
X000780Y000290D01*
X000765Y000317D01*
X000753Y000346D01*
X000744Y000376D01*
X000739Y000407D01*
X000737Y000438D01*
X011151Y012365D02*
X011153Y012391D01*
X011159Y012417D01*
X011169Y012442D01*
X011182Y012465D01*
X011198Y012485D01*
X011218Y012503D01*
X011240Y012518D01*
X011263Y012530D01*
X011289Y012538D01*
X011315Y012542D01*
X011341Y012542D01*
X011367Y012538D01*
X011393Y012530D01*
X011417Y012518D01*
X011438Y012503D01*
X011458Y012485D01*
X011474Y012465D01*
X011487Y012442D01*
X011497Y012417D01*
X011503Y012391D01*
X011505Y012365D01*
X011503Y012339D01*
X011497Y012313D01*
X011487Y012288D01*
X011474Y012265D01*
X011458Y012245D01*
X011438Y012227D01*
X011416Y012212D01*
X011393Y012200D01*
X011367Y012192D01*
X011341Y012188D01*
X011315Y012188D01*
X011289Y012192D01*
X011263Y012200D01*
X011239Y012212D01*
X011218Y012227D01*
X011198Y012245D01*
X011182Y012265D01*
X011169Y012288D01*
X011159Y012313D01*
X011153Y012339D01*
X011151Y012365D01*
X015991Y012365D02*
X015993Y012388D01*
X015999Y012411D01*
X016009Y012432D01*
X016022Y012452D01*
X016038Y012469D01*
X016057Y012483D01*
X016078Y012493D01*
X016100Y012500D01*
X016123Y012503D01*
X016147Y012502D01*
X016169Y012497D01*
X016191Y012488D01*
X016211Y012476D01*
X016229Y012460D01*
X016243Y012442D01*
X016255Y012422D01*
X016263Y012400D01*
X016267Y012377D01*
X016267Y012353D01*
X016263Y012330D01*
X016255Y012308D01*
X016243Y012288D01*
X016229Y012270D01*
X016211Y012254D01*
X016191Y012242D01*
X016169Y012233D01*
X016147Y012228D01*
X016123Y012227D01*
X016100Y012230D01*
X016078Y012237D01*
X016057Y012247D01*
X016038Y012261D01*
X016022Y012278D01*
X016009Y012298D01*
X015999Y012319D01*
X015993Y012342D01*
X015991Y012365D01*
X016642Y001341D02*
X016644Y001391D01*
X016650Y001441D01*
X016660Y001490D01*
X016674Y001538D01*
X016691Y001585D01*
X016712Y001630D01*
X016737Y001674D01*
X016765Y001715D01*
X016797Y001754D01*
X016831Y001791D01*
X016868Y001825D01*
X016908Y001855D01*
X016950Y001882D01*
X016994Y001906D01*
X017040Y001927D01*
X017087Y001943D01*
X017135Y001956D01*
X017185Y001965D01*
X017234Y001970D01*
X017285Y001971D01*
X017335Y001968D01*
X017384Y001961D01*
X017433Y001950D01*
X017481Y001935D01*
X017527Y001917D01*
X017572Y001895D01*
X017615Y001869D01*
X017656Y001840D01*
X017695Y001808D01*
X017731Y001773D01*
X017763Y001735D01*
X017793Y001695D01*
X017820Y001652D01*
X017843Y001608D01*
X017862Y001562D01*
X017878Y001514D01*
X017890Y001465D01*
X017898Y001416D01*
X017902Y001366D01*
X017902Y001316D01*
X017898Y001266D01*
X017890Y001217D01*
X017878Y001168D01*
X017862Y001120D01*
X017843Y001074D01*
X017820Y001030D01*
X017793Y000987D01*
X017763Y000947D01*
X017731Y000909D01*
X017695Y000874D01*
X017656Y000842D01*
X017615Y000813D01*
X017572Y000787D01*
X017527Y000765D01*
X017481Y000747D01*
X017433Y000732D01*
X017384Y000721D01*
X017335Y000714D01*
X017285Y000711D01*
X017234Y000712D01*
X017185Y000717D01*
X017135Y000726D01*
X017087Y000739D01*
X017040Y000755D01*
X016994Y000776D01*
X016950Y000800D01*
X016908Y000827D01*
X016868Y000857D01*
X016831Y000891D01*
X016797Y000928D01*
X016765Y000967D01*
X016737Y001008D01*
X016712Y001052D01*
X016691Y001097D01*
X016674Y001144D01*
X016660Y001192D01*
X016650Y001241D01*
X016644Y001291D01*
X016642Y001341D01*
M02*
