G75*
%MOIN*%
%OFA0B0*%
%FSLAX24Y24*%
%IPPOS*%
%LPD*%
%AMOC8*
5,1,8,0,0,1.08239X$1,22.5*
%
%ADD10C,0.0600*%
%ADD11C,0.0280*%
%ADD12C,0.0591*%
%ADD13C,0.0100*%
%ADD14C,0.0320*%
%ADD15C,0.0500*%
%ADD16C,0.0160*%
%ADD17C,0.0080*%
%ADD18C,0.0240*%
D10*
X010788Y001152D03*
X011788Y001052D03*
X012788Y001152D03*
X013788Y001052D03*
X014788Y001152D03*
X015788Y001052D03*
D11*
X014095Y005317D03*
X015434Y005632D03*
X013048Y007388D03*
X012717Y007164D03*
X012371Y007408D03*
X013465Y007562D03*
X013095Y009211D03*
X012934Y010199D03*
X012441Y010199D03*
X011646Y010199D03*
X013556Y010199D03*
X014087Y010199D03*
X014623Y010199D03*
X015182Y010199D03*
X016705Y010097D03*
X016587Y010853D03*
X017024Y010853D03*
X016690Y009034D03*
X016693Y007758D03*
X012107Y005302D03*
X009882Y008703D03*
X009004Y009806D03*
X009004Y010593D03*
X008414Y011577D03*
X009882Y013900D03*
X012402Y012404D03*
X016693Y013191D03*
X017363Y014018D03*
X005556Y003810D03*
X003823Y004125D03*
X005347Y002247D03*
D12*
X005737Y006160D03*
X004737Y006160D03*
D13*
X008160Y006169D02*
X017329Y006169D01*
X017329Y006267D02*
X008160Y006267D01*
X008160Y006366D02*
X017329Y006366D01*
X017329Y006464D02*
X008160Y006464D01*
X008160Y006563D02*
X017329Y006563D01*
X017329Y006661D02*
X008160Y006661D01*
X008160Y006760D02*
X017329Y006760D01*
X017329Y006858D02*
X008160Y006858D01*
X008160Y006957D02*
X012514Y006957D01*
X012553Y006918D02*
X012659Y006874D01*
X012775Y006874D01*
X012881Y006918D01*
X012963Y007000D01*
X013004Y007098D01*
X013105Y007098D01*
X013212Y007142D01*
X013294Y007224D01*
X013327Y007305D01*
X013407Y007272D01*
X013523Y007272D01*
X013629Y007316D01*
X013711Y007397D01*
X013755Y007504D01*
X013755Y007619D01*
X013711Y007726D01*
X013629Y007807D01*
X013523Y007852D01*
X013407Y007852D01*
X013301Y007807D01*
X013219Y007726D01*
X013186Y007645D01*
X013105Y007678D01*
X012990Y007678D01*
X012884Y007634D01*
X012802Y007553D01*
X012761Y007454D01*
X012685Y007454D01*
X013285Y008054D01*
X013285Y008991D01*
X013341Y009047D01*
X013385Y009153D01*
X013385Y009269D01*
X013341Y009375D01*
X013259Y009457D01*
X013153Y009501D01*
X013037Y009501D01*
X012931Y009457D01*
X012849Y009375D01*
X012805Y009269D01*
X012805Y009153D01*
X012849Y009047D01*
X012905Y008991D01*
X012905Y008211D01*
X012392Y007698D01*
X012313Y007698D01*
X012206Y007654D01*
X012125Y007572D01*
X012081Y007466D01*
X012081Y007350D01*
X012125Y007244D01*
X012206Y007162D01*
X012313Y007118D01*
X012427Y007118D01*
X012427Y007106D01*
X012471Y007000D01*
X012553Y006918D01*
X012448Y007055D02*
X008160Y007055D01*
X008160Y007154D02*
X012227Y007154D01*
X012121Y007252D02*
X008160Y007252D01*
X008160Y007351D02*
X012081Y007351D01*
X012081Y007449D02*
X008160Y007449D01*
X008160Y007548D02*
X012115Y007548D01*
X012198Y007646D02*
X008160Y007646D01*
X008160Y007745D02*
X012438Y007745D01*
X012537Y007843D02*
X008160Y007843D01*
X008160Y007942D02*
X012635Y007942D01*
X012734Y008040D02*
X008160Y008040D01*
X008160Y008139D02*
X012832Y008139D01*
X012905Y008237D02*
X008160Y008237D01*
X008160Y008336D02*
X012905Y008336D01*
X012905Y008434D02*
X008160Y008434D01*
X008160Y008533D02*
X012905Y008533D01*
X012905Y008631D02*
X008160Y008631D01*
X008160Y008730D02*
X012905Y008730D01*
X012905Y008828D02*
X008160Y008828D01*
X008160Y008927D02*
X012905Y008927D01*
X012871Y009025D02*
X008160Y009025D01*
X008160Y009124D02*
X012817Y009124D01*
X012805Y009222D02*
X008160Y009222D01*
X008160Y009321D02*
X012826Y009321D01*
X012893Y009419D02*
X008160Y009419D01*
X008160Y009518D02*
X008942Y009518D01*
X008947Y009516D02*
X009062Y009516D01*
X009169Y009560D01*
X009250Y009641D01*
X009294Y009748D01*
X009294Y009863D01*
X009250Y009970D01*
X009169Y010052D01*
X009062Y010096D01*
X008947Y010096D01*
X008840Y010052D01*
X008759Y009970D01*
X008714Y009863D01*
X008714Y009748D01*
X008759Y009641D01*
X008840Y009560D01*
X008947Y009516D01*
X009067Y009518D02*
X017329Y009518D01*
X017329Y009616D02*
X009225Y009616D01*
X009281Y009715D02*
X017329Y009715D01*
X017329Y009813D02*
X009294Y009813D01*
X009275Y009912D02*
X011583Y009912D01*
X011589Y009909D02*
X011704Y009909D01*
X011810Y009954D01*
X011892Y010035D01*
X011936Y010142D01*
X011936Y010257D01*
X011892Y010364D01*
X011810Y010445D01*
X011704Y010489D01*
X011589Y010489D01*
X011482Y010445D01*
X011400Y010364D01*
X011356Y010257D01*
X011356Y010142D01*
X011400Y010035D01*
X011482Y009954D01*
X011589Y009909D01*
X011709Y009912D02*
X012379Y009912D01*
X012384Y009909D02*
X012499Y009909D01*
X012606Y009954D01*
X012687Y010035D01*
X012688Y010036D01*
X012688Y010035D01*
X012769Y009954D01*
X012876Y009909D01*
X012991Y009909D01*
X013098Y009954D01*
X013179Y010035D01*
X013224Y010142D01*
X013224Y010257D01*
X013179Y010364D01*
X013098Y010445D01*
X012991Y010489D01*
X012876Y010489D01*
X012769Y010445D01*
X012688Y010364D01*
X012688Y010363D01*
X012687Y010364D01*
X012606Y010445D01*
X012499Y010489D01*
X012384Y010489D01*
X012277Y010445D01*
X012196Y010364D01*
X012151Y010257D01*
X012151Y010142D01*
X012196Y010035D01*
X012277Y009954D01*
X012384Y009909D01*
X012504Y009912D02*
X012871Y009912D01*
X012997Y009912D02*
X013493Y009912D01*
X013498Y009909D02*
X013613Y009909D01*
X013720Y009954D01*
X013802Y010035D01*
X013821Y010083D01*
X013841Y010035D01*
X013923Y009954D01*
X014029Y009909D01*
X014145Y009909D01*
X014251Y009954D01*
X014333Y010035D01*
X014355Y010088D01*
X014377Y010035D01*
X014458Y009954D01*
X014565Y009909D01*
X014680Y009909D01*
X014787Y009954D01*
X014868Y010035D01*
X014902Y010116D01*
X014936Y010035D01*
X015017Y009954D01*
X015124Y009909D01*
X015239Y009909D01*
X015346Y009954D01*
X015428Y010035D01*
X015472Y010142D01*
X015472Y010257D01*
X015428Y010364D01*
X015346Y010445D01*
X015239Y010489D01*
X015124Y010489D01*
X015017Y010445D01*
X014936Y010364D01*
X014902Y010282D01*
X014868Y010364D01*
X014787Y010445D01*
X014680Y010489D01*
X014565Y010489D01*
X014458Y010445D01*
X014377Y010364D01*
X014355Y010311D01*
X014333Y010364D01*
X014251Y010445D01*
X014145Y010489D01*
X014029Y010489D01*
X013923Y010445D01*
X013841Y010364D01*
X013821Y010316D01*
X013802Y010364D01*
X013720Y010445D01*
X013613Y010489D01*
X013498Y010489D01*
X013391Y010445D01*
X013310Y010364D01*
X013266Y010257D01*
X013266Y010142D01*
X013310Y010035D01*
X013391Y009954D01*
X013498Y009909D01*
X013619Y009912D02*
X014024Y009912D01*
X014150Y009912D02*
X014560Y009912D01*
X014685Y009912D02*
X015119Y009912D01*
X015245Y009912D02*
X017329Y009912D01*
X017329Y010010D02*
X015402Y010010D01*
X015458Y010109D02*
X017329Y010109D01*
X017329Y010207D02*
X015472Y010207D01*
X015452Y010306D02*
X017329Y010306D01*
X017329Y010404D02*
X015387Y010404D01*
X014976Y010404D02*
X014828Y010404D01*
X014893Y010306D02*
X014912Y010306D01*
X014899Y010109D02*
X014905Y010109D01*
X014961Y010010D02*
X014843Y010010D01*
X014402Y010010D02*
X014308Y010010D01*
X014293Y010404D02*
X014417Y010404D01*
X013882Y010404D02*
X013761Y010404D01*
X013776Y010010D02*
X013866Y010010D01*
X013335Y010010D02*
X013154Y010010D01*
X013210Y010109D02*
X013279Y010109D01*
X013266Y010207D02*
X013224Y010207D01*
X013204Y010306D02*
X013286Y010306D01*
X013350Y010404D02*
X013139Y010404D01*
X012728Y010404D02*
X012647Y010404D01*
X012662Y010010D02*
X012713Y010010D01*
X012221Y010010D02*
X011867Y010010D01*
X011922Y010109D02*
X012165Y010109D01*
X012151Y010207D02*
X011936Y010207D01*
X011916Y010306D02*
X012172Y010306D01*
X012236Y010404D02*
X011852Y010404D01*
X011441Y010404D02*
X009226Y010404D01*
X009250Y010429D02*
X009294Y010535D01*
X009294Y010651D01*
X009250Y010757D01*
X009169Y010839D01*
X009062Y010883D01*
X008947Y010883D01*
X008840Y010839D01*
X008759Y010757D01*
X008714Y010651D01*
X008714Y010535D01*
X008759Y010429D01*
X008840Y010347D01*
X008947Y010303D01*
X009062Y010303D01*
X009169Y010347D01*
X009250Y010429D01*
X009281Y010503D02*
X017329Y010503D01*
X017329Y010601D02*
X017174Y010601D01*
X017188Y010607D02*
X017270Y010689D01*
X017314Y010795D01*
X017314Y010911D01*
X017270Y011017D01*
X017188Y011099D01*
X017082Y011143D01*
X016966Y011143D01*
X016860Y011099D01*
X016806Y011045D01*
X016751Y011099D01*
X016645Y011143D01*
X016529Y011143D01*
X016423Y011099D01*
X016341Y011017D01*
X016297Y010911D01*
X016297Y010795D01*
X016341Y010689D01*
X016423Y010607D01*
X016529Y010563D01*
X016645Y010563D01*
X016751Y010607D01*
X016806Y010661D01*
X016860Y010607D01*
X016966Y010563D01*
X017082Y010563D01*
X017188Y010607D01*
X017275Y010700D02*
X017329Y010700D01*
X017329Y010798D02*
X017314Y010798D01*
X017314Y010897D02*
X017329Y010897D01*
X017329Y010995D02*
X017279Y010995D01*
X017329Y011094D02*
X017194Y011094D01*
X017329Y011192D02*
X008160Y011192D01*
X008160Y011094D02*
X016418Y011094D01*
X016332Y010995D02*
X008160Y010995D01*
X008160Y010897D02*
X016297Y010897D01*
X016297Y010798D02*
X009210Y010798D01*
X009274Y010700D02*
X016337Y010700D01*
X016437Y010601D02*
X009294Y010601D01*
X009068Y010306D02*
X011376Y010306D01*
X011356Y010207D02*
X008160Y010207D01*
X008160Y010109D02*
X011370Y010109D01*
X011425Y010010D02*
X009210Y010010D01*
X008941Y010306D02*
X008160Y010306D01*
X008160Y010404D02*
X008783Y010404D01*
X008728Y010503D02*
X008160Y010503D01*
X008160Y010601D02*
X008714Y010601D01*
X008735Y010700D02*
X008160Y010700D01*
X008160Y010798D02*
X008799Y010798D01*
X008160Y011291D02*
X017329Y011291D01*
X017329Y011389D02*
X008160Y011389D01*
X008160Y011488D02*
X017329Y011488D01*
X017329Y011586D02*
X008160Y011586D01*
X008160Y011685D02*
X017329Y011685D01*
X017329Y011783D02*
X016261Y011783D01*
X016246Y011777D02*
X016013Y011777D01*
X015797Y011866D01*
X015631Y012032D01*
X015542Y012248D01*
X015542Y012482D01*
X015631Y012698D01*
X015797Y012863D01*
X016013Y012953D01*
X016246Y012953D01*
X016462Y012863D01*
X016628Y012698D01*
X016717Y012482D01*
X016717Y012248D01*
X016628Y012032D01*
X016462Y011866D01*
X016246Y011777D01*
X015998Y011783D02*
X011563Y011783D01*
X011453Y011738D02*
X011684Y011833D01*
X011860Y012009D01*
X011955Y012240D01*
X011955Y012489D01*
X011860Y012720D01*
X011684Y012896D01*
X011453Y012992D01*
X011204Y012992D01*
X010973Y012896D01*
X010797Y012720D01*
X010701Y012489D01*
X010701Y012240D01*
X010797Y012009D01*
X010973Y011833D01*
X011204Y011738D01*
X011453Y011738D01*
X011094Y011783D02*
X008160Y011783D01*
X008160Y011882D02*
X010925Y011882D01*
X010826Y011980D02*
X008160Y011980D01*
X008160Y012079D02*
X010768Y012079D01*
X010727Y012177D02*
X008160Y012177D01*
X008160Y012276D02*
X010701Y012276D01*
X010701Y012374D02*
X008160Y012374D01*
X008160Y012473D02*
X010701Y012473D01*
X010735Y012571D02*
X008160Y012571D01*
X008160Y012670D02*
X010776Y012670D01*
X010845Y012768D02*
X008160Y012768D01*
X008160Y012867D02*
X010943Y012867D01*
X011139Y012965D02*
X008160Y012965D01*
X008160Y013064D02*
X017329Y013064D01*
X017329Y013162D02*
X008160Y013162D01*
X008160Y013261D02*
X017329Y013261D01*
X017329Y013359D02*
X008160Y013359D01*
X008160Y013458D02*
X017329Y013458D01*
X017329Y013556D02*
X008160Y013556D01*
X008160Y013655D02*
X009718Y013655D01*
X009718Y013654D02*
X009825Y013610D01*
X009940Y013610D01*
X010047Y013654D01*
X010128Y013736D01*
X010172Y013842D01*
X010172Y013958D01*
X010128Y014064D01*
X010113Y014080D01*
X017074Y014080D01*
X017073Y014076D01*
X017073Y013961D01*
X017117Y013854D01*
X017198Y013772D01*
X017247Y013752D01*
X017329Y013670D01*
X017329Y003028D01*
X016857Y002556D01*
X008160Y002556D01*
X008160Y014080D01*
X009652Y014080D01*
X009637Y014064D01*
X009592Y013958D01*
X009592Y013842D01*
X009637Y013736D01*
X009718Y013654D01*
X009629Y013753D02*
X008160Y013753D01*
X008160Y013852D02*
X009592Y013852D01*
X009592Y013950D02*
X008160Y013950D01*
X008160Y014049D02*
X009630Y014049D01*
X010135Y014049D02*
X017073Y014049D01*
X017077Y013950D02*
X010172Y013950D01*
X010172Y013852D02*
X017119Y013852D01*
X017245Y013753D02*
X010135Y013753D01*
X010047Y013655D02*
X017329Y013655D01*
X017329Y012965D02*
X011518Y012965D01*
X011713Y012867D02*
X015805Y012867D01*
X015702Y012768D02*
X011812Y012768D01*
X011881Y012670D02*
X015620Y012670D01*
X015579Y012571D02*
X011922Y012571D01*
X011955Y012473D02*
X015542Y012473D01*
X015542Y012374D02*
X011955Y012374D01*
X011955Y012276D02*
X015542Y012276D01*
X015571Y012177D02*
X011929Y012177D01*
X011889Y012079D02*
X015612Y012079D01*
X015683Y011980D02*
X011831Y011980D01*
X011732Y011882D02*
X015781Y011882D01*
X016478Y011882D02*
X017329Y011882D01*
X017329Y011980D02*
X016576Y011980D01*
X016647Y012079D02*
X017329Y012079D01*
X017329Y012177D02*
X016688Y012177D01*
X016717Y012276D02*
X017329Y012276D01*
X017329Y012374D02*
X016717Y012374D01*
X016717Y012473D02*
X017329Y012473D01*
X017329Y012571D02*
X016680Y012571D01*
X016639Y012670D02*
X017329Y012670D01*
X017329Y012768D02*
X016557Y012768D01*
X016454Y012867D02*
X017329Y012867D01*
X016855Y011094D02*
X016757Y011094D01*
X016737Y010601D02*
X016874Y010601D01*
X017329Y009419D02*
X013297Y009419D01*
X013364Y009321D02*
X017329Y009321D01*
X017329Y009222D02*
X013385Y009222D01*
X013373Y009124D02*
X017329Y009124D01*
X017329Y009025D02*
X013319Y009025D01*
X013285Y008927D02*
X017329Y008927D01*
X017329Y008828D02*
X013285Y008828D01*
X013285Y008730D02*
X017329Y008730D01*
X017329Y008631D02*
X013285Y008631D01*
X013285Y008533D02*
X017329Y008533D01*
X017329Y008434D02*
X013285Y008434D01*
X013285Y008336D02*
X017329Y008336D01*
X017329Y008237D02*
X013285Y008237D01*
X013285Y008139D02*
X017329Y008139D01*
X017329Y008040D02*
X013271Y008040D01*
X013173Y007942D02*
X017329Y007942D01*
X017329Y007843D02*
X013543Y007843D01*
X013387Y007843D02*
X013074Y007843D01*
X012976Y007745D02*
X013238Y007745D01*
X013186Y007646D02*
X013184Y007646D01*
X012912Y007646D02*
X012877Y007646D01*
X012800Y007548D02*
X012779Y007548D01*
X012986Y007055D02*
X017329Y007055D01*
X017329Y006957D02*
X012920Y006957D01*
X013223Y007154D02*
X017329Y007154D01*
X017329Y007252D02*
X013305Y007252D01*
X013664Y007351D02*
X017329Y007351D01*
X017329Y007449D02*
X013732Y007449D01*
X013755Y007548D02*
X017329Y007548D01*
X017329Y007646D02*
X013744Y007646D01*
X013692Y007745D02*
X017329Y007745D01*
X017329Y006070D02*
X008160Y006070D01*
X008160Y005972D02*
X017329Y005972D01*
X017329Y005873D02*
X015603Y005873D01*
X015598Y005878D02*
X015491Y005922D01*
X015376Y005922D01*
X015269Y005878D01*
X015188Y005797D01*
X015144Y005690D01*
X015144Y005575D01*
X015188Y005468D01*
X015269Y005387D01*
X015376Y005342D01*
X015491Y005342D01*
X015598Y005387D01*
X015679Y005468D01*
X015724Y005575D01*
X015724Y005690D01*
X015679Y005797D01*
X015598Y005878D01*
X015689Y005775D02*
X017329Y005775D01*
X017329Y005676D02*
X015724Y005676D01*
X015724Y005578D02*
X017329Y005578D01*
X017329Y005479D02*
X015684Y005479D01*
X015583Y005381D02*
X017329Y005381D01*
X017329Y005282D02*
X008160Y005282D01*
X008160Y005184D02*
X017329Y005184D01*
X017329Y005085D02*
X008160Y005085D01*
X008160Y004987D02*
X017329Y004987D01*
X017329Y004888D02*
X008160Y004888D01*
X008160Y004790D02*
X017329Y004790D01*
X017329Y004691D02*
X008160Y004691D01*
X008160Y004593D02*
X017329Y004593D01*
X017329Y004494D02*
X008160Y004494D01*
X008160Y004396D02*
X017329Y004396D01*
X017329Y004297D02*
X008160Y004297D01*
X008160Y004199D02*
X017329Y004199D01*
X017329Y004100D02*
X008160Y004100D01*
X008160Y004002D02*
X017329Y004002D01*
X017329Y003903D02*
X008160Y003903D01*
X008160Y003805D02*
X017329Y003805D01*
X017329Y003706D02*
X008160Y003706D01*
X008160Y003608D02*
X017329Y003608D01*
X017329Y003509D02*
X008160Y003509D01*
X008160Y003411D02*
X017329Y003411D01*
X017329Y003312D02*
X008160Y003312D01*
X008160Y003214D02*
X017329Y003214D01*
X017329Y003115D02*
X008160Y003115D01*
X008160Y003017D02*
X017318Y003017D01*
X017219Y002918D02*
X008160Y002918D01*
X008160Y002820D02*
X017121Y002820D01*
X017022Y002721D02*
X008160Y002721D01*
X008160Y002623D02*
X016924Y002623D01*
X016420Y002016D02*
X016408Y002004D01*
X016266Y001758D01*
X016192Y001483D01*
X016192Y001252D01*
X016169Y001307D01*
X016043Y001434D01*
X015877Y001502D01*
X015698Y001502D01*
X015533Y001434D01*
X015406Y001307D01*
X015338Y001142D01*
X015338Y000963D01*
X015406Y000797D01*
X015533Y000671D01*
X015679Y000610D01*
X013896Y000610D01*
X014043Y000671D01*
X014169Y000797D01*
X014238Y000963D01*
X014238Y001142D01*
X014169Y001307D01*
X014043Y001434D01*
X013877Y001502D01*
X013698Y001502D01*
X013533Y001434D01*
X013406Y001307D01*
X013338Y001142D01*
X013338Y000963D01*
X013406Y000797D01*
X013533Y000671D01*
X013679Y000610D01*
X008160Y000610D01*
X008160Y002016D01*
X016420Y002016D01*
X016367Y001933D02*
X008160Y001933D01*
X008160Y001835D02*
X016310Y001835D01*
X016260Y001736D02*
X008160Y001736D01*
X008160Y001638D02*
X016234Y001638D01*
X016207Y001539D02*
X015030Y001539D01*
X015043Y001534D02*
X014877Y001602D01*
X014698Y001602D01*
X014533Y001534D01*
X014406Y001407D01*
X014338Y001242D01*
X014338Y001063D01*
X014406Y000897D01*
X014533Y000771D01*
X014698Y000702D01*
X014877Y000702D01*
X015043Y000771D01*
X015169Y000897D01*
X015238Y001063D01*
X015238Y001242D01*
X015169Y001407D01*
X015043Y001534D01*
X015136Y001441D02*
X015550Y001441D01*
X015441Y001342D02*
X015196Y001342D01*
X015237Y001244D02*
X015380Y001244D01*
X015339Y001145D02*
X015238Y001145D01*
X015231Y001047D02*
X015338Y001047D01*
X015344Y000948D02*
X015190Y000948D01*
X015122Y000850D02*
X015385Y000850D01*
X015453Y000751D02*
X014995Y000751D01*
X014580Y000751D02*
X014123Y000751D01*
X014191Y000850D02*
X014454Y000850D01*
X014385Y000948D02*
X014232Y000948D01*
X014238Y001047D02*
X014345Y001047D01*
X014338Y001145D02*
X014237Y001145D01*
X014196Y001244D02*
X014339Y001244D01*
X014380Y001342D02*
X014134Y001342D01*
X014026Y001441D02*
X014440Y001441D01*
X014546Y001539D02*
X013030Y001539D01*
X013043Y001534D02*
X012877Y001602D01*
X012698Y001602D01*
X012533Y001534D01*
X012406Y001407D01*
X012338Y001242D01*
X012338Y001063D01*
X012406Y000897D01*
X012533Y000771D01*
X012698Y000702D01*
X012877Y000702D01*
X013043Y000771D01*
X013169Y000897D01*
X013238Y001063D01*
X013238Y001242D01*
X013169Y001407D01*
X013043Y001534D01*
X013136Y001441D02*
X013550Y001441D01*
X013441Y001342D02*
X013196Y001342D01*
X013237Y001244D02*
X013380Y001244D01*
X013339Y001145D02*
X013238Y001145D01*
X013231Y001047D02*
X013338Y001047D01*
X013344Y000948D02*
X013190Y000948D01*
X013122Y000850D02*
X013385Y000850D01*
X013453Y000751D02*
X012995Y000751D01*
X012580Y000751D02*
X010995Y000751D01*
X011043Y000771D02*
X011169Y000897D01*
X011238Y001063D01*
X011238Y001242D01*
X011169Y001407D01*
X011043Y001534D01*
X010877Y001602D01*
X010698Y001602D01*
X010533Y001534D01*
X010406Y001407D01*
X010338Y001242D01*
X010338Y001063D01*
X010406Y000897D01*
X010533Y000771D01*
X010698Y000702D01*
X010877Y000702D01*
X011043Y000771D01*
X011122Y000850D02*
X012454Y000850D01*
X012385Y000948D02*
X011190Y000948D01*
X011231Y001047D02*
X012345Y001047D01*
X012338Y001145D02*
X011238Y001145D01*
X011237Y001244D02*
X012339Y001244D01*
X012380Y001342D02*
X011196Y001342D01*
X011136Y001441D02*
X012440Y001441D01*
X012546Y001539D02*
X011030Y001539D01*
X010546Y001539D02*
X008160Y001539D01*
X008160Y001441D02*
X010440Y001441D01*
X010380Y001342D02*
X008160Y001342D01*
X008160Y001244D02*
X010339Y001244D01*
X010338Y001145D02*
X008160Y001145D01*
X008160Y001047D02*
X010345Y001047D01*
X010385Y000948D02*
X008160Y000948D01*
X008160Y000850D02*
X010454Y000850D01*
X010580Y000751D02*
X008160Y000751D01*
X008160Y000653D02*
X013577Y000653D01*
X013999Y000653D02*
X015577Y000653D01*
X016134Y001342D02*
X016192Y001342D01*
X016192Y001441D02*
X016026Y001441D01*
X015284Y005381D02*
X008160Y005381D01*
X008160Y005479D02*
X015183Y005479D01*
X015144Y005578D02*
X008160Y005578D01*
X008160Y005676D02*
X015144Y005676D01*
X015179Y005775D02*
X008160Y005775D01*
X008160Y005873D02*
X015264Y005873D01*
X008784Y009616D02*
X008160Y009616D01*
X008160Y009715D02*
X008728Y009715D01*
X008714Y009813D02*
X008160Y009813D01*
X008160Y009912D02*
X008734Y009912D01*
X008799Y010010D02*
X008160Y010010D01*
D14*
X008414Y011577D02*
X008414Y011617D01*
X008414Y011577D02*
X008808Y011577D01*
D15*
X008737Y004160D02*
X008737Y003810D01*
X005556Y003810D01*
D16*
X004737Y001849D02*
X005312Y001274D01*
X008548Y001274D01*
X008579Y001243D01*
X005347Y002247D02*
X005347Y002286D01*
X004737Y001849D02*
X004737Y003160D01*
X005386Y003810D01*
X005556Y003810D01*
X008737Y011160D02*
X008737Y011294D01*
X008414Y011617D01*
X008414Y011483D01*
X008737Y011160D01*
D17*
X013095Y009211D02*
X013095Y008132D01*
X012371Y007408D01*
D18*
X016969Y002286D02*
X017599Y002916D01*
X017599Y013782D01*
X017363Y014018D01*
X016969Y002286D02*
X005347Y002286D01*
M02*
