G75*
%MOIN*%
%OFA0B0*%
%FSLAX24Y24*%
%IPPOS*%
%LPD*%
%AMOC8*
5,1,8,0,0,1.08239X$1,22.5*
%
%ADD10R,0.0011X0.0069*%
%ADD11R,0.0011X0.0080*%
%ADD12R,0.0011X0.0218*%
%ADD13R,0.0011X0.0310*%
%ADD14R,0.0011X0.0380*%
%ADD15R,0.0012X0.0425*%
%ADD16R,0.0011X0.0471*%
%ADD17R,0.0011X0.0517*%
%ADD18R,0.0011X0.0092*%
%ADD19R,0.0011X0.0563*%
%ADD20R,0.0011X0.0161*%
%ADD21R,0.0011X0.0586*%
%ADD22R,0.0011X0.0782*%
%ADD23R,0.0012X0.0816*%
%ADD24R,0.0011X0.0655*%
%ADD25R,0.0011X0.0851*%
%ADD26R,0.0011X0.0678*%
%ADD27R,0.0011X0.0862*%
%ADD28R,0.0011X0.0288*%
%ADD29R,0.0011X0.0448*%
%ADD30R,0.0011X0.0241*%
%ADD31R,0.0011X0.0253*%
%ADD32R,0.0011X0.0391*%
%ADD33R,0.0012X0.0230*%
%ADD34R,0.0012X0.0345*%
%ADD35R,0.0011X0.0207*%
%ADD36R,0.0011X0.0207*%
%ADD37R,0.0011X0.0299*%
%ADD38R,0.0011X0.0195*%
%ADD39R,0.0011X0.0184*%
%ADD40R,0.0012X0.0173*%
%ADD41R,0.0012X0.0195*%
%ADD42R,0.0012X0.0322*%
%ADD43R,0.0012X0.0184*%
%ADD44R,0.0011X0.0173*%
%ADD45R,0.0011X0.0230*%
%ADD46R,0.0011X0.0184*%
%ADD47R,0.0011X0.0092*%
%ADD48R,0.0012X0.0161*%
%ADD49R,0.0012X0.0092*%
%ADD50R,0.0011X0.0149*%
%ADD51R,0.0011X0.0150*%
%ADD52R,0.0011X0.0069*%
%ADD53R,0.0011X0.0046*%
%ADD54R,0.0012X0.0149*%
%ADD55R,0.0012X0.0023*%
%ADD56R,0.0012X0.0138*%
%ADD57R,0.0011X0.0138*%
%ADD58R,0.0011X0.0103*%
%ADD59R,0.0011X0.0057*%
%ADD60R,0.0011X0.0035*%
%ADD61R,0.0012X0.0103*%
%ADD62R,0.0012X0.0011*%
%ADD63R,0.0012X0.0127*%
%ADD64R,0.0012X0.0057*%
%ADD65R,0.0011X0.0127*%
%ADD66R,0.0011X0.0011*%
%ADD67R,0.0011X0.0023*%
%ADD68R,0.0012X0.0092*%
%ADD69R,0.0011X0.0115*%
%ADD70R,0.0011X0.0126*%
%ADD71R,0.0012X0.0126*%
%ADD72R,0.0011X0.0265*%
%ADD73R,0.0012X0.0150*%
%ADD74R,0.0012X0.0276*%
%ADD75R,0.0011X0.0322*%
%ADD76R,0.0011X0.0345*%
%ADD77R,0.0011X0.0368*%
%ADD78R,0.0012X0.0368*%
%ADD79R,0.0011X0.0379*%
%ADD80R,0.0012X0.0207*%
%ADD81R,0.0012X0.0207*%
%ADD82R,0.0012X0.0678*%
%ADD83R,0.0011X0.0621*%
%ADD84R,0.0011X0.0552*%
%ADD85R,0.0011X0.0552*%
%ADD86R,0.0012X0.0517*%
%ADD87R,0.0011X0.0425*%
%ADD88R,0.0012X0.0218*%
%ADD89R,0.0011X0.0437*%
%ADD90R,0.0012X0.0437*%
%ADD91R,0.0012X0.0080*%
%ADD92R,0.0012X0.0333*%
%ADD93R,0.0011X0.0356*%
%ADD94R,0.0011X0.0403*%
%ADD95R,0.0012X0.0115*%
%ADD96R,0.0012X0.0069*%
%ADD97R,0.0012X0.0391*%
%ADD98R,0.0011X0.0264*%
%ADD99R,0.0012X0.0288*%
%ADD100R,0.0012X0.0403*%
%ADD101R,0.0011X0.0299*%
%ADD102R,0.0011X0.0276*%
%ADD103R,0.0012X0.0069*%
%ADD104R,0.0011X0.0414*%
%ADD105R,0.0011X0.0333*%
%ADD106R,0.0011X0.0322*%
%ADD107R,0.0090X0.0580*%
%ADD108R,0.0580X0.0090*%
%ADD109R,0.0472X0.0315*%
%ADD110R,0.0315X0.0472*%
%ADD111C,0.0740*%
%ADD112R,0.0709X0.0472*%
%ADD113R,0.0540X0.0180*%
%ADD114R,0.0787X0.0394*%
%ADD115C,0.0120*%
%ADD116C,0.0280*%
%ADD117C,0.0080*%
%ADD118R,0.0591X0.0591*%
%ADD119R,0.0280X0.0280*%
%ADD120C,0.0160*%
%ADD121C,0.0320*%
%ADD122C,0.0100*%
%ADD123C,0.0010*%
D10*
X008873Y003227D03*
X009138Y002859D03*
X010518Y003549D03*
X008965Y004262D03*
X008931Y004250D03*
X008896Y004239D03*
X008827Y004216D03*
X008839Y004124D03*
X009138Y005124D03*
X009172Y005124D03*
D11*
X009161Y005118D03*
X009184Y005130D03*
X009195Y005130D03*
X009138Y004946D03*
X009126Y004946D03*
X009103Y004957D03*
X009080Y004957D03*
X009069Y004957D03*
X009057Y004957D03*
X009046Y004957D03*
X009023Y004957D03*
X009011Y004957D03*
X009000Y004957D03*
X008988Y004957D03*
X008965Y004957D03*
X008954Y004957D03*
X008908Y004946D03*
X008885Y004934D03*
X008885Y005141D03*
X008896Y005141D03*
X008873Y005141D03*
X008850Y005153D03*
X008839Y005153D03*
X008827Y005475D03*
X008850Y005486D03*
X008873Y005486D03*
X008885Y005486D03*
X009126Y005498D03*
X009138Y005498D03*
X009195Y005498D03*
X009218Y005498D03*
X009172Y004934D03*
X009161Y004934D03*
X009195Y004923D03*
X009195Y004555D03*
X009184Y004555D03*
X009172Y004555D03*
X009161Y004555D03*
X009138Y004555D03*
X009126Y004555D03*
X009115Y004555D03*
X009103Y004555D03*
X009080Y004555D03*
X009069Y004555D03*
X009057Y004555D03*
X009046Y004555D03*
X009023Y004555D03*
X009011Y004555D03*
X009000Y004555D03*
X008988Y004555D03*
X008965Y004555D03*
X008954Y004555D03*
X008942Y004555D03*
X008931Y004555D03*
X008908Y004555D03*
X008896Y004555D03*
X008885Y004555D03*
X008873Y004555D03*
X008850Y004555D03*
X008839Y004555D03*
X008827Y004555D03*
X008816Y004555D03*
X008908Y004244D03*
X008885Y004233D03*
X008873Y004233D03*
X008850Y004221D03*
X008839Y004221D03*
X008827Y004129D03*
X008850Y004118D03*
X008873Y004106D03*
X008885Y004106D03*
X008896Y004106D03*
X008908Y004095D03*
X008931Y004095D03*
X008942Y004083D03*
X008954Y004083D03*
X008965Y004083D03*
X008988Y004072D03*
X009000Y004060D03*
X009011Y004060D03*
X009023Y004060D03*
X009046Y004049D03*
X009057Y004049D03*
X009069Y004037D03*
X009080Y004037D03*
X009172Y004003D03*
X009184Y004003D03*
X009195Y003991D03*
X009218Y003991D03*
X009230Y003980D03*
X009241Y003980D03*
X009276Y003968D03*
X009299Y003957D03*
X009310Y003957D03*
X009333Y003945D03*
X009161Y004325D03*
X009172Y004336D03*
X009184Y004336D03*
X009195Y004336D03*
X009218Y004348D03*
X009241Y004359D03*
X009253Y004359D03*
X009276Y004371D03*
X009287Y004371D03*
X009310Y004382D03*
X009253Y004555D03*
X009241Y004555D03*
X009230Y004555D03*
X009218Y004555D03*
X009080Y004302D03*
X009069Y004302D03*
X009057Y004290D03*
X009046Y004290D03*
X009023Y004279D03*
X009011Y004279D03*
X009000Y004279D03*
X008988Y004267D03*
X008954Y004256D03*
X008942Y004256D03*
X008724Y004175D03*
X008816Y003451D03*
X008827Y003451D03*
X008839Y003451D03*
X008850Y003451D03*
X008873Y003451D03*
X008885Y003451D03*
X008896Y003451D03*
X008908Y003451D03*
X008931Y003451D03*
X008942Y003451D03*
X008954Y003451D03*
X008965Y003451D03*
X009069Y003451D03*
X009080Y003451D03*
X009103Y003451D03*
X009115Y003451D03*
X009126Y003451D03*
X009138Y003451D03*
X009161Y003451D03*
X009172Y003451D03*
X009184Y003451D03*
X009195Y003451D03*
X009218Y003451D03*
X009230Y003451D03*
X009241Y003451D03*
X009253Y003451D03*
X009195Y003244D03*
X009184Y003244D03*
X009172Y003244D03*
X009161Y003244D03*
X009218Y003232D03*
X008896Y003232D03*
X008885Y003232D03*
X008850Y003221D03*
X008850Y002887D03*
X008839Y002887D03*
X008873Y002887D03*
X009161Y002864D03*
X009172Y002864D03*
X009184Y002864D03*
X009195Y002864D03*
X009218Y002876D03*
X009966Y003934D03*
X010081Y004417D03*
X010161Y004589D03*
X010518Y004842D03*
D12*
X010506Y004842D03*
X010345Y005118D03*
X010276Y004543D03*
X009655Y004566D03*
X009655Y005118D03*
X009333Y005314D03*
X008988Y005245D03*
X009851Y003980D03*
X009655Y003830D03*
X009655Y003278D03*
X008988Y002979D03*
X010345Y003278D03*
X010506Y003554D03*
X010345Y003830D03*
D13*
X010495Y003554D03*
X010311Y004486D03*
X010345Y004520D03*
X010495Y004842D03*
X009506Y004842D03*
X009310Y005314D03*
X008758Y005314D03*
D14*
X008770Y004704D03*
X009299Y004704D03*
X010483Y004842D03*
X010483Y003554D03*
D15*
X010472Y003554D03*
X010472Y004842D03*
D16*
X010460Y004842D03*
X009540Y004842D03*
X009540Y003554D03*
X010460Y003554D03*
D17*
X010449Y003554D03*
X010449Y004842D03*
D18*
X010449Y004457D03*
X010288Y004354D03*
X010276Y004342D03*
X010265Y004331D03*
X010230Y004296D03*
X010219Y004285D03*
X009333Y004388D03*
X009230Y004354D03*
X009161Y004009D03*
X008735Y004170D03*
X008850Y004917D03*
X008873Y004929D03*
X008908Y005147D03*
X008827Y005159D03*
X008839Y005481D03*
X009115Y005492D03*
X009161Y005504D03*
X009172Y005504D03*
X009184Y005504D03*
X009230Y005492D03*
X009241Y005481D03*
X009230Y005147D03*
X009218Y005136D03*
X009184Y004929D03*
X009218Y004906D03*
X009138Y003238D03*
X009126Y003238D03*
X008816Y003204D03*
X008816Y002905D03*
X008827Y002893D03*
X008931Y002893D03*
D19*
X010437Y003554D03*
X010437Y004842D03*
D20*
X010207Y004561D03*
X010437Y004457D03*
X009908Y003951D03*
X009736Y003192D03*
X009747Y003181D03*
X009759Y003169D03*
X009770Y003169D03*
X010219Y003158D03*
X010230Y003169D03*
X010253Y003181D03*
X010265Y003192D03*
X009276Y003169D03*
X009276Y002939D03*
X008816Y004170D03*
X009276Y005205D03*
X009736Y005205D03*
X009747Y005216D03*
X009759Y005216D03*
X009770Y005228D03*
X009793Y005239D03*
X010230Y005228D03*
X010253Y005216D03*
X010265Y005205D03*
D21*
X009575Y004842D03*
X009575Y003554D03*
X010426Y003554D03*
D22*
X010426Y004745D03*
D23*
X010414Y004739D03*
D24*
X009598Y004842D03*
X009598Y003554D03*
X010403Y003554D03*
D25*
X010403Y004745D03*
D26*
X010391Y003554D03*
D27*
X010391Y004750D03*
D28*
X010380Y005049D03*
X009621Y004635D03*
X010380Y003761D03*
X010380Y003347D03*
X009621Y003347D03*
X009023Y003060D03*
X009011Y003037D03*
D29*
X010380Y004555D03*
D30*
X009816Y004003D03*
X010368Y003313D03*
X008735Y005314D03*
D31*
X009000Y005274D03*
X009632Y005078D03*
X009632Y004607D03*
X009805Y004009D03*
X009632Y003790D03*
X009632Y003319D03*
X009000Y003008D03*
X008735Y003054D03*
X010368Y003790D03*
X010368Y005078D03*
D32*
X010368Y004538D03*
X009287Y004710D03*
X008781Y004710D03*
X009138Y004170D03*
D33*
X009839Y003986D03*
X010357Y003813D03*
X010357Y003296D03*
X010357Y005101D03*
D34*
X010357Y004526D03*
X009092Y004170D03*
X008747Y004687D03*
D35*
X010334Y005136D03*
X010334Y003261D03*
D36*
X010334Y003848D03*
X009862Y003974D03*
X009678Y003859D03*
X010265Y004549D03*
D37*
X010322Y004492D03*
X010334Y004503D03*
X009770Y004020D03*
X009621Y003756D03*
X009506Y003549D03*
X009333Y004664D03*
X009621Y005044D03*
D38*
X009678Y005153D03*
X009678Y004532D03*
X009690Y004520D03*
X009805Y004394D03*
X009816Y004382D03*
X009828Y004371D03*
X009851Y004348D03*
X009862Y004336D03*
X009874Y004325D03*
X009885Y004313D03*
X009908Y004290D03*
X009920Y004279D03*
X009931Y004267D03*
X009943Y004256D03*
X009966Y004233D03*
X009977Y004221D03*
X009989Y004210D03*
X010000Y004198D03*
X010023Y004175D03*
X010035Y004164D03*
X010046Y004152D03*
X010058Y004141D03*
X010081Y004118D03*
X009874Y003968D03*
X009690Y003876D03*
X010311Y003876D03*
X010322Y003865D03*
X010322Y003244D03*
X010311Y003232D03*
X009690Y003232D03*
X009678Y003244D03*
X008724Y003048D03*
X010253Y004555D03*
X010322Y005153D03*
X008724Y005314D03*
D39*
X009690Y005159D03*
X009701Y005170D03*
X010311Y005159D03*
X010173Y004538D03*
X009793Y004411D03*
X009770Y004434D03*
X009759Y004446D03*
X009736Y004469D03*
X009713Y004492D03*
X009701Y004503D03*
X010092Y004101D03*
X010104Y004089D03*
X010115Y004078D03*
X010150Y004043D03*
X010161Y004032D03*
X010173Y004020D03*
X010207Y003986D03*
X010219Y003974D03*
X010230Y003963D03*
X010265Y003928D03*
X010276Y003917D03*
X010288Y003905D03*
X009885Y003963D03*
X009069Y003169D03*
D40*
X009724Y003198D03*
X010299Y003221D03*
X009897Y003957D03*
X010184Y004543D03*
D41*
X009897Y004302D03*
X009954Y004244D03*
X010012Y004187D03*
X010069Y004129D03*
X010299Y003888D03*
X009839Y004359D03*
D42*
X010299Y004480D03*
D43*
X010242Y004561D03*
X009782Y004423D03*
X009724Y004480D03*
X010127Y004066D03*
X010184Y004009D03*
X010242Y003951D03*
X008977Y002951D03*
X008977Y005216D03*
X010299Y005170D03*
D44*
X010288Y005187D03*
X010276Y005199D03*
X009713Y005187D03*
X009276Y005429D03*
X009069Y005429D03*
X010196Y004555D03*
X010230Y004566D03*
X010288Y003209D03*
X010276Y003198D03*
X009713Y003209D03*
X009701Y003221D03*
D45*
X009644Y003296D03*
X009333Y003054D03*
X009057Y003135D03*
X009644Y003813D03*
X009828Y003997D03*
X009644Y004584D03*
X010288Y004538D03*
X009644Y005101D03*
X009057Y005400D03*
D46*
X009747Y004457D03*
X010138Y004055D03*
X010196Y003997D03*
X010253Y003940D03*
D47*
X010253Y004319D03*
X009299Y004377D03*
X009253Y003974D03*
X009287Y003963D03*
X009230Y003227D03*
X009115Y003227D03*
X008839Y003215D03*
X008827Y003215D03*
X008885Y002882D03*
X008896Y002882D03*
X008908Y002882D03*
X009230Y002882D03*
X009115Y004952D03*
X008942Y004952D03*
X008931Y004952D03*
X008896Y004940D03*
X008816Y005170D03*
X008816Y005469D03*
D48*
X009264Y004848D03*
X009724Y005193D03*
X010242Y005216D03*
X010242Y003169D03*
D49*
X009207Y002870D03*
X010242Y004308D03*
X009264Y004365D03*
D50*
X010219Y004566D03*
X010173Y005256D03*
X009828Y005256D03*
X009345Y005314D03*
X009816Y003140D03*
X009851Y003129D03*
D51*
X009805Y003152D03*
X009793Y003152D03*
X010196Y003152D03*
X010207Y003152D03*
X009345Y003048D03*
X008965Y002933D03*
X008965Y005187D03*
X009805Y005245D03*
X010196Y005245D03*
X010207Y005245D03*
X010219Y005233D03*
D52*
X010207Y004285D03*
X008896Y005492D03*
D53*
X010196Y004285D03*
X009989Y003928D03*
D54*
X010184Y003140D03*
X008804Y004175D03*
D55*
X010184Y004285D03*
D56*
X010184Y005251D03*
X010127Y005274D03*
X010069Y005285D03*
X009839Y005262D03*
X009839Y003135D03*
X009897Y003112D03*
X009954Y003100D03*
X010012Y003100D03*
X010127Y003123D03*
D57*
X010138Y003123D03*
X010150Y003123D03*
X010161Y003135D03*
X010173Y003135D03*
X010115Y003112D03*
X010104Y003112D03*
X010092Y003112D03*
X010081Y003112D03*
X010046Y003100D03*
X010035Y003100D03*
X010023Y003100D03*
X010000Y003100D03*
X009989Y003100D03*
X009977Y003100D03*
X009966Y003100D03*
X009920Y003112D03*
X009908Y003112D03*
X009885Y003112D03*
X009874Y003123D03*
X009862Y003123D03*
X009828Y003135D03*
X009080Y003192D03*
X009920Y003951D03*
X009690Y004066D03*
X008793Y004170D03*
X008781Y004170D03*
X009816Y005251D03*
X009851Y005262D03*
X009862Y005274D03*
X009874Y005274D03*
X009885Y005274D03*
X009908Y005285D03*
X009920Y005285D03*
X009931Y005285D03*
X009943Y005285D03*
X010058Y005285D03*
X010081Y005285D03*
X010092Y005285D03*
X010104Y005285D03*
X010115Y005274D03*
X010138Y005274D03*
X010150Y005262D03*
X010161Y005262D03*
X009080Y005458D03*
D58*
X009103Y005486D03*
X009253Y005475D03*
X009253Y005164D03*
X009241Y005153D03*
X008942Y005164D03*
X008931Y005153D03*
X008793Y005187D03*
X008839Y004911D03*
X008827Y004900D03*
X009230Y004900D03*
X009241Y004888D03*
X010092Y004417D03*
X010104Y004428D03*
X010115Y004440D03*
X010138Y004463D03*
X010150Y004474D03*
X010161Y004486D03*
X009241Y003221D03*
X009253Y003209D03*
X009103Y003221D03*
X009253Y002899D03*
X009241Y002887D03*
X008942Y002899D03*
D59*
X009977Y003934D03*
X009678Y004072D03*
X010150Y004589D03*
D60*
X010138Y004589D03*
X010058Y004417D03*
X009483Y004842D03*
X009483Y003554D03*
D61*
X008804Y003198D03*
X008804Y002910D03*
X010127Y004451D03*
X008804Y005176D03*
D62*
X010127Y004589D03*
D63*
X010012Y005291D03*
X009954Y005291D03*
X009264Y005176D03*
X010069Y003106D03*
D64*
X010069Y004417D03*
D65*
X010046Y005291D03*
X010035Y005291D03*
X010023Y005291D03*
X010000Y005291D03*
X009989Y005291D03*
X009977Y005291D03*
X009966Y005291D03*
X009943Y003106D03*
X009931Y003106D03*
X010058Y003106D03*
X008712Y003048D03*
D66*
X010046Y004417D03*
D67*
X010000Y003928D03*
D68*
X009954Y003940D03*
X009322Y003951D03*
X009207Y004917D03*
X008862Y004929D03*
X008919Y005147D03*
X009149Y005504D03*
D69*
X008954Y005170D03*
X008816Y004883D03*
X008758Y004170D03*
X008793Y003181D03*
X008793Y002928D03*
X009943Y003940D03*
D70*
X009931Y003945D03*
X009253Y004877D03*
X008712Y005314D03*
X008793Y005440D03*
X008770Y004175D03*
X008954Y002910D03*
D71*
X009264Y003198D03*
X008804Y004865D03*
X009897Y005279D03*
D72*
X008724Y004647D03*
X009793Y004014D03*
X009046Y003106D03*
D73*
X009782Y003163D03*
X009782Y005233D03*
D74*
X009322Y005320D03*
X009034Y005343D03*
X009782Y004020D03*
X009322Y003054D03*
D75*
X009310Y003054D03*
X008758Y003054D03*
X009759Y004020D03*
D76*
X009747Y004020D03*
X009299Y003054D03*
X008770Y003054D03*
X009299Y005320D03*
D77*
X009287Y005320D03*
X009517Y004837D03*
X008758Y004699D03*
X009103Y004170D03*
X009115Y004170D03*
X009701Y003974D03*
X009736Y004020D03*
X009517Y003549D03*
X009287Y003054D03*
D78*
X009724Y004009D03*
D79*
X009713Y003991D03*
X009126Y004164D03*
D80*
X009667Y003261D03*
X009667Y005136D03*
D81*
X009667Y004549D03*
X009667Y003848D03*
D82*
X009609Y003554D03*
X009609Y004842D03*
D83*
X009586Y004837D03*
X009586Y003549D03*
D84*
X009563Y003549D03*
D85*
X009563Y004837D03*
D86*
X009552Y004842D03*
X009552Y003554D03*
D87*
X009529Y003554D03*
X008724Y003623D03*
X009529Y004842D03*
D88*
X009494Y004842D03*
X009494Y003554D03*
D89*
X009333Y003629D03*
X009310Y003629D03*
X009299Y003629D03*
X009287Y003629D03*
X009276Y003629D03*
X008793Y003629D03*
X008781Y003629D03*
X008770Y003629D03*
X008758Y003629D03*
X008735Y003629D03*
D90*
X008747Y003629D03*
X009322Y003629D03*
D91*
X009264Y003451D03*
X009207Y003451D03*
X009149Y003451D03*
X009092Y003451D03*
X008977Y003451D03*
X008919Y003451D03*
X008862Y003451D03*
X008804Y003451D03*
X008862Y003221D03*
X009149Y003244D03*
X009207Y003232D03*
X008919Y002887D03*
X008862Y002887D03*
X009264Y003968D03*
X009207Y003991D03*
X009034Y004049D03*
X008977Y004072D03*
X008919Y004095D03*
X008862Y004118D03*
X008919Y004244D03*
X008977Y004267D03*
X009034Y004290D03*
X009207Y004348D03*
X009322Y004382D03*
X009264Y004555D03*
X009207Y004555D03*
X009149Y004555D03*
X009092Y004555D03*
X009034Y004555D03*
X008977Y004555D03*
X008919Y004555D03*
X008862Y004555D03*
X008804Y004555D03*
X008919Y004946D03*
X008977Y004957D03*
X009034Y004957D03*
X009092Y004957D03*
X009149Y004946D03*
X009149Y005118D03*
X009207Y005130D03*
X008862Y005141D03*
X008862Y005486D03*
X009207Y005498D03*
D92*
X009322Y004681D03*
D93*
X009310Y004693D03*
X008781Y005314D03*
X008781Y003060D03*
D94*
X008988Y003612D03*
X009000Y003612D03*
X009011Y003612D03*
X009023Y003612D03*
X009046Y003612D03*
X009057Y003612D03*
X009276Y004716D03*
D95*
X008747Y004170D03*
X009092Y003215D03*
X009264Y002916D03*
X009264Y005458D03*
X009092Y005469D03*
X008804Y005458D03*
D96*
X009149Y002859D03*
D97*
X009149Y004170D03*
D98*
X009046Y005371D03*
D99*
X008747Y005314D03*
X009034Y003083D03*
X008747Y003048D03*
D100*
X009034Y003612D03*
D101*
X009023Y005320D03*
D102*
X009011Y005297D03*
D103*
X008862Y004227D03*
D104*
X008793Y004722D03*
D105*
X008770Y005314D03*
D106*
X008735Y004676D03*
D107*
X011404Y006416D03*
X011564Y006416D03*
X011724Y006416D03*
X011874Y006416D03*
X012034Y006416D03*
X012194Y006416D03*
X012354Y006416D03*
X012504Y006416D03*
X012664Y006416D03*
X012824Y006416D03*
X012984Y006416D03*
X013134Y006416D03*
X013294Y006416D03*
X013454Y006416D03*
X013604Y006416D03*
X013764Y006416D03*
X013924Y006416D03*
X014084Y006416D03*
X014234Y006416D03*
X014394Y006416D03*
X014554Y006416D03*
X014714Y006416D03*
X014864Y006416D03*
X015024Y006416D03*
X015184Y006416D03*
X015184Y011616D03*
X015024Y011616D03*
X014864Y011616D03*
X014714Y011616D03*
X014554Y011616D03*
X014394Y011616D03*
X014234Y011616D03*
X014084Y011616D03*
X013924Y011616D03*
X013764Y011616D03*
X013604Y011616D03*
X013454Y011616D03*
X013294Y011616D03*
X013134Y011616D03*
X012984Y011616D03*
X012824Y011616D03*
X012664Y011616D03*
X012504Y011616D03*
X012354Y011616D03*
X012194Y011616D03*
X012034Y011616D03*
X011874Y011616D03*
X011724Y011616D03*
X011564Y011616D03*
X011404Y011616D03*
D108*
X010694Y010906D03*
X010694Y010746D03*
X010694Y010586D03*
X010694Y010436D03*
X010694Y010276D03*
X010694Y010116D03*
X010694Y009956D03*
X010694Y009806D03*
X010694Y009646D03*
X010694Y009486D03*
X010694Y009326D03*
X010694Y009176D03*
X010694Y009016D03*
X010694Y008856D03*
X010694Y008706D03*
X010694Y008546D03*
X010694Y008386D03*
X010694Y008226D03*
X010694Y008076D03*
X010694Y007916D03*
X010694Y007756D03*
X010694Y007596D03*
X010694Y007446D03*
X010694Y007286D03*
X010694Y007126D03*
X015894Y007126D03*
X015894Y007286D03*
X015894Y007446D03*
X015894Y007596D03*
X015894Y007756D03*
X015894Y007916D03*
X015894Y008076D03*
X015894Y008226D03*
X015894Y008386D03*
X015894Y008546D03*
X015894Y008706D03*
X015894Y008856D03*
X015894Y009016D03*
X015894Y009176D03*
X015894Y009326D03*
X015894Y009486D03*
X015894Y009646D03*
X015894Y009806D03*
X015894Y009956D03*
X015894Y010116D03*
X015894Y010276D03*
X015894Y010436D03*
X015894Y010586D03*
X015894Y010746D03*
X015894Y010906D03*
D109*
X015831Y013037D03*
X015200Y013036D03*
X014528Y013034D03*
X014528Y013743D03*
X015200Y013745D03*
X015831Y013746D03*
X011379Y013743D03*
X011379Y013034D03*
X008414Y012325D03*
X008414Y011617D03*
X009264Y008711D03*
X009871Y008712D03*
X009871Y008004D03*
X009264Y008003D03*
X011484Y005287D03*
X012105Y005292D03*
X012739Y005294D03*
X013376Y005303D03*
X014091Y005319D03*
X014091Y004610D03*
X013376Y004594D03*
X012739Y004585D03*
X012105Y004583D03*
X011484Y004578D03*
X017016Y006054D03*
X017670Y006067D03*
X017670Y006776D03*
X017016Y006762D03*
X005556Y004518D03*
X005556Y003810D03*
X002445Y003810D03*
X002445Y004518D03*
D110*
X002524Y003258D03*
X003233Y003258D03*
X016694Y007772D03*
X017403Y007772D03*
X017398Y009026D03*
X016689Y009026D03*
X016704Y010103D03*
X017413Y010103D03*
D111*
X015788Y001052D03*
X014788Y001152D03*
X013788Y001052D03*
X012788Y001152D03*
X011788Y001052D03*
X010788Y001152D03*
D112*
X012166Y012916D03*
X012166Y013861D03*
X013741Y013861D03*
X013741Y012916D03*
D113*
X004841Y004505D03*
X004841Y004255D03*
X004841Y003995D03*
X004841Y003745D03*
X003121Y003745D03*
X003121Y003995D03*
X003121Y004255D03*
X003121Y004505D03*
D114*
X002508Y007640D03*
X002508Y008428D03*
X002508Y009215D03*
X002508Y010003D03*
X002508Y010790D03*
X002508Y011577D03*
X002508Y012365D03*
X007312Y012365D03*
X007312Y011577D03*
X007312Y010790D03*
X007312Y010003D03*
X007312Y009215D03*
X007312Y008428D03*
X007312Y007640D03*
D115*
X001197Y014070D02*
X001197Y000620D01*
X011471Y000620D01*
X011339Y000752D01*
X011267Y000924D01*
X011237Y000852D01*
X011088Y000703D01*
X010893Y000622D01*
X010683Y000622D01*
X010488Y000703D01*
X010339Y000852D01*
X010258Y001047D01*
X010258Y001258D01*
X010339Y001452D01*
X010488Y001601D01*
X010568Y001635D01*
X010568Y001983D01*
X010697Y002112D01*
X011885Y003300D01*
X011885Y004266D01*
X011802Y004266D01*
X011709Y004359D01*
X011709Y004807D01*
X011802Y004901D01*
X012407Y004901D01*
X012421Y004887D01*
X012436Y004903D01*
X013041Y004903D01*
X013053Y004891D01*
X013073Y004912D01*
X013678Y004912D01*
X013772Y004818D01*
X013772Y004371D01*
X013678Y004277D01*
X013073Y004277D01*
X013062Y004288D01*
X013041Y004268D01*
X012436Y004268D01*
X012423Y004281D01*
X012407Y004266D01*
X012325Y004266D01*
X012325Y003118D01*
X011008Y001801D01*
X011008Y001635D01*
X011088Y001601D01*
X011237Y001452D01*
X011309Y001280D01*
X011339Y001352D01*
X011488Y001501D01*
X011683Y001582D01*
X011893Y001582D01*
X012088Y001501D01*
X012237Y001352D01*
X012318Y001158D01*
X012318Y000947D01*
X012237Y000752D01*
X012105Y000620D01*
X013471Y000620D01*
X013339Y000752D01*
X013258Y000947D01*
X013258Y001158D01*
X013339Y001352D01*
X013488Y001501D01*
X013683Y001582D01*
X013893Y001582D01*
X014088Y001501D01*
X014237Y001352D01*
X014267Y001280D01*
X014339Y001452D01*
X014488Y001601D01*
X014683Y001682D01*
X014824Y001682D01*
X014824Y005966D01*
X013964Y005966D01*
X013964Y005728D01*
X014056Y005636D01*
X014393Y005636D01*
X014487Y005543D01*
X014487Y005095D01*
X014393Y005001D01*
X013788Y005001D01*
X013741Y005048D01*
X013678Y004986D01*
X013073Y004986D01*
X012979Y005079D01*
X012979Y005527D01*
X013073Y005620D01*
X013094Y005620D01*
X013094Y005966D01*
X011764Y005966D01*
X011764Y005604D01*
X011786Y005604D01*
X011792Y005599D01*
X011802Y005609D01*
X012407Y005609D01*
X012501Y005516D01*
X012501Y005068D01*
X012407Y004974D01*
X011802Y004974D01*
X011797Y004980D01*
X011786Y004969D01*
X011181Y004969D01*
X011087Y005063D01*
X011087Y005511D01*
X011181Y005604D01*
X011364Y005604D01*
X011364Y005966D01*
X011293Y005966D01*
X011199Y006060D01*
X011199Y006773D01*
X011293Y006866D01*
X012283Y006866D01*
X012171Y006979D01*
X012171Y007184D01*
X012116Y007238D01*
X012071Y007348D01*
X012071Y007468D01*
X012116Y007578D01*
X012201Y007662D01*
X012311Y007708D01*
X012430Y007708D01*
X012541Y007662D01*
X012625Y007578D01*
X012671Y007468D01*
X012671Y007464D01*
X012754Y007464D01*
X012793Y007558D01*
X012878Y007643D01*
X012988Y007688D01*
X013107Y007688D01*
X013180Y007658D01*
X013211Y007732D01*
X013295Y007816D01*
X013405Y007862D01*
X013525Y007862D01*
X013635Y007816D01*
X013719Y007732D01*
X013765Y007621D01*
X013765Y007502D01*
X013719Y007392D01*
X013665Y007337D01*
X013665Y007215D01*
X013330Y006880D01*
X013330Y006866D01*
X013565Y006866D01*
X013609Y006823D01*
X013653Y006866D01*
X015295Y006866D01*
X015389Y006773D01*
X015389Y006060D01*
X015384Y006055D01*
X015384Y005965D01*
X015416Y005932D01*
X015493Y005932D01*
X015604Y005887D01*
X015688Y005802D01*
X015734Y005692D01*
X015734Y005573D01*
X015688Y005463D01*
X015604Y005378D01*
X015493Y005332D01*
X015374Y005332D01*
X015264Y005378D01*
X015224Y005418D01*
X015224Y001466D01*
X015237Y001452D01*
X015309Y001280D01*
X015339Y001352D01*
X015488Y001501D01*
X015683Y001582D01*
X015893Y001582D01*
X016088Y001501D01*
X016182Y001407D01*
X016182Y001485D01*
X016257Y001762D01*
X016400Y002010D01*
X016603Y002213D01*
X016852Y002357D01*
X017129Y002431D01*
X017416Y002431D01*
X017693Y002357D01*
X017941Y002213D01*
X017993Y002161D01*
X017993Y005771D01*
X017972Y005750D01*
X017367Y005750D01*
X017350Y005767D01*
X017319Y005736D01*
X016714Y005736D01*
X016620Y005830D01*
X016620Y006277D01*
X016714Y006371D01*
X017319Y006371D01*
X017336Y006354D01*
X017367Y006385D01*
X017972Y006385D01*
X017993Y006364D01*
X017993Y014070D01*
X017663Y014070D01*
X017663Y013959D01*
X017617Y013848D01*
X017533Y013764D01*
X017422Y013718D01*
X017303Y013718D01*
X017193Y013764D01*
X017108Y013848D01*
X017063Y013959D01*
X017063Y014070D01*
X014255Y014070D01*
X014255Y014061D01*
X014493Y014061D01*
X014493Y014060D01*
X014831Y014060D01*
X014924Y013966D01*
X014924Y013519D01*
X014831Y013425D01*
X014226Y013425D01*
X014174Y013477D01*
X014161Y013465D01*
X013627Y013465D01*
X013342Y013180D01*
X013342Y012629D01*
X013394Y012577D01*
X013423Y012605D01*
X013540Y012722D01*
X014603Y012722D01*
X014803Y012923D01*
X014803Y013260D01*
X014897Y013354D01*
X015502Y013354D01*
X015515Y013341D01*
X015529Y013354D01*
X016134Y013354D01*
X016227Y013261D01*
X016227Y013257D01*
X016396Y013257D01*
X016439Y013361D01*
X016524Y013446D01*
X016634Y013491D01*
X016753Y013491D01*
X016863Y013446D01*
X016948Y013361D01*
X016993Y013251D01*
X016993Y013132D01*
X016948Y013022D01*
X016863Y012937D01*
X016753Y012891D01*
X016705Y012891D01*
X016630Y012817D01*
X016523Y012817D01*
X016636Y012703D01*
X016727Y012484D01*
X017993Y012484D01*
X017993Y012366D02*
X016727Y012366D01*
X016727Y012484D02*
X016727Y012246D01*
X016636Y012026D01*
X016468Y011858D01*
X016248Y011767D01*
X016011Y011767D01*
X015791Y011858D01*
X015623Y012026D01*
X015532Y012246D01*
X015532Y012484D01*
X015324Y012484D01*
X015398Y012558D02*
X015563Y012558D01*
X015532Y012484D01*
X015532Y012366D02*
X015205Y012366D01*
X015087Y012247D02*
X015532Y012247D01*
X015580Y012129D02*
X014968Y012129D01*
X014906Y012066D02*
X015398Y012558D01*
X015200Y013036D02*
X015200Y013037D01*
X015831Y013037D01*
X016539Y013037D01*
X016693Y013191D01*
X016419Y013314D02*
X016174Y013314D01*
X016510Y013432D02*
X014837Y013432D01*
X014857Y013314D02*
X013476Y013314D01*
X013595Y013432D02*
X014219Y013432D01*
X014803Y013195D02*
X013358Y013195D01*
X013342Y013077D02*
X014803Y013077D01*
X014803Y012958D02*
X013342Y012958D01*
X013342Y012840D02*
X014720Y012840D01*
X014924Y013551D02*
X017993Y013551D01*
X017993Y013669D02*
X014924Y013669D01*
X014924Y013788D02*
X017169Y013788D01*
X017085Y013906D02*
X014924Y013906D01*
X014866Y014025D02*
X017063Y014025D01*
X017556Y013788D02*
X017993Y013788D01*
X017993Y013906D02*
X017641Y013906D01*
X017663Y014025D02*
X017993Y014025D01*
X017993Y013432D02*
X016877Y013432D01*
X016968Y013314D02*
X017993Y013314D01*
X017993Y013195D02*
X016993Y013195D01*
X016971Y013077D02*
X017993Y013077D01*
X017993Y012958D02*
X016884Y012958D01*
X016653Y012840D02*
X017993Y012840D01*
X017993Y012721D02*
X016619Y012721D01*
X016678Y012603D02*
X017993Y012603D01*
X017993Y012247D02*
X016727Y012247D01*
X016679Y012129D02*
X017993Y012129D01*
X017993Y012010D02*
X016620Y012010D01*
X016502Y011892D02*
X017993Y011892D01*
X017993Y011773D02*
X016263Y011773D01*
X015996Y011773D02*
X015389Y011773D01*
X015389Y011655D02*
X017993Y011655D01*
X017993Y011536D02*
X015389Y011536D01*
X015389Y011418D02*
X017993Y011418D01*
X017993Y011299D02*
X017101Y011299D01*
X017122Y011278D02*
X017005Y011395D01*
X016100Y011395D01*
X015816Y011111D01*
X015538Y011111D01*
X015444Y011018D01*
X015444Y010350D01*
X015436Y010369D01*
X015382Y010424D01*
X015382Y010739D01*
X015224Y010896D01*
X015224Y011166D01*
X015295Y011166D01*
X015389Y011260D01*
X015389Y011973D01*
X015295Y012066D01*
X014906Y012066D01*
X015351Y012010D02*
X015639Y012010D01*
X015757Y011892D02*
X015389Y011892D01*
X015389Y011299D02*
X016004Y011299D01*
X015885Y011181D02*
X015309Y011181D01*
X015224Y011062D02*
X015488Y011062D01*
X015444Y010944D02*
X015224Y010944D01*
X015296Y010825D02*
X015444Y010825D01*
X015444Y010707D02*
X015382Y010707D01*
X015382Y010588D02*
X015444Y010588D01*
X015444Y010470D02*
X015382Y010470D01*
X015444Y010351D02*
X015444Y010351D01*
X015444Y010048D02*
X015444Y008745D01*
X015488Y008701D01*
X015444Y008658D01*
X015444Y007965D01*
X015493Y007916D01*
X015444Y007868D01*
X015444Y007015D01*
X015538Y006921D01*
X016250Y006921D01*
X016255Y006926D01*
X016570Y006926D01*
X016620Y006876D01*
X016620Y006539D01*
X016714Y006445D01*
X017319Y006445D01*
X017413Y006539D01*
X017413Y006986D01*
X017319Y007080D01*
X016982Y007080D01*
X016735Y007326D01*
X016344Y007326D01*
X016344Y007556D01*
X016376Y007556D01*
X016376Y007470D01*
X016470Y007376D01*
X016918Y007376D01*
X017011Y007470D01*
X017011Y008075D01*
X016918Y008168D01*
X016470Y008168D01*
X016376Y008075D01*
X016376Y007956D01*
X016335Y007956D01*
X016344Y007965D01*
X016344Y008656D01*
X016438Y008656D01*
X016465Y008630D01*
X016913Y008630D01*
X017006Y008723D01*
X017006Y009328D01*
X016913Y009422D01*
X016465Y009422D01*
X016371Y009328D01*
X016371Y009056D01*
X016344Y009056D01*
X016344Y010068D01*
X016335Y010076D01*
X016386Y010076D01*
X016386Y009800D01*
X016480Y009706D01*
X016928Y009706D01*
X017021Y009800D01*
X017021Y010405D01*
X016928Y010499D01*
X016480Y010499D01*
X016458Y010476D01*
X016344Y010476D01*
X016344Y010546D01*
X016563Y010546D01*
X016570Y010553D01*
X016647Y010553D01*
X016757Y010599D01*
X016806Y010647D01*
X016854Y010599D01*
X016964Y010553D01*
X017084Y010553D01*
X017194Y010599D01*
X017279Y010683D01*
X017324Y010793D01*
X017324Y010913D01*
X017279Y011023D01*
X017224Y011077D01*
X017224Y011176D01*
X017122Y011278D01*
X017220Y011181D02*
X017993Y011181D01*
X017993Y011062D02*
X017239Y011062D01*
X017311Y010944D02*
X017993Y010944D01*
X017993Y010825D02*
X017324Y010825D01*
X017288Y010707D02*
X017993Y010707D01*
X017993Y010588D02*
X017169Y010588D01*
X016957Y010470D02*
X017993Y010470D01*
X017993Y010351D02*
X017021Y010351D01*
X017021Y010233D02*
X017993Y010233D01*
X017993Y010114D02*
X017021Y010114D01*
X017021Y009996D02*
X017993Y009996D01*
X017993Y009877D02*
X017021Y009877D01*
X016980Y009759D02*
X017993Y009759D01*
X017993Y009640D02*
X016344Y009640D01*
X016344Y009522D02*
X017993Y009522D01*
X017993Y009403D02*
X016932Y009403D01*
X017006Y009285D02*
X017993Y009285D01*
X017993Y009166D02*
X017006Y009166D01*
X017006Y009048D02*
X017993Y009048D01*
X017993Y008929D02*
X017006Y008929D01*
X017006Y008811D02*
X017993Y008811D01*
X017993Y008692D02*
X016975Y008692D01*
X016344Y008574D02*
X017993Y008574D01*
X017993Y008455D02*
X016344Y008455D01*
X016344Y008337D02*
X017993Y008337D01*
X017993Y008218D02*
X016344Y008218D01*
X016344Y008100D02*
X016401Y008100D01*
X016376Y007981D02*
X016344Y007981D01*
X016344Y007507D02*
X016376Y007507D01*
X016344Y007389D02*
X016457Y007389D01*
X016791Y007270D02*
X017993Y007270D01*
X017993Y007152D02*
X016910Y007152D01*
X016930Y007389D02*
X017993Y007389D01*
X017993Y007507D02*
X017011Y007507D01*
X017011Y007626D02*
X017993Y007626D01*
X017993Y007744D02*
X017011Y007744D01*
X017011Y007863D02*
X017993Y007863D01*
X017993Y007981D02*
X017011Y007981D01*
X016986Y008100D02*
X017993Y008100D01*
X017993Y007033D02*
X017366Y007033D01*
X017413Y006915D02*
X017993Y006915D01*
X017993Y006796D02*
X017413Y006796D01*
X017413Y006678D02*
X017993Y006678D01*
X017993Y006559D02*
X017413Y006559D01*
X017993Y006441D02*
X015389Y006441D01*
X015389Y006559D02*
X016620Y006559D01*
X016620Y006678D02*
X015389Y006678D01*
X015365Y006796D02*
X016620Y006796D01*
X016581Y006915D02*
X013365Y006915D01*
X013483Y007033D02*
X015444Y007033D01*
X015444Y007152D02*
X013602Y007152D01*
X013665Y007270D02*
X015444Y007270D01*
X015444Y007389D02*
X013716Y007389D01*
X013765Y007507D02*
X015444Y007507D01*
X015444Y007626D02*
X013763Y007626D01*
X013707Y007744D02*
X015444Y007744D01*
X015444Y007863D02*
X011144Y007863D01*
X011144Y007981D02*
X015444Y007981D01*
X015444Y008100D02*
X011144Y008100D01*
X011144Y008218D02*
X015444Y008218D01*
X015444Y008337D02*
X011144Y008337D01*
X011144Y008455D02*
X015444Y008455D01*
X015444Y008574D02*
X011144Y008574D01*
X011144Y008692D02*
X015478Y008692D01*
X015444Y008811D02*
X011144Y008811D01*
X011144Y008929D02*
X012992Y008929D01*
X013035Y008911D02*
X012925Y008957D01*
X012841Y009041D01*
X012795Y009152D01*
X012795Y009228D01*
X012241Y009782D01*
X012241Y009975D01*
X012187Y010029D01*
X012141Y010140D01*
X012141Y010259D01*
X012187Y010369D01*
X012272Y010454D01*
X012360Y010490D01*
X012074Y010776D01*
X012074Y010344D01*
X011946Y010217D01*
X011946Y010140D01*
X011901Y010029D01*
X011816Y009945D01*
X011706Y009899D01*
X011587Y009899D01*
X011476Y009945D01*
X011392Y010029D01*
X011346Y010140D01*
X011346Y010259D01*
X011392Y010369D01*
X011476Y010454D01*
X011587Y010499D01*
X011663Y010499D01*
X011674Y010510D01*
X011674Y011166D01*
X011453Y011166D01*
X011359Y011260D01*
X011359Y011728D01*
X011202Y011728D01*
X010967Y011825D01*
X010788Y012004D01*
X010691Y012238D01*
X010691Y012491D01*
X010788Y012726D01*
X010967Y012905D01*
X010982Y012911D01*
X010982Y013258D01*
X011076Y013351D01*
X011681Y013351D01*
X011733Y013300D01*
X011745Y013312D01*
X012587Y013312D01*
X012680Y013218D01*
X012680Y012921D01*
X012760Y012841D01*
X012942Y012659D01*
X012942Y013345D01*
X013226Y013629D01*
X013226Y014070D01*
X007432Y014070D01*
X007432Y012722D01*
X007772Y012722D01*
X007865Y012628D01*
X007865Y012102D01*
X007772Y012008D01*
X006852Y012008D01*
X006758Y012102D01*
X006758Y012598D01*
X003062Y012598D01*
X003062Y012575D01*
X005942Y012575D01*
X006729Y011787D01*
X006758Y011787D01*
X006758Y011840D01*
X006852Y011934D01*
X007772Y011934D01*
X007808Y011897D01*
X008075Y011897D01*
X008111Y011934D01*
X008716Y011934D01*
X008810Y011840D01*
X008810Y011393D01*
X008716Y011299D01*
X008642Y011299D01*
X011359Y011299D01*
X011359Y011418D02*
X008810Y011418D01*
X008810Y011536D02*
X011359Y011536D01*
X011359Y011655D02*
X008810Y011655D01*
X008810Y011773D02*
X011092Y011773D01*
X010900Y011892D02*
X008759Y011892D01*
X008642Y011299D02*
X008620Y011277D01*
X008526Y011277D01*
X008478Y011257D01*
X007808Y011257D01*
X007772Y011220D01*
X006852Y011220D01*
X006758Y011314D01*
X006758Y011367D01*
X006555Y011367D01*
X006432Y011490D01*
X005768Y012155D01*
X003062Y012155D01*
X003062Y012102D01*
X002968Y012008D01*
X002048Y012008D01*
X001955Y012102D01*
X001955Y012628D01*
X002048Y012722D01*
X002388Y012722D01*
X002388Y014070D01*
X001197Y014070D01*
X001197Y014025D02*
X002388Y014025D01*
X002388Y013906D02*
X001197Y013906D01*
X001197Y013788D02*
X002388Y013788D01*
X002388Y013669D02*
X001197Y013669D01*
X001197Y013551D02*
X002388Y013551D01*
X002388Y013432D02*
X001197Y013432D01*
X001197Y013314D02*
X002388Y013314D01*
X002388Y013195D02*
X001197Y013195D01*
X001197Y013077D02*
X002388Y013077D01*
X002388Y012958D02*
X001197Y012958D01*
X001197Y012840D02*
X002388Y012840D01*
X002048Y012721D02*
X001197Y012721D01*
X001197Y012603D02*
X001955Y012603D01*
X001955Y012484D02*
X001197Y012484D01*
X001197Y012366D02*
X001955Y012366D01*
X001955Y012247D02*
X001197Y012247D01*
X001197Y012129D02*
X001955Y012129D01*
X002046Y012010D02*
X001197Y012010D01*
X001197Y011892D02*
X002006Y011892D01*
X002048Y011934D02*
X001955Y011840D01*
X001955Y011314D01*
X002048Y011220D01*
X002968Y011220D01*
X003062Y011314D01*
X003062Y011840D01*
X002968Y011934D01*
X002048Y011934D01*
X001955Y011773D02*
X001197Y011773D01*
X001197Y011655D02*
X001955Y011655D01*
X001955Y011536D02*
X001197Y011536D01*
X001197Y011418D02*
X001955Y011418D01*
X001970Y011299D02*
X001197Y011299D01*
X001197Y011181D02*
X011438Y011181D01*
X011674Y011062D02*
X011099Y011062D01*
X011144Y011018D02*
X011050Y011111D01*
X010338Y011111D01*
X010244Y011018D01*
X010244Y009686D01*
X009401Y009686D01*
X009284Y009569D01*
X009181Y009466D01*
X009064Y009349D01*
X009064Y009029D01*
X008962Y009029D01*
X008868Y008935D01*
X008868Y008487D01*
X008962Y008394D01*
X009567Y008394D01*
X009568Y008395D01*
X009568Y008395D01*
X010173Y008395D01*
X010244Y008465D01*
X010244Y007015D01*
X010338Y006921D01*
X011050Y006921D01*
X011144Y007015D01*
X011144Y011018D01*
X011144Y010944D02*
X011674Y010944D01*
X011674Y010825D02*
X011144Y010825D01*
X011144Y010707D02*
X011674Y010707D01*
X011674Y010588D02*
X011144Y010588D01*
X011144Y010470D02*
X011514Y010470D01*
X011384Y010351D02*
X011144Y010351D01*
X011144Y010233D02*
X011346Y010233D01*
X011357Y010114D02*
X011144Y010114D01*
X011144Y009996D02*
X011426Y009996D01*
X011144Y009877D02*
X012241Y009877D01*
X012221Y009996D02*
X011867Y009996D01*
X011936Y010114D02*
X012152Y010114D01*
X012141Y010233D02*
X011962Y010233D01*
X012074Y010351D02*
X012180Y010351D01*
X012074Y010470D02*
X012310Y010470D01*
X012262Y010588D02*
X012074Y010588D01*
X012074Y010707D02*
X012144Y010707D01*
X012394Y011022D02*
X012394Y011166D01*
X012935Y011166D01*
X012979Y011210D01*
X013023Y011166D01*
X013724Y011166D01*
X013724Y010650D01*
X013573Y010499D01*
X013496Y010499D01*
X013386Y010454D01*
X013301Y010369D01*
X013256Y010259D01*
X013256Y010140D01*
X013301Y010029D01*
X013386Y009945D01*
X013496Y009899D01*
X013615Y009899D01*
X013726Y009945D01*
X013810Y010029D01*
X013821Y010057D01*
X013833Y010029D01*
X013917Y009945D01*
X014027Y009899D01*
X014147Y009899D01*
X014257Y009945D01*
X014341Y010029D01*
X014355Y010062D01*
X014368Y010029D01*
X014453Y009945D01*
X014563Y009899D01*
X014682Y009899D01*
X014793Y009945D01*
X014877Y010029D01*
X014902Y010090D01*
X014927Y010029D01*
X015012Y009945D01*
X015122Y009899D01*
X015241Y009899D01*
X015352Y009945D01*
X015436Y010029D01*
X015444Y010048D01*
X015444Y009996D02*
X015402Y009996D01*
X015444Y009877D02*
X012712Y009877D01*
X012764Y009945D02*
X012874Y009899D01*
X012993Y009899D01*
X013104Y009945D01*
X013188Y010029D01*
X013234Y010140D01*
X013234Y010259D01*
X013188Y010369D01*
X013104Y010454D01*
X012993Y010499D01*
X012916Y010499D01*
X012394Y011022D01*
X012394Y011062D02*
X013724Y011062D01*
X013724Y010944D02*
X012472Y010944D01*
X012591Y010825D02*
X013724Y010825D01*
X013724Y010707D02*
X012709Y010707D01*
X012828Y010588D02*
X013661Y010588D01*
X013424Y010470D02*
X013065Y010470D01*
X013196Y010351D02*
X013294Y010351D01*
X013256Y010233D02*
X013234Y010233D01*
X013223Y010114D02*
X013266Y010114D01*
X013335Y009996D02*
X013154Y009996D01*
X012764Y009945D02*
X012688Y010021D01*
X012641Y009975D01*
X012641Y009948D01*
X013078Y009511D01*
X013155Y009511D01*
X013265Y009466D01*
X013349Y009381D01*
X013395Y009271D01*
X013395Y009152D01*
X013349Y009041D01*
X013265Y008957D01*
X013155Y008911D01*
X013035Y008911D01*
X013198Y008929D02*
X015444Y008929D01*
X015444Y009048D02*
X013352Y009048D01*
X013395Y009166D02*
X015444Y009166D01*
X015444Y009285D02*
X013389Y009285D01*
X013327Y009403D02*
X015444Y009403D01*
X015444Y009522D02*
X013068Y009522D01*
X012949Y009640D02*
X015444Y009640D01*
X015444Y009759D02*
X012831Y009759D01*
X012713Y009996D02*
X012662Y009996D01*
X012265Y009759D02*
X011144Y009759D01*
X011144Y009640D02*
X012383Y009640D01*
X012502Y009522D02*
X011144Y009522D01*
X011144Y009403D02*
X012620Y009403D01*
X012739Y009285D02*
X011144Y009285D01*
X011144Y009166D02*
X012795Y009166D01*
X012838Y009048D02*
X011144Y009048D01*
X010244Y008455D02*
X010233Y008455D01*
X010244Y008337D02*
X007865Y008337D01*
X007865Y008455D02*
X008901Y008455D01*
X008868Y008574D02*
X007865Y008574D01*
X007865Y008691D02*
X007772Y008785D01*
X006852Y008785D01*
X006758Y008691D01*
X006758Y008165D01*
X006852Y008071D01*
X007772Y008071D01*
X007865Y008165D01*
X007865Y008691D01*
X007864Y008692D02*
X008868Y008692D01*
X008868Y008811D02*
X001197Y008811D01*
X001197Y008929D02*
X006781Y008929D01*
X006758Y008952D02*
X006852Y008858D01*
X007772Y008858D01*
X007865Y008952D01*
X007865Y009005D01*
X008501Y009005D01*
X008624Y009128D01*
X009001Y009506D01*
X009211Y009506D01*
X009304Y009599D01*
X009304Y010012D01*
X009211Y010106D01*
X008814Y010106D01*
X009001Y010293D01*
X009211Y010293D01*
X009304Y010387D01*
X009304Y010799D01*
X009211Y010893D01*
X008798Y010893D01*
X008704Y010799D01*
X008704Y010590D01*
X008327Y010213D01*
X007865Y010213D01*
X007865Y010266D01*
X007772Y010359D01*
X006852Y010359D01*
X006758Y010266D01*
X006758Y009739D01*
X006852Y009646D01*
X007772Y009646D01*
X007865Y009739D01*
X007865Y009793D01*
X008501Y009793D01*
X008704Y009996D01*
X008704Y009996D01*
X008704Y009803D01*
X008327Y009425D01*
X007865Y009425D01*
X007865Y009478D01*
X007772Y009572D01*
X006852Y009572D01*
X006758Y009478D01*
X006758Y008952D01*
X006758Y009048D02*
X001197Y009048D01*
X001197Y009166D02*
X006758Y009166D01*
X006758Y009285D02*
X001197Y009285D01*
X001197Y009403D02*
X006758Y009403D01*
X006801Y009522D02*
X001197Y009522D01*
X001197Y009640D02*
X008542Y009640D01*
X008660Y009759D02*
X007865Y009759D01*
X007822Y009522D02*
X008423Y009522D01*
X008662Y009166D02*
X009064Y009166D01*
X009064Y009048D02*
X008543Y009048D01*
X008780Y009285D02*
X009064Y009285D01*
X009118Y009403D02*
X008899Y009403D01*
X009181Y009466D02*
X009181Y009466D01*
X009227Y009522D02*
X009237Y009522D01*
X009284Y009569D02*
X009284Y009569D01*
X009304Y009640D02*
X009355Y009640D01*
X009304Y009759D02*
X010244Y009759D01*
X010244Y009877D02*
X009304Y009877D01*
X009304Y009996D02*
X010244Y009996D01*
X010244Y010114D02*
X008822Y010114D01*
X008941Y010233D02*
X010244Y010233D01*
X010244Y010351D02*
X009269Y010351D01*
X009304Y010470D02*
X010244Y010470D01*
X010244Y010588D02*
X009304Y010588D01*
X009304Y010707D02*
X010244Y010707D01*
X010244Y010825D02*
X009279Y010825D01*
X008730Y010825D02*
X007865Y010825D01*
X007865Y010707D02*
X008704Y010707D01*
X008702Y010588D02*
X007865Y010588D01*
X007865Y010527D02*
X007865Y011053D01*
X007772Y011147D01*
X006852Y011147D01*
X006758Y011053D01*
X006758Y010527D01*
X006852Y010433D01*
X007772Y010433D01*
X007865Y010527D01*
X007808Y010470D02*
X008584Y010470D01*
X008465Y010351D02*
X007780Y010351D01*
X007865Y010233D02*
X008347Y010233D01*
X008585Y009877D02*
X008704Y009877D01*
X008868Y008929D02*
X007842Y008929D01*
X007865Y008218D02*
X010244Y008218D01*
X010244Y008100D02*
X007800Y008100D01*
X006823Y008100D02*
X002997Y008100D01*
X002968Y008071D02*
X003062Y008165D01*
X003062Y008691D01*
X002968Y008785D01*
X002048Y008785D01*
X001955Y008691D01*
X001955Y008165D01*
X002048Y008071D01*
X002968Y008071D01*
X002968Y007997D02*
X003062Y007903D01*
X003062Y007850D01*
X003343Y007850D01*
X004578Y006615D01*
X005098Y006615D01*
X005192Y006522D01*
X005192Y005798D01*
X005098Y005705D01*
X004375Y005705D01*
X004281Y005798D01*
X004281Y006318D01*
X003169Y007430D01*
X003062Y007430D01*
X003062Y007377D01*
X002968Y007283D01*
X002048Y007283D01*
X001955Y007377D01*
X001955Y007903D01*
X002048Y007997D01*
X002968Y007997D01*
X002985Y007981D02*
X010244Y007981D01*
X010244Y007863D02*
X003062Y007863D01*
X003450Y007744D02*
X010244Y007744D01*
X010244Y007626D02*
X003568Y007626D01*
X003687Y007507D02*
X010244Y007507D01*
X010244Y007389D02*
X003805Y007389D01*
X003924Y007270D02*
X010244Y007270D01*
X010244Y007152D02*
X004042Y007152D01*
X004161Y007033D02*
X010244Y007033D01*
X011144Y007033D02*
X012171Y007033D01*
X012171Y007152D02*
X011144Y007152D01*
X011144Y007270D02*
X012103Y007270D01*
X012071Y007389D02*
X011144Y007389D01*
X011144Y007507D02*
X012087Y007507D01*
X012164Y007626D02*
X011144Y007626D01*
X011144Y007744D02*
X013223Y007744D01*
X012861Y007626D02*
X012577Y007626D01*
X012654Y007507D02*
X012772Y007507D01*
X012235Y006915D02*
X004279Y006915D01*
X004398Y006796D02*
X011222Y006796D01*
X011199Y006678D02*
X004516Y006678D01*
X004278Y006322D02*
X001197Y006322D01*
X001197Y006204D02*
X004281Y006204D01*
X004281Y006085D02*
X001197Y006085D01*
X001197Y005967D02*
X004281Y005967D01*
X004281Y005848D02*
X001197Y005848D01*
X001197Y005730D02*
X004350Y005730D01*
X005123Y005730D02*
X011364Y005730D01*
X011364Y005848D02*
X005192Y005848D01*
X005192Y005967D02*
X011292Y005967D01*
X011199Y006085D02*
X005192Y006085D01*
X005192Y006204D02*
X011199Y006204D01*
X011199Y006322D02*
X005192Y006322D01*
X005192Y006441D02*
X011199Y006441D01*
X011199Y006559D02*
X005155Y006559D01*
X004159Y006441D02*
X001197Y006441D01*
X001197Y006559D02*
X004041Y006559D01*
X003922Y006678D02*
X001197Y006678D01*
X001197Y006796D02*
X003804Y006796D01*
X003685Y006915D02*
X001197Y006915D01*
X001197Y007033D02*
X003567Y007033D01*
X003448Y007152D02*
X001197Y007152D01*
X001197Y007270D02*
X003330Y007270D01*
X003211Y007389D02*
X003062Y007389D01*
X001955Y007389D02*
X001197Y007389D01*
X001197Y007507D02*
X001955Y007507D01*
X001955Y007626D02*
X001197Y007626D01*
X001197Y007744D02*
X001955Y007744D01*
X001955Y007863D02*
X001197Y007863D01*
X001197Y007981D02*
X002032Y007981D01*
X002020Y008100D02*
X001197Y008100D01*
X001197Y008218D02*
X001955Y008218D01*
X001955Y008337D02*
X001197Y008337D01*
X001197Y008455D02*
X001955Y008455D01*
X001955Y008574D02*
X001197Y008574D01*
X001197Y008692D02*
X001956Y008692D01*
X003061Y008692D02*
X006759Y008692D01*
X006758Y008574D02*
X003062Y008574D01*
X003062Y008455D02*
X006758Y008455D01*
X006758Y008337D02*
X003062Y008337D01*
X003062Y008218D02*
X006758Y008218D01*
X006758Y009759D02*
X003062Y009759D01*
X003062Y009739D02*
X003062Y010266D01*
X002968Y010359D01*
X002048Y010359D01*
X001955Y010266D01*
X001955Y009739D01*
X002048Y009646D01*
X002968Y009646D01*
X003062Y009739D01*
X003062Y009877D02*
X006758Y009877D01*
X006758Y009996D02*
X003062Y009996D01*
X003062Y010114D02*
X006758Y010114D01*
X006758Y010233D02*
X003062Y010233D01*
X002977Y010351D02*
X006843Y010351D01*
X006815Y010470D02*
X003005Y010470D01*
X002968Y010433D02*
X003062Y010527D01*
X003062Y011053D01*
X002968Y011147D01*
X002048Y011147D01*
X001955Y011053D01*
X001955Y010527D01*
X002048Y010433D01*
X002968Y010433D01*
X003062Y010588D02*
X006758Y010588D01*
X006758Y010707D02*
X003062Y010707D01*
X003062Y010825D02*
X006758Y010825D01*
X006758Y010944D02*
X003062Y010944D01*
X003053Y011062D02*
X006767Y011062D01*
X006773Y011299D02*
X003047Y011299D01*
X003062Y011418D02*
X006505Y011418D01*
X006387Y011536D02*
X003062Y011536D01*
X003062Y011655D02*
X006268Y011655D01*
X006150Y011773D02*
X003062Y011773D01*
X003011Y011892D02*
X006031Y011892D01*
X005913Y012010D02*
X002971Y012010D01*
X003062Y012129D02*
X005794Y012129D01*
X006033Y012484D02*
X006758Y012484D01*
X006758Y012366D02*
X006151Y012366D01*
X006270Y012247D02*
X006758Y012247D01*
X006758Y012129D02*
X006388Y012129D01*
X006507Y012010D02*
X006849Y012010D01*
X006809Y011892D02*
X006625Y011892D01*
X007774Y012010D02*
X010786Y012010D01*
X010736Y012129D02*
X007865Y012129D01*
X007865Y012247D02*
X010691Y012247D01*
X010691Y012366D02*
X007865Y012366D01*
X007865Y012484D02*
X010691Y012484D01*
X010737Y012603D02*
X007865Y012603D01*
X007772Y012721D02*
X010786Y012721D01*
X010902Y012840D02*
X007432Y012840D01*
X007432Y012958D02*
X010982Y012958D01*
X010982Y013077D02*
X007432Y013077D01*
X007432Y013195D02*
X010982Y013195D01*
X011038Y013314D02*
X007432Y013314D01*
X007432Y013432D02*
X013029Y013432D01*
X012942Y013314D02*
X011719Y013314D01*
X012680Y013195D02*
X012942Y013195D01*
X012942Y013077D02*
X012680Y013077D01*
X012680Y012958D02*
X012942Y012958D01*
X012942Y012840D02*
X012761Y012840D01*
X012880Y012721D02*
X012942Y012721D01*
X013342Y012721D02*
X013539Y012721D01*
X013420Y012603D02*
X013368Y012603D01*
X013148Y013551D02*
X007432Y013551D01*
X007432Y013669D02*
X013226Y013669D01*
X013226Y013788D02*
X007432Y013788D01*
X007432Y013906D02*
X013226Y013906D01*
X013226Y014025D02*
X007432Y014025D01*
X007856Y011062D02*
X010288Y011062D01*
X010244Y010944D02*
X007865Y010944D01*
X012949Y011181D02*
X013008Y011181D01*
X013776Y009996D02*
X013867Y009996D01*
X014308Y009996D02*
X014402Y009996D01*
X014843Y009996D02*
X014961Y009996D01*
X016344Y009996D02*
X016386Y009996D01*
X016386Y009877D02*
X016344Y009877D01*
X016344Y009759D02*
X016428Y009759D01*
X016446Y009403D02*
X016344Y009403D01*
X016344Y009285D02*
X016371Y009285D01*
X016371Y009166D02*
X016344Y009166D01*
X016732Y010588D02*
X016880Y010588D01*
X016665Y006322D02*
X015389Y006322D01*
X015389Y006204D02*
X016620Y006204D01*
X016620Y006085D02*
X015389Y006085D01*
X015384Y005967D02*
X016620Y005967D01*
X016620Y005848D02*
X015642Y005848D01*
X015718Y005730D02*
X017993Y005730D01*
X017993Y005611D02*
X015734Y005611D01*
X015700Y005493D02*
X017993Y005493D01*
X017993Y005374D02*
X015594Y005374D01*
X015274Y005374D02*
X015224Y005374D01*
X015224Y005256D02*
X017993Y005256D01*
X017993Y005137D02*
X015224Y005137D01*
X015224Y005019D02*
X017993Y005019D01*
X017993Y004900D02*
X015224Y004900D01*
X015224Y004782D02*
X017993Y004782D01*
X017993Y004663D02*
X015224Y004663D01*
X015224Y004545D02*
X017993Y004545D01*
X017993Y004426D02*
X015224Y004426D01*
X015224Y004308D02*
X017993Y004308D01*
X017993Y004189D02*
X015224Y004189D01*
X015224Y004071D02*
X017993Y004071D01*
X017993Y003952D02*
X015224Y003952D01*
X015224Y003834D02*
X017993Y003834D01*
X017993Y003715D02*
X015224Y003715D01*
X015224Y003597D02*
X017993Y003597D01*
X017993Y003478D02*
X015224Y003478D01*
X015224Y003360D02*
X017993Y003360D01*
X017993Y003241D02*
X015224Y003241D01*
X015224Y003123D02*
X017993Y003123D01*
X017993Y003004D02*
X015224Y003004D01*
X015224Y002886D02*
X017993Y002886D01*
X017993Y002767D02*
X015224Y002767D01*
X015224Y002649D02*
X017993Y002649D01*
X017993Y002530D02*
X015224Y002530D01*
X015224Y002412D02*
X017056Y002412D01*
X016741Y002293D02*
X015224Y002293D01*
X015224Y002175D02*
X016564Y002175D01*
X016446Y002056D02*
X015224Y002056D01*
X015224Y001938D02*
X016358Y001938D01*
X016290Y001819D02*
X015224Y001819D01*
X015224Y001701D02*
X016240Y001701D01*
X016208Y001582D02*
X015894Y001582D01*
X015682Y001582D02*
X015224Y001582D01*
X015226Y001464D02*
X015450Y001464D01*
X015336Y001345D02*
X015282Y001345D01*
X014824Y001701D02*
X011008Y001701D01*
X011026Y001819D02*
X014824Y001819D01*
X014824Y001938D02*
X011144Y001938D01*
X011263Y002056D02*
X014824Y002056D01*
X014824Y002175D02*
X011381Y002175D01*
X011500Y002293D02*
X014824Y002293D01*
X014824Y002412D02*
X011618Y002412D01*
X011737Y002530D02*
X014824Y002530D01*
X014824Y002649D02*
X011855Y002649D01*
X011974Y002767D02*
X014824Y002767D01*
X014824Y002886D02*
X012092Y002886D01*
X012211Y003004D02*
X014824Y003004D01*
X014824Y003123D02*
X012325Y003123D01*
X012325Y003241D02*
X014824Y003241D01*
X014824Y003360D02*
X012325Y003360D01*
X012325Y003478D02*
X014824Y003478D01*
X014824Y003597D02*
X012325Y003597D01*
X012325Y003715D02*
X014824Y003715D01*
X014824Y003834D02*
X012325Y003834D01*
X012325Y003952D02*
X014824Y003952D01*
X014824Y004071D02*
X012325Y004071D01*
X012325Y004189D02*
X014824Y004189D01*
X014824Y004308D02*
X013709Y004308D01*
X013772Y004426D02*
X014824Y004426D01*
X014824Y004545D02*
X013772Y004545D01*
X013772Y004663D02*
X014824Y004663D01*
X014824Y004782D02*
X013772Y004782D01*
X013690Y004900D02*
X014824Y004900D01*
X014824Y005019D02*
X014410Y005019D01*
X014487Y005137D02*
X014824Y005137D01*
X014824Y005256D02*
X014487Y005256D01*
X014487Y005374D02*
X014824Y005374D01*
X014824Y005493D02*
X014487Y005493D01*
X014418Y005611D02*
X014824Y005611D01*
X014824Y005730D02*
X013964Y005730D01*
X013964Y005848D02*
X014824Y005848D01*
X013771Y005019D02*
X013711Y005019D01*
X013061Y004900D02*
X013044Y004900D01*
X013040Y005019D02*
X012451Y005019D01*
X012434Y004900D02*
X012408Y004900D01*
X012501Y005137D02*
X012979Y005137D01*
X012979Y005256D02*
X012501Y005256D01*
X012501Y005374D02*
X012979Y005374D01*
X012979Y005493D02*
X012501Y005493D01*
X013064Y005611D02*
X011764Y005611D01*
X011764Y005730D02*
X013094Y005730D01*
X013094Y005848D02*
X011764Y005848D01*
X011364Y005611D02*
X009412Y005611D01*
X009453Y005570D02*
X009359Y005664D01*
X009348Y005675D01*
X009336Y005675D01*
X009325Y005687D01*
X009313Y005687D01*
X009302Y005698D01*
X009267Y005698D01*
X009256Y005710D01*
X009077Y005710D01*
X009066Y005698D01*
X009043Y005698D01*
X009043Y005698D01*
X009031Y005698D01*
X009020Y005687D01*
X009020Y005687D01*
X009020Y005687D01*
X009008Y005687D01*
X008997Y005675D01*
X008985Y005675D01*
X008982Y005672D01*
X008968Y005687D01*
X008767Y005687D01*
X008755Y005675D01*
X008732Y005675D01*
X008675Y005618D01*
X008675Y005618D01*
X008581Y005524D01*
X008581Y005512D01*
X008569Y005501D01*
X008569Y005489D01*
X008558Y005478D01*
X008558Y005455D01*
X008546Y005443D01*
X008546Y005184D01*
X008558Y005173D01*
X008558Y005150D01*
X008569Y005138D01*
X008569Y005127D01*
X008581Y005115D01*
X008581Y005104D01*
X008658Y005026D01*
X008627Y004995D01*
X008627Y004983D01*
X008604Y004960D01*
X008592Y004949D01*
X008592Y004937D01*
X008581Y004926D01*
X008581Y004914D01*
X008569Y004903D01*
X008569Y004857D01*
X008558Y004845D01*
X008558Y004448D01*
X008641Y004365D01*
X008558Y004282D01*
X008558Y004069D01*
X008569Y004057D01*
X008581Y004046D01*
X008581Y004046D01*
X008641Y003986D01*
X008558Y003902D01*
X008558Y003344D01*
X008607Y003296D01*
X008604Y003293D01*
X008604Y003293D01*
X008592Y003281D01*
X008592Y003270D01*
X008581Y003258D01*
X008569Y003247D01*
X008569Y003224D01*
X008558Y003212D01*
X008558Y003189D01*
X008546Y003178D01*
X008546Y002919D01*
X008558Y002907D01*
X008558Y002884D01*
X008569Y002873D01*
X008569Y002861D01*
X008581Y002850D01*
X008581Y002838D01*
X008675Y002745D01*
X008686Y002733D01*
X008698Y002722D01*
X008709Y002722D01*
X008732Y002699D01*
X008744Y002699D01*
X008755Y002687D01*
X008801Y002687D01*
X008813Y002676D01*
X008980Y002676D01*
X008991Y002687D01*
X009026Y002687D01*
X009034Y002696D01*
X009066Y002664D01*
X009279Y002664D01*
X009290Y002676D01*
X009313Y002676D01*
X009336Y002699D01*
X009348Y002699D01*
X009441Y002792D01*
X009453Y002804D01*
X009464Y002815D01*
X009476Y002827D01*
X009476Y002838D01*
X009487Y002850D01*
X009487Y002861D01*
X009499Y002873D01*
X009499Y002896D01*
X009510Y002907D01*
X009510Y003082D01*
X009595Y002998D01*
X009606Y002986D01*
X009618Y002975D01*
X009629Y002975D01*
X009652Y002952D01*
X009664Y002952D01*
X009687Y002929D01*
X009710Y002929D01*
X009721Y002917D01*
X009733Y002917D01*
X009744Y002906D01*
X009767Y002906D01*
X009779Y002894D01*
X009802Y002894D01*
X009813Y002883D01*
X009871Y002883D01*
X009882Y002871D01*
X010118Y002871D01*
X010130Y002883D01*
X010187Y002883D01*
X010199Y002894D01*
X010222Y002894D01*
X010233Y002906D01*
X010256Y002906D01*
X010268Y002917D01*
X010291Y002917D01*
X010302Y002929D01*
X010314Y002929D01*
X010325Y002940D01*
X010337Y002952D01*
X010348Y002952D01*
X010371Y002975D01*
X010383Y002975D01*
X010429Y003021D01*
X010522Y003114D01*
X010534Y003126D01*
X010545Y003137D01*
X010557Y003149D01*
X010568Y003160D01*
X010568Y003165D01*
X010579Y003176D01*
X010579Y003183D01*
X010591Y003195D01*
X010603Y003206D01*
X010603Y003218D01*
X010614Y003229D01*
X010614Y003241D01*
X010626Y003252D01*
X010626Y003264D01*
X010637Y003275D01*
X010637Y003287D01*
X010649Y003298D01*
X010649Y003321D01*
X010660Y003333D01*
X010660Y003367D01*
X010672Y003379D01*
X010672Y003436D01*
X010683Y003448D01*
X010683Y003649D01*
X010672Y003661D01*
X010672Y003730D01*
X010660Y003741D01*
X010660Y003776D01*
X010649Y003787D01*
X010649Y003810D01*
X010637Y003822D01*
X010637Y003833D01*
X010626Y003845D01*
X010626Y003856D01*
X010614Y003868D01*
X010614Y003879D01*
X010603Y003891D01*
X010603Y003902D01*
X010591Y003914D01*
X010568Y003937D01*
X010568Y003948D01*
X010545Y003971D01*
X010534Y003983D01*
X010522Y003994D01*
X010522Y003994D01*
X010429Y004088D01*
X010429Y004088D01*
X010419Y004098D01*
X010364Y004152D01*
X010371Y004159D01*
X010475Y004159D01*
X010486Y004171D01*
X010580Y004264D01*
X010580Y004276D01*
X010591Y004287D01*
X010591Y004299D01*
X010603Y004310D01*
X010603Y004333D01*
X010614Y004345D01*
X010614Y004529D01*
X010626Y004540D01*
X010626Y004552D01*
X010637Y004563D01*
X010637Y004575D01*
X010649Y004586D01*
X010649Y004609D01*
X010660Y004621D01*
X010660Y004655D01*
X010672Y004667D01*
X010672Y004724D01*
X010683Y004736D01*
X010683Y004949D01*
X010672Y004960D01*
X010672Y005018D01*
X010660Y005029D01*
X010660Y005064D01*
X010649Y005075D01*
X010649Y005098D01*
X010637Y005110D01*
X010637Y005121D01*
X010626Y005133D01*
X010626Y005144D01*
X010614Y005156D01*
X010614Y005167D01*
X010603Y005179D01*
X010603Y005190D01*
X010591Y005202D01*
X010568Y005225D01*
X010568Y005236D01*
X010557Y005248D01*
X010545Y005259D01*
X010534Y005271D01*
X010522Y005282D01*
X010429Y005376D01*
X010429Y005376D01*
X010406Y005399D01*
X010406Y005399D01*
X010394Y005411D01*
X010383Y005411D01*
X010348Y005445D01*
X010337Y005445D01*
X010325Y005457D01*
X010314Y005457D01*
X010302Y005468D01*
X010291Y005468D01*
X010279Y005480D01*
X010256Y005480D01*
X010245Y005491D01*
X010233Y005491D01*
X010222Y005491D01*
X010210Y005503D01*
X010187Y005503D01*
X010176Y005514D01*
X010118Y005514D01*
X010118Y005514D01*
X009882Y005514D01*
X009836Y005514D01*
X009825Y005503D01*
X009790Y005503D01*
X009779Y005491D01*
X009767Y005491D01*
X009756Y005491D01*
X009744Y005480D01*
X009733Y005480D01*
X009733Y005480D01*
X009721Y005480D01*
X009710Y005468D01*
X009710Y005468D01*
X009698Y005468D01*
X009687Y005457D01*
X009675Y005457D01*
X009664Y005445D01*
X009664Y005445D01*
X009652Y005434D01*
X009641Y005434D01*
X009618Y005411D01*
X009606Y005411D01*
X009595Y005399D01*
X009595Y005399D01*
X009510Y005315D01*
X009510Y005455D01*
X009499Y005466D01*
X009499Y005489D01*
X009487Y005501D01*
X009487Y005524D01*
X009464Y005547D01*
X009464Y005558D01*
X009453Y005570D01*
X009496Y005493D02*
X009780Y005493D01*
X009767Y005491D02*
X009767Y005491D01*
X009710Y005468D02*
X009710Y005468D01*
X009569Y005374D02*
X009510Y005374D01*
X009359Y005664D02*
X009359Y005664D01*
X009313Y005687D02*
X009313Y005687D01*
X009313Y005687D01*
X009882Y005514D02*
X009882Y005514D01*
X010220Y005493D02*
X011087Y005493D01*
X011087Y005374D02*
X010431Y005374D01*
X010549Y005256D02*
X011087Y005256D01*
X011087Y005137D02*
X010626Y005137D01*
X010591Y005202D02*
X010591Y005202D01*
X010557Y005248D02*
X010557Y005248D01*
X010671Y005019D02*
X011132Y005019D01*
X010683Y004900D02*
X011802Y004900D01*
X011709Y004782D02*
X010683Y004782D01*
X010668Y004663D02*
X011709Y004663D01*
X011709Y004545D02*
X010626Y004545D01*
X010614Y004426D02*
X011709Y004426D01*
X011761Y004308D02*
X010600Y004308D01*
X010504Y004189D02*
X011885Y004189D01*
X011885Y004071D02*
X010446Y004071D01*
X010419Y004098D02*
X010419Y004098D01*
X010486Y004171D02*
X010486Y004171D01*
X010565Y003952D02*
X011885Y003952D01*
X011885Y003834D02*
X010637Y003834D01*
X010672Y003715D02*
X011885Y003715D01*
X011885Y003597D02*
X010683Y003597D01*
X010683Y003478D02*
X011885Y003478D01*
X011885Y003360D02*
X010660Y003360D01*
X010614Y003241D02*
X011826Y003241D01*
X011707Y003123D02*
X010530Y003123D01*
X010557Y003149D02*
X010557Y003149D01*
X010429Y003021D02*
X010429Y003021D01*
X010412Y003004D02*
X011589Y003004D01*
X011470Y002886D02*
X010190Y002886D01*
X010325Y002940D02*
X010325Y002940D01*
X009810Y002886D02*
X009499Y002886D01*
X009453Y002804D02*
X009453Y002804D01*
X009416Y002767D02*
X011352Y002767D01*
X011233Y002649D02*
X004930Y002649D01*
X004812Y002767D02*
X008652Y002767D01*
X008675Y002745D02*
X008675Y002745D01*
X008558Y002886D02*
X004693Y002886D01*
X004575Y003004D02*
X008546Y003004D01*
X008546Y003123D02*
X004496Y003123D01*
X004496Y003082D02*
X004496Y003503D01*
X004505Y003495D01*
X005177Y003495D01*
X005187Y003505D01*
X005241Y003505D01*
X005253Y003492D01*
X005858Y003492D01*
X005952Y003586D01*
X005952Y004033D01*
X005858Y004127D01*
X005271Y004127D01*
X005271Y004661D01*
X005177Y004755D01*
X004505Y004755D01*
X004495Y004745D01*
X004352Y004745D01*
X004264Y004708D01*
X004121Y004564D01*
X004053Y004497D01*
X004016Y004409D01*
X004016Y003400D01*
X003667Y003400D01*
X003605Y003462D01*
X003550Y003485D01*
X003550Y003561D01*
X003537Y003574D01*
X003551Y003588D01*
X003551Y003901D01*
X003457Y003995D01*
X002785Y003995D01*
X002691Y003901D01*
X002691Y003588D01*
X002785Y003495D01*
X002915Y003495D01*
X002915Y002956D01*
X003009Y002862D01*
X003457Y002862D01*
X003516Y002922D01*
X003520Y002920D01*
X004023Y002920D01*
X004053Y002847D01*
X004789Y002111D01*
X004857Y002043D01*
X004945Y002007D01*
X005163Y002007D01*
X005177Y001992D01*
X005287Y001947D01*
X005407Y001947D01*
X005517Y001992D01*
X005601Y002077D01*
X005647Y002187D01*
X005647Y002306D01*
X005601Y002417D01*
X005517Y002501D01*
X005407Y002547D01*
X005287Y002547D01*
X005177Y002501D01*
X005163Y002487D01*
X005092Y002487D01*
X004496Y003082D01*
X004496Y003241D02*
X008569Y003241D01*
X008581Y003258D02*
X008581Y003258D01*
X008558Y003360D02*
X004496Y003360D01*
X004496Y003478D02*
X008558Y003478D01*
X008558Y003597D02*
X005952Y003597D01*
X005952Y003715D02*
X008558Y003715D01*
X008558Y003834D02*
X005952Y003834D01*
X005952Y003952D02*
X008607Y003952D01*
X008569Y004057D02*
X008569Y004057D01*
X008558Y004071D02*
X005915Y004071D01*
X005271Y004189D02*
X008558Y004189D01*
X008583Y004308D02*
X005271Y004308D01*
X005271Y004426D02*
X008580Y004426D01*
X008558Y004545D02*
X005271Y004545D01*
X005269Y004663D02*
X008558Y004663D01*
X008558Y004782D02*
X002802Y004782D01*
X002829Y004755D02*
X002748Y004836D01*
X002143Y004836D01*
X002049Y004742D01*
X002049Y004295D01*
X002143Y004201D01*
X002691Y004201D01*
X002691Y004098D01*
X002785Y004005D01*
X003457Y004005D01*
X003551Y004098D01*
X003551Y004411D01*
X003551Y004661D01*
X003457Y004755D01*
X002829Y004755D01*
X002691Y004189D02*
X001197Y004189D01*
X001197Y004071D02*
X002719Y004071D01*
X002742Y003952D02*
X001197Y003952D01*
X001197Y003834D02*
X002691Y003834D01*
X002691Y003715D02*
X001197Y003715D01*
X001197Y003597D02*
X002691Y003597D01*
X002915Y003478D02*
X001197Y003478D01*
X001197Y003360D02*
X002915Y003360D01*
X002915Y003241D02*
X001197Y003241D01*
X001197Y003123D02*
X002915Y003123D01*
X002915Y003004D02*
X001197Y003004D01*
X001197Y002886D02*
X002986Y002886D01*
X003480Y002886D02*
X004037Y002886D01*
X004133Y002767D02*
X001197Y002767D01*
X001197Y002649D02*
X004251Y002649D01*
X004370Y002530D02*
X001197Y002530D01*
X001197Y002412D02*
X004488Y002412D01*
X004607Y002293D02*
X001197Y002293D01*
X001197Y002175D02*
X004725Y002175D01*
X004844Y002056D02*
X001197Y002056D01*
X001197Y001938D02*
X010568Y001938D01*
X010568Y001819D02*
X001197Y001819D01*
X001197Y001701D02*
X010568Y001701D01*
X010468Y001582D02*
X001197Y001582D01*
X001197Y001464D02*
X010350Y001464D01*
X010294Y001345D02*
X001197Y001345D01*
X001197Y001227D02*
X010258Y001227D01*
X010258Y001108D02*
X001197Y001108D01*
X001197Y000990D02*
X010282Y000990D01*
X010331Y000871D02*
X001197Y000871D01*
X001197Y000753D02*
X010438Y000753D01*
X010654Y000634D02*
X001197Y000634D01*
X003566Y003478D02*
X004016Y003478D01*
X004016Y003597D02*
X003551Y003597D01*
X003551Y003715D02*
X004016Y003715D01*
X004016Y003834D02*
X003551Y003834D01*
X003500Y003952D02*
X004016Y003952D01*
X004016Y004071D02*
X003523Y004071D01*
X003551Y004189D02*
X004016Y004189D01*
X004016Y004308D02*
X003551Y004308D01*
X003551Y004426D02*
X004024Y004426D01*
X004101Y004545D02*
X003551Y004545D01*
X003549Y004663D02*
X004219Y004663D01*
X002089Y004782D02*
X001197Y004782D01*
X001197Y004900D02*
X008569Y004900D01*
X008604Y004960D02*
X008604Y004960D01*
X008650Y005019D02*
X001197Y005019D01*
X001197Y005137D02*
X008569Y005137D01*
X008546Y005256D02*
X001197Y005256D01*
X001197Y005374D02*
X008546Y005374D01*
X008569Y005493D02*
X001197Y005493D01*
X001197Y005611D02*
X008668Y005611D01*
X010233Y005491D02*
X010233Y005491D01*
X012105Y004583D02*
X012105Y003209D01*
X010788Y001892D01*
X010788Y001152D01*
X011138Y000753D02*
X011338Y000753D01*
X011289Y000871D02*
X011245Y000871D01*
X011457Y000634D02*
X010922Y000634D01*
X011282Y001345D02*
X011336Y001345D01*
X011226Y001464D02*
X011450Y001464D01*
X011682Y001582D02*
X011108Y001582D01*
X010641Y002056D02*
X005581Y002056D01*
X005642Y002175D02*
X010759Y002175D01*
X010878Y002293D02*
X005647Y002293D01*
X005603Y002412D02*
X010996Y002412D01*
X011115Y002530D02*
X005447Y002530D01*
X005247Y002530D02*
X005049Y002530D01*
X002049Y004308D02*
X001197Y004308D01*
X001197Y004426D02*
X002049Y004426D01*
X002049Y004545D02*
X001197Y004545D01*
X001197Y004663D02*
X002049Y004663D01*
X001955Y009759D02*
X001197Y009759D01*
X001197Y009877D02*
X001955Y009877D01*
X001955Y009996D02*
X001197Y009996D01*
X001197Y010114D02*
X001955Y010114D01*
X001955Y010233D02*
X001197Y010233D01*
X001197Y010351D02*
X002040Y010351D01*
X002012Y010470D02*
X001197Y010470D01*
X001197Y010588D02*
X001955Y010588D01*
X001955Y010707D02*
X001197Y010707D01*
X001197Y010825D02*
X001955Y010825D01*
X001955Y010944D02*
X001197Y010944D01*
X001197Y011062D02*
X001964Y011062D01*
X009510Y003004D02*
X009588Y003004D01*
X009595Y002998D02*
X009595Y002998D01*
X011894Y001582D02*
X013682Y001582D01*
X013894Y001582D02*
X014468Y001582D01*
X014350Y001464D02*
X014126Y001464D01*
X014240Y001345D02*
X014294Y001345D01*
X013450Y001464D02*
X012126Y001464D01*
X012240Y001345D02*
X013336Y001345D01*
X013287Y001227D02*
X012289Y001227D01*
X012318Y001108D02*
X013258Y001108D01*
X013258Y000990D02*
X012318Y000990D01*
X012287Y000871D02*
X013289Y000871D01*
X013338Y000753D02*
X012238Y000753D01*
X012119Y000634D02*
X013457Y000634D01*
X016126Y001464D02*
X016182Y001464D01*
X017489Y002412D02*
X017993Y002412D01*
X017993Y002293D02*
X017803Y002293D01*
X017980Y002175D02*
X017993Y002175D01*
D116*
X015434Y005632D03*
X013048Y007388D03*
X012717Y007164D03*
X012371Y007408D03*
X013465Y007562D03*
X013095Y009211D03*
X012934Y010199D03*
X012441Y010199D03*
X011646Y010199D03*
X013556Y010199D03*
X014087Y010199D03*
X014623Y010199D03*
X015182Y010199D03*
X016587Y010853D03*
X017024Y010853D03*
X016693Y013191D03*
X017363Y014018D03*
X012402Y012404D03*
X009882Y013900D03*
X003823Y004125D03*
X005347Y002247D03*
D117*
X011484Y005287D02*
X011489Y005292D01*
X012105Y005292D01*
X011564Y005367D02*
X011484Y005287D01*
X011564Y005367D02*
X011564Y006416D01*
X012371Y007062D02*
X012501Y006932D01*
X012501Y006420D01*
X012504Y006416D01*
X012664Y006416D02*
X012664Y007111D01*
X012717Y007164D01*
X012985Y007140D02*
X012985Y006417D01*
X012984Y006416D01*
X013130Y006420D02*
X013134Y006416D01*
X013130Y006420D02*
X013130Y006963D01*
X013465Y007298D01*
X013465Y007562D01*
X013048Y007388D02*
X013048Y007203D01*
X012985Y007140D01*
X012371Y007062D02*
X012371Y007408D01*
X013294Y006416D02*
X013294Y005385D01*
X013376Y005303D01*
X013764Y005646D02*
X014091Y005319D01*
X013764Y005646D02*
X013764Y006416D01*
X013604Y006416D02*
X013604Y006874D01*
X013623Y006892D01*
X015024Y006416D02*
X015024Y001388D01*
X014788Y001152D01*
X013376Y004594D02*
X012748Y004594D01*
X012739Y004585D01*
X012715Y004609D01*
X012520Y004609D01*
X012481Y004569D01*
X012205Y004569D01*
X012127Y004569D01*
X012105Y004583D02*
X012191Y004583D01*
X012205Y004569D01*
X015184Y005882D02*
X015434Y005632D01*
X015184Y005882D02*
X015184Y006416D01*
X015894Y007126D02*
X016652Y007126D01*
X017016Y006762D01*
X017016Y006054D02*
X017656Y006054D01*
X017670Y006067D01*
X016693Y007758D02*
X016694Y007759D01*
X016694Y007772D01*
X016678Y007756D01*
X015894Y007756D01*
X015894Y007916D02*
X015434Y007916D01*
X015434Y007916D01*
X015434Y008703D02*
X015437Y008706D01*
X015894Y008706D01*
X015894Y008856D02*
X016677Y008856D01*
X016689Y009026D01*
X016693Y009021D01*
X016690Y009034D01*
X016418Y009963D02*
X016379Y010003D01*
X016379Y010081D01*
X016343Y010116D01*
X015894Y010116D01*
X015894Y010276D02*
X016681Y010276D01*
X016704Y010103D01*
X016693Y010113D01*
X016705Y010097D01*
X016481Y010746D02*
X015894Y010746D01*
X015894Y010906D02*
X016183Y011195D01*
X016922Y011195D01*
X017024Y011093D01*
X017024Y010853D01*
X016587Y010853D02*
X016481Y010746D01*
X015896Y010908D02*
X015894Y010906D01*
X015182Y010656D02*
X015024Y010814D01*
X015024Y011616D01*
X015024Y011616D01*
X014864Y011616D02*
X014863Y011615D01*
X014863Y010440D01*
X014623Y010199D01*
X014087Y010199D02*
X014084Y010529D01*
X014084Y011616D01*
X013924Y011616D02*
X013924Y010568D01*
X013556Y010199D01*
X012934Y010199D02*
X012194Y010939D01*
X012194Y011616D01*
X011874Y011616D02*
X011874Y010427D01*
X011646Y010199D01*
X012441Y010199D02*
X012441Y009865D01*
X013095Y009211D01*
X015182Y010199D02*
X015182Y010656D01*
X014554Y011616D02*
X014554Y011997D01*
X015316Y012758D01*
X015553Y012758D01*
X015831Y013037D01*
X015200Y013036D02*
X014686Y012522D01*
X013623Y012522D01*
X013454Y012353D01*
X013454Y011616D01*
X013294Y011616D02*
X013294Y012394D01*
X013142Y012546D01*
X013142Y013262D01*
X013741Y013861D01*
X014410Y013861D01*
X014528Y013743D01*
X013134Y012184D02*
X012560Y012758D01*
X012323Y012758D01*
X012166Y012916D01*
X012048Y013034D01*
X011379Y013034D01*
X013134Y012184D02*
X013134Y011616D01*
X012984Y011616D02*
X012984Y011214D01*
X012953Y011184D01*
X010694Y009486D02*
X009484Y009486D01*
X009264Y009266D01*
X009264Y008711D01*
X009686Y008685D02*
X009871Y008712D01*
X009873Y008712D01*
X009882Y008703D01*
X009686Y008685D02*
X009686Y009215D01*
X009797Y009326D01*
X010694Y009326D01*
D118*
X005737Y006160D03*
X004737Y006160D03*
D119*
X005556Y003810D03*
X009882Y008703D03*
X009004Y009806D03*
X009004Y010593D03*
X008414Y011577D03*
X012107Y005302D03*
X014095Y005317D03*
X016693Y007758D03*
X016690Y009034D03*
X016705Y010097D03*
D120*
X014095Y005317D02*
X014091Y005317D01*
X014091Y005319D01*
X012107Y005292D02*
X012107Y005302D01*
X012105Y005292D02*
X012107Y005292D01*
X005556Y003810D02*
X005491Y003745D01*
X004841Y003745D01*
X004841Y003995D01*
X004400Y004505D02*
X004256Y004361D01*
X004256Y003160D01*
X003567Y003160D01*
X003469Y003258D01*
X003233Y003258D01*
X003233Y003633D01*
X003121Y003745D01*
X003121Y004505D02*
X002459Y004505D01*
X002445Y004518D01*
X004256Y003160D02*
X004256Y002983D01*
X004993Y002247D01*
X005347Y002247D01*
X004841Y004505D02*
X004400Y004505D01*
D121*
X007312Y011577D02*
X008414Y011577D01*
D122*
X007312Y011577D02*
X006642Y011577D01*
X005855Y012365D01*
X002508Y012365D01*
X007312Y010003D02*
X008414Y010003D01*
X009004Y010593D01*
X009004Y009806D02*
X008414Y009215D01*
X007312Y009215D01*
X004737Y006160D02*
X003256Y007640D01*
X002508Y007640D01*
D123*
X010414Y003853D02*
X010414Y003244D01*
M02*
