%
M48
M72
T01C0.0200
T02C0.0276
T03C0.0320
T04C0.0400
T05C0.0512
T06C0.0520
%
T01
X1764Y751
X2551Y751
X3339Y751
X4126Y751
X4914Y751
X5701Y751
X6488Y751
X7276Y751
X8063Y751
X8851Y751
X9638Y751
X6607Y2916
X5075Y4788
X3339Y4254
X3103Y5947
X1173Y6341
X1173Y7129
X1173Y7916
X1173Y8703
X1173Y9491
X2512Y8113
X5154Y8331
X7473Y9451
X8260Y9451
X9047Y9451
X10425Y10003
X10662Y11105
X11986Y10085
X12670Y10239
X14008Y11262
X14664Y11699
X15372Y10558
X16632Y10400
X17813Y10400
X20106Y9040
X17790Y8247
X16609Y8247
X15821Y8247
X13733Y8625
X11796Y7160
X11016Y7089
X9835Y7089
X9835Y5908
X11016Y5908
X13063Y4727
X14706Y3800
X15796Y2910
X13866Y2660
X12276Y3546
X13733Y6105
X14481Y6695
X18376Y5730
X19362Y6302
X21331Y6695
X24086Y5830
X23046Y4660
X25296Y4410
X26882Y5199
X26882Y6380
X29244Y7562
X28823Y8691
X25268Y8664
X25268Y7877
X25268Y9845
X25268Y11026
X27276Y12286
X28296Y13410
X28457Y14648
X27046Y14660
X26296Y14660
X26488Y16223
X28457Y16223
X31410Y15947
X31398Y12394
X25256Y12810
X22046Y13410
X20977Y11617
X19008Y12286
X15490Y13825
X15740Y15357
X17046Y16410
X16095Y16853
X14953Y16853
X14166Y16105
X13378Y17365
X12197Y16184
X11410Y16184
X9441Y16184
X11410Y14609
X12197Y14609
X9835Y13821
X9205Y12916
X6685Y14215
X6685Y15396
X4717Y15396
X3142Y15396
X3142Y14215
X4717Y14215
X3339Y12719
X5075Y11796
X3418Y11302
X5583Y10081
X12197Y12207
X20504Y16144
X17040Y17798
X18614Y18585
X30032Y5593
X29274Y3731
X27276Y3231
X22296Y2160
X18496Y3703
X7473Y5475
X1213Y1341
T02
X20296Y2160
X21296Y2160
T03
X21296Y4660
X20796Y5410
X20296Y4660
T04
X24796Y2260
X25796Y2160
X26796Y2260
X27796Y2160
X28796Y2260
X29796Y2160
X25046Y16110
X24046Y16210
X23046Y16110
X22046Y16210
T05
X12000Y17814
X10032Y17814
X8063Y17814
X5534Y17814
X3565Y17814
X1597Y17814
T06
X1488Y14727
X1370Y10396
X1488Y4884
M30
