G75*
G70*
%OFA0B0*%
%FSLAX24Y24*%
%IPPOS*%
%LPD*%
%AMOC8*
5,1,8,0,0,1.08239X$1,22.5*
%
%ADD10R,0.0730X0.0730*%
%ADD11C,0.0730*%
%ADD12OC8,0.0600*%
%ADD13C,0.0820*%
%ADD14R,0.0880X0.0880*%
%ADD15C,0.0880*%
%ADD16R,0.0440X0.0440*%
%ADD17R,0.0860X0.0860*%
%ADD18OC8,0.0440*%
D10*
X020296Y002160D03*
D11*
X021296Y002160D03*
D12*
X021296Y004660D03*
X020796Y005410D03*
X020296Y004660D03*
D13*
X024796Y002260D03*
X025796Y002160D03*
X026796Y002260D03*
X027796Y002160D03*
X028796Y002260D03*
X029796Y002160D03*
X025046Y016110D03*
X024046Y016210D03*
X023046Y016110D03*
X022046Y016210D03*
D14*
X008063Y017814D03*
X001597Y017814D03*
D15*
X003565Y017814D03*
X005534Y017814D03*
X010032Y017814D03*
X012000Y017814D03*
D16*
X001764Y000751D03*
X002551Y000751D03*
X003339Y000751D03*
X004126Y000751D03*
X004914Y000751D03*
X005701Y000751D03*
X006488Y000751D03*
X007276Y000751D03*
X008063Y000751D03*
X008851Y000751D03*
X009638Y000751D03*
X006607Y002916D03*
X005075Y004788D03*
X003339Y004254D03*
X003103Y005947D03*
X001173Y006341D03*
X001173Y007129D03*
X001173Y007916D03*
X001173Y008703D03*
X001173Y009491D03*
X002512Y008113D03*
X005154Y008331D03*
X007473Y009451D03*
X008260Y009451D03*
X009047Y009451D03*
X010425Y010003D03*
X010662Y011105D03*
X011986Y010085D03*
X012670Y010239D03*
X014008Y011262D03*
X014664Y011699D03*
X015372Y010558D03*
X016632Y010400D03*
X017813Y010400D03*
X019008Y012286D03*
X020977Y011617D03*
X022046Y013410D03*
X025256Y012810D03*
X027276Y012286D03*
X028296Y013410D03*
X028457Y014648D03*
X027046Y014660D03*
X026296Y014660D03*
X026488Y016223D03*
X028457Y016223D03*
X031410Y015947D03*
X031398Y012394D03*
X028823Y008691D03*
X029244Y007562D03*
X026882Y006380D03*
X026882Y005199D03*
X025296Y004410D03*
X027276Y003231D03*
X029274Y003731D03*
X030032Y005593D03*
X025268Y007877D03*
X025268Y008664D03*
X025268Y009845D03*
X025268Y011026D03*
X021331Y006695D03*
X019362Y006302D03*
X018376Y005730D03*
X018496Y003703D03*
X015796Y002910D03*
X014706Y003800D03*
X013063Y004727D03*
X012276Y003546D03*
X013866Y002660D03*
X011016Y005908D03*
X009835Y005908D03*
X009835Y007089D03*
X011016Y007089D03*
X011796Y007160D03*
X013733Y006105D03*
X014481Y006695D03*
X015821Y008247D03*
X016609Y008247D03*
X017790Y008247D03*
X013733Y008625D03*
X012197Y012207D03*
X009835Y013821D03*
X009205Y012916D03*
X006685Y014215D03*
X006685Y015396D03*
X004717Y015396D03*
X003142Y015396D03*
X003142Y014215D03*
X004717Y014215D03*
X003339Y012719D03*
X005075Y011796D03*
X003418Y011302D03*
X005583Y010081D03*
X011410Y014609D03*
X012197Y014609D03*
X012197Y016184D03*
X011410Y016184D03*
X009441Y016184D03*
X013378Y017365D03*
X014953Y016853D03*
X014166Y016105D03*
X015740Y015357D03*
X017046Y016410D03*
X016095Y016853D03*
X017040Y017798D03*
X018614Y018585D03*
X020504Y016144D03*
X015490Y013825D03*
X024086Y005830D03*
X023046Y004660D03*
X022296Y002160D03*
X007473Y005475D03*
X001213Y001341D03*
D17*
X001488Y004884D03*
X001370Y010396D03*
X001488Y014727D03*
D18*
X020106Y009040D03*
M02*
