G75*
G70*
%OFA0B0*%
%FSLAX24Y24*%
%IPPOS*%
%LPD*%
%AMOC8*
5,1,8,0,0,1.08239X$1,22.5*
%
%ADD10R,0.0190X0.0740*%
%ADD11R,0.0740X0.0190*%
%ADD12R,0.0572X0.0220*%
%ADD13R,0.0220X0.0572*%
%ADD14R,0.1320X0.1320*%
%ADD15R,0.0552X0.0395*%
%ADD16R,0.0730X0.0730*%
%ADD17C,0.0730*%
%ADD18R,0.0395X0.0552*%
%ADD19OC8,0.0600*%
%ADD20R,0.0170X0.0660*%
%ADD21R,0.0660X0.0170*%
%ADD22R,0.0789X0.0710*%
%ADD23C,0.0820*%
%ADD24R,0.0880X0.0880*%
%ADD25C,0.0880*%
%ADD26R,0.0440X0.0440*%
%ADD27R,0.0860X0.0860*%
%ADD28OC8,0.0440*%
D10*
X015316Y006950D03*
X015516Y006950D03*
X015716Y006950D03*
X015906Y006950D03*
X016106Y006950D03*
X016306Y006950D03*
X016496Y006950D03*
X016696Y006950D03*
X016896Y006950D03*
X017096Y006950D03*
X017286Y006950D03*
X017486Y006950D03*
X017686Y006950D03*
X017876Y006950D03*
X018076Y006950D03*
X018276Y006950D03*
X018276Y011370D03*
X018076Y011370D03*
X017876Y011370D03*
X017686Y011370D03*
X017486Y011370D03*
X017286Y011370D03*
X017096Y011370D03*
X016896Y011370D03*
X016696Y011370D03*
X016496Y011370D03*
X016306Y011370D03*
X016106Y011370D03*
X015906Y011370D03*
X015716Y011370D03*
X015516Y011370D03*
X015316Y011370D03*
D11*
X014586Y010640D03*
X014586Y010440D03*
X014586Y010240D03*
X014586Y010050D03*
X014586Y009850D03*
X014586Y009650D03*
X014586Y009460D03*
X014586Y009260D03*
X014586Y009060D03*
X014586Y008860D03*
X014586Y008670D03*
X014586Y008470D03*
X014586Y008270D03*
X014586Y008080D03*
X014586Y007880D03*
X014586Y007680D03*
X019006Y007680D03*
X019006Y007880D03*
X019006Y008080D03*
X019006Y008270D03*
X019006Y008470D03*
X019006Y008670D03*
X019006Y008860D03*
X019006Y009060D03*
X019006Y009260D03*
X019006Y009460D03*
X019006Y009650D03*
X019006Y009850D03*
X019006Y010050D03*
X019006Y010240D03*
X019006Y010440D03*
X019006Y010640D03*
D12*
X006082Y011284D03*
X006082Y011534D03*
X006082Y011794D03*
X006082Y012054D03*
X006082Y012304D03*
X004100Y012304D03*
X004100Y012054D03*
X004100Y011794D03*
X004100Y011534D03*
X004100Y011284D03*
X004100Y008845D03*
X004100Y008595D03*
X004100Y008335D03*
X004100Y008075D03*
X004100Y007825D03*
X006082Y007825D03*
X006082Y008075D03*
X006082Y008335D03*
X006082Y008595D03*
X006082Y008845D03*
X006082Y005304D03*
X006082Y005054D03*
X006082Y004794D03*
X006082Y004534D03*
X006082Y004284D03*
X004100Y004284D03*
X004100Y004534D03*
X004100Y004794D03*
X004100Y005054D03*
X004100Y005304D03*
D13*
X004581Y005785D03*
X004831Y005785D03*
X005091Y005785D03*
X005351Y005785D03*
X005601Y005785D03*
X005601Y007344D03*
X005351Y007344D03*
X005091Y007344D03*
X004831Y007344D03*
X004581Y007344D03*
X004581Y009326D03*
X004831Y009326D03*
X005091Y009326D03*
X005351Y009326D03*
X005601Y009326D03*
X005601Y010803D03*
X005351Y010803D03*
X005091Y010803D03*
X004831Y010803D03*
X004581Y010803D03*
X004581Y012785D03*
X004831Y012785D03*
X005091Y012785D03*
X005351Y012785D03*
X005601Y012785D03*
X005601Y003803D03*
X005351Y003803D03*
X005091Y003803D03*
X004831Y003803D03*
X004581Y003803D03*
D14*
X005091Y004794D03*
X005091Y008335D03*
X005091Y011794D03*
D15*
X006878Y011503D03*
X007551Y011503D03*
X008252Y011503D03*
X008953Y011503D03*
X009634Y011503D03*
X009634Y012211D03*
X008953Y012211D03*
X008252Y012211D03*
X007551Y012211D03*
X006878Y012211D03*
X002481Y012719D03*
X002481Y013428D03*
X003342Y008920D03*
X003342Y008211D03*
X002490Y007404D03*
X002490Y006696D03*
X006886Y006908D03*
X006886Y006199D03*
X008107Y006207D03*
X008768Y006207D03*
X008768Y005499D03*
X008107Y005499D03*
X008114Y004951D03*
X008756Y004951D03*
X009386Y004951D03*
X010059Y004951D03*
X010059Y004243D03*
X009386Y004243D03*
X008756Y004243D03*
X008114Y004243D03*
X007457Y004243D03*
X007457Y004951D03*
X007472Y008041D03*
X008232Y008041D03*
X008952Y008041D03*
X008952Y008750D03*
X008232Y008750D03*
X007472Y008750D03*
X009692Y008750D03*
X010422Y008750D03*
X010422Y008041D03*
X009692Y008041D03*
X013696Y005364D03*
X014346Y005364D03*
X015246Y005364D03*
X015886Y005364D03*
X015886Y004656D03*
X015246Y004656D03*
X014346Y004656D03*
X013696Y004656D03*
X016516Y004114D03*
X016516Y003406D03*
X018346Y004406D03*
X018346Y005114D03*
X022296Y004014D03*
X022296Y003306D03*
X024116Y003886D03*
X024116Y004594D03*
X025216Y005366D03*
X025216Y006074D03*
X022816Y006094D03*
X022816Y005386D03*
X027796Y005306D03*
X027796Y004764D03*
X027796Y004056D03*
X027796Y006014D03*
X028536Y011486D03*
X028536Y012194D03*
X025806Y012956D03*
X025806Y013664D03*
X024696Y013674D03*
X024696Y012966D03*
X015646Y012806D03*
X015646Y013514D03*
X014346Y013514D03*
X013696Y013514D03*
X013696Y012806D03*
X014346Y012806D03*
D16*
X020296Y002160D03*
D17*
X021296Y002160D03*
D18*
X023441Y003410D03*
X024150Y003410D03*
X024691Y003410D03*
X025400Y003410D03*
X028081Y008150D03*
X028790Y008150D03*
X028810Y009250D03*
X028101Y009250D03*
X021690Y014680D03*
X020981Y014680D03*
X016080Y014370D03*
X015371Y014370D03*
X011922Y011440D03*
X011214Y011440D03*
X011214Y010800D03*
X011922Y010800D03*
X012491Y009563D03*
X013200Y009563D03*
X013200Y008960D03*
X012491Y008960D03*
X012491Y007610D03*
X013200Y007610D03*
X013200Y006760D03*
X012491Y006760D03*
X002236Y005943D03*
X001528Y005943D03*
D19*
X020296Y004660D03*
X020796Y005410D03*
X021296Y004660D03*
D20*
X022656Y006810D03*
X022816Y006810D03*
X022976Y006810D03*
X023126Y006810D03*
X023286Y006810D03*
X023446Y006810D03*
X023606Y006810D03*
X023756Y006810D03*
X023916Y006810D03*
X024076Y006810D03*
X024236Y006810D03*
X024386Y006810D03*
X024546Y006810D03*
X024706Y006810D03*
X024856Y006810D03*
X025016Y006810D03*
X025176Y006810D03*
X025336Y006810D03*
X025486Y006810D03*
X025646Y006810D03*
X025806Y006810D03*
X025966Y006810D03*
X026116Y006810D03*
X026276Y006810D03*
X026436Y006810D03*
X026436Y012010D03*
X026276Y012010D03*
X026116Y012010D03*
X025966Y012010D03*
X025806Y012010D03*
X025646Y012010D03*
X025486Y012010D03*
X025336Y012010D03*
X025176Y012010D03*
X025016Y012010D03*
X024856Y012010D03*
X024706Y012010D03*
X024546Y012010D03*
X024386Y012010D03*
X024236Y012010D03*
X024076Y012010D03*
X023916Y012010D03*
X023756Y012010D03*
X023606Y012010D03*
X023446Y012010D03*
X023286Y012010D03*
X023126Y012010D03*
X022976Y012010D03*
X022816Y012010D03*
X022656Y012010D03*
D21*
X021946Y011300D03*
X021946Y011140D03*
X021946Y010980D03*
X021946Y010830D03*
X021946Y010670D03*
X021946Y010510D03*
X021946Y010350D03*
X021946Y010200D03*
X021946Y010040D03*
X021946Y009880D03*
X021946Y009720D03*
X021946Y009570D03*
X021946Y009410D03*
X021946Y009250D03*
X021946Y009100D03*
X021946Y008940D03*
X021946Y008780D03*
X021946Y008620D03*
X021946Y008470D03*
X021946Y008310D03*
X021946Y008150D03*
X021946Y007990D03*
X021946Y007840D03*
X021946Y007680D03*
X021946Y007520D03*
X027146Y007520D03*
X027146Y007680D03*
X027146Y007840D03*
X027146Y007990D03*
X027146Y008150D03*
X027146Y008310D03*
X027146Y008470D03*
X027146Y008620D03*
X027146Y008780D03*
X027146Y008940D03*
X027146Y009100D03*
X027146Y009250D03*
X027146Y009410D03*
X027146Y009570D03*
X027146Y009720D03*
X027146Y009880D03*
X027146Y010040D03*
X027146Y010200D03*
X027146Y010350D03*
X027146Y010510D03*
X027146Y010670D03*
X027146Y010830D03*
X027146Y010980D03*
X027146Y011140D03*
X027146Y011300D03*
D22*
X021296Y012609D03*
X021296Y013711D03*
X001398Y012794D03*
X001398Y011691D03*
X001382Y003495D03*
X001382Y002392D03*
D23*
X022046Y016210D03*
X023046Y016110D03*
X024046Y016210D03*
X025046Y016110D03*
X024796Y002260D03*
X025796Y002160D03*
X026796Y002260D03*
X027796Y002160D03*
X028796Y002260D03*
X029796Y002160D03*
D24*
X008063Y017814D03*
X001597Y017814D03*
D25*
X003565Y017814D03*
X005534Y017814D03*
X010032Y017814D03*
X012000Y017814D03*
D26*
X001764Y000751D03*
X002551Y000751D03*
X003339Y000751D03*
X004126Y000751D03*
X004914Y000751D03*
X005701Y000751D03*
X006488Y000751D03*
X007276Y000751D03*
X008063Y000751D03*
X008851Y000751D03*
X009638Y000751D03*
X006607Y002916D03*
X005075Y004788D03*
X003339Y004254D03*
X003103Y005947D03*
X001173Y006341D03*
X001173Y007129D03*
X001173Y007916D03*
X001173Y008703D03*
X001173Y009491D03*
X002512Y008113D03*
X005154Y008331D03*
X007473Y009451D03*
X008260Y009451D03*
X009047Y009451D03*
X010425Y010003D03*
X010662Y011105D03*
X011986Y010085D03*
X012670Y010239D03*
X014008Y011262D03*
X014664Y011699D03*
X015372Y010558D03*
X016632Y010400D03*
X017813Y010400D03*
X019008Y012286D03*
X020977Y011617D03*
X022046Y013410D03*
X025256Y012810D03*
X027276Y012286D03*
X028296Y013410D03*
X028457Y014648D03*
X027046Y014660D03*
X026296Y014660D03*
X026488Y016223D03*
X028457Y016223D03*
X031410Y015947D03*
X031398Y012394D03*
X028823Y008691D03*
X029244Y007562D03*
X026882Y006380D03*
X026882Y005199D03*
X025296Y004410D03*
X027276Y003231D03*
X029274Y003731D03*
X030032Y005593D03*
X025268Y007877D03*
X025268Y008664D03*
X025268Y009845D03*
X025268Y011026D03*
X021331Y006695D03*
X019362Y006302D03*
X018376Y005730D03*
X018496Y003703D03*
X015796Y002910D03*
X014706Y003800D03*
X013063Y004727D03*
X012276Y003546D03*
X013866Y002660D03*
X011016Y005908D03*
X009835Y005908D03*
X009835Y007089D03*
X011016Y007089D03*
X011796Y007160D03*
X013733Y006105D03*
X014481Y006695D03*
X015821Y008247D03*
X016609Y008247D03*
X017790Y008247D03*
X013733Y008625D03*
X012197Y012207D03*
X009835Y013821D03*
X009205Y012916D03*
X006685Y014215D03*
X006685Y015396D03*
X004717Y015396D03*
X003142Y015396D03*
X003142Y014215D03*
X004717Y014215D03*
X003339Y012719D03*
X005075Y011796D03*
X003418Y011302D03*
X005583Y010081D03*
X011410Y014609D03*
X012197Y014609D03*
X012197Y016184D03*
X011410Y016184D03*
X009441Y016184D03*
X013378Y017365D03*
X014953Y016853D03*
X014166Y016105D03*
X015740Y015357D03*
X017046Y016410D03*
X016095Y016853D03*
X017040Y017798D03*
X018614Y018585D03*
X020504Y016144D03*
X015490Y013825D03*
X024086Y005830D03*
X023046Y004660D03*
X022296Y002160D03*
X007473Y005475D03*
X001213Y001341D03*
D27*
X001488Y004884D03*
X001370Y010396D03*
X001488Y014727D03*
D28*
X020106Y009040D03*
M02*
