G75*
%MOIN*%
%OFA0B0*%
%FSLAX24Y24*%
%IPPOS*%
%LPD*%
%AMOC8*
5,1,8,0,0,1.08239X$1,22.5*
%
%ADD10R,0.0240X0.0610*%
%ADD11R,0.0913X0.1500*%
%ADD12R,0.4331X0.3799*%
%ADD13R,0.0591X0.0512*%
%ADD14R,0.0650X0.0650*%
%ADD15C,0.0650*%
%ADD16C,0.0740*%
%ADD17C,0.0160*%
%ADD18R,0.1181X0.1181*%
D10*
X004240Y002240D03*
X004740Y002240D03*
X005240Y002240D03*
X005740Y002240D03*
X006240Y002240D03*
X006740Y002240D03*
X007240Y002240D03*
X007740Y002240D03*
X007740Y004360D03*
X007240Y004360D03*
X006740Y004360D03*
X006240Y004360D03*
X005740Y004360D03*
X005240Y004360D03*
X004740Y004360D03*
X004240Y004360D03*
D11*
X005490Y008526D03*
X007490Y008526D03*
D12*
X006490Y012924D03*
D13*
X005490Y006674D03*
X005490Y005926D03*
D14*
X009490Y005300D03*
X009490Y002300D03*
D15*
X009490Y003300D03*
X009490Y006300D03*
D16*
X001490Y001300D03*
X001490Y002300D03*
X001490Y003300D03*
D17*
X001889Y002836D02*
X002573Y002836D01*
X002415Y002678D02*
X001975Y002678D01*
X002007Y002646D02*
X001853Y002800D01*
X002007Y002954D01*
X002100Y003179D01*
X002100Y003421D01*
X002007Y003646D01*
X001836Y003817D01*
X001611Y003910D01*
X001369Y003910D01*
X001144Y003817D01*
X000973Y003646D01*
X000970Y003639D01*
X000970Y010480D01*
X006170Y010480D01*
X006170Y009364D01*
X006150Y009412D01*
X006083Y009480D01*
X005994Y009516D01*
X004986Y009516D01*
X004897Y009480D01*
X004830Y009412D01*
X004793Y009324D01*
X004793Y007729D01*
X004830Y007640D01*
X004897Y007573D01*
X004986Y007536D01*
X005170Y007536D01*
X005170Y007170D01*
X005147Y007170D01*
X005059Y007133D01*
X004991Y007066D01*
X004955Y006978D01*
X004955Y006370D01*
X004984Y006300D01*
X004955Y006230D01*
X004955Y006120D01*
X003676Y006120D01*
X003559Y006071D01*
X003469Y005981D01*
X003219Y005731D01*
X003170Y005614D01*
X003170Y003986D01*
X003219Y003869D01*
X003309Y003779D01*
X003809Y003279D01*
X003926Y003230D01*
X007054Y003230D01*
X007171Y003279D01*
X007261Y003369D01*
X007511Y003619D01*
X007560Y003736D01*
X007560Y003916D01*
X007563Y003919D01*
X007600Y004007D01*
X007600Y004713D01*
X007563Y004801D01*
X007496Y004868D01*
X007408Y004905D01*
X007072Y004905D01*
X007060Y004900D01*
X007060Y004980D01*
X008925Y004980D01*
X008925Y004927D01*
X008962Y004839D01*
X009029Y004772D01*
X009117Y004735D01*
X009863Y004735D01*
X009951Y004772D01*
X010018Y004839D01*
X010055Y004927D01*
X010055Y005673D01*
X010018Y005761D01*
X009951Y005828D01*
X009863Y005865D01*
X009117Y005865D01*
X009029Y005828D01*
X008962Y005761D01*
X008925Y005673D01*
X008925Y005620D01*
X007057Y005620D01*
X007011Y005731D01*
X006810Y005933D01*
X006810Y010480D01*
X012490Y010480D01*
X012490Y000780D01*
X001829Y000780D01*
X001836Y000783D01*
X002007Y000954D01*
X002018Y000980D01*
X007554Y000980D01*
X007671Y001029D01*
X007761Y001119D01*
X008011Y001369D01*
X008060Y001486D01*
X008060Y001796D01*
X008063Y001799D01*
X008100Y001887D01*
X008100Y001980D01*
X008925Y001980D01*
X008925Y001927D01*
X008962Y001839D01*
X009029Y001772D01*
X009117Y001735D01*
X009863Y001735D01*
X009951Y001772D01*
X010018Y001839D01*
X010055Y001927D01*
X010055Y002673D01*
X010018Y002761D01*
X009951Y002828D01*
X009863Y002865D01*
X009117Y002865D01*
X009029Y002828D01*
X008962Y002761D01*
X008925Y002673D01*
X008925Y002620D01*
X008089Y002620D01*
X008063Y002681D01*
X007996Y002748D01*
X007908Y002785D01*
X007572Y002785D01*
X007490Y002751D01*
X007408Y002785D01*
X007072Y002785D01*
X006990Y002751D01*
X006908Y002785D01*
X006572Y002785D01*
X006484Y002748D01*
X006417Y002681D01*
X006380Y002593D01*
X006380Y001887D01*
X006417Y001799D01*
X006484Y001732D01*
X006572Y001695D01*
X006908Y001695D01*
X006990Y001729D01*
X007072Y001695D01*
X007408Y001695D01*
X007420Y001700D01*
X007420Y001683D01*
X007357Y001620D01*
X005560Y001620D01*
X005560Y001796D01*
X005563Y001799D01*
X005600Y001887D01*
X005600Y002593D01*
X005563Y002681D01*
X005496Y002748D01*
X005408Y002785D01*
X005072Y002785D01*
X004991Y002751D01*
X004761Y002981D01*
X004671Y003071D01*
X004554Y003120D01*
X002926Y003120D01*
X002809Y003071D01*
X002357Y002620D01*
X002018Y002620D01*
X002007Y002646D01*
X002024Y002995D02*
X002732Y002995D01*
X002990Y002800D02*
X002490Y002300D01*
X001490Y002300D01*
X002089Y003153D02*
X012490Y003153D01*
X012490Y002995D02*
X004748Y002995D01*
X004907Y002836D02*
X009047Y002836D01*
X008927Y002678D02*
X008065Y002678D01*
X007800Y002300D02*
X007740Y002240D01*
X007740Y001550D01*
X007490Y001300D01*
X004990Y001300D01*
X005240Y001550D01*
X005240Y002240D01*
X005600Y002202D02*
X006380Y002202D01*
X006380Y002044D02*
X005600Y002044D01*
X005599Y001885D02*
X006381Y001885D01*
X006496Y001727D02*
X005560Y001727D01*
X005600Y002361D02*
X006380Y002361D01*
X006380Y002519D02*
X005600Y002519D01*
X005565Y002678D02*
X006415Y002678D01*
X006990Y003550D02*
X003990Y003550D01*
X003490Y004050D01*
X003490Y005550D01*
X003740Y005800D01*
X005364Y005800D01*
X005490Y005926D01*
X004974Y006323D02*
X000970Y006323D01*
X000970Y006165D02*
X004955Y006165D01*
X004955Y006482D02*
X000970Y006482D01*
X000970Y006640D02*
X004955Y006640D01*
X004955Y006799D02*
X000970Y006799D01*
X000970Y006957D02*
X004955Y006957D01*
X005041Y007116D02*
X000970Y007116D01*
X000970Y007274D02*
X005170Y007274D01*
X005170Y007433D02*
X000970Y007433D01*
X000970Y007591D02*
X004879Y007591D01*
X004793Y007750D02*
X000970Y007750D01*
X000970Y007908D02*
X004793Y007908D01*
X004793Y008067D02*
X000970Y008067D01*
X000970Y008225D02*
X004793Y008225D01*
X004793Y008384D02*
X000970Y008384D01*
X000970Y008542D02*
X004793Y008542D01*
X004793Y008701D02*
X000970Y008701D01*
X000970Y008859D02*
X004793Y008859D01*
X004793Y009018D02*
X000970Y009018D01*
X000970Y009176D02*
X004793Y009176D01*
X004798Y009335D02*
X000970Y009335D01*
X000970Y009493D02*
X004929Y009493D01*
X005490Y008526D02*
X005490Y006674D01*
X006490Y005800D02*
X006740Y005550D01*
X006740Y005300D01*
X009490Y005300D01*
X009870Y004738D02*
X012490Y004738D01*
X012490Y004580D02*
X007600Y004580D01*
X007590Y004738D02*
X009110Y004738D01*
X008938Y004897D02*
X007428Y004897D01*
X007600Y004421D02*
X012490Y004421D01*
X012490Y004263D02*
X007600Y004263D01*
X007600Y004104D02*
X012490Y004104D01*
X012490Y003946D02*
X007574Y003946D01*
X007560Y003787D02*
X012490Y003787D01*
X012490Y003629D02*
X007515Y003629D01*
X007363Y003470D02*
X012490Y003470D01*
X012490Y003312D02*
X007204Y003312D01*
X006990Y003550D02*
X007240Y003800D01*
X007240Y004360D01*
X006740Y004360D02*
X006740Y005300D01*
X007029Y005689D02*
X008932Y005689D01*
X009075Y005848D02*
X006895Y005848D01*
X006810Y006006D02*
X012490Y006006D01*
X012490Y005848D02*
X009905Y005848D01*
X010048Y005689D02*
X012490Y005689D01*
X012490Y005531D02*
X010055Y005531D01*
X010055Y005372D02*
X012490Y005372D01*
X012490Y005214D02*
X010055Y005214D01*
X010055Y005055D02*
X012490Y005055D01*
X012490Y004897D02*
X010042Y004897D01*
X009933Y002836D02*
X012490Y002836D01*
X012490Y002678D02*
X010053Y002678D01*
X010055Y002519D02*
X012490Y002519D01*
X012490Y002361D02*
X010055Y002361D01*
X010055Y002202D02*
X012490Y002202D01*
X012490Y002044D02*
X010055Y002044D01*
X010037Y001885D02*
X012490Y001885D01*
X012490Y001727D02*
X008060Y001727D01*
X008060Y001568D02*
X012490Y001568D01*
X012490Y001410D02*
X008028Y001410D01*
X007894Y001251D02*
X012490Y001251D01*
X012490Y001093D02*
X007735Y001093D01*
X008099Y001885D02*
X008943Y001885D01*
X009490Y002300D02*
X007800Y002300D01*
X006996Y001727D02*
X006984Y001727D01*
X004990Y001300D02*
X001490Y001300D01*
X001987Y000934D02*
X012490Y000934D01*
X012490Y006165D02*
X006810Y006165D01*
X006810Y006323D02*
X012490Y006323D01*
X012490Y006482D02*
X006810Y006482D01*
X006810Y006640D02*
X012490Y006640D01*
X012490Y006799D02*
X006810Y006799D01*
X006810Y006957D02*
X012490Y006957D01*
X012490Y007116D02*
X006810Y007116D01*
X006810Y007274D02*
X012490Y007274D01*
X012490Y007433D02*
X006810Y007433D01*
X006810Y007591D02*
X012490Y007591D01*
X012490Y007750D02*
X006810Y007750D01*
X006810Y007908D02*
X012490Y007908D01*
X012490Y008067D02*
X006810Y008067D01*
X006810Y008225D02*
X012490Y008225D01*
X012490Y008384D02*
X006810Y008384D01*
X006810Y008542D02*
X012490Y008542D01*
X012490Y008701D02*
X006810Y008701D01*
X006810Y008859D02*
X012490Y008859D01*
X012490Y009018D02*
X006810Y009018D01*
X006810Y009176D02*
X012490Y009176D01*
X012490Y009335D02*
X006810Y009335D01*
X006810Y009493D02*
X012490Y009493D01*
X012490Y009652D02*
X006810Y009652D01*
X006810Y009810D02*
X012490Y009810D01*
X012490Y009969D02*
X006810Y009969D01*
X006810Y010127D02*
X012490Y010127D01*
X012490Y010286D02*
X006810Y010286D01*
X006810Y010444D02*
X012490Y010444D01*
X012490Y010800D02*
X012490Y018190D01*
X000990Y018190D01*
X000990Y010800D01*
X012490Y010800D01*
X012490Y010920D02*
X000990Y010920D01*
X000990Y011078D02*
X012490Y011078D01*
X012490Y011237D02*
X000990Y011237D01*
X000990Y011395D02*
X012490Y011395D01*
X012490Y011554D02*
X000990Y011554D01*
X000990Y011712D02*
X012490Y011712D01*
X012490Y011871D02*
X000990Y011871D01*
X000990Y012029D02*
X012490Y012029D01*
X012490Y012188D02*
X000990Y012188D01*
X000990Y012346D02*
X012490Y012346D01*
X012490Y012505D02*
X000990Y012505D01*
X000990Y012663D02*
X012490Y012663D01*
X012490Y012822D02*
X000990Y012822D01*
X000990Y012980D02*
X012490Y012980D01*
X012490Y013139D02*
X000990Y013139D01*
X000990Y013297D02*
X012490Y013297D01*
X012490Y013456D02*
X000990Y013456D01*
X000990Y013614D02*
X012490Y013614D01*
X012490Y013773D02*
X000990Y013773D01*
X000990Y013931D02*
X012490Y013931D01*
X012490Y014090D02*
X000990Y014090D01*
X000990Y014248D02*
X012490Y014248D01*
X012490Y014407D02*
X000990Y014407D01*
X000990Y014565D02*
X012490Y014565D01*
X012490Y014724D02*
X000990Y014724D01*
X000990Y014882D02*
X012490Y014882D01*
X012490Y015041D02*
X000990Y015041D01*
X000990Y015199D02*
X012490Y015199D01*
X012490Y015358D02*
X000990Y015358D01*
X000990Y015516D02*
X012490Y015516D01*
X012490Y015675D02*
X000990Y015675D01*
X000990Y015833D02*
X012490Y015833D01*
X012490Y015992D02*
X000990Y015992D01*
X000990Y016150D02*
X012490Y016150D01*
X012490Y016309D02*
X000990Y016309D01*
X000990Y016467D02*
X012490Y016467D01*
X012490Y016626D02*
X000990Y016626D01*
X000990Y016784D02*
X012490Y016784D01*
X012490Y016943D02*
X000990Y016943D01*
X000990Y017101D02*
X012490Y017101D01*
X012490Y017260D02*
X000990Y017260D01*
X000990Y017418D02*
X012490Y017418D01*
X012490Y017577D02*
X000990Y017577D01*
X000990Y017735D02*
X012490Y017735D01*
X012490Y017894D02*
X000990Y017894D01*
X000990Y018052D02*
X012490Y018052D01*
X006490Y012924D02*
X006490Y005800D01*
X004490Y002800D02*
X002990Y002800D01*
X003617Y003470D02*
X002080Y003470D01*
X002100Y003312D02*
X003776Y003312D01*
X003459Y003629D02*
X002014Y003629D01*
X001866Y003787D02*
X003300Y003787D01*
X003187Y003946D02*
X000970Y003946D01*
X000970Y004104D02*
X003170Y004104D01*
X003170Y004263D02*
X000970Y004263D01*
X000970Y004421D02*
X003170Y004421D01*
X003170Y004580D02*
X000970Y004580D01*
X000970Y004738D02*
X003170Y004738D01*
X003170Y004897D02*
X000970Y004897D01*
X000970Y005055D02*
X003170Y005055D01*
X003170Y005214D02*
X000970Y005214D01*
X000970Y005372D02*
X003170Y005372D01*
X003170Y005531D02*
X000970Y005531D01*
X000970Y005689D02*
X003201Y005689D01*
X003335Y005848D02*
X000970Y005848D01*
X000970Y006006D02*
X003493Y006006D01*
X004490Y002800D02*
X004740Y002550D01*
X004740Y002240D01*
X001114Y003787D02*
X000970Y003787D01*
X000970Y009652D02*
X006170Y009652D01*
X006170Y009810D02*
X000970Y009810D01*
X000970Y009969D02*
X006170Y009969D01*
X006170Y010127D02*
X000970Y010127D01*
X000970Y010286D02*
X006170Y010286D01*
X006170Y010444D02*
X000970Y010444D01*
X006051Y009493D02*
X006170Y009493D01*
D18*
X011490Y008800D03*
X011490Y012300D03*
M02*
