G75*
%MOIN*%
%OFA0B0*%
%FSLAX24Y24*%
%IPPOS*%
%LPD*%
%AMOC8*
5,1,8,0,0,1.08239X$1,22.5*
%
%ADD10C,0.0000*%
%ADD11R,0.0110X0.0660*%
%ADD12R,0.0660X0.0110*%
%ADD13R,0.0140X0.0492*%
%ADD14R,0.0492X0.0140*%
%ADD15R,0.1240X0.1240*%
%ADD16R,0.0315X0.0472*%
%ADD17R,0.0650X0.0650*%
%ADD18C,0.0650*%
%ADD19R,0.0472X0.0315*%
%ADD20C,0.0740*%
%ADD21OC8,0.0520*%
%ADD22R,0.0090X0.0580*%
%ADD23R,0.0580X0.0090*%
%ADD24R,0.0709X0.0630*%
%ADD25R,0.0800X0.0800*%
%ADD26C,0.0800*%
%ADD27C,0.0100*%
%ADD28R,0.0396X0.0396*%
%ADD29C,0.0120*%
%ADD30OC8,0.0396*%
%ADD31C,0.0080*%
D10*
X000156Y000160D02*
X024020Y000160D01*
X024020Y019402D01*
X000156Y019402D01*
X000156Y000160D01*
D11*
X007290Y006950D03*
X007490Y006950D03*
X007690Y006950D03*
X007880Y006950D03*
X008080Y006950D03*
X008280Y006950D03*
X008470Y006950D03*
X008670Y006950D03*
X008870Y006950D03*
X009070Y006950D03*
X009260Y006950D03*
X009460Y006950D03*
X009660Y006950D03*
X009850Y006950D03*
X010050Y006950D03*
X010250Y006950D03*
X010250Y011370D03*
X010050Y011370D03*
X009850Y011370D03*
X009660Y011370D03*
X009460Y011370D03*
X009260Y011370D03*
X009070Y011370D03*
X008870Y011370D03*
X008670Y011370D03*
X008470Y011370D03*
X008280Y011370D03*
X008080Y011370D03*
X007880Y011370D03*
X007690Y011370D03*
X007490Y011370D03*
X007290Y011370D03*
D12*
X006560Y010640D03*
X006560Y010440D03*
X006560Y010240D03*
X006560Y010050D03*
X006560Y009850D03*
X006560Y009650D03*
X006560Y009460D03*
X006560Y009260D03*
X006560Y009060D03*
X006560Y008860D03*
X006560Y008670D03*
X006560Y008470D03*
X006560Y008270D03*
X006560Y008080D03*
X006560Y007880D03*
X006560Y007680D03*
X010980Y007680D03*
X010980Y007880D03*
X010980Y008080D03*
X010980Y008270D03*
X010980Y008470D03*
X010980Y008670D03*
X010980Y008860D03*
X010980Y009060D03*
X010980Y009260D03*
X010980Y009460D03*
X010980Y009650D03*
X010980Y009850D03*
X010980Y010050D03*
X010980Y010240D03*
X010980Y010440D03*
X010980Y010640D03*
D13*
X002530Y005651D03*
X002280Y005651D03*
X002020Y005651D03*
X001760Y005651D03*
X001510Y005651D03*
X001510Y003669D03*
X001760Y003669D03*
X002020Y003669D03*
X002280Y003669D03*
X002530Y003669D03*
D14*
X003011Y004150D03*
X003011Y004400D03*
X003011Y004660D03*
X003011Y004920D03*
X003011Y005170D03*
X001029Y005170D03*
X001029Y004920D03*
X001029Y004660D03*
X001029Y004400D03*
X001029Y004150D03*
D15*
X002020Y004660D03*
D16*
X002144Y002840D03*
X001436Y002840D03*
X004466Y006760D03*
X005174Y006760D03*
X005174Y007610D03*
X004466Y007610D03*
X004466Y008960D03*
X005174Y008960D03*
X005174Y009760D03*
X004466Y009760D03*
X004684Y010800D03*
X004684Y011440D03*
X003976Y011440D03*
X003976Y010800D03*
X004195Y012310D03*
X003486Y012310D03*
X002314Y009920D03*
X001606Y009920D03*
X001606Y009190D03*
X002314Y009190D03*
X002314Y008450D03*
X001606Y008450D03*
X001606Y007730D03*
X002314Y007730D03*
X002314Y006970D03*
X001606Y006970D03*
X007346Y014370D03*
X008054Y014370D03*
X012956Y014680D03*
X013664Y014680D03*
X020076Y009250D03*
X020784Y009250D03*
X020764Y008150D03*
X020056Y008150D03*
X017374Y003410D03*
X016666Y003410D03*
X016124Y003410D03*
X015416Y003410D03*
D17*
X012270Y002160D03*
D18*
X013270Y002160D03*
D19*
X014270Y003306D03*
X014270Y004014D03*
X014790Y005386D03*
X014790Y006094D03*
X016090Y004594D03*
X016090Y003886D03*
X017190Y005366D03*
X017190Y006074D03*
X019770Y006014D03*
X019770Y005306D03*
X019770Y004764D03*
X019770Y004056D03*
X020510Y011486D03*
X020510Y012194D03*
X017780Y012956D03*
X017780Y013664D03*
X016670Y013674D03*
X016670Y012966D03*
X007620Y012806D03*
X007620Y013514D03*
X006320Y013514D03*
X005670Y013514D03*
X005670Y012806D03*
X006320Y012806D03*
X004845Y015743D03*
X004845Y016451D03*
X004845Y017743D03*
X004845Y018451D03*
X005670Y005364D03*
X006320Y005364D03*
X007220Y005364D03*
X007860Y005364D03*
X007860Y004656D03*
X007220Y004656D03*
X006320Y004656D03*
X005670Y004656D03*
X003800Y004884D03*
X003800Y004176D03*
X008490Y004114D03*
X008490Y003406D03*
X010320Y004406D03*
X010320Y005114D03*
D20*
X016770Y002260D03*
X017770Y002160D03*
X018770Y002260D03*
X019770Y002160D03*
X020770Y002260D03*
X021770Y002160D03*
X017020Y016110D03*
X016020Y016210D03*
X015020Y016110D03*
X014020Y016210D03*
X003845Y016597D03*
X003845Y015597D03*
X003845Y014597D03*
X003845Y013597D03*
X003845Y017597D03*
X003845Y018597D03*
X003520Y001160D03*
X002520Y001160D03*
X001520Y001160D03*
D21*
X012270Y004660D03*
X012770Y005410D03*
X013270Y004660D03*
D22*
X014630Y006810D03*
X014790Y006810D03*
X014950Y006810D03*
X015100Y006810D03*
X015260Y006810D03*
X015420Y006810D03*
X015580Y006810D03*
X015730Y006810D03*
X015890Y006810D03*
X016050Y006810D03*
X016210Y006810D03*
X016360Y006810D03*
X016520Y006810D03*
X016680Y006810D03*
X016830Y006810D03*
X016990Y006810D03*
X017150Y006810D03*
X017310Y006810D03*
X017460Y006810D03*
X017620Y006810D03*
X017780Y006810D03*
X017940Y006810D03*
X018090Y006810D03*
X018250Y006810D03*
X018410Y006810D03*
X018410Y012010D03*
X018250Y012010D03*
X018090Y012010D03*
X017940Y012010D03*
X017780Y012010D03*
X017620Y012010D03*
X017460Y012010D03*
X017310Y012010D03*
X017150Y012010D03*
X016990Y012010D03*
X016830Y012010D03*
X016680Y012010D03*
X016520Y012010D03*
X016360Y012010D03*
X016210Y012010D03*
X016050Y012010D03*
X015890Y012010D03*
X015730Y012010D03*
X015580Y012010D03*
X015420Y012010D03*
X015260Y012010D03*
X015100Y012010D03*
X014950Y012010D03*
X014790Y012010D03*
X014630Y012010D03*
D23*
X013920Y011300D03*
X013920Y011140D03*
X013920Y010980D03*
X013920Y010830D03*
X013920Y010670D03*
X013920Y010510D03*
X013920Y010350D03*
X013920Y010200D03*
X013920Y010040D03*
X013920Y009880D03*
X013920Y009720D03*
X013920Y009570D03*
X013920Y009410D03*
X013920Y009250D03*
X013920Y009100D03*
X013920Y008940D03*
X013920Y008780D03*
X013920Y008620D03*
X013920Y008470D03*
X013920Y008310D03*
X013920Y008150D03*
X013920Y007990D03*
X013920Y007840D03*
X013920Y007680D03*
X013920Y007520D03*
X019120Y007520D03*
X019120Y007680D03*
X019120Y007840D03*
X019120Y007990D03*
X019120Y008150D03*
X019120Y008310D03*
X019120Y008470D03*
X019120Y008620D03*
X019120Y008780D03*
X019120Y008940D03*
X019120Y009100D03*
X019120Y009250D03*
X019120Y009410D03*
X019120Y009570D03*
X019120Y009720D03*
X019120Y009880D03*
X019120Y010040D03*
X019120Y010200D03*
X019120Y010350D03*
X019120Y010510D03*
X019120Y010670D03*
X019120Y010830D03*
X019120Y010980D03*
X019120Y011140D03*
X019120Y011300D03*
D24*
X013270Y012609D03*
X013270Y013711D03*
D25*
X001794Y012867D03*
D26*
X001794Y014835D03*
X001794Y016804D03*
D27*
X002587Y017597D01*
X003845Y017597D01*
X004240Y018451D02*
X004095Y018597D01*
X003845Y018597D01*
X004240Y018451D02*
X004845Y018451D01*
X004849Y018455D01*
X005483Y018455D01*
X008470Y015468D01*
X008470Y011370D01*
X008280Y011370D02*
X008280Y014144D01*
X008054Y014370D01*
X009260Y015650D02*
X011270Y017660D01*
X020770Y017660D01*
X022020Y016410D01*
X022020Y010410D01*
X021810Y010200D01*
X019120Y010200D01*
X019120Y010350D02*
X021460Y010350D01*
X021770Y010660D01*
X021770Y016160D01*
X020510Y017420D01*
X011440Y017420D01*
X009460Y015440D01*
X009460Y011370D01*
X009660Y011370D02*
X009660Y010850D01*
X009660Y010770D01*
X009770Y010660D01*
X009680Y010830D02*
X009660Y010850D01*
X010040Y010840D02*
X010050Y010850D01*
X010050Y011370D01*
X010050Y011880D01*
X010020Y011910D01*
X010020Y012160D01*
X009850Y011370D02*
X009850Y015490D01*
X011520Y017160D01*
X019270Y017160D01*
X019770Y016660D01*
X019770Y011050D01*
X019550Y010830D01*
X019120Y010830D01*
X019120Y010670D02*
X020030Y010670D01*
X020520Y011160D01*
X020520Y011476D01*
X020510Y011486D01*
X020434Y011410D01*
X020270Y011410D01*
X020020Y011660D01*
X020020Y012910D01*
X020270Y013160D01*
X020270Y013410D01*
X019020Y013160D02*
X019020Y014660D01*
X018270Y014660D02*
X018270Y012720D01*
X018090Y012540D01*
X018090Y012010D01*
X018250Y012010D02*
X018250Y012390D01*
X019020Y013160D01*
X017780Y012956D02*
X017270Y012956D01*
X017230Y012916D01*
X017230Y012810D01*
X017270Y012956D02*
X016680Y012956D01*
X016670Y012966D01*
X016680Y012956D02*
X016680Y012010D01*
X016210Y012010D02*
X016210Y012520D01*
X016190Y012540D01*
X016210Y012010D02*
X016210Y011470D01*
X015420Y012010D02*
X015420Y013560D01*
X017020Y015160D01*
X017020Y016110D01*
X015100Y016030D02*
X015020Y016110D01*
X015100Y016030D02*
X015100Y012010D01*
X014630Y012010D02*
X014530Y012010D01*
X014530Y012000D01*
X014520Y011990D01*
X014570Y011530D02*
X014020Y012080D01*
X014020Y013410D01*
X014020Y014660D01*
X014000Y014680D01*
X013664Y014680D01*
X013270Y012609D02*
X013270Y012130D01*
X013340Y012060D01*
X013720Y012060D01*
X014390Y011390D01*
X014390Y009930D01*
X014340Y009880D01*
X013920Y009880D01*
X013920Y009720D02*
X014470Y009720D01*
X014570Y009820D01*
X014570Y011530D01*
X012080Y009040D02*
X011860Y009260D01*
X010980Y009260D01*
X010980Y009060D02*
X010420Y009060D01*
X010990Y010040D02*
X010980Y010050D01*
X009260Y011370D02*
X009260Y015650D01*
X008670Y016060D02*
X008670Y011370D01*
X008080Y011370D02*
X008080Y009850D01*
X008270Y009660D01*
X007880Y010130D02*
X007880Y011370D01*
X007880Y012546D01*
X007620Y012806D01*
X007020Y012670D02*
X006930Y012760D01*
X006930Y015937D01*
X006420Y016447D01*
X004849Y016447D01*
X004845Y016451D01*
X003990Y016451D01*
X003845Y016597D01*
X003845Y015597D02*
X002555Y015597D01*
X001794Y014835D01*
X002876Y014129D02*
X002876Y013227D01*
X003258Y012845D01*
X004109Y012845D01*
X004195Y012758D01*
X004195Y012310D01*
X004395Y012110D01*
X004790Y012110D01*
X006260Y010640D01*
X006560Y010640D01*
X006560Y010440D02*
X005990Y010440D01*
X005020Y011410D01*
X004714Y011410D01*
X004684Y011440D01*
X004684Y010800D02*
X004684Y010574D01*
X004520Y010410D01*
X003270Y010410D01*
X003270Y009160D01*
X004140Y008290D01*
X003770Y007920D01*
X003770Y007160D01*
X002530Y006150D02*
X002270Y006410D01*
X002020Y006160D01*
X002020Y005651D01*
X002530Y005651D02*
X002530Y005660D01*
X002770Y005660D01*
X003020Y005410D01*
X003020Y005230D01*
X003011Y005170D01*
X002530Y005651D02*
X002530Y006150D01*
X002270Y006410D02*
X002270Y006806D01*
X002314Y006970D01*
X002314Y007730D01*
X002314Y008450D01*
X002314Y009190D01*
X002314Y009920D01*
X002314Y010454D01*
X002520Y010660D01*
X003020Y010660D01*
X003270Y010410D01*
X004684Y010800D02*
X004694Y010790D01*
X005180Y010790D01*
X005920Y010050D01*
X006560Y010050D01*
X007800Y010050D01*
X007880Y010130D01*
X007520Y010410D02*
X007520Y010630D01*
X007690Y010800D01*
X007690Y011370D01*
X007490Y011370D02*
X007490Y012190D01*
X007020Y012660D01*
X007020Y012670D01*
X006374Y012806D02*
X006320Y012806D01*
X005670Y012806D01*
X004874Y012806D01*
X004770Y012910D01*
X006374Y012806D02*
X007290Y011890D01*
X007290Y011370D01*
X008080Y011370D02*
X008080Y010790D01*
X008100Y010770D01*
X007520Y010410D02*
X007360Y010250D01*
X007080Y010250D01*
X007070Y010240D01*
X006560Y010240D01*
X006560Y009850D02*
X006560Y009650D01*
X006560Y009460D01*
X006560Y009260D02*
X005670Y009260D01*
X005520Y009410D01*
X005520Y009414D01*
X005174Y009760D01*
X005274Y009060D02*
X005174Y008960D01*
X005170Y008956D01*
X005170Y008590D01*
X004990Y008410D01*
X004990Y008290D01*
X004140Y008290D01*
X004990Y008290D02*
X005174Y008106D01*
X005174Y007610D01*
X005500Y007610D01*
X005600Y007710D01*
X005600Y007880D01*
X005990Y008270D01*
X006560Y008270D01*
X006560Y008080D02*
X007080Y008080D01*
X006560Y007880D02*
X005960Y007880D01*
X005890Y007810D01*
X005890Y007000D01*
X005650Y006760D01*
X005174Y006760D01*
X006560Y007580D02*
X006560Y007680D01*
X006560Y008470D02*
X006560Y008670D01*
X006560Y008860D01*
X006560Y009060D02*
X005274Y009060D01*
X007570Y007440D02*
X007580Y007430D01*
X007580Y006990D01*
X007540Y006950D01*
X007490Y006950D01*
X007690Y006950D01*
X007680Y006950D01*
X007610Y007020D01*
X007610Y007330D01*
X007600Y007340D01*
X007880Y006950D02*
X007880Y006024D01*
X007220Y005364D01*
X006844Y005364D01*
X006790Y005310D01*
X006790Y003910D01*
X006680Y003800D01*
X007770Y003910D02*
X007770Y002910D01*
X007770Y003910D02*
X008020Y004160D01*
X008444Y004160D01*
X008490Y004114D01*
X008490Y005810D01*
X008870Y006190D01*
X008870Y006950D01*
X009070Y006950D02*
X009070Y007450D01*
X008950Y007570D01*
X008690Y007570D01*
X008580Y007460D01*
X008580Y007230D01*
X008670Y007140D01*
X008670Y006950D01*
X008470Y006950D01*
X008470Y007090D01*
X008570Y007190D01*
X008570Y007460D01*
X008520Y007510D01*
X008110Y007510D01*
X008080Y007480D01*
X008080Y006950D01*
X008280Y006950D02*
X008280Y006010D01*
X007860Y005590D01*
X007860Y005364D01*
X007290Y006334D02*
X006320Y005364D01*
X005670Y005364D01*
X005624Y005410D01*
X005020Y005410D01*
X004770Y005160D01*
X004770Y003410D01*
X003520Y002160D01*
X003520Y001160D01*
X002960Y001600D02*
X002520Y001160D01*
X001790Y001890D01*
X001790Y003190D01*
X002020Y003420D01*
X002020Y003669D01*
X002280Y003669D02*
X002280Y002976D01*
X002144Y002840D01*
X002530Y003669D02*
X002530Y001160D01*
X002520Y001160D01*
X002960Y001600D02*
X003011Y004150D01*
X003300Y004150D01*
X003300Y004176D01*
X003800Y004176D01*
X002020Y004660D02*
X001510Y004150D01*
X001029Y004150D01*
X007290Y006334D02*
X007290Y006950D01*
X009020Y005910D02*
X009020Y001160D01*
X009520Y000660D01*
X023270Y000660D01*
X023520Y000910D01*
X023520Y009660D01*
X023140Y010040D01*
X019120Y010040D01*
X019120Y009880D02*
X022800Y009880D01*
X023270Y009410D01*
X023270Y001160D01*
X023020Y000910D01*
X022988Y000942D01*
X009608Y000942D01*
X009640Y000910D01*
X009608Y000942D02*
X009270Y001280D01*
X009270Y005910D01*
X009460Y006100D01*
X009460Y006950D01*
X009660Y006950D02*
X009660Y001330D01*
X009840Y001150D01*
X022760Y001150D01*
X023020Y001410D01*
X023020Y009160D01*
X022460Y009720D01*
X019120Y009720D01*
X019120Y009250D02*
X020076Y009250D01*
X020076Y008684D01*
X020083Y008691D01*
X020797Y008691D01*
X020076Y008684D02*
X020076Y008170D01*
X020056Y008150D01*
X020020Y008114D01*
X020056Y008150D02*
X019120Y008150D01*
X019120Y008310D02*
X019640Y008310D01*
X019640Y008790D01*
X019650Y008800D01*
X019650Y009070D01*
X019630Y009090D01*
X019650Y009100D02*
X019660Y009090D01*
X019650Y009100D02*
X019120Y009100D01*
X018580Y009100D01*
X018520Y009160D01*
X018520Y009410D01*
X018520Y009160D02*
X018520Y008400D01*
X018610Y008310D01*
X019120Y008310D01*
X019640Y008310D02*
X019650Y008300D01*
X019160Y007520D02*
X019120Y007520D01*
X019160Y007520D02*
X019770Y006910D01*
X019770Y006014D01*
X019770Y005306D02*
X019770Y004764D01*
X017770Y004660D02*
X017520Y004410D01*
X017270Y004410D01*
X017374Y004306D01*
X017374Y003410D01*
X016666Y003410D02*
X016666Y003056D01*
X016520Y002910D01*
X016270Y002910D01*
X016020Y002660D01*
X016020Y001660D01*
X016270Y001410D01*
X021520Y001410D01*
X021770Y001660D01*
X021770Y002160D01*
X018770Y002260D02*
X018410Y002620D01*
X018410Y006810D01*
X018250Y006810D02*
X018250Y002640D01*
X017770Y002160D01*
X016666Y003410D02*
X016124Y003410D01*
X016090Y003444D01*
X016090Y003886D01*
X016090Y004594D02*
X016520Y005024D01*
X016520Y006810D01*
X016830Y006810D02*
X016830Y006470D01*
X016770Y006410D01*
X016770Y005660D01*
X016770Y004910D01*
X016770Y005660D02*
X016830Y005720D01*
X016830Y006810D01*
X016830Y007360D01*
X016850Y007380D01*
X016990Y006810D02*
X016990Y006274D01*
X017190Y006074D01*
X017606Y006074D01*
X017770Y005910D01*
X017770Y004660D01*
X016060Y005830D02*
X015890Y006000D01*
X015890Y006810D01*
X015730Y006810D02*
X015730Y006250D01*
X015560Y006080D01*
X015560Y005450D01*
X015020Y004660D01*
X014270Y004410D02*
X014270Y004014D01*
X014270Y004410D02*
X014020Y004660D01*
X013270Y004660D01*
X012270Y004660D02*
X012080Y004850D01*
X012080Y005660D01*
X012330Y005910D01*
X013520Y005910D01*
X013704Y006094D01*
X014790Y006094D01*
X014790Y006810D01*
X012270Y004660D02*
X012270Y002160D01*
X014270Y002160D02*
X014270Y003306D01*
X010320Y005114D02*
X010320Y005700D01*
X010350Y005730D01*
X009850Y006230D01*
X009850Y006950D01*
X010050Y006950D02*
X010050Y007480D01*
X010040Y007490D01*
X009260Y006950D02*
X009260Y006150D01*
X009020Y005910D01*
X017780Y012010D02*
X017780Y012956D01*
X020370Y010510D02*
X020520Y010660D01*
X020370Y010510D02*
X019120Y010510D01*
X018620Y010510D01*
X018520Y010410D01*
X018520Y010160D01*
X009020Y016410D02*
X008670Y016060D01*
X003845Y014597D02*
X003345Y014597D01*
X002876Y014129D01*
D28*
X004770Y012910D03*
X006520Y011660D03*
X008583Y009467D03*
X008583Y008857D03*
X008583Y008247D03*
X006520Y006660D03*
X003770Y007160D03*
X004020Y009410D03*
X002024Y004652D03*
X005840Y002660D03*
X006680Y003800D03*
X007770Y002910D03*
X006340Y000910D03*
X005590Y000910D03*
X004840Y000910D03*
X010350Y005730D03*
X014270Y002160D03*
X015020Y004660D03*
X016060Y005830D03*
X017270Y004410D03*
X021248Y003731D03*
X020797Y008691D03*
X023372Y012394D03*
X020270Y013410D03*
X019020Y014660D03*
X018270Y014660D03*
X017230Y012810D03*
X014020Y013410D03*
X009020Y016410D03*
X008270Y016910D03*
X008270Y017660D03*
X005264Y017174D03*
X005248Y015174D03*
D29*
X004435Y015480D02*
X004435Y015714D01*
X004345Y015931D01*
X004179Y016097D01*
X004263Y016181D01*
X004410Y016181D01*
X004517Y016074D01*
X005172Y016074D01*
X005276Y016177D01*
X006308Y016177D01*
X006660Y015825D01*
X006660Y013170D01*
X006647Y013183D01*
X005343Y013183D01*
X005235Y013076D01*
X005188Y013076D01*
X005188Y013199D01*
X005059Y013328D01*
X004481Y013328D01*
X004352Y013199D01*
X004352Y012984D01*
X004348Y012987D01*
X004261Y013074D01*
X004187Y013105D01*
X004345Y013263D01*
X004435Y013480D01*
X004435Y013714D01*
X004345Y013931D01*
X004179Y014097D01*
X004345Y014263D01*
X004435Y014480D01*
X004435Y014714D01*
X004345Y014931D01*
X004179Y015097D01*
X004345Y015263D01*
X004435Y015480D01*
X004421Y015447D02*
X006660Y015447D01*
X006660Y015565D02*
X004435Y015565D01*
X004435Y015684D02*
X006660Y015684D01*
X006660Y015802D02*
X004398Y015802D01*
X004349Y015921D02*
X006565Y015921D01*
X006446Y016039D02*
X004237Y016039D01*
X004240Y016158D02*
X004434Y016158D01*
X004425Y016737D02*
X004345Y016931D01*
X004179Y017097D01*
X004345Y017263D01*
X004435Y017480D01*
X004435Y017714D01*
X004345Y017931D01*
X004179Y018097D01*
X004263Y018181D01*
X004410Y018181D01*
X004517Y018074D01*
X005172Y018074D01*
X005283Y018185D01*
X005371Y018185D01*
X008200Y015356D01*
X008200Y014826D01*
X007806Y014826D01*
X007677Y014697D01*
X007677Y014043D01*
X007806Y013914D01*
X008010Y013914D01*
X008010Y013120D01*
X007947Y013183D01*
X007293Y013183D01*
X007200Y013090D01*
X007200Y015991D01*
X007159Y016090D01*
X006648Y016600D01*
X006572Y016676D01*
X006473Y016717D01*
X005283Y016717D01*
X005172Y016829D01*
X004517Y016829D01*
X004425Y016737D01*
X004420Y016750D02*
X004439Y016750D01*
X004371Y016869D02*
X006687Y016869D01*
X006569Y016987D02*
X004289Y016987D01*
X004188Y017106D02*
X006450Y017106D01*
X006332Y017224D02*
X004306Y017224D01*
X004378Y017343D02*
X006213Y017343D01*
X006095Y017461D02*
X004427Y017461D01*
X004435Y017580D02*
X005976Y017580D01*
X005858Y017698D02*
X004435Y017698D01*
X004392Y017817D02*
X005739Y017817D01*
X005621Y017935D02*
X004341Y017935D01*
X004223Y018054D02*
X005502Y018054D01*
X005384Y018172D02*
X005270Y018172D01*
X005792Y018528D02*
X023560Y018528D01*
X023560Y018646D02*
X005674Y018646D01*
X005711Y018608D02*
X005635Y018684D01*
X005536Y018725D01*
X005276Y018725D01*
X005172Y018829D01*
X004517Y018829D01*
X004425Y018737D01*
X004345Y018931D01*
X004334Y018942D01*
X023560Y018942D01*
X023560Y010002D01*
X023293Y010269D01*
X023194Y010310D01*
X022271Y010310D01*
X022290Y010356D01*
X022290Y016464D01*
X022249Y016563D01*
X022173Y016639D01*
X020923Y017889D01*
X020824Y017930D01*
X011216Y017930D01*
X011117Y017889D01*
X011041Y017813D01*
X009438Y016210D01*
X009438Y016699D01*
X009309Y016828D01*
X008731Y016828D01*
X008602Y016699D01*
X008602Y016374D01*
X008441Y016213D01*
X008400Y016114D01*
X008400Y015920D01*
X005711Y018608D01*
X005911Y018409D02*
X023560Y018409D01*
X023560Y018291D02*
X006029Y018291D01*
X006148Y018172D02*
X023560Y018172D01*
X023560Y018054D02*
X006266Y018054D01*
X006385Y017935D02*
X023560Y017935D01*
X023560Y017817D02*
X020995Y017817D01*
X021114Y017698D02*
X023560Y017698D01*
X023560Y017580D02*
X021232Y017580D01*
X021351Y017461D02*
X023560Y017461D01*
X023560Y017343D02*
X021469Y017343D01*
X021588Y017224D02*
X023560Y017224D01*
X023560Y017106D02*
X021706Y017106D01*
X021825Y016987D02*
X023560Y016987D01*
X023560Y016869D02*
X021943Y016869D01*
X022062Y016750D02*
X023560Y016750D01*
X023560Y016632D02*
X022180Y016632D01*
X022269Y016513D02*
X023560Y016513D01*
X023560Y016395D02*
X022290Y016395D01*
X022290Y016276D02*
X023560Y016276D01*
X023560Y016158D02*
X022290Y016158D01*
X022290Y016039D02*
X023560Y016039D01*
X023560Y015921D02*
X022290Y015921D01*
X022290Y015802D02*
X023560Y015802D01*
X023560Y015684D02*
X022290Y015684D01*
X022290Y015565D02*
X023560Y015565D01*
X023560Y015447D02*
X022290Y015447D01*
X022290Y015328D02*
X023560Y015328D01*
X023560Y015210D02*
X022290Y015210D01*
X022290Y015091D02*
X023560Y015091D01*
X023560Y014973D02*
X022290Y014973D01*
X022290Y014854D02*
X023560Y014854D01*
X023560Y014736D02*
X022290Y014736D01*
X022290Y014617D02*
X023560Y014617D01*
X023560Y014499D02*
X022290Y014499D01*
X022290Y014380D02*
X023560Y014380D01*
X023560Y014262D02*
X022290Y014262D01*
X022290Y014143D02*
X023560Y014143D01*
X023560Y014025D02*
X022290Y014025D01*
X022290Y013906D02*
X023560Y013906D01*
X023560Y013788D02*
X022290Y013788D01*
X022290Y013669D02*
X023560Y013669D01*
X023560Y013551D02*
X022290Y013551D01*
X022290Y013432D02*
X023560Y013432D01*
X023560Y013314D02*
X022290Y013314D01*
X022290Y013195D02*
X023560Y013195D01*
X023560Y013077D02*
X022290Y013077D01*
X022290Y012958D02*
X023560Y012958D01*
X023560Y012840D02*
X022290Y012840D01*
X022290Y012721D02*
X023560Y012721D01*
X023560Y012603D02*
X022290Y012603D01*
X022290Y012484D02*
X023560Y012484D01*
X023560Y012366D02*
X022290Y012366D01*
X022290Y012247D02*
X023560Y012247D01*
X023560Y012129D02*
X022290Y012129D01*
X022290Y012010D02*
X023560Y012010D01*
X023560Y011892D02*
X022290Y011892D01*
X022290Y011773D02*
X023560Y011773D01*
X023560Y011655D02*
X022290Y011655D01*
X022290Y011536D02*
X023560Y011536D01*
X023560Y011418D02*
X022290Y011418D01*
X022290Y011299D02*
X023560Y011299D01*
X023560Y011181D02*
X022290Y011181D01*
X022290Y011062D02*
X023560Y011062D01*
X023560Y010944D02*
X022290Y010944D01*
X022290Y010825D02*
X023560Y010825D01*
X023560Y010707D02*
X022290Y010707D01*
X022290Y010588D02*
X023560Y010588D01*
X023560Y010470D02*
X022290Y010470D01*
X022288Y010351D02*
X023560Y010351D01*
X023560Y010233D02*
X023329Y010233D01*
X023448Y010114D02*
X023560Y010114D01*
X022632Y009166D02*
X020453Y009166D01*
X020508Y009110D02*
X020453Y009054D01*
X020453Y009450D01*
X022348Y009450D01*
X022750Y009048D01*
X022750Y001522D01*
X022648Y001420D01*
X021912Y001420D01*
X021923Y001431D01*
X021999Y001507D01*
X022040Y001606D01*
X022040Y001633D01*
X022104Y001660D01*
X022270Y001826D01*
X022360Y002043D01*
X022360Y002277D01*
X022270Y002494D01*
X022104Y002660D01*
X021887Y002750D01*
X021653Y002750D01*
X021436Y002660D01*
X021299Y002524D01*
X021270Y002594D01*
X021104Y002760D01*
X020887Y002850D01*
X020653Y002850D01*
X020436Y002760D01*
X020270Y002594D01*
X020180Y002377D01*
X020180Y002143D01*
X020270Y001926D01*
X020436Y001760D01*
X020628Y001680D01*
X018911Y001680D01*
X019104Y001760D01*
X019270Y001926D01*
X019360Y002143D01*
X019360Y002377D01*
X019270Y002594D01*
X019104Y002760D01*
X018887Y002850D01*
X018680Y002850D01*
X018680Y006864D01*
X018675Y006876D01*
X018675Y007191D01*
X018546Y007320D01*
X016854Y007320D01*
X016835Y007301D01*
X016816Y007320D01*
X014494Y007320D01*
X014365Y007191D01*
X014365Y006429D01*
X014392Y006402D01*
X014355Y006364D01*
X013651Y006364D01*
X013551Y006323D01*
X013408Y006180D01*
X012276Y006180D01*
X012177Y006139D01*
X011927Y005889D01*
X011851Y005813D01*
X011810Y005714D01*
X011810Y004879D01*
X011790Y004859D01*
X011790Y004461D01*
X012000Y004251D01*
X012000Y002705D01*
X011854Y002705D01*
X011725Y002576D01*
X011725Y001744D01*
X011854Y001615D01*
X012686Y001615D01*
X012815Y001744D01*
X012815Y002576D01*
X012686Y002705D01*
X012540Y002705D01*
X012540Y004251D01*
X012750Y004461D01*
X012750Y004859D01*
X012469Y005140D01*
X012350Y005140D01*
X012350Y005548D01*
X012442Y005640D01*
X013574Y005640D01*
X013673Y005681D01*
X013749Y005757D01*
X013816Y005824D01*
X014355Y005824D01*
X014463Y005717D01*
X015117Y005717D01*
X015246Y005846D01*
X015246Y006300D01*
X015398Y006300D01*
X015331Y006233D01*
X015290Y006134D01*
X015290Y005533D01*
X014979Y005078D01*
X014731Y005078D01*
X014602Y004949D01*
X014602Y004387D01*
X014597Y004392D01*
X014540Y004392D01*
X014540Y004464D01*
X014499Y004563D01*
X014249Y004813D01*
X014173Y004889D01*
X014074Y004930D01*
X013679Y004930D01*
X013469Y005140D01*
X013071Y005140D01*
X012790Y004859D01*
X012790Y004461D01*
X013071Y004180D01*
X013469Y004180D01*
X013679Y004390D01*
X013908Y004390D01*
X013924Y004374D01*
X013814Y004263D01*
X013814Y003766D01*
X013943Y003637D01*
X014597Y003637D01*
X014726Y003766D01*
X014726Y004246D01*
X014731Y004242D01*
X015309Y004242D01*
X015438Y004371D01*
X015438Y004793D01*
X015769Y005277D01*
X015789Y005297D01*
X015799Y005321D01*
X015813Y005342D01*
X015819Y005370D01*
X015830Y005396D01*
X015830Y005412D01*
X016250Y005412D01*
X016250Y005136D01*
X016086Y004972D01*
X015763Y004972D01*
X015634Y004843D01*
X015634Y004346D01*
X015739Y004240D01*
X015634Y004134D01*
X015634Y003637D01*
X015747Y003524D01*
X015747Y003083D01*
X015876Y002954D01*
X015932Y002954D01*
X015867Y002889D01*
X015791Y002813D01*
X015750Y002714D01*
X015750Y001606D01*
X015791Y001507D01*
X015878Y001420D01*
X009952Y001420D01*
X009930Y001442D01*
X009930Y004800D01*
X009993Y004737D01*
X010647Y004737D01*
X010776Y004866D01*
X010776Y005363D01*
X010733Y005406D01*
X010768Y005441D01*
X010768Y006019D01*
X010639Y006148D01*
X010314Y006148D01*
X010120Y006342D01*
X010120Y006400D01*
X010396Y006400D01*
X010525Y006529D01*
X010525Y006703D01*
X012574Y006703D01*
X012669Y006743D01*
X012742Y006816D01*
X013186Y007260D01*
X013534Y007260D01*
X013539Y007255D01*
X014301Y007255D01*
X014430Y007384D01*
X014430Y009450D01*
X014524Y009450D01*
X014623Y009491D01*
X014723Y009591D01*
X014799Y009667D01*
X014840Y009766D01*
X014840Y011500D01*
X016186Y011500D01*
X016205Y011519D01*
X016224Y011500D01*
X018546Y011500D01*
X018675Y011629D01*
X018675Y012391D01*
X018654Y012412D01*
X019173Y012931D01*
X019249Y013007D01*
X019290Y013106D01*
X019290Y014242D01*
X019309Y014242D01*
X019438Y014371D01*
X019438Y014949D01*
X019309Y015078D01*
X018731Y015078D01*
X018645Y014992D01*
X018559Y015078D01*
X017981Y015078D01*
X017852Y014949D01*
X017852Y014371D01*
X017981Y014242D01*
X018000Y014242D01*
X018000Y013333D01*
X017453Y013333D01*
X017348Y013228D01*
X017112Y013228D01*
X016997Y013343D01*
X016343Y013343D01*
X016214Y013214D01*
X016214Y012717D01*
X016343Y012588D01*
X016410Y012588D01*
X016410Y012520D01*
X016224Y012520D01*
X016205Y012501D01*
X016186Y012520D01*
X015690Y012520D01*
X015690Y013448D01*
X017173Y014931D01*
X017249Y015007D01*
X017290Y015106D01*
X017290Y015583D01*
X017354Y015610D01*
X017520Y015776D01*
X017610Y015993D01*
X017610Y016227D01*
X017520Y016444D01*
X017354Y016610D01*
X017137Y016700D01*
X016903Y016700D01*
X016686Y016610D01*
X016549Y016474D01*
X016520Y016544D01*
X016354Y016710D01*
X016137Y016800D01*
X015903Y016800D01*
X015686Y016710D01*
X015520Y016544D01*
X015491Y016474D01*
X015354Y016610D01*
X015137Y016700D01*
X014903Y016700D01*
X014686Y016610D01*
X014549Y016474D01*
X014520Y016544D01*
X014354Y016710D01*
X014137Y016800D01*
X013903Y016800D01*
X013686Y016710D01*
X013520Y016544D01*
X013430Y016327D01*
X013430Y016093D01*
X013520Y015876D01*
X013686Y015710D01*
X013903Y015620D01*
X014137Y015620D01*
X014354Y015710D01*
X014491Y015846D01*
X014520Y015776D01*
X014686Y015610D01*
X014830Y015550D01*
X014830Y012520D01*
X014654Y012520D01*
X014525Y012391D01*
X014525Y011957D01*
X014290Y012192D01*
X014290Y012992D01*
X014309Y012992D01*
X014438Y013121D01*
X014438Y013699D01*
X014309Y013828D01*
X014290Y013828D01*
X014290Y014714D01*
X014249Y014813D01*
X014173Y014889D01*
X014153Y014909D01*
X014054Y014950D01*
X014042Y014950D01*
X014042Y015007D01*
X013913Y015136D01*
X013416Y015136D01*
X013287Y015007D01*
X013287Y014353D01*
X013416Y014224D01*
X013750Y014224D01*
X013750Y013828D01*
X013731Y013828D01*
X013602Y013699D01*
X013602Y013144D01*
X012824Y013144D01*
X012696Y013015D01*
X012696Y012203D01*
X012824Y012074D01*
X013001Y012074D01*
X013041Y011977D01*
X013117Y011901D01*
X013187Y011831D01*
X013286Y011790D01*
X013608Y011790D01*
X013833Y011565D01*
X013539Y011565D01*
X013410Y011436D01*
X013410Y010930D01*
X013218Y010930D01*
X012632Y011516D01*
X012559Y011589D01*
X012463Y011629D01*
X010525Y011629D01*
X010525Y011791D01*
X010396Y011920D01*
X010120Y011920D01*
X010120Y015378D01*
X011632Y016890D01*
X019158Y016890D01*
X019500Y016548D01*
X019500Y011565D01*
X018739Y011565D01*
X018610Y011436D01*
X018610Y010534D01*
X018634Y010510D01*
X018610Y010486D01*
X018610Y009114D01*
X018629Y009095D01*
X018610Y009076D01*
X018610Y008334D01*
X018634Y008310D01*
X018610Y008286D01*
X018610Y007384D01*
X018739Y007255D01*
X019043Y007255D01*
X019500Y006798D01*
X019500Y006392D01*
X019443Y006392D01*
X019314Y006263D01*
X019314Y005766D01*
X019419Y005660D01*
X019314Y005554D01*
X019314Y005057D01*
X019336Y005035D01*
X019314Y005013D01*
X019314Y004516D01*
X019443Y004387D01*
X020097Y004387D01*
X020226Y004516D01*
X020226Y005013D01*
X020204Y005035D01*
X020226Y005057D01*
X020226Y005554D01*
X020120Y005660D01*
X020226Y005766D01*
X020226Y006263D01*
X020097Y006392D01*
X020040Y006392D01*
X020040Y006964D01*
X019999Y007063D01*
X019923Y007139D01*
X019630Y007432D01*
X019630Y007880D01*
X019678Y007880D01*
X019678Y007823D01*
X019807Y007694D01*
X020304Y007694D01*
X020433Y007823D01*
X020433Y008349D01*
X020508Y008273D01*
X021087Y008273D01*
X021216Y008402D01*
X021216Y008981D01*
X021087Y009110D01*
X020508Y009110D01*
X020453Y009285D02*
X022514Y009285D01*
X022395Y009403D02*
X020453Y009403D01*
X021149Y009048D02*
X022750Y009048D01*
X022750Y008929D02*
X021216Y008929D01*
X021216Y008811D02*
X022750Y008811D01*
X022750Y008692D02*
X021216Y008692D01*
X021216Y008574D02*
X022750Y008574D01*
X022750Y008455D02*
X021216Y008455D01*
X021150Y008337D02*
X022750Y008337D01*
X022750Y008218D02*
X020433Y008218D01*
X020433Y008100D02*
X022750Y008100D01*
X022750Y007981D02*
X020433Y007981D01*
X020433Y007863D02*
X022750Y007863D01*
X022750Y007744D02*
X020354Y007744D01*
X019757Y007744D02*
X019630Y007744D01*
X019630Y007626D02*
X022750Y007626D01*
X022750Y007507D02*
X019630Y007507D01*
X019673Y007389D02*
X022750Y007389D01*
X022750Y007270D02*
X019792Y007270D01*
X019910Y007152D02*
X022750Y007152D01*
X022750Y007033D02*
X020011Y007033D01*
X020040Y006915D02*
X022750Y006915D01*
X022750Y006796D02*
X020040Y006796D01*
X020040Y006678D02*
X022750Y006678D01*
X022750Y006559D02*
X020040Y006559D01*
X020040Y006441D02*
X022750Y006441D01*
X022750Y006322D02*
X020167Y006322D01*
X020226Y006204D02*
X022750Y006204D01*
X022750Y006085D02*
X020226Y006085D01*
X020226Y005967D02*
X022750Y005967D01*
X022750Y005848D02*
X020226Y005848D01*
X020190Y005730D02*
X022750Y005730D01*
X022750Y005611D02*
X020169Y005611D01*
X020226Y005493D02*
X022750Y005493D01*
X022750Y005374D02*
X020226Y005374D01*
X020226Y005256D02*
X022750Y005256D01*
X022750Y005137D02*
X020226Y005137D01*
X020221Y005019D02*
X022750Y005019D01*
X022750Y004900D02*
X020226Y004900D01*
X020226Y004782D02*
X022750Y004782D01*
X022750Y004663D02*
X020226Y004663D01*
X020226Y004545D02*
X022750Y004545D01*
X022750Y004426D02*
X020136Y004426D01*
X019403Y004426D02*
X018680Y004426D01*
X018680Y004308D02*
X022750Y004308D01*
X022750Y004189D02*
X018680Y004189D01*
X018680Y004071D02*
X022750Y004071D01*
X022750Y003952D02*
X018680Y003952D01*
X018680Y003834D02*
X022750Y003834D01*
X022750Y003715D02*
X018680Y003715D01*
X018680Y003597D02*
X022750Y003597D01*
X022750Y003478D02*
X018680Y003478D01*
X018680Y003360D02*
X022750Y003360D01*
X022750Y003241D02*
X018680Y003241D01*
X018680Y003123D02*
X022750Y003123D01*
X022750Y003004D02*
X018680Y003004D01*
X018680Y002886D02*
X022750Y002886D01*
X022750Y002767D02*
X021088Y002767D01*
X021216Y002649D02*
X021424Y002649D01*
X021306Y002530D02*
X021297Y002530D01*
X020452Y002767D02*
X019088Y002767D01*
X019216Y002649D02*
X020324Y002649D01*
X020243Y002530D02*
X019297Y002530D01*
X019346Y002412D02*
X020194Y002412D01*
X020180Y002293D02*
X019360Y002293D01*
X019360Y002175D02*
X020180Y002175D01*
X020216Y002056D02*
X019324Y002056D01*
X019275Y001938D02*
X020265Y001938D01*
X020377Y001819D02*
X019163Y001819D01*
X018961Y001701D02*
X020579Y001701D01*
X021955Y001464D02*
X022692Y001464D01*
X022750Y001582D02*
X022030Y001582D01*
X022145Y001701D02*
X022750Y001701D01*
X022750Y001819D02*
X022263Y001819D01*
X022316Y001938D02*
X022750Y001938D01*
X022750Y002056D02*
X022360Y002056D01*
X022360Y002175D02*
X022750Y002175D01*
X022750Y002293D02*
X022353Y002293D01*
X022304Y002412D02*
X022750Y002412D01*
X022750Y002530D02*
X022234Y002530D01*
X022116Y002649D02*
X022750Y002649D01*
X019314Y004545D02*
X018680Y004545D01*
X018680Y004663D02*
X019314Y004663D01*
X019314Y004782D02*
X018680Y004782D01*
X018680Y004900D02*
X019314Y004900D01*
X019319Y005019D02*
X018680Y005019D01*
X018680Y005137D02*
X019314Y005137D01*
X019314Y005256D02*
X018680Y005256D01*
X018680Y005374D02*
X019314Y005374D01*
X019314Y005493D02*
X018680Y005493D01*
X018680Y005611D02*
X019370Y005611D01*
X019350Y005730D02*
X018680Y005730D01*
X018680Y005848D02*
X019314Y005848D01*
X019314Y005967D02*
X018680Y005967D01*
X018680Y006085D02*
X019314Y006085D01*
X019314Y006204D02*
X018680Y006204D01*
X018680Y006322D02*
X019373Y006322D01*
X019500Y006441D02*
X018680Y006441D01*
X018680Y006559D02*
X019500Y006559D01*
X019500Y006678D02*
X018680Y006678D01*
X018680Y006796D02*
X019500Y006796D01*
X019384Y006915D02*
X018675Y006915D01*
X018675Y007033D02*
X019265Y007033D01*
X019147Y007152D02*
X018675Y007152D01*
X018724Y007270D02*
X018596Y007270D01*
X018610Y007389D02*
X014430Y007389D01*
X014430Y007507D02*
X018610Y007507D01*
X018610Y007626D02*
X014430Y007626D01*
X014430Y007744D02*
X018610Y007744D01*
X018610Y007863D02*
X014430Y007863D01*
X014430Y007981D02*
X018610Y007981D01*
X018610Y008100D02*
X014430Y008100D01*
X014430Y008218D02*
X018610Y008218D01*
X018610Y008337D02*
X014430Y008337D01*
X014430Y008455D02*
X018610Y008455D01*
X018610Y008574D02*
X014430Y008574D01*
X014430Y008692D02*
X018610Y008692D01*
X018610Y008811D02*
X014430Y008811D01*
X014430Y008929D02*
X018610Y008929D01*
X018610Y009048D02*
X014430Y009048D01*
X014430Y009166D02*
X018610Y009166D01*
X018610Y009285D02*
X014430Y009285D01*
X014430Y009403D02*
X018610Y009403D01*
X018610Y009522D02*
X014653Y009522D01*
X014772Y009640D02*
X018610Y009640D01*
X018610Y009759D02*
X014837Y009759D01*
X014840Y009877D02*
X018610Y009877D01*
X018610Y009996D02*
X014840Y009996D01*
X014840Y010114D02*
X018610Y010114D01*
X018610Y010233D02*
X014840Y010233D01*
X014840Y010351D02*
X018610Y010351D01*
X018610Y010470D02*
X014840Y010470D01*
X014840Y010588D02*
X018610Y010588D01*
X018610Y010707D02*
X014840Y010707D01*
X014840Y010825D02*
X018610Y010825D01*
X018610Y010944D02*
X014840Y010944D01*
X014840Y011062D02*
X018610Y011062D01*
X018610Y011181D02*
X014840Y011181D01*
X014840Y011299D02*
X018610Y011299D01*
X018610Y011418D02*
X014840Y011418D01*
X014525Y012010D02*
X014472Y012010D01*
X014525Y012129D02*
X014353Y012129D01*
X014290Y012247D02*
X014525Y012247D01*
X014525Y012366D02*
X014290Y012366D01*
X014290Y012484D02*
X014618Y012484D01*
X014830Y012603D02*
X014290Y012603D01*
X014290Y012721D02*
X014830Y012721D01*
X014830Y012840D02*
X014290Y012840D01*
X014290Y012958D02*
X014830Y012958D01*
X014830Y013077D02*
X014394Y013077D01*
X014438Y013195D02*
X014830Y013195D01*
X014830Y013314D02*
X014438Y013314D01*
X014438Y013432D02*
X014830Y013432D01*
X014830Y013551D02*
X014438Y013551D01*
X014438Y013669D02*
X014830Y013669D01*
X014830Y013788D02*
X014350Y013788D01*
X014290Y013906D02*
X014830Y013906D01*
X014830Y014025D02*
X014290Y014025D01*
X014290Y014143D02*
X014830Y014143D01*
X014830Y014262D02*
X014290Y014262D01*
X014290Y014380D02*
X014830Y014380D01*
X014830Y014499D02*
X014290Y014499D01*
X014290Y014617D02*
X014830Y014617D01*
X014830Y014736D02*
X014281Y014736D01*
X014208Y014854D02*
X014830Y014854D01*
X014830Y014973D02*
X014042Y014973D01*
X013958Y015091D02*
X014830Y015091D01*
X014830Y015210D02*
X010120Y015210D01*
X010120Y015328D02*
X014830Y015328D01*
X014830Y015447D02*
X010188Y015447D01*
X010307Y015565D02*
X014794Y015565D01*
X014612Y015684D02*
X014291Y015684D01*
X014446Y015802D02*
X014509Y015802D01*
X013749Y015684D02*
X010425Y015684D01*
X010544Y015802D02*
X013594Y015802D01*
X013501Y015921D02*
X010662Y015921D01*
X010781Y016039D02*
X013452Y016039D01*
X013430Y016158D02*
X010899Y016158D01*
X011018Y016276D02*
X013430Y016276D01*
X013458Y016395D02*
X011136Y016395D01*
X011255Y016513D02*
X013507Y016513D01*
X013607Y016632D02*
X011373Y016632D01*
X011492Y016750D02*
X013782Y016750D01*
X014258Y016750D02*
X015782Y016750D01*
X015607Y016632D02*
X015303Y016632D01*
X015451Y016513D02*
X015507Y016513D01*
X014737Y016632D02*
X014433Y016632D01*
X014533Y016513D02*
X014589Y016513D01*
X016258Y016750D02*
X019298Y016750D01*
X019180Y016869D02*
X011610Y016869D01*
X010808Y017580D02*
X006740Y017580D01*
X006622Y017698D02*
X010926Y017698D01*
X011045Y017817D02*
X006503Y017817D01*
X006859Y017461D02*
X010689Y017461D01*
X010571Y017343D02*
X006977Y017343D01*
X007096Y017224D02*
X010452Y017224D01*
X010334Y017106D02*
X007214Y017106D01*
X007333Y016987D02*
X010215Y016987D01*
X010097Y016869D02*
X007451Y016869D01*
X007570Y016750D02*
X008653Y016750D01*
X008602Y016632D02*
X007688Y016632D01*
X007807Y016513D02*
X008602Y016513D01*
X008602Y016395D02*
X007925Y016395D01*
X008044Y016276D02*
X008504Y016276D01*
X008418Y016158D02*
X008162Y016158D01*
X008281Y016039D02*
X008400Y016039D01*
X008399Y015921D02*
X008400Y015921D01*
X007991Y015565D02*
X007200Y015565D01*
X007200Y015447D02*
X008109Y015447D01*
X008200Y015328D02*
X007200Y015328D01*
X007200Y015210D02*
X008200Y015210D01*
X008200Y015091D02*
X007200Y015091D01*
X007200Y014973D02*
X008200Y014973D01*
X008200Y014854D02*
X007200Y014854D01*
X007200Y014736D02*
X007715Y014736D01*
X007677Y014617D02*
X007200Y014617D01*
X007200Y014499D02*
X007677Y014499D01*
X007677Y014380D02*
X007200Y014380D01*
X007200Y014262D02*
X007677Y014262D01*
X007677Y014143D02*
X007200Y014143D01*
X007200Y014025D02*
X007695Y014025D01*
X008010Y013906D02*
X007200Y013906D01*
X007200Y013788D02*
X008010Y013788D01*
X008010Y013669D02*
X007200Y013669D01*
X007200Y013551D02*
X008010Y013551D01*
X008010Y013432D02*
X007200Y013432D01*
X007200Y013314D02*
X008010Y013314D01*
X008010Y013195D02*
X007200Y013195D01*
X006660Y013195D02*
X005188Y013195D01*
X005188Y013077D02*
X005236Y013077D01*
X005074Y013314D02*
X006660Y013314D01*
X006660Y013432D02*
X004415Y013432D01*
X004435Y013551D02*
X006660Y013551D01*
X006660Y013669D02*
X004435Y013669D01*
X004404Y013788D02*
X006660Y013788D01*
X006660Y013906D02*
X004355Y013906D01*
X004252Y014025D02*
X006660Y014025D01*
X006660Y014143D02*
X004225Y014143D01*
X004344Y014262D02*
X006660Y014262D01*
X006660Y014380D02*
X004393Y014380D01*
X004435Y014499D02*
X006660Y014499D01*
X006660Y014617D02*
X004435Y014617D01*
X004426Y014736D02*
X006660Y014736D01*
X006660Y014854D02*
X004377Y014854D01*
X004304Y014973D02*
X006660Y014973D01*
X006660Y015091D02*
X004185Y015091D01*
X004292Y015210D02*
X006660Y015210D01*
X006660Y015328D02*
X004372Y015328D01*
X003510Y015097D02*
X003345Y014931D01*
X003318Y014867D01*
X003291Y014867D01*
X003192Y014826D01*
X002723Y014357D01*
X002647Y014281D01*
X002606Y014182D01*
X002606Y013173D01*
X002647Y013074D01*
X003029Y012692D01*
X003105Y012616D01*
X003204Y012575D01*
X003818Y012575D01*
X003818Y011982D01*
X003947Y011853D01*
X004309Y011853D01*
X004341Y011840D01*
X004379Y011840D01*
X004307Y011767D01*
X004307Y010680D01*
X003382Y010680D01*
X003173Y010889D01*
X003074Y010930D01*
X002466Y010930D01*
X002367Y010889D01*
X002291Y010813D01*
X002085Y010607D01*
X002044Y010508D01*
X002044Y010355D01*
X001937Y010247D01*
X001937Y009593D01*
X001974Y009555D01*
X001937Y009517D01*
X001937Y008863D01*
X001979Y008820D01*
X001937Y008777D01*
X001937Y008123D01*
X001969Y008090D01*
X001937Y008057D01*
X001937Y007403D01*
X001989Y007350D01*
X001937Y007297D01*
X001937Y006643D01*
X002000Y006580D01*
X002000Y006522D01*
X001791Y006313D01*
X001750Y006214D01*
X001750Y006117D01*
X001349Y006117D01*
X001220Y005988D01*
X001220Y005314D01*
X001349Y005185D01*
X002545Y005185D01*
X002545Y004135D01*
X001391Y004135D01*
X001495Y004239D01*
X001495Y004821D01*
X001366Y004950D01*
X000692Y004950D01*
X000616Y004874D01*
X000616Y018942D01*
X003355Y018942D01*
X003345Y018931D01*
X003255Y018714D01*
X003255Y018480D01*
X003345Y018263D01*
X003510Y018097D01*
X003345Y017931D01*
X003318Y017867D01*
X002533Y017867D01*
X002434Y017826D01*
X001998Y017390D01*
X001917Y017424D01*
X001670Y017424D01*
X001442Y017329D01*
X001268Y017155D01*
X001174Y016927D01*
X001174Y016680D01*
X001268Y016452D01*
X001442Y016278D01*
X001670Y016184D01*
X001917Y016184D01*
X002145Y016278D01*
X002319Y016452D01*
X002414Y016680D01*
X002414Y016927D01*
X002380Y017008D01*
X002699Y017327D01*
X003318Y017327D01*
X003345Y017263D01*
X003510Y017097D01*
X003345Y016931D01*
X003255Y016714D01*
X003255Y016480D01*
X003345Y016263D01*
X003510Y016097D01*
X003345Y015931D01*
X003318Y015867D01*
X002502Y015867D01*
X002402Y015826D01*
X001998Y015422D01*
X001917Y015455D01*
X001670Y015455D01*
X001442Y015361D01*
X001268Y015186D01*
X001174Y014959D01*
X001174Y014712D01*
X001268Y014484D01*
X001442Y014310D01*
X001670Y014215D01*
X001917Y014215D01*
X002145Y014310D01*
X002319Y014484D01*
X002414Y014712D01*
X002414Y014959D01*
X002380Y015040D01*
X002667Y015327D01*
X003318Y015327D01*
X003345Y015263D01*
X003510Y015097D01*
X003504Y015091D02*
X002431Y015091D01*
X002408Y014973D02*
X003386Y014973D01*
X003260Y014854D02*
X002414Y014854D01*
X002414Y014736D02*
X003101Y014736D01*
X002983Y014617D02*
X002374Y014617D01*
X002325Y014499D02*
X002864Y014499D01*
X002746Y014380D02*
X002215Y014380D01*
X002029Y014262D02*
X002639Y014262D01*
X002606Y014143D02*
X000616Y014143D01*
X000616Y014025D02*
X002606Y014025D01*
X002606Y013906D02*
X000616Y013906D01*
X000616Y013788D02*
X002606Y013788D01*
X002606Y013669D02*
X000616Y013669D01*
X000616Y013551D02*
X002606Y013551D01*
X002606Y013432D02*
X002339Y013432D01*
X002285Y013487D02*
X002414Y013358D01*
X002414Y012376D01*
X002285Y012247D01*
X003818Y012247D01*
X003818Y012129D02*
X000616Y012129D01*
X000616Y012247D02*
X001302Y012247D01*
X002285Y012247D01*
X002404Y012366D02*
X003818Y012366D01*
X003818Y012484D02*
X002414Y012484D01*
X002414Y012603D02*
X003138Y012603D01*
X003000Y012721D02*
X002414Y012721D01*
X002414Y012840D02*
X002882Y012840D01*
X002763Y012958D02*
X002414Y012958D01*
X002414Y013077D02*
X002646Y013077D01*
X002606Y013195D02*
X002414Y013195D01*
X002414Y013314D02*
X002606Y013314D01*
X002285Y013487D02*
X001302Y013487D01*
X001174Y013358D01*
X001174Y012376D01*
X001302Y012247D01*
X001184Y012366D02*
X000616Y012366D01*
X000616Y012484D02*
X001174Y012484D01*
X001174Y012603D02*
X000616Y012603D01*
X000616Y012721D02*
X001174Y012721D01*
X001174Y012840D02*
X000616Y012840D01*
X000616Y012958D02*
X001174Y012958D01*
X001174Y013077D02*
X000616Y013077D01*
X000616Y013195D02*
X001174Y013195D01*
X001174Y013314D02*
X000616Y013314D01*
X000616Y013432D02*
X001248Y013432D01*
X001558Y014262D02*
X000616Y014262D01*
X000616Y014380D02*
X001372Y014380D01*
X001262Y014499D02*
X000616Y014499D01*
X000616Y014617D02*
X001213Y014617D01*
X001174Y014736D02*
X000616Y014736D01*
X000616Y014854D02*
X001174Y014854D01*
X001179Y014973D02*
X000616Y014973D01*
X000616Y015091D02*
X001228Y015091D01*
X001291Y015210D02*
X000616Y015210D01*
X000616Y015328D02*
X001410Y015328D01*
X001649Y015447D02*
X000616Y015447D01*
X000616Y015565D02*
X002142Y015565D01*
X002260Y015684D02*
X000616Y015684D01*
X000616Y015802D02*
X002379Y015802D01*
X002023Y015447D02*
X001938Y015447D01*
X002550Y015210D02*
X003398Y015210D01*
X003340Y015921D02*
X000616Y015921D01*
X000616Y016039D02*
X003452Y016039D01*
X003450Y016158D02*
X000616Y016158D01*
X000616Y016276D02*
X001447Y016276D01*
X001326Y016395D02*
X000616Y016395D01*
X000616Y016513D02*
X001243Y016513D01*
X001194Y016632D02*
X000616Y016632D01*
X000616Y016750D02*
X001174Y016750D01*
X001174Y016869D02*
X000616Y016869D01*
X000616Y016987D02*
X001198Y016987D01*
X001247Y017106D02*
X000616Y017106D01*
X000616Y017224D02*
X001337Y017224D01*
X001474Y017343D02*
X000616Y017343D01*
X000616Y017461D02*
X002069Y017461D01*
X002188Y017580D02*
X000616Y017580D01*
X000616Y017698D02*
X002306Y017698D01*
X002425Y017817D02*
X000616Y017817D01*
X000616Y017935D02*
X003348Y017935D01*
X003467Y018054D02*
X000616Y018054D01*
X000616Y018172D02*
X003435Y018172D01*
X003333Y018291D02*
X000616Y018291D01*
X000616Y018409D02*
X003284Y018409D01*
X003255Y018528D02*
X000616Y018528D01*
X000616Y018646D02*
X003255Y018646D01*
X003276Y018765D02*
X000616Y018765D01*
X000616Y018883D02*
X003325Y018883D01*
X004254Y018172D02*
X004419Y018172D01*
X004414Y018765D02*
X004453Y018765D01*
X004365Y018883D02*
X023560Y018883D01*
X023560Y018765D02*
X005236Y018765D01*
X003502Y017106D02*
X002477Y017106D01*
X002389Y016987D02*
X003400Y016987D01*
X003319Y016869D02*
X002414Y016869D01*
X002414Y016750D02*
X003269Y016750D01*
X003255Y016632D02*
X002393Y016632D01*
X002344Y016513D02*
X003255Y016513D01*
X003290Y016395D02*
X002261Y016395D01*
X002140Y016276D02*
X003339Y016276D01*
X003383Y017224D02*
X002596Y017224D01*
X005251Y016750D02*
X006806Y016750D01*
X006924Y016632D02*
X006617Y016632D01*
X006736Y016513D02*
X007043Y016513D01*
X007161Y016395D02*
X006854Y016395D01*
X006973Y016276D02*
X007280Y016276D01*
X007398Y016158D02*
X007091Y016158D01*
X007180Y016039D02*
X007517Y016039D01*
X007635Y015921D02*
X007200Y015921D01*
X007200Y015802D02*
X007754Y015802D01*
X007872Y015684D02*
X007200Y015684D01*
X006328Y016158D02*
X005256Y016158D01*
X004466Y013314D02*
X004366Y013314D01*
X004352Y013195D02*
X004277Y013195D01*
X004255Y013077D02*
X004352Y013077D01*
X004573Y012492D02*
X005059Y012492D01*
X005103Y012536D01*
X005235Y012536D01*
X005343Y012428D01*
X006370Y012428D01*
X007015Y011783D01*
X007015Y010949D01*
X007144Y010820D01*
X007610Y010820D01*
X007610Y010320D01*
X007110Y010320D01*
X007110Y010786D01*
X006981Y010915D01*
X006367Y010915D01*
X005019Y012263D01*
X004943Y012339D01*
X004844Y012380D01*
X004573Y012380D01*
X004573Y012492D01*
X004573Y012484D02*
X005287Y012484D01*
X005035Y012247D02*
X006551Y012247D01*
X006433Y012366D02*
X004879Y012366D01*
X005019Y012263D02*
X005019Y012263D01*
X005153Y012129D02*
X006670Y012129D01*
X006788Y012010D02*
X005272Y012010D01*
X005390Y011892D02*
X006907Y011892D01*
X007015Y011773D02*
X005509Y011773D01*
X005627Y011655D02*
X007015Y011655D01*
X007015Y011536D02*
X005746Y011536D01*
X005864Y011418D02*
X007015Y011418D01*
X007015Y011299D02*
X005983Y011299D01*
X006101Y011181D02*
X007015Y011181D01*
X007015Y011062D02*
X006220Y011062D01*
X006338Y010944D02*
X007020Y010944D01*
X007071Y010825D02*
X007139Y010825D01*
X007110Y010707D02*
X007610Y010707D01*
X007610Y010588D02*
X007110Y010588D01*
X007110Y010470D02*
X007610Y010470D01*
X007610Y010351D02*
X007110Y010351D01*
X006986Y009780D02*
X007854Y009780D01*
X007953Y009821D01*
X008033Y009901D01*
X008109Y009977D01*
X008150Y010076D01*
X008150Y010820D01*
X009606Y010820D01*
X009655Y010869D01*
X009704Y010820D01*
X009996Y010820D01*
X010050Y010874D01*
X010104Y010820D01*
X010396Y010820D01*
X010525Y010949D01*
X010525Y011109D01*
X012304Y011109D01*
X012512Y010900D01*
X011416Y010900D01*
X011401Y010915D01*
X010559Y010915D01*
X010430Y010786D01*
X010430Y009114D01*
X010484Y009060D01*
X010430Y009006D01*
X010430Y007534D01*
X010559Y007405D01*
X011401Y007405D01*
X011416Y007420D01*
X012611Y007420D01*
X012414Y007223D01*
X010525Y007223D01*
X010525Y007371D01*
X010396Y007500D01*
X010104Y007500D01*
X010050Y007446D01*
X009996Y007500D01*
X009114Y007500D01*
X009065Y007451D01*
X009016Y007500D01*
X008724Y007500D01*
X008595Y007371D01*
X008595Y006529D01*
X008600Y006524D01*
X008600Y006302D01*
X008550Y006252D01*
X008550Y006524D01*
X008555Y006529D01*
X008555Y007371D01*
X008426Y007500D01*
X008134Y007500D01*
X008080Y007446D01*
X008026Y007500D01*
X007734Y007500D01*
X007605Y007371D01*
X007605Y006529D01*
X007610Y006524D01*
X007610Y006136D01*
X007216Y005742D01*
X007079Y005742D01*
X007519Y006181D01*
X007560Y006281D01*
X007560Y006524D01*
X007565Y006529D01*
X007565Y007371D01*
X007436Y007500D01*
X007144Y007500D01*
X007015Y007371D01*
X007015Y006529D01*
X007020Y006524D01*
X007020Y006446D01*
X006316Y005742D01*
X005343Y005742D01*
X005281Y005680D01*
X004966Y005680D01*
X004867Y005639D01*
X004791Y005563D01*
X004791Y005563D01*
X004541Y005313D01*
X004500Y005214D01*
X004500Y003522D01*
X003291Y002313D01*
X003250Y002214D01*
X003250Y001687D01*
X003232Y001679D01*
X003275Y003860D01*
X003348Y003860D01*
X003379Y003890D01*
X003380Y003891D01*
X003473Y003798D01*
X004127Y003798D01*
X004256Y003927D01*
X004256Y004424D01*
X004127Y004553D01*
X003477Y004553D01*
X003477Y005331D01*
X003348Y005460D01*
X003290Y005460D01*
X003290Y005464D01*
X003249Y005563D01*
X003173Y005639D01*
X002923Y005889D01*
X002824Y005930D01*
X002820Y005930D01*
X002820Y005988D01*
X002800Y006008D01*
X002800Y006204D01*
X002759Y006303D01*
X002548Y006514D01*
X002563Y006514D01*
X002692Y006643D01*
X002692Y007297D01*
X002639Y007350D01*
X002692Y007403D01*
X002692Y008057D01*
X002659Y008090D01*
X002692Y008123D01*
X002692Y008777D01*
X002649Y008820D01*
X002692Y008863D01*
X002692Y009517D01*
X002654Y009555D01*
X002692Y009593D01*
X002692Y010247D01*
X002590Y010349D01*
X002632Y010390D01*
X002908Y010390D01*
X003000Y010298D01*
X003000Y009106D01*
X003041Y009007D01*
X003758Y008290D01*
X003541Y008073D01*
X003500Y007974D01*
X003500Y007578D01*
X003481Y007578D01*
X003352Y007449D01*
X003352Y006871D01*
X003481Y006742D01*
X004059Y006742D01*
X004188Y006871D01*
X004188Y007449D01*
X004059Y007578D01*
X004040Y007578D01*
X004040Y007808D01*
X004252Y008020D01*
X004878Y008020D01*
X004879Y008019D01*
X004797Y007937D01*
X004797Y007283D01*
X004894Y007185D01*
X004797Y007087D01*
X004797Y006433D01*
X004926Y006304D01*
X005423Y006304D01*
X005552Y006433D01*
X005552Y006490D01*
X005704Y006490D01*
X005803Y006531D01*
X005879Y006607D01*
X006119Y006847D01*
X006160Y006946D01*
X006160Y007605D01*
X006981Y007605D01*
X007110Y007734D01*
X007110Y008026D01*
X007061Y008075D01*
X007110Y008124D01*
X007110Y008416D01*
X006981Y008545D01*
X006139Y008545D01*
X006134Y008540D01*
X005936Y008540D01*
X005837Y008499D01*
X005447Y008109D01*
X005444Y008106D01*
X005444Y008159D01*
X005403Y008259D01*
X005312Y008350D01*
X005323Y008361D01*
X005399Y008437D01*
X005429Y008510D01*
X005552Y008633D01*
X005552Y008790D01*
X006134Y008790D01*
X006139Y008785D01*
X006981Y008785D01*
X007110Y008914D01*
X007110Y009406D01*
X006981Y009535D01*
X006139Y009535D01*
X006134Y009530D01*
X005782Y009530D01*
X005752Y009560D01*
X005749Y009567D01*
X005552Y009764D01*
X005552Y010036D01*
X005767Y009821D01*
X005866Y009780D01*
X006134Y009780D01*
X006139Y009775D01*
X006981Y009775D01*
X006986Y009780D01*
X006995Y009522D02*
X010430Y009522D01*
X010430Y009640D02*
X005676Y009640D01*
X005558Y009759D02*
X010430Y009759D01*
X010430Y009877D02*
X008009Y009877D01*
X008116Y009996D02*
X010430Y009996D01*
X010430Y010114D02*
X008150Y010114D01*
X008150Y010233D02*
X010430Y010233D01*
X010430Y010351D02*
X008150Y010351D01*
X008150Y010470D02*
X010430Y010470D01*
X010430Y010588D02*
X008150Y010588D01*
X008150Y010707D02*
X010430Y010707D01*
X010401Y010825D02*
X010469Y010825D01*
X010520Y010944D02*
X012469Y010944D01*
X012351Y011062D02*
X010525Y011062D01*
X010099Y010825D02*
X010001Y010825D01*
X009699Y010825D02*
X009611Y010825D01*
X010525Y011655D02*
X013744Y011655D01*
X013625Y011773D02*
X010525Y011773D01*
X010425Y011892D02*
X013127Y011892D01*
X013027Y012010D02*
X010120Y012010D01*
X010120Y012129D02*
X012770Y012129D01*
X012696Y012247D02*
X010120Y012247D01*
X010120Y012366D02*
X012696Y012366D01*
X012696Y012484D02*
X010120Y012484D01*
X010120Y012603D02*
X012696Y012603D01*
X012696Y012721D02*
X010120Y012721D01*
X010120Y012840D02*
X012696Y012840D01*
X012696Y012958D02*
X010120Y012958D01*
X010120Y013077D02*
X012757Y013077D01*
X013602Y013195D02*
X010120Y013195D01*
X010120Y013314D02*
X013602Y013314D01*
X013602Y013432D02*
X010120Y013432D01*
X010120Y013551D02*
X013602Y013551D01*
X013602Y013669D02*
X010120Y013669D01*
X010120Y013788D02*
X013690Y013788D01*
X013750Y013906D02*
X010120Y013906D01*
X010120Y014025D02*
X013750Y014025D01*
X013750Y014143D02*
X010120Y014143D01*
X010120Y014262D02*
X013378Y014262D01*
X013287Y014380D02*
X010120Y014380D01*
X010120Y014499D02*
X013287Y014499D01*
X013287Y014617D02*
X010120Y014617D01*
X010120Y014736D02*
X013287Y014736D01*
X013287Y014854D02*
X010120Y014854D01*
X010120Y014973D02*
X013287Y014973D01*
X013370Y015091D02*
X010120Y015091D01*
X009504Y016276D02*
X009438Y016276D01*
X009438Y016395D02*
X009623Y016395D01*
X009741Y016513D02*
X009438Y016513D01*
X009438Y016632D02*
X009860Y016632D01*
X009978Y016750D02*
X009387Y016750D01*
X003818Y012010D02*
X000616Y012010D01*
X000616Y011892D02*
X003908Y011892D01*
X004312Y011773D02*
X000616Y011773D01*
X000616Y011655D02*
X004307Y011655D01*
X004307Y011536D02*
X000616Y011536D01*
X000616Y011418D02*
X004307Y011418D01*
X004307Y011299D02*
X000616Y011299D01*
X000616Y011181D02*
X004307Y011181D01*
X004307Y011062D02*
X000616Y011062D01*
X000616Y010944D02*
X004307Y010944D01*
X004307Y010825D02*
X003237Y010825D01*
X003355Y010707D02*
X004307Y010707D01*
X004574Y010140D02*
X004673Y010181D01*
X004836Y010344D01*
X004933Y010344D01*
X005062Y010473D01*
X005062Y010520D01*
X005068Y010520D01*
X005372Y010216D01*
X004926Y010216D01*
X004797Y010087D01*
X004797Y009433D01*
X004869Y009360D01*
X004797Y009287D01*
X004797Y008633D01*
X004814Y008616D01*
X004761Y008563D01*
X004760Y008560D01*
X004252Y008560D01*
X003540Y009272D01*
X003540Y010140D01*
X004574Y010140D01*
X004724Y010233D02*
X005356Y010233D01*
X005237Y010351D02*
X004940Y010351D01*
X005059Y010470D02*
X005119Y010470D01*
X004823Y010114D02*
X003540Y010114D01*
X003540Y009996D02*
X004797Y009996D01*
X004797Y009877D02*
X003540Y009877D01*
X003540Y009759D02*
X004797Y009759D01*
X004797Y009640D02*
X003540Y009640D01*
X003540Y009522D02*
X004797Y009522D01*
X004826Y009403D02*
X003540Y009403D01*
X003540Y009285D02*
X004797Y009285D01*
X004797Y009166D02*
X003646Y009166D01*
X003764Y009048D02*
X004797Y009048D01*
X004797Y008929D02*
X003883Y008929D01*
X004001Y008811D02*
X004797Y008811D01*
X004797Y008692D02*
X004120Y008692D01*
X004238Y008574D02*
X004772Y008574D01*
X005323Y008361D02*
X005323Y008361D01*
X005325Y008337D02*
X005675Y008337D01*
X005793Y008455D02*
X005406Y008455D01*
X005493Y008574D02*
X010430Y008574D01*
X010430Y008692D02*
X005552Y008692D01*
X005556Y008218D02*
X005420Y008218D01*
X004840Y007981D02*
X004213Y007981D01*
X004094Y007863D02*
X004797Y007863D01*
X004797Y007744D02*
X004040Y007744D01*
X004040Y007626D02*
X004797Y007626D01*
X004797Y007507D02*
X004130Y007507D01*
X004188Y007389D02*
X004797Y007389D01*
X004809Y007270D02*
X004188Y007270D01*
X004188Y007152D02*
X004861Y007152D01*
X004797Y007033D02*
X004188Y007033D01*
X004188Y006915D02*
X004797Y006915D01*
X004797Y006796D02*
X004113Y006796D01*
X003427Y006796D02*
X002692Y006796D01*
X002692Y006678D02*
X004797Y006678D01*
X004797Y006559D02*
X002608Y006559D01*
X002621Y006441D02*
X004797Y006441D01*
X004907Y006322D02*
X002740Y006322D01*
X002800Y006204D02*
X006777Y006204D01*
X006896Y006322D02*
X005441Y006322D01*
X005552Y006441D02*
X007014Y006441D01*
X007015Y006559D02*
X005831Y006559D01*
X005949Y006678D02*
X007015Y006678D01*
X007015Y006796D02*
X006068Y006796D01*
X006147Y006915D02*
X007015Y006915D01*
X007015Y007033D02*
X006160Y007033D01*
X006160Y007152D02*
X007015Y007152D01*
X007015Y007270D02*
X006160Y007270D01*
X006160Y007389D02*
X007032Y007389D01*
X007002Y007626D02*
X010430Y007626D01*
X010430Y007744D02*
X007110Y007744D01*
X007110Y007863D02*
X010430Y007863D01*
X010430Y007981D02*
X007110Y007981D01*
X007086Y008100D02*
X010430Y008100D01*
X010430Y008218D02*
X007110Y008218D01*
X007110Y008337D02*
X010430Y008337D01*
X010430Y008455D02*
X007071Y008455D01*
X007007Y008811D02*
X010430Y008811D01*
X010430Y008929D02*
X007110Y008929D01*
X007110Y009048D02*
X010471Y009048D01*
X010430Y009166D02*
X007110Y009166D01*
X007110Y009285D02*
X010430Y009285D01*
X010430Y009403D02*
X007110Y009403D01*
X005711Y009877D02*
X005552Y009877D01*
X005552Y009996D02*
X005593Y009996D01*
X003712Y008337D02*
X002692Y008337D01*
X002692Y008455D02*
X003593Y008455D01*
X003475Y008574D02*
X002692Y008574D01*
X002692Y008692D02*
X003356Y008692D01*
X003238Y008811D02*
X002659Y008811D01*
X002692Y008929D02*
X003119Y008929D01*
X003024Y009048D02*
X002692Y009048D01*
X002692Y009166D02*
X003000Y009166D01*
X003000Y009285D02*
X002692Y009285D01*
X002692Y009403D02*
X003000Y009403D01*
X003000Y009522D02*
X002688Y009522D01*
X002692Y009640D02*
X003000Y009640D01*
X003000Y009759D02*
X002692Y009759D01*
X002692Y009877D02*
X003000Y009877D01*
X003000Y009996D02*
X002692Y009996D01*
X002692Y010114D02*
X003000Y010114D01*
X003000Y010233D02*
X002692Y010233D01*
X002593Y010351D02*
X002947Y010351D01*
X002303Y010825D02*
X000616Y010825D01*
X000616Y010707D02*
X002185Y010707D01*
X002077Y010588D02*
X000616Y010588D01*
X000616Y010470D02*
X002044Y010470D01*
X002040Y010351D02*
X000616Y010351D01*
X000616Y010233D02*
X001937Y010233D01*
X001937Y010114D02*
X000616Y010114D01*
X000616Y009996D02*
X001937Y009996D01*
X001937Y009877D02*
X000616Y009877D01*
X000616Y009759D02*
X001937Y009759D01*
X001937Y009640D02*
X000616Y009640D01*
X000616Y009522D02*
X001941Y009522D01*
X001937Y009403D02*
X000616Y009403D01*
X000616Y009285D02*
X001937Y009285D01*
X001937Y009166D02*
X000616Y009166D01*
X000616Y009048D02*
X001937Y009048D01*
X001937Y008929D02*
X000616Y008929D01*
X000616Y008811D02*
X001970Y008811D01*
X001937Y008692D02*
X000616Y008692D01*
X000616Y008574D02*
X001937Y008574D01*
X001937Y008455D02*
X000616Y008455D01*
X000616Y008337D02*
X001937Y008337D01*
X001937Y008218D02*
X000616Y008218D01*
X000616Y008100D02*
X001960Y008100D01*
X001937Y007981D02*
X000616Y007981D01*
X000616Y007863D02*
X001937Y007863D01*
X001937Y007744D02*
X000616Y007744D01*
X000616Y007626D02*
X001937Y007626D01*
X001937Y007507D02*
X000616Y007507D01*
X000616Y007389D02*
X001951Y007389D01*
X001937Y007270D02*
X000616Y007270D01*
X000616Y007152D02*
X001937Y007152D01*
X001937Y007033D02*
X000616Y007033D01*
X000616Y006915D02*
X001937Y006915D01*
X001937Y006796D02*
X000616Y006796D01*
X000616Y006678D02*
X001937Y006678D01*
X002000Y006559D02*
X000616Y006559D01*
X000616Y006441D02*
X001919Y006441D01*
X001800Y006322D02*
X000616Y006322D01*
X000616Y006204D02*
X001750Y006204D01*
X001317Y006085D02*
X000616Y006085D01*
X000616Y005967D02*
X001220Y005967D01*
X001220Y005848D02*
X000616Y005848D01*
X000616Y005730D02*
X001220Y005730D01*
X001220Y005611D02*
X000616Y005611D01*
X000616Y005493D02*
X001220Y005493D01*
X001220Y005374D02*
X000616Y005374D01*
X000616Y005256D02*
X001278Y005256D01*
X001416Y004900D02*
X002545Y004900D01*
X002545Y004782D02*
X001495Y004782D01*
X001495Y004663D02*
X002545Y004663D01*
X002545Y004545D02*
X001495Y004545D01*
X001495Y004426D02*
X002545Y004426D01*
X002545Y004308D02*
X001495Y004308D01*
X001445Y004189D02*
X002545Y004189D01*
X003275Y003834D02*
X003437Y003834D01*
X003272Y003715D02*
X004500Y003715D01*
X004500Y003597D02*
X003270Y003597D01*
X003268Y003478D02*
X004456Y003478D01*
X004338Y003360D02*
X003265Y003360D01*
X003263Y003241D02*
X004219Y003241D01*
X004101Y003123D02*
X003261Y003123D01*
X003258Y003004D02*
X003982Y003004D01*
X003864Y002886D02*
X003256Y002886D01*
X003253Y002767D02*
X003745Y002767D01*
X003627Y002649D02*
X003251Y002649D01*
X003249Y002530D02*
X003508Y002530D01*
X003390Y002412D02*
X003246Y002412D01*
X003244Y002293D02*
X003283Y002293D01*
X003250Y002175D02*
X003242Y002175D01*
X003239Y002056D02*
X003250Y002056D01*
X003237Y001938D02*
X003250Y001938D01*
X003250Y001819D02*
X003234Y001819D01*
X003232Y001701D02*
X003250Y001701D01*
X003790Y001701D02*
X008750Y001701D01*
X008750Y001819D02*
X003790Y001819D01*
X003790Y001938D02*
X008750Y001938D01*
X008750Y002056D02*
X003798Y002056D01*
X003790Y002048D02*
X004999Y003257D01*
X005040Y003356D01*
X005040Y005048D01*
X005132Y005140D01*
X005214Y005140D01*
X005214Y005116D01*
X005343Y004987D01*
X006520Y004987D01*
X006520Y004218D01*
X006391Y004218D01*
X006262Y004089D01*
X006262Y003511D01*
X006391Y003382D01*
X006969Y003382D01*
X007098Y003511D01*
X007098Y004089D01*
X007060Y004127D01*
X007060Y004987D01*
X008187Y004987D01*
X008220Y005020D01*
X008220Y004492D01*
X008163Y004492D01*
X008101Y004430D01*
X007966Y004430D01*
X007867Y004389D01*
X007791Y004313D01*
X007541Y004063D01*
X007500Y003964D01*
X007500Y003328D01*
X007481Y003328D01*
X007352Y003199D01*
X007352Y002621D01*
X007481Y002492D01*
X008059Y002492D01*
X008188Y002621D01*
X008188Y003199D01*
X008059Y003328D01*
X008040Y003328D01*
X008040Y003798D01*
X008071Y003829D01*
X008163Y003737D01*
X008750Y003737D01*
X008750Y001106D01*
X008791Y001007D01*
X009178Y000620D01*
X003758Y000620D01*
X003854Y000660D01*
X004020Y000826D01*
X004110Y001043D01*
X004110Y001277D01*
X004020Y001494D01*
X003854Y001660D01*
X003790Y001687D01*
X003790Y002048D01*
X003916Y002175D02*
X008750Y002175D01*
X008750Y002293D02*
X004035Y002293D01*
X004153Y002412D02*
X008750Y002412D01*
X008750Y002530D02*
X008097Y002530D01*
X008188Y002649D02*
X008750Y002649D01*
X008750Y002767D02*
X008188Y002767D01*
X008188Y002886D02*
X008750Y002886D01*
X008750Y003004D02*
X008188Y003004D01*
X008188Y003123D02*
X008750Y003123D01*
X008750Y003241D02*
X008146Y003241D01*
X008040Y003360D02*
X008750Y003360D01*
X008750Y003478D02*
X008040Y003478D01*
X008040Y003597D02*
X008750Y003597D01*
X008750Y003715D02*
X008040Y003715D01*
X007549Y004071D02*
X007098Y004071D01*
X007098Y003952D02*
X007500Y003952D01*
X007500Y003834D02*
X007098Y003834D01*
X007098Y003715D02*
X007500Y003715D01*
X007500Y003597D02*
X007098Y003597D01*
X007065Y003478D02*
X007500Y003478D01*
X007500Y003360D02*
X005040Y003360D01*
X005040Y003478D02*
X006295Y003478D01*
X006262Y003597D02*
X005040Y003597D01*
X005040Y003715D02*
X006262Y003715D01*
X006262Y003834D02*
X005040Y003834D01*
X005040Y003952D02*
X006262Y003952D01*
X006262Y004071D02*
X005040Y004071D01*
X005040Y004189D02*
X006362Y004189D01*
X006520Y004308D02*
X005040Y004308D01*
X005040Y004426D02*
X006520Y004426D01*
X006520Y004545D02*
X005040Y004545D01*
X005040Y004663D02*
X006520Y004663D01*
X006520Y004782D02*
X005040Y004782D01*
X005040Y004900D02*
X006520Y004900D01*
X007060Y004900D02*
X008220Y004900D01*
X008220Y004782D02*
X007060Y004782D01*
X007060Y004663D02*
X008220Y004663D01*
X008220Y004545D02*
X007060Y004545D01*
X007060Y004426D02*
X007957Y004426D01*
X007786Y004308D02*
X007060Y004308D01*
X007060Y004189D02*
X007667Y004189D01*
X008219Y005019D02*
X008220Y005019D01*
X007322Y005848D02*
X007185Y005848D01*
X007304Y005967D02*
X007440Y005967D01*
X007422Y006085D02*
X007559Y006085D01*
X007528Y006204D02*
X007610Y006204D01*
X007610Y006322D02*
X007560Y006322D01*
X007560Y006441D02*
X007610Y006441D01*
X007605Y006559D02*
X007565Y006559D01*
X007565Y006678D02*
X007605Y006678D01*
X007605Y006796D02*
X007565Y006796D01*
X007565Y006915D02*
X007605Y006915D01*
X007605Y007033D02*
X007565Y007033D01*
X007565Y007152D02*
X007605Y007152D01*
X007605Y007270D02*
X007565Y007270D01*
X007548Y007389D02*
X007622Y007389D01*
X008538Y007389D02*
X008612Y007389D01*
X008595Y007270D02*
X008555Y007270D01*
X008555Y007152D02*
X008595Y007152D01*
X008595Y007033D02*
X008555Y007033D01*
X008555Y006915D02*
X008595Y006915D01*
X008595Y006796D02*
X008555Y006796D01*
X008555Y006678D02*
X008595Y006678D01*
X008595Y006559D02*
X008555Y006559D01*
X008550Y006441D02*
X008600Y006441D01*
X008600Y006322D02*
X008550Y006322D01*
X010140Y006322D02*
X013550Y006322D01*
X013432Y006204D02*
X010258Y006204D01*
X010437Y006441D02*
X014365Y006441D01*
X014365Y006559D02*
X010525Y006559D01*
X010525Y006678D02*
X014365Y006678D01*
X014365Y006796D02*
X012722Y006796D01*
X012841Y006915D02*
X014365Y006915D01*
X014365Y007033D02*
X012959Y007033D01*
X013078Y007152D02*
X014365Y007152D01*
X014316Y007270D02*
X014444Y007270D01*
X015246Y006204D02*
X015319Y006204D01*
X015290Y006085D02*
X015246Y006085D01*
X015246Y005967D02*
X015290Y005967D01*
X015290Y005848D02*
X015246Y005848D01*
X015290Y005730D02*
X015130Y005730D01*
X015290Y005611D02*
X012413Y005611D01*
X012350Y005493D02*
X015262Y005493D01*
X015181Y005374D02*
X012350Y005374D01*
X012350Y005256D02*
X015100Y005256D01*
X015019Y005137D02*
X013472Y005137D01*
X013590Y005019D02*
X014671Y005019D01*
X014602Y004900D02*
X014146Y004900D01*
X014280Y004782D02*
X014602Y004782D01*
X014602Y004663D02*
X014399Y004663D01*
X014506Y004545D02*
X014602Y004545D01*
X014602Y004426D02*
X014540Y004426D01*
X014726Y004189D02*
X015688Y004189D01*
X015672Y004308D02*
X015375Y004308D01*
X015438Y004426D02*
X015634Y004426D01*
X015634Y004545D02*
X015438Y004545D01*
X015438Y004663D02*
X015634Y004663D01*
X015634Y004782D02*
X015438Y004782D01*
X015511Y004900D02*
X015691Y004900D01*
X015592Y005019D02*
X016132Y005019D01*
X016250Y005137D02*
X015673Y005137D01*
X015754Y005256D02*
X016250Y005256D01*
X016250Y005374D02*
X015821Y005374D01*
X016659Y004782D02*
X016934Y004782D01*
X016981Y004828D02*
X016852Y004699D01*
X016852Y004121D01*
X016981Y003992D01*
X017104Y003992D01*
X017104Y003845D01*
X017020Y003760D01*
X016914Y003866D01*
X016546Y003866D01*
X016546Y004134D01*
X016440Y004240D01*
X016546Y004346D01*
X016546Y004669D01*
X016749Y004871D01*
X016790Y004971D01*
X016790Y005770D01*
X016863Y005697D01*
X017500Y005697D01*
X017500Y004828D01*
X016981Y004828D01*
X016852Y004663D02*
X016546Y004663D01*
X016546Y004545D02*
X016852Y004545D01*
X016852Y004426D02*
X016546Y004426D01*
X016508Y004308D02*
X016852Y004308D01*
X016852Y004189D02*
X016491Y004189D01*
X016546Y004071D02*
X016902Y004071D01*
X017104Y003952D02*
X016546Y003952D01*
X016947Y003834D02*
X017093Y003834D01*
X015825Y003004D02*
X012540Y003004D01*
X012540Y002886D02*
X015864Y002886D01*
X015772Y002767D02*
X012540Y002767D01*
X012743Y002649D02*
X015750Y002649D01*
X015750Y002530D02*
X012815Y002530D01*
X012815Y002412D02*
X015750Y002412D01*
X015750Y002293D02*
X012815Y002293D01*
X012815Y002175D02*
X015750Y002175D01*
X015750Y002056D02*
X012815Y002056D01*
X012815Y001938D02*
X015750Y001938D01*
X015750Y001819D02*
X012815Y001819D01*
X012772Y001701D02*
X015750Y001701D01*
X015760Y001582D02*
X009930Y001582D01*
X009930Y001464D02*
X015835Y001464D01*
X015747Y003123D02*
X012540Y003123D01*
X012540Y003241D02*
X015747Y003241D01*
X015747Y003360D02*
X012540Y003360D01*
X012540Y003478D02*
X015747Y003478D01*
X015674Y003597D02*
X012540Y003597D01*
X012540Y003715D02*
X013864Y003715D01*
X013814Y003834D02*
X012540Y003834D01*
X012540Y003952D02*
X013814Y003952D01*
X013814Y004071D02*
X012540Y004071D01*
X012540Y004189D02*
X013062Y004189D01*
X012944Y004308D02*
X012596Y004308D01*
X012715Y004426D02*
X012825Y004426D01*
X012790Y004545D02*
X012750Y004545D01*
X012750Y004663D02*
X012790Y004663D01*
X012790Y004782D02*
X012750Y004782D01*
X012709Y004900D02*
X012831Y004900D01*
X012950Y005019D02*
X012590Y005019D01*
X012472Y005137D02*
X013068Y005137D01*
X013721Y005730D02*
X014450Y005730D01*
X013858Y004308D02*
X013596Y004308D01*
X013478Y004189D02*
X013814Y004189D01*
X014726Y004071D02*
X015634Y004071D01*
X015634Y003952D02*
X014726Y003952D01*
X014726Y003834D02*
X015634Y003834D01*
X015634Y003715D02*
X014675Y003715D01*
X016761Y004900D02*
X017500Y004900D01*
X017500Y005019D02*
X016790Y005019D01*
X016790Y005137D02*
X017500Y005137D01*
X017500Y005256D02*
X016790Y005256D01*
X016790Y005374D02*
X017500Y005374D01*
X017500Y005493D02*
X016790Y005493D01*
X016790Y005611D02*
X017500Y005611D01*
X016830Y005730D02*
X016790Y005730D01*
X019630Y007863D02*
X019678Y007863D01*
X019678Y008420D02*
X019630Y008420D01*
X019630Y008980D01*
X019698Y008980D01*
X019698Y008923D01*
X019806Y008815D01*
X019806Y008605D01*
X019678Y008477D01*
X019678Y008420D01*
X019678Y008455D02*
X019630Y008455D01*
X019630Y008574D02*
X019774Y008574D01*
X019806Y008692D02*
X019630Y008692D01*
X019630Y008811D02*
X019806Y008811D01*
X019698Y008929D02*
X019630Y008929D01*
X020433Y008337D02*
X020445Y008337D01*
X020362Y010620D02*
X020673Y010931D01*
X020749Y011007D01*
X020790Y011106D01*
X020790Y011108D01*
X020837Y011108D01*
X020966Y011237D01*
X020966Y011734D01*
X020837Y011863D01*
X020290Y011863D01*
X020290Y012798D01*
X020484Y012992D01*
X020559Y012992D01*
X020688Y013121D01*
X020688Y013699D01*
X020559Y013828D01*
X020040Y013828D01*
X020040Y016714D01*
X019999Y016813D01*
X019923Y016889D01*
X019923Y016889D01*
X019662Y017150D01*
X020398Y017150D01*
X021500Y016048D01*
X021500Y010772D01*
X021348Y010620D01*
X020362Y010620D01*
X020448Y010707D02*
X021435Y010707D01*
X021500Y010825D02*
X020567Y010825D01*
X020685Y010944D02*
X021500Y010944D01*
X021500Y011062D02*
X020772Y011062D01*
X020910Y011181D02*
X021500Y011181D01*
X021500Y011299D02*
X020966Y011299D01*
X020966Y011418D02*
X021500Y011418D01*
X021500Y011536D02*
X020966Y011536D01*
X020966Y011655D02*
X021500Y011655D01*
X021500Y011773D02*
X020927Y011773D01*
X021500Y011892D02*
X020290Y011892D01*
X020290Y012010D02*
X021500Y012010D01*
X021500Y012129D02*
X020290Y012129D01*
X020290Y012247D02*
X021500Y012247D01*
X021500Y012366D02*
X020290Y012366D01*
X020290Y012484D02*
X021500Y012484D01*
X021500Y012603D02*
X020290Y012603D01*
X020290Y012721D02*
X021500Y012721D01*
X021500Y012840D02*
X020331Y012840D01*
X020450Y012958D02*
X021500Y012958D01*
X021500Y013077D02*
X020644Y013077D01*
X020688Y013195D02*
X021500Y013195D01*
X021500Y013314D02*
X020688Y013314D01*
X020688Y013432D02*
X021500Y013432D01*
X021500Y013551D02*
X020688Y013551D01*
X020688Y013669D02*
X021500Y013669D01*
X021500Y013788D02*
X020600Y013788D01*
X020040Y013906D02*
X021500Y013906D01*
X021500Y014025D02*
X020040Y014025D01*
X020040Y014143D02*
X021500Y014143D01*
X021500Y014262D02*
X020040Y014262D01*
X020040Y014380D02*
X021500Y014380D01*
X021500Y014499D02*
X020040Y014499D01*
X020040Y014617D02*
X021500Y014617D01*
X021500Y014736D02*
X020040Y014736D01*
X020040Y014854D02*
X021500Y014854D01*
X021500Y014973D02*
X020040Y014973D01*
X020040Y015091D02*
X021500Y015091D01*
X021500Y015210D02*
X020040Y015210D01*
X020040Y015328D02*
X021500Y015328D01*
X021500Y015447D02*
X020040Y015447D01*
X020040Y015565D02*
X021500Y015565D01*
X021500Y015684D02*
X020040Y015684D01*
X020040Y015802D02*
X021500Y015802D01*
X021500Y015921D02*
X020040Y015921D01*
X020040Y016039D02*
X021500Y016039D01*
X021391Y016158D02*
X020040Y016158D01*
X020040Y016276D02*
X021272Y016276D01*
X021154Y016395D02*
X020040Y016395D01*
X020040Y016513D02*
X021035Y016513D01*
X020917Y016632D02*
X020040Y016632D01*
X020025Y016750D02*
X020798Y016750D01*
X020680Y016869D02*
X019943Y016869D01*
X019825Y016987D02*
X020561Y016987D01*
X020443Y017106D02*
X019706Y017106D01*
X019417Y016632D02*
X017303Y016632D01*
X017451Y016513D02*
X019500Y016513D01*
X019500Y016395D02*
X017541Y016395D01*
X017590Y016276D02*
X019500Y016276D01*
X019500Y016158D02*
X017610Y016158D01*
X017610Y016039D02*
X019500Y016039D01*
X019500Y015921D02*
X017580Y015921D01*
X017531Y015802D02*
X019500Y015802D01*
X019500Y015684D02*
X017428Y015684D01*
X017290Y015565D02*
X019500Y015565D01*
X019500Y015447D02*
X017290Y015447D01*
X017290Y015328D02*
X019500Y015328D01*
X019500Y015210D02*
X017290Y015210D01*
X017284Y015091D02*
X019500Y015091D01*
X019500Y014973D02*
X019415Y014973D01*
X019438Y014854D02*
X019500Y014854D01*
X019500Y014736D02*
X019438Y014736D01*
X019438Y014617D02*
X019500Y014617D01*
X019500Y014499D02*
X019438Y014499D01*
X019438Y014380D02*
X019500Y014380D01*
X019500Y014262D02*
X019329Y014262D01*
X019290Y014143D02*
X019500Y014143D01*
X019500Y014025D02*
X019290Y014025D01*
X019290Y013906D02*
X019500Y013906D01*
X019500Y013788D02*
X019290Y013788D01*
X019290Y013669D02*
X019500Y013669D01*
X019500Y013551D02*
X019290Y013551D01*
X019290Y013432D02*
X019500Y013432D01*
X019500Y013314D02*
X019290Y013314D01*
X019290Y013195D02*
X019500Y013195D01*
X019500Y013077D02*
X019278Y013077D01*
X019200Y012958D02*
X019500Y012958D01*
X019500Y012840D02*
X019081Y012840D01*
X018963Y012721D02*
X019500Y012721D01*
X019500Y012603D02*
X018844Y012603D01*
X018726Y012484D02*
X019500Y012484D01*
X019500Y012366D02*
X018675Y012366D01*
X018675Y012247D02*
X019500Y012247D01*
X019500Y012129D02*
X018675Y012129D01*
X018675Y012010D02*
X019500Y012010D01*
X019500Y011892D02*
X018675Y011892D01*
X018675Y011773D02*
X019500Y011773D01*
X019500Y011655D02*
X018675Y011655D01*
X018710Y011536D02*
X018582Y011536D01*
X016328Y012603D02*
X015690Y012603D01*
X015690Y012721D02*
X016214Y012721D01*
X016214Y012840D02*
X015690Y012840D01*
X015690Y012958D02*
X016214Y012958D01*
X016214Y013077D02*
X015690Y013077D01*
X015690Y013195D02*
X016214Y013195D01*
X016313Y013314D02*
X015690Y013314D01*
X015690Y013432D02*
X018000Y013432D01*
X018000Y013551D02*
X015792Y013551D01*
X015911Y013669D02*
X018000Y013669D01*
X018000Y013788D02*
X016029Y013788D01*
X016148Y013906D02*
X018000Y013906D01*
X018000Y014025D02*
X016266Y014025D01*
X016385Y014143D02*
X018000Y014143D01*
X017961Y014262D02*
X016503Y014262D01*
X016622Y014380D02*
X017852Y014380D01*
X017852Y014499D02*
X016740Y014499D01*
X016859Y014617D02*
X017852Y014617D01*
X017852Y014736D02*
X016977Y014736D01*
X017096Y014854D02*
X017852Y014854D01*
X017875Y014973D02*
X017214Y014973D01*
X016589Y016513D02*
X016533Y016513D01*
X016433Y016632D02*
X016737Y016632D01*
X017027Y013314D02*
X017433Y013314D01*
X013510Y011536D02*
X012612Y011536D01*
X012730Y011418D02*
X013410Y011418D01*
X013410Y011299D02*
X012849Y011299D01*
X012967Y011181D02*
X013410Y011181D01*
X013410Y011062D02*
X013086Y011062D01*
X013204Y010944D02*
X013410Y010944D01*
X010457Y007507D02*
X006160Y007507D01*
X006659Y006085D02*
X002800Y006085D01*
X002820Y005967D02*
X006540Y005967D01*
X006422Y005848D02*
X002964Y005848D01*
X003082Y005730D02*
X005330Y005730D01*
X004839Y005611D02*
X003201Y005611D01*
X003278Y005493D02*
X004721Y005493D01*
X004602Y005374D02*
X003434Y005374D01*
X003477Y005256D02*
X004517Y005256D01*
X004500Y005137D02*
X003477Y005137D01*
X003477Y005019D02*
X004500Y005019D01*
X004500Y004900D02*
X003477Y004900D01*
X003477Y004782D02*
X004500Y004782D01*
X004500Y004663D02*
X003477Y004663D01*
X004136Y004545D02*
X004500Y004545D01*
X004500Y004426D02*
X004254Y004426D01*
X004256Y004308D02*
X004500Y004308D01*
X004500Y004189D02*
X004256Y004189D01*
X004256Y004071D02*
X004500Y004071D01*
X004500Y003952D02*
X004256Y003952D01*
X004163Y003834D02*
X004500Y003834D01*
X004983Y003241D02*
X007394Y003241D01*
X007352Y003123D02*
X004864Y003123D01*
X004746Y003004D02*
X007352Y003004D01*
X007352Y002886D02*
X004627Y002886D01*
X004509Y002767D02*
X007352Y002767D01*
X007352Y002649D02*
X004390Y002649D01*
X004272Y002530D02*
X007443Y002530D01*
X008750Y001582D02*
X003932Y001582D01*
X004033Y001464D02*
X008750Y001464D01*
X008750Y001345D02*
X004082Y001345D01*
X004110Y001227D02*
X008750Y001227D01*
X008750Y001108D02*
X004110Y001108D01*
X004088Y000990D02*
X008809Y000990D01*
X008927Y000871D02*
X004039Y000871D01*
X003947Y000753D02*
X009046Y000753D01*
X009164Y000634D02*
X003792Y000634D01*
X002282Y000620D02*
X000616Y000620D01*
X000616Y004186D01*
X000692Y004110D01*
X001324Y004110D01*
X001220Y004006D01*
X001220Y003332D01*
X001349Y003203D01*
X001520Y003203D01*
X001520Y001836D01*
X001561Y001737D01*
X001957Y001342D01*
X001930Y001277D01*
X001930Y001043D01*
X002020Y000826D01*
X002186Y000660D01*
X002282Y000620D01*
X002248Y000634D02*
X000616Y000634D01*
X000616Y000753D02*
X002093Y000753D01*
X002001Y000871D02*
X000616Y000871D01*
X000616Y000990D02*
X001952Y000990D01*
X001930Y001108D02*
X000616Y001108D01*
X000616Y001227D02*
X001930Y001227D01*
X001953Y001345D02*
X000616Y001345D01*
X000616Y001464D02*
X001835Y001464D01*
X001716Y001582D02*
X000616Y001582D01*
X000616Y001701D02*
X001598Y001701D01*
X001527Y001819D02*
X000616Y001819D01*
X000616Y001938D02*
X001520Y001938D01*
X001520Y002056D02*
X000616Y002056D01*
X000616Y002175D02*
X001520Y002175D01*
X001520Y002293D02*
X000616Y002293D01*
X000616Y002412D02*
X001520Y002412D01*
X001520Y002530D02*
X000616Y002530D01*
X000616Y002649D02*
X001520Y002649D01*
X001520Y002767D02*
X000616Y002767D01*
X000616Y002886D02*
X001520Y002886D01*
X001520Y003004D02*
X000616Y003004D01*
X000616Y003123D02*
X001520Y003123D01*
X001311Y003241D02*
X000616Y003241D01*
X000616Y003360D02*
X001220Y003360D01*
X001220Y003478D02*
X000616Y003478D01*
X000616Y003597D02*
X001220Y003597D01*
X001220Y003715D02*
X000616Y003715D01*
X000616Y003834D02*
X001220Y003834D01*
X001220Y003952D02*
X000616Y003952D01*
X000616Y004071D02*
X001284Y004071D01*
X000642Y004900D02*
X000616Y004900D01*
X000616Y005019D02*
X002545Y005019D01*
X002545Y005137D02*
X000616Y005137D01*
X002692Y006915D02*
X003352Y006915D01*
X003352Y007033D02*
X002692Y007033D01*
X002692Y007152D02*
X003352Y007152D01*
X003352Y007270D02*
X002692Y007270D01*
X002678Y007389D02*
X003352Y007389D01*
X003410Y007507D02*
X002692Y007507D01*
X002692Y007626D02*
X003500Y007626D01*
X003500Y007744D02*
X002692Y007744D01*
X002692Y007863D02*
X003500Y007863D01*
X003503Y007981D02*
X002692Y007981D01*
X002669Y008100D02*
X003568Y008100D01*
X003686Y008218D02*
X002692Y008218D01*
X005129Y005137D02*
X005214Y005137D01*
X005311Y005019D02*
X005040Y005019D01*
X009930Y004782D02*
X009948Y004782D01*
X009930Y004663D02*
X011790Y004663D01*
X011790Y004545D02*
X009930Y004545D01*
X009930Y004426D02*
X011825Y004426D01*
X011944Y004308D02*
X009930Y004308D01*
X009930Y004189D02*
X012000Y004189D01*
X012000Y004071D02*
X009930Y004071D01*
X009930Y003952D02*
X012000Y003952D01*
X012000Y003834D02*
X009930Y003834D01*
X009930Y003715D02*
X012000Y003715D01*
X012000Y003597D02*
X009930Y003597D01*
X009930Y003478D02*
X012000Y003478D01*
X012000Y003360D02*
X009930Y003360D01*
X009930Y003241D02*
X012000Y003241D01*
X012000Y003123D02*
X009930Y003123D01*
X009930Y003004D02*
X012000Y003004D01*
X012000Y002886D02*
X009930Y002886D01*
X009930Y002767D02*
X012000Y002767D01*
X011797Y002649D02*
X009930Y002649D01*
X009930Y002530D02*
X011725Y002530D01*
X011725Y002412D02*
X009930Y002412D01*
X009930Y002293D02*
X011725Y002293D01*
X011725Y002175D02*
X009930Y002175D01*
X009930Y002056D02*
X011725Y002056D01*
X011725Y001938D02*
X009930Y001938D01*
X009930Y001819D02*
X011725Y001819D01*
X011768Y001701D02*
X009930Y001701D01*
X010692Y004782D02*
X011790Y004782D01*
X011810Y004900D02*
X010776Y004900D01*
X010776Y005019D02*
X011810Y005019D01*
X011810Y005137D02*
X010776Y005137D01*
X010776Y005256D02*
X011810Y005256D01*
X011810Y005374D02*
X010765Y005374D01*
X010768Y005493D02*
X011810Y005493D01*
X011810Y005611D02*
X010768Y005611D01*
X010768Y005730D02*
X011816Y005730D01*
X011886Y005848D02*
X010768Y005848D01*
X010768Y005967D02*
X012005Y005967D01*
X012123Y006085D02*
X010702Y006085D01*
X010525Y007270D02*
X012461Y007270D01*
X012580Y007389D02*
X010508Y007389D01*
D30*
X012080Y009040D03*
D31*
X011877Y008620D02*
X011636Y008861D01*
X010981Y008861D01*
X010980Y008860D01*
X010982Y008672D02*
X010980Y008670D01*
X010982Y008672D02*
X011593Y008672D01*
X011795Y008470D01*
X013920Y008470D01*
X013920Y008620D02*
X011877Y008620D01*
X011707Y008310D02*
X011546Y008471D01*
X010981Y008471D01*
X010980Y008470D01*
X010980Y008270D02*
X010980Y008270D01*
X011498Y008270D01*
X011619Y008150D01*
X013920Y008150D01*
X013920Y007990D02*
X011511Y007990D01*
X011420Y008081D01*
X010981Y008081D01*
X010980Y008080D01*
X010980Y007880D02*
X010980Y007880D01*
X011392Y007880D01*
X011432Y007840D01*
X013920Y007840D01*
X013920Y007680D02*
X010980Y007680D01*
X011707Y008310D02*
X013920Y008310D01*
X013920Y008780D02*
X012929Y008780D01*
X012250Y009459D01*
X010981Y009459D01*
X010980Y009460D01*
X010986Y009644D02*
X010980Y009650D01*
X010986Y009644D02*
X012337Y009644D01*
X013041Y008940D01*
X013920Y008940D01*
X013920Y009100D02*
X013172Y009100D01*
X012420Y009853D01*
X010983Y009853D01*
X010980Y009850D01*
X010984Y010046D02*
X010980Y010050D01*
X010984Y010046D02*
X012514Y010046D01*
X013310Y009250D01*
X013920Y009250D01*
X013920Y009410D02*
X013437Y009410D01*
X012609Y010239D01*
X010981Y010239D01*
X010980Y010240D01*
X010980Y010440D02*
X010980Y010440D01*
X012707Y010440D01*
X013576Y009570D01*
X013920Y009570D01*
X013920Y010350D02*
X013080Y010350D01*
X012790Y010640D01*
X010980Y010640D01*
X010980Y010640D01*
X010251Y011369D02*
X010250Y011370D01*
X010251Y011369D02*
X012412Y011369D01*
X013110Y010670D01*
X013920Y010670D01*
X013920Y007520D02*
X013079Y007520D01*
X012522Y006963D01*
X010263Y006963D01*
X010250Y006950D01*
M02*
