G75*
%MOIN*%
%OFA0B0*%
%FSLAX24Y24*%
%IPPOS*%
%LPD*%
%AMOC8*
5,1,8,0,0,1.08239X$1,22.5*
%
%ADD10C,0.0030*%
%ADD11C,0.0100*%
%ADD12C,0.0000*%
%ADD13C,0.0060*%
%ADD14C,0.0080*%
%ADD15C,0.0050*%
%ADD16C,0.0040*%
D10*
X000557Y000549D02*
X000803Y000549D01*
X000865Y000611D01*
X000865Y000734D01*
X000803Y000796D01*
X000680Y000796D01*
X000680Y000672D01*
X000557Y000549D02*
X000495Y000611D01*
X000495Y000734D01*
X000557Y000796D01*
X000495Y000917D02*
X000865Y001164D01*
X000495Y001164D01*
X000495Y001286D02*
X000495Y001471D01*
X000557Y001533D01*
X000803Y001533D01*
X000865Y001471D01*
X000865Y001286D01*
X000495Y001286D01*
X000495Y000917D02*
X000865Y000917D01*
X002570Y001785D02*
X002940Y001785D01*
X002755Y001785D02*
X002755Y002032D01*
X002817Y002154D02*
X002570Y002154D01*
X002570Y002032D02*
X002940Y002032D01*
X002817Y002154D02*
X002940Y002277D01*
X002817Y002400D01*
X002570Y002400D01*
X002570Y002522D02*
X002570Y002707D01*
X002631Y002769D01*
X002878Y002769D01*
X002940Y002707D01*
X002940Y002522D01*
X002570Y002522D01*
X002570Y002890D02*
X002570Y003075D01*
X002631Y003137D01*
X002878Y003137D01*
X002940Y003075D01*
X002940Y002890D01*
X002570Y002890D01*
X003361Y002976D02*
X003423Y002914D01*
X003484Y002914D01*
X003546Y002976D01*
X003546Y003099D01*
X003608Y003161D01*
X003670Y003161D01*
X003731Y003099D01*
X003731Y002976D01*
X003670Y002914D01*
X003670Y002792D02*
X003731Y002731D01*
X003731Y002607D01*
X003670Y002545D01*
X003608Y002424D02*
X003361Y002424D01*
X003423Y002545D02*
X003361Y002607D01*
X003361Y002731D01*
X003423Y002792D01*
X003546Y002731D02*
X003608Y002792D01*
X003670Y002792D01*
X003546Y002731D02*
X003546Y002607D01*
X003484Y002545D01*
X003423Y002545D01*
X003608Y002424D02*
X003731Y002301D01*
X003608Y002177D01*
X003361Y002177D01*
X003361Y002056D02*
X003731Y002056D01*
X003546Y002056D02*
X003546Y001809D01*
X003731Y001809D02*
X003361Y001809D01*
X003361Y002976D02*
X003361Y003099D01*
X003423Y003161D01*
X002967Y005951D02*
X002653Y006265D01*
X002653Y006108D02*
X002967Y006108D01*
X002967Y006265D02*
X002653Y005951D01*
X002810Y005951D02*
X002810Y006265D01*
X006893Y006312D02*
X007207Y006312D01*
X007207Y006469D02*
X006893Y006155D01*
X007050Y006155D02*
X007050Y006469D01*
X006893Y006469D02*
X007207Y006155D01*
X007260Y001645D02*
X007260Y001275D01*
X007382Y001398D02*
X007505Y001275D01*
X007628Y001398D01*
X007628Y001645D01*
X007750Y001645D02*
X007935Y001645D01*
X007997Y001584D01*
X007997Y001337D01*
X007935Y001275D01*
X007750Y001275D01*
X007750Y001645D01*
X007382Y001645D02*
X007382Y001398D01*
X007260Y001460D02*
X007013Y001460D01*
X007013Y001275D02*
X007013Y001645D01*
X007013Y001045D02*
X007013Y000675D01*
X007013Y000860D02*
X007260Y000860D01*
X007382Y000798D02*
X007505Y000675D01*
X007628Y000798D01*
X007628Y001045D01*
X007750Y000984D02*
X007750Y000922D01*
X007812Y000860D01*
X007935Y000860D01*
X007997Y000798D01*
X007997Y000737D01*
X007935Y000675D01*
X007812Y000675D01*
X007750Y000737D01*
X007382Y000798D02*
X007382Y001045D01*
X007260Y001045D02*
X007260Y000675D01*
X007750Y000984D02*
X007812Y001045D01*
X007935Y001045D01*
X007997Y000984D01*
X008118Y000984D02*
X008118Y000922D01*
X008180Y000860D01*
X008303Y000860D01*
X008365Y000798D01*
X008365Y000737D01*
X008303Y000675D01*
X008180Y000675D01*
X008118Y000737D01*
X008118Y000984D02*
X008180Y001045D01*
X008303Y001045D01*
X008365Y000984D01*
X008303Y001275D02*
X008118Y001275D01*
X008118Y001645D01*
X008303Y001645D01*
X008365Y001584D01*
X008365Y001337D01*
X008303Y001275D01*
X008855Y001398D02*
X009102Y001398D01*
X009102Y001522D02*
X008855Y001522D01*
X008855Y000922D02*
X009102Y000922D01*
X009102Y000798D02*
X008855Y000798D01*
X009591Y000860D02*
X009838Y000860D01*
X009960Y000798D02*
X010083Y000675D01*
X010205Y000675D02*
X010452Y000675D01*
X010574Y000675D02*
X010821Y000922D01*
X010821Y000984D01*
X010759Y001045D01*
X010635Y001045D01*
X010574Y000984D01*
X010329Y001045D02*
X010205Y000922D01*
X010083Y001045D02*
X009960Y000922D01*
X009960Y000798D01*
X010329Y000675D02*
X010329Y001045D01*
X010329Y001275D02*
X010329Y001645D01*
X010205Y001522D01*
X010083Y001645D02*
X009960Y001522D01*
X009960Y001398D01*
X010083Y001275D01*
X010205Y001275D02*
X010452Y001275D01*
X010574Y001275D02*
X010821Y001522D01*
X010821Y001584D01*
X010759Y001645D01*
X010635Y001645D01*
X010574Y001584D01*
X010574Y001275D02*
X010821Y001275D01*
X010942Y001460D02*
X011189Y001460D01*
X011310Y001522D02*
X011434Y001645D01*
X011434Y001275D01*
X011557Y001275D02*
X011310Y001275D01*
X011434Y001045D02*
X011434Y000675D01*
X011557Y000675D02*
X011310Y000675D01*
X011189Y000860D02*
X010942Y000860D01*
X010821Y000675D02*
X010574Y000675D01*
X011310Y000922D02*
X011434Y001045D01*
X011679Y001045D02*
X011679Y000860D01*
X011802Y000922D01*
X011864Y000922D01*
X011925Y000860D01*
X011925Y000737D01*
X011864Y000675D01*
X011740Y000675D01*
X011679Y000737D01*
X012047Y000675D02*
X012170Y000798D01*
X012170Y000922D01*
X012047Y001045D01*
X011925Y001045D02*
X011679Y001045D01*
X011740Y001275D02*
X011679Y001337D01*
X011740Y001275D02*
X011864Y001275D01*
X011925Y001337D01*
X011925Y001460D01*
X011864Y001522D01*
X011802Y001522D01*
X011679Y001460D01*
X011679Y001645D01*
X011925Y001645D01*
X012047Y001645D02*
X012170Y001522D01*
X012170Y001398D01*
X012047Y001275D01*
X012292Y001522D02*
X012416Y001275D01*
X012539Y001522D01*
X012539Y000922D02*
X012416Y000675D01*
X012292Y000922D01*
X009838Y001460D02*
X009591Y001460D01*
X009715Y001337D02*
X009715Y001584D01*
X014243Y006055D02*
X014557Y006369D01*
X014557Y006212D02*
X014243Y006212D01*
X014243Y006369D02*
X014557Y006055D01*
X014400Y006055D02*
X014400Y006369D01*
X020110Y005730D02*
X020480Y005730D01*
X020480Y005607D02*
X020480Y005854D01*
X020233Y005607D02*
X020110Y005730D01*
X020171Y005485D02*
X020110Y005424D01*
X020110Y005238D01*
X020480Y005238D01*
X020480Y005424D01*
X020418Y005485D01*
X020171Y005485D01*
X020110Y005117D02*
X020110Y004870D01*
X020480Y004870D01*
X020480Y005117D01*
X020295Y004993D02*
X020295Y004870D01*
X020480Y004749D02*
X020480Y004502D01*
X020110Y004502D01*
X021162Y003289D02*
X021285Y003289D01*
X021223Y003289D02*
X021223Y002981D01*
X021162Y002919D01*
X021100Y002919D01*
X021038Y002981D01*
X021407Y003043D02*
X021592Y003043D01*
X021653Y003104D01*
X021653Y003228D01*
X021592Y003289D01*
X021407Y003289D01*
X021407Y002919D01*
X021775Y002981D02*
X021837Y002919D01*
X021960Y002919D01*
X022022Y002981D01*
X022022Y003043D01*
X021960Y003104D01*
X021775Y003104D01*
X021775Y002981D01*
X021775Y003104D02*
X021898Y003228D01*
X022022Y003289D01*
X022111Y003738D02*
X022173Y003800D01*
X022173Y003923D01*
X022111Y003985D01*
X022050Y003985D01*
X021988Y003923D01*
X021988Y003800D01*
X021926Y003738D01*
X021864Y003738D01*
X021803Y003800D01*
X021803Y003923D01*
X021864Y003985D01*
X021803Y004106D02*
X022173Y004106D01*
X022173Y004353D01*
X022173Y004475D02*
X021926Y004475D01*
X021803Y004598D01*
X021926Y004721D01*
X022173Y004721D01*
X022173Y004843D02*
X022173Y005028D01*
X022111Y005090D01*
X021864Y005090D01*
X021803Y005028D01*
X021803Y004843D01*
X022173Y004843D01*
X021988Y004721D02*
X021988Y004475D01*
X021803Y004353D02*
X021803Y004106D01*
X021988Y004106D02*
X021988Y004230D01*
X022403Y004352D02*
X022526Y004475D01*
X022650Y004475D01*
X022773Y004352D01*
X022773Y004230D02*
X022773Y004045D01*
X022711Y003984D01*
X022588Y003984D01*
X022526Y004045D01*
X022526Y004230D01*
X022403Y003861D02*
X022526Y003738D01*
X022650Y003738D01*
X022773Y003861D01*
X023126Y003923D02*
X023126Y003738D01*
X023496Y003738D01*
X023373Y003738D02*
X023373Y003923D01*
X023311Y003985D01*
X023188Y003985D01*
X023126Y003923D01*
X023126Y004168D02*
X023126Y004291D01*
X023188Y004353D01*
X023373Y004353D01*
X023373Y004168D01*
X023311Y004106D01*
X023250Y004168D01*
X023250Y004353D01*
X023126Y004475D02*
X023373Y004598D01*
X023126Y004721D01*
X023003Y004843D02*
X023003Y004905D01*
X023373Y004905D01*
X023373Y004966D02*
X023373Y004843D01*
X023311Y005088D02*
X023188Y005088D01*
X023126Y005150D01*
X023126Y005274D01*
X023188Y005335D01*
X023311Y005335D01*
X023373Y005274D01*
X023373Y005150D01*
X023311Y005088D01*
X023311Y005457D02*
X023311Y005519D01*
X023373Y005519D01*
X023373Y005457D01*
X023311Y005457D01*
X023373Y005641D02*
X023126Y005641D01*
X023126Y005703D01*
X023188Y005764D01*
X023126Y005826D01*
X023188Y005888D01*
X023373Y005888D01*
X023373Y005764D02*
X023188Y005764D01*
X023188Y006009D02*
X023126Y006071D01*
X023126Y006194D01*
X023188Y006256D01*
X023250Y006256D01*
X023250Y006009D01*
X023311Y006009D02*
X023188Y006009D01*
X023311Y006009D02*
X023373Y006071D01*
X023373Y006194D01*
X022773Y006194D02*
X022773Y006071D01*
X022773Y006132D02*
X022403Y006132D01*
X022403Y006071D01*
X022526Y005949D02*
X022773Y005826D01*
X022526Y005702D01*
X022588Y005581D02*
X022526Y005519D01*
X022526Y005396D01*
X022650Y005396D02*
X022650Y005581D01*
X022588Y005581D02*
X022773Y005581D01*
X022773Y005396D01*
X022711Y005334D01*
X022650Y005396D01*
X022588Y005213D02*
X022464Y005213D01*
X022403Y005151D01*
X022403Y004966D01*
X022773Y004966D01*
X022650Y004966D02*
X022650Y005151D01*
X022588Y005213D01*
X022173Y005580D02*
X022173Y005765D01*
X022111Y005826D01*
X021864Y005826D01*
X021803Y005765D01*
X021803Y005580D01*
X022173Y005580D01*
X022173Y005948D02*
X021926Y005948D01*
X021803Y006071D01*
X021926Y006195D01*
X022173Y006195D01*
X022111Y006316D02*
X021864Y006316D01*
X021803Y006378D01*
X021803Y006501D01*
X021864Y006563D01*
X022111Y006563D01*
X022173Y006501D01*
X022173Y006378D01*
X022111Y006316D01*
X022050Y006440D02*
X022173Y006563D01*
X022526Y006501D02*
X022526Y006378D01*
X022588Y006316D01*
X022711Y006316D01*
X022773Y006378D01*
X022773Y006501D01*
X022711Y006563D01*
X022588Y006563D01*
X022526Y006501D01*
X021988Y006195D02*
X021988Y005948D01*
X022111Y007053D02*
X021803Y007053D01*
X021803Y007300D02*
X022111Y007300D01*
X022173Y007238D01*
X022173Y007115D01*
X022111Y007053D01*
X022403Y007053D02*
X022526Y007176D01*
X022403Y007300D01*
X022773Y007300D01*
X022711Y007421D02*
X022650Y007483D01*
X022650Y007668D01*
X022588Y007668D02*
X022773Y007668D01*
X022773Y007483D01*
X022711Y007421D01*
X022526Y007483D02*
X022526Y007606D01*
X022588Y007668D01*
X022526Y007789D02*
X022773Y007789D01*
X022526Y007789D02*
X022526Y007975D01*
X022588Y008036D01*
X022773Y008036D01*
X022711Y008158D02*
X022773Y008219D01*
X022773Y008343D01*
X022711Y008405D01*
X022588Y008405D01*
X022526Y008343D01*
X022526Y008219D01*
X022588Y008158D01*
X022711Y008158D01*
X022526Y008526D02*
X022773Y008650D01*
X022526Y008773D01*
X022526Y008894D02*
X022526Y008956D01*
X022773Y008956D01*
X022773Y008894D02*
X022773Y009018D01*
X022403Y008956D02*
X022341Y008956D01*
X022173Y009017D02*
X022173Y009264D01*
X022173Y009385D02*
X022173Y009447D01*
X022111Y009447D01*
X022111Y009385D01*
X022173Y009385D01*
X022173Y009570D02*
X021926Y009817D01*
X021864Y009817D01*
X021803Y009755D01*
X021803Y009631D01*
X021864Y009570D01*
X022173Y009570D02*
X022173Y009817D01*
X022588Y009755D02*
X022588Y009508D01*
X022173Y009141D02*
X021803Y009141D01*
X021926Y009017D01*
X021926Y008896D02*
X022173Y008772D01*
X021926Y008649D01*
X021926Y008158D02*
X021926Y008035D01*
X021864Y008097D02*
X022111Y008097D01*
X022173Y008158D01*
X022173Y007913D02*
X022173Y007789D01*
X022173Y007851D02*
X021926Y007851D01*
X021926Y007789D01*
X021988Y007668D02*
X022173Y007668D01*
X021988Y007668D02*
X021926Y007606D01*
X021926Y007421D01*
X022173Y007421D01*
X022403Y007053D02*
X022773Y007053D01*
X021803Y007851D02*
X021741Y007851D01*
X022464Y010245D02*
X022403Y010307D01*
X022403Y010430D01*
X022464Y010492D01*
X022526Y010492D01*
X022773Y010245D01*
X022773Y010492D01*
X022711Y010613D02*
X022464Y010613D01*
X022403Y010675D01*
X022403Y010798D01*
X022464Y010860D01*
X022711Y010613D01*
X022773Y010675D01*
X022773Y010798D01*
X022711Y010860D01*
X022464Y010860D01*
X022526Y010982D02*
X022403Y011105D01*
X022773Y011105D01*
X022773Y010982D02*
X022773Y011228D01*
X022588Y011350D02*
X022588Y011597D01*
X022773Y011535D02*
X022403Y011535D01*
X022588Y011350D01*
X019185Y015187D02*
X018877Y015187D01*
X018877Y015434D02*
X019185Y015434D01*
X019247Y015372D01*
X019247Y015249D01*
X019185Y015187D01*
X019124Y015555D02*
X019124Y015740D01*
X019062Y015802D01*
X018938Y015802D01*
X018877Y015740D01*
X018877Y015555D01*
X019247Y015555D01*
X019124Y015679D02*
X019247Y015802D01*
X019247Y015923D02*
X018877Y016170D01*
X018877Y015923D02*
X019247Y016170D01*
X018448Y016155D02*
X018078Y015908D01*
X018078Y015786D02*
X018078Y015539D01*
X018078Y015418D02*
X018386Y015418D01*
X018448Y015356D01*
X018448Y015233D01*
X018386Y015171D01*
X018078Y015171D01*
X018078Y015663D02*
X018448Y015663D01*
X018448Y015908D02*
X018078Y016155D01*
X017223Y017024D02*
X017162Y016962D01*
X017223Y017024D02*
X017223Y017148D01*
X017162Y017209D01*
X017100Y017209D01*
X017038Y017148D01*
X017038Y017024D01*
X016977Y016962D01*
X016915Y016962D01*
X016853Y017024D01*
X016853Y017148D01*
X016915Y017209D01*
X016915Y017331D02*
X017162Y017331D01*
X017223Y017392D01*
X017223Y017516D01*
X017162Y017578D01*
X017223Y017699D02*
X016853Y017699D01*
X016915Y017578D02*
X016853Y017516D01*
X016853Y017392D01*
X016915Y017331D01*
X017100Y017699D02*
X016853Y017946D01*
X017038Y017761D02*
X017223Y017946D01*
X016216Y018006D02*
X016154Y017945D01*
X015907Y017945D01*
X015845Y018006D01*
X015845Y018130D01*
X015907Y018191D01*
X016154Y018191D01*
X016216Y018130D01*
X016216Y018006D01*
X016154Y017823D02*
X016216Y017761D01*
X016216Y017638D01*
X016154Y017576D01*
X016216Y017454D02*
X016216Y017331D01*
X016216Y017392D02*
X015845Y017392D01*
X015845Y017331D02*
X015845Y017454D01*
X015907Y017576D02*
X015969Y017576D01*
X016030Y017638D01*
X016030Y017761D01*
X016092Y017823D01*
X016154Y017823D01*
X015907Y017823D02*
X015845Y017761D01*
X015845Y017638D01*
X015907Y017576D01*
X015845Y017209D02*
X016216Y017209D01*
X016216Y016962D02*
X015845Y016962D01*
X015969Y017086D01*
X015845Y017209D01*
X015196Y017209D02*
X014826Y017209D01*
X014949Y017086D01*
X014826Y016962D01*
X015196Y016962D01*
X015134Y017331D02*
X014887Y017331D01*
X014826Y017392D01*
X014826Y017516D01*
X014887Y017578D01*
X015134Y017578D01*
X015196Y017516D01*
X015196Y017392D01*
X015134Y017331D01*
X015134Y017699D02*
X015196Y017761D01*
X015196Y017884D01*
X015134Y017946D01*
X015072Y017946D01*
X015011Y017884D01*
X015011Y017761D01*
X014949Y017699D01*
X014887Y017699D01*
X014826Y017761D01*
X014826Y017884D01*
X014887Y017946D01*
X014826Y018067D02*
X014826Y018191D01*
X014826Y018129D02*
X015196Y018129D01*
X015196Y018067D02*
X015196Y018191D01*
X014153Y017528D02*
X014153Y017404D01*
X014091Y017343D01*
X014091Y017221D02*
X014029Y017221D01*
X013967Y017159D01*
X013967Y017036D01*
X013906Y016974D01*
X013844Y016974D01*
X013782Y017036D01*
X013782Y017159D01*
X013844Y017221D01*
X013844Y017343D02*
X013782Y017404D01*
X013782Y017528D01*
X013844Y017589D01*
X013967Y017528D02*
X014029Y017589D01*
X014091Y017589D01*
X014153Y017528D01*
X013967Y017528D02*
X013967Y017404D01*
X013906Y017343D01*
X013844Y017343D01*
X014091Y017221D02*
X014153Y017159D01*
X014153Y017036D01*
X014091Y016974D01*
X007749Y017497D02*
X007687Y017435D01*
X007564Y017435D01*
X007502Y017497D01*
X007381Y017435D02*
X007381Y017682D01*
X007257Y017805D01*
X007134Y017682D01*
X007134Y017435D01*
X007013Y017373D02*
X006766Y017373D01*
X006644Y017435D02*
X006644Y017805D01*
X006644Y017620D02*
X006397Y017620D01*
X006276Y017497D02*
X006214Y017435D01*
X006091Y017435D01*
X006029Y017497D01*
X006029Y017743D01*
X006091Y017805D01*
X006214Y017805D01*
X006276Y017743D01*
X006397Y017805D02*
X006397Y017435D01*
X006766Y017973D02*
X007013Y017973D01*
X007134Y018035D02*
X007134Y018282D01*
X007257Y018405D01*
X007381Y018282D01*
X007381Y018035D01*
X007502Y018035D02*
X007749Y018282D01*
X007749Y018343D01*
X007687Y018405D01*
X007564Y018405D01*
X007502Y018343D01*
X007381Y018220D02*
X007134Y018220D01*
X007013Y018573D02*
X006766Y018573D01*
X006644Y018635D02*
X006644Y019005D01*
X006644Y018820D02*
X006397Y018820D01*
X006276Y018697D02*
X006214Y018635D01*
X006091Y018635D01*
X006029Y018697D01*
X006029Y018943D01*
X006091Y019005D01*
X006214Y019005D01*
X006276Y018943D01*
X006397Y019005D02*
X006397Y018635D01*
X006397Y018405D02*
X006397Y018035D01*
X006276Y018097D02*
X006214Y018035D01*
X006091Y018035D01*
X006029Y018097D01*
X006029Y018343D01*
X006091Y018405D01*
X006214Y018405D01*
X006276Y018343D01*
X006397Y018220D02*
X006644Y018220D01*
X006644Y018405D02*
X006644Y018035D01*
X007134Y017620D02*
X007381Y017620D01*
X007502Y017743D02*
X007564Y017805D01*
X007687Y017805D01*
X007749Y017743D01*
X007749Y017682D01*
X007687Y017620D01*
X007749Y017558D01*
X007749Y017497D01*
X007687Y017620D02*
X007626Y017620D01*
X007749Y018035D02*
X007502Y018035D01*
X007502Y018635D02*
X007749Y018635D01*
X007626Y018635D02*
X007626Y019005D01*
X007502Y018882D01*
X007381Y018882D02*
X007381Y018635D01*
X007381Y018820D02*
X007134Y018820D01*
X007134Y018882D02*
X007257Y019005D01*
X007381Y018882D01*
X007134Y018882D02*
X007134Y018635D01*
X001689Y018161D02*
X001442Y018161D01*
X001566Y018161D02*
X001566Y018531D01*
X001442Y018408D01*
X001321Y018469D02*
X001321Y018346D01*
X001259Y018284D01*
X001074Y018284D01*
X001074Y018161D02*
X001074Y018531D01*
X001259Y018531D01*
X001321Y018469D01*
X000952Y018531D02*
X000829Y018531D01*
X000891Y018531D02*
X000891Y018223D01*
X000829Y018161D01*
X000767Y018161D01*
X000706Y018223D01*
X016171Y001490D02*
X016294Y001490D01*
X016232Y001490D02*
X016232Y001120D01*
X016171Y001120D02*
X016294Y001120D01*
X016416Y001182D02*
X016478Y001120D01*
X016601Y001120D01*
X016663Y001182D01*
X016785Y001182D02*
X016846Y001120D01*
X016970Y001120D01*
X017031Y001182D01*
X017031Y001243D01*
X016970Y001305D01*
X016846Y001305D01*
X016785Y001367D01*
X016785Y001428D01*
X016846Y001490D01*
X016970Y001490D01*
X017031Y001428D01*
X017153Y001490D02*
X017338Y001490D01*
X017400Y001428D01*
X017400Y001305D01*
X017338Y001243D01*
X017153Y001243D01*
X017153Y001120D02*
X017153Y001490D01*
X016663Y001428D02*
X016601Y001490D01*
X016478Y001490D01*
X016416Y001428D01*
X016416Y001182D01*
X022499Y001439D02*
X022622Y001562D01*
X022499Y001686D01*
X022869Y001686D01*
X022807Y001807D02*
X022560Y001807D01*
X022499Y001869D01*
X022499Y001992D01*
X022560Y002054D01*
X022499Y002175D02*
X022869Y002175D01*
X022869Y002422D01*
X022869Y002544D02*
X022499Y002544D01*
X022499Y002729D01*
X022560Y002791D01*
X022684Y002791D01*
X022746Y002729D01*
X022746Y002544D01*
X022746Y002667D02*
X022869Y002791D01*
X022807Y002054D02*
X022869Y001992D01*
X022869Y001869D01*
X022807Y001807D01*
X022869Y001439D02*
X022499Y001439D01*
D11*
X007900Y017231D02*
X005927Y017231D01*
X005927Y019160D01*
X006034Y019160D01*
X006034Y019156D01*
X006034Y019160D02*
X007904Y019160D01*
X007900Y017231D01*
D12*
X014160Y011770D02*
X014160Y007050D01*
X018880Y007050D01*
X018880Y011770D01*
X014160Y011770D01*
X014590Y011770D02*
X014590Y012170D01*
X014680Y012170D01*
X014680Y011770D01*
X014590Y011770D01*
X014740Y011770D02*
X014740Y012170D01*
X014830Y012170D01*
X014830Y011770D01*
X014740Y011770D01*
X014900Y011770D02*
X014900Y012170D01*
X014990Y012170D01*
X014990Y011770D01*
X014900Y011770D01*
X015060Y011770D02*
X015060Y012170D01*
X015150Y012170D01*
X015150Y011770D01*
X015060Y011770D01*
X015220Y011770D02*
X015220Y012170D01*
X015310Y012170D01*
X015310Y011770D01*
X015220Y011770D01*
X015370Y011770D02*
X015370Y012170D01*
X015460Y012170D01*
X015460Y011770D01*
X015370Y011770D01*
X015530Y011770D02*
X015530Y012170D01*
X015620Y012170D01*
X015620Y011770D01*
X015530Y011770D01*
X015690Y011770D02*
X015690Y012170D01*
X015780Y012170D01*
X015780Y011770D01*
X015690Y011770D01*
X015850Y011770D02*
X015850Y012170D01*
X015940Y012170D01*
X015940Y011770D01*
X015850Y011770D01*
X016000Y011770D02*
X016000Y012170D01*
X016090Y012170D01*
X016090Y011770D01*
X016000Y011770D01*
X016160Y011770D02*
X016160Y012170D01*
X016250Y012170D01*
X016250Y011770D01*
X016160Y011770D01*
X016320Y011770D02*
X016320Y012170D01*
X016410Y012170D01*
X016410Y011770D01*
X016320Y011770D01*
X016480Y011770D02*
X016480Y012170D01*
X016570Y012170D01*
X016570Y011770D01*
X016480Y011770D01*
X016630Y011770D02*
X016630Y012170D01*
X016720Y012170D01*
X016720Y011770D01*
X016630Y011770D01*
X016790Y011770D02*
X016790Y012170D01*
X016880Y012170D01*
X016880Y011770D01*
X016790Y011770D01*
X016950Y011770D02*
X016950Y012170D01*
X017040Y012170D01*
X017040Y011770D01*
X016950Y011770D01*
X017100Y011770D02*
X017100Y012170D01*
X017190Y012170D01*
X017190Y011770D01*
X017100Y011770D01*
X017260Y011770D02*
X017260Y012170D01*
X017350Y012170D01*
X017350Y011770D01*
X017260Y011770D01*
X017420Y011770D02*
X017420Y012170D01*
X017510Y012170D01*
X017510Y011770D01*
X017420Y011770D01*
X017580Y011770D02*
X017580Y012170D01*
X017670Y012170D01*
X017670Y011770D01*
X017580Y011770D01*
X017730Y011770D02*
X017730Y012170D01*
X017820Y012170D01*
X017820Y011770D01*
X017730Y011770D01*
X017890Y011770D02*
X017890Y012170D01*
X017980Y012170D01*
X017980Y011770D01*
X017890Y011770D01*
X018050Y011770D02*
X018050Y012170D01*
X018140Y012170D01*
X018140Y011770D01*
X018050Y011770D01*
X018210Y011770D02*
X018210Y012170D01*
X018300Y012170D01*
X018300Y011770D01*
X018210Y011770D01*
X018360Y011770D02*
X018360Y012170D01*
X018450Y012170D01*
X018450Y011770D01*
X018360Y011770D01*
X018880Y011340D02*
X019280Y011340D01*
X019280Y011250D01*
X018880Y011250D01*
X018880Y011340D01*
X018880Y011190D02*
X019280Y011190D01*
X019280Y011100D01*
X018880Y011100D01*
X018880Y011190D01*
X018880Y011030D02*
X019280Y011030D01*
X019280Y010940D01*
X018880Y010940D01*
X018880Y011030D01*
X018880Y010870D02*
X019280Y010870D01*
X019280Y010780D01*
X018880Y010780D01*
X018880Y010870D01*
X018880Y010710D02*
X019280Y010710D01*
X019280Y010620D01*
X018880Y010620D01*
X018880Y010710D01*
X018880Y010560D02*
X019280Y010560D01*
X019280Y010470D01*
X018880Y010470D01*
X018880Y010560D01*
X018880Y010400D02*
X019280Y010400D01*
X019280Y010310D01*
X018880Y010310D01*
X018880Y010400D01*
X018880Y010240D02*
X019280Y010240D01*
X019280Y010150D01*
X018880Y010150D01*
X018880Y010240D01*
X018880Y010080D02*
X019280Y010080D01*
X019280Y009990D01*
X018880Y009990D01*
X018880Y010080D01*
X018880Y009930D02*
X019280Y009930D01*
X019280Y009840D01*
X018880Y009840D01*
X018880Y009930D01*
X018880Y009770D02*
X019280Y009770D01*
X019280Y009680D01*
X018880Y009680D01*
X018880Y009770D01*
X018880Y009610D02*
X019280Y009610D01*
X019280Y009520D01*
X018880Y009520D01*
X018880Y009610D01*
X018880Y009450D02*
X019280Y009450D01*
X019280Y009360D01*
X018880Y009360D01*
X018880Y009450D01*
X018880Y009300D02*
X019280Y009300D01*
X019280Y009210D01*
X018880Y009210D01*
X018880Y009300D01*
X018880Y009140D02*
X019280Y009140D01*
X019280Y009050D01*
X018880Y009050D01*
X018880Y009140D01*
X018880Y008980D02*
X019280Y008980D01*
X019280Y008890D01*
X018880Y008890D01*
X018880Y008980D01*
X018880Y008830D02*
X019280Y008830D01*
X019280Y008740D01*
X018880Y008740D01*
X018880Y008830D01*
X018880Y008670D02*
X019280Y008670D01*
X019280Y008580D01*
X018880Y008580D01*
X018880Y008670D01*
X018880Y008510D02*
X019280Y008510D01*
X019280Y008420D01*
X018880Y008420D01*
X018880Y008510D01*
X018880Y008350D02*
X019280Y008350D01*
X019280Y008260D01*
X018880Y008260D01*
X018880Y008350D01*
X018880Y008200D02*
X019280Y008200D01*
X019280Y008110D01*
X018880Y008110D01*
X018880Y008200D01*
X018880Y008040D02*
X019280Y008040D01*
X019280Y007950D01*
X018880Y007950D01*
X018880Y008040D01*
X018880Y007880D02*
X019280Y007880D01*
X019280Y007790D01*
X018880Y007790D01*
X018880Y007880D01*
X018880Y007720D02*
X019280Y007720D01*
X019280Y007630D01*
X018880Y007630D01*
X018880Y007720D01*
X018880Y007570D02*
X019280Y007570D01*
X019280Y007480D01*
X018880Y007480D01*
X018880Y007570D01*
X018450Y007050D02*
X018360Y007050D01*
X018360Y006650D01*
X018450Y006650D01*
X018450Y007050D01*
X018300Y007050D02*
X018300Y006650D01*
X018210Y006650D01*
X018210Y007050D01*
X018300Y007050D01*
X018140Y007050D02*
X018140Y006650D01*
X018050Y006650D01*
X018050Y007050D01*
X018140Y007050D01*
X017980Y007050D02*
X017980Y006650D01*
X017890Y006650D01*
X017890Y007050D01*
X017980Y007050D01*
X017820Y007050D02*
X017820Y006650D01*
X017730Y006650D01*
X017730Y007050D01*
X017820Y007050D01*
X017670Y007050D02*
X017670Y006650D01*
X017580Y006650D01*
X017580Y007050D01*
X017670Y007050D01*
X017510Y007050D02*
X017510Y006650D01*
X017420Y006650D01*
X017420Y007050D01*
X017510Y007050D01*
X017350Y007050D02*
X017350Y006650D01*
X017260Y006650D01*
X017260Y007050D01*
X017350Y007050D01*
X017190Y007050D02*
X017190Y006650D01*
X017100Y006650D01*
X017100Y007050D01*
X017190Y007050D01*
X017040Y007050D02*
X017040Y006650D01*
X016950Y006650D01*
X016950Y007050D01*
X017040Y007050D01*
X016880Y007050D02*
X016880Y006650D01*
X016790Y006650D01*
X016790Y007050D01*
X016880Y007050D01*
X016720Y007050D02*
X016720Y006650D01*
X016630Y006650D01*
X016630Y007050D01*
X016720Y007050D01*
X016560Y007050D02*
X016560Y006650D01*
X016470Y006650D01*
X016470Y007050D01*
X016560Y007050D01*
X016410Y007050D02*
X016410Y006650D01*
X016320Y006650D01*
X016320Y007050D01*
X016410Y007050D01*
X016250Y007050D02*
X016250Y006650D01*
X016160Y006650D01*
X016160Y007050D01*
X016250Y007050D01*
X016090Y007050D02*
X016090Y006650D01*
X016000Y006650D01*
X016000Y007050D01*
X016090Y007050D01*
X015940Y007050D02*
X015940Y006650D01*
X015850Y006650D01*
X015850Y007050D01*
X015940Y007050D01*
X015780Y007050D02*
X015780Y006650D01*
X015690Y006650D01*
X015690Y007050D01*
X015780Y007050D01*
X015620Y007050D02*
X015620Y006650D01*
X015530Y006650D01*
X015530Y007050D01*
X015620Y007050D01*
X015460Y007050D02*
X015460Y006650D01*
X015370Y006650D01*
X015370Y007050D01*
X015460Y007050D01*
X015310Y007050D02*
X015310Y006650D01*
X015220Y006650D01*
X015220Y007050D01*
X015310Y007050D01*
X015150Y007050D02*
X015150Y006650D01*
X015060Y006650D01*
X015060Y007050D01*
X015150Y007050D01*
X014990Y007050D02*
X014990Y006650D01*
X014900Y006650D01*
X014900Y007050D01*
X014990Y007050D01*
X014830Y007050D02*
X014830Y006650D01*
X014740Y006650D01*
X014740Y007050D01*
X014830Y007050D01*
X014680Y007050D02*
X014680Y006650D01*
X014590Y006650D01*
X014590Y007050D01*
X014660Y007050D01*
X014160Y007550D01*
X014160Y007570D01*
X013760Y007570D01*
X013760Y007480D01*
X014160Y007480D01*
X014160Y007550D01*
X014160Y007630D02*
X013760Y007630D01*
X013760Y007720D01*
X014160Y007720D01*
X014160Y007630D01*
X014160Y007790D02*
X013760Y007790D01*
X013760Y007880D01*
X014160Y007880D01*
X014160Y007790D01*
X014160Y007950D02*
X013760Y007950D01*
X013760Y008040D01*
X014160Y008040D01*
X014160Y007950D01*
X014160Y008110D02*
X013760Y008110D01*
X013760Y008200D01*
X014160Y008200D01*
X014160Y008110D01*
X014160Y008260D02*
X013760Y008260D01*
X013760Y008350D01*
X014160Y008350D01*
X014160Y008260D01*
X014160Y008420D02*
X013760Y008420D01*
X013760Y008510D01*
X014160Y008510D01*
X014160Y008420D01*
X014160Y008580D02*
X013760Y008580D01*
X013760Y008670D01*
X014160Y008670D01*
X014160Y008580D01*
X014160Y008740D02*
X013760Y008740D01*
X013760Y008830D01*
X014160Y008830D01*
X014160Y008740D01*
X014160Y008890D02*
X013760Y008890D01*
X013760Y008980D01*
X014160Y008980D01*
X014160Y008890D01*
X014160Y009050D02*
X013760Y009050D01*
X013760Y009140D01*
X014160Y009140D01*
X014160Y009050D01*
X014160Y009210D02*
X013760Y009210D01*
X013760Y009300D01*
X014160Y009300D01*
X014160Y009210D01*
X014160Y009370D02*
X013760Y009370D01*
X013760Y009460D01*
X014160Y009460D01*
X014160Y009370D01*
X014160Y009520D02*
X013760Y009520D01*
X013760Y009610D01*
X014160Y009610D01*
X014160Y009520D01*
X014160Y009680D02*
X013760Y009680D01*
X013760Y009770D01*
X014160Y009770D01*
X014160Y009680D01*
X014160Y009840D02*
X013760Y009840D01*
X013760Y009930D01*
X014160Y009930D01*
X014160Y009840D01*
X014160Y009990D02*
X013760Y009990D01*
X013760Y010080D01*
X014160Y010080D01*
X014160Y009990D01*
X014160Y010150D02*
X013760Y010150D01*
X013760Y010240D01*
X014160Y010240D01*
X014160Y010150D01*
X014160Y010310D02*
X013760Y010310D01*
X013760Y010400D01*
X014160Y010400D01*
X014160Y010310D01*
X014160Y010470D02*
X013760Y010470D01*
X013760Y010560D01*
X014160Y010560D01*
X014160Y010470D01*
X014160Y010620D02*
X013760Y010620D01*
X013760Y010710D01*
X014160Y010710D01*
X014160Y010620D01*
X014160Y010780D02*
X013760Y010780D01*
X013760Y010870D01*
X014160Y010870D01*
X014160Y010780D01*
X014160Y010940D02*
X013760Y010940D01*
X013760Y011030D01*
X014160Y011030D01*
X014160Y010940D01*
X014160Y011100D02*
X013760Y011100D01*
X013760Y011190D01*
X014160Y011190D01*
X014160Y011100D01*
X014160Y011250D02*
X013760Y011250D01*
X013760Y011340D01*
X014160Y011340D01*
X014160Y011250D01*
X011170Y010690D02*
X010780Y010690D01*
X010780Y010580D01*
X011170Y010580D01*
X011170Y010690D01*
X011170Y010490D02*
X010780Y010490D01*
X010780Y010380D01*
X011170Y010380D01*
X011170Y010490D01*
X011170Y010300D02*
X010780Y010300D01*
X010780Y010190D01*
X011170Y010190D01*
X011170Y010300D01*
X011170Y010100D02*
X010780Y010100D01*
X010780Y009990D01*
X011170Y009990D01*
X011170Y010100D01*
X011170Y009900D02*
X010780Y009900D01*
X010780Y009790D01*
X011170Y009790D01*
X011170Y009900D01*
X011170Y009710D02*
X010780Y009710D01*
X010780Y009600D01*
X011170Y009600D01*
X011170Y009710D01*
X011170Y009510D02*
X010780Y009510D01*
X010780Y009400D01*
X011170Y009400D01*
X011170Y009510D01*
X011170Y009310D02*
X010780Y009310D01*
X010780Y009200D01*
X011170Y009200D01*
X011170Y009310D01*
X011170Y009120D02*
X010780Y009120D01*
X010780Y009010D01*
X011170Y009010D01*
X011170Y009120D01*
X011170Y008920D02*
X010780Y008920D01*
X010780Y008810D01*
X011170Y008810D01*
X011170Y008920D01*
X011170Y008720D02*
X010780Y008720D01*
X010780Y008610D01*
X011170Y008610D01*
X011170Y008720D01*
X011170Y008530D02*
X010780Y008530D01*
X010780Y008420D01*
X011170Y008420D01*
X011170Y008530D01*
X011170Y008330D02*
X010780Y008330D01*
X010780Y008220D01*
X011170Y008220D01*
X011170Y008330D01*
X011170Y008130D02*
X010780Y008130D01*
X010780Y008020D01*
X011170Y008020D01*
X011170Y008130D01*
X011170Y007940D02*
X010780Y007940D01*
X010780Y007830D01*
X011170Y007830D01*
X011170Y007940D01*
X011170Y007740D02*
X010780Y007740D01*
X010780Y007630D01*
X011170Y007630D01*
X011170Y007740D01*
X010780Y007150D02*
X006760Y007150D01*
X006760Y011170D01*
X010780Y011170D01*
X010780Y007150D01*
X010300Y007150D02*
X010300Y006760D01*
X010190Y006760D01*
X010190Y007150D01*
X010300Y007150D01*
X010100Y007150D02*
X010100Y006760D01*
X009990Y006760D01*
X009990Y007150D01*
X010100Y007150D01*
X009910Y007150D02*
X009910Y006760D01*
X009800Y006760D01*
X009800Y007150D01*
X009910Y007150D01*
X009710Y007150D02*
X009710Y006760D01*
X009600Y006760D01*
X009600Y007150D01*
X009710Y007150D01*
X009510Y007150D02*
X009510Y006760D01*
X009400Y006760D01*
X009400Y007150D01*
X009510Y007150D01*
X009320Y007150D02*
X009320Y006760D01*
X009210Y006760D01*
X009210Y007150D01*
X009320Y007150D01*
X009120Y007150D02*
X009120Y006760D01*
X009010Y006760D01*
X009010Y007150D01*
X009120Y007150D01*
X008920Y007150D02*
X008920Y006760D01*
X008810Y006760D01*
X008810Y007150D01*
X008920Y007150D01*
X008730Y007150D02*
X008730Y006760D01*
X008620Y006760D01*
X008620Y007150D01*
X008730Y007150D01*
X008530Y007150D02*
X008530Y006760D01*
X008420Y006760D01*
X008420Y007150D01*
X008530Y007150D01*
X008330Y007150D02*
X008330Y006760D01*
X008220Y006760D01*
X008220Y007150D01*
X008330Y007150D01*
X008140Y007150D02*
X008140Y006760D01*
X008030Y006760D01*
X008030Y007150D01*
X008140Y007150D01*
X007940Y007150D02*
X007940Y006760D01*
X007830Y006760D01*
X007830Y007150D01*
X007940Y007150D01*
X007740Y007150D02*
X007740Y006760D01*
X007630Y006760D01*
X007630Y007150D01*
X007740Y007150D01*
X007550Y007150D02*
X007550Y006760D01*
X007440Y006760D01*
X007440Y007150D01*
X007550Y007150D01*
X007350Y007150D02*
X007350Y006760D01*
X007240Y006760D01*
X007240Y007150D01*
X007260Y007150D01*
X006760Y007650D01*
X006760Y007740D01*
X006370Y007740D01*
X006370Y007630D01*
X006760Y007630D01*
X006760Y007650D01*
X006760Y007830D02*
X006370Y007830D01*
X006370Y007940D01*
X006760Y007940D01*
X006760Y007830D01*
X006760Y008020D02*
X006370Y008020D01*
X006370Y008130D01*
X006760Y008130D01*
X006760Y008020D01*
X006760Y008220D02*
X006370Y008220D01*
X006370Y008330D01*
X006760Y008330D01*
X006760Y008220D01*
X006760Y008420D02*
X006370Y008420D01*
X006370Y008530D01*
X006760Y008530D01*
X006760Y008420D01*
X006760Y008610D02*
X006370Y008610D01*
X006370Y008720D01*
X006760Y008720D01*
X006760Y008610D01*
X006760Y008810D02*
X006370Y008810D01*
X006370Y008920D01*
X006760Y008920D01*
X006760Y008810D01*
X006760Y009010D02*
X006370Y009010D01*
X006370Y009120D01*
X006760Y009120D01*
X006760Y009010D01*
X006760Y009200D02*
X006370Y009200D01*
X006370Y009310D01*
X006760Y009310D01*
X006760Y009200D01*
X006760Y009400D02*
X006370Y009400D01*
X006370Y009510D01*
X006760Y009510D01*
X006760Y009400D01*
X006760Y009600D02*
X006370Y009600D01*
X006370Y009710D01*
X006760Y009710D01*
X006760Y009600D01*
X006760Y009790D02*
X006370Y009790D01*
X006370Y009900D01*
X006760Y009900D01*
X006760Y009790D01*
X006760Y009990D02*
X006370Y009990D01*
X006370Y010100D01*
X006760Y010100D01*
X006760Y009990D01*
X006760Y010190D02*
X006370Y010190D01*
X006370Y010300D01*
X006760Y010300D01*
X006760Y010190D01*
X006760Y010380D02*
X006370Y010380D01*
X006370Y010490D01*
X006760Y010490D01*
X006760Y010380D01*
X006760Y010580D02*
X006370Y010580D01*
X006370Y010690D01*
X006760Y010690D01*
X006760Y010580D01*
X007240Y011170D02*
X007240Y011560D01*
X007350Y011560D01*
X007350Y011170D01*
X007240Y011170D01*
X007440Y011170D02*
X007440Y011560D01*
X007550Y011560D01*
X007550Y011170D01*
X007440Y011170D01*
X007630Y011170D02*
X007630Y011560D01*
X007740Y011560D01*
X007740Y011170D01*
X007630Y011170D01*
X007830Y011170D02*
X007830Y011560D01*
X007940Y011560D01*
X007940Y011170D01*
X007830Y011170D01*
X008030Y011170D02*
X008030Y011560D01*
X008140Y011560D01*
X008140Y011170D01*
X008030Y011170D01*
X008220Y011170D02*
X008220Y011560D01*
X008330Y011560D01*
X008330Y011170D01*
X008220Y011170D01*
X008420Y011170D02*
X008420Y011560D01*
X008530Y011560D01*
X008530Y011170D01*
X008420Y011170D01*
X008620Y011170D02*
X008620Y011560D01*
X008730Y011560D01*
X008730Y011170D01*
X008620Y011170D01*
X008810Y011170D02*
X008810Y011560D01*
X008920Y011560D01*
X008920Y011170D01*
X008810Y011170D01*
X009010Y011170D02*
X009010Y011560D01*
X009120Y011560D01*
X009120Y011170D01*
X009010Y011170D01*
X009210Y011170D02*
X009210Y011560D01*
X009320Y011560D01*
X009320Y011170D01*
X009210Y011170D01*
X009400Y011170D02*
X009400Y011560D01*
X009510Y011560D01*
X009510Y011170D01*
X009400Y011170D01*
X009600Y011170D02*
X009600Y011560D01*
X009710Y011560D01*
X009710Y011170D01*
X009600Y011170D01*
X009800Y011170D02*
X009800Y011560D01*
X009910Y011560D01*
X009910Y011170D01*
X009800Y011170D01*
X009990Y011170D02*
X009990Y011560D01*
X010100Y011560D01*
X010100Y011170D01*
X009990Y011170D01*
X010190Y011170D02*
X010190Y011560D01*
X010300Y011560D01*
X010300Y011170D01*
X010190Y011170D01*
X007350Y007150D02*
X007260Y007150D01*
X003030Y005670D02*
X001010Y005670D01*
X001010Y003650D01*
X003030Y003650D01*
X003030Y005670D01*
X003030Y005250D02*
X003030Y005100D01*
X003030Y005170D02*
X002530Y005670D01*
X002460Y005670D02*
X002610Y005670D01*
X002350Y005670D02*
X002200Y005670D01*
X002090Y005670D02*
X001950Y005670D01*
X001840Y005670D02*
X001690Y005670D01*
X001580Y005670D02*
X001430Y005670D01*
X001010Y005250D02*
X001010Y005100D01*
X001010Y004990D02*
X001010Y004840D01*
X001010Y004730D02*
X001010Y004590D01*
X001010Y004480D02*
X001010Y004330D01*
X001010Y004220D02*
X001010Y004070D01*
X001430Y003650D02*
X001580Y003650D01*
X001690Y003650D02*
X001840Y003650D01*
X001950Y003650D02*
X002090Y003650D01*
X002200Y003650D02*
X002350Y003650D01*
X002460Y003650D02*
X002610Y003650D01*
X003030Y004070D02*
X003030Y004220D01*
X003030Y004330D02*
X003030Y004480D01*
X003030Y004590D02*
X003030Y004730D01*
X003030Y004840D02*
X003030Y004990D01*
X014660Y007050D02*
X014680Y007050D01*
D13*
X015242Y006197D02*
X015469Y005970D01*
X015525Y006027D01*
X015525Y006141D01*
X015469Y006197D01*
X015242Y006197D01*
X015185Y006141D01*
X015185Y006027D01*
X015242Y005970D01*
X015469Y005970D01*
X015525Y005829D02*
X015525Y005602D01*
X015525Y005716D02*
X015185Y005716D01*
X015299Y005602D01*
X015242Y005461D02*
X015185Y005404D01*
X015185Y005290D01*
X015242Y005234D01*
X015469Y005234D01*
X015525Y005290D01*
X015525Y005404D01*
X015469Y005461D01*
X015026Y005622D02*
X015026Y005858D01*
X014554Y005858D02*
X014554Y005622D01*
X014588Y005280D02*
X014475Y005280D01*
X014418Y005224D01*
X014277Y005280D02*
X014277Y004997D01*
X014220Y004940D01*
X014107Y004940D01*
X014050Y004997D01*
X014050Y005280D01*
X014418Y004940D02*
X014645Y005167D01*
X014645Y005224D01*
X014588Y005280D01*
X014645Y004940D02*
X014418Y004940D01*
X015414Y004440D02*
X015755Y004440D01*
X015755Y004327D02*
X015755Y004553D01*
X015854Y004358D02*
X015854Y004122D01*
X015755Y004185D02*
X015641Y004072D01*
X015641Y004128D02*
X015641Y003958D01*
X015755Y003958D02*
X015414Y003958D01*
X015414Y004128D01*
X015471Y004185D01*
X015584Y004185D01*
X015641Y004128D01*
X015528Y004327D02*
X015414Y004440D01*
X014756Y003904D02*
X014983Y003677D01*
X015040Y003677D01*
X014983Y003535D02*
X015040Y003479D01*
X015040Y003365D01*
X014983Y003308D01*
X014756Y003308D01*
X014699Y003365D01*
X014699Y003479D01*
X014756Y003535D01*
X014699Y003677D02*
X014699Y003904D01*
X014756Y003904D01*
X014506Y003778D02*
X014506Y003542D01*
X014034Y003542D02*
X014034Y003778D01*
X015275Y002928D02*
X015275Y002701D01*
X015331Y002644D01*
X015445Y002644D01*
X015501Y002701D01*
X015643Y002644D02*
X015870Y002644D01*
X015756Y002644D02*
X015756Y002984D01*
X015643Y002871D01*
X015501Y002928D02*
X015445Y002984D01*
X015331Y002984D01*
X015275Y002928D01*
X015652Y003174D02*
X015888Y003174D01*
X016011Y002984D02*
X016238Y002984D01*
X016238Y002928D01*
X016011Y002701D01*
X016011Y002644D01*
X016902Y003174D02*
X017138Y003174D01*
X017138Y003646D02*
X016902Y003646D01*
X016326Y004122D02*
X016326Y004358D01*
X015888Y003646D02*
X015652Y003646D01*
X017687Y003593D02*
X017687Y003253D01*
X017687Y003367D02*
X017857Y003367D01*
X017914Y003423D01*
X017914Y003537D01*
X017857Y003593D01*
X017687Y003593D01*
X017800Y003367D02*
X017914Y003253D01*
X018055Y003253D02*
X018282Y003480D01*
X018282Y003537D01*
X018225Y003593D01*
X018112Y003593D01*
X018055Y003537D01*
X018055Y003253D02*
X018282Y003253D01*
X019534Y004292D02*
X019534Y004528D01*
X020006Y004528D02*
X020006Y004292D01*
X020125Y004174D02*
X020125Y004003D01*
X020465Y004003D01*
X020351Y004003D02*
X020351Y004174D01*
X020295Y004230D01*
X020181Y004230D01*
X020125Y004174D01*
X020181Y004372D02*
X020125Y004428D01*
X020125Y004542D01*
X020181Y004599D01*
X020238Y004599D01*
X020295Y004542D01*
X020351Y004599D01*
X020408Y004599D01*
X020465Y004542D01*
X020465Y004428D01*
X020408Y004372D01*
X020465Y004230D02*
X020351Y004117D01*
X020295Y004485D02*
X020295Y004542D01*
X017937Y005393D02*
X017937Y005506D01*
X017881Y005563D01*
X017937Y005704D02*
X017937Y005931D01*
X017937Y005818D02*
X017597Y005818D01*
X017710Y005704D01*
X017654Y005563D02*
X017597Y005506D01*
X017597Y005393D01*
X017654Y005336D01*
X017881Y005336D01*
X017937Y005393D01*
X017426Y005602D02*
X017426Y005838D01*
X017710Y006072D02*
X017597Y006186D01*
X017937Y006186D01*
X017937Y006299D02*
X017937Y006072D01*
X016954Y005838D02*
X016954Y005602D01*
X020003Y007512D02*
X020060Y007455D01*
X020173Y007455D01*
X020230Y007512D01*
X020372Y007512D02*
X020428Y007455D01*
X020542Y007455D01*
X020598Y007512D01*
X020598Y007739D01*
X020542Y007795D01*
X020428Y007795D01*
X020372Y007739D01*
X020372Y007682D01*
X020428Y007625D01*
X020598Y007625D01*
X020528Y007914D02*
X020292Y007914D01*
X020173Y007795D02*
X020060Y007795D01*
X020003Y007739D01*
X020003Y007512D01*
X020230Y007739D02*
X020173Y007795D01*
X020292Y008386D02*
X020528Y008386D01*
X020548Y009014D02*
X020312Y009014D01*
X020312Y009486D02*
X020548Y009486D01*
X020502Y009602D02*
X020275Y009602D01*
X020389Y009602D02*
X020389Y009943D01*
X020275Y009829D01*
X020134Y009886D02*
X020077Y009943D01*
X019964Y009943D01*
X019907Y009886D01*
X019907Y009659D01*
X019964Y009602D01*
X020077Y009602D01*
X020134Y009659D01*
X020644Y009602D02*
X020870Y009829D01*
X020870Y009886D01*
X020814Y009943D01*
X020700Y009943D01*
X020644Y009886D01*
X020644Y009602D02*
X020870Y009602D01*
X020921Y011313D02*
X021148Y011313D01*
X021205Y011370D01*
X021205Y011483D01*
X021148Y011540D01*
X021205Y011681D02*
X021205Y011908D01*
X021205Y011795D02*
X020865Y011795D01*
X020978Y011681D01*
X020921Y011540D02*
X020865Y011483D01*
X020865Y011370D01*
X020921Y011313D01*
X020746Y011722D02*
X020746Y011958D01*
X020865Y012106D02*
X020865Y012220D01*
X020921Y012277D01*
X020978Y012277D01*
X021035Y012220D01*
X021091Y012277D01*
X021148Y012277D01*
X021205Y012220D01*
X021205Y012106D01*
X021148Y012050D01*
X021035Y012163D02*
X021035Y012220D01*
X020921Y012050D02*
X020865Y012106D01*
X020274Y011958D02*
X020274Y011722D01*
X018016Y013192D02*
X018016Y013428D01*
X017544Y013428D02*
X017544Y013192D01*
X016906Y013202D02*
X016906Y013438D01*
X016434Y013438D02*
X016434Y013202D01*
X016601Y013895D02*
X016828Y013895D01*
X016885Y013952D01*
X016885Y014066D01*
X016828Y014122D01*
X016885Y014264D02*
X016885Y014491D01*
X016885Y014377D02*
X016544Y014377D01*
X016658Y014264D01*
X016601Y014122D02*
X016544Y014066D01*
X016544Y013952D01*
X016601Y013895D01*
X016714Y014632D02*
X016714Y014859D01*
X016544Y014802D02*
X016714Y014632D01*
X016544Y014802D02*
X016885Y014802D01*
X017607Y014873D02*
X017664Y014759D01*
X017777Y014646D01*
X017777Y014816D01*
X017834Y014873D01*
X017891Y014873D01*
X017947Y014816D01*
X017947Y014702D01*
X017891Y014646D01*
X017777Y014646D01*
X017947Y014504D02*
X017947Y014277D01*
X017947Y014391D02*
X017607Y014391D01*
X017721Y014277D01*
X017664Y014136D02*
X017607Y014079D01*
X017607Y013966D01*
X017664Y013909D01*
X017891Y013909D01*
X017947Y013966D01*
X017947Y014079D01*
X017891Y014136D01*
X013814Y015092D02*
X013758Y015035D01*
X013644Y015035D01*
X013588Y015092D01*
X013588Y015205D02*
X013701Y015262D01*
X013758Y015262D01*
X013814Y015205D01*
X013814Y015092D01*
X013588Y015205D02*
X013588Y015375D01*
X013814Y015375D01*
X013333Y015375D02*
X013333Y015035D01*
X013446Y015035D02*
X013219Y015035D01*
X013192Y014916D02*
X013428Y014916D01*
X013219Y015262D02*
X013333Y015375D01*
X013078Y015319D02*
X013021Y015375D01*
X012908Y015375D01*
X012851Y015319D01*
X012851Y015092D01*
X012908Y015035D01*
X013021Y015035D01*
X013078Y015092D01*
X013192Y014444D02*
X013428Y014444D01*
X008344Y013588D02*
X008003Y013588D01*
X008174Y013418D01*
X008174Y013645D01*
X008230Y013277D02*
X008174Y013220D01*
X008174Y013050D01*
X008287Y013050D01*
X008344Y013106D01*
X008344Y013220D01*
X008287Y013277D01*
X008230Y013277D01*
X008060Y013163D02*
X008174Y013050D01*
X008060Y013163D02*
X008003Y013277D01*
X007856Y013278D02*
X007856Y013042D01*
X008003Y012851D02*
X008003Y012738D01*
X008060Y012681D01*
X008287Y012681D01*
X008344Y012738D01*
X008344Y012851D01*
X008287Y012908D01*
X008060Y012908D02*
X008003Y012851D01*
X007384Y013042D02*
X007384Y013278D01*
X006556Y013278D02*
X006556Y013042D01*
X006084Y013042D02*
X006084Y013278D01*
X005906Y013278D02*
X005906Y013042D01*
X005434Y013042D02*
X005434Y013278D01*
X005676Y013791D02*
X005903Y013791D01*
X005959Y013847D01*
X005959Y013961D01*
X005903Y014017D01*
X005903Y014159D02*
X005959Y014216D01*
X005959Y014329D01*
X005903Y014386D01*
X005789Y014386D01*
X005733Y014329D01*
X005733Y014272D01*
X005789Y014159D01*
X005619Y014159D01*
X005619Y014386D01*
X005789Y014527D02*
X005789Y014697D01*
X005846Y014754D01*
X005903Y014754D01*
X005959Y014697D01*
X005959Y014584D01*
X005903Y014527D01*
X005789Y014527D01*
X005676Y014641D01*
X005619Y014754D01*
X006238Y014762D02*
X006238Y014535D01*
X006238Y014394D02*
X006238Y014167D01*
X006408Y014167D01*
X006351Y014280D01*
X006351Y014337D01*
X006408Y014394D01*
X006521Y014394D01*
X006578Y014337D01*
X006578Y014223D01*
X006521Y014167D01*
X006521Y014025D02*
X006578Y013969D01*
X006578Y013855D01*
X006521Y013798D01*
X006294Y013798D01*
X006238Y013855D01*
X006238Y013969D01*
X006294Y014025D01*
X005676Y014017D02*
X005619Y013961D01*
X005619Y013847D01*
X005676Y013791D01*
X006521Y014535D02*
X006578Y014535D01*
X006521Y014535D02*
X006294Y014762D01*
X006238Y014762D01*
X007241Y014782D02*
X007298Y014725D01*
X007411Y014725D01*
X007468Y014782D01*
X007609Y014782D02*
X007666Y014725D01*
X007779Y014725D01*
X007836Y014782D01*
X007836Y014895D01*
X007779Y014952D01*
X007723Y014952D01*
X007609Y014895D01*
X007609Y015065D01*
X007836Y015065D01*
X007978Y015009D02*
X008034Y015065D01*
X008148Y015065D01*
X008204Y015009D01*
X008204Y014952D01*
X008148Y014895D01*
X008204Y014838D01*
X008204Y014782D01*
X008148Y014725D01*
X008034Y014725D01*
X007978Y014782D01*
X008091Y014895D02*
X008148Y014895D01*
X007818Y014606D02*
X007582Y014606D01*
X007241Y014782D02*
X007241Y015009D01*
X007298Y015065D01*
X007411Y015065D01*
X007468Y015009D01*
X007582Y014134D02*
X007818Y014134D01*
X005616Y015703D02*
X005616Y015816D01*
X005559Y015873D01*
X005559Y016014D02*
X005616Y016014D01*
X005559Y016014D02*
X005332Y016241D01*
X005275Y016241D01*
X005275Y016014D01*
X005332Y015873D02*
X005275Y015816D01*
X005275Y015703D01*
X005332Y015646D01*
X005559Y015646D01*
X005616Y015703D01*
X005081Y015979D02*
X005081Y016215D01*
X004609Y016215D02*
X004609Y015979D01*
X005275Y016553D02*
X005446Y016383D01*
X005446Y016609D01*
X005616Y016553D02*
X005275Y016553D01*
X005297Y017670D02*
X005524Y017670D01*
X005580Y017726D01*
X005580Y017840D01*
X005524Y017896D01*
X005524Y018038D02*
X005580Y018038D01*
X005524Y018038D02*
X005297Y018265D01*
X005240Y018265D01*
X005240Y018038D01*
X005297Y017896D02*
X005240Y017840D01*
X005240Y017726D01*
X005297Y017670D01*
X005081Y017979D02*
X005081Y018215D01*
X005297Y018406D02*
X005240Y018463D01*
X005240Y018576D01*
X005297Y018633D01*
X005353Y018633D01*
X005410Y018576D01*
X005467Y018633D01*
X005524Y018633D01*
X005580Y018576D01*
X005580Y018463D01*
X005524Y018406D01*
X005410Y018520D02*
X005410Y018576D01*
X004609Y018215D02*
X004609Y017979D01*
X003194Y018348D02*
X002967Y018348D01*
X003137Y018518D01*
X003137Y018178D01*
X002826Y018348D02*
X002769Y018291D01*
X002599Y018291D01*
X002599Y018178D02*
X002599Y018518D01*
X002769Y018518D01*
X002826Y018461D01*
X002826Y018348D01*
X002457Y018518D02*
X002344Y018518D01*
X002401Y018518D02*
X002401Y018234D01*
X002344Y018178D01*
X002287Y018178D01*
X002231Y018234D01*
X003446Y012969D02*
X003390Y012913D01*
X003390Y012686D01*
X003446Y012629D01*
X003560Y012629D01*
X003617Y012686D01*
X003758Y012686D02*
X003758Y012629D01*
X003758Y012686D02*
X003985Y012913D01*
X003985Y012969D01*
X003758Y012969D01*
X003617Y012913D02*
X003560Y012969D01*
X003446Y012969D01*
X003723Y012546D02*
X003959Y012546D01*
X004126Y012629D02*
X004353Y012856D01*
X004353Y012913D01*
X004296Y012969D01*
X004183Y012969D01*
X004126Y012913D01*
X004126Y012629D02*
X004353Y012629D01*
X003959Y012073D02*
X003723Y012073D01*
X004212Y011676D02*
X004448Y011676D01*
X004448Y011204D02*
X004212Y011204D01*
X004212Y011036D02*
X004448Y011036D01*
X005074Y010966D02*
X005074Y010739D01*
X005130Y010682D01*
X005244Y010682D01*
X005301Y010739D01*
X005442Y010739D02*
X005442Y010682D01*
X005442Y010739D02*
X005669Y010966D01*
X005669Y011022D01*
X005442Y011022D01*
X005301Y010966D02*
X005244Y011022D01*
X005130Y011022D01*
X005074Y010966D01*
X005125Y011271D02*
X005068Y011328D01*
X005068Y011555D01*
X005125Y011612D01*
X005238Y011612D01*
X005295Y011555D01*
X005436Y011442D02*
X005663Y011442D01*
X005804Y011498D02*
X005804Y011555D01*
X005861Y011612D01*
X005975Y011612D01*
X006031Y011555D01*
X006031Y011498D01*
X005975Y011442D01*
X005861Y011442D01*
X005804Y011498D01*
X005861Y011442D02*
X005804Y011385D01*
X005804Y011328D01*
X005861Y011271D01*
X005975Y011271D01*
X006031Y011328D01*
X006031Y011385D01*
X005975Y011442D01*
X005606Y011271D02*
X005606Y011612D01*
X005436Y011442D01*
X005295Y011328D02*
X005238Y011271D01*
X005125Y011271D01*
X005810Y010909D02*
X005924Y011022D01*
X005924Y010682D01*
X006037Y010682D02*
X005810Y010682D01*
X005784Y010139D02*
X005840Y010082D01*
X005897Y010139D01*
X005954Y010139D01*
X006011Y010082D01*
X006011Y009969D01*
X005954Y009912D01*
X005954Y009770D02*
X005897Y009770D01*
X005840Y009714D01*
X005840Y009544D01*
X005954Y009544D01*
X006011Y009600D01*
X006011Y009714D01*
X005954Y009770D01*
X005727Y009657D02*
X005840Y009544D01*
X005727Y009657D02*
X005670Y009770D01*
X005727Y009912D02*
X005670Y009969D01*
X005670Y010082D01*
X005727Y010139D01*
X005784Y010139D01*
X005840Y010082D02*
X005840Y010025D01*
X005727Y009402D02*
X005670Y009345D01*
X005670Y009232D01*
X005727Y009175D01*
X005954Y009175D01*
X006011Y009232D01*
X006011Y009345D01*
X005954Y009402D01*
X006005Y009096D02*
X006005Y008870D01*
X005778Y009096D01*
X005721Y009096D01*
X005664Y009040D01*
X005664Y008926D01*
X005721Y008870D01*
X005664Y008728D02*
X005721Y008615D01*
X005835Y008501D01*
X005835Y008671D01*
X005891Y008728D01*
X005948Y008728D01*
X006005Y008671D01*
X006005Y008558D01*
X005948Y008501D01*
X005835Y008501D01*
X005948Y008360D02*
X006005Y008303D01*
X006005Y008190D01*
X005948Y008133D01*
X005721Y008133D01*
X005664Y008190D01*
X005664Y008303D01*
X005721Y008360D01*
X005274Y008341D02*
X005274Y008000D01*
X005161Y008000D02*
X005387Y008000D01*
X005161Y008227D02*
X005274Y008341D01*
X005019Y008341D02*
X004906Y008284D01*
X004792Y008171D01*
X004962Y008171D01*
X005019Y008114D01*
X005019Y008057D01*
X004962Y008000D01*
X004849Y008000D01*
X004792Y008057D01*
X004792Y008171D01*
X004651Y008284D02*
X004594Y008341D01*
X004481Y008341D01*
X004424Y008284D01*
X004424Y008057D01*
X004481Y008000D01*
X004594Y008000D01*
X004651Y008057D01*
X004702Y007846D02*
X004938Y007846D01*
X004938Y007374D02*
X004702Y007374D01*
X004702Y006996D02*
X004938Y006996D01*
X004938Y006524D02*
X004702Y006524D01*
X004745Y006334D02*
X004575Y006164D01*
X004802Y006164D01*
X004745Y005994D02*
X004745Y006334D01*
X004943Y006334D02*
X005170Y006334D01*
X005170Y006278D01*
X004943Y006051D01*
X004943Y005994D01*
X004433Y006051D02*
X004377Y005994D01*
X004263Y005994D01*
X004206Y006051D01*
X004206Y006278D01*
X004263Y006334D01*
X004377Y006334D01*
X004433Y006278D01*
X003137Y006783D02*
X002910Y006783D01*
X003023Y006783D02*
X003023Y007123D01*
X002910Y007010D01*
X002768Y007066D02*
X002712Y007123D01*
X002598Y007123D01*
X002541Y007066D01*
X002541Y006840D01*
X002598Y006783D01*
X002712Y006783D01*
X002768Y006840D01*
X002078Y006734D02*
X001842Y006734D01*
X001842Y007206D02*
X002078Y007206D01*
X002078Y007494D02*
X001842Y007494D01*
X001842Y007966D02*
X002078Y007966D01*
X002078Y008214D02*
X001842Y008214D01*
X001842Y008686D02*
X002078Y008686D01*
X002078Y008954D02*
X001842Y008954D01*
X001842Y009426D02*
X002078Y009426D01*
X002078Y009684D02*
X001842Y009684D01*
X001842Y010156D02*
X002078Y010156D01*
X002541Y009993D02*
X002541Y009766D01*
X002598Y009709D01*
X002712Y009709D01*
X002768Y009766D01*
X002910Y009766D02*
X002967Y009709D01*
X003080Y009709D01*
X003137Y009766D01*
X003137Y009879D01*
X003080Y009936D01*
X003023Y009936D01*
X002910Y009879D01*
X002910Y010050D01*
X003137Y010050D01*
X002768Y009993D02*
X002712Y010050D01*
X002598Y010050D01*
X002541Y009993D01*
X002598Y009331D02*
X002541Y009275D01*
X002541Y009048D01*
X002598Y008991D01*
X002712Y008991D01*
X002768Y009048D01*
X002910Y009161D02*
X003080Y009331D01*
X003080Y008991D01*
X003137Y009161D02*
X002910Y009161D01*
X002768Y009275D02*
X002712Y009331D01*
X002598Y009331D01*
X002598Y008587D02*
X002541Y008531D01*
X002541Y008304D01*
X002598Y008247D01*
X002712Y008247D01*
X002768Y008304D01*
X002910Y008304D02*
X002967Y008247D01*
X003080Y008247D01*
X003137Y008304D01*
X003137Y008361D01*
X003080Y008417D01*
X003023Y008417D01*
X003080Y008417D02*
X003137Y008474D01*
X003137Y008531D01*
X003080Y008587D01*
X002967Y008587D01*
X002910Y008531D01*
X002768Y008531D02*
X002712Y008587D01*
X002598Y008587D01*
X002598Y007907D02*
X002541Y007850D01*
X002541Y007623D01*
X002598Y007566D01*
X002712Y007566D01*
X002768Y007623D01*
X002910Y007566D02*
X003137Y007793D01*
X003137Y007850D01*
X003080Y007907D01*
X002967Y007907D01*
X002910Y007850D01*
X002768Y007850D02*
X002712Y007907D01*
X002598Y007907D01*
X002910Y007566D02*
X003137Y007566D01*
X004702Y008724D02*
X004938Y008724D01*
X004938Y009196D02*
X004702Y009196D01*
X004702Y009524D02*
X004938Y009524D01*
X004938Y009996D02*
X004702Y009996D01*
X004448Y010564D02*
X004212Y010564D01*
X008224Y005538D02*
X008280Y005425D01*
X008394Y005311D01*
X008394Y005481D01*
X008451Y005538D01*
X008507Y005538D01*
X008564Y005481D01*
X008564Y005368D01*
X008507Y005311D01*
X008394Y005311D01*
X008394Y005170D02*
X008394Y004943D01*
X008224Y005113D01*
X008564Y005113D01*
X008507Y004802D02*
X008564Y004745D01*
X008564Y004631D01*
X008507Y004575D01*
X008280Y004575D01*
X008224Y004631D01*
X008224Y004745D01*
X008280Y004802D01*
X008096Y004892D02*
X008096Y005128D01*
X007624Y005128D02*
X007624Y004892D01*
X007456Y004892D02*
X007456Y005128D01*
X006984Y005128D02*
X006984Y004892D01*
X006556Y004892D02*
X006556Y005128D01*
X006084Y005128D02*
X006084Y004892D01*
X005906Y004892D02*
X005906Y005128D01*
X005434Y005128D02*
X005434Y004892D01*
X005430Y004329D02*
X005544Y004329D01*
X005600Y004273D01*
X005600Y004159D01*
X005544Y004102D01*
X005430Y004102D02*
X005373Y004216D01*
X005373Y004273D01*
X005430Y004329D01*
X005260Y004329D02*
X005260Y004102D01*
X005430Y004102D01*
X005430Y003961D02*
X005544Y003961D01*
X005600Y003904D01*
X005600Y003791D01*
X005544Y003734D01*
X005430Y003734D02*
X005373Y003848D01*
X005373Y003904D01*
X005430Y003961D01*
X005260Y003961D02*
X005260Y003734D01*
X005430Y003734D01*
X005317Y003593D02*
X005260Y003536D01*
X005260Y003422D01*
X005317Y003366D01*
X005544Y003366D01*
X005600Y003422D01*
X005600Y003536D01*
X005544Y003593D01*
X005866Y003548D02*
X005866Y003434D01*
X005923Y003378D01*
X006150Y003378D01*
X006206Y003434D01*
X006206Y003548D01*
X006150Y003604D01*
X006150Y003746D02*
X006206Y003803D01*
X006206Y003916D01*
X006150Y003973D01*
X006036Y003973D01*
X005979Y003916D01*
X005979Y003859D01*
X006036Y003746D01*
X005866Y003746D01*
X005866Y003973D01*
X006036Y004114D02*
X006036Y004341D01*
X005866Y004284D02*
X006036Y004114D01*
X006206Y004284D02*
X005866Y004284D01*
X005923Y003604D02*
X005866Y003548D01*
X007197Y003563D02*
X007197Y003449D01*
X007253Y003393D01*
X007480Y003393D01*
X007537Y003449D01*
X007537Y003563D01*
X007480Y003619D01*
X007480Y003761D02*
X007537Y003818D01*
X007537Y003931D01*
X007480Y003988D01*
X007367Y003988D01*
X007310Y003931D01*
X007310Y003874D01*
X007367Y003761D01*
X007197Y003761D01*
X007197Y003988D01*
X007253Y004129D02*
X007310Y004129D01*
X007367Y004186D01*
X007367Y004356D01*
X007480Y004356D02*
X007253Y004356D01*
X007197Y004299D01*
X007197Y004186D01*
X007253Y004129D01*
X007480Y004129D02*
X007537Y004186D01*
X007537Y004299D01*
X007480Y004356D01*
X007795Y004397D02*
X007795Y004283D01*
X007851Y004227D01*
X007908Y004227D01*
X007965Y004283D01*
X007965Y004397D01*
X008021Y004453D01*
X008078Y004453D01*
X008135Y004397D01*
X008135Y004283D01*
X008078Y004227D01*
X008021Y004227D01*
X007965Y004283D01*
X007965Y004397D02*
X007908Y004453D01*
X007851Y004453D01*
X007795Y004397D01*
X007795Y004085D02*
X007795Y003858D01*
X007965Y003858D01*
X007908Y003972D01*
X007908Y004028D01*
X007965Y004085D01*
X008078Y004085D01*
X008135Y004028D01*
X008135Y003915D01*
X008078Y003858D01*
X008078Y003717D02*
X008135Y003660D01*
X008135Y003547D01*
X008078Y003490D01*
X007851Y003490D01*
X007795Y003547D01*
X007795Y003660D01*
X007851Y003717D01*
X008254Y003642D02*
X008254Y003878D01*
X008726Y003878D02*
X008726Y003642D01*
X010084Y004642D02*
X010084Y004878D01*
X010556Y004878D02*
X010556Y004642D01*
X010714Y004757D02*
X010771Y004644D01*
X010884Y004531D01*
X010884Y004701D01*
X010941Y004757D01*
X010998Y004757D01*
X011054Y004701D01*
X011054Y004587D01*
X010998Y004531D01*
X010884Y004531D01*
X010771Y004389D02*
X010714Y004332D01*
X010714Y004219D01*
X010771Y004162D01*
X010998Y004162D01*
X011054Y004219D01*
X011054Y004332D01*
X010998Y004389D01*
X010998Y004899D02*
X010771Y004899D01*
X010714Y004956D01*
X010714Y005069D01*
X010771Y005126D01*
X010998Y004899D01*
X011054Y004956D01*
X011054Y005069D01*
X010998Y005126D01*
X010771Y005126D01*
X007253Y003619D02*
X007197Y003563D01*
X004014Y003489D02*
X004014Y003545D01*
X003957Y003602D01*
X003787Y003602D01*
X003787Y003489D01*
X003844Y003432D01*
X003957Y003432D01*
X004014Y003489D01*
X003787Y003602D02*
X003900Y003716D01*
X004014Y003772D01*
X003645Y003716D02*
X003589Y003772D01*
X003475Y003772D01*
X003418Y003716D01*
X003418Y003489D01*
X003475Y003432D01*
X003589Y003432D01*
X003645Y003489D01*
X003564Y004412D02*
X003564Y004648D01*
X004036Y004648D02*
X004036Y004412D01*
X001908Y003076D02*
X001672Y003076D01*
X001672Y002604D02*
X001908Y002604D01*
X002009Y002450D02*
X002123Y002450D01*
X002179Y002393D01*
X002179Y002336D01*
X002123Y002280D01*
X002009Y002280D01*
X001952Y002336D01*
X001952Y002393D01*
X002009Y002450D01*
X002009Y002280D02*
X001952Y002223D01*
X001952Y002166D01*
X002009Y002110D01*
X002123Y002110D01*
X002179Y002166D01*
X002179Y002223D01*
X002123Y002280D01*
X001811Y002336D02*
X001811Y002393D01*
X001754Y002450D01*
X001641Y002450D01*
X001584Y002393D01*
X001443Y002393D02*
X001386Y002450D01*
X001272Y002450D01*
X001216Y002393D01*
X001216Y002166D01*
X001272Y002110D01*
X001386Y002110D01*
X001443Y002166D01*
X001584Y002110D02*
X001811Y002336D01*
X001811Y002110D02*
X001584Y002110D01*
X013880Y001686D02*
X013880Y001459D01*
X013936Y001403D01*
X014050Y001403D01*
X014106Y001459D01*
X014248Y001459D02*
X014305Y001403D01*
X014418Y001403D01*
X014475Y001459D01*
X014475Y001516D01*
X014418Y001573D01*
X014361Y001573D01*
X014418Y001573D02*
X014475Y001629D01*
X014475Y001686D01*
X014418Y001743D01*
X014305Y001743D01*
X014248Y001686D01*
X014106Y001686D02*
X014050Y001743D01*
X013936Y001743D01*
X013880Y001686D01*
X014616Y001686D02*
X014673Y001743D01*
X014786Y001743D01*
X014843Y001686D01*
X014843Y001629D01*
X014786Y001573D01*
X014843Y001516D01*
X014843Y001459D01*
X014786Y001403D01*
X014673Y001403D01*
X014616Y001459D01*
X014730Y001573D02*
X014786Y001573D01*
D14*
X013470Y001610D02*
X013070Y001610D01*
X011786Y002160D02*
X011788Y002222D01*
X011794Y002285D01*
X011804Y002346D01*
X011818Y002407D01*
X011835Y002467D01*
X011856Y002526D01*
X011882Y002583D01*
X011910Y002638D01*
X011942Y002692D01*
X011978Y002743D01*
X012016Y002793D01*
X012058Y002839D01*
X012102Y002883D01*
X012150Y002924D01*
X012199Y002962D01*
X012251Y002996D01*
X012305Y003027D01*
X012361Y003055D01*
X012419Y003079D01*
X012478Y003100D01*
X012538Y003116D01*
X012599Y003129D01*
X012661Y003138D01*
X012723Y003143D01*
X012786Y003144D01*
X012848Y003141D01*
X012910Y003134D01*
X012972Y003123D01*
X013032Y003108D01*
X013092Y003090D01*
X013150Y003068D01*
X013207Y003042D01*
X013262Y003012D01*
X013315Y002979D01*
X013366Y002943D01*
X013414Y002904D01*
X013460Y002861D01*
X013503Y002816D01*
X013543Y002768D01*
X013580Y002718D01*
X013614Y002665D01*
X013645Y002611D01*
X013671Y002555D01*
X013695Y002497D01*
X013714Y002437D01*
X013730Y002377D01*
X013742Y002315D01*
X013750Y002254D01*
X013754Y002191D01*
X013754Y002129D01*
X013750Y002066D01*
X013742Y002005D01*
X013730Y001943D01*
X013714Y001883D01*
X013695Y001823D01*
X013671Y001765D01*
X013645Y001709D01*
X013614Y001655D01*
X013580Y001602D01*
X013543Y001552D01*
X013503Y001504D01*
X013460Y001459D01*
X013414Y001416D01*
X013366Y001377D01*
X013315Y001341D01*
X013262Y001308D01*
X013207Y001278D01*
X013150Y001252D01*
X013092Y001230D01*
X013032Y001212D01*
X012972Y001197D01*
X012910Y001186D01*
X012848Y001179D01*
X012786Y001176D01*
X012723Y001177D01*
X012661Y001182D01*
X012599Y001191D01*
X012538Y001204D01*
X012478Y001220D01*
X012419Y001241D01*
X012361Y001265D01*
X012305Y001293D01*
X012251Y001324D01*
X012199Y001358D01*
X012150Y001396D01*
X012102Y001437D01*
X012058Y001481D01*
X012016Y001527D01*
X011978Y001577D01*
X011942Y001628D01*
X011910Y001682D01*
X011882Y001737D01*
X011856Y001794D01*
X011835Y001853D01*
X011818Y001913D01*
X011804Y001974D01*
X011794Y002035D01*
X011788Y002098D01*
X011786Y002160D01*
X016270Y001910D02*
X016270Y002410D01*
X016520Y002660D01*
X017020Y002660D01*
X017270Y002410D01*
X017520Y002660D01*
X018020Y002660D01*
X018270Y002410D01*
X018520Y002660D01*
X019020Y002660D01*
X019270Y002410D01*
X019520Y002660D01*
X020020Y002660D01*
X020270Y002410D01*
X020520Y002660D01*
X021020Y002660D01*
X021270Y002410D01*
X021520Y002660D01*
X022020Y002660D01*
X022270Y002410D01*
X022270Y001910D01*
X022020Y001660D01*
X021520Y001660D01*
X021270Y001910D01*
X021020Y001660D01*
X020520Y001660D01*
X020270Y001910D01*
X020020Y001660D01*
X019520Y001660D01*
X019270Y001910D01*
X019020Y001660D01*
X018520Y001660D01*
X018270Y001910D01*
X018020Y001660D01*
X017520Y001660D01*
X017270Y001910D01*
X017020Y001660D01*
X016520Y001660D01*
X016270Y001910D01*
X004380Y000950D02*
X004100Y000950D01*
X004020Y000910D02*
X003770Y000660D01*
X003270Y000660D01*
X003020Y000910D01*
X002770Y000660D01*
X002270Y000660D01*
X002020Y000910D01*
X001770Y000660D01*
X001270Y000660D01*
X001020Y000910D01*
X001020Y001410D01*
X001270Y001660D01*
X001770Y001660D01*
X002020Y001410D01*
X002270Y001660D01*
X002770Y001660D01*
X003020Y001410D01*
X003270Y001660D01*
X003770Y001660D01*
X004020Y001410D01*
X004020Y000910D01*
X004240Y000950D02*
X004240Y001370D01*
X004100Y001230D01*
X003093Y011646D02*
X002699Y011646D01*
X002699Y018024D01*
X003093Y018024D01*
X003093Y011646D01*
X002699Y011646D02*
X000140Y011646D01*
X000140Y018024D01*
X002699Y018024D01*
X003345Y017847D02*
X003595Y018097D01*
X003345Y018347D01*
X003345Y018847D01*
X003595Y019097D01*
X004095Y019097D01*
X004345Y018847D01*
X004345Y018347D01*
X004095Y018097D01*
X004345Y017847D01*
X004345Y017347D01*
X004095Y017097D01*
X004345Y016847D01*
X004345Y016347D01*
X004095Y016097D01*
X004345Y015847D01*
X004345Y015347D01*
X004095Y015097D01*
X004345Y014847D01*
X004345Y014347D01*
X004095Y014097D01*
X004345Y013847D01*
X004345Y013347D01*
X004095Y013097D01*
X003595Y013097D01*
X003345Y013347D01*
X003345Y013847D01*
X003595Y014097D01*
X003345Y014347D01*
X003345Y014847D01*
X003595Y015097D01*
X003345Y015347D01*
X003345Y015847D01*
X003595Y016097D01*
X003345Y016347D01*
X003345Y016847D01*
X003595Y017097D01*
X003345Y017347D01*
X003345Y017847D01*
X013520Y016410D02*
X013520Y015910D01*
X013770Y015660D01*
X014270Y015660D01*
X014520Y015910D01*
X014770Y015660D01*
X015270Y015660D01*
X015520Y015910D01*
X015770Y015660D01*
X016270Y015660D01*
X016520Y015910D01*
X016770Y015660D01*
X017270Y015660D01*
X017520Y015910D01*
X017520Y016410D01*
X017270Y016660D01*
X016770Y016660D01*
X016520Y016410D01*
X016270Y016660D01*
X015770Y016660D01*
X015520Y016410D01*
X015270Y016660D01*
X014770Y016660D01*
X014520Y016410D01*
X014270Y016660D01*
X013770Y016660D01*
X013520Y016410D01*
D15*
X019662Y005738D02*
X019770Y005580D01*
X019592Y005580D01*
X019662Y005738D02*
X019888Y005738D01*
X019770Y005580D01*
X019937Y005580D01*
X013815Y004560D02*
X013657Y004560D01*
X013595Y004010D02*
X011945Y004010D01*
X011883Y004560D02*
X011725Y004560D01*
X012657Y004560D02*
X012883Y004560D01*
X011945Y004010D02*
X011910Y004058D01*
X011877Y004108D01*
X011846Y004160D01*
X011819Y004214D01*
X011795Y004269D01*
X011775Y004326D01*
X011757Y004383D01*
X011743Y004441D01*
X011732Y004500D01*
X011725Y004560D01*
X013080Y005663D02*
X013140Y005643D01*
X013199Y005619D01*
X013256Y005591D01*
X013311Y005560D01*
X013365Y005525D01*
X013416Y005488D01*
X013465Y005447D01*
X013511Y005403D01*
X013555Y005357D01*
X013596Y005308D01*
X013634Y005257D01*
X013668Y005204D01*
X013700Y005148D01*
X013727Y005091D01*
X013752Y005032D01*
X013772Y004972D01*
X013790Y004911D01*
X013803Y004849D01*
X013812Y004786D01*
X013818Y004723D01*
X013820Y004659D01*
X013818Y004595D01*
X013812Y004532D01*
X013803Y004469D01*
X013789Y004407D01*
X013772Y004346D01*
X013751Y004286D01*
X013727Y004227D01*
X013699Y004170D01*
X013667Y004114D01*
X013632Y004061D01*
X013595Y004010D01*
X011725Y004560D02*
X011721Y004622D01*
X011720Y004685D01*
X011724Y004747D01*
X011731Y004809D01*
X011741Y004870D01*
X011756Y004931D01*
X011774Y004991D01*
X011795Y005050D01*
X011820Y005107D01*
X011848Y005162D01*
X011879Y005216D01*
X011914Y005268D01*
X011952Y005318D01*
X011992Y005365D01*
X012036Y005410D01*
X012081Y005453D01*
X012130Y005492D01*
X012180Y005529D01*
X012233Y005562D01*
X012287Y005593D01*
X012344Y005620D01*
X012401Y005643D01*
X012460Y005663D01*
D16*
X013800Y012943D02*
X014040Y012943D01*
X014100Y013003D01*
X014100Y013124D01*
X014040Y013184D01*
X014040Y013312D02*
X013980Y013312D01*
X013920Y013372D01*
X013920Y013492D01*
X013980Y013552D01*
X014040Y013552D01*
X014100Y013492D01*
X014100Y013372D01*
X014040Y013312D01*
X013920Y013372D02*
X013860Y013312D01*
X013800Y013312D01*
X013740Y013372D01*
X013740Y013492D01*
X013800Y013552D01*
X013860Y013552D01*
X013920Y013492D01*
X013800Y013184D02*
X013740Y013124D01*
X013740Y013003D01*
X013800Y012943D01*
M02*
