G75*
G70*
%OFA0B0*%
%FSLAX24Y24*%
%IPPOS*%
%LPD*%
%AMOC8*
5,1,8,0,0,1.08239X$1,22.5*
%
%ADD10C,0.0030*%
%ADD11C,0.0000*%
%ADD12C,0.0060*%
%ADD13C,0.0080*%
%ADD14C,0.0050*%
%ADD15C,0.0040*%
%ADD16C,0.0010*%
D10*
X006382Y003847D02*
X006696Y004160D01*
X006696Y004004D02*
X006382Y004004D01*
X006382Y004160D02*
X006696Y003847D01*
X006539Y003847D02*
X006539Y004160D01*
X006539Y007388D02*
X006539Y007702D01*
X006696Y007702D02*
X006382Y007388D01*
X006382Y007545D02*
X006696Y007545D01*
X006696Y007388D02*
X006382Y007702D01*
X006382Y010847D02*
X006696Y011160D01*
X006696Y011004D02*
X006382Y011004D01*
X006382Y011160D02*
X006696Y010847D01*
X006539Y010847D02*
X006539Y011160D01*
X014919Y006469D02*
X015232Y006155D01*
X015075Y006155D02*
X015075Y006469D01*
X015232Y006469D02*
X014919Y006155D01*
X014919Y006312D02*
X015232Y006312D01*
X022269Y006369D02*
X022582Y006055D01*
X022425Y006055D02*
X022425Y006369D01*
X022582Y006369D02*
X022269Y006055D01*
X022269Y006212D02*
X022582Y006212D01*
X028135Y005730D02*
X028259Y005607D01*
X028197Y005485D02*
X028135Y005424D01*
X028135Y005238D01*
X028506Y005238D01*
X028506Y005424D01*
X028444Y005485D01*
X028197Y005485D01*
X028506Y005607D02*
X028506Y005854D01*
X028506Y005730D02*
X028135Y005730D01*
X028135Y005117D02*
X028135Y004870D01*
X028506Y004870D01*
X028506Y005117D01*
X028320Y004993D02*
X028320Y004870D01*
X028506Y004749D02*
X028506Y004502D01*
X028135Y004502D01*
X029828Y004598D02*
X029952Y004475D01*
X030199Y004475D01*
X030199Y004353D02*
X030199Y004106D01*
X029828Y004106D01*
X029828Y004353D01*
X030013Y004475D02*
X030013Y004721D01*
X029952Y004721D02*
X030199Y004721D01*
X030199Y004843D02*
X030199Y005028D01*
X030137Y005090D01*
X029890Y005090D01*
X029828Y005028D01*
X029828Y004843D01*
X030199Y004843D01*
X030428Y004966D02*
X030428Y005151D01*
X030490Y005213D01*
X030613Y005213D01*
X030675Y005151D01*
X030675Y004966D01*
X030799Y004966D02*
X030428Y004966D01*
X030552Y005396D02*
X030552Y005519D01*
X030613Y005581D01*
X030799Y005581D01*
X030799Y005396D01*
X030737Y005334D01*
X030675Y005396D01*
X030675Y005581D01*
X030552Y005702D02*
X030799Y005826D01*
X030552Y005949D01*
X030428Y006071D02*
X030428Y006132D01*
X030799Y006132D01*
X030799Y006071D02*
X030799Y006194D01*
X030737Y006316D02*
X030613Y006316D01*
X030552Y006378D01*
X030552Y006501D01*
X030613Y006563D01*
X030737Y006563D01*
X030799Y006501D01*
X030799Y006378D01*
X030737Y006316D01*
X031152Y006194D02*
X031213Y006256D01*
X031275Y006256D01*
X031275Y006009D01*
X031213Y006009D02*
X031152Y006071D01*
X031152Y006194D01*
X031213Y006009D02*
X031337Y006009D01*
X031399Y006071D01*
X031399Y006194D01*
X031399Y005888D02*
X031213Y005888D01*
X031152Y005826D01*
X031213Y005764D01*
X031399Y005764D01*
X031399Y005641D02*
X031152Y005641D01*
X031152Y005703D01*
X031213Y005764D01*
X031337Y005519D02*
X031399Y005519D01*
X031399Y005457D01*
X031337Y005457D01*
X031337Y005519D01*
X031337Y005335D02*
X031213Y005335D01*
X031152Y005274D01*
X031152Y005150D01*
X031213Y005088D01*
X031337Y005088D01*
X031399Y005150D01*
X031399Y005274D01*
X031337Y005335D01*
X031399Y004966D02*
X031399Y004843D01*
X031399Y004905D02*
X031028Y004905D01*
X031028Y004843D01*
X031152Y004721D02*
X031399Y004598D01*
X031152Y004475D01*
X031213Y004353D02*
X031399Y004353D01*
X031399Y004168D01*
X031337Y004106D01*
X031275Y004168D01*
X031275Y004353D01*
X031213Y004353D02*
X031152Y004291D01*
X031152Y004168D01*
X031213Y003985D02*
X031337Y003985D01*
X031399Y003923D01*
X031399Y003738D01*
X031522Y003738D02*
X031152Y003738D01*
X031152Y003923D01*
X031213Y003985D01*
X030799Y004045D02*
X030799Y004230D01*
X030799Y004352D02*
X030675Y004475D01*
X030552Y004475D01*
X030428Y004352D01*
X030552Y004230D02*
X030552Y004045D01*
X030613Y003984D01*
X030737Y003984D01*
X030799Y004045D01*
X030799Y003861D02*
X030675Y003738D01*
X030552Y003738D01*
X030428Y003861D01*
X030199Y003800D02*
X030199Y003923D01*
X030137Y003985D01*
X030075Y003985D01*
X030013Y003923D01*
X030013Y003800D01*
X029952Y003738D01*
X029890Y003738D01*
X029828Y003800D01*
X029828Y003923D01*
X029890Y003985D01*
X030013Y004106D02*
X030013Y004230D01*
X029828Y004598D02*
X029952Y004721D01*
X029828Y005580D02*
X029828Y005765D01*
X029890Y005826D01*
X030137Y005826D01*
X030199Y005765D01*
X030199Y005580D01*
X029828Y005580D01*
X029952Y005948D02*
X029828Y006071D01*
X029952Y006195D01*
X030199Y006195D01*
X030137Y006316D02*
X029890Y006316D01*
X029828Y006378D01*
X029828Y006501D01*
X029890Y006563D01*
X030137Y006563D01*
X030199Y006501D01*
X030199Y006378D01*
X030137Y006316D01*
X030075Y006440D02*
X030199Y006563D01*
X030013Y006195D02*
X030013Y005948D01*
X029952Y005948D02*
X030199Y005948D01*
X030137Y007053D02*
X029828Y007053D01*
X030137Y007053D02*
X030199Y007115D01*
X030199Y007238D01*
X030137Y007300D01*
X029828Y007300D01*
X029952Y007421D02*
X029952Y007606D01*
X030013Y007668D01*
X030199Y007668D01*
X030199Y007789D02*
X030199Y007913D01*
X030199Y007851D02*
X029952Y007851D01*
X029952Y007789D01*
X029828Y007851D02*
X029767Y007851D01*
X029952Y008035D02*
X029952Y008158D01*
X029890Y008097D02*
X030137Y008097D01*
X030199Y008158D01*
X030552Y008219D02*
X030552Y008343D01*
X030613Y008405D01*
X030737Y008405D01*
X030799Y008343D01*
X030799Y008219D01*
X030737Y008158D01*
X030613Y008158D01*
X030552Y008219D01*
X030613Y008036D02*
X030799Y008036D01*
X030613Y008036D02*
X030552Y007975D01*
X030552Y007789D01*
X030799Y007789D01*
X030799Y007668D02*
X030799Y007483D01*
X030737Y007421D01*
X030675Y007483D01*
X030675Y007668D01*
X030613Y007668D02*
X030799Y007668D01*
X030613Y007668D02*
X030552Y007606D01*
X030552Y007483D01*
X030428Y007300D02*
X030799Y007300D01*
X030552Y007176D02*
X030428Y007300D01*
X030552Y007176D02*
X030428Y007053D01*
X030799Y007053D01*
X030199Y007421D02*
X029952Y007421D01*
X030552Y008526D02*
X030799Y008650D01*
X030552Y008773D01*
X030552Y008894D02*
X030552Y008956D01*
X030799Y008956D01*
X030799Y008894D02*
X030799Y009018D01*
X030428Y008956D02*
X030367Y008956D01*
X030199Y009017D02*
X030199Y009264D01*
X030199Y009385D02*
X030199Y009447D01*
X030137Y009447D01*
X030137Y009385D01*
X030199Y009385D01*
X030199Y009570D02*
X029952Y009817D01*
X029890Y009817D01*
X029828Y009755D01*
X029828Y009631D01*
X029890Y009570D01*
X030199Y009570D02*
X030199Y009817D01*
X030613Y009755D02*
X030613Y009508D01*
X030199Y009141D02*
X029828Y009141D01*
X029952Y009017D01*
X029952Y008896D02*
X030199Y008772D01*
X029952Y008649D01*
X030490Y010245D02*
X030428Y010307D01*
X030428Y010430D01*
X030490Y010492D01*
X030552Y010492D01*
X030799Y010245D01*
X030799Y010492D01*
X030737Y010613D02*
X030490Y010613D01*
X030428Y010675D01*
X030428Y010798D01*
X030490Y010860D01*
X030737Y010613D01*
X030799Y010675D01*
X030799Y010798D01*
X030737Y010860D01*
X030490Y010860D01*
X030552Y010982D02*
X030428Y011105D01*
X030799Y011105D01*
X030799Y010982D02*
X030799Y011228D01*
X030613Y011350D02*
X030428Y011535D01*
X030799Y011535D01*
X030613Y011597D02*
X030613Y011350D01*
X027211Y015187D02*
X026902Y015187D01*
X026902Y015434D02*
X027211Y015434D01*
X027273Y015372D01*
X027273Y015249D01*
X027211Y015187D01*
X027273Y015555D02*
X026902Y015555D01*
X026902Y015740D01*
X026964Y015802D01*
X027087Y015802D01*
X027149Y015740D01*
X027149Y015555D01*
X027149Y015679D02*
X027273Y015802D01*
X027273Y015923D02*
X026902Y016170D01*
X026902Y015923D02*
X027273Y016170D01*
X026473Y016155D02*
X026103Y015908D01*
X026103Y015786D02*
X026103Y015539D01*
X026103Y015418D02*
X026412Y015418D01*
X026473Y015356D01*
X026473Y015233D01*
X026412Y015171D01*
X026103Y015171D01*
X026103Y015663D02*
X026473Y015663D01*
X026473Y015908D02*
X026103Y016155D01*
X025249Y017024D02*
X025187Y016962D01*
X025249Y017024D02*
X025249Y017148D01*
X025187Y017209D01*
X025126Y017209D01*
X025064Y017148D01*
X025064Y017024D01*
X025002Y016962D01*
X024940Y016962D01*
X024879Y017024D01*
X024879Y017148D01*
X024940Y017209D01*
X024940Y017331D02*
X025187Y017331D01*
X025249Y017392D01*
X025249Y017516D01*
X025187Y017578D01*
X025126Y017699D02*
X024879Y017946D01*
X024879Y017699D02*
X025249Y017699D01*
X025064Y017761D02*
X025249Y017946D01*
X024940Y017578D02*
X024879Y017516D01*
X024879Y017392D01*
X024940Y017331D01*
X024241Y017331D02*
X024241Y017454D01*
X024241Y017392D02*
X023871Y017392D01*
X023871Y017331D02*
X023871Y017454D01*
X023933Y017576D02*
X023994Y017576D01*
X024056Y017638D01*
X024056Y017761D01*
X024118Y017823D01*
X024179Y017823D01*
X024241Y017761D01*
X024241Y017638D01*
X024179Y017576D01*
X023933Y017576D02*
X023871Y017638D01*
X023871Y017761D01*
X023933Y017823D01*
X023933Y017945D02*
X024179Y017945D01*
X024241Y018006D01*
X024241Y018130D01*
X024179Y018191D01*
X023933Y018191D01*
X023871Y018130D01*
X023871Y018006D01*
X023933Y017945D01*
X023221Y017884D02*
X023221Y017761D01*
X023160Y017699D01*
X023160Y017578D02*
X022913Y017578D01*
X022851Y017516D01*
X022851Y017392D01*
X022913Y017331D01*
X023160Y017331D01*
X023221Y017392D01*
X023221Y017516D01*
X023160Y017578D01*
X023036Y017761D02*
X023036Y017884D01*
X023098Y017946D01*
X023160Y017946D01*
X023221Y017884D01*
X023221Y018067D02*
X023221Y018191D01*
X023221Y018129D02*
X022851Y018129D01*
X022851Y018067D02*
X022851Y018191D01*
X022913Y017946D02*
X022851Y017884D01*
X022851Y017761D01*
X022913Y017699D01*
X022975Y017699D01*
X023036Y017761D01*
X022851Y017209D02*
X023221Y017209D01*
X023221Y016962D02*
X022851Y016962D01*
X022975Y017086D01*
X022851Y017209D01*
X022178Y017159D02*
X022178Y017036D01*
X022116Y016974D01*
X021993Y017036D02*
X021993Y017159D01*
X022055Y017221D01*
X022116Y017221D01*
X022178Y017159D01*
X022116Y017343D02*
X022178Y017404D01*
X022178Y017528D01*
X022116Y017589D01*
X022055Y017589D01*
X021993Y017528D01*
X021993Y017404D01*
X021931Y017343D01*
X021870Y017343D01*
X021808Y017404D01*
X021808Y017528D01*
X021870Y017589D01*
X021870Y017221D02*
X021808Y017159D01*
X021808Y017036D01*
X021870Y016974D01*
X021931Y016974D01*
X021993Y017036D01*
X023871Y016962D02*
X023994Y017086D01*
X023871Y017209D01*
X024241Y017209D01*
X024241Y016962D02*
X023871Y016962D01*
X007261Y017888D02*
X007199Y017827D01*
X007261Y017888D02*
X007261Y017950D01*
X007199Y018012D01*
X006891Y018012D01*
X006891Y018073D02*
X006891Y017950D01*
X006891Y018195D02*
X006891Y018380D01*
X006952Y018442D01*
X007076Y018442D01*
X007137Y018380D01*
X007137Y018195D01*
X007261Y018195D02*
X006891Y018195D01*
X007014Y018563D02*
X006891Y018687D01*
X007261Y018687D01*
X007261Y018810D02*
X007261Y018563D01*
X030137Y003738D02*
X030199Y003800D01*
X030047Y003289D02*
X029924Y003228D01*
X029800Y003104D01*
X029986Y003104D01*
X030047Y003043D01*
X030047Y002981D01*
X029986Y002919D01*
X029862Y002919D01*
X029800Y002981D01*
X029800Y003104D01*
X029679Y003104D02*
X029617Y003043D01*
X029432Y003043D01*
X029432Y002919D02*
X029432Y003289D01*
X029617Y003289D01*
X029679Y003228D01*
X029679Y003104D01*
X029311Y003289D02*
X029187Y003289D01*
X029249Y003289D02*
X029249Y002981D01*
X029187Y002919D01*
X029126Y002919D01*
X029064Y002981D01*
X030524Y002729D02*
X030524Y002544D01*
X030895Y002544D01*
X030895Y002422D02*
X030895Y002175D01*
X030524Y002175D01*
X030586Y002054D02*
X030524Y001992D01*
X030524Y001869D01*
X030586Y001807D01*
X030833Y001807D01*
X030895Y001869D01*
X030895Y001992D01*
X030833Y002054D01*
X030895Y001686D02*
X030524Y001686D01*
X030648Y001562D01*
X030524Y001439D01*
X030895Y001439D01*
X030771Y002544D02*
X030771Y002729D01*
X030710Y002791D01*
X030586Y002791D01*
X030524Y002729D01*
X030771Y002667D02*
X030895Y002791D01*
X025425Y001428D02*
X025425Y001305D01*
X025364Y001243D01*
X025179Y001243D01*
X025057Y001243D02*
X025057Y001182D01*
X024995Y001120D01*
X024872Y001120D01*
X024810Y001182D01*
X024689Y001182D02*
X024627Y001120D01*
X024504Y001120D01*
X024442Y001182D01*
X024442Y001428D01*
X024504Y001490D01*
X024627Y001490D01*
X024689Y001428D01*
X024810Y001428D02*
X024810Y001367D01*
X024872Y001305D01*
X024995Y001305D01*
X025057Y001243D01*
X025179Y001120D02*
X025179Y001490D01*
X025364Y001490D01*
X025425Y001428D01*
X025057Y001428D02*
X024995Y001490D01*
X024872Y001490D01*
X024810Y001428D01*
X024320Y001490D02*
X024196Y001490D01*
X024258Y001490D02*
X024258Y001120D01*
X024196Y001120D02*
X024320Y001120D01*
D11*
X024346Y006650D02*
X024436Y006650D01*
X024436Y007050D01*
X024346Y007050D01*
X024346Y006650D01*
X024276Y006650D02*
X024276Y007050D01*
X024186Y007050D01*
X024186Y006650D01*
X024276Y006650D01*
X024116Y006650D02*
X024116Y007050D01*
X024026Y007050D01*
X024026Y006650D01*
X024116Y006650D01*
X023966Y006650D02*
X023966Y007050D01*
X023876Y007050D01*
X023876Y006650D01*
X023966Y006650D01*
X023806Y006650D02*
X023806Y007050D01*
X023716Y007050D01*
X023716Y006650D01*
X023806Y006650D01*
X023646Y006650D02*
X023646Y007050D01*
X023556Y007050D01*
X023556Y006650D01*
X023646Y006650D01*
X023486Y006650D02*
X023486Y007050D01*
X023396Y007050D01*
X023396Y006650D01*
X023486Y006650D01*
X023336Y006650D02*
X023336Y007050D01*
X023246Y007050D01*
X023246Y006650D01*
X023336Y006650D01*
X023176Y006650D02*
X023176Y007050D01*
X023086Y007050D01*
X023086Y006650D01*
X023176Y006650D01*
X023016Y006650D02*
X023016Y007050D01*
X022926Y007050D01*
X022926Y006650D01*
X023016Y006650D01*
X022856Y006650D02*
X022856Y007050D01*
X022766Y007050D01*
X022766Y006650D01*
X022856Y006650D01*
X022706Y006650D02*
X022706Y007050D01*
X022686Y007050D01*
X022186Y007550D01*
X022186Y007570D01*
X021786Y007570D01*
X021786Y007480D01*
X022186Y007480D01*
X022186Y007550D01*
X022186Y007630D02*
X021786Y007630D01*
X021786Y007720D01*
X022186Y007720D01*
X022186Y007630D01*
X022186Y007790D02*
X021786Y007790D01*
X021786Y007880D01*
X022186Y007880D01*
X022186Y007790D01*
X022186Y007950D02*
X021786Y007950D01*
X021786Y008040D01*
X022186Y008040D01*
X022186Y007950D01*
X022186Y008110D02*
X021786Y008110D01*
X021786Y008200D01*
X022186Y008200D01*
X022186Y008110D01*
X022186Y008260D02*
X021786Y008260D01*
X021786Y008350D01*
X022186Y008350D01*
X022186Y008260D01*
X022186Y008420D02*
X021786Y008420D01*
X021786Y008510D01*
X022186Y008510D01*
X022186Y008420D01*
X022186Y008580D02*
X021786Y008580D01*
X021786Y008670D01*
X022186Y008670D01*
X022186Y008580D01*
X022186Y008740D02*
X021786Y008740D01*
X021786Y008830D01*
X022186Y008830D01*
X022186Y008740D01*
X022186Y008890D02*
X021786Y008890D01*
X021786Y008980D01*
X022186Y008980D01*
X022186Y008890D01*
X022186Y009050D02*
X021786Y009050D01*
X021786Y009140D01*
X022186Y009140D01*
X022186Y009050D01*
X022186Y009210D02*
X021786Y009210D01*
X021786Y009300D01*
X022186Y009300D01*
X022186Y009210D01*
X022186Y009370D02*
X021786Y009370D01*
X021786Y009460D01*
X022186Y009460D01*
X022186Y009370D01*
X022186Y009520D02*
X021786Y009520D01*
X021786Y009610D01*
X022186Y009610D01*
X022186Y009520D01*
X022186Y009680D02*
X021786Y009680D01*
X021786Y009770D01*
X022186Y009770D01*
X022186Y009680D01*
X022186Y009840D02*
X021786Y009840D01*
X021786Y009930D01*
X022186Y009930D01*
X022186Y009840D01*
X022186Y009990D02*
X021786Y009990D01*
X021786Y010080D01*
X022186Y010080D01*
X022186Y009990D01*
X022186Y010150D02*
X021786Y010150D01*
X021786Y010240D01*
X022186Y010240D01*
X022186Y010150D01*
X022186Y010310D02*
X021786Y010310D01*
X021786Y010400D01*
X022186Y010400D01*
X022186Y010310D01*
X022186Y010470D02*
X021786Y010470D01*
X021786Y010560D01*
X022186Y010560D01*
X022186Y010470D01*
X022186Y010620D02*
X021786Y010620D01*
X021786Y010710D01*
X022186Y010710D01*
X022186Y010620D01*
X022186Y010780D02*
X021786Y010780D01*
X021786Y010870D01*
X022186Y010870D01*
X022186Y010780D01*
X022186Y010940D02*
X021786Y010940D01*
X021786Y011030D01*
X022186Y011030D01*
X022186Y010940D01*
X022186Y011100D02*
X021786Y011100D01*
X021786Y011190D01*
X022186Y011190D01*
X022186Y011100D01*
X022186Y011250D02*
X021786Y011250D01*
X021786Y011340D01*
X022186Y011340D01*
X022186Y011250D01*
X022186Y011770D02*
X022186Y007050D01*
X026906Y007050D01*
X026906Y011770D01*
X022186Y011770D01*
X022616Y011770D02*
X022616Y012170D01*
X022706Y012170D01*
X022706Y011770D01*
X022616Y011770D01*
X022766Y011770D02*
X022766Y012170D01*
X022856Y012170D01*
X022856Y011770D01*
X022766Y011770D01*
X022926Y011770D02*
X022926Y012170D01*
X023016Y012170D01*
X023016Y011770D01*
X022926Y011770D01*
X023086Y011770D02*
X023086Y012170D01*
X023176Y012170D01*
X023176Y011770D01*
X023086Y011770D01*
X023246Y011770D02*
X023246Y012170D01*
X023336Y012170D01*
X023336Y011770D01*
X023246Y011770D01*
X023396Y011770D02*
X023396Y012170D01*
X023486Y012170D01*
X023486Y011770D01*
X023396Y011770D01*
X023556Y011770D02*
X023556Y012170D01*
X023646Y012170D01*
X023646Y011770D01*
X023556Y011770D01*
X023716Y011770D02*
X023716Y012170D01*
X023806Y012170D01*
X023806Y011770D01*
X023716Y011770D01*
X023876Y011770D02*
X023876Y012170D01*
X023966Y012170D01*
X023966Y011770D01*
X023876Y011770D01*
X024026Y011770D02*
X024026Y012170D01*
X024116Y012170D01*
X024116Y011770D01*
X024026Y011770D01*
X024186Y011770D02*
X024186Y012170D01*
X024276Y012170D01*
X024276Y011770D01*
X024186Y011770D01*
X024346Y011770D02*
X024346Y012170D01*
X024436Y012170D01*
X024436Y011770D01*
X024346Y011770D01*
X024506Y011770D02*
X024506Y012170D01*
X024596Y012170D01*
X024596Y011770D01*
X024506Y011770D01*
X024656Y011770D02*
X024656Y012170D01*
X024746Y012170D01*
X024746Y011770D01*
X024656Y011770D01*
X024816Y011770D02*
X024816Y012170D01*
X024906Y012170D01*
X024906Y011770D01*
X024816Y011770D01*
X024976Y011770D02*
X024976Y012170D01*
X025066Y012170D01*
X025066Y011770D01*
X024976Y011770D01*
X025126Y011770D02*
X025126Y012170D01*
X025216Y012170D01*
X025216Y011770D01*
X025126Y011770D01*
X025286Y011770D02*
X025286Y012170D01*
X025376Y012170D01*
X025376Y011770D01*
X025286Y011770D01*
X025446Y011770D02*
X025446Y012170D01*
X025536Y012170D01*
X025536Y011770D01*
X025446Y011770D01*
X025606Y011770D02*
X025606Y012170D01*
X025696Y012170D01*
X025696Y011770D01*
X025606Y011770D01*
X025756Y011770D02*
X025756Y012170D01*
X025846Y012170D01*
X025846Y011770D01*
X025756Y011770D01*
X025916Y011770D02*
X025916Y012170D01*
X026006Y012170D01*
X026006Y011770D01*
X025916Y011770D01*
X026076Y011770D02*
X026076Y012170D01*
X026166Y012170D01*
X026166Y011770D01*
X026076Y011770D01*
X026236Y011770D02*
X026236Y012170D01*
X026326Y012170D01*
X026326Y011770D01*
X026236Y011770D01*
X026386Y011770D02*
X026386Y012170D01*
X026476Y012170D01*
X026476Y011770D01*
X026386Y011770D01*
X026906Y011340D02*
X027306Y011340D01*
X027306Y011250D01*
X026906Y011250D01*
X026906Y011340D01*
X026906Y011190D02*
X027306Y011190D01*
X027306Y011100D01*
X026906Y011100D01*
X026906Y011190D01*
X026906Y011030D02*
X027306Y011030D01*
X027306Y010940D01*
X026906Y010940D01*
X026906Y011030D01*
X026906Y010870D02*
X027306Y010870D01*
X027306Y010780D01*
X026906Y010780D01*
X026906Y010870D01*
X026906Y010710D02*
X027306Y010710D01*
X027306Y010620D01*
X026906Y010620D01*
X026906Y010710D01*
X026906Y010560D02*
X027306Y010560D01*
X027306Y010470D01*
X026906Y010470D01*
X026906Y010560D01*
X026906Y010400D02*
X027306Y010400D01*
X027306Y010310D01*
X026906Y010310D01*
X026906Y010400D01*
X026906Y010240D02*
X027306Y010240D01*
X027306Y010150D01*
X026906Y010150D01*
X026906Y010240D01*
X026906Y010080D02*
X027306Y010080D01*
X027306Y009990D01*
X026906Y009990D01*
X026906Y010080D01*
X026906Y009930D02*
X027306Y009930D01*
X027306Y009840D01*
X026906Y009840D01*
X026906Y009930D01*
X026906Y009770D02*
X027306Y009770D01*
X027306Y009680D01*
X026906Y009680D01*
X026906Y009770D01*
X026906Y009610D02*
X027306Y009610D01*
X027306Y009520D01*
X026906Y009520D01*
X026906Y009610D01*
X026906Y009450D02*
X027306Y009450D01*
X027306Y009360D01*
X026906Y009360D01*
X026906Y009450D01*
X026906Y009300D02*
X027306Y009300D01*
X027306Y009210D01*
X026906Y009210D01*
X026906Y009300D01*
X026906Y009140D02*
X027306Y009140D01*
X027306Y009050D01*
X026906Y009050D01*
X026906Y009140D01*
X026906Y008980D02*
X027306Y008980D01*
X027306Y008890D01*
X026906Y008890D01*
X026906Y008980D01*
X026906Y008830D02*
X027306Y008830D01*
X027306Y008740D01*
X026906Y008740D01*
X026906Y008830D01*
X026906Y008670D02*
X027306Y008670D01*
X027306Y008580D01*
X026906Y008580D01*
X026906Y008670D01*
X026906Y008510D02*
X027306Y008510D01*
X027306Y008420D01*
X026906Y008420D01*
X026906Y008510D01*
X026906Y008350D02*
X027306Y008350D01*
X027306Y008260D01*
X026906Y008260D01*
X026906Y008350D01*
X026906Y008200D02*
X027306Y008200D01*
X027306Y008110D01*
X026906Y008110D01*
X026906Y008200D01*
X026906Y008040D02*
X027306Y008040D01*
X027306Y007950D01*
X026906Y007950D01*
X026906Y008040D01*
X026906Y007880D02*
X027306Y007880D01*
X027306Y007790D01*
X026906Y007790D01*
X026906Y007880D01*
X026906Y007720D02*
X027306Y007720D01*
X027306Y007630D01*
X026906Y007630D01*
X026906Y007720D01*
X026906Y007570D02*
X027306Y007570D01*
X027306Y007480D01*
X026906Y007480D01*
X026906Y007570D01*
X026476Y007050D02*
X026386Y007050D01*
X026386Y006650D01*
X026476Y006650D01*
X026476Y007050D01*
X026326Y007050D02*
X026326Y006650D01*
X026236Y006650D01*
X026236Y007050D01*
X026326Y007050D01*
X026166Y007050D02*
X026166Y006650D01*
X026076Y006650D01*
X026076Y007050D01*
X026166Y007050D01*
X026006Y007050D02*
X026006Y006650D01*
X025916Y006650D01*
X025916Y007050D01*
X026006Y007050D01*
X025846Y007050D02*
X025846Y006650D01*
X025756Y006650D01*
X025756Y007050D01*
X025846Y007050D01*
X025696Y007050D02*
X025696Y006650D01*
X025606Y006650D01*
X025606Y007050D01*
X025696Y007050D01*
X025536Y007050D02*
X025536Y006650D01*
X025446Y006650D01*
X025446Y007050D01*
X025536Y007050D01*
X025376Y007050D02*
X025376Y006650D01*
X025286Y006650D01*
X025286Y007050D01*
X025376Y007050D01*
X025216Y007050D02*
X025216Y006650D01*
X025126Y006650D01*
X025126Y007050D01*
X025216Y007050D01*
X025066Y007050D02*
X025066Y006650D01*
X024976Y006650D01*
X024976Y007050D01*
X025066Y007050D01*
X024906Y007050D02*
X024906Y006650D01*
X024816Y006650D01*
X024816Y007050D01*
X024906Y007050D01*
X024746Y007050D02*
X024746Y006650D01*
X024656Y006650D01*
X024656Y007050D01*
X024746Y007050D01*
X024586Y007050D02*
X024586Y006650D01*
X024496Y006650D01*
X024496Y007050D01*
X024586Y007050D01*
X022686Y007050D02*
X022616Y007050D01*
X022616Y006650D01*
X022706Y006650D01*
X019196Y007630D02*
X019196Y007740D01*
X018806Y007740D01*
X018806Y007630D01*
X019196Y007630D01*
X019196Y007830D02*
X018806Y007830D01*
X018806Y007940D01*
X019196Y007940D01*
X019196Y007830D01*
X019196Y008020D02*
X018806Y008020D01*
X018806Y008130D01*
X019196Y008130D01*
X019196Y008020D01*
X019196Y008220D02*
X018806Y008220D01*
X018806Y008330D01*
X019196Y008330D01*
X019196Y008220D01*
X019196Y008420D02*
X018806Y008420D01*
X018806Y008530D01*
X019196Y008530D01*
X019196Y008420D01*
X019196Y008610D02*
X018806Y008610D01*
X018806Y008720D01*
X019196Y008720D01*
X019196Y008610D01*
X019196Y008810D02*
X018806Y008810D01*
X018806Y008920D01*
X019196Y008920D01*
X019196Y008810D01*
X019196Y009010D02*
X018806Y009010D01*
X018806Y009120D01*
X019196Y009120D01*
X019196Y009010D01*
X019196Y009200D02*
X018806Y009200D01*
X018806Y009310D01*
X019196Y009310D01*
X019196Y009200D01*
X019196Y009400D02*
X018806Y009400D01*
X018806Y009510D01*
X019196Y009510D01*
X019196Y009400D01*
X019196Y009600D02*
X018806Y009600D01*
X018806Y009710D01*
X019196Y009710D01*
X019196Y009600D01*
X019196Y009790D02*
X018806Y009790D01*
X018806Y009900D01*
X019196Y009900D01*
X019196Y009790D01*
X019196Y009990D02*
X018806Y009990D01*
X018806Y010100D01*
X019196Y010100D01*
X019196Y009990D01*
X019196Y010190D02*
X018806Y010190D01*
X018806Y010300D01*
X019196Y010300D01*
X019196Y010190D01*
X019196Y010380D02*
X018806Y010380D01*
X018806Y010490D01*
X019196Y010490D01*
X019196Y010380D01*
X019196Y010580D02*
X018806Y010580D01*
X018806Y010690D01*
X019196Y010690D01*
X019196Y010580D01*
X018806Y011170D02*
X014786Y011170D01*
X014786Y007150D01*
X018806Y007150D01*
X018806Y011170D01*
X018326Y011170D02*
X018326Y011560D01*
X018216Y011560D01*
X018216Y011170D01*
X018326Y011170D01*
X018126Y011170D02*
X018126Y011560D01*
X018016Y011560D01*
X018016Y011170D01*
X018126Y011170D01*
X017936Y011170D02*
X017936Y011560D01*
X017826Y011560D01*
X017826Y011170D01*
X017936Y011170D01*
X017736Y011170D02*
X017736Y011560D01*
X017626Y011560D01*
X017626Y011170D01*
X017736Y011170D01*
X017536Y011170D02*
X017536Y011560D01*
X017426Y011560D01*
X017426Y011170D01*
X017536Y011170D01*
X017346Y011170D02*
X017346Y011560D01*
X017236Y011560D01*
X017236Y011170D01*
X017346Y011170D01*
X017146Y011170D02*
X017146Y011560D01*
X017036Y011560D01*
X017036Y011170D01*
X017146Y011170D01*
X016946Y011170D02*
X016946Y011560D01*
X016836Y011560D01*
X016836Y011170D01*
X016946Y011170D01*
X016756Y011170D02*
X016756Y011560D01*
X016646Y011560D01*
X016646Y011170D01*
X016756Y011170D01*
X016556Y011170D02*
X016556Y011560D01*
X016446Y011560D01*
X016446Y011170D01*
X016556Y011170D01*
X016356Y011170D02*
X016356Y011560D01*
X016246Y011560D01*
X016246Y011170D01*
X016356Y011170D01*
X016166Y011170D02*
X016166Y011560D01*
X016056Y011560D01*
X016056Y011170D01*
X016166Y011170D01*
X015966Y011170D02*
X015966Y011560D01*
X015856Y011560D01*
X015856Y011170D01*
X015966Y011170D01*
X015766Y011170D02*
X015766Y011560D01*
X015656Y011560D01*
X015656Y011170D01*
X015766Y011170D01*
X015576Y011170D02*
X015576Y011560D01*
X015466Y011560D01*
X015466Y011170D01*
X015576Y011170D01*
X015376Y011170D02*
X015376Y011560D01*
X015266Y011560D01*
X015266Y011170D01*
X015376Y011170D01*
X014786Y010690D02*
X014396Y010690D01*
X014396Y010580D01*
X014786Y010580D01*
X014786Y010690D01*
X014786Y010490D02*
X014396Y010490D01*
X014396Y010380D01*
X014786Y010380D01*
X014786Y010490D01*
X014786Y010300D02*
X014396Y010300D01*
X014396Y010190D01*
X014786Y010190D01*
X014786Y010300D01*
X014786Y010100D02*
X014396Y010100D01*
X014396Y009990D01*
X014786Y009990D01*
X014786Y010100D01*
X014786Y009900D02*
X014396Y009900D01*
X014396Y009790D01*
X014786Y009790D01*
X014786Y009900D01*
X014786Y009710D02*
X014396Y009710D01*
X014396Y009600D01*
X014786Y009600D01*
X014786Y009710D01*
X014786Y009510D02*
X014396Y009510D01*
X014396Y009400D01*
X014786Y009400D01*
X014786Y009510D01*
X014786Y009310D02*
X014396Y009310D01*
X014396Y009200D01*
X014786Y009200D01*
X014786Y009310D01*
X014786Y009120D02*
X014396Y009120D01*
X014396Y009010D01*
X014786Y009010D01*
X014786Y009120D01*
X014786Y008920D02*
X014396Y008920D01*
X014396Y008810D01*
X014786Y008810D01*
X014786Y008920D01*
X014786Y008720D02*
X014396Y008720D01*
X014396Y008610D01*
X014786Y008610D01*
X014786Y008720D01*
X014786Y008530D02*
X014396Y008530D01*
X014396Y008420D01*
X014786Y008420D01*
X014786Y008530D01*
X014786Y008330D02*
X014396Y008330D01*
X014396Y008220D01*
X014786Y008220D01*
X014786Y008330D01*
X014786Y008130D02*
X014396Y008130D01*
X014396Y008020D01*
X014786Y008020D01*
X014786Y008130D01*
X014786Y007940D02*
X014396Y007940D01*
X014396Y007830D01*
X014786Y007830D01*
X014786Y007940D01*
X014786Y007740D02*
X014396Y007740D01*
X014396Y007630D01*
X014786Y007630D01*
X014786Y007650D01*
X015286Y007150D01*
X015266Y007150D01*
X015266Y006760D01*
X015376Y006760D01*
X015376Y007150D01*
X015286Y007150D01*
X015466Y007150D02*
X015466Y006760D01*
X015576Y006760D01*
X015576Y007150D01*
X015466Y007150D01*
X015656Y007150D02*
X015656Y006760D01*
X015766Y006760D01*
X015766Y007150D01*
X015656Y007150D01*
X015856Y007150D02*
X015856Y006760D01*
X015966Y006760D01*
X015966Y007150D01*
X015856Y007150D01*
X016056Y007150D02*
X016056Y006760D01*
X016166Y006760D01*
X016166Y007150D01*
X016056Y007150D01*
X016246Y007150D02*
X016246Y006760D01*
X016356Y006760D01*
X016356Y007150D01*
X016246Y007150D01*
X016446Y007150D02*
X016446Y006760D01*
X016556Y006760D01*
X016556Y007150D01*
X016446Y007150D01*
X016646Y007150D02*
X016646Y006760D01*
X016756Y006760D01*
X016756Y007150D01*
X016646Y007150D01*
X016836Y007150D02*
X016836Y006760D01*
X016946Y006760D01*
X016946Y007150D01*
X016836Y007150D01*
X017036Y007150D02*
X017036Y006760D01*
X017146Y006760D01*
X017146Y007150D01*
X017036Y007150D01*
X017236Y007150D02*
X017236Y006760D01*
X017346Y006760D01*
X017346Y007150D01*
X017236Y007150D01*
X017426Y007150D02*
X017426Y006760D01*
X017536Y006760D01*
X017536Y007150D01*
X017426Y007150D01*
X017626Y007150D02*
X017626Y006760D01*
X017736Y006760D01*
X017736Y007150D01*
X017626Y007150D01*
X017826Y007150D02*
X017826Y006760D01*
X017936Y006760D01*
X017936Y007150D01*
X017826Y007150D01*
X018016Y007150D02*
X018016Y006760D01*
X018126Y006760D01*
X018126Y007150D01*
X018016Y007150D01*
X018216Y007150D02*
X018216Y006760D01*
X018326Y006760D01*
X018326Y007150D01*
X018216Y007150D01*
X014786Y007650D02*
X014786Y007740D01*
X006101Y007745D02*
X006101Y007895D01*
X006101Y007825D02*
X005601Y007325D01*
X005531Y007325D02*
X005681Y007325D01*
X005421Y007325D02*
X005271Y007325D01*
X005161Y007325D02*
X005021Y007325D01*
X004911Y007325D02*
X004761Y007325D01*
X004651Y007325D02*
X004501Y007325D01*
X004081Y007325D02*
X006101Y007325D01*
X006101Y009345D01*
X004081Y009345D01*
X004081Y007325D01*
X004081Y007745D02*
X004081Y007895D01*
X004081Y008005D02*
X004081Y008155D01*
X004081Y008265D02*
X004081Y008405D01*
X004081Y008515D02*
X004081Y008665D01*
X004081Y008775D02*
X004081Y008925D01*
X004501Y009345D02*
X004651Y009345D01*
X004761Y009345D02*
X004911Y009345D01*
X005021Y009345D02*
X005161Y009345D01*
X005271Y009345D02*
X005421Y009345D01*
X005531Y009345D02*
X005681Y009345D01*
X006101Y008925D02*
X006101Y008775D01*
X006101Y008665D02*
X006101Y008515D01*
X006101Y008405D02*
X006101Y008265D01*
X006101Y008155D02*
X006101Y008005D01*
X006101Y005804D02*
X004081Y005804D01*
X004081Y003784D01*
X006101Y003784D01*
X006101Y005804D01*
X005681Y005804D02*
X005531Y005804D01*
X005421Y005804D02*
X005271Y005804D01*
X005161Y005804D02*
X005021Y005804D01*
X004911Y005804D02*
X004761Y005804D01*
X004651Y005804D02*
X004501Y005804D01*
X004081Y005384D02*
X004081Y005234D01*
X004081Y005124D02*
X004081Y004974D01*
X004081Y004864D02*
X004081Y004724D01*
X004081Y004614D02*
X004081Y004464D01*
X004081Y004354D02*
X004081Y004204D01*
X004501Y003784D02*
X004651Y003784D01*
X004761Y003784D02*
X004911Y003784D01*
X005021Y003784D02*
X005161Y003784D01*
X005271Y003784D02*
X005421Y003784D01*
X005531Y003784D02*
X005681Y003784D01*
X005601Y003784D02*
X006101Y004284D01*
X006101Y004354D02*
X006101Y004204D01*
X006101Y004464D02*
X006101Y004614D01*
X006101Y004724D02*
X006101Y004864D01*
X006101Y004974D02*
X006101Y005124D01*
X006101Y005234D02*
X006101Y005384D01*
X006101Y010784D02*
X004081Y010784D01*
X004081Y012804D01*
X006101Y012804D01*
X006101Y010784D01*
X005681Y010784D02*
X005531Y010784D01*
X005601Y010784D02*
X006101Y011284D01*
X006101Y011354D02*
X006101Y011204D01*
X006101Y011464D02*
X006101Y011614D01*
X006101Y011724D02*
X006101Y011864D01*
X006101Y011974D02*
X006101Y012124D01*
X006101Y012234D02*
X006101Y012384D01*
X005681Y012804D02*
X005531Y012804D01*
X005421Y012804D02*
X005271Y012804D01*
X005161Y012804D02*
X005021Y012804D01*
X004911Y012804D02*
X004761Y012804D01*
X004651Y012804D02*
X004501Y012804D01*
X004081Y012384D02*
X004081Y012234D01*
X004081Y012124D02*
X004081Y011974D01*
X004081Y011864D02*
X004081Y011724D01*
X004081Y011614D02*
X004081Y011464D01*
X004081Y011354D02*
X004081Y011204D01*
X004501Y010784D02*
X004651Y010784D01*
X004761Y010784D02*
X004911Y010784D01*
X005021Y010784D02*
X005161Y010784D01*
X005271Y010784D02*
X005421Y010784D01*
D12*
X006642Y011739D02*
X006642Y011975D01*
X007114Y011975D02*
X007114Y011739D01*
X007315Y011739D02*
X007315Y011975D01*
X007788Y011975D02*
X007788Y011739D01*
X008016Y011739D02*
X008016Y011975D01*
X008488Y011975D02*
X008488Y011739D01*
X008717Y011739D02*
X008717Y011975D01*
X009189Y011975D02*
X009189Y011739D01*
X009398Y011739D02*
X009398Y011975D01*
X009870Y011975D02*
X009870Y011739D01*
X011450Y011676D02*
X011686Y011676D01*
X011686Y011204D02*
X011450Y011204D01*
X011450Y011036D02*
X011686Y011036D01*
X012312Y010966D02*
X012312Y010739D01*
X012369Y010682D01*
X012482Y010682D01*
X012539Y010739D01*
X012680Y010739D02*
X012680Y010682D01*
X012680Y010739D02*
X012907Y010966D01*
X012907Y011022D01*
X012680Y011022D01*
X012539Y010966D02*
X012482Y011022D01*
X012369Y011022D01*
X012312Y010966D01*
X012363Y011271D02*
X012476Y011271D01*
X012533Y011328D01*
X012363Y011271D02*
X012306Y011328D01*
X012306Y011555D01*
X012363Y011612D01*
X012476Y011612D01*
X012533Y011555D01*
X012674Y011442D02*
X012844Y011612D01*
X012844Y011271D01*
X012901Y011442D02*
X012674Y011442D01*
X013043Y011498D02*
X013043Y011555D01*
X013099Y011612D01*
X013213Y011612D01*
X013269Y011555D01*
X013269Y011498D01*
X013213Y011442D01*
X013099Y011442D01*
X013043Y011498D01*
X013099Y011442D02*
X013043Y011385D01*
X013043Y011328D01*
X013099Y011271D01*
X013213Y011271D01*
X013269Y011328D01*
X013269Y011385D01*
X013213Y011442D01*
X013162Y011022D02*
X013162Y010682D01*
X013049Y010682D02*
X013275Y010682D01*
X013049Y010909D02*
X013162Y011022D01*
X011686Y010564D02*
X011450Y010564D01*
X012727Y009799D02*
X012964Y009799D01*
X012964Y009327D02*
X012727Y009327D01*
X012727Y009196D02*
X012964Y009196D01*
X012964Y008724D02*
X012727Y008724D01*
X012620Y008341D02*
X012506Y008341D01*
X012450Y008284D01*
X012450Y008057D01*
X012506Y008000D01*
X012620Y008000D01*
X012676Y008057D01*
X012818Y008057D02*
X012875Y008000D01*
X012988Y008000D01*
X013045Y008057D01*
X013045Y008114D01*
X012988Y008171D01*
X012818Y008171D01*
X012818Y008057D01*
X012818Y008171D02*
X012931Y008284D01*
X013045Y008341D01*
X013186Y008227D02*
X013300Y008341D01*
X013300Y008000D01*
X013413Y008000D02*
X013186Y008000D01*
X012964Y007846D02*
X012727Y007846D01*
X012676Y008284D02*
X012620Y008341D01*
X013690Y008303D02*
X013690Y008190D01*
X013747Y008133D01*
X013974Y008133D01*
X014030Y008190D01*
X014030Y008303D01*
X013974Y008360D01*
X013974Y008501D02*
X013860Y008501D01*
X013860Y008671D01*
X013917Y008728D01*
X013974Y008728D01*
X014030Y008671D01*
X014030Y008558D01*
X013974Y008501D01*
X013860Y008501D02*
X013747Y008615D01*
X013690Y008728D01*
X013747Y008870D02*
X013690Y008926D01*
X013690Y009040D01*
X013747Y009096D01*
X013803Y009096D01*
X014030Y008870D01*
X014030Y009096D01*
X014036Y009149D02*
X013979Y009205D01*
X014036Y009149D02*
X014036Y009035D01*
X013979Y008978D01*
X013753Y008978D01*
X013696Y009035D01*
X013696Y009149D01*
X013753Y009205D01*
X013866Y009347D02*
X013866Y009517D01*
X013923Y009574D01*
X013979Y009574D01*
X014036Y009517D01*
X014036Y009403D01*
X013979Y009347D01*
X013866Y009347D01*
X013753Y009460D01*
X013696Y009574D01*
X013753Y009715D02*
X013696Y009772D01*
X013696Y009885D01*
X013753Y009942D01*
X013809Y009942D01*
X013866Y009885D01*
X013923Y009942D01*
X013979Y009942D01*
X014036Y009885D01*
X014036Y009772D01*
X013979Y009715D01*
X013866Y009828D02*
X013866Y009885D01*
X013747Y008360D02*
X013690Y008303D01*
X012964Y007374D02*
X012727Y007374D01*
X012727Y006996D02*
X012964Y006996D01*
X012964Y006524D02*
X012727Y006524D01*
X012770Y006334D02*
X012600Y006164D01*
X012827Y006164D01*
X012770Y005994D02*
X012770Y006334D01*
X012969Y006334D02*
X013195Y006334D01*
X013195Y006278D01*
X012969Y006051D01*
X012969Y005994D01*
X012459Y006051D02*
X012402Y005994D01*
X012289Y005994D01*
X012232Y006051D01*
X012232Y006278D01*
X012289Y006334D01*
X012402Y006334D01*
X012459Y006278D01*
X013459Y005128D02*
X013459Y004892D01*
X013932Y004892D02*
X013932Y005128D01*
X014109Y005128D02*
X014109Y004892D01*
X014582Y004892D02*
X014582Y005128D01*
X015009Y005128D02*
X015009Y004892D01*
X015482Y004892D02*
X015482Y005128D01*
X015649Y005128D02*
X015649Y004892D01*
X016122Y004892D02*
X016122Y005128D01*
X016249Y005113D02*
X016419Y004943D01*
X016419Y005170D01*
X016419Y005311D02*
X016419Y005481D01*
X016476Y005538D01*
X016533Y005538D01*
X016590Y005481D01*
X016590Y005368D01*
X016533Y005311D01*
X016419Y005311D01*
X016306Y005425D01*
X016249Y005538D01*
X016249Y005113D02*
X016590Y005113D01*
X016533Y004802D02*
X016590Y004745D01*
X016590Y004631D01*
X016533Y004575D01*
X016306Y004575D01*
X016249Y004631D01*
X016249Y004745D01*
X016306Y004802D01*
X016104Y004453D02*
X016161Y004397D01*
X016161Y004283D01*
X016104Y004227D01*
X016047Y004227D01*
X015990Y004283D01*
X015990Y004397D01*
X016047Y004453D01*
X016104Y004453D01*
X015990Y004397D02*
X015934Y004453D01*
X015877Y004453D01*
X015820Y004397D01*
X015820Y004283D01*
X015877Y004227D01*
X015934Y004227D01*
X015990Y004283D01*
X015990Y004085D02*
X016104Y004085D01*
X016161Y004028D01*
X016161Y003915D01*
X016104Y003858D01*
X015990Y003858D02*
X015934Y003972D01*
X015934Y004028D01*
X015990Y004085D01*
X015820Y004085D02*
X015820Y003858D01*
X015990Y003858D01*
X015877Y003717D02*
X015820Y003660D01*
X015820Y003547D01*
X015877Y003490D01*
X016104Y003490D01*
X016161Y003547D01*
X016161Y003660D01*
X016104Y003717D01*
X016279Y003642D02*
X016279Y003878D01*
X016752Y003878D02*
X016752Y003642D01*
X015563Y003563D02*
X015563Y003449D01*
X015506Y003393D01*
X015279Y003393D01*
X015222Y003449D01*
X015222Y003563D01*
X015279Y003619D01*
X015222Y003761D02*
X015392Y003761D01*
X015336Y003874D01*
X015336Y003931D01*
X015392Y003988D01*
X015506Y003988D01*
X015563Y003931D01*
X015563Y003818D01*
X015506Y003761D01*
X015506Y003619D02*
X015563Y003563D01*
X015222Y003761D02*
X015222Y003988D01*
X015279Y004129D02*
X015336Y004129D01*
X015392Y004186D01*
X015392Y004356D01*
X015279Y004356D02*
X015222Y004299D01*
X015222Y004186D01*
X015279Y004129D01*
X015506Y004129D02*
X015563Y004186D01*
X015563Y004299D01*
X015506Y004356D01*
X015279Y004356D01*
X014232Y004284D02*
X013892Y004284D01*
X014062Y004114D01*
X014062Y004341D01*
X013626Y004273D02*
X013626Y004159D01*
X013569Y004102D01*
X013456Y004102D02*
X013399Y004216D01*
X013399Y004273D01*
X013456Y004329D01*
X013569Y004329D01*
X013626Y004273D01*
X013456Y004102D02*
X013286Y004102D01*
X013286Y004329D01*
X013286Y003961D02*
X013286Y003734D01*
X013456Y003734D01*
X013399Y003848D01*
X013399Y003904D01*
X013456Y003961D01*
X013569Y003961D01*
X013626Y003904D01*
X013626Y003791D01*
X013569Y003734D01*
X013569Y003593D02*
X013626Y003536D01*
X013626Y003422D01*
X013569Y003366D01*
X013342Y003366D01*
X013286Y003422D01*
X013286Y003536D01*
X013342Y003593D01*
X013892Y003548D02*
X013892Y003434D01*
X013948Y003378D01*
X014175Y003378D01*
X014232Y003434D01*
X014232Y003548D01*
X014175Y003604D01*
X014175Y003746D02*
X014232Y003803D01*
X014232Y003916D01*
X014175Y003973D01*
X014062Y003973D01*
X014005Y003916D01*
X014005Y003859D01*
X014062Y003746D01*
X013892Y003746D01*
X013892Y003973D01*
X013948Y003604D02*
X013892Y003548D01*
X010296Y004479D02*
X010296Y004715D01*
X009823Y004715D02*
X009823Y004479D01*
X009622Y004479D02*
X009622Y004715D01*
X009150Y004715D02*
X009150Y004479D01*
X008992Y004479D02*
X008992Y004715D01*
X008520Y004715D02*
X008520Y004479D01*
X008351Y004479D02*
X008351Y004715D01*
X007878Y004715D02*
X007878Y004479D01*
X007693Y004479D02*
X007693Y004715D01*
X007221Y004715D02*
X007221Y004479D01*
X007870Y005735D02*
X007870Y005971D01*
X008343Y005971D02*
X008343Y005735D01*
X008532Y005735D02*
X008532Y005971D01*
X009004Y005971D02*
X009004Y005735D01*
X007122Y006436D02*
X007122Y006672D01*
X006650Y006672D02*
X006650Y006436D01*
X007341Y007137D02*
X007568Y007137D01*
X007625Y007194D01*
X007625Y007307D01*
X007568Y007364D01*
X007625Y007505D02*
X007625Y007732D01*
X007625Y007619D02*
X007284Y007619D01*
X007398Y007505D01*
X007341Y007364D02*
X007284Y007307D01*
X007284Y007194D01*
X007341Y007137D01*
X008068Y007194D02*
X008125Y007137D01*
X008351Y007137D01*
X008408Y007194D01*
X008408Y007307D01*
X008351Y007364D01*
X008408Y007505D02*
X008181Y007732D01*
X008125Y007732D01*
X008068Y007675D01*
X008068Y007562D01*
X008125Y007505D01*
X008125Y007364D02*
X008068Y007307D01*
X008068Y007194D01*
X008408Y007505D02*
X008408Y007732D01*
X008748Y007675D02*
X008748Y007562D01*
X008805Y007505D01*
X008805Y007364D02*
X008748Y007307D01*
X008748Y007194D01*
X008805Y007137D01*
X009032Y007137D01*
X009089Y007194D01*
X009089Y007307D01*
X009032Y007364D01*
X009032Y007505D02*
X009089Y007562D01*
X009089Y007675D01*
X009032Y007732D01*
X008975Y007732D01*
X008919Y007675D01*
X008919Y007619D01*
X008919Y007675D02*
X008862Y007732D01*
X008805Y007732D01*
X008748Y007675D01*
X009492Y007675D02*
X009663Y007505D01*
X009663Y007732D01*
X009833Y007675D02*
X009492Y007675D01*
X009549Y007364D02*
X009492Y007307D01*
X009492Y007194D01*
X009549Y007137D01*
X009776Y007137D01*
X009833Y007194D01*
X009833Y007307D01*
X009776Y007364D01*
X010211Y007307D02*
X010211Y007194D01*
X010267Y007137D01*
X010494Y007137D01*
X010551Y007194D01*
X010551Y007307D01*
X010494Y007364D01*
X010494Y007505D02*
X010551Y007562D01*
X010551Y007675D01*
X010494Y007732D01*
X010381Y007732D01*
X010324Y007675D01*
X010324Y007619D01*
X010381Y007505D01*
X010211Y007505D01*
X010211Y007732D01*
X010267Y007364D02*
X010211Y007307D01*
X010185Y008277D02*
X010185Y008513D01*
X009928Y008513D02*
X009928Y008277D01*
X009455Y008277D02*
X009455Y008513D01*
X009188Y008513D02*
X009188Y008277D01*
X008715Y008277D02*
X008715Y008513D01*
X008468Y008513D02*
X008468Y008277D01*
X007995Y008277D02*
X007995Y008513D01*
X007708Y008513D02*
X007708Y008277D01*
X007235Y008277D02*
X007235Y008513D01*
X010658Y008513D02*
X010658Y008277D01*
X016029Y012738D02*
X016086Y012681D01*
X016313Y012681D01*
X016369Y012738D01*
X016369Y012851D01*
X016313Y012908D01*
X016313Y013050D02*
X016369Y013106D01*
X016369Y013220D01*
X016313Y013277D01*
X016256Y013277D01*
X016199Y013220D01*
X016199Y013050D01*
X016313Y013050D01*
X016199Y013050D02*
X016086Y013163D01*
X016029Y013277D01*
X015882Y013278D02*
X015882Y013042D01*
X016029Y012851D02*
X016029Y012738D01*
X016029Y012851D02*
X016086Y012908D01*
X015409Y013042D02*
X015409Y013278D01*
X016029Y013588D02*
X016199Y013418D01*
X016199Y013645D01*
X016369Y013588D02*
X016029Y013588D01*
X015844Y014134D02*
X015607Y014134D01*
X015607Y014606D02*
X015844Y014606D01*
X015805Y014725D02*
X015692Y014725D01*
X015635Y014782D01*
X015635Y014895D02*
X015748Y014952D01*
X015805Y014952D01*
X015862Y014895D01*
X015862Y014782D01*
X015805Y014725D01*
X016003Y014782D02*
X016060Y014725D01*
X016173Y014725D01*
X016230Y014782D01*
X016230Y014838D01*
X016173Y014895D01*
X016117Y014895D01*
X016173Y014895D02*
X016230Y014952D01*
X016230Y015009D01*
X016173Y015065D01*
X016060Y015065D01*
X016003Y015009D01*
X015862Y015065D02*
X015635Y015065D01*
X015635Y014895D01*
X015493Y014782D02*
X015437Y014725D01*
X015323Y014725D01*
X015267Y014782D01*
X015267Y015009D01*
X015323Y015065D01*
X015437Y015065D01*
X015493Y015009D01*
X014604Y014535D02*
X014547Y014535D01*
X014320Y014762D01*
X014263Y014762D01*
X014263Y014535D01*
X014263Y014394D02*
X014263Y014167D01*
X014433Y014167D01*
X014377Y014280D01*
X014377Y014337D01*
X014433Y014394D01*
X014547Y014394D01*
X014604Y014337D01*
X014604Y014223D01*
X014547Y014167D01*
X014547Y014025D02*
X014604Y013969D01*
X014604Y013855D01*
X014547Y013798D01*
X014320Y013798D01*
X014263Y013855D01*
X014263Y013969D01*
X014320Y014025D01*
X013985Y013961D02*
X013985Y013847D01*
X013928Y013791D01*
X013701Y013791D01*
X013645Y013847D01*
X013645Y013961D01*
X013701Y014017D01*
X013645Y014159D02*
X013815Y014159D01*
X013758Y014272D01*
X013758Y014329D01*
X013815Y014386D01*
X013928Y014386D01*
X013985Y014329D01*
X013985Y014216D01*
X013928Y014159D01*
X013928Y014017D02*
X013985Y013961D01*
X013645Y014159D02*
X013645Y014386D01*
X013815Y014527D02*
X013815Y014697D01*
X013872Y014754D01*
X013928Y014754D01*
X013985Y014697D01*
X013985Y014584D01*
X013928Y014527D01*
X013815Y014527D01*
X013701Y014641D01*
X013645Y014754D01*
X013459Y013278D02*
X013459Y013042D01*
X013932Y013042D02*
X013932Y013278D01*
X014109Y013278D02*
X014109Y013042D01*
X014582Y013042D02*
X014582Y013278D01*
X020877Y015092D02*
X020933Y015035D01*
X021047Y015035D01*
X021103Y015092D01*
X021245Y015035D02*
X021472Y015035D01*
X021358Y015035D02*
X021358Y015375D01*
X021245Y015262D01*
X021103Y015319D02*
X021047Y015375D01*
X020933Y015375D01*
X020877Y015319D01*
X020877Y015092D01*
X021217Y014916D02*
X021454Y014916D01*
X021613Y015092D02*
X021670Y015035D01*
X021783Y015035D01*
X021840Y015092D01*
X021840Y015205D01*
X021783Y015262D01*
X021727Y015262D01*
X021613Y015205D01*
X021613Y015375D01*
X021840Y015375D01*
X021454Y014444D02*
X021217Y014444D01*
X024459Y013438D02*
X024459Y013202D01*
X024932Y013202D02*
X024932Y013438D01*
X024853Y013895D02*
X024627Y013895D01*
X024570Y013952D01*
X024570Y014066D01*
X024627Y014122D01*
X024683Y014264D02*
X024570Y014377D01*
X024910Y014377D01*
X024910Y014264D02*
X024910Y014491D01*
X024740Y014632D02*
X024740Y014859D01*
X024570Y014802D02*
X024740Y014632D01*
X024910Y014802D02*
X024570Y014802D01*
X024853Y014122D02*
X024910Y014066D01*
X024910Y013952D01*
X024853Y013895D01*
X025633Y013966D02*
X025689Y013909D01*
X025916Y013909D01*
X025973Y013966D01*
X025973Y014079D01*
X025916Y014136D01*
X025973Y014277D02*
X025973Y014504D01*
X025973Y014391D02*
X025633Y014391D01*
X025746Y014277D01*
X025689Y014136D02*
X025633Y014079D01*
X025633Y013966D01*
X025569Y013428D02*
X025569Y013192D01*
X026042Y013192D02*
X026042Y013428D01*
X025916Y014646D02*
X025803Y014646D01*
X025803Y014816D01*
X025860Y014873D01*
X025916Y014873D01*
X025973Y014816D01*
X025973Y014702D01*
X025916Y014646D01*
X025803Y014646D02*
X025689Y014759D01*
X025633Y014873D01*
X028890Y012220D02*
X028947Y012277D01*
X029004Y012277D01*
X029060Y012220D01*
X029117Y012277D01*
X029174Y012277D01*
X029231Y012220D01*
X029231Y012106D01*
X029174Y012050D01*
X029231Y011908D02*
X029231Y011681D01*
X029231Y011795D02*
X028890Y011795D01*
X029004Y011681D01*
X028947Y011540D02*
X028890Y011483D01*
X028890Y011370D01*
X028947Y011313D01*
X029174Y011313D01*
X029231Y011370D01*
X029231Y011483D01*
X029174Y011540D01*
X028772Y011722D02*
X028772Y011958D01*
X028890Y012106D02*
X028890Y012220D01*
X028890Y012106D02*
X028947Y012050D01*
X029060Y012163D02*
X029060Y012220D01*
X028299Y011958D02*
X028299Y011722D01*
X028414Y009943D02*
X028301Y009829D01*
X028159Y009886D02*
X028103Y009943D01*
X027989Y009943D01*
X027933Y009886D01*
X027933Y009659D01*
X027989Y009602D01*
X028103Y009602D01*
X028159Y009659D01*
X028301Y009602D02*
X028528Y009602D01*
X028414Y009602D02*
X028414Y009943D01*
X028669Y009886D02*
X028726Y009943D01*
X028839Y009943D01*
X028896Y009886D01*
X028896Y009829D01*
X028669Y009602D01*
X028896Y009602D01*
X028574Y009486D02*
X028337Y009486D01*
X028337Y009014D02*
X028574Y009014D01*
X028554Y008386D02*
X028317Y008386D01*
X028317Y007914D02*
X028554Y007914D01*
X028567Y007795D02*
X028454Y007795D01*
X028397Y007739D01*
X028397Y007682D01*
X028454Y007625D01*
X028624Y007625D01*
X028624Y007512D02*
X028624Y007739D01*
X028567Y007795D01*
X028624Y007512D02*
X028567Y007455D01*
X028454Y007455D01*
X028397Y007512D01*
X028256Y007512D02*
X028199Y007455D01*
X028086Y007455D01*
X028029Y007512D01*
X028029Y007739D01*
X028086Y007795D01*
X028199Y007795D01*
X028256Y007739D01*
X025963Y006299D02*
X025963Y006072D01*
X025963Y006186D02*
X025623Y006186D01*
X025736Y006072D01*
X025963Y005931D02*
X025963Y005704D01*
X025963Y005818D02*
X025623Y005818D01*
X025736Y005704D01*
X025679Y005563D02*
X025623Y005506D01*
X025623Y005393D01*
X025679Y005336D01*
X025906Y005336D01*
X025963Y005393D01*
X025963Y005506D01*
X025906Y005563D01*
X025452Y005602D02*
X025452Y005838D01*
X024979Y005838D02*
X024979Y005602D01*
X023551Y005602D02*
X023551Y005829D01*
X023551Y005716D02*
X023211Y005716D01*
X023324Y005602D01*
X023267Y005461D02*
X023211Y005404D01*
X023211Y005290D01*
X023267Y005234D01*
X023494Y005234D01*
X023551Y005290D01*
X023551Y005404D01*
X023494Y005461D01*
X023052Y005622D02*
X023052Y005858D01*
X023211Y006027D02*
X023211Y006141D01*
X023267Y006197D01*
X023494Y005970D01*
X023551Y006027D01*
X023551Y006141D01*
X023494Y006197D01*
X023267Y006197D01*
X023211Y006027D02*
X023267Y005970D01*
X023494Y005970D01*
X022579Y005858D02*
X022579Y005622D01*
X022614Y005280D02*
X022501Y005280D01*
X022444Y005224D01*
X022302Y005280D02*
X022302Y004997D01*
X022246Y004940D01*
X022132Y004940D01*
X022076Y004997D01*
X022076Y005280D01*
X022444Y004940D02*
X022671Y005167D01*
X022671Y005224D01*
X022614Y005280D01*
X022671Y004940D02*
X022444Y004940D01*
X023440Y004440D02*
X023780Y004440D01*
X023780Y004327D02*
X023780Y004553D01*
X023879Y004358D02*
X023879Y004122D01*
X023780Y004185D02*
X023667Y004072D01*
X023667Y004128D02*
X023667Y003958D01*
X023780Y003958D02*
X023440Y003958D01*
X023440Y004128D01*
X023497Y004185D01*
X023610Y004185D01*
X023667Y004128D01*
X023553Y004327D02*
X023440Y004440D01*
X022782Y003904D02*
X023009Y003677D01*
X023065Y003677D01*
X023009Y003535D02*
X023065Y003479D01*
X023065Y003365D01*
X023009Y003308D01*
X022782Y003308D01*
X022725Y003365D01*
X022725Y003479D01*
X022782Y003535D01*
X022725Y003677D02*
X022725Y003904D01*
X022782Y003904D01*
X022532Y003778D02*
X022532Y003542D01*
X022059Y003542D02*
X022059Y003778D01*
X023300Y002928D02*
X023357Y002984D01*
X023470Y002984D01*
X023527Y002928D01*
X023668Y002871D02*
X023782Y002984D01*
X023782Y002644D01*
X023895Y002644D02*
X023668Y002644D01*
X023527Y002701D02*
X023470Y002644D01*
X023357Y002644D01*
X023300Y002701D01*
X023300Y002928D01*
X023677Y003174D02*
X023914Y003174D01*
X024037Y002984D02*
X024264Y002984D01*
X024264Y002928D01*
X024037Y002701D01*
X024037Y002644D01*
X024927Y003174D02*
X025164Y003174D01*
X025713Y003253D02*
X025713Y003593D01*
X025883Y003593D01*
X025939Y003537D01*
X025939Y003423D01*
X025883Y003367D01*
X025713Y003367D01*
X025826Y003367D02*
X025939Y003253D01*
X026081Y003253D02*
X026308Y003480D01*
X026308Y003537D01*
X026251Y003593D01*
X026138Y003593D01*
X026081Y003537D01*
X026081Y003253D02*
X026308Y003253D01*
X025164Y003646D02*
X024927Y003646D01*
X024352Y004122D02*
X024352Y004358D01*
X023914Y003646D02*
X023677Y003646D01*
X022812Y001743D02*
X022869Y001686D01*
X022869Y001629D01*
X022812Y001573D01*
X022869Y001516D01*
X022869Y001459D01*
X022812Y001403D01*
X022699Y001403D01*
X022642Y001459D01*
X022500Y001459D02*
X022444Y001403D01*
X022330Y001403D01*
X022274Y001459D01*
X022132Y001459D02*
X022075Y001403D01*
X021962Y001403D01*
X021905Y001459D01*
X021905Y001686D01*
X021962Y001743D01*
X022075Y001743D01*
X022132Y001686D01*
X022274Y001686D02*
X022330Y001743D01*
X022444Y001743D01*
X022500Y001686D01*
X022500Y001629D01*
X022444Y001573D01*
X022500Y001516D01*
X022500Y001459D01*
X022444Y001573D02*
X022387Y001573D01*
X022642Y001686D02*
X022699Y001743D01*
X022812Y001743D01*
X022812Y001573D02*
X022755Y001573D01*
X019080Y004219D02*
X019023Y004162D01*
X018796Y004162D01*
X018740Y004219D01*
X018740Y004332D01*
X018796Y004389D01*
X018910Y004531D02*
X018910Y004701D01*
X018966Y004757D01*
X019023Y004757D01*
X019080Y004701D01*
X019080Y004587D01*
X019023Y004531D01*
X018910Y004531D01*
X018796Y004644D01*
X018740Y004757D01*
X018796Y004899D02*
X018740Y004956D01*
X018740Y005069D01*
X018796Y005126D01*
X019023Y004899D01*
X019080Y004956D01*
X019080Y005069D01*
X019023Y005126D01*
X018796Y005126D01*
X018796Y004899D02*
X019023Y004899D01*
X018582Y004878D02*
X018582Y004642D01*
X018109Y004642D02*
X018109Y004878D01*
X019023Y004389D02*
X019080Y004332D01*
X019080Y004219D01*
X027559Y004292D02*
X027559Y004528D01*
X028032Y004528D02*
X028032Y004292D01*
X028150Y004174D02*
X028150Y004003D01*
X028491Y004003D01*
X028377Y004003D02*
X028377Y004174D01*
X028320Y004230D01*
X028207Y004230D01*
X028150Y004174D01*
X028207Y004372D02*
X028150Y004428D01*
X028150Y004542D01*
X028207Y004599D01*
X028264Y004599D01*
X028320Y004542D01*
X028377Y004599D01*
X028434Y004599D01*
X028491Y004542D01*
X028491Y004428D01*
X028434Y004372D01*
X028491Y004230D02*
X028377Y004117D01*
X028320Y004485D02*
X028320Y004542D01*
X003578Y008447D02*
X003578Y008683D01*
X003105Y008683D02*
X003105Y008447D01*
X002951Y008463D02*
X002724Y008690D01*
X002668Y008690D01*
X002611Y008633D01*
X002611Y008519D01*
X002668Y008463D01*
X002668Y008321D02*
X002611Y008265D01*
X002611Y008151D01*
X002668Y008094D01*
X002895Y008094D01*
X002951Y008151D01*
X002951Y008265D01*
X002895Y008321D01*
X002951Y008463D02*
X002951Y008690D01*
X002895Y008831D02*
X002838Y008831D01*
X002781Y008888D01*
X002781Y009001D01*
X002838Y009058D01*
X002895Y009058D01*
X002951Y009001D01*
X002951Y008888D01*
X002895Y008831D01*
X002781Y008888D02*
X002724Y008831D01*
X002668Y008831D01*
X002611Y008888D01*
X002611Y009001D01*
X002668Y009058D01*
X002724Y009058D01*
X002781Y009001D01*
X002790Y008148D02*
X002676Y008091D01*
X002563Y007978D01*
X002733Y007978D01*
X002790Y007921D01*
X002790Y007865D01*
X002733Y007808D01*
X002620Y007808D01*
X002563Y007865D01*
X002563Y007978D01*
X002422Y008091D02*
X002365Y008148D01*
X002251Y008148D01*
X002195Y008091D01*
X002195Y007865D01*
X002251Y007808D01*
X002365Y007808D01*
X002422Y007865D01*
X002254Y007168D02*
X002254Y006932D01*
X002726Y006932D02*
X002726Y007168D01*
X002000Y006180D02*
X001764Y006180D01*
X001764Y005707D02*
X002000Y005707D01*
X002244Y012955D02*
X002244Y013191D01*
X002717Y013191D02*
X002717Y012955D01*
D13*
X002116Y013024D02*
X002116Y012883D01*
X002045Y012813D01*
X001765Y012813D01*
X001695Y012883D01*
X001695Y013024D01*
X001765Y013094D01*
X001835Y013274D02*
X001695Y013414D01*
X002116Y013414D01*
X002116Y013274D02*
X002116Y013554D01*
X002045Y013734D02*
X001975Y013734D01*
X001905Y013804D01*
X001905Y013944D01*
X001975Y014014D01*
X002045Y014014D01*
X002116Y013944D01*
X002116Y013804D01*
X002045Y013734D01*
X001905Y013804D02*
X001835Y013734D01*
X001765Y013734D01*
X001695Y013804D01*
X001695Y013944D01*
X001765Y014014D01*
X001835Y014014D01*
X001905Y013944D01*
X002045Y013094D02*
X002116Y013024D01*
X006880Y010759D02*
X006950Y010829D01*
X007020Y010829D01*
X007090Y010759D01*
X007160Y010829D01*
X007231Y010829D01*
X007301Y010759D01*
X007301Y010619D01*
X007231Y010549D01*
X007301Y010369D02*
X007301Y010089D01*
X007020Y010369D01*
X006950Y010369D01*
X006880Y010299D01*
X006880Y010159D01*
X006950Y010089D01*
X006950Y009909D02*
X006880Y009839D01*
X006880Y009698D01*
X006950Y009628D01*
X007231Y009628D01*
X007301Y009698D01*
X007301Y009839D01*
X007231Y009909D01*
X007553Y009839D02*
X007553Y009698D01*
X007624Y009628D01*
X007904Y009628D01*
X007974Y009698D01*
X007974Y009839D01*
X007904Y009909D01*
X007974Y010089D02*
X007694Y010369D01*
X007624Y010369D01*
X007553Y010299D01*
X007553Y010159D01*
X007624Y010089D01*
X007624Y009909D02*
X007553Y009839D01*
X007974Y010089D02*
X007974Y010369D01*
X007904Y010549D02*
X007624Y010549D01*
X007553Y010619D01*
X007553Y010759D01*
X007624Y010829D01*
X007904Y010549D01*
X007974Y010619D01*
X007974Y010759D01*
X007904Y010829D01*
X007624Y010829D01*
X007090Y010759D02*
X007090Y010689D01*
X006950Y010549D02*
X006880Y010619D01*
X006880Y010759D01*
X008254Y010759D02*
X008464Y010549D01*
X008464Y010829D01*
X008254Y010759D02*
X008675Y010759D01*
X008955Y010689D02*
X009375Y010689D01*
X009375Y010549D02*
X009375Y010829D01*
X009636Y010759D02*
X009636Y010619D01*
X009706Y010549D01*
X009706Y010369D02*
X009636Y010299D01*
X009636Y010159D01*
X009706Y010089D01*
X009706Y009909D02*
X009636Y009839D01*
X009636Y009698D01*
X009706Y009628D01*
X009986Y009628D01*
X010056Y009698D01*
X010056Y009839D01*
X009986Y009909D01*
X010056Y010089D02*
X009776Y010369D01*
X009706Y010369D01*
X009375Y010369D02*
X009375Y010089D01*
X009095Y010369D01*
X009025Y010369D01*
X008955Y010299D01*
X008955Y010159D01*
X009025Y010089D01*
X009025Y009909D02*
X008955Y009839D01*
X008955Y009698D01*
X009025Y009628D01*
X009305Y009628D01*
X009375Y009698D01*
X009375Y009839D01*
X009305Y009909D01*
X008675Y009839D02*
X008675Y009698D01*
X008605Y009628D01*
X008324Y009628D01*
X008254Y009698D01*
X008254Y009839D01*
X008324Y009909D01*
X008324Y010089D02*
X008254Y010159D01*
X008254Y010299D01*
X008324Y010369D01*
X008394Y010369D01*
X008675Y010089D01*
X008675Y010369D01*
X008955Y010689D02*
X009095Y010549D01*
X009636Y010759D02*
X009706Y010829D01*
X009776Y010829D01*
X010056Y010549D01*
X010056Y010829D01*
X010056Y010369D02*
X010056Y010089D01*
X008675Y009839D02*
X008605Y009909D01*
X008403Y006794D02*
X008403Y006514D01*
X008403Y006654D02*
X007983Y006654D01*
X008123Y006514D01*
X008123Y006334D02*
X008053Y006334D01*
X007983Y006263D01*
X007983Y006123D01*
X008053Y006053D01*
X008053Y005873D02*
X007983Y005803D01*
X007983Y005663D01*
X008053Y005593D01*
X008333Y005593D01*
X008403Y005663D01*
X008403Y005803D01*
X008333Y005873D01*
X008471Y005943D02*
X008541Y006013D01*
X008611Y006013D01*
X008681Y005943D01*
X008751Y006013D01*
X008821Y006013D01*
X008892Y005943D01*
X008892Y005803D01*
X008821Y005733D01*
X008892Y005552D02*
X008892Y005272D01*
X008611Y005552D01*
X008541Y005552D01*
X008471Y005482D01*
X008471Y005342D01*
X008541Y005272D01*
X008541Y005092D02*
X008681Y005092D01*
X008751Y005022D01*
X008751Y004812D01*
X008751Y004952D02*
X008892Y005092D01*
X008892Y004812D02*
X008471Y004812D01*
X008471Y005022D01*
X008541Y005092D01*
X007671Y005513D02*
X007251Y005513D01*
X007251Y005723D01*
X007321Y005793D01*
X007461Y005793D01*
X007531Y005723D01*
X007531Y005513D01*
X007531Y005653D02*
X007671Y005793D01*
X007671Y005973D02*
X007391Y006253D01*
X007321Y006253D01*
X007251Y006183D01*
X007251Y006043D01*
X007321Y005973D01*
X007671Y005973D02*
X007671Y006253D01*
X007461Y006433D02*
X007461Y006714D01*
X007671Y006643D02*
X007251Y006643D01*
X007461Y006433D01*
X008123Y006334D02*
X008193Y006263D01*
X008263Y006334D01*
X008333Y006334D01*
X008403Y006263D01*
X008403Y006123D01*
X008333Y006053D01*
X008471Y005943D02*
X008471Y005803D01*
X008541Y005733D01*
X008681Y005873D02*
X008681Y005943D01*
X008193Y006193D02*
X008193Y006263D01*
X008099Y003845D02*
X008029Y003845D01*
X007959Y003775D01*
X007959Y003635D01*
X008029Y003565D01*
X008029Y003385D02*
X008099Y003385D01*
X008169Y003315D01*
X008239Y003385D01*
X008309Y003385D01*
X008379Y003315D01*
X008379Y003175D01*
X008309Y003104D01*
X008309Y002924D02*
X008379Y002854D01*
X008379Y002714D01*
X008309Y002644D01*
X008029Y002644D01*
X007959Y002714D01*
X007959Y002854D01*
X008029Y002924D01*
X008029Y003104D02*
X007959Y003175D01*
X007959Y003315D01*
X008029Y003385D01*
X008169Y003315D02*
X008169Y003245D01*
X008640Y003315D02*
X008640Y003175D01*
X008710Y003104D01*
X008710Y002924D02*
X008640Y002854D01*
X008640Y002714D01*
X008710Y002644D01*
X008990Y002644D01*
X009060Y002714D01*
X009060Y002854D01*
X008990Y002924D01*
X009060Y003104D02*
X008780Y003385D01*
X008710Y003385D01*
X008640Y003315D01*
X008640Y003565D02*
X008640Y003845D01*
X008710Y003845D01*
X008990Y003565D01*
X009060Y003565D01*
X009060Y003385D02*
X009060Y003104D01*
X009270Y003175D02*
X009340Y003104D01*
X009270Y003175D02*
X009270Y003315D01*
X009340Y003385D01*
X009410Y003385D01*
X009690Y003104D01*
X009690Y003385D01*
X009620Y003565D02*
X009690Y003635D01*
X009690Y003775D01*
X009620Y003845D01*
X009550Y003845D01*
X009480Y003775D01*
X009480Y003565D01*
X009620Y003565D01*
X009480Y003565D02*
X009340Y003705D01*
X009270Y003845D01*
X009904Y003775D02*
X009904Y003635D01*
X009974Y003565D01*
X010044Y003565D01*
X010114Y003635D01*
X010114Y003845D01*
X010254Y003845D02*
X009974Y003845D01*
X009904Y003775D01*
X010254Y003845D02*
X010324Y003775D01*
X010324Y003635D01*
X010254Y003565D01*
X010324Y003385D02*
X010324Y003104D01*
X010044Y003385D01*
X009974Y003385D01*
X009904Y003315D01*
X009904Y003175D01*
X009974Y003104D01*
X009974Y002924D02*
X009904Y002854D01*
X009904Y002714D01*
X009974Y002644D01*
X010254Y002644D01*
X010324Y002714D01*
X010324Y002854D01*
X010254Y002924D01*
X009690Y002854D02*
X009690Y002714D01*
X009620Y002644D01*
X009340Y002644D01*
X009270Y002714D01*
X009270Y002854D01*
X009340Y002924D01*
X009620Y002924D02*
X009690Y002854D01*
X008379Y003565D02*
X008099Y003845D01*
X008379Y003845D02*
X008379Y003565D01*
X007643Y003635D02*
X007573Y003565D01*
X007643Y003635D02*
X007643Y003775D01*
X007573Y003845D01*
X007433Y003845D01*
X007363Y003775D01*
X007363Y003705D01*
X007433Y003565D01*
X007223Y003565D01*
X007223Y003845D01*
X007293Y003385D02*
X007223Y003315D01*
X007223Y003175D01*
X007293Y003104D01*
X007293Y002924D02*
X007223Y002854D01*
X007223Y002714D01*
X007293Y002644D01*
X007573Y002644D01*
X007643Y002714D01*
X007643Y002854D01*
X007573Y002924D01*
X007643Y003104D02*
X007363Y003385D01*
X007293Y003385D01*
X007643Y003385D02*
X007643Y003104D01*
X002042Y005229D02*
X001972Y005158D01*
X001832Y005158D01*
X001762Y005229D01*
X002042Y005509D01*
X002042Y005229D01*
X001762Y005229D02*
X001762Y005509D01*
X001832Y005579D01*
X001972Y005579D01*
X002042Y005509D01*
X001582Y005509D02*
X001582Y005439D01*
X001512Y005369D01*
X001582Y005299D01*
X001582Y005229D01*
X001512Y005158D01*
X001371Y005158D01*
X001301Y005229D01*
X001121Y005229D02*
X001051Y005158D01*
X000911Y005158D01*
X000841Y005229D01*
X000841Y005509D01*
X000911Y005579D01*
X001051Y005579D01*
X001121Y005509D01*
X001301Y005509D02*
X001371Y005579D01*
X001512Y005579D01*
X001582Y005509D01*
X001512Y005369D02*
X001441Y005369D01*
X000376Y016514D02*
X000376Y016908D01*
X006754Y016908D01*
X006754Y016514D01*
X000376Y016514D01*
X000376Y016908D02*
X000376Y019467D01*
X006754Y019467D01*
X006754Y016908D01*
X006843Y016908D02*
X013221Y016908D01*
X013221Y016514D01*
X006843Y016514D01*
X006843Y016908D01*
X006843Y019467D01*
X013221Y019467D01*
X013221Y016908D01*
X021546Y016410D02*
X021546Y015910D01*
X021796Y015660D01*
X022296Y015660D01*
X022546Y015910D01*
X022796Y015660D01*
X023296Y015660D01*
X023546Y015910D01*
X023796Y015660D01*
X024296Y015660D01*
X024546Y015910D01*
X024796Y015660D01*
X025296Y015660D01*
X025546Y015910D01*
X025546Y016410D01*
X025296Y016660D01*
X024796Y016660D01*
X024546Y016410D01*
X024296Y016660D01*
X023796Y016660D01*
X023546Y016410D01*
X023296Y016660D01*
X022796Y016660D01*
X022546Y016410D01*
X022296Y016660D01*
X021796Y016660D01*
X021546Y016410D01*
X024546Y002660D02*
X025046Y002660D01*
X025296Y002410D01*
X025546Y002660D01*
X026046Y002660D01*
X026296Y002410D01*
X026546Y002660D01*
X027046Y002660D01*
X027296Y002410D01*
X027546Y002660D01*
X028046Y002660D01*
X028296Y002410D01*
X028546Y002660D01*
X029046Y002660D01*
X029296Y002410D01*
X029546Y002660D01*
X030046Y002660D01*
X030296Y002410D01*
X030296Y001910D01*
X030046Y001660D01*
X029546Y001660D01*
X029296Y001910D01*
X029046Y001660D01*
X028546Y001660D01*
X028296Y001910D01*
X028046Y001660D01*
X027546Y001660D01*
X027296Y001910D01*
X027046Y001660D01*
X026546Y001660D01*
X026296Y001910D01*
X026046Y001660D01*
X025546Y001660D01*
X025296Y001910D01*
X025046Y001660D01*
X024546Y001660D01*
X024296Y001910D01*
X024296Y002410D01*
X024546Y002660D01*
X021496Y001610D02*
X021096Y001610D01*
X019812Y002160D02*
X019814Y002222D01*
X019820Y002285D01*
X019830Y002346D01*
X019844Y002407D01*
X019861Y002467D01*
X019882Y002526D01*
X019908Y002583D01*
X019936Y002638D01*
X019968Y002692D01*
X020004Y002743D01*
X020042Y002793D01*
X020084Y002839D01*
X020128Y002883D01*
X020176Y002924D01*
X020225Y002962D01*
X020277Y002996D01*
X020331Y003027D01*
X020387Y003055D01*
X020445Y003079D01*
X020504Y003100D01*
X020564Y003116D01*
X020625Y003129D01*
X020687Y003138D01*
X020749Y003143D01*
X020812Y003144D01*
X020874Y003141D01*
X020936Y003134D01*
X020998Y003123D01*
X021058Y003108D01*
X021118Y003090D01*
X021176Y003068D01*
X021233Y003042D01*
X021288Y003012D01*
X021341Y002979D01*
X021392Y002943D01*
X021440Y002904D01*
X021486Y002861D01*
X021529Y002816D01*
X021569Y002768D01*
X021606Y002718D01*
X021640Y002665D01*
X021671Y002611D01*
X021697Y002555D01*
X021721Y002497D01*
X021740Y002437D01*
X021756Y002377D01*
X021768Y002315D01*
X021776Y002254D01*
X021780Y002191D01*
X021780Y002129D01*
X021776Y002066D01*
X021768Y002005D01*
X021756Y001943D01*
X021740Y001883D01*
X021721Y001823D01*
X021697Y001765D01*
X021671Y001709D01*
X021640Y001655D01*
X021606Y001602D01*
X021569Y001552D01*
X021529Y001504D01*
X021486Y001459D01*
X021440Y001416D01*
X021392Y001377D01*
X021341Y001341D01*
X021288Y001308D01*
X021233Y001278D01*
X021176Y001252D01*
X021118Y001230D01*
X021058Y001212D01*
X020998Y001197D01*
X020936Y001186D01*
X020874Y001179D01*
X020812Y001176D01*
X020749Y001177D01*
X020687Y001182D01*
X020625Y001191D01*
X020564Y001204D01*
X020504Y001220D01*
X020445Y001241D01*
X020387Y001265D01*
X020331Y001293D01*
X020277Y001324D01*
X020225Y001358D01*
X020176Y001396D01*
X020128Y001437D01*
X020084Y001481D01*
X020042Y001527D01*
X020004Y001577D01*
X019968Y001628D01*
X019936Y001682D01*
X019908Y001737D01*
X019882Y001794D01*
X019861Y001853D01*
X019844Y001913D01*
X019830Y001974D01*
X019820Y002035D01*
X019814Y002098D01*
X019812Y002160D01*
D14*
X000832Y002468D02*
X000532Y002468D01*
X000457Y002544D01*
X000457Y002694D01*
X000532Y002769D01*
X000532Y002929D02*
X000457Y003004D01*
X000457Y003154D01*
X000532Y003229D01*
X000607Y003229D01*
X000682Y003154D01*
X000757Y003229D01*
X000832Y003229D01*
X000907Y003154D01*
X000907Y003004D01*
X000832Y002929D01*
X000832Y002769D02*
X000907Y002694D01*
X000907Y002544D01*
X000832Y002468D01*
X000682Y003079D02*
X000682Y003154D01*
X000682Y003389D02*
X000682Y003690D01*
X000907Y003614D02*
X000457Y003614D01*
X000682Y003389D01*
X000548Y011768D02*
X000848Y011768D01*
X000923Y011843D01*
X000923Y011993D01*
X000848Y012068D01*
X000923Y012228D02*
X000923Y012528D01*
X000923Y012378D02*
X000472Y012378D01*
X000623Y012228D01*
X000548Y012068D02*
X000472Y011993D01*
X000472Y011843D01*
X000548Y011768D01*
X000548Y012688D02*
X000623Y012688D01*
X000698Y012764D01*
X000698Y012989D01*
X000848Y012989D02*
X000548Y012989D01*
X000472Y012914D01*
X000472Y012764D01*
X000548Y012688D01*
X000848Y012688D02*
X000923Y012764D01*
X000923Y012914D01*
X000848Y012989D01*
X019750Y004560D02*
X019908Y004560D01*
X019971Y004010D02*
X021620Y004010D01*
X021683Y004560D02*
X021841Y004560D01*
X020908Y004560D02*
X020683Y004560D01*
X019971Y004010D02*
X019936Y004058D01*
X019903Y004108D01*
X019872Y004160D01*
X019845Y004214D01*
X019821Y004269D01*
X019801Y004326D01*
X019783Y004383D01*
X019769Y004441D01*
X019758Y004500D01*
X019751Y004560D01*
X021106Y005663D02*
X021166Y005643D01*
X021225Y005619D01*
X021282Y005591D01*
X021337Y005560D01*
X021391Y005525D01*
X021442Y005488D01*
X021491Y005447D01*
X021537Y005403D01*
X021581Y005357D01*
X021622Y005308D01*
X021660Y005257D01*
X021694Y005204D01*
X021726Y005148D01*
X021753Y005091D01*
X021778Y005032D01*
X021798Y004972D01*
X021816Y004911D01*
X021829Y004849D01*
X021838Y004786D01*
X021844Y004723D01*
X021846Y004659D01*
X021844Y004595D01*
X021838Y004532D01*
X021829Y004469D01*
X021815Y004407D01*
X021798Y004346D01*
X021777Y004286D01*
X021753Y004227D01*
X021725Y004170D01*
X021693Y004114D01*
X021658Y004061D01*
X021621Y004010D01*
X019751Y004560D02*
X019747Y004622D01*
X019746Y004685D01*
X019750Y004747D01*
X019757Y004809D01*
X019767Y004870D01*
X019782Y004931D01*
X019800Y004991D01*
X019821Y005050D01*
X019846Y005107D01*
X019874Y005162D01*
X019905Y005216D01*
X019940Y005268D01*
X019978Y005318D01*
X020018Y005365D01*
X020062Y005410D01*
X020107Y005453D01*
X020156Y005492D01*
X020206Y005529D01*
X020259Y005562D01*
X020313Y005593D01*
X020370Y005620D01*
X020427Y005643D01*
X020486Y005663D01*
X027618Y005580D02*
X027796Y005580D01*
X027963Y005580D01*
X027914Y005738D02*
X027796Y005580D01*
X027687Y005738D01*
X027914Y005738D01*
D15*
X022065Y012943D02*
X021825Y012943D01*
X021765Y013003D01*
X021765Y013124D01*
X021825Y013184D01*
X021825Y013312D02*
X021885Y013312D01*
X021945Y013372D01*
X021945Y013492D01*
X022005Y013552D01*
X022065Y013552D01*
X022126Y013492D01*
X022126Y013372D01*
X022065Y013312D01*
X022005Y013312D01*
X021945Y013372D01*
X021945Y013492D02*
X021885Y013552D01*
X021825Y013552D01*
X021765Y013492D01*
X021765Y013372D01*
X021825Y013312D01*
X022065Y013184D02*
X022126Y013124D01*
X022126Y013003D01*
X022065Y012943D01*
D16*
X007963Y018819D02*
X007863Y018819D01*
X007963Y018919D01*
X007963Y018944D01*
X007938Y018969D01*
X007888Y018969D01*
X007863Y018944D01*
X007816Y018944D02*
X007816Y018894D01*
X007791Y018869D01*
X007716Y018869D01*
X007716Y018819D02*
X007716Y018969D01*
X007791Y018969D01*
X007816Y018944D01*
X007668Y018969D02*
X007618Y018969D01*
X007643Y018969D02*
X007643Y018844D01*
X007618Y018819D01*
X007593Y018819D01*
X007568Y018844D01*
M02*
