G75*
G70*
%OFA0B0*%
%FSLAX24Y24*%
%IPPOS*%
%LPD*%
%AMOC8*
5,1,8,0,0,1.08239X$1,22.5*
%
%ADD10C,0.0000*%
%ADD11R,0.0110X0.0660*%
%ADD12R,0.0660X0.0110*%
%ADD13R,0.0492X0.0140*%
%ADD14R,0.0140X0.0492*%
%ADD15R,0.1240X0.1240*%
%ADD16R,0.0472X0.0315*%
%ADD17R,0.0650X0.0650*%
%ADD18C,0.0650*%
%ADD19R,0.0315X0.0472*%
%ADD20OC8,0.0520*%
%ADD21R,0.0090X0.0580*%
%ADD22R,0.0580X0.0090*%
%ADD23R,0.0709X0.0630*%
%ADD24C,0.0740*%
%ADD25R,0.0800X0.0800*%
%ADD26C,0.0800*%
%ADD27C,0.0100*%
%ADD28R,0.0360X0.0360*%
%ADD29C,0.0120*%
%ADD30R,0.0780X0.0780*%
%ADD31OC8,0.0360*%
%ADD32C,0.0160*%
%ADD33C,0.0080*%
D10*
X000571Y000160D02*
X032046Y000160D01*
X032046Y019402D01*
X000571Y019402D01*
X000571Y000160D01*
D11*
X015316Y006950D03*
X015516Y006950D03*
X015716Y006950D03*
X015906Y006950D03*
X016106Y006950D03*
X016306Y006950D03*
X016496Y006950D03*
X016696Y006950D03*
X016896Y006950D03*
X017096Y006950D03*
X017286Y006950D03*
X017486Y006950D03*
X017686Y006950D03*
X017876Y006950D03*
X018076Y006950D03*
X018276Y006950D03*
X018276Y011370D03*
X018076Y011370D03*
X017876Y011370D03*
X017686Y011370D03*
X017486Y011370D03*
X017286Y011370D03*
X017096Y011370D03*
X016896Y011370D03*
X016696Y011370D03*
X016496Y011370D03*
X016306Y011370D03*
X016106Y011370D03*
X015906Y011370D03*
X015716Y011370D03*
X015516Y011370D03*
X015316Y011370D03*
D12*
X014586Y010640D03*
X014586Y010440D03*
X014586Y010240D03*
X014586Y010050D03*
X014586Y009850D03*
X014586Y009650D03*
X014586Y009460D03*
X014586Y009260D03*
X014586Y009060D03*
X014586Y008860D03*
X014586Y008670D03*
X014586Y008470D03*
X014586Y008270D03*
X014586Y008080D03*
X014586Y007880D03*
X014586Y007680D03*
X019006Y007680D03*
X019006Y007880D03*
X019006Y008080D03*
X019006Y008270D03*
X019006Y008470D03*
X019006Y008670D03*
X019006Y008860D03*
X019006Y009060D03*
X019006Y009260D03*
X019006Y009460D03*
X019006Y009650D03*
X019006Y009850D03*
X019006Y010050D03*
X019006Y010240D03*
X019006Y010440D03*
X019006Y010640D03*
D13*
X006082Y011284D03*
X006082Y011534D03*
X006082Y011794D03*
X006082Y012054D03*
X006082Y012304D03*
X004100Y012304D03*
X004100Y012054D03*
X004100Y011794D03*
X004100Y011534D03*
X004100Y011284D03*
X004100Y008845D03*
X004100Y008595D03*
X004100Y008335D03*
X004100Y008075D03*
X004100Y007825D03*
X006082Y007825D03*
X006082Y008075D03*
X006082Y008335D03*
X006082Y008595D03*
X006082Y008845D03*
X006082Y005304D03*
X006082Y005054D03*
X006082Y004794D03*
X006082Y004534D03*
X006082Y004284D03*
X004100Y004284D03*
X004100Y004534D03*
X004100Y004794D03*
X004100Y005054D03*
X004100Y005304D03*
D14*
X004581Y005785D03*
X004831Y005785D03*
X005091Y005785D03*
X005351Y005785D03*
X005601Y005785D03*
X005601Y007344D03*
X005351Y007344D03*
X005091Y007344D03*
X004831Y007344D03*
X004581Y007344D03*
X004581Y009326D03*
X004831Y009326D03*
X005091Y009326D03*
X005351Y009326D03*
X005601Y009326D03*
X005601Y010803D03*
X005351Y010803D03*
X005091Y010803D03*
X004831Y010803D03*
X004581Y010803D03*
X004581Y012785D03*
X004831Y012785D03*
X005091Y012785D03*
X005351Y012785D03*
X005601Y012785D03*
X005601Y003803D03*
X005351Y003803D03*
X005091Y003803D03*
X004831Y003803D03*
X004581Y003803D03*
D15*
X005091Y004794D03*
X005091Y008335D03*
X005091Y011794D03*
D16*
X006878Y011503D03*
X007551Y011503D03*
X008252Y011503D03*
X008953Y011503D03*
X009634Y011503D03*
X009634Y012211D03*
X008953Y012211D03*
X008252Y012211D03*
X007551Y012211D03*
X006878Y012211D03*
X002481Y012719D03*
X002481Y013428D03*
X003342Y008920D03*
X003342Y008211D03*
X002490Y007404D03*
X002490Y006696D03*
X006886Y006908D03*
X006886Y006199D03*
X008107Y006207D03*
X008768Y006207D03*
X008768Y005499D03*
X008107Y005499D03*
X008114Y004951D03*
X008756Y004951D03*
X009386Y004951D03*
X010059Y004951D03*
X010059Y004243D03*
X009386Y004243D03*
X008756Y004243D03*
X008114Y004243D03*
X007457Y004243D03*
X007457Y004951D03*
X007472Y008041D03*
X008232Y008041D03*
X008952Y008041D03*
X008952Y008750D03*
X008232Y008750D03*
X007472Y008750D03*
X009692Y008750D03*
X010422Y008750D03*
X010422Y008041D03*
X009692Y008041D03*
X013696Y005364D03*
X014346Y005364D03*
X015246Y005364D03*
X015886Y005364D03*
X015886Y004656D03*
X015246Y004656D03*
X014346Y004656D03*
X013696Y004656D03*
X016516Y004114D03*
X016516Y003406D03*
X018346Y004406D03*
X018346Y005114D03*
X022296Y004014D03*
X022296Y003306D03*
X024116Y003886D03*
X024116Y004594D03*
X025216Y005366D03*
X025216Y006074D03*
X022816Y006094D03*
X022816Y005386D03*
X027796Y005306D03*
X027796Y004764D03*
X027796Y004056D03*
X027796Y006014D03*
X028536Y011486D03*
X028536Y012194D03*
X025806Y012956D03*
X025806Y013664D03*
X024696Y013674D03*
X024696Y012966D03*
X015646Y012806D03*
X015646Y013514D03*
X014346Y013514D03*
X013696Y013514D03*
X013696Y012806D03*
X014346Y012806D03*
D17*
X020296Y002160D03*
D18*
X021296Y002160D03*
D19*
X023441Y003410D03*
X024150Y003410D03*
X024691Y003410D03*
X025400Y003410D03*
X028081Y008150D03*
X028790Y008150D03*
X028810Y009250D03*
X028101Y009250D03*
X021690Y014680D03*
X020981Y014680D03*
X016080Y014370D03*
X015371Y014370D03*
X011922Y011440D03*
X011214Y011440D03*
X011214Y010800D03*
X011922Y010800D03*
X012491Y009563D03*
X013200Y009563D03*
X013200Y008960D03*
X012491Y008960D03*
X012491Y007610D03*
X013200Y007610D03*
X013200Y006760D03*
X012491Y006760D03*
X002236Y005943D03*
X001528Y005943D03*
D20*
X020296Y004660D03*
X020796Y005410D03*
X021296Y004660D03*
D21*
X022656Y006810D03*
X022816Y006810D03*
X022976Y006810D03*
X023126Y006810D03*
X023286Y006810D03*
X023446Y006810D03*
X023606Y006810D03*
X023756Y006810D03*
X023916Y006810D03*
X024076Y006810D03*
X024236Y006810D03*
X024386Y006810D03*
X024546Y006810D03*
X024706Y006810D03*
X024856Y006810D03*
X025016Y006810D03*
X025176Y006810D03*
X025336Y006810D03*
X025486Y006810D03*
X025646Y006810D03*
X025806Y006810D03*
X025966Y006810D03*
X026116Y006810D03*
X026276Y006810D03*
X026436Y006810D03*
X026436Y012010D03*
X026276Y012010D03*
X026116Y012010D03*
X025966Y012010D03*
X025806Y012010D03*
X025646Y012010D03*
X025486Y012010D03*
X025336Y012010D03*
X025176Y012010D03*
X025016Y012010D03*
X024856Y012010D03*
X024706Y012010D03*
X024546Y012010D03*
X024386Y012010D03*
X024236Y012010D03*
X024076Y012010D03*
X023916Y012010D03*
X023756Y012010D03*
X023606Y012010D03*
X023446Y012010D03*
X023286Y012010D03*
X023126Y012010D03*
X022976Y012010D03*
X022816Y012010D03*
X022656Y012010D03*
D22*
X021946Y011300D03*
X021946Y011140D03*
X021946Y010980D03*
X021946Y010830D03*
X021946Y010670D03*
X021946Y010510D03*
X021946Y010350D03*
X021946Y010200D03*
X021946Y010040D03*
X021946Y009880D03*
X021946Y009720D03*
X021946Y009570D03*
X021946Y009410D03*
X021946Y009250D03*
X021946Y009100D03*
X021946Y008940D03*
X021946Y008780D03*
X021946Y008620D03*
X021946Y008470D03*
X021946Y008310D03*
X021946Y008150D03*
X021946Y007990D03*
X021946Y007840D03*
X021946Y007680D03*
X021946Y007520D03*
X027146Y007520D03*
X027146Y007680D03*
X027146Y007840D03*
X027146Y007990D03*
X027146Y008150D03*
X027146Y008310D03*
X027146Y008470D03*
X027146Y008620D03*
X027146Y008780D03*
X027146Y008940D03*
X027146Y009100D03*
X027146Y009250D03*
X027146Y009410D03*
X027146Y009570D03*
X027146Y009720D03*
X027146Y009880D03*
X027146Y010040D03*
X027146Y010200D03*
X027146Y010350D03*
X027146Y010510D03*
X027146Y010670D03*
X027146Y010830D03*
X027146Y010980D03*
X027146Y011140D03*
X027146Y011300D03*
D23*
X021296Y012609D03*
X021296Y013711D03*
X001398Y012794D03*
X001398Y011691D03*
X001382Y003495D03*
X001382Y002392D03*
D24*
X022046Y016210D03*
X023046Y016110D03*
X024046Y016210D03*
X025046Y016110D03*
X024796Y002260D03*
X025796Y002160D03*
X026796Y002260D03*
X027796Y002160D03*
X028796Y002260D03*
X029796Y002160D03*
D25*
X008063Y017814D03*
X001597Y017814D03*
D26*
X003565Y017814D03*
X005534Y017814D03*
X010032Y017814D03*
X012000Y017814D03*
D27*
X013851Y018625D02*
X006345Y018625D01*
X005534Y017814D01*
X008063Y017814D02*
X008063Y016380D01*
X009205Y015239D01*
X009205Y012916D01*
X006878Y012211D02*
X006721Y012054D01*
X006082Y012054D01*
X006082Y011794D02*
X006587Y011794D01*
X006878Y011503D01*
X006953Y011577D01*
X007000Y011577D01*
X006226Y010803D01*
X005601Y010803D01*
X006082Y011284D02*
X006660Y011284D01*
X006878Y011503D01*
X004835Y012247D02*
X004831Y012251D01*
X004831Y012785D01*
X004831Y013306D01*
X004874Y013349D01*
X003339Y012719D02*
X002481Y012719D01*
X003724Y011971D02*
X003724Y011930D01*
X003800Y011854D01*
X004341Y011854D01*
X004341Y011734D01*
X003800Y011734D01*
X003780Y011714D01*
X003575Y011714D01*
X003473Y011612D01*
X003184Y011612D01*
X003108Y011536D01*
X003108Y011068D01*
X003184Y010992D01*
X003651Y010992D01*
X003728Y011068D01*
X003728Y011354D01*
X003780Y011354D01*
X003800Y011334D01*
X004341Y011334D01*
X004341Y011120D01*
X004417Y011044D01*
X004631Y011044D01*
X004631Y010503D01*
X004638Y010496D01*
X004638Y010003D01*
X001021Y010003D01*
X001021Y011971D01*
X003724Y011971D01*
X003772Y011882D02*
X001021Y011882D01*
X001021Y011783D02*
X004341Y011783D01*
X004100Y011534D02*
X003650Y011534D01*
X003418Y011302D01*
X003728Y011291D02*
X004341Y011291D01*
X004341Y011192D02*
X003728Y011192D01*
X003728Y011094D02*
X004367Y011094D01*
X004631Y010995D02*
X003655Y010995D01*
X003180Y010995D02*
X001021Y010995D01*
X001021Y010897D02*
X004631Y010897D01*
X004631Y010798D02*
X001021Y010798D01*
X001021Y010700D02*
X004631Y010700D01*
X004631Y010601D02*
X001021Y010601D01*
X001021Y010503D02*
X004631Y010503D01*
X004638Y010404D02*
X001021Y010404D01*
X001021Y010306D02*
X004638Y010306D01*
X004638Y010207D02*
X001021Y010207D01*
X001021Y010109D02*
X004638Y010109D01*
X004638Y010010D02*
X001021Y010010D01*
X001021Y011094D02*
X003108Y011094D01*
X003108Y011192D02*
X001021Y011192D01*
X001021Y011291D02*
X003108Y011291D01*
X003108Y011389D02*
X001021Y011389D01*
X001021Y011488D02*
X003108Y011488D01*
X003158Y011586D02*
X001021Y011586D01*
X001021Y011685D02*
X003546Y011685D01*
X003457Y009215D02*
X003342Y009100D01*
X003342Y008920D01*
X003708Y008821D02*
X003724Y008821D01*
X003724Y008721D01*
X003725Y008720D01*
X003724Y008719D01*
X003724Y008471D01*
X003800Y008395D01*
X004341Y008395D01*
X004341Y008275D01*
X003800Y008275D01*
X003780Y008255D01*
X003708Y008255D01*
X003708Y008422D01*
X003632Y008498D01*
X003052Y008498D01*
X002975Y008422D01*
X002975Y008000D01*
X003052Y007923D01*
X003375Y007923D01*
X003403Y007895D01*
X003780Y007895D01*
X003800Y007875D01*
X004341Y007875D01*
X004341Y007661D01*
X004417Y007585D01*
X004631Y007585D01*
X004631Y007247D01*
X002276Y007247D01*
X002276Y008821D01*
X002975Y008821D01*
X002975Y008708D01*
X003052Y008632D01*
X003632Y008632D01*
X003708Y008708D01*
X003708Y008821D01*
X003708Y008730D02*
X003724Y008730D01*
X003724Y008631D02*
X002276Y008631D01*
X002276Y008533D02*
X003724Y008533D01*
X003696Y008434D02*
X003761Y008434D01*
X003708Y008336D02*
X004341Y008336D01*
X004100Y008335D02*
X003825Y008335D01*
X003575Y008585D01*
X002591Y008585D01*
X002276Y008270D01*
X002276Y007798D01*
X002276Y007843D02*
X004341Y007843D01*
X004341Y007745D02*
X002276Y007745D01*
X002276Y007646D02*
X004356Y007646D01*
X004631Y007548D02*
X002276Y007548D01*
X002276Y007449D02*
X004631Y007449D01*
X004631Y007351D02*
X002276Y007351D01*
X002276Y007252D02*
X004631Y007252D01*
X006082Y007825D02*
X006162Y007825D01*
X007307Y008085D02*
X007472Y008041D01*
X010425Y010003D02*
X010425Y010869D01*
X010662Y011105D01*
X011449Y010327D02*
X011922Y010800D01*
X012720Y010790D01*
X013206Y010790D01*
X013946Y010050D01*
X014586Y010050D01*
X015826Y010050D01*
X015906Y010130D01*
X015906Y011370D01*
X015906Y012546D01*
X015646Y012806D01*
X014992Y012640D02*
X014992Y016814D01*
X014953Y016853D01*
X016095Y016853D02*
X016095Y016932D01*
X014087Y018940D01*
X002000Y018940D01*
X001607Y018546D01*
X001607Y017823D01*
X001597Y017814D01*
X011922Y011440D02*
X012740Y011410D01*
X013046Y011410D01*
X014016Y010440D01*
X014586Y010440D01*
X014586Y010240D02*
X015096Y010240D01*
X015106Y010250D01*
X015386Y010250D01*
X015546Y010410D01*
X015546Y010630D01*
X015716Y010800D01*
X015716Y011370D01*
X015516Y011370D02*
X015516Y012117D01*
X014992Y012640D01*
X014400Y012806D02*
X014346Y012806D01*
X013696Y012806D01*
X014400Y012806D02*
X015316Y011890D01*
X015316Y011370D01*
X016106Y011370D02*
X016106Y010790D01*
X016126Y010770D01*
X016106Y011370D02*
X016106Y009850D01*
X014586Y009850D01*
X014586Y009650D02*
X013888Y009650D01*
X013299Y010239D01*
X012670Y010239D01*
X013200Y009563D02*
X013503Y009260D01*
X014586Y009260D01*
X014586Y009060D02*
X013300Y009060D01*
X013200Y008960D01*
X013196Y008956D01*
X013196Y008590D01*
X013016Y008410D01*
X013016Y008290D01*
X012166Y008290D01*
X011796Y007920D01*
X011796Y007160D01*
X013200Y006760D02*
X013676Y006760D01*
X013916Y007000D01*
X013916Y007810D01*
X013986Y007880D01*
X014586Y007880D01*
X014586Y007680D02*
X014586Y006800D01*
X014481Y006695D01*
X015316Y006950D02*
X015316Y006334D01*
X014346Y005364D01*
X013696Y005364D01*
X014816Y005310D02*
X014816Y003910D01*
X014706Y003800D01*
X015796Y003910D02*
X016046Y004160D01*
X016470Y004160D01*
X016516Y004114D01*
X016516Y005810D01*
X016896Y006190D01*
X016896Y006950D01*
X017096Y006950D02*
X017096Y007545D01*
X017079Y007562D01*
X016696Y007512D02*
X016685Y007522D01*
X016696Y007512D02*
X016696Y006950D01*
X016306Y006950D02*
X016306Y006010D01*
X015886Y005590D01*
X015886Y005364D01*
X015246Y005364D02*
X014870Y005364D01*
X014816Y005310D01*
X015246Y005364D02*
X015906Y006024D01*
X015906Y006950D01*
X015716Y006950D02*
X015716Y007694D01*
X015740Y007719D01*
X016095Y007719D01*
X016095Y007522D02*
X016106Y007511D01*
X016106Y006950D01*
X017286Y006950D02*
X017286Y006150D01*
X017046Y005910D01*
X017046Y001160D01*
X017546Y000660D01*
X031296Y000660D01*
X031546Y000910D01*
X031546Y009660D01*
X031166Y010040D01*
X027146Y010040D01*
X027146Y009880D02*
X030826Y009880D01*
X031296Y009410D01*
X031296Y001160D01*
X031046Y000910D01*
X031014Y000942D01*
X017634Y000942D01*
X017666Y000910D01*
X017634Y000942D02*
X017296Y001280D01*
X017296Y005910D01*
X017486Y006100D01*
X017486Y006950D01*
X017686Y006950D02*
X017686Y001330D01*
X017866Y001150D01*
X030786Y001150D01*
X031046Y001410D01*
X031046Y009160D01*
X030486Y009720D01*
X027146Y009720D01*
X027146Y009250D02*
X028101Y009250D01*
X028101Y008684D01*
X028109Y008691D01*
X028823Y008691D01*
X028101Y008684D02*
X028101Y008170D01*
X028081Y008150D01*
X028046Y008114D01*
X028081Y008150D02*
X027146Y008150D01*
X027146Y008310D02*
X027666Y008310D01*
X027666Y008790D01*
X027676Y008800D01*
X027676Y009070D01*
X027656Y009090D01*
X027676Y009100D02*
X027686Y009090D01*
X027676Y009100D02*
X027146Y009100D01*
X026606Y009100D01*
X026546Y009160D01*
X026546Y009410D01*
X026546Y009160D02*
X026546Y008400D01*
X026636Y008310D01*
X027146Y008310D01*
X027666Y008310D02*
X027676Y008300D01*
X027186Y007520D02*
X027796Y006910D01*
X027796Y006014D01*
X027796Y005306D02*
X027796Y004764D01*
X025796Y004660D02*
X025546Y004410D01*
X025296Y004410D01*
X025400Y004306D01*
X025400Y003410D01*
X024691Y003410D02*
X024691Y003056D01*
X024546Y002910D01*
X024296Y002910D01*
X024046Y002660D01*
X024046Y001660D01*
X024296Y001410D01*
X029546Y001410D01*
X029796Y001660D01*
X029796Y002160D01*
X026796Y002260D02*
X026436Y002620D01*
X026436Y006810D01*
X026276Y006810D02*
X026276Y002640D01*
X025796Y002160D01*
X024691Y003410D02*
X024150Y003410D01*
X024116Y003444D01*
X024116Y003886D01*
X024116Y004594D02*
X024546Y005024D01*
X024546Y006810D01*
X024856Y006810D02*
X024856Y006470D01*
X024796Y006410D01*
X024796Y005660D01*
X024796Y004910D01*
X024796Y005660D02*
X024856Y005720D01*
X024856Y006810D01*
X024856Y007360D01*
X024876Y007380D01*
X025016Y006810D02*
X025016Y006274D01*
X025216Y006074D01*
X025631Y006074D01*
X025796Y005910D01*
X025796Y004660D01*
X024086Y005830D02*
X023916Y006000D01*
X023916Y006810D01*
X023756Y006810D02*
X023756Y006250D01*
X023586Y006080D01*
X023586Y005450D01*
X023046Y004660D01*
X022296Y004410D02*
X022046Y004660D01*
X021296Y004660D01*
X022296Y004410D02*
X022296Y004014D01*
X022296Y003306D02*
X022296Y002160D01*
X020296Y002160D02*
X020296Y004660D01*
X020106Y004850D01*
X020106Y005660D01*
X020356Y005910D01*
X021546Y005910D01*
X021730Y006094D01*
X022816Y006094D01*
X022816Y006810D01*
X020106Y009040D02*
X019886Y009260D01*
X019006Y009260D01*
X019006Y009060D02*
X018446Y009060D01*
X019016Y010040D02*
X019006Y010050D01*
X017796Y010660D02*
X017686Y010770D01*
X017686Y010850D01*
X017706Y010830D01*
X017686Y010850D02*
X017686Y011370D01*
X017876Y011370D02*
X017876Y015490D01*
X019546Y017160D01*
X027296Y017160D01*
X027796Y016660D01*
X027796Y011050D01*
X027576Y010830D01*
X027146Y010830D01*
X027146Y010670D02*
X028056Y010670D01*
X028546Y011160D01*
X028546Y011476D01*
X028536Y011486D01*
X028460Y011410D01*
X028296Y011410D01*
X028046Y011660D01*
X028046Y012910D01*
X028296Y013160D01*
X028296Y013410D01*
X027046Y013160D02*
X027046Y014660D01*
X026296Y014660D02*
X026296Y012720D01*
X026116Y012540D01*
X026116Y012010D01*
X026276Y012010D02*
X026276Y012390D01*
X027046Y013160D01*
X025806Y012956D02*
X025296Y012956D01*
X025256Y012916D01*
X025256Y012810D01*
X025296Y012956D02*
X024706Y012956D01*
X024696Y012966D01*
X024706Y012956D02*
X024706Y012010D01*
X024236Y012010D02*
X024236Y011470D01*
X024236Y012010D02*
X024236Y012520D01*
X024216Y012540D01*
X023446Y012010D02*
X023446Y013560D01*
X025046Y015160D01*
X025046Y016110D01*
X023126Y016030D02*
X023046Y016110D01*
X023126Y016030D02*
X023126Y012010D01*
X022656Y012010D02*
X022556Y012010D01*
X022556Y012000D01*
X022546Y011990D01*
X022596Y011530D02*
X022046Y012080D01*
X022046Y013410D01*
X022046Y014660D01*
X022026Y014680D01*
X021690Y014680D01*
X020504Y015866D01*
X020504Y016144D01*
X019466Y017420D02*
X028536Y017420D01*
X029796Y016160D01*
X029796Y010660D01*
X029486Y010350D01*
X027146Y010350D01*
X027146Y010200D02*
X029836Y010200D01*
X030046Y010410D01*
X030046Y016410D01*
X028796Y017660D01*
X019296Y017660D01*
X017286Y015650D01*
X017286Y011370D01*
X017486Y011370D02*
X017486Y015440D01*
X019466Y017420D01*
X017046Y016410D02*
X016696Y016060D01*
X016696Y011370D01*
X016496Y011370D02*
X016496Y015980D01*
X013851Y018625D01*
X016080Y014370D02*
X016306Y014144D01*
X016306Y011370D01*
X018046Y011910D02*
X018046Y012160D01*
X018046Y011910D02*
X018076Y011880D01*
X018076Y011370D01*
X018076Y010850D01*
X018066Y010840D01*
X016296Y009660D02*
X016106Y009850D01*
X015150Y009412D02*
X015102Y009460D01*
X014586Y009460D01*
X014586Y008860D02*
X015111Y008860D01*
X015150Y008821D01*
X015229Y008506D02*
X015192Y008470D01*
X014586Y008470D01*
X014586Y008270D02*
X014016Y008270D01*
X013626Y007880D01*
X013626Y007710D01*
X013526Y007610D01*
X013200Y007610D01*
X013200Y008106D01*
X013016Y008290D01*
X013733Y008625D02*
X013778Y008670D01*
X014586Y008670D01*
X014586Y008080D02*
X015106Y008080D01*
X012166Y008290D02*
X011449Y009006D01*
X011449Y010327D01*
X014008Y010869D02*
X014008Y011262D01*
X014008Y010869D02*
X014237Y010640D01*
X014286Y010640D01*
X018066Y007490D02*
X018076Y007480D01*
X018076Y006950D01*
X017876Y006950D02*
X017876Y006230D01*
X018376Y005730D01*
X018346Y005700D01*
X018346Y005114D01*
X015796Y003910D02*
X015796Y002910D01*
X004638Y003310D02*
X001095Y003310D01*
X001095Y005278D01*
X003724Y005278D01*
X003724Y005180D01*
X003725Y005179D01*
X003724Y005178D01*
X003724Y004930D01*
X003800Y004854D01*
X004341Y004854D01*
X004341Y004734D01*
X003800Y004734D01*
X003790Y004724D01*
X003539Y004724D01*
X003380Y004564D01*
X003105Y004564D01*
X003029Y004488D01*
X003029Y004021D01*
X003105Y003944D01*
X003573Y003944D01*
X003649Y004021D01*
X003649Y004296D01*
X003697Y004344D01*
X003790Y004344D01*
X003800Y004334D01*
X004341Y004334D01*
X004341Y004120D01*
X004417Y004044D01*
X004631Y004044D01*
X004631Y003503D01*
X004638Y003496D01*
X004638Y003310D01*
X004638Y003312D02*
X001095Y003312D01*
X001095Y003411D02*
X004638Y003411D01*
X004631Y003509D02*
X001095Y003509D01*
X001095Y003608D02*
X004631Y003608D01*
X004631Y003706D02*
X001095Y003706D01*
X001095Y003805D02*
X004631Y003805D01*
X004631Y003903D02*
X001095Y003903D01*
X001095Y004002D02*
X003048Y004002D01*
X003029Y004100D02*
X001095Y004100D01*
X001095Y004199D02*
X003029Y004199D01*
X003029Y004297D02*
X001095Y004297D01*
X001095Y004396D02*
X003029Y004396D01*
X003034Y004494D02*
X001095Y004494D01*
X001095Y004593D02*
X003408Y004593D01*
X003507Y004691D02*
X001095Y004691D01*
X001095Y004790D02*
X004341Y004790D01*
X003766Y004888D02*
X001095Y004888D01*
X001095Y004987D02*
X003724Y004987D01*
X003724Y005085D02*
X001095Y005085D01*
X001095Y005184D02*
X003724Y005184D01*
X003650Y004297D02*
X004341Y004297D01*
X004341Y004199D02*
X003649Y004199D01*
X003649Y004100D02*
X004361Y004100D01*
X004631Y004002D02*
X003630Y004002D01*
X003033Y007942D02*
X002276Y007942D01*
X002276Y008040D02*
X002975Y008040D01*
X002975Y008139D02*
X002276Y008139D01*
X002276Y008237D02*
X002975Y008237D01*
X002975Y008336D02*
X002276Y008336D01*
X002276Y008434D02*
X002987Y008434D01*
X002975Y008730D02*
X002276Y008730D01*
X003342Y008211D02*
X003477Y008075D01*
X004100Y008075D01*
X004100Y008335D02*
X003922Y008335D01*
X021296Y012130D02*
X021296Y012609D01*
X021296Y012130D02*
X021366Y012060D01*
X021746Y012060D01*
X022416Y011390D01*
X022416Y009930D01*
X022366Y009880D01*
X021946Y009880D01*
X021946Y009720D02*
X022496Y009720D01*
X022596Y009820D01*
X022596Y011530D01*
X025806Y012010D02*
X025806Y012956D01*
X028396Y010510D02*
X028546Y010660D01*
X028396Y010510D02*
X027146Y010510D01*
X026646Y010510D01*
X026546Y010410D01*
X026546Y010160D01*
X027146Y007520D02*
X027186Y007520D01*
D28*
X026882Y006380D03*
X026882Y005199D03*
X025296Y004410D03*
X027276Y003231D03*
X029274Y003731D03*
X030032Y005593D03*
X029244Y007562D03*
X028823Y008691D03*
X025268Y008664D03*
X025268Y007877D03*
X025268Y009845D03*
X025268Y011026D03*
X027276Y012286D03*
X028296Y013410D03*
X028457Y014648D03*
X027046Y014660D03*
X026296Y014660D03*
X026488Y016223D03*
X028457Y016223D03*
X031410Y015947D03*
X031398Y012394D03*
X025256Y012810D03*
X022046Y013410D03*
X020977Y011617D03*
X019008Y012286D03*
X017813Y010400D03*
X016632Y010400D03*
X015372Y010558D03*
X014008Y011262D03*
X014664Y011699D03*
X012670Y010239D03*
X011986Y010085D03*
X010425Y010003D03*
X009047Y009451D03*
X008260Y009451D03*
X007473Y009451D03*
X005583Y010081D03*
X003418Y011302D03*
X005075Y011796D03*
X003339Y012719D03*
X003142Y014215D03*
X004717Y014215D03*
X004717Y015396D03*
X003142Y015396D03*
X006685Y015396D03*
X006685Y014215D03*
X009205Y012916D03*
X009835Y013821D03*
X011410Y014609D03*
X012197Y014609D03*
X012197Y016184D03*
X011410Y016184D03*
X009441Y016184D03*
X013378Y017365D03*
X014953Y016853D03*
X014166Y016105D03*
X015740Y015357D03*
X017046Y016410D03*
X016095Y016853D03*
X017040Y017798D03*
X018614Y018585D03*
X020504Y016144D03*
X015490Y013825D03*
X012197Y012207D03*
X010662Y011105D03*
X013733Y008625D03*
X015821Y008247D03*
X016609Y008247D03*
X017790Y008247D03*
X019362Y006302D03*
X018376Y005730D03*
X021331Y006695D03*
X024086Y005830D03*
X023046Y004660D03*
X022296Y002160D03*
X018496Y003703D03*
X015796Y002910D03*
X014706Y003800D03*
X013063Y004727D03*
X012276Y003546D03*
X013866Y002660D03*
X009638Y000751D03*
X008851Y000751D03*
X008063Y000751D03*
X007276Y000751D03*
X006488Y000751D03*
X005701Y000751D03*
X004914Y000751D03*
X004126Y000751D03*
X003339Y000751D03*
X002551Y000751D03*
X001764Y000751D03*
X001213Y001341D03*
X003339Y004254D03*
X005075Y004788D03*
X003103Y005947D03*
X001173Y006341D03*
X001173Y007129D03*
X001173Y007916D03*
X001173Y008703D03*
X001173Y009491D03*
X002512Y008113D03*
X005154Y008331D03*
X007473Y005475D03*
X009835Y005908D03*
X011016Y005908D03*
X011016Y007089D03*
X011796Y007160D03*
X009835Y007089D03*
X013733Y006105D03*
X014481Y006695D03*
X006607Y002916D03*
D29*
X006607Y003803D01*
X007214Y003803D01*
X007457Y004243D01*
X008114Y004243D01*
X008756Y004243D01*
X009386Y004243D01*
X010059Y004243D01*
X011673Y004243D01*
X012788Y005357D01*
X013688Y005357D01*
X013696Y005364D01*
X013368Y005742D02*
X013263Y005637D01*
X012732Y005637D01*
X012629Y005594D01*
X012550Y005515D01*
X011557Y004523D01*
X010484Y004523D01*
X010387Y004620D01*
X009732Y004620D01*
X009723Y004611D01*
X009713Y004620D01*
X007787Y004620D01*
X007786Y004619D01*
X007784Y004620D01*
X007130Y004620D01*
X007073Y004564D01*
X006879Y004564D01*
X006962Y004647D01*
X007041Y004726D01*
X007083Y004829D01*
X007083Y005193D01*
X007202Y005075D01*
X007744Y005075D01*
X007790Y005121D01*
X008434Y005121D01*
X008437Y005124D01*
X008441Y005121D01*
X009095Y005121D01*
X009224Y005250D01*
X009224Y005747D01*
X009118Y005853D01*
X009224Y005959D01*
X009224Y006456D01*
X009095Y006585D01*
X008441Y006585D01*
X008437Y006581D01*
X008434Y006585D01*
X007779Y006585D01*
X007674Y006479D01*
X007311Y006479D01*
X007213Y006577D01*
X006559Y006577D01*
X006430Y006448D01*
X006430Y005951D01*
X006523Y005857D01*
X006523Y005490D01*
X006419Y005594D01*
X005891Y005594D01*
X005891Y006122D01*
X005762Y006251D01*
X005440Y006251D01*
X005346Y006157D01*
X005252Y006251D01*
X004420Y006251D01*
X004291Y006122D01*
X004291Y005594D01*
X003762Y005594D01*
X003717Y005548D01*
X003374Y005548D01*
X003503Y005676D01*
X003503Y006219D01*
X003374Y006347D01*
X002831Y006347D01*
X002711Y006227D01*
X002614Y006227D01*
X002614Y006271D01*
X002485Y006400D01*
X001988Y006400D01*
X001859Y006271D01*
X001859Y005616D01*
X001927Y005548D01*
X001041Y005548D01*
X001031Y005544D01*
X001031Y009733D01*
X004610Y009733D01*
X004541Y009664D01*
X004541Y009091D01*
X004481Y009091D01*
X004437Y009135D01*
X003762Y009135D01*
X003719Y009091D01*
X002222Y009091D01*
X002123Y009050D01*
X002047Y008974D01*
X002006Y008875D01*
X002006Y007193D01*
X002047Y007094D01*
X002123Y007018D01*
X002222Y006977D01*
X004321Y006977D01*
X004420Y006878D01*
X005762Y006878D01*
X005891Y007007D01*
X005891Y007064D01*
X007028Y007064D01*
X007131Y007107D01*
X007688Y007663D01*
X007799Y007663D01*
X007852Y007716D01*
X007904Y007663D01*
X008559Y007663D01*
X008592Y007696D01*
X008624Y007663D01*
X009279Y007663D01*
X009322Y007706D01*
X009364Y007663D01*
X010019Y007663D01*
X010057Y007701D01*
X010094Y007663D01*
X010749Y007663D01*
X010823Y007737D01*
X011396Y007164D01*
X011396Y006889D01*
X011524Y006760D01*
X012067Y006760D01*
X012196Y006889D01*
X012196Y007431D01*
X012067Y007560D01*
X012066Y007560D01*
X012066Y007808D01*
X012277Y008020D01*
X012904Y008020D01*
X012904Y008019D01*
X012822Y007937D01*
X012822Y007283D01*
X012920Y007185D01*
X012822Y007087D01*
X012822Y006433D01*
X012951Y006304D01*
X013448Y006304D01*
X013577Y006433D01*
X013577Y006490D01*
X013729Y006490D01*
X013828Y006531D01*
X013904Y006607D01*
X014081Y006783D01*
X014081Y006424D01*
X014209Y006295D01*
X014752Y006295D01*
X014881Y006424D01*
X014881Y006967D01*
X014856Y006992D01*
X014856Y007405D01*
X015007Y007405D01*
X015136Y007534D01*
X015136Y008026D01*
X015087Y008075D01*
X015136Y008124D01*
X015136Y008416D01*
X015082Y008470D01*
X015136Y008524D01*
X015136Y008816D01*
X015087Y008865D01*
X015136Y008914D01*
X015136Y009406D01*
X015087Y009455D01*
X015136Y009504D01*
X015136Y009780D01*
X015879Y009780D01*
X015978Y009821D01*
X016058Y009901D01*
X016134Y009977D01*
X016176Y010076D01*
X016176Y010820D01*
X017632Y010820D01*
X017681Y010869D01*
X017729Y010820D01*
X018022Y010820D01*
X018076Y010874D01*
X018129Y010820D01*
X018422Y010820D01*
X018551Y010949D01*
X018551Y011109D01*
X020330Y011109D01*
X020538Y010900D01*
X019441Y010900D01*
X019427Y010915D01*
X018584Y010915D01*
X018456Y010786D01*
X018456Y009114D01*
X018509Y009060D01*
X018456Y009006D01*
X018456Y007534D01*
X018584Y007405D01*
X019427Y007405D01*
X019442Y007420D01*
X020637Y007420D01*
X020440Y007223D01*
X018551Y007223D01*
X018551Y007371D01*
X018422Y007500D01*
X018129Y007500D01*
X018076Y007446D01*
X018022Y007500D01*
X017139Y007500D01*
X017091Y007451D01*
X017042Y007500D01*
X016749Y007500D01*
X016696Y007446D01*
X016642Y007500D01*
X016159Y007500D01*
X016106Y007446D01*
X016052Y007500D01*
X015759Y007500D01*
X015711Y007451D01*
X015662Y007500D01*
X015169Y007500D01*
X015041Y007371D01*
X015041Y006529D01*
X015046Y006524D01*
X015046Y006446D01*
X014341Y005742D01*
X013368Y005742D01*
X013356Y005730D02*
X009224Y005730D01*
X009224Y005611D02*
X012670Y005611D01*
X012527Y005493D02*
X009224Y005493D01*
X009224Y005374D02*
X012409Y005374D01*
X012290Y005256D02*
X009224Y005256D01*
X009111Y005137D02*
X012172Y005137D01*
X012053Y005019D02*
X007083Y005019D01*
X007083Y005137D02*
X007139Y005137D01*
X007473Y005475D02*
X007496Y005499D01*
X008107Y005499D01*
X008768Y005499D01*
X009123Y005848D02*
X014447Y005848D01*
X014566Y005967D02*
X009224Y005967D01*
X009224Y006085D02*
X014684Y006085D01*
X014803Y006204D02*
X009224Y006204D01*
X009224Y006322D02*
X012933Y006322D01*
X012822Y006441D02*
X009224Y006441D01*
X009121Y006559D02*
X012822Y006559D01*
X012822Y006678D02*
X001031Y006678D01*
X001031Y006796D02*
X011488Y006796D01*
X011396Y006915D02*
X005798Y006915D01*
X005891Y007033D02*
X011396Y007033D01*
X011396Y007152D02*
X007176Y007152D01*
X007295Y007270D02*
X011290Y007270D01*
X011171Y007389D02*
X007413Y007389D01*
X007532Y007507D02*
X011053Y007507D01*
X010934Y007626D02*
X007650Y007626D01*
X007670Y008041D02*
X006973Y007344D01*
X005601Y007344D01*
X005616Y007810D02*
X004908Y007810D01*
X004908Y008860D01*
X005252Y008860D01*
X005381Y008989D01*
X005381Y009664D01*
X005363Y009681D01*
X005854Y009681D01*
X005983Y009810D01*
X005983Y010352D01*
X005901Y010435D01*
X005901Y010533D01*
X006279Y010533D01*
X006379Y010574D01*
X006930Y011125D01*
X007206Y011125D01*
X007215Y011134D01*
X007224Y011125D01*
X007879Y011125D01*
X007902Y011148D01*
X007925Y011125D01*
X008580Y011125D01*
X008603Y011148D01*
X008626Y011125D01*
X009280Y011125D01*
X009294Y011138D01*
X009307Y011125D01*
X009961Y011125D01*
X010059Y011223D01*
X010262Y011223D01*
X010262Y011087D01*
X010197Y011022D01*
X010155Y010922D01*
X010155Y010403D01*
X010154Y010403D01*
X010025Y010274D01*
X010025Y009731D01*
X010154Y009603D01*
X010697Y009603D01*
X010825Y009731D01*
X010825Y010274D01*
X010697Y010403D01*
X010695Y010403D01*
X010695Y010705D01*
X010933Y010705D01*
X011062Y010834D01*
X011062Y011376D01*
X010933Y011505D01*
X010749Y011505D01*
X011723Y012478D01*
X013318Y012478D01*
X013368Y012428D01*
X014395Y012428D01*
X015041Y011783D01*
X015041Y010949D01*
X015169Y010820D01*
X015636Y010820D01*
X015636Y010320D01*
X015136Y010320D01*
X015136Y010786D01*
X015007Y010915D01*
X014344Y010915D01*
X014338Y010921D01*
X014408Y010991D01*
X014408Y011533D01*
X014279Y011662D01*
X013737Y011662D01*
X013608Y011533D01*
X013608Y011229D01*
X013274Y011563D01*
X013198Y011639D01*
X013099Y011680D01*
X012745Y011680D01*
X012300Y011696D01*
X012300Y011767D01*
X012171Y011896D01*
X011674Y011896D01*
X011545Y011767D01*
X011545Y010804D01*
X011220Y010480D01*
X011179Y010380D01*
X011179Y008953D01*
X011220Y008854D01*
X011784Y008290D01*
X011567Y008073D01*
X011526Y007974D01*
X011526Y007826D01*
X011073Y008278D01*
X010970Y008321D01*
X010846Y008321D01*
X010749Y008418D01*
X010094Y008418D01*
X010057Y008381D01*
X010019Y008418D01*
X009364Y008418D01*
X009322Y008376D01*
X009279Y008418D01*
X008624Y008418D01*
X008592Y008386D01*
X008559Y008418D01*
X007904Y008418D01*
X007852Y008366D01*
X007799Y008418D01*
X007144Y008418D01*
X007078Y008352D01*
X006858Y008573D01*
X006755Y008615D01*
X006548Y008615D01*
X006548Y009006D01*
X006419Y009135D01*
X005745Y009135D01*
X005616Y009006D01*
X005616Y007810D01*
X005616Y007863D02*
X004908Y007863D01*
X004908Y007981D02*
X005616Y007981D01*
X005616Y008100D02*
X004908Y008100D01*
X004908Y008218D02*
X005616Y008218D01*
X005616Y008337D02*
X004908Y008337D01*
X004908Y008455D02*
X005616Y008455D01*
X005616Y008574D02*
X004908Y008574D01*
X004908Y008692D02*
X005616Y008692D01*
X005616Y008811D02*
X004908Y008811D01*
X005321Y008929D02*
X005616Y008929D01*
X005657Y009048D02*
X005381Y009048D01*
X005381Y009166D02*
X011179Y009166D01*
X011179Y009048D02*
X006507Y009048D01*
X006548Y008929D02*
X011189Y008929D01*
X011263Y008811D02*
X006548Y008811D01*
X006548Y008692D02*
X011382Y008692D01*
X011500Y008574D02*
X006855Y008574D01*
X006975Y008455D02*
X011619Y008455D01*
X011737Y008337D02*
X010831Y008337D01*
X010915Y008041D02*
X010422Y008041D01*
X009692Y008041D01*
X008952Y008041D01*
X008232Y008041D01*
X007670Y008041D01*
X007472Y008041D01*
X007465Y008034D01*
X007000Y008034D01*
X006791Y007825D01*
X006082Y007825D01*
X006082Y008335D02*
X006699Y008335D01*
X007000Y008034D01*
X007231Y006559D02*
X007753Y006559D01*
X007705Y006199D02*
X008107Y006207D01*
X008768Y006207D01*
X007705Y006199D02*
X006886Y006199D01*
X006803Y006117D01*
X006803Y004884D01*
X006713Y004794D01*
X006082Y004794D01*
X005616Y004782D02*
X004908Y004782D01*
X004908Y004900D02*
X005616Y004900D01*
X005616Y005019D02*
X004908Y005019D01*
X004908Y005137D02*
X005616Y005137D01*
X005616Y005256D02*
X004908Y005256D01*
X004908Y005319D02*
X005252Y005319D01*
X005346Y005413D01*
X005440Y005319D01*
X005616Y005319D01*
X005616Y004269D01*
X005190Y004269D01*
X004930Y004269D01*
X004908Y004269D01*
X004908Y005319D01*
X005307Y005374D02*
X005385Y005374D01*
X005351Y005353D02*
X005425Y005278D01*
X005351Y005353D02*
X005351Y005785D01*
X005351Y006385D01*
X005425Y006459D01*
X005392Y006204D02*
X005300Y006204D01*
X005810Y006204D02*
X006430Y006204D01*
X006430Y006322D02*
X003399Y006322D01*
X003503Y006204D02*
X004372Y006204D01*
X004291Y006085D02*
X003503Y006085D01*
X003503Y005967D02*
X004291Y005967D01*
X004291Y005848D02*
X003503Y005848D01*
X003503Y005730D02*
X004291Y005730D01*
X004291Y005611D02*
X003437Y005611D01*
X003103Y005947D02*
X002240Y005947D01*
X002236Y005943D01*
X001859Y005967D02*
X001031Y005967D01*
X001031Y006085D02*
X001859Y006085D01*
X001859Y006204D02*
X001031Y006204D01*
X001031Y006322D02*
X001910Y006322D01*
X002563Y006322D02*
X002806Y006322D01*
X002108Y007033D02*
X001031Y007033D01*
X001031Y006915D02*
X004383Y006915D01*
X005891Y006085D02*
X006430Y006085D01*
X006430Y005967D02*
X005891Y005967D01*
X005891Y005848D02*
X006523Y005848D01*
X006523Y005730D02*
X005891Y005730D01*
X005891Y005611D02*
X006523Y005611D01*
X006521Y005493D02*
X006523Y005493D01*
X007083Y004900D02*
X011935Y004900D01*
X011816Y004782D02*
X007064Y004782D01*
X006978Y004663D02*
X011698Y004663D01*
X011579Y004545D02*
X010462Y004545D01*
X010484Y003963D02*
X011729Y003963D01*
X011832Y004005D01*
X012904Y005077D01*
X013278Y005077D01*
X013368Y004987D01*
X014546Y004987D01*
X014546Y004200D01*
X014434Y004200D01*
X014306Y004071D01*
X014306Y003529D01*
X014434Y003400D01*
X014977Y003400D01*
X015106Y003529D01*
X015106Y004071D01*
X015086Y004091D01*
X015086Y004987D01*
X016213Y004987D01*
X016246Y005020D01*
X016246Y004492D01*
X016188Y004492D01*
X016126Y004430D01*
X015992Y004430D01*
X015893Y004389D01*
X015817Y004313D01*
X015567Y004063D01*
X015526Y003964D01*
X015526Y003310D01*
X015524Y003310D01*
X015396Y003181D01*
X015396Y002639D01*
X015524Y002510D01*
X016067Y002510D01*
X016196Y002639D01*
X016196Y003181D01*
X016067Y003310D01*
X016066Y003310D01*
X016066Y003798D01*
X016096Y003829D01*
X016188Y003737D01*
X016776Y003737D01*
X016776Y001106D01*
X016817Y001007D01*
X016893Y000931D01*
X017204Y000620D01*
X001031Y000620D01*
X001031Y002960D01*
X001828Y002960D01*
X001908Y003040D01*
X004692Y003040D01*
X004791Y003081D01*
X004867Y003157D01*
X004908Y003256D01*
X004908Y003337D01*
X004930Y003337D01*
X005762Y003337D01*
X005891Y003465D01*
X005891Y003523D01*
X006327Y003523D01*
X006327Y003307D01*
X006207Y003187D01*
X006207Y002645D01*
X006335Y002516D01*
X006878Y002516D01*
X007007Y002645D01*
X007007Y003187D01*
X006887Y003307D01*
X006887Y003523D01*
X007198Y003523D01*
X007238Y003518D01*
X007253Y003523D01*
X007269Y003523D01*
X007306Y003538D01*
X007345Y003549D01*
X007357Y003559D01*
X007372Y003565D01*
X007401Y003594D01*
X007432Y003619D01*
X007440Y003633D01*
X007451Y003644D01*
X007466Y003681D01*
X007568Y003865D01*
X007784Y003865D01*
X007786Y003867D01*
X007787Y003865D01*
X009713Y003865D01*
X009723Y003874D01*
X009732Y003865D01*
X010387Y003865D01*
X010484Y003963D01*
X010473Y003952D02*
X014306Y003952D01*
X014306Y003834D02*
X007551Y003834D01*
X007485Y003715D02*
X014306Y003715D01*
X014306Y003597D02*
X007404Y003597D01*
X006887Y003478D02*
X014356Y003478D01*
X015055Y003478D02*
X015526Y003478D01*
X015526Y003360D02*
X006887Y003360D01*
X006953Y003241D02*
X015455Y003241D01*
X015396Y003123D02*
X007007Y003123D01*
X007007Y003004D02*
X015396Y003004D01*
X015396Y002886D02*
X007007Y002886D01*
X007007Y002767D02*
X015396Y002767D01*
X015396Y002649D02*
X007007Y002649D01*
X006892Y002530D02*
X015504Y002530D01*
X016087Y002530D02*
X016776Y002530D01*
X016776Y002412D02*
X001031Y002412D01*
X001031Y002530D02*
X006321Y002530D01*
X006207Y002649D02*
X001031Y002649D01*
X001031Y002767D02*
X006207Y002767D01*
X006207Y002886D02*
X001031Y002886D01*
X001872Y003004D02*
X006207Y003004D01*
X006207Y003123D02*
X004833Y003123D01*
X004902Y003241D02*
X006261Y003241D01*
X006327Y003360D02*
X005785Y003360D01*
X005891Y003478D02*
X006327Y003478D01*
X006607Y003803D02*
X005601Y003803D01*
X005616Y004308D02*
X004908Y004308D01*
X004908Y004426D02*
X005616Y004426D01*
X005616Y004545D02*
X004908Y004545D01*
X004908Y004663D02*
X005616Y004663D01*
X006082Y004284D02*
X007219Y004284D01*
X007457Y004243D01*
X006430Y006441D02*
X001031Y006441D01*
X001031Y006559D02*
X006541Y006559D01*
X004100Y004534D02*
X003618Y004534D01*
X003339Y004254D01*
X001864Y005611D02*
X001031Y005611D01*
X001031Y005730D02*
X001859Y005730D01*
X001859Y005848D02*
X001031Y005848D01*
X001031Y007152D02*
X002023Y007152D01*
X002006Y007270D02*
X001031Y007270D01*
X001031Y007389D02*
X002006Y007389D01*
X002006Y007507D02*
X001031Y007507D01*
X001031Y007626D02*
X002006Y007626D01*
X002006Y007744D02*
X001031Y007744D01*
X001031Y007863D02*
X002006Y007863D01*
X002006Y007981D02*
X001031Y007981D01*
X001031Y008100D02*
X002006Y008100D01*
X002006Y008218D02*
X001031Y008218D01*
X001031Y008337D02*
X002006Y008337D01*
X002006Y008455D02*
X001031Y008455D01*
X001031Y008574D02*
X002006Y008574D01*
X002006Y008692D02*
X001031Y008692D01*
X001031Y008811D02*
X002006Y008811D01*
X002028Y008929D02*
X001031Y008929D01*
X001031Y009048D02*
X002120Y009048D01*
X001031Y009166D02*
X004541Y009166D01*
X004541Y009285D02*
X001031Y009285D01*
X001031Y009403D02*
X004541Y009403D01*
X004541Y009522D02*
X001031Y009522D01*
X001031Y009640D02*
X004541Y009640D01*
X005381Y009640D02*
X010117Y009640D01*
X010025Y009759D02*
X005931Y009759D01*
X005983Y009877D02*
X010025Y009877D01*
X010025Y009996D02*
X005983Y009996D01*
X005983Y010114D02*
X010025Y010114D01*
X010025Y010233D02*
X005983Y010233D01*
X005983Y010351D02*
X010103Y010351D01*
X010155Y010470D02*
X005901Y010470D01*
X006393Y010588D02*
X010155Y010588D01*
X010155Y010707D02*
X006511Y010707D01*
X006630Y010825D02*
X010155Y010825D01*
X010164Y010944D02*
X006748Y010944D01*
X006867Y011062D02*
X010237Y011062D01*
X010262Y011181D02*
X010017Y011181D01*
X010351Y011503D02*
X011607Y012758D01*
X013648Y012758D01*
X013696Y012806D01*
X013368Y013183D02*
X013239Y013054D01*
X013239Y013038D01*
X011551Y013038D01*
X011448Y012996D01*
X011369Y012917D01*
X010235Y011783D01*
X010059Y011783D01*
X009961Y011880D01*
X009307Y011880D01*
X009294Y011867D01*
X009280Y011880D01*
X008626Y011880D01*
X008603Y011857D01*
X008580Y011880D01*
X007925Y011880D01*
X007902Y011857D01*
X007879Y011880D01*
X007224Y011880D01*
X007215Y011871D01*
X007206Y011880D01*
X006883Y011880D01*
X006740Y012023D01*
X006641Y012064D01*
X006469Y012064D01*
X006548Y012143D01*
X006548Y012465D01*
X006419Y012594D01*
X005745Y012594D01*
X005616Y012465D01*
X005616Y012143D01*
X005710Y012049D01*
X005616Y011955D01*
X005616Y011269D01*
X004908Y011269D01*
X004908Y012025D01*
X004867Y012124D01*
X004791Y012200D01*
X004692Y012241D01*
X004540Y012241D01*
X004462Y012319D01*
X004742Y012319D01*
X004836Y012413D01*
X004930Y012319D01*
X005252Y012319D01*
X005381Y012448D01*
X005381Y013122D01*
X005252Y013251D01*
X004930Y013251D01*
X004836Y013157D01*
X004742Y013251D01*
X004420Y013251D01*
X004291Y013122D01*
X004291Y012448D01*
X004395Y012344D01*
X003762Y012344D01*
X003660Y012241D01*
X001031Y012241D01*
X001031Y017268D01*
X001106Y017194D01*
X002088Y017194D01*
X002217Y017322D01*
X002217Y018305D01*
X002088Y018434D01*
X001877Y018434D01*
X002112Y018670D01*
X006008Y018670D01*
X005738Y018400D01*
X005657Y018434D01*
X005410Y018434D01*
X005182Y018339D01*
X005008Y018165D01*
X004914Y017937D01*
X004914Y017690D01*
X005008Y017462D01*
X005182Y017288D01*
X005410Y017194D01*
X005657Y017194D01*
X005885Y017288D01*
X006059Y017462D01*
X006154Y017690D01*
X006154Y017937D01*
X006120Y018018D01*
X006457Y018355D01*
X007493Y018355D01*
X007443Y018305D01*
X007443Y017322D01*
X007572Y017194D01*
X007793Y017194D01*
X007793Y016327D01*
X007834Y016228D01*
X007910Y016152D01*
X008935Y015127D01*
X008935Y013316D01*
X008934Y013316D01*
X008805Y013187D01*
X008805Y012645D01*
X008934Y012516D01*
X009476Y012516D01*
X009605Y012645D01*
X009605Y013187D01*
X009476Y013316D01*
X009475Y013316D01*
X009475Y015292D01*
X009434Y015392D01*
X008333Y016492D01*
X008333Y017194D01*
X008554Y017194D01*
X008683Y017322D01*
X008683Y018305D01*
X008633Y018355D01*
X009718Y018355D01*
X009681Y018339D01*
X009506Y018165D01*
X009412Y017937D01*
X009412Y017690D01*
X009506Y017462D01*
X009681Y017288D01*
X009908Y017194D01*
X010155Y017194D01*
X010383Y017288D01*
X010557Y017462D01*
X010652Y017690D01*
X010652Y017937D01*
X010557Y018165D01*
X010383Y018339D01*
X010346Y018355D01*
X011686Y018355D01*
X011649Y018339D01*
X011475Y018165D01*
X011380Y017937D01*
X011380Y017690D01*
X011475Y017462D01*
X011649Y017288D01*
X011877Y017194D01*
X012124Y017194D01*
X012351Y017288D01*
X012526Y017462D01*
X012620Y017690D01*
X012620Y017937D01*
X012526Y018165D01*
X012351Y018339D01*
X012314Y018355D01*
X013739Y018355D01*
X014840Y017253D01*
X014682Y017253D01*
X014553Y017124D01*
X014553Y016582D01*
X014682Y016453D01*
X014722Y016453D01*
X014722Y013134D01*
X014673Y013183D01*
X013368Y013183D01*
X013262Y013077D02*
X009605Y013077D01*
X009597Y013195D02*
X014722Y013195D01*
X014722Y013314D02*
X009478Y013314D01*
X009475Y013432D02*
X014722Y013432D01*
X014722Y013551D02*
X009475Y013551D01*
X009475Y013669D02*
X014722Y013669D01*
X014722Y013788D02*
X009475Y013788D01*
X009475Y013906D02*
X014722Y013906D01*
X014722Y014025D02*
X009475Y014025D01*
X009475Y014143D02*
X014722Y014143D01*
X014722Y014262D02*
X009475Y014262D01*
X009475Y014380D02*
X014722Y014380D01*
X014722Y014499D02*
X009475Y014499D01*
X009475Y014617D02*
X014722Y014617D01*
X014722Y014736D02*
X009475Y014736D01*
X009475Y014854D02*
X014722Y014854D01*
X014722Y014973D02*
X009475Y014973D01*
X009475Y015091D02*
X014722Y015091D01*
X014722Y015210D02*
X009475Y015210D01*
X009460Y015328D02*
X014722Y015328D01*
X014722Y015447D02*
X009379Y015447D01*
X009261Y015565D02*
X014722Y015565D01*
X014722Y015684D02*
X009142Y015684D01*
X009024Y015802D02*
X014722Y015802D01*
X014722Y015921D02*
X008905Y015921D01*
X008787Y016039D02*
X014722Y016039D01*
X014722Y016158D02*
X008668Y016158D01*
X008550Y016276D02*
X014722Y016276D01*
X014722Y016395D02*
X008431Y016395D01*
X008333Y016513D02*
X014622Y016513D01*
X014553Y016632D02*
X008333Y016632D01*
X008333Y016750D02*
X014553Y016750D01*
X014553Y016869D02*
X008333Y016869D01*
X008333Y016987D02*
X014553Y016987D01*
X014553Y017106D02*
X008333Y017106D01*
X008585Y017224D02*
X009835Y017224D01*
X009626Y017343D02*
X008683Y017343D01*
X008683Y017461D02*
X009507Y017461D01*
X009458Y017580D02*
X008683Y017580D01*
X008683Y017698D02*
X009412Y017698D01*
X009412Y017817D02*
X008683Y017817D01*
X008683Y017935D02*
X009412Y017935D01*
X009460Y018054D02*
X008683Y018054D01*
X008683Y018172D02*
X009513Y018172D01*
X009632Y018291D02*
X008683Y018291D01*
X007443Y018291D02*
X006393Y018291D01*
X006274Y018172D02*
X007443Y018172D01*
X007443Y018054D02*
X006156Y018054D01*
X006154Y017935D02*
X007443Y017935D01*
X007443Y017817D02*
X006154Y017817D01*
X006154Y017698D02*
X007443Y017698D01*
X007443Y017580D02*
X006108Y017580D01*
X006058Y017461D02*
X007443Y017461D01*
X007443Y017343D02*
X005940Y017343D01*
X005731Y017224D02*
X007542Y017224D01*
X007793Y017106D02*
X001031Y017106D01*
X001031Y017224D02*
X001075Y017224D01*
X001031Y016987D02*
X007793Y016987D01*
X007793Y016869D02*
X001031Y016869D01*
X001031Y016750D02*
X007793Y016750D01*
X007793Y016632D02*
X001031Y016632D01*
X001031Y016513D02*
X007793Y016513D01*
X007793Y016395D02*
X001031Y016395D01*
X001031Y016276D02*
X007814Y016276D01*
X007904Y016158D02*
X001031Y016158D01*
X001031Y016039D02*
X008023Y016039D01*
X008141Y015921D02*
X001031Y015921D01*
X001031Y015802D02*
X008260Y015802D01*
X008378Y015684D02*
X001031Y015684D01*
X001031Y015565D02*
X008497Y015565D01*
X008615Y015447D02*
X001031Y015447D01*
X001031Y015328D02*
X008734Y015328D01*
X008852Y015210D02*
X001031Y015210D01*
X001031Y015091D02*
X008935Y015091D01*
X008935Y014973D02*
X001031Y014973D01*
X001031Y014854D02*
X008935Y014854D01*
X008935Y014736D02*
X001031Y014736D01*
X001031Y014617D02*
X008935Y014617D01*
X008935Y014499D02*
X001031Y014499D01*
X001031Y014380D02*
X008935Y014380D01*
X008935Y014262D02*
X001031Y014262D01*
X001031Y014143D02*
X008935Y014143D01*
X008935Y014025D02*
X001031Y014025D01*
X001031Y013906D02*
X008935Y013906D01*
X008935Y013788D02*
X001031Y013788D01*
X001031Y013669D02*
X008935Y013669D01*
X008935Y013551D02*
X001031Y013551D01*
X001031Y013432D02*
X008935Y013432D01*
X008931Y013314D02*
X001031Y013314D01*
X001031Y013195D02*
X004364Y013195D01*
X004291Y013077D02*
X003652Y013077D01*
X003610Y013119D02*
X003068Y013119D01*
X002939Y012990D01*
X002939Y012989D01*
X002915Y012989D01*
X002808Y013097D01*
X002153Y013097D01*
X002024Y012968D01*
X002024Y012470D01*
X002153Y012342D01*
X002808Y012342D01*
X002915Y012449D01*
X002939Y012449D01*
X002939Y012448D01*
X003068Y012319D01*
X003610Y012319D01*
X003739Y012448D01*
X003739Y012990D01*
X003610Y013119D01*
X003739Y012958D02*
X004291Y012958D01*
X004291Y012840D02*
X003739Y012840D01*
X003739Y012721D02*
X004291Y012721D01*
X004291Y012603D02*
X003739Y012603D01*
X003739Y012484D02*
X004291Y012484D01*
X004373Y012366D02*
X003656Y012366D01*
X003666Y012247D02*
X001031Y012247D01*
X001031Y012366D02*
X002129Y012366D01*
X002024Y012484D02*
X001031Y012484D01*
X001031Y012603D02*
X002024Y012603D01*
X002024Y012721D02*
X001031Y012721D01*
X001031Y012840D02*
X002024Y012840D01*
X002024Y012958D02*
X001031Y012958D01*
X001031Y013077D02*
X002133Y013077D01*
X002828Y013077D02*
X003025Y013077D01*
X003021Y012366D02*
X002832Y012366D01*
X004534Y012247D02*
X005616Y012247D01*
X005616Y012366D02*
X005298Y012366D01*
X005381Y012484D02*
X005635Y012484D01*
X005381Y012603D02*
X008847Y012603D01*
X008805Y012721D02*
X005381Y012721D01*
X005381Y012840D02*
X008805Y012840D01*
X008805Y012958D02*
X005381Y012958D01*
X005381Y013077D02*
X008805Y013077D01*
X008813Y013195D02*
X005308Y013195D01*
X004874Y013195D02*
X004798Y013195D01*
X004788Y012366D02*
X004883Y012366D01*
X004862Y012129D02*
X005630Y012129D01*
X005671Y012010D02*
X004908Y012010D01*
X004908Y011892D02*
X005616Y011892D01*
X005616Y011773D02*
X004908Y011773D01*
X004908Y011655D02*
X005616Y011655D01*
X005616Y011536D02*
X004908Y011536D01*
X004908Y011418D02*
X005616Y011418D01*
X005616Y011299D02*
X004908Y011299D01*
X006534Y012129D02*
X010581Y012129D01*
X010699Y012247D02*
X006548Y012247D01*
X006548Y012366D02*
X010818Y012366D01*
X010936Y012484D02*
X006529Y012484D01*
X006753Y012010D02*
X010462Y012010D01*
X010344Y011892D02*
X006871Y011892D01*
X007000Y011577D02*
X007477Y011577D01*
X007551Y011503D01*
X008252Y011503D01*
X008953Y011503D01*
X009634Y011503D01*
X010351Y011503D01*
X010780Y011536D02*
X011545Y011536D01*
X011545Y011418D02*
X011020Y011418D01*
X011062Y011299D02*
X011545Y011299D01*
X011545Y011181D02*
X011062Y011181D01*
X011062Y011062D02*
X011545Y011062D01*
X011545Y010944D02*
X011062Y010944D01*
X011053Y010825D02*
X011545Y010825D01*
X011447Y010707D02*
X010934Y010707D01*
X010695Y010588D02*
X011329Y010588D01*
X011216Y010470D02*
X010695Y010470D01*
X010748Y010351D02*
X011179Y010351D01*
X011179Y010233D02*
X010825Y010233D01*
X010825Y010114D02*
X011179Y010114D01*
X011179Y009996D02*
X010825Y009996D01*
X010825Y009877D02*
X011179Y009877D01*
X011179Y009759D02*
X010825Y009759D01*
X010734Y009640D02*
X011179Y009640D01*
X011179Y009522D02*
X005381Y009522D01*
X005381Y009403D02*
X011179Y009403D01*
X011179Y009285D02*
X005381Y009285D01*
X009563Y012603D02*
X011055Y012603D01*
X011173Y012721D02*
X009605Y012721D01*
X009605Y012840D02*
X011292Y012840D01*
X011410Y012958D02*
X009605Y012958D01*
X011254Y012010D02*
X014814Y012010D01*
X014932Y011892D02*
X012176Y011892D01*
X012294Y011773D02*
X015041Y011773D01*
X015041Y011655D02*
X014287Y011655D01*
X014406Y011536D02*
X015041Y011536D01*
X015041Y011418D02*
X014408Y011418D01*
X014408Y011299D02*
X015041Y011299D01*
X015041Y011181D02*
X014408Y011181D01*
X014408Y011062D02*
X015041Y011062D01*
X015046Y010944D02*
X014360Y010944D01*
X015097Y010825D02*
X015164Y010825D01*
X015136Y010707D02*
X015636Y010707D01*
X015636Y010588D02*
X015136Y010588D01*
X015136Y010470D02*
X015636Y010470D01*
X015636Y010351D02*
X015136Y010351D01*
X015136Y009759D02*
X018456Y009759D01*
X018456Y009877D02*
X016034Y009877D01*
X016142Y009996D02*
X018456Y009996D01*
X018456Y010114D02*
X016176Y010114D01*
X016176Y010233D02*
X018456Y010233D01*
X018456Y010351D02*
X016176Y010351D01*
X016176Y010470D02*
X018456Y010470D01*
X018456Y010588D02*
X016176Y010588D01*
X016176Y010707D02*
X018456Y010707D01*
X018427Y010825D02*
X018494Y010825D01*
X018545Y010944D02*
X020495Y010944D01*
X020376Y011062D02*
X018551Y011062D01*
X018124Y010825D02*
X018027Y010825D01*
X017724Y010825D02*
X017637Y010825D01*
X018551Y011629D02*
X018551Y011791D01*
X018422Y011920D01*
X018146Y011920D01*
X018146Y015378D01*
X019657Y016890D01*
X027184Y016890D01*
X027526Y016548D01*
X027526Y011565D01*
X026764Y011565D01*
X026636Y011436D01*
X026636Y010534D01*
X026659Y010510D01*
X026636Y010486D01*
X026636Y009114D01*
X026654Y009095D01*
X026636Y009076D01*
X026636Y008334D01*
X026659Y008310D01*
X026636Y008286D01*
X026636Y007384D01*
X026764Y007255D01*
X027069Y007255D01*
X027526Y006798D01*
X027526Y006392D01*
X027468Y006392D01*
X027339Y006263D01*
X027339Y005766D01*
X027445Y005660D01*
X027339Y005554D01*
X027339Y005057D01*
X027361Y005035D01*
X027339Y005013D01*
X027339Y004516D01*
X027468Y004387D01*
X028123Y004387D01*
X028252Y004516D01*
X028252Y005013D01*
X028230Y005035D01*
X028252Y005057D01*
X028252Y005554D01*
X028146Y005660D01*
X028252Y005766D01*
X028252Y006263D01*
X028123Y006392D01*
X028066Y006392D01*
X028066Y006964D01*
X028024Y007063D01*
X027948Y007139D01*
X027656Y007432D01*
X027656Y007880D01*
X027704Y007880D01*
X027704Y007823D01*
X027833Y007694D01*
X028330Y007694D01*
X028459Y007823D01*
X028459Y008385D01*
X028552Y008291D01*
X029094Y008291D01*
X029223Y008420D01*
X029223Y008963D01*
X029094Y009091D01*
X028552Y009091D01*
X028479Y009018D01*
X028479Y009450D01*
X030374Y009450D01*
X030776Y009048D01*
X030776Y001522D01*
X030674Y001420D01*
X029937Y001420D01*
X029948Y001431D01*
X029948Y001431D01*
X030024Y001507D01*
X030066Y001606D01*
X030066Y001633D01*
X030130Y001660D01*
X030296Y001826D01*
X030386Y002043D01*
X030386Y002277D01*
X030296Y002494D01*
X030130Y002660D01*
X029913Y002750D01*
X029678Y002750D01*
X029461Y002660D01*
X029325Y002524D01*
X029296Y002594D01*
X029130Y002760D01*
X028913Y002850D01*
X028678Y002850D01*
X028461Y002760D01*
X028295Y002594D01*
X028206Y002377D01*
X028206Y002143D01*
X028295Y001926D01*
X028461Y001760D01*
X028654Y001680D01*
X026937Y001680D01*
X027130Y001760D01*
X027296Y001926D01*
X027386Y002143D01*
X027386Y002377D01*
X027296Y002594D01*
X027130Y002760D01*
X026913Y002850D01*
X026706Y002850D01*
X026706Y006864D01*
X026701Y006876D01*
X026701Y007191D01*
X026572Y007320D01*
X024879Y007320D01*
X024861Y007301D01*
X024842Y007320D01*
X022519Y007320D01*
X022391Y007191D01*
X022391Y006429D01*
X022418Y006402D01*
X022381Y006364D01*
X021676Y006364D01*
X021577Y006323D01*
X021434Y006180D01*
X020302Y006180D01*
X020203Y006139D01*
X019953Y005889D01*
X019877Y005813D01*
X019836Y005714D01*
X019836Y004879D01*
X019816Y004859D01*
X019816Y004461D01*
X020026Y004251D01*
X020026Y002705D01*
X019879Y002705D01*
X019751Y002576D01*
X019751Y001744D01*
X019879Y001615D01*
X020712Y001615D01*
X020841Y001744D01*
X020841Y002576D01*
X020712Y002705D01*
X020566Y002705D01*
X020566Y004251D01*
X020776Y004461D01*
X020776Y004859D01*
X020494Y005140D01*
X020376Y005140D01*
X020376Y005548D01*
X020467Y005640D01*
X021599Y005640D01*
X021698Y005681D01*
X021774Y005757D01*
X021842Y005824D01*
X022381Y005824D01*
X022488Y005717D01*
X023143Y005717D01*
X023272Y005846D01*
X023272Y006300D01*
X023424Y006300D01*
X023357Y006233D01*
X023316Y006134D01*
X023316Y005533D01*
X022992Y005060D01*
X022774Y005060D01*
X022646Y004931D01*
X022646Y004389D01*
X022774Y004260D01*
X023317Y004260D01*
X023446Y004389D01*
X023446Y004767D01*
X023794Y005277D01*
X023814Y005297D01*
X023824Y005321D01*
X023839Y005342D01*
X023845Y005370D01*
X023856Y005396D01*
X023856Y005422D01*
X023857Y005430D01*
X024276Y005430D01*
X024276Y005136D01*
X024111Y004972D01*
X023788Y004972D01*
X023659Y004843D01*
X023659Y004346D01*
X023765Y004240D01*
X023659Y004134D01*
X023659Y003637D01*
X023772Y003524D01*
X023772Y003083D01*
X023901Y002954D01*
X023957Y002954D01*
X023893Y002889D01*
X023817Y002813D01*
X023776Y002714D01*
X023776Y001606D01*
X023817Y001507D01*
X023893Y001431D01*
X023904Y001420D01*
X017977Y001420D01*
X017956Y001442D01*
X017956Y004800D01*
X018018Y004737D01*
X018673Y004737D01*
X018802Y004866D01*
X018802Y005363D01*
X018741Y005424D01*
X018776Y005459D01*
X018776Y006001D01*
X018647Y006130D01*
X018357Y006130D01*
X018146Y006342D01*
X018146Y006400D01*
X018422Y006400D01*
X018551Y006529D01*
X018551Y006703D01*
X020599Y006703D01*
X020695Y006743D01*
X020768Y006816D01*
X021212Y007260D01*
X021559Y007260D01*
X021564Y007255D01*
X022327Y007255D01*
X022456Y007384D01*
X022456Y009450D01*
X022549Y009450D01*
X022648Y009491D01*
X022748Y009591D01*
X022824Y009667D01*
X022866Y009766D01*
X022866Y011500D01*
X024212Y011500D01*
X024231Y011519D01*
X024249Y011500D01*
X026572Y011500D01*
X026701Y011629D01*
X026701Y012391D01*
X026679Y012412D01*
X027198Y012931D01*
X027274Y013007D01*
X027316Y013106D01*
X027316Y014260D01*
X027317Y014260D01*
X027446Y014389D01*
X027446Y014931D01*
X027317Y015060D01*
X026774Y015060D01*
X026671Y014956D01*
X026567Y015060D01*
X026024Y015060D01*
X025896Y014931D01*
X025896Y014389D01*
X026024Y014260D01*
X026026Y014260D01*
X026026Y013333D01*
X025478Y013333D01*
X025371Y013226D01*
X025140Y013226D01*
X025023Y013343D01*
X024368Y013343D01*
X024239Y013214D01*
X024239Y012717D01*
X024368Y012588D01*
X024436Y012588D01*
X024436Y012520D01*
X024249Y012520D01*
X024231Y012501D01*
X024212Y012520D01*
X023716Y012520D01*
X023716Y013448D01*
X025274Y015007D01*
X025316Y015106D01*
X025316Y015583D01*
X025380Y015610D01*
X025546Y015776D01*
X025636Y015993D01*
X025636Y016227D01*
X025546Y016444D01*
X025380Y016610D01*
X025163Y016700D01*
X024928Y016700D01*
X024711Y016610D01*
X024575Y016474D01*
X024546Y016544D01*
X024380Y016710D01*
X024163Y016800D01*
X023928Y016800D01*
X023711Y016710D01*
X023545Y016544D01*
X023516Y016474D01*
X023380Y016610D01*
X023163Y016700D01*
X022928Y016700D01*
X022711Y016610D01*
X022575Y016474D01*
X022546Y016544D01*
X022380Y016710D01*
X022163Y016800D01*
X021928Y016800D01*
X021711Y016710D01*
X021545Y016544D01*
X021456Y016327D01*
X021456Y016093D01*
X021545Y015876D01*
X021711Y015710D01*
X021928Y015620D01*
X022163Y015620D01*
X022380Y015710D01*
X022516Y015846D01*
X022545Y015776D01*
X022711Y015610D01*
X022856Y015550D01*
X022856Y012520D01*
X022679Y012520D01*
X022551Y012391D01*
X022551Y011957D01*
X022316Y012192D01*
X022316Y013010D01*
X022317Y013010D01*
X022446Y013139D01*
X022446Y013681D01*
X022317Y013810D01*
X022316Y013810D01*
X022316Y014714D01*
X022274Y014813D01*
X022198Y014889D01*
X022178Y014909D01*
X022079Y014950D01*
X022067Y014950D01*
X022067Y015007D01*
X021938Y015136D01*
X021615Y015136D01*
X020891Y015860D01*
X020904Y015873D01*
X020904Y016415D01*
X020775Y016544D01*
X020233Y016544D01*
X020104Y016415D01*
X020104Y015873D01*
X020233Y015744D01*
X020262Y015744D01*
X020275Y015713D01*
X021312Y014676D01*
X021312Y014353D01*
X021441Y014224D01*
X021776Y014224D01*
X021776Y013810D01*
X021774Y013810D01*
X021646Y013681D01*
X021646Y013144D01*
X020850Y013144D01*
X020721Y013015D01*
X020721Y012203D01*
X020850Y012074D01*
X021027Y012074D01*
X021067Y011977D01*
X021143Y011901D01*
X021213Y011831D01*
X021312Y011790D01*
X021634Y011790D01*
X021859Y011565D01*
X021564Y011565D01*
X021436Y011436D01*
X021436Y010930D01*
X021244Y010930D01*
X020658Y011516D01*
X020585Y011589D01*
X020489Y011629D01*
X018551Y011629D01*
X018551Y011655D02*
X021769Y011655D01*
X021651Y011773D02*
X018551Y011773D01*
X018450Y011892D02*
X021152Y011892D01*
X021053Y012010D02*
X018146Y012010D01*
X018146Y012129D02*
X020795Y012129D01*
X020721Y012247D02*
X018146Y012247D01*
X018146Y012366D02*
X020721Y012366D01*
X020721Y012484D02*
X018146Y012484D01*
X018146Y012603D02*
X020721Y012603D01*
X020721Y012721D02*
X018146Y012721D01*
X018146Y012840D02*
X020721Y012840D01*
X020721Y012958D02*
X018146Y012958D01*
X018146Y013077D02*
X020783Y013077D01*
X021646Y013195D02*
X018146Y013195D01*
X018146Y013314D02*
X021646Y013314D01*
X021646Y013432D02*
X018146Y013432D01*
X018146Y013551D02*
X021646Y013551D01*
X021646Y013669D02*
X018146Y013669D01*
X018146Y013788D02*
X021752Y013788D01*
X021776Y013906D02*
X018146Y013906D01*
X018146Y014025D02*
X021776Y014025D01*
X021776Y014143D02*
X018146Y014143D01*
X018146Y014262D02*
X021403Y014262D01*
X021312Y014380D02*
X018146Y014380D01*
X018146Y014499D02*
X021312Y014499D01*
X021312Y014617D02*
X018146Y014617D01*
X018146Y014736D02*
X021252Y014736D01*
X021134Y014854D02*
X018146Y014854D01*
X018146Y014973D02*
X021015Y014973D01*
X020897Y015091D02*
X018146Y015091D01*
X018146Y015210D02*
X020778Y015210D01*
X020660Y015328D02*
X018146Y015328D01*
X018214Y015447D02*
X020541Y015447D01*
X020423Y015565D02*
X018332Y015565D01*
X018451Y015684D02*
X020304Y015684D01*
X020175Y015802D02*
X018569Y015802D01*
X018688Y015921D02*
X020104Y015921D01*
X020104Y016039D02*
X018806Y016039D01*
X018925Y016158D02*
X020104Y016158D01*
X020104Y016276D02*
X019043Y016276D01*
X019162Y016395D02*
X020104Y016395D01*
X020202Y016513D02*
X019280Y016513D01*
X019399Y016632D02*
X021633Y016632D01*
X021532Y016513D02*
X020807Y016513D01*
X020904Y016395D02*
X021483Y016395D01*
X021456Y016276D02*
X020904Y016276D01*
X020904Y016158D02*
X021456Y016158D01*
X021478Y016039D02*
X020904Y016039D01*
X020904Y015921D02*
X021527Y015921D01*
X021619Y015802D02*
X020950Y015802D01*
X021068Y015684D02*
X021775Y015684D01*
X021424Y015328D02*
X022856Y015328D01*
X022856Y015210D02*
X021542Y015210D01*
X021305Y015447D02*
X022856Y015447D01*
X022819Y015565D02*
X021187Y015565D01*
X021984Y015091D02*
X022856Y015091D01*
X022856Y014973D02*
X022067Y014973D01*
X022233Y014854D02*
X022856Y014854D01*
X022856Y014736D02*
X022306Y014736D01*
X022316Y014617D02*
X022856Y014617D01*
X022856Y014499D02*
X022316Y014499D01*
X022316Y014380D02*
X022856Y014380D01*
X022856Y014262D02*
X022316Y014262D01*
X022316Y014143D02*
X022856Y014143D01*
X022856Y014025D02*
X022316Y014025D01*
X022316Y013906D02*
X022856Y013906D01*
X022856Y013788D02*
X022339Y013788D01*
X022446Y013669D02*
X022856Y013669D01*
X022856Y013551D02*
X022446Y013551D01*
X022446Y013432D02*
X022856Y013432D01*
X022856Y013314D02*
X022446Y013314D01*
X022446Y013195D02*
X022856Y013195D01*
X022856Y013077D02*
X022383Y013077D01*
X022316Y012958D02*
X022856Y012958D01*
X022856Y012840D02*
X022316Y012840D01*
X022316Y012721D02*
X022856Y012721D01*
X022856Y012603D02*
X022316Y012603D01*
X022316Y012484D02*
X022643Y012484D01*
X022551Y012366D02*
X022316Y012366D01*
X022316Y012247D02*
X022551Y012247D01*
X022551Y012129D02*
X022379Y012129D01*
X022497Y012010D02*
X022551Y012010D01*
X022866Y011418D02*
X026636Y011418D01*
X026636Y011299D02*
X022866Y011299D01*
X022866Y011181D02*
X026636Y011181D01*
X026636Y011062D02*
X022866Y011062D01*
X022866Y010944D02*
X026636Y010944D01*
X026636Y010825D02*
X022866Y010825D01*
X022866Y010707D02*
X026636Y010707D01*
X026636Y010588D02*
X022866Y010588D01*
X022866Y010470D02*
X026636Y010470D01*
X026636Y010351D02*
X022866Y010351D01*
X022866Y010233D02*
X026636Y010233D01*
X026636Y010114D02*
X022866Y010114D01*
X022866Y009996D02*
X026636Y009996D01*
X026636Y009877D02*
X022866Y009877D01*
X022862Y009759D02*
X026636Y009759D01*
X026636Y009640D02*
X022797Y009640D01*
X022679Y009522D02*
X026636Y009522D01*
X026636Y009403D02*
X022456Y009403D01*
X022456Y009285D02*
X026636Y009285D01*
X026636Y009166D02*
X022456Y009166D01*
X022456Y009048D02*
X026636Y009048D01*
X026636Y008929D02*
X022456Y008929D01*
X022456Y008811D02*
X026636Y008811D01*
X026636Y008692D02*
X022456Y008692D01*
X022456Y008574D02*
X026636Y008574D01*
X026636Y008455D02*
X022456Y008455D01*
X022456Y008337D02*
X026636Y008337D01*
X026636Y008218D02*
X022456Y008218D01*
X022456Y008100D02*
X026636Y008100D01*
X026636Y007981D02*
X022456Y007981D01*
X022456Y007863D02*
X026636Y007863D01*
X026636Y007744D02*
X022456Y007744D01*
X022456Y007626D02*
X026636Y007626D01*
X026636Y007507D02*
X022456Y007507D01*
X022456Y007389D02*
X026636Y007389D01*
X026622Y007270D02*
X026749Y007270D01*
X026701Y007152D02*
X027172Y007152D01*
X027291Y007033D02*
X026701Y007033D01*
X026701Y006915D02*
X027409Y006915D01*
X027526Y006796D02*
X026706Y006796D01*
X026706Y006678D02*
X027526Y006678D01*
X027526Y006559D02*
X026706Y006559D01*
X026706Y006441D02*
X027526Y006441D01*
X027398Y006322D02*
X026706Y006322D01*
X026706Y006204D02*
X027339Y006204D01*
X027339Y006085D02*
X026706Y006085D01*
X026706Y005967D02*
X027339Y005967D01*
X027339Y005848D02*
X026706Y005848D01*
X026706Y005730D02*
X027376Y005730D01*
X027396Y005611D02*
X026706Y005611D01*
X026706Y005493D02*
X027339Y005493D01*
X027339Y005374D02*
X026706Y005374D01*
X026706Y005256D02*
X027339Y005256D01*
X027339Y005137D02*
X026706Y005137D01*
X026706Y005019D02*
X027345Y005019D01*
X027339Y004900D02*
X026706Y004900D01*
X026706Y004782D02*
X027339Y004782D01*
X027339Y004663D02*
X026706Y004663D01*
X026706Y004545D02*
X027339Y004545D01*
X027429Y004426D02*
X026706Y004426D01*
X026706Y004308D02*
X030776Y004308D01*
X030776Y004426D02*
X028162Y004426D01*
X028252Y004545D02*
X030776Y004545D01*
X030776Y004663D02*
X028252Y004663D01*
X028252Y004782D02*
X030776Y004782D01*
X030776Y004900D02*
X028252Y004900D01*
X028246Y005019D02*
X030776Y005019D01*
X030776Y005137D02*
X028252Y005137D01*
X028252Y005256D02*
X030776Y005256D01*
X030776Y005374D02*
X028252Y005374D01*
X028252Y005493D02*
X030776Y005493D01*
X030776Y005611D02*
X028195Y005611D01*
X028216Y005730D02*
X030776Y005730D01*
X030776Y005848D02*
X028252Y005848D01*
X028252Y005967D02*
X030776Y005967D01*
X030776Y006085D02*
X028252Y006085D01*
X028252Y006204D02*
X030776Y006204D01*
X030776Y006322D02*
X028193Y006322D01*
X028066Y006441D02*
X030776Y006441D01*
X030776Y006559D02*
X028066Y006559D01*
X028066Y006678D02*
X030776Y006678D01*
X030776Y006796D02*
X028066Y006796D01*
X028066Y006915D02*
X030776Y006915D01*
X030776Y007033D02*
X028037Y007033D01*
X027936Y007152D02*
X030776Y007152D01*
X030776Y007270D02*
X027817Y007270D01*
X027699Y007389D02*
X030776Y007389D01*
X030776Y007507D02*
X027656Y007507D01*
X027656Y007626D02*
X030776Y007626D01*
X030776Y007744D02*
X028380Y007744D01*
X028459Y007863D02*
X030776Y007863D01*
X030776Y007981D02*
X028459Y007981D01*
X028459Y008100D02*
X030776Y008100D01*
X030776Y008218D02*
X028459Y008218D01*
X028459Y008337D02*
X028507Y008337D01*
X029139Y008337D02*
X030776Y008337D01*
X030776Y008455D02*
X029223Y008455D01*
X029223Y008574D02*
X030776Y008574D01*
X030776Y008692D02*
X029223Y008692D01*
X029223Y008811D02*
X030776Y008811D01*
X030776Y008929D02*
X029223Y008929D01*
X029138Y009048D02*
X030776Y009048D01*
X030658Y009166D02*
X028479Y009166D01*
X028479Y009048D02*
X028508Y009048D01*
X028479Y009285D02*
X030539Y009285D01*
X030421Y009403D02*
X028479Y009403D01*
X027724Y008980D02*
X027724Y008923D01*
X027831Y008815D01*
X027831Y008605D01*
X027704Y008477D01*
X027704Y008420D01*
X027656Y008420D01*
X027656Y008980D01*
X027724Y008980D01*
X027724Y008929D02*
X027656Y008929D01*
X027656Y008811D02*
X027831Y008811D01*
X027831Y008692D02*
X027656Y008692D01*
X027656Y008574D02*
X027800Y008574D01*
X027704Y008455D02*
X027656Y008455D01*
X027656Y007863D02*
X027704Y007863D01*
X027656Y007744D02*
X027782Y007744D01*
X025526Y005697D02*
X024888Y005697D01*
X024816Y005770D01*
X024816Y004971D01*
X024774Y004871D01*
X024572Y004669D01*
X024572Y004346D01*
X024466Y004240D01*
X024572Y004134D01*
X024572Y003866D01*
X024940Y003866D01*
X025046Y003760D01*
X025130Y003845D01*
X025130Y004010D01*
X025024Y004010D01*
X024896Y004139D01*
X024896Y004681D01*
X025024Y004810D01*
X025526Y004810D01*
X025526Y005697D01*
X025526Y005611D02*
X024816Y005611D01*
X024816Y005493D02*
X025526Y005493D01*
X025526Y005374D02*
X024816Y005374D01*
X024816Y005256D02*
X025526Y005256D01*
X025526Y005137D02*
X024816Y005137D01*
X024816Y005019D02*
X025526Y005019D01*
X025526Y004900D02*
X024786Y004900D01*
X024685Y004782D02*
X024996Y004782D01*
X024896Y004663D02*
X024572Y004663D01*
X024572Y004545D02*
X024896Y004545D01*
X024896Y004426D02*
X024572Y004426D01*
X024534Y004308D02*
X024896Y004308D01*
X024896Y004189D02*
X024517Y004189D01*
X024572Y004071D02*
X024964Y004071D01*
X025130Y003952D02*
X024572Y003952D01*
X024973Y003834D02*
X025119Y003834D01*
X023772Y003478D02*
X020566Y003478D01*
X020566Y003360D02*
X023772Y003360D01*
X023772Y003241D02*
X020566Y003241D01*
X020566Y003123D02*
X023772Y003123D01*
X023851Y003004D02*
X020566Y003004D01*
X020566Y002886D02*
X023889Y002886D01*
X023798Y002767D02*
X020566Y002767D01*
X020768Y002649D02*
X023776Y002649D01*
X023776Y002530D02*
X020841Y002530D01*
X020841Y002412D02*
X023776Y002412D01*
X023776Y002293D02*
X020841Y002293D01*
X020841Y002175D02*
X023776Y002175D01*
X023776Y002056D02*
X020841Y002056D01*
X020841Y001938D02*
X023776Y001938D01*
X023776Y001819D02*
X020841Y001819D01*
X020797Y001701D02*
X023776Y001701D01*
X023786Y001582D02*
X017956Y001582D01*
X017956Y001464D02*
X023860Y001464D01*
X023893Y001431D02*
X023893Y001431D01*
X026706Y002886D02*
X030776Y002886D01*
X030776Y003004D02*
X026706Y003004D01*
X026706Y003123D02*
X030776Y003123D01*
X030776Y003241D02*
X026706Y003241D01*
X026706Y003360D02*
X030776Y003360D01*
X030776Y003478D02*
X026706Y003478D01*
X026706Y003597D02*
X030776Y003597D01*
X030776Y003715D02*
X026706Y003715D01*
X026706Y003834D02*
X030776Y003834D01*
X030776Y003952D02*
X026706Y003952D01*
X026706Y004071D02*
X030776Y004071D01*
X030776Y004189D02*
X026706Y004189D01*
X027113Y002767D02*
X028478Y002767D01*
X028350Y002649D02*
X027241Y002649D01*
X027322Y002530D02*
X028269Y002530D01*
X028220Y002412D02*
X027371Y002412D01*
X027386Y002293D02*
X028206Y002293D01*
X028206Y002175D02*
X027386Y002175D01*
X027350Y002056D02*
X028241Y002056D01*
X028290Y001938D02*
X027301Y001938D01*
X027189Y001819D02*
X028402Y001819D01*
X028605Y001701D02*
X026987Y001701D01*
X029113Y002767D02*
X030776Y002767D01*
X030776Y002649D02*
X030141Y002649D01*
X030260Y002530D02*
X030776Y002530D01*
X030776Y002412D02*
X030330Y002412D01*
X030379Y002293D02*
X030776Y002293D01*
X030776Y002175D02*
X030386Y002175D01*
X030386Y002056D02*
X030776Y002056D01*
X030776Y001938D02*
X030342Y001938D01*
X030289Y001819D02*
X030776Y001819D01*
X030776Y001701D02*
X030170Y001701D01*
X030055Y001582D02*
X030776Y001582D01*
X030717Y001464D02*
X029981Y001464D01*
X029331Y002530D02*
X029322Y002530D01*
X029241Y002649D02*
X029450Y002649D01*
X024856Y005730D02*
X024816Y005730D01*
X024276Y005374D02*
X023846Y005374D01*
X023780Y005256D02*
X024276Y005256D01*
X024276Y005137D02*
X023699Y005137D01*
X023618Y005019D02*
X024158Y005019D01*
X023716Y004900D02*
X023537Y004900D01*
X023456Y004782D02*
X023659Y004782D01*
X023659Y004663D02*
X023446Y004663D01*
X023446Y004545D02*
X023659Y004545D01*
X023659Y004426D02*
X023446Y004426D01*
X023364Y004308D02*
X023698Y004308D01*
X023714Y004189D02*
X022752Y004189D01*
X022752Y004263D02*
X022623Y004392D01*
X022566Y004392D01*
X022566Y004464D01*
X022524Y004563D01*
X022274Y004813D01*
X022198Y004889D01*
X022099Y004930D01*
X021704Y004930D01*
X021494Y005140D01*
X021097Y005140D01*
X020816Y004859D01*
X020816Y004461D01*
X021097Y004180D01*
X021494Y004180D01*
X021704Y004390D01*
X021934Y004390D01*
X021950Y004374D01*
X021839Y004263D01*
X021839Y003766D01*
X021968Y003637D01*
X022623Y003637D01*
X022752Y003766D01*
X022752Y004263D01*
X022727Y004308D02*
X022707Y004308D01*
X022646Y004426D02*
X022566Y004426D01*
X022532Y004545D02*
X022646Y004545D01*
X022646Y004663D02*
X022424Y004663D01*
X022306Y004782D02*
X022646Y004782D01*
X022646Y004900D02*
X022172Y004900D01*
X021616Y005019D02*
X022733Y005019D01*
X023045Y005137D02*
X021497Y005137D01*
X021094Y005137D02*
X020497Y005137D01*
X020616Y005019D02*
X020975Y005019D01*
X020857Y004900D02*
X020734Y004900D01*
X020776Y004782D02*
X020816Y004782D01*
X020816Y004663D02*
X020776Y004663D01*
X020776Y004545D02*
X020816Y004545D01*
X020851Y004426D02*
X020740Y004426D01*
X020622Y004308D02*
X020969Y004308D01*
X021088Y004189D02*
X020566Y004189D01*
X020566Y004071D02*
X021839Y004071D01*
X021839Y004189D02*
X021503Y004189D01*
X021622Y004308D02*
X021884Y004308D01*
X021839Y003952D02*
X020566Y003952D01*
X020566Y003834D02*
X021839Y003834D01*
X021890Y003715D02*
X020566Y003715D01*
X020566Y003597D02*
X023700Y003597D01*
X023659Y003715D02*
X022701Y003715D01*
X022752Y003834D02*
X023659Y003834D01*
X023659Y003952D02*
X022752Y003952D01*
X022752Y004071D02*
X023659Y004071D01*
X023126Y005256D02*
X020376Y005256D01*
X020376Y005374D02*
X023207Y005374D01*
X023288Y005493D02*
X020376Y005493D01*
X020438Y005611D02*
X023316Y005611D01*
X023316Y005730D02*
X023156Y005730D01*
X023272Y005848D02*
X023316Y005848D01*
X023316Y005967D02*
X023272Y005967D01*
X023272Y006085D02*
X023316Y006085D01*
X023344Y006204D02*
X023272Y006204D01*
X022391Y006441D02*
X018462Y006441D01*
X018551Y006559D02*
X022391Y006559D01*
X022391Y006678D02*
X018551Y006678D01*
X018165Y006322D02*
X021576Y006322D01*
X021457Y006204D02*
X018284Y006204D01*
X018692Y006085D02*
X020149Y006085D01*
X020030Y005967D02*
X018776Y005967D01*
X018776Y005848D02*
X019912Y005848D01*
X019842Y005730D02*
X018776Y005730D01*
X018776Y005611D02*
X019836Y005611D01*
X019836Y005493D02*
X018776Y005493D01*
X018791Y005374D02*
X019836Y005374D01*
X019836Y005256D02*
X018802Y005256D01*
X018802Y005137D02*
X019836Y005137D01*
X019836Y005019D02*
X018802Y005019D01*
X018802Y004900D02*
X019836Y004900D01*
X019816Y004782D02*
X018718Y004782D01*
X017974Y004782D02*
X017956Y004782D01*
X017956Y004663D02*
X019816Y004663D01*
X019816Y004545D02*
X017956Y004545D01*
X017956Y004426D02*
X019851Y004426D01*
X019969Y004308D02*
X017956Y004308D01*
X017956Y004189D02*
X020026Y004189D01*
X020026Y004071D02*
X017956Y004071D01*
X017956Y003952D02*
X020026Y003952D01*
X020026Y003834D02*
X017956Y003834D01*
X017956Y003715D02*
X020026Y003715D01*
X020026Y003597D02*
X017956Y003597D01*
X017956Y003478D02*
X020026Y003478D01*
X020026Y003360D02*
X017956Y003360D01*
X017956Y003241D02*
X020026Y003241D01*
X020026Y003123D02*
X017956Y003123D01*
X017956Y003004D02*
X020026Y003004D01*
X020026Y002886D02*
X017956Y002886D01*
X017956Y002767D02*
X020026Y002767D01*
X019823Y002649D02*
X017956Y002649D01*
X017956Y002530D02*
X019751Y002530D01*
X019751Y002412D02*
X017956Y002412D01*
X017956Y002293D02*
X019751Y002293D01*
X019751Y002175D02*
X017956Y002175D01*
X017956Y002056D02*
X019751Y002056D01*
X019751Y001938D02*
X017956Y001938D01*
X017956Y001819D02*
X019751Y001819D01*
X019794Y001701D02*
X017956Y001701D01*
X016776Y001701D02*
X001031Y001701D01*
X001031Y001819D02*
X016776Y001819D01*
X016776Y001938D02*
X001031Y001938D01*
X001031Y002056D02*
X016776Y002056D01*
X016776Y002175D02*
X001031Y002175D01*
X001031Y002293D02*
X016776Y002293D01*
X016776Y002649D02*
X016196Y002649D01*
X016196Y002767D02*
X016776Y002767D01*
X016776Y002886D02*
X016196Y002886D01*
X016196Y003004D02*
X016776Y003004D01*
X016776Y003123D02*
X016196Y003123D01*
X016136Y003241D02*
X016776Y003241D01*
X016776Y003360D02*
X016066Y003360D01*
X016066Y003478D02*
X016776Y003478D01*
X016776Y003597D02*
X016066Y003597D01*
X016066Y003715D02*
X016776Y003715D01*
X015811Y004308D02*
X015086Y004308D01*
X015086Y004426D02*
X015982Y004426D01*
X016246Y004545D02*
X015086Y004545D01*
X015086Y004663D02*
X016246Y004663D01*
X016246Y004782D02*
X015086Y004782D01*
X015086Y004900D02*
X016246Y004900D01*
X016245Y005019D02*
X016246Y005019D01*
X015693Y004189D02*
X015086Y004189D01*
X015106Y004071D02*
X015574Y004071D01*
X015526Y003952D02*
X015106Y003952D01*
X015106Y003834D02*
X015526Y003834D01*
X015526Y003715D02*
X015106Y003715D01*
X015106Y003597D02*
X015526Y003597D01*
X014546Y004308D02*
X012134Y004308D01*
X012253Y004426D02*
X014546Y004426D01*
X014546Y004545D02*
X012371Y004545D01*
X012490Y004663D02*
X014546Y004663D01*
X014546Y004782D02*
X012608Y004782D01*
X012727Y004900D02*
X014546Y004900D01*
X014423Y004189D02*
X012016Y004189D01*
X011897Y004071D02*
X014306Y004071D01*
X013337Y005019D02*
X012845Y005019D01*
X013467Y006322D02*
X014183Y006322D01*
X014081Y006441D02*
X013577Y006441D01*
X013856Y006559D02*
X014081Y006559D01*
X014081Y006678D02*
X013975Y006678D01*
X014778Y006322D02*
X014921Y006322D01*
X014881Y006441D02*
X015040Y006441D01*
X015041Y006559D02*
X014881Y006559D01*
X014881Y006678D02*
X015041Y006678D01*
X015041Y006796D02*
X014881Y006796D01*
X014881Y006915D02*
X015041Y006915D01*
X015041Y007033D02*
X014856Y007033D01*
X014856Y007152D02*
X015041Y007152D01*
X015041Y007270D02*
X014856Y007270D01*
X014856Y007389D02*
X015058Y007389D01*
X015109Y007507D02*
X018482Y007507D01*
X018456Y007626D02*
X015136Y007626D01*
X015136Y007744D02*
X018456Y007744D01*
X018456Y007863D02*
X015136Y007863D01*
X015136Y007981D02*
X018456Y007981D01*
X018456Y008100D02*
X015111Y008100D01*
X015136Y008218D02*
X018456Y008218D01*
X018456Y008337D02*
X015136Y008337D01*
X015097Y008455D02*
X018456Y008455D01*
X018456Y008574D02*
X015136Y008574D01*
X015136Y008692D02*
X018456Y008692D01*
X018456Y008811D02*
X015136Y008811D01*
X015136Y008929D02*
X018456Y008929D01*
X018497Y009048D02*
X015136Y009048D01*
X015136Y009166D02*
X018456Y009166D01*
X018456Y009285D02*
X015136Y009285D01*
X015136Y009403D02*
X018456Y009403D01*
X018456Y009522D02*
X015136Y009522D01*
X015136Y009640D02*
X018456Y009640D01*
X020875Y011299D02*
X021436Y011299D01*
X021436Y011181D02*
X020993Y011181D01*
X021112Y011062D02*
X021436Y011062D01*
X021436Y010944D02*
X021230Y010944D01*
X021436Y011418D02*
X020756Y011418D01*
X020638Y011536D02*
X021535Y011536D01*
X023716Y012603D02*
X024354Y012603D01*
X024239Y012721D02*
X023716Y012721D01*
X023716Y012840D02*
X024239Y012840D01*
X024239Y012958D02*
X023716Y012958D01*
X023716Y013077D02*
X024239Y013077D01*
X024239Y013195D02*
X023716Y013195D01*
X023716Y013314D02*
X024339Y013314D01*
X023936Y013669D02*
X026026Y013669D01*
X026026Y013551D02*
X023818Y013551D01*
X023716Y013432D02*
X026026Y013432D01*
X026026Y013788D02*
X024055Y013788D01*
X024173Y013906D02*
X026026Y013906D01*
X026026Y014025D02*
X024292Y014025D01*
X024410Y014143D02*
X026026Y014143D01*
X026023Y014262D02*
X024529Y014262D01*
X024647Y014380D02*
X025904Y014380D01*
X025896Y014499D02*
X024766Y014499D01*
X024884Y014617D02*
X025896Y014617D01*
X025896Y014736D02*
X025003Y014736D01*
X025121Y014854D02*
X025896Y014854D01*
X025937Y014973D02*
X025240Y014973D01*
X025309Y015091D02*
X027526Y015091D01*
X027526Y014973D02*
X027404Y014973D01*
X027446Y014854D02*
X027526Y014854D01*
X027526Y014736D02*
X027446Y014736D01*
X027446Y014617D02*
X027526Y014617D01*
X027526Y014499D02*
X027446Y014499D01*
X027437Y014380D02*
X027526Y014380D01*
X027526Y014262D02*
X027318Y014262D01*
X027316Y014143D02*
X027526Y014143D01*
X027526Y014025D02*
X027316Y014025D01*
X027316Y013906D02*
X027526Y013906D01*
X027526Y013788D02*
X027316Y013788D01*
X027316Y013669D02*
X027526Y013669D01*
X027526Y013551D02*
X027316Y013551D01*
X027316Y013432D02*
X027526Y013432D01*
X027526Y013314D02*
X027316Y013314D01*
X027316Y013195D02*
X027526Y013195D01*
X027526Y013077D02*
X027303Y013077D01*
X027225Y012958D02*
X027526Y012958D01*
X027526Y012840D02*
X027107Y012840D01*
X026988Y012721D02*
X027526Y012721D01*
X027526Y012603D02*
X026870Y012603D01*
X026751Y012484D02*
X027526Y012484D01*
X027526Y012366D02*
X026701Y012366D01*
X026701Y012247D02*
X027526Y012247D01*
X027526Y012129D02*
X026701Y012129D01*
X026701Y012010D02*
X027526Y012010D01*
X027526Y011892D02*
X026701Y011892D01*
X026701Y011773D02*
X027526Y011773D01*
X027526Y011655D02*
X026701Y011655D01*
X026735Y011536D02*
X026608Y011536D01*
X028316Y011863D02*
X028316Y012798D01*
X028524Y013007D01*
X028526Y013010D01*
X028567Y013010D01*
X028696Y013139D01*
X028696Y013681D01*
X028567Y013810D01*
X028066Y013810D01*
X028066Y016714D01*
X028024Y016813D01*
X027948Y016889D01*
X027687Y017150D01*
X028424Y017150D01*
X029526Y016048D01*
X029526Y010772D01*
X029374Y010620D01*
X028387Y010620D01*
X028698Y010931D01*
X028774Y011007D01*
X028816Y011106D01*
X028816Y011108D01*
X028863Y011108D01*
X028992Y011237D01*
X028992Y011734D01*
X028863Y011863D01*
X028316Y011863D01*
X028316Y011892D02*
X029526Y011892D01*
X029526Y012010D02*
X028316Y012010D01*
X028316Y012129D02*
X029526Y012129D01*
X029526Y012247D02*
X028316Y012247D01*
X028316Y012366D02*
X029526Y012366D01*
X029526Y012484D02*
X028316Y012484D01*
X028316Y012603D02*
X029526Y012603D01*
X029526Y012721D02*
X028316Y012721D01*
X028357Y012840D02*
X029526Y012840D01*
X029526Y012958D02*
X028475Y012958D01*
X028633Y013077D02*
X029526Y013077D01*
X029526Y013195D02*
X028696Y013195D01*
X028696Y013314D02*
X029526Y013314D01*
X029526Y013432D02*
X028696Y013432D01*
X028696Y013551D02*
X029526Y013551D01*
X029526Y013669D02*
X028696Y013669D01*
X028589Y013788D02*
X029526Y013788D01*
X029526Y013906D02*
X028066Y013906D01*
X028066Y014025D02*
X029526Y014025D01*
X029526Y014143D02*
X028066Y014143D01*
X028066Y014262D02*
X029526Y014262D01*
X029526Y014380D02*
X028066Y014380D01*
X028066Y014499D02*
X029526Y014499D01*
X029526Y014617D02*
X028066Y014617D01*
X028066Y014736D02*
X029526Y014736D01*
X029526Y014854D02*
X028066Y014854D01*
X028066Y014973D02*
X029526Y014973D01*
X029526Y015091D02*
X028066Y015091D01*
X028066Y015210D02*
X029526Y015210D01*
X029526Y015328D02*
X028066Y015328D01*
X028066Y015447D02*
X029526Y015447D01*
X029526Y015565D02*
X028066Y015565D01*
X028066Y015684D02*
X029526Y015684D01*
X029526Y015802D02*
X028066Y015802D01*
X028066Y015921D02*
X029526Y015921D01*
X029526Y016039D02*
X028066Y016039D01*
X028066Y016158D02*
X029416Y016158D01*
X029298Y016276D02*
X028066Y016276D01*
X028066Y016395D02*
X029179Y016395D01*
X029061Y016513D02*
X028066Y016513D01*
X028066Y016632D02*
X028942Y016632D01*
X028824Y016750D02*
X028050Y016750D01*
X027969Y016869D02*
X028705Y016869D01*
X028587Y016987D02*
X027850Y016987D01*
X027732Y017106D02*
X028468Y017106D01*
X029258Y017580D02*
X031586Y017580D01*
X031586Y017698D02*
X029139Y017698D01*
X029021Y017817D02*
X031586Y017817D01*
X031586Y017935D02*
X015473Y017935D01*
X015355Y018054D02*
X031586Y018054D01*
X031586Y018172D02*
X015236Y018172D01*
X015118Y018291D02*
X031586Y018291D01*
X031586Y018409D02*
X014999Y018409D01*
X014881Y018528D02*
X031586Y018528D01*
X031586Y018646D02*
X014762Y018646D01*
X014644Y018765D02*
X031586Y018765D01*
X031586Y018883D02*
X014525Y018883D01*
X014466Y018942D02*
X031586Y018942D01*
X031586Y010002D01*
X031318Y010269D01*
X031219Y010310D01*
X030296Y010310D01*
X030316Y010356D01*
X030316Y016464D01*
X030274Y016563D01*
X030198Y016639D01*
X028948Y017889D01*
X028849Y017930D01*
X019242Y017930D01*
X019143Y017889D01*
X019067Y017813D01*
X017446Y016192D01*
X017446Y016681D01*
X017317Y016810D01*
X016774Y016810D01*
X016646Y016681D01*
X016646Y016392D01*
X016555Y016302D01*
X016385Y016472D01*
X016495Y016582D01*
X016495Y017124D01*
X016366Y017253D01*
X016155Y017253D01*
X014466Y018942D01*
X013803Y018291D02*
X012400Y018291D01*
X012519Y018172D02*
X013921Y018172D01*
X014040Y018054D02*
X012572Y018054D01*
X012620Y017935D02*
X014158Y017935D01*
X014277Y017817D02*
X012620Y017817D01*
X012620Y017698D02*
X014395Y017698D01*
X014514Y017580D02*
X012574Y017580D01*
X012525Y017461D02*
X014632Y017461D01*
X014751Y017343D02*
X012406Y017343D01*
X012197Y017224D02*
X014653Y017224D01*
X015353Y016740D02*
X016226Y015868D01*
X016226Y014826D01*
X015831Y014826D01*
X015702Y014697D01*
X015702Y014043D01*
X015831Y013914D01*
X016036Y013914D01*
X016036Y013120D01*
X015973Y013183D01*
X015318Y013183D01*
X015262Y013127D01*
X015262Y016491D01*
X015353Y016582D01*
X015353Y016740D01*
X015353Y016632D02*
X015462Y016632D01*
X015580Y016513D02*
X015284Y016513D01*
X015262Y016395D02*
X015699Y016395D01*
X015817Y016276D02*
X015262Y016276D01*
X015262Y016158D02*
X015936Y016158D01*
X016054Y016039D02*
X015262Y016039D01*
X015262Y015921D02*
X016173Y015921D01*
X016226Y015802D02*
X015262Y015802D01*
X015262Y015684D02*
X016226Y015684D01*
X016226Y015565D02*
X015262Y015565D01*
X015262Y015447D02*
X016226Y015447D01*
X016226Y015328D02*
X015262Y015328D01*
X015262Y015210D02*
X016226Y015210D01*
X016226Y015091D02*
X015262Y015091D01*
X015262Y014973D02*
X016226Y014973D01*
X016226Y014854D02*
X015262Y014854D01*
X015262Y014736D02*
X015741Y014736D01*
X015702Y014617D02*
X015262Y014617D01*
X015262Y014499D02*
X015702Y014499D01*
X015702Y014380D02*
X015262Y014380D01*
X015262Y014262D02*
X015702Y014262D01*
X015702Y014143D02*
X015262Y014143D01*
X015262Y014025D02*
X015720Y014025D01*
X016036Y013906D02*
X015262Y013906D01*
X015262Y013788D02*
X016036Y013788D01*
X016036Y013669D02*
X015262Y013669D01*
X015262Y013551D02*
X016036Y013551D01*
X016036Y013432D02*
X015262Y013432D01*
X015262Y013314D02*
X016036Y013314D01*
X016036Y013195D02*
X015262Y013195D01*
X014458Y012366D02*
X011610Y012366D01*
X011491Y012247D02*
X014577Y012247D01*
X014695Y012129D02*
X011373Y012129D01*
X011136Y011892D02*
X011669Y011892D01*
X011551Y011773D02*
X011017Y011773D01*
X010899Y011655D02*
X011545Y011655D01*
X013161Y011655D02*
X013729Y011655D01*
X013611Y011536D02*
X013301Y011536D01*
X013420Y011418D02*
X013608Y011418D01*
X013608Y011299D02*
X013538Y011299D01*
X012270Y010442D02*
X012270Y009968D01*
X012398Y009839D01*
X012822Y009839D01*
X012822Y008633D01*
X012839Y008616D01*
X012787Y008563D01*
X012785Y008560D01*
X012277Y008560D01*
X011719Y009118D01*
X011719Y010215D01*
X011848Y010344D01*
X012171Y010344D01*
X012270Y010442D01*
X012270Y010351D02*
X012178Y010351D01*
X012270Y010233D02*
X011737Y010233D01*
X011719Y010114D02*
X012270Y010114D01*
X012270Y009996D02*
X011719Y009996D01*
X011719Y009877D02*
X012360Y009877D01*
X012822Y009759D02*
X011719Y009759D01*
X011719Y009640D02*
X012822Y009640D01*
X012822Y009522D02*
X011719Y009522D01*
X011719Y009403D02*
X012822Y009403D01*
X012822Y009285D02*
X011719Y009285D01*
X011719Y009166D02*
X012822Y009166D01*
X012822Y009048D02*
X011790Y009048D01*
X011908Y008929D02*
X012822Y008929D01*
X012822Y008811D02*
X012027Y008811D01*
X012145Y008692D02*
X012822Y008692D01*
X012797Y008574D02*
X012264Y008574D01*
X011712Y008218D02*
X011133Y008218D01*
X011252Y008100D02*
X011593Y008100D01*
X011529Y007981D02*
X011370Y007981D01*
X011489Y007863D02*
X011526Y007863D01*
X012066Y007744D02*
X012822Y007744D01*
X012822Y007626D02*
X012066Y007626D01*
X012120Y007507D02*
X012822Y007507D01*
X012822Y007389D02*
X012196Y007389D01*
X012196Y007270D02*
X012835Y007270D01*
X012887Y007152D02*
X012196Y007152D01*
X012196Y007033D02*
X012822Y007033D01*
X012822Y006915D02*
X012196Y006915D01*
X012103Y006796D02*
X012822Y006796D01*
X011796Y007160D02*
X010915Y008041D01*
X012120Y007863D02*
X012822Y007863D01*
X012866Y007981D02*
X012238Y007981D01*
X018533Y007389D02*
X020605Y007389D01*
X020487Y007270D02*
X018551Y007270D01*
X020748Y006796D02*
X022391Y006796D01*
X022391Y006915D02*
X020867Y006915D01*
X020985Y007033D02*
X022391Y007033D01*
X022391Y007152D02*
X021104Y007152D01*
X022342Y007270D02*
X022469Y007270D01*
X022476Y005730D02*
X021747Y005730D01*
X016776Y001582D02*
X001031Y001582D01*
X001031Y001464D02*
X016776Y001464D01*
X016776Y001345D02*
X001031Y001345D01*
X001031Y001227D02*
X016776Y001227D01*
X016776Y001108D02*
X001031Y001108D01*
X001031Y000990D02*
X016834Y000990D01*
X016893Y000931D02*
X016893Y000931D01*
X016953Y000871D02*
X001031Y000871D01*
X001031Y000753D02*
X017071Y000753D01*
X017190Y000634D02*
X001031Y000634D01*
X025052Y013314D02*
X025459Y013314D01*
X026654Y014973D02*
X026687Y014973D01*
X027526Y015210D02*
X025316Y015210D01*
X025316Y015328D02*
X027526Y015328D01*
X027526Y015447D02*
X025316Y015447D01*
X025316Y015565D02*
X027526Y015565D01*
X027526Y015684D02*
X025453Y015684D01*
X025557Y015802D02*
X027526Y015802D01*
X027526Y015921D02*
X025606Y015921D01*
X025636Y016039D02*
X027526Y016039D01*
X027526Y016158D02*
X025636Y016158D01*
X025615Y016276D02*
X027526Y016276D01*
X027526Y016395D02*
X025566Y016395D01*
X025477Y016513D02*
X027526Y016513D01*
X027442Y016632D02*
X025328Y016632D01*
X024763Y016632D02*
X024458Y016632D01*
X024559Y016513D02*
X024614Y016513D01*
X024283Y016750D02*
X027324Y016750D01*
X027205Y016869D02*
X019636Y016869D01*
X019517Y016750D02*
X021808Y016750D01*
X022283Y016750D02*
X023808Y016750D01*
X023633Y016632D02*
X023328Y016632D01*
X023477Y016513D02*
X023532Y016513D01*
X022763Y016632D02*
X022458Y016632D01*
X022559Y016513D02*
X022614Y016513D01*
X022534Y015802D02*
X022472Y015802D01*
X022316Y015684D02*
X022638Y015684D01*
X019070Y017817D02*
X015592Y017817D01*
X015710Y017698D02*
X018952Y017698D01*
X018833Y017580D02*
X015829Y017580D01*
X015947Y017461D02*
X018715Y017461D01*
X018596Y017343D02*
X016066Y017343D01*
X016395Y017224D02*
X018478Y017224D01*
X018359Y017106D02*
X016495Y017106D01*
X016495Y016987D02*
X018241Y016987D01*
X018122Y016869D02*
X016495Y016869D01*
X016495Y016750D02*
X016714Y016750D01*
X016646Y016632D02*
X016495Y016632D01*
X016426Y016513D02*
X016646Y016513D01*
X016646Y016395D02*
X016462Y016395D01*
X017377Y016750D02*
X018004Y016750D01*
X017885Y016632D02*
X017446Y016632D01*
X017446Y016513D02*
X017767Y016513D01*
X017648Y016395D02*
X017446Y016395D01*
X017446Y016276D02*
X017530Y016276D01*
X011803Y017224D02*
X010229Y017224D01*
X010438Y017343D02*
X011594Y017343D01*
X011476Y017461D02*
X010556Y017461D01*
X010606Y017580D02*
X011426Y017580D01*
X011380Y017698D02*
X010652Y017698D01*
X010652Y017817D02*
X011380Y017817D01*
X011380Y017935D02*
X010652Y017935D01*
X010603Y018054D02*
X011429Y018054D01*
X011482Y018172D02*
X010550Y018172D01*
X010432Y018291D02*
X011600Y018291D01*
X005984Y018646D02*
X002089Y018646D01*
X001970Y018528D02*
X005866Y018528D01*
X005747Y018409D02*
X005716Y018409D01*
X005351Y018409D02*
X003748Y018409D01*
X003689Y018434D02*
X003442Y018434D01*
X003214Y018339D01*
X003040Y018165D01*
X002945Y017937D01*
X002945Y017690D01*
X003040Y017462D01*
X003214Y017288D01*
X003442Y017194D01*
X003689Y017194D01*
X003916Y017288D01*
X004091Y017462D01*
X004185Y017690D01*
X004185Y017937D01*
X004091Y018165D01*
X003916Y018339D01*
X003689Y018434D01*
X003383Y018409D02*
X002112Y018409D01*
X002217Y018291D02*
X003165Y018291D01*
X003047Y018172D02*
X002217Y018172D01*
X002217Y018054D02*
X002994Y018054D01*
X002945Y017935D02*
X002217Y017935D01*
X002217Y017817D02*
X002945Y017817D01*
X002945Y017698D02*
X002217Y017698D01*
X002217Y017580D02*
X002991Y017580D01*
X003041Y017461D02*
X002217Y017461D01*
X002217Y017343D02*
X003159Y017343D01*
X003368Y017224D02*
X002118Y017224D01*
X003762Y017224D02*
X005337Y017224D01*
X005128Y017343D02*
X003971Y017343D01*
X004090Y017461D02*
X005009Y017461D01*
X004960Y017580D02*
X004139Y017580D01*
X004185Y017698D02*
X004914Y017698D01*
X004914Y017817D02*
X004185Y017817D01*
X004185Y017935D02*
X004914Y017935D01*
X004962Y018054D02*
X004137Y018054D01*
X004084Y018172D02*
X005015Y018172D01*
X005134Y018291D02*
X003965Y018291D01*
X001877Y018434D02*
X001877Y018434D01*
X028474Y010707D02*
X029460Y010707D01*
X029526Y010825D02*
X028592Y010825D01*
X028711Y010944D02*
X029526Y010944D01*
X029526Y011062D02*
X028797Y011062D01*
X028935Y011181D02*
X029526Y011181D01*
X029526Y011299D02*
X028992Y011299D01*
X028992Y011418D02*
X029526Y011418D01*
X029526Y011536D02*
X028992Y011536D01*
X028992Y011655D02*
X029526Y011655D01*
X029526Y011773D02*
X028953Y011773D01*
X030316Y011773D02*
X031586Y011773D01*
X031586Y011655D02*
X030316Y011655D01*
X030316Y011536D02*
X031586Y011536D01*
X031586Y011418D02*
X030316Y011418D01*
X030316Y011299D02*
X031586Y011299D01*
X031586Y011181D02*
X030316Y011181D01*
X030316Y011062D02*
X031586Y011062D01*
X031586Y010944D02*
X030316Y010944D01*
X030316Y010825D02*
X031586Y010825D01*
X031586Y010707D02*
X030316Y010707D01*
X030316Y010588D02*
X031586Y010588D01*
X031586Y010470D02*
X030316Y010470D01*
X030313Y010351D02*
X031586Y010351D01*
X031586Y010233D02*
X031355Y010233D01*
X031473Y010114D02*
X031586Y010114D01*
X031586Y011892D02*
X030316Y011892D01*
X030316Y012010D02*
X031586Y012010D01*
X031586Y012129D02*
X030316Y012129D01*
X030316Y012247D02*
X031586Y012247D01*
X031586Y012366D02*
X030316Y012366D01*
X030316Y012484D02*
X031586Y012484D01*
X031586Y012603D02*
X030316Y012603D01*
X030316Y012721D02*
X031586Y012721D01*
X031586Y012840D02*
X030316Y012840D01*
X030316Y012958D02*
X031586Y012958D01*
X031586Y013077D02*
X030316Y013077D01*
X030316Y013195D02*
X031586Y013195D01*
X031586Y013314D02*
X030316Y013314D01*
X030316Y013432D02*
X031586Y013432D01*
X031586Y013551D02*
X030316Y013551D01*
X030316Y013669D02*
X031586Y013669D01*
X031586Y013788D02*
X030316Y013788D01*
X030316Y013906D02*
X031586Y013906D01*
X031586Y014025D02*
X030316Y014025D01*
X030316Y014143D02*
X031586Y014143D01*
X031586Y014262D02*
X030316Y014262D01*
X030316Y014380D02*
X031586Y014380D01*
X031586Y014499D02*
X030316Y014499D01*
X030316Y014617D02*
X031586Y014617D01*
X031586Y014736D02*
X030316Y014736D01*
X030316Y014854D02*
X031586Y014854D01*
X031586Y014973D02*
X030316Y014973D01*
X030316Y015091D02*
X031586Y015091D01*
X031586Y015210D02*
X030316Y015210D01*
X030316Y015328D02*
X031586Y015328D01*
X031586Y015447D02*
X030316Y015447D01*
X030316Y015565D02*
X031586Y015565D01*
X031586Y015684D02*
X030316Y015684D01*
X030316Y015802D02*
X031586Y015802D01*
X031586Y015921D02*
X030316Y015921D01*
X030316Y016039D02*
X031586Y016039D01*
X031586Y016158D02*
X030316Y016158D01*
X030316Y016276D02*
X031586Y016276D01*
X031586Y016395D02*
X030316Y016395D01*
X030295Y016513D02*
X031586Y016513D01*
X031586Y016632D02*
X030206Y016632D01*
X030087Y016750D02*
X031586Y016750D01*
X031586Y016869D02*
X029969Y016869D01*
X029850Y016987D02*
X031586Y016987D01*
X031586Y017106D02*
X029732Y017106D01*
X029613Y017224D02*
X031586Y017224D01*
X031586Y017343D02*
X029495Y017343D01*
X029376Y017461D02*
X031586Y017461D01*
D30*
X001488Y014727D03*
X001370Y010396D03*
X001488Y004884D03*
D31*
X020106Y009040D03*
D32*
X005601Y010099D02*
X005583Y010081D01*
X005601Y010099D02*
X005601Y010803D01*
D33*
X018276Y011370D02*
X018277Y011369D01*
X020437Y011369D01*
X021136Y010670D01*
X021946Y010670D01*
X021946Y010350D02*
X021106Y010350D01*
X020815Y010640D01*
X019006Y010640D01*
X019006Y010640D01*
X019006Y010440D02*
X019006Y010440D01*
X020733Y010440D01*
X021602Y009570D01*
X021946Y009570D01*
X021946Y009410D02*
X021463Y009410D01*
X020634Y010239D01*
X019007Y010239D01*
X019006Y010240D01*
X019006Y010050D02*
X019010Y010046D01*
X020540Y010046D01*
X021335Y009250D01*
X021946Y009250D01*
X021946Y009100D02*
X021198Y009100D01*
X020445Y009853D01*
X019008Y009853D01*
X019006Y009850D01*
X019006Y009650D02*
X019011Y009644D01*
X020362Y009644D01*
X021067Y008940D01*
X021946Y008940D01*
X021946Y008780D02*
X020955Y008780D01*
X020276Y009459D01*
X019006Y009459D01*
X019006Y009460D01*
X019006Y008861D02*
X019006Y008860D01*
X019006Y008861D02*
X019662Y008861D01*
X019902Y008620D01*
X021946Y008620D01*
X021946Y008470D02*
X019820Y008470D01*
X019618Y008672D01*
X019007Y008672D01*
X019006Y008670D01*
X019007Y008471D02*
X019006Y008470D01*
X019007Y008471D02*
X019571Y008471D01*
X019732Y008310D01*
X021946Y008310D01*
X021946Y008150D02*
X019644Y008150D01*
X019524Y008270D01*
X019006Y008270D01*
X019006Y008270D01*
X019007Y008081D02*
X019006Y008080D01*
X019007Y008081D02*
X019445Y008081D01*
X019536Y007990D01*
X021946Y007990D01*
X021946Y007840D02*
X019458Y007840D01*
X019418Y007880D01*
X019006Y007880D01*
X019006Y007880D01*
X019006Y007680D02*
X021946Y007680D01*
X021946Y007520D02*
X021104Y007520D01*
X020547Y006963D01*
X018289Y006963D01*
X018276Y006950D01*
M02*
