G75*
G70*
%OFA0B0*%
%FSLAX24Y24*%
%IPPOS*%
%LPD*%
%AMOC8*
5,1,8,0,0,1.08239X$1,22.5*
%
%ADD10C,0.0030*%
%ADD11C,0.0079*%
D10*
X023156Y017682D02*
X023218Y017620D01*
X023279Y017620D01*
X023156Y017682D02*
X023156Y017990D01*
X023341Y017990D01*
X023403Y017929D01*
X023403Y017805D01*
X023341Y017744D01*
X023156Y017744D01*
X023034Y017744D02*
X022788Y018114D01*
X022666Y018052D02*
X022666Y017805D01*
X022604Y017744D01*
X022481Y017744D01*
X022419Y017805D01*
X022419Y018052D01*
X022481Y018114D01*
X022604Y018114D01*
X022666Y018052D01*
X022665Y018344D02*
X022603Y018405D01*
X022603Y018652D01*
X022665Y018714D01*
X022789Y018714D01*
X022850Y018652D01*
X022850Y018405D01*
X022789Y018344D01*
X022665Y018344D01*
X022482Y018344D02*
X022482Y018714D01*
X022482Y018529D02*
X022235Y018529D01*
X022235Y018714D02*
X022235Y018344D01*
X022114Y018344D02*
X021867Y018344D01*
X021929Y018114D02*
X021929Y017744D01*
X021683Y017744D01*
X022051Y017744D02*
X022051Y018114D01*
X022051Y017929D02*
X022298Y017929D01*
X022298Y017744D02*
X022298Y018114D01*
X022114Y018344D02*
X022114Y018714D01*
X023340Y018652D02*
X023340Y018529D01*
X023402Y018467D01*
X023587Y018467D01*
X023587Y018344D02*
X023587Y018714D01*
X023402Y018714D01*
X023340Y018652D01*
X023463Y018467D02*
X023340Y018344D01*
X023708Y018529D02*
X023770Y018467D01*
X023955Y018467D01*
X023955Y018344D02*
X023955Y018714D01*
X023770Y018714D01*
X023708Y018652D01*
X023708Y018529D01*
X024077Y018529D02*
X024324Y018529D01*
X024324Y018590D02*
X024200Y018714D01*
X024077Y018590D01*
X024077Y018344D01*
X024324Y018344D02*
X024324Y018590D01*
X024445Y018714D02*
X024692Y018714D01*
X024568Y018714D02*
X024568Y018344D01*
X024569Y017990D02*
X024569Y017744D01*
X024569Y017867D02*
X024446Y017990D01*
X024384Y017990D01*
X024262Y017805D02*
X024200Y017805D01*
X024200Y017744D01*
X024262Y017744D01*
X024262Y017805D01*
X024078Y017805D02*
X024078Y017929D01*
X024016Y017990D01*
X023893Y017990D01*
X023831Y017929D01*
X023831Y017805D01*
X023893Y017744D01*
X024016Y017744D01*
X024078Y017805D01*
X023710Y017744D02*
X023710Y017990D01*
X023710Y017867D02*
X023586Y017990D01*
X023525Y017990D01*
X024690Y017929D02*
X024690Y017805D01*
X024752Y017744D01*
X024937Y017744D01*
X025059Y017744D02*
X025244Y017744D01*
X025306Y017805D01*
X025244Y017867D01*
X025059Y017867D01*
X025059Y017929D02*
X025059Y017744D01*
X024937Y017620D02*
X024937Y017990D01*
X024752Y017990D01*
X024690Y017929D01*
X025059Y017929D02*
X025121Y017990D01*
X025244Y017990D01*
X025428Y017990D02*
X025551Y017990D01*
X025490Y018052D02*
X025490Y017805D01*
X025428Y017744D01*
X025674Y017744D02*
X025735Y017744D01*
X025735Y017805D01*
X025674Y017805D01*
X025674Y017744D01*
X025857Y017805D02*
X025857Y017990D01*
X025857Y017805D02*
X025919Y017744D01*
X025980Y017805D01*
X026042Y017744D01*
X026104Y017805D01*
X026104Y017990D01*
X026225Y017990D02*
X026225Y017805D01*
X026287Y017744D01*
X026349Y017805D01*
X026410Y017744D01*
X026472Y017805D01*
X026472Y017990D01*
X026593Y017990D02*
X026593Y017805D01*
X026655Y017744D01*
X026717Y017805D01*
X026779Y017744D01*
X026840Y017805D01*
X026840Y017990D01*
X026962Y018114D02*
X027209Y017744D01*
X027577Y017744D02*
X027330Y018114D01*
X027392Y018344D02*
X027454Y018405D01*
X027454Y018529D01*
X027392Y018590D01*
X027207Y018590D01*
X027207Y018714D02*
X027207Y018344D01*
X027392Y018344D01*
X027576Y018344D02*
X027576Y018529D01*
X027637Y018590D01*
X027823Y018590D01*
X027823Y018344D01*
X027944Y018344D02*
X027944Y018590D01*
X027944Y018344D02*
X028129Y018344D01*
X028191Y018405D01*
X028191Y018590D01*
X028681Y018590D02*
X028866Y018590D01*
X028927Y018529D01*
X028927Y018405D01*
X028866Y018344D01*
X028681Y018344D01*
X028681Y018714D01*
X029049Y018529D02*
X029049Y018467D01*
X029296Y018467D01*
X029296Y018529D02*
X029234Y018590D01*
X029111Y018590D01*
X029049Y018529D01*
X029111Y018344D02*
X029234Y018344D01*
X029296Y018405D01*
X029296Y018529D01*
X029417Y018590D02*
X029602Y018590D01*
X029664Y018529D01*
X029602Y018467D01*
X029479Y018467D01*
X029417Y018405D01*
X029479Y018344D01*
X029664Y018344D01*
X029786Y018344D02*
X029786Y018529D01*
X029847Y018590D01*
X029971Y018590D01*
X029971Y018467D02*
X029786Y018467D01*
X029786Y018344D02*
X029971Y018344D01*
X030032Y018405D01*
X029971Y018467D01*
X030154Y018467D02*
X030401Y018467D01*
X030401Y018529D02*
X030339Y018590D01*
X030216Y018590D01*
X030154Y018529D01*
X030154Y018467D01*
X030216Y018344D02*
X030339Y018344D01*
X030401Y018405D01*
X030401Y018529D01*
X030523Y018344D02*
X030646Y018344D01*
X030585Y018344D02*
X030585Y018714D01*
X030646Y018714D01*
X030829Y018590D02*
X030768Y018529D01*
X030768Y018467D01*
X031015Y018467D01*
X031015Y018529D02*
X030953Y018590D01*
X030829Y018590D01*
X031015Y018529D02*
X031015Y018405D01*
X030953Y018344D01*
X030829Y018344D01*
X030891Y018114D02*
X030891Y017744D01*
X030768Y017744D02*
X031015Y017744D01*
X031259Y017744D02*
X031136Y017990D01*
X031015Y017990D02*
X030891Y018114D01*
X031136Y018344D02*
X031259Y018467D01*
X031198Y018467D02*
X031383Y018467D01*
X031383Y018344D02*
X031383Y018714D01*
X031198Y018714D01*
X031136Y018652D01*
X031136Y018529D01*
X031198Y018467D01*
X030462Y018052D02*
X030400Y018114D01*
X030277Y018114D01*
X030215Y018052D01*
X030462Y017805D01*
X030400Y017744D01*
X030277Y017744D01*
X030215Y017805D01*
X030215Y018052D01*
X030462Y018052D02*
X030462Y017805D01*
X030585Y017805D02*
X030585Y017744D01*
X030646Y017744D01*
X030646Y017805D01*
X030585Y017805D01*
X031259Y017744D02*
X031383Y017990D01*
X029725Y017929D02*
X029479Y017929D01*
X028989Y017929D02*
X028927Y017990D01*
X028804Y017990D01*
X028742Y017929D01*
X028742Y017744D01*
X028559Y017805D02*
X028497Y017744D01*
X028559Y017805D02*
X028559Y018052D01*
X028621Y017990D02*
X028497Y017990D01*
X028375Y017990D02*
X028252Y017990D01*
X028313Y018052D02*
X028313Y017805D01*
X028252Y017744D01*
X028129Y017744D02*
X027944Y017744D01*
X027883Y017805D01*
X027883Y017929D01*
X027944Y017990D01*
X028129Y017990D01*
X028129Y017620D01*
X027761Y017744D02*
X027761Y017805D01*
X027699Y017805D01*
X027699Y017744D01*
X027761Y017744D01*
X027761Y017929D02*
X027699Y017929D01*
X027699Y017990D01*
X027761Y017990D01*
X027761Y017929D01*
X027086Y018405D02*
X027086Y018529D01*
X027024Y018590D01*
X026901Y018590D01*
X026839Y018529D01*
X026839Y018467D01*
X027086Y018467D01*
X027086Y018405D02*
X027024Y018344D01*
X026901Y018344D01*
X026718Y018344D02*
X026718Y018590D01*
X026718Y018467D02*
X026594Y018590D01*
X026532Y018590D01*
X026042Y018590D02*
X025919Y018590D01*
X025981Y018652D02*
X025981Y018405D01*
X025919Y018344D01*
X025797Y018344D02*
X025797Y018714D01*
X025735Y018590D02*
X025612Y018590D01*
X025550Y018529D01*
X025550Y018344D01*
X025428Y018405D02*
X025428Y018529D01*
X025367Y018590D01*
X025243Y018590D01*
X025182Y018529D01*
X025182Y018467D01*
X025428Y018467D01*
X025428Y018405D02*
X025367Y018344D01*
X025243Y018344D01*
X025735Y018590D02*
X025797Y018529D01*
X028989Y018114D02*
X028989Y017744D01*
D11*
X018635Y013733D02*
X018432Y013937D01*
X018674Y014234D01*
X018631Y014312D01*
X018596Y014395D01*
X018571Y014481D01*
X018190Y014520D01*
X018190Y014808D01*
X018571Y014847D01*
X018596Y014933D01*
X018631Y015016D01*
X018674Y015094D01*
X018432Y015391D01*
X018635Y015595D01*
X018932Y015353D01*
X019011Y015396D01*
X019094Y015430D01*
X019180Y015455D01*
X019219Y015836D01*
X019506Y015836D01*
X019545Y015455D01*
X019631Y015430D01*
X019714Y015396D01*
X019793Y015353D01*
X020090Y015595D01*
X020293Y015391D01*
X020051Y015094D01*
X020094Y015016D01*
X020129Y014933D01*
X020154Y014847D01*
X020535Y014808D01*
X020535Y014520D01*
X020154Y014481D01*
X020129Y014395D01*
X020094Y014312D01*
X020051Y014234D01*
X020293Y013937D01*
X020090Y013733D01*
X019793Y013975D01*
X019734Y013942D01*
X019673Y013914D01*
X019504Y014323D01*
X019567Y014357D01*
X019623Y014403D01*
X019669Y014459D01*
X019703Y014523D01*
X019724Y014592D01*
X019732Y014664D01*
X019724Y014736D01*
X019703Y014805D01*
X019669Y014869D01*
X019623Y014925D01*
X019567Y014971D01*
X019504Y015005D01*
X019434Y015026D01*
X019362Y015033D01*
X019290Y015026D01*
X019221Y015005D01*
X019157Y014971D01*
X019101Y014925D01*
X019056Y014869D01*
X019021Y014805D01*
X019000Y014736D01*
X018993Y014664D01*
X019000Y014592D01*
X019021Y014523D01*
X019056Y014459D01*
X019101Y014403D01*
X019157Y014357D01*
X019221Y014323D01*
X019052Y013914D01*
X018991Y013942D01*
X018932Y013975D01*
X018635Y013733D01*
X018614Y013754D02*
X018661Y013754D01*
X018756Y013832D02*
X018537Y013832D01*
X018460Y013909D02*
X018851Y013909D01*
X019082Y013986D02*
X018472Y013986D01*
X018535Y014063D02*
X019114Y014063D01*
X019146Y014141D02*
X018598Y014141D01*
X018661Y014218D02*
X019178Y014218D01*
X019210Y014295D02*
X018640Y014295D01*
X018606Y014372D02*
X019139Y014372D01*
X019063Y014449D02*
X018580Y014449D01*
X018190Y014527D02*
X019020Y014527D01*
X018999Y014604D02*
X018190Y014604D01*
X018190Y014681D02*
X018995Y014681D01*
X019007Y014758D02*
X018190Y014758D01*
X018464Y014836D02*
X019038Y014836D01*
X019092Y014913D02*
X018590Y014913D01*
X018620Y014990D02*
X019194Y014990D01*
X019531Y014990D02*
X020105Y014990D01*
X020134Y014913D02*
X019633Y014913D01*
X019687Y014836D02*
X020261Y014836D01*
X020535Y014758D02*
X019718Y014758D01*
X019730Y014681D02*
X020535Y014681D01*
X020535Y014604D02*
X019726Y014604D01*
X019705Y014527D02*
X020535Y014527D01*
X020144Y014449D02*
X019662Y014449D01*
X019586Y014372D02*
X020119Y014372D01*
X020085Y014295D02*
X019515Y014295D01*
X019547Y014218D02*
X020064Y014218D01*
X020127Y014141D02*
X019579Y014141D01*
X019611Y014063D02*
X020190Y014063D01*
X020253Y013986D02*
X019643Y013986D01*
X019874Y013909D02*
X020265Y013909D01*
X020188Y013832D02*
X019969Y013832D01*
X020064Y013754D02*
X020111Y013754D01*
X020066Y015067D02*
X018659Y015067D01*
X018633Y015145D02*
X020092Y015145D01*
X020155Y015222D02*
X018570Y015222D01*
X018507Y015299D02*
X020218Y015299D01*
X020281Y015376D02*
X019822Y015376D01*
X019750Y015376D02*
X018975Y015376D01*
X018903Y015376D02*
X018444Y015376D01*
X018494Y015454D02*
X018808Y015454D01*
X018714Y015531D02*
X018571Y015531D01*
X019174Y015454D02*
X019550Y015454D01*
X019537Y015531D02*
X019187Y015531D01*
X019195Y015608D02*
X019530Y015608D01*
X019522Y015685D02*
X019203Y015685D01*
X019211Y015763D02*
X019514Y015763D01*
X019917Y015454D02*
X020231Y015454D01*
X020153Y015531D02*
X020011Y015531D01*
M02*
