G75*
%MOIN*%
%OFA0B0*%
%FSLAX24Y24*%
%IPPOS*%
%LPD*%
%AMOC8*
5,1,8,0,0,1.08239X$1,22.5*
%
%ADD10R,0.0650X0.0650*%
%ADD11C,0.0650*%
%ADD12C,0.0740*%
%ADD13OC8,0.0520*%
%ADD14R,0.0800X0.0800*%
%ADD15C,0.0800*%
%ADD16R,0.0396X0.0396*%
%ADD17C,0.0100*%
%ADD18OC8,0.0396*%
%ADD19C,0.0160*%
%ADD20C,0.0079*%
D10*
X012270Y002160D03*
D11*
X013270Y002160D03*
D12*
X016770Y002260D03*
X017770Y002160D03*
X018770Y002260D03*
X019770Y002160D03*
X020770Y002260D03*
X021770Y002160D03*
X017020Y016110D03*
X016020Y016210D03*
X015020Y016110D03*
X014020Y016210D03*
X003845Y016597D03*
X003845Y015597D03*
X003845Y014597D03*
X003845Y013597D03*
X003845Y017597D03*
X003845Y018597D03*
X003520Y001160D03*
X002520Y001160D03*
X001520Y001160D03*
D13*
X012270Y004660D03*
X012770Y005410D03*
X013270Y004660D03*
D14*
X001794Y012867D03*
D15*
X001794Y014835D03*
X001794Y016804D03*
D16*
X005264Y017174D03*
X005248Y015174D03*
X004770Y012910D03*
X006520Y011660D03*
X008583Y009467D03*
X008583Y008857D03*
X008583Y008247D03*
X006520Y006660D03*
X003770Y007160D03*
X004020Y009410D03*
X002024Y004652D03*
X005840Y002660D03*
X006680Y003800D03*
X007770Y002910D03*
X006340Y000910D03*
X005590Y000910D03*
X004840Y000910D03*
X010350Y005730D03*
X014270Y002160D03*
X015020Y004660D03*
X016060Y005830D03*
X017270Y004410D03*
X021248Y003731D03*
X020797Y008691D03*
X023372Y012394D03*
X020270Y013410D03*
X019020Y014660D03*
X018270Y014660D03*
X017230Y012810D03*
X014020Y013410D03*
X009020Y016410D03*
X008270Y016910D03*
X008270Y017660D03*
D17*
X000606Y018952D02*
X000606Y000610D01*
X002332Y000610D01*
X002191Y000668D01*
X002028Y000831D01*
X001940Y001045D01*
X001940Y001275D01*
X002028Y001489D01*
X002191Y001652D01*
X002405Y001740D01*
X002440Y001740D01*
X002760Y002060D01*
X002760Y010712D01*
X002800Y010807D01*
X002873Y010880D01*
X004494Y012502D01*
X004485Y012502D01*
X004362Y012625D01*
X004362Y013195D01*
X004485Y013318D01*
X005055Y013318D01*
X005178Y013195D01*
X005178Y012625D01*
X005055Y012502D01*
X005030Y012502D01*
X005030Y012358D01*
X004990Y012263D01*
X003280Y010552D01*
X003280Y002200D01*
X010150Y002200D01*
X010620Y002670D01*
X010572Y002650D01*
X008178Y002650D01*
X008178Y002625D01*
X008055Y002502D01*
X007485Y002502D01*
X007362Y002625D01*
X007362Y003195D01*
X007485Y003318D01*
X008055Y003318D01*
X008178Y003195D01*
X008178Y003170D01*
X010412Y003170D01*
X011800Y004558D01*
X011800Y004855D01*
X011820Y004875D01*
X011820Y008723D01*
X011672Y008871D01*
X011672Y008900D01*
X009968Y008900D01*
X009873Y008940D01*
X009800Y009013D01*
X008550Y010263D01*
X008510Y010358D01*
X008510Y016212D01*
X008550Y016307D01*
X008612Y016370D01*
X008612Y016695D01*
X008735Y016818D01*
X009305Y016818D01*
X009428Y016695D01*
X009428Y016125D01*
X009305Y016002D01*
X009030Y016002D01*
X009030Y010518D01*
X010128Y009420D01*
X011760Y009420D01*
X011760Y012712D01*
X011800Y012807D01*
X012623Y013630D01*
X012718Y013670D01*
X013612Y013670D01*
X013612Y013695D01*
X013735Y013818D01*
X014305Y013818D01*
X014428Y013695D01*
X014428Y013125D01*
X014305Y013002D01*
X013735Y013002D01*
X013612Y013125D01*
X013612Y013150D01*
X012878Y013150D01*
X012280Y012552D01*
X012280Y009417D01*
X012488Y009209D01*
X012488Y008871D01*
X012340Y008723D01*
X012340Y006170D01*
X013572Y006170D01*
X013667Y006130D01*
X013740Y006057D01*
X014490Y005307D01*
X014530Y005212D01*
X014530Y004018D01*
X014628Y003920D01*
X015162Y003920D01*
X015873Y004630D01*
X015968Y004670D01*
X016862Y004670D01*
X016862Y004695D01*
X016985Y004818D01*
X017555Y004818D01*
X017678Y004695D01*
X017678Y004670D01*
X019135Y004670D01*
X019230Y004630D01*
X019303Y004557D01*
X019303Y004557D01*
X020510Y003351D01*
X020510Y006552D01*
X020050Y007013D01*
X020010Y007108D01*
X020010Y013002D01*
X019985Y013002D01*
X019862Y013125D01*
X019862Y013400D01*
X017628Y013400D01*
X017490Y013262D01*
X017490Y013218D01*
X017515Y013218D01*
X017638Y013095D01*
X017638Y012525D01*
X017515Y012402D01*
X016945Y012402D01*
X016822Y012525D01*
X016822Y013095D01*
X016945Y013218D01*
X016970Y013218D01*
X016970Y013422D01*
X017010Y013517D01*
X017300Y013807D01*
X017373Y013880D01*
X017468Y013920D01*
X020072Y013920D01*
X020167Y013880D01*
X020230Y013818D01*
X020555Y013818D01*
X020678Y013695D01*
X020678Y013125D01*
X020555Y013002D01*
X020530Y013002D01*
X020530Y009100D01*
X021083Y009100D01*
X021206Y008977D01*
X021206Y008406D01*
X021083Y008283D01*
X020530Y008283D01*
X020530Y007268D01*
X020990Y006807D01*
X021030Y006712D01*
X021030Y002786D01*
X021033Y002779D01*
X021098Y002752D01*
X021262Y002589D01*
X021296Y002506D01*
X021441Y002652D01*
X021655Y002740D01*
X021885Y002740D01*
X022098Y002652D01*
X022262Y002489D01*
X022350Y002275D01*
X022350Y002045D01*
X022262Y001831D01*
X022098Y001668D01*
X021885Y001580D01*
X021655Y001580D01*
X021441Y001668D01*
X021278Y001831D01*
X021244Y001914D01*
X021098Y001768D01*
X020885Y001680D01*
X020655Y001680D01*
X020441Y001768D01*
X020278Y001931D01*
X020190Y002145D01*
X020190Y002375D01*
X020278Y002589D01*
X020407Y002718D01*
X018975Y004150D01*
X017678Y004150D01*
X017678Y004125D01*
X017555Y004002D01*
X016985Y004002D01*
X016862Y004125D01*
X016862Y004150D01*
X016128Y004150D01*
X015417Y003440D01*
X015322Y003400D01*
X014468Y003400D01*
X014373Y003440D01*
X014123Y003690D01*
X014050Y003763D01*
X014010Y003858D01*
X014010Y005052D01*
X013412Y005650D01*
X012340Y005650D01*
X012340Y005130D01*
X012465Y005130D01*
X012740Y004855D01*
X012740Y004790D01*
X012774Y004824D01*
X012800Y004850D01*
X012800Y004855D01*
X013075Y005130D01*
X013465Y005130D01*
X013740Y004855D01*
X013740Y004465D01*
X013465Y004190D01*
X013075Y004190D01*
X013018Y004248D01*
X010434Y001664D01*
X010328Y001620D01*
X003880Y001620D01*
X004012Y001489D01*
X004100Y001275D01*
X004100Y001045D01*
X004012Y000831D01*
X003848Y000668D01*
X003708Y000610D01*
X023570Y000610D01*
X023570Y018952D01*
X004310Y018952D01*
X004336Y018926D01*
X004425Y018712D01*
X004425Y018482D01*
X004336Y018268D01*
X004173Y018105D01*
X004153Y018097D01*
X004173Y018089D01*
X004336Y017926D01*
X004425Y017712D01*
X004425Y017482D01*
X004336Y017268D01*
X004173Y017105D01*
X004153Y017097D01*
X004173Y017089D01*
X004336Y016926D01*
X004425Y016712D01*
X004425Y016482D01*
X004336Y016268D01*
X004173Y016105D01*
X004153Y016097D01*
X004173Y016089D01*
X004336Y015926D01*
X004425Y015712D01*
X004425Y015482D01*
X004336Y015268D01*
X004173Y015105D01*
X004153Y015097D01*
X004173Y015089D01*
X004336Y014926D01*
X004425Y014712D01*
X004425Y014482D01*
X004336Y014268D01*
X004173Y014105D01*
X004153Y014097D01*
X004173Y014089D01*
X004336Y013926D01*
X004425Y013712D01*
X004425Y013482D01*
X004336Y013268D01*
X004173Y013105D01*
X003960Y013017D01*
X003729Y013017D01*
X003516Y013105D01*
X003353Y013268D01*
X003325Y013337D01*
X002632Y013337D01*
X002404Y013109D01*
X002404Y012380D01*
X002281Y012257D01*
X001307Y012257D01*
X001184Y012380D01*
X001184Y013354D01*
X001307Y013477D01*
X002036Y013477D01*
X002377Y013817D01*
X002472Y013857D01*
X003325Y013857D01*
X003353Y013926D01*
X003516Y014089D01*
X003536Y014097D01*
X003516Y014105D01*
X003353Y014268D01*
X003265Y014482D01*
X003265Y014712D01*
X003353Y014926D01*
X003516Y015089D01*
X003536Y015097D01*
X003516Y015105D01*
X003353Y015268D01*
X003265Y015482D01*
X003265Y015712D01*
X003353Y015926D01*
X003516Y016089D01*
X003536Y016097D01*
X003516Y016105D01*
X003353Y016268D01*
X003265Y016482D01*
X003265Y016712D01*
X003353Y016926D01*
X003516Y017089D01*
X003536Y017097D01*
X003516Y017105D01*
X003353Y017268D01*
X003265Y017482D01*
X003265Y017712D01*
X003353Y017926D01*
X003516Y018089D01*
X003536Y018097D01*
X003516Y018105D01*
X003353Y018268D01*
X003265Y018482D01*
X003265Y018712D01*
X003353Y018926D01*
X003380Y018952D01*
X000606Y018952D01*
X000606Y018875D02*
X003332Y018875D01*
X003291Y018777D02*
X000606Y018777D01*
X000606Y018678D02*
X003265Y018678D01*
X003265Y018580D02*
X000606Y018580D01*
X000606Y018481D02*
X003265Y018481D01*
X003306Y018383D02*
X000606Y018383D01*
X000606Y018284D02*
X003347Y018284D01*
X003436Y018186D02*
X000606Y018186D01*
X000606Y018087D02*
X003515Y018087D01*
X003416Y017989D02*
X000606Y017989D01*
X000606Y017890D02*
X003338Y017890D01*
X003298Y017792D02*
X000606Y017792D01*
X000606Y017693D02*
X003265Y017693D01*
X003265Y017595D02*
X000606Y017595D01*
X000606Y017496D02*
X003265Y017496D01*
X003300Y017398D02*
X001954Y017398D01*
X001915Y017414D02*
X002139Y017321D01*
X002311Y017149D01*
X002404Y016925D01*
X002404Y016682D01*
X002311Y016458D01*
X002139Y016287D01*
X001915Y016194D01*
X001672Y016194D01*
X001448Y016287D01*
X001276Y016458D01*
X001184Y016682D01*
X001184Y016925D01*
X001276Y017149D01*
X001448Y017321D01*
X001672Y017414D01*
X001915Y017414D01*
X002161Y017299D02*
X003340Y017299D01*
X003421Y017201D02*
X002259Y017201D01*
X002330Y017102D02*
X003524Y017102D01*
X003431Y017004D02*
X002371Y017004D01*
X002404Y016905D02*
X003345Y016905D01*
X003304Y016807D02*
X002404Y016807D01*
X002404Y016708D02*
X003265Y016708D01*
X003265Y016610D02*
X002373Y016610D01*
X002333Y016511D02*
X003265Y016511D01*
X003293Y016413D02*
X002265Y016413D01*
X002167Y016314D02*
X003334Y016314D01*
X003406Y016216D02*
X001968Y016216D01*
X001619Y016216D02*
X000606Y016216D01*
X000606Y016314D02*
X001421Y016314D01*
X001322Y016413D02*
X000606Y016413D01*
X000606Y016511D02*
X001255Y016511D01*
X001214Y016610D02*
X000606Y016610D01*
X000606Y016708D02*
X001184Y016708D01*
X001184Y016807D02*
X000606Y016807D01*
X000606Y016905D02*
X001184Y016905D01*
X001216Y017004D02*
X000606Y017004D01*
X000606Y017102D02*
X001257Y017102D01*
X001328Y017201D02*
X000606Y017201D01*
X000606Y017299D02*
X001426Y017299D01*
X001633Y017398D02*
X000606Y017398D01*
X000606Y016117D02*
X003504Y016117D01*
X003446Y016019D02*
X000606Y016019D01*
X000606Y015920D02*
X003351Y015920D01*
X003310Y015822D02*
X000606Y015822D01*
X000606Y015723D02*
X003269Y015723D01*
X003265Y015625D02*
X000606Y015625D01*
X000606Y015526D02*
X003265Y015526D01*
X003287Y015428D02*
X001958Y015428D01*
X001915Y015445D02*
X002139Y015352D01*
X002311Y015181D01*
X002404Y014957D01*
X002404Y014714D01*
X002311Y014490D01*
X002139Y014318D01*
X001915Y014225D01*
X001672Y014225D01*
X001448Y014318D01*
X001276Y014490D01*
X001184Y014714D01*
X001184Y014957D01*
X001276Y015181D01*
X001448Y015352D01*
X001672Y015445D01*
X001915Y015445D01*
X002162Y015329D02*
X003328Y015329D01*
X003391Y015231D02*
X002261Y015231D01*
X002331Y015132D02*
X003489Y015132D01*
X003461Y015034D02*
X002372Y015034D01*
X002404Y014935D02*
X003363Y014935D01*
X003316Y014837D02*
X002404Y014837D01*
X002404Y014738D02*
X003275Y014738D01*
X003265Y014640D02*
X002373Y014640D01*
X002332Y014541D02*
X003265Y014541D01*
X003281Y014443D02*
X002264Y014443D01*
X002165Y014344D02*
X003322Y014344D01*
X003376Y014246D02*
X001964Y014246D01*
X001623Y014246D02*
X000606Y014246D01*
X000606Y014344D02*
X001422Y014344D01*
X001324Y014443D02*
X000606Y014443D01*
X000606Y014541D02*
X001255Y014541D01*
X001214Y014640D02*
X000606Y014640D01*
X000606Y014738D02*
X001184Y014738D01*
X001184Y014837D02*
X000606Y014837D01*
X000606Y014935D02*
X001184Y014935D01*
X001215Y015034D02*
X000606Y015034D01*
X000606Y015132D02*
X001256Y015132D01*
X001326Y015231D02*
X000606Y015231D01*
X000606Y015329D02*
X001425Y015329D01*
X001630Y015428D02*
X000606Y015428D01*
X000606Y014147D02*
X003474Y014147D01*
X003476Y014049D02*
X000606Y014049D01*
X000606Y013950D02*
X003378Y013950D01*
X003845Y013597D02*
X002524Y013597D01*
X001794Y012867D01*
X002404Y012867D02*
X004362Y012867D01*
X004362Y012965D02*
X002404Y012965D01*
X002404Y013064D02*
X003617Y013064D01*
X003459Y013162D02*
X002457Y013162D01*
X002555Y013261D02*
X003361Y013261D01*
X004072Y013064D02*
X004362Y013064D01*
X004362Y013162D02*
X004230Y013162D01*
X004328Y013261D02*
X004427Y013261D01*
X004374Y013359D02*
X008510Y013359D01*
X008510Y013261D02*
X005113Y013261D01*
X005178Y013162D02*
X008510Y013162D01*
X008510Y013064D02*
X005178Y013064D01*
X005178Y012965D02*
X008510Y012965D01*
X008510Y012867D02*
X005178Y012867D01*
X005178Y012768D02*
X008510Y012768D01*
X008510Y012670D02*
X005178Y012670D01*
X005124Y012571D02*
X008510Y012571D01*
X008510Y012473D02*
X005030Y012473D01*
X005030Y012374D02*
X008510Y012374D01*
X008510Y012276D02*
X004996Y012276D01*
X004905Y012177D02*
X008510Y012177D01*
X008510Y012079D02*
X004806Y012079D01*
X004708Y011980D02*
X008510Y011980D01*
X008510Y011882D02*
X004609Y011882D01*
X004511Y011783D02*
X008510Y011783D01*
X008510Y011685D02*
X004412Y011685D01*
X004314Y011586D02*
X008510Y011586D01*
X008510Y011488D02*
X004215Y011488D01*
X004117Y011389D02*
X008510Y011389D01*
X008510Y011291D02*
X004018Y011291D01*
X003920Y011192D02*
X008510Y011192D01*
X008510Y011094D02*
X003821Y011094D01*
X003723Y010995D02*
X008510Y010995D01*
X008510Y010897D02*
X003624Y010897D01*
X003526Y010798D02*
X008510Y010798D01*
X008510Y010700D02*
X003427Y010700D01*
X003329Y010601D02*
X008510Y010601D01*
X008510Y010503D02*
X003280Y010503D01*
X003280Y010404D02*
X008510Y010404D01*
X008532Y010306D02*
X003280Y010306D01*
X003280Y010207D02*
X008605Y010207D01*
X008704Y010109D02*
X003280Y010109D01*
X003280Y010010D02*
X008802Y010010D01*
X008901Y009912D02*
X003280Y009912D01*
X003280Y009813D02*
X008999Y009813D01*
X009098Y009715D02*
X003280Y009715D01*
X003280Y009616D02*
X009196Y009616D01*
X009295Y009518D02*
X003280Y009518D01*
X003280Y009419D02*
X009393Y009419D01*
X009492Y009321D02*
X003280Y009321D01*
X003280Y009222D02*
X009590Y009222D01*
X009689Y009124D02*
X003280Y009124D01*
X003280Y009025D02*
X009787Y009025D01*
X009904Y008927D02*
X003280Y008927D01*
X003280Y008828D02*
X011715Y008828D01*
X011813Y008730D02*
X003280Y008730D01*
X003280Y008631D02*
X011820Y008631D01*
X011820Y008533D02*
X003280Y008533D01*
X003280Y008434D02*
X011820Y008434D01*
X011820Y008336D02*
X003280Y008336D01*
X003280Y008237D02*
X011820Y008237D01*
X011820Y008139D02*
X003280Y008139D01*
X003280Y008040D02*
X011820Y008040D01*
X011820Y007942D02*
X003280Y007942D01*
X003280Y007843D02*
X011820Y007843D01*
X011820Y007745D02*
X003280Y007745D01*
X003280Y007646D02*
X011820Y007646D01*
X011820Y007548D02*
X004076Y007548D01*
X004055Y007568D02*
X003485Y007568D01*
X003362Y007445D01*
X003362Y006875D01*
X003485Y006752D01*
X003510Y006752D01*
X003510Y005068D01*
X003550Y004973D01*
X004870Y003653D01*
X004943Y003580D01*
X005038Y003540D01*
X006272Y003540D01*
X006272Y003515D01*
X006395Y003392D01*
X006965Y003392D01*
X007088Y003515D01*
X007088Y003540D01*
X009732Y003540D01*
X009827Y003580D01*
X010467Y004220D01*
X010540Y004293D01*
X010580Y004388D01*
X010580Y005322D01*
X010635Y005322D01*
X010758Y005445D01*
X010758Y006015D01*
X010635Y006138D01*
X010065Y006138D01*
X009942Y006015D01*
X009942Y005445D01*
X010060Y005327D01*
X010060Y004548D01*
X009572Y004060D01*
X007088Y004060D01*
X007088Y004085D01*
X006965Y004208D01*
X006395Y004208D01*
X006272Y004085D01*
X006272Y004060D01*
X005198Y004060D01*
X004030Y005228D01*
X004030Y006752D01*
X004055Y006752D01*
X004178Y006875D01*
X004178Y007445D01*
X004055Y007568D01*
X004174Y007449D02*
X011820Y007449D01*
X011820Y007351D02*
X004178Y007351D01*
X004178Y007252D02*
X011820Y007252D01*
X011820Y007154D02*
X004178Y007154D01*
X004178Y007055D02*
X011820Y007055D01*
X011820Y006957D02*
X004178Y006957D01*
X004161Y006858D02*
X011820Y006858D01*
X011820Y006760D02*
X004063Y006760D01*
X004030Y006661D02*
X011820Y006661D01*
X011820Y006563D02*
X004030Y006563D01*
X004030Y006464D02*
X011820Y006464D01*
X011820Y006366D02*
X004030Y006366D01*
X004030Y006267D02*
X011820Y006267D01*
X011820Y006169D02*
X004030Y006169D01*
X004030Y006070D02*
X009997Y006070D01*
X009942Y005972D02*
X004030Y005972D01*
X004030Y005873D02*
X009942Y005873D01*
X009942Y005775D02*
X004030Y005775D01*
X004030Y005676D02*
X009942Y005676D01*
X009942Y005578D02*
X004030Y005578D01*
X004030Y005479D02*
X009942Y005479D01*
X010006Y005381D02*
X004030Y005381D01*
X004030Y005282D02*
X010060Y005282D01*
X010060Y005184D02*
X004074Y005184D01*
X004173Y005085D02*
X010060Y005085D01*
X010060Y004987D02*
X004271Y004987D01*
X004370Y004888D02*
X010060Y004888D01*
X010060Y004790D02*
X004468Y004790D01*
X004567Y004691D02*
X010060Y004691D01*
X010060Y004593D02*
X004665Y004593D01*
X004764Y004494D02*
X010006Y004494D01*
X009908Y004396D02*
X004862Y004396D01*
X004961Y004297D02*
X009809Y004297D01*
X009711Y004199D02*
X006975Y004199D01*
X007073Y004100D02*
X009612Y004100D01*
X009680Y003800D02*
X010320Y004440D01*
X010320Y005700D01*
X010350Y005730D01*
X010758Y005775D02*
X011820Y005775D01*
X011820Y005873D02*
X010758Y005873D01*
X010758Y005972D02*
X011820Y005972D01*
X011820Y006070D02*
X010703Y006070D01*
X010758Y005676D02*
X011820Y005676D01*
X011820Y005578D02*
X010758Y005578D01*
X010758Y005479D02*
X011820Y005479D01*
X011820Y005381D02*
X010694Y005381D01*
X010580Y005282D02*
X011820Y005282D01*
X011820Y005184D02*
X010580Y005184D01*
X010580Y005085D02*
X011820Y005085D01*
X011820Y004987D02*
X010580Y004987D01*
X010580Y004888D02*
X011820Y004888D01*
X011800Y004790D02*
X010580Y004790D01*
X010580Y004691D02*
X011800Y004691D01*
X011800Y004593D02*
X010580Y004593D01*
X010580Y004494D02*
X011736Y004494D01*
X011638Y004396D02*
X010580Y004396D01*
X010542Y004297D02*
X011539Y004297D01*
X011441Y004199D02*
X010446Y004199D01*
X010348Y004100D02*
X011342Y004100D01*
X011244Y004002D02*
X010249Y004002D01*
X010151Y003903D02*
X011145Y003903D01*
X011047Y003805D02*
X010052Y003805D01*
X009954Y003706D02*
X010948Y003706D01*
X010850Y003608D02*
X009855Y003608D01*
X009680Y003800D02*
X006680Y003800D01*
X005090Y003800D01*
X003770Y005120D01*
X003770Y007160D01*
X003362Y007154D02*
X003280Y007154D01*
X003280Y007252D02*
X003362Y007252D01*
X003362Y007351D02*
X003280Y007351D01*
X003280Y007449D02*
X003366Y007449D01*
X003280Y007548D02*
X003464Y007548D01*
X003362Y007055D02*
X003280Y007055D01*
X003280Y006957D02*
X003362Y006957D01*
X003379Y006858D02*
X003280Y006858D01*
X003280Y006760D02*
X003477Y006760D01*
X003510Y006661D02*
X003280Y006661D01*
X003280Y006563D02*
X003510Y006563D01*
X003510Y006464D02*
X003280Y006464D01*
X003280Y006366D02*
X003510Y006366D01*
X003510Y006267D02*
X003280Y006267D01*
X003280Y006169D02*
X003510Y006169D01*
X003510Y006070D02*
X003280Y006070D01*
X003280Y005972D02*
X003510Y005972D01*
X003510Y005873D02*
X003280Y005873D01*
X003280Y005775D02*
X003510Y005775D01*
X003510Y005676D02*
X003280Y005676D01*
X003280Y005578D02*
X003510Y005578D01*
X003510Y005479D02*
X003280Y005479D01*
X003280Y005381D02*
X003510Y005381D01*
X003510Y005282D02*
X003280Y005282D01*
X003280Y005184D02*
X003510Y005184D01*
X003510Y005085D02*
X003280Y005085D01*
X003280Y004987D02*
X003544Y004987D01*
X003634Y004888D02*
X003280Y004888D01*
X003280Y004790D02*
X003733Y004790D01*
X003831Y004691D02*
X003280Y004691D01*
X003280Y004593D02*
X003930Y004593D01*
X004028Y004494D02*
X003280Y004494D01*
X003280Y004396D02*
X004127Y004396D01*
X004225Y004297D02*
X003280Y004297D01*
X003280Y004199D02*
X004324Y004199D01*
X004422Y004100D02*
X003280Y004100D01*
X003280Y004002D02*
X004521Y004002D01*
X004619Y003903D02*
X003280Y003903D01*
X003280Y003805D02*
X004718Y003805D01*
X004816Y003706D02*
X003280Y003706D01*
X003280Y003608D02*
X004915Y003608D01*
X005158Y004100D02*
X006287Y004100D01*
X006385Y004199D02*
X005059Y004199D01*
X006278Y003509D02*
X003280Y003509D01*
X003280Y003411D02*
X006376Y003411D01*
X006984Y003411D02*
X010653Y003411D01*
X010751Y003509D02*
X007082Y003509D01*
X007380Y003214D02*
X003280Y003214D01*
X003280Y003312D02*
X007479Y003312D01*
X007362Y003115D02*
X003280Y003115D01*
X003280Y003017D02*
X007362Y003017D01*
X007362Y002918D02*
X003280Y002918D01*
X003280Y002820D02*
X007362Y002820D01*
X007362Y002721D02*
X003280Y002721D01*
X003280Y002623D02*
X007364Y002623D01*
X007463Y002524D02*
X003280Y002524D01*
X003280Y002426D02*
X010375Y002426D01*
X010474Y002524D02*
X008077Y002524D01*
X008176Y002623D02*
X010572Y002623D01*
X010520Y002910D02*
X012270Y004660D01*
X012080Y004850D01*
X012080Y005910D01*
X013520Y005910D01*
X014270Y005160D01*
X014270Y003910D01*
X014520Y003660D01*
X015270Y003660D01*
X016020Y004410D01*
X017270Y004410D01*
X019083Y004410D01*
X020778Y002715D01*
X020778Y002459D01*
X020770Y002467D01*
X020770Y006660D01*
X020270Y007160D01*
X020270Y008684D01*
X020278Y008691D01*
X020797Y008691D01*
X021206Y008730D02*
X023570Y008730D01*
X023570Y008828D02*
X021206Y008828D01*
X021206Y008927D02*
X023570Y008927D01*
X023570Y009025D02*
X021157Y009025D01*
X021206Y008631D02*
X023570Y008631D01*
X023570Y008533D02*
X021206Y008533D01*
X021206Y008434D02*
X023570Y008434D01*
X023570Y008336D02*
X021135Y008336D01*
X020530Y008237D02*
X023570Y008237D01*
X023570Y008139D02*
X020530Y008139D01*
X020530Y008040D02*
X023570Y008040D01*
X023570Y007942D02*
X020530Y007942D01*
X020530Y007843D02*
X023570Y007843D01*
X023570Y007745D02*
X020530Y007745D01*
X020530Y007646D02*
X023570Y007646D01*
X023570Y007548D02*
X020530Y007548D01*
X020530Y007449D02*
X023570Y007449D01*
X023570Y007351D02*
X020530Y007351D01*
X020546Y007252D02*
X023570Y007252D01*
X023570Y007154D02*
X020644Y007154D01*
X020743Y007055D02*
X023570Y007055D01*
X023570Y006957D02*
X020841Y006957D01*
X020940Y006858D02*
X023570Y006858D01*
X023570Y006760D02*
X021010Y006760D01*
X021030Y006661D02*
X023570Y006661D01*
X023570Y006563D02*
X021030Y006563D01*
X021030Y006464D02*
X023570Y006464D01*
X023570Y006366D02*
X021030Y006366D01*
X021030Y006267D02*
X023570Y006267D01*
X023570Y006169D02*
X021030Y006169D01*
X021030Y006070D02*
X023570Y006070D01*
X023570Y005972D02*
X021030Y005972D01*
X021030Y005873D02*
X023570Y005873D01*
X023570Y005775D02*
X021030Y005775D01*
X021030Y005676D02*
X023570Y005676D01*
X023570Y005578D02*
X021030Y005578D01*
X021030Y005479D02*
X023570Y005479D01*
X023570Y005381D02*
X021030Y005381D01*
X021030Y005282D02*
X023570Y005282D01*
X023570Y005184D02*
X021030Y005184D01*
X021030Y005085D02*
X023570Y005085D01*
X023570Y004987D02*
X021030Y004987D01*
X021030Y004888D02*
X023570Y004888D01*
X023570Y004790D02*
X021030Y004790D01*
X021030Y004691D02*
X023570Y004691D01*
X023570Y004593D02*
X021030Y004593D01*
X021030Y004494D02*
X023570Y004494D01*
X023570Y004396D02*
X021030Y004396D01*
X021030Y004297D02*
X023570Y004297D01*
X023570Y004199D02*
X021030Y004199D01*
X021030Y004100D02*
X023570Y004100D01*
X023570Y004002D02*
X021030Y004002D01*
X021030Y003903D02*
X023570Y003903D01*
X023570Y003805D02*
X021030Y003805D01*
X021030Y003706D02*
X023570Y003706D01*
X023570Y003608D02*
X021030Y003608D01*
X021030Y003509D02*
X023570Y003509D01*
X023570Y003411D02*
X021030Y003411D01*
X021030Y003312D02*
X023570Y003312D01*
X023570Y003214D02*
X021030Y003214D01*
X021030Y003115D02*
X023570Y003115D01*
X023570Y003017D02*
X021030Y003017D01*
X021030Y002918D02*
X023570Y002918D01*
X023570Y002820D02*
X021030Y002820D01*
X021129Y002721D02*
X021609Y002721D01*
X021412Y002623D02*
X021228Y002623D01*
X021288Y002524D02*
X021314Y002524D01*
X020778Y002459D02*
X020778Y002268D01*
X020770Y002260D01*
X020770Y002410D01*
X020404Y002721D02*
X019129Y002721D01*
X019098Y002752D02*
X018885Y002840D01*
X018655Y002840D01*
X018441Y002752D01*
X018278Y002589D01*
X018244Y002506D01*
X018098Y002652D01*
X017885Y002740D01*
X017655Y002740D01*
X017441Y002652D01*
X017296Y002506D01*
X017262Y002589D01*
X017098Y002752D01*
X016885Y002840D01*
X016655Y002840D01*
X016441Y002752D01*
X016278Y002589D01*
X016190Y002375D01*
X016190Y002145D01*
X016278Y001931D01*
X016441Y001768D01*
X016655Y001680D01*
X016885Y001680D01*
X017098Y001768D01*
X017244Y001914D01*
X017278Y001831D01*
X017441Y001668D01*
X017655Y001580D01*
X017885Y001580D01*
X018098Y001668D01*
X018262Y001831D01*
X018296Y001914D01*
X018441Y001768D01*
X018655Y001680D01*
X018885Y001680D01*
X019098Y001768D01*
X019262Y001931D01*
X019350Y002145D01*
X019350Y002375D01*
X019262Y002589D01*
X019098Y002752D01*
X018935Y002820D02*
X020306Y002820D01*
X020207Y002918D02*
X011688Y002918D01*
X011590Y002820D02*
X016605Y002820D01*
X016411Y002721D02*
X011491Y002721D01*
X011393Y002623D02*
X011785Y002623D01*
X011735Y002572D02*
X011858Y002695D01*
X012682Y002695D01*
X012805Y002572D01*
X012805Y001748D01*
X012682Y001625D01*
X011858Y001625D01*
X011735Y001748D01*
X011735Y002572D01*
X011735Y002524D02*
X011294Y002524D01*
X011196Y002426D02*
X011735Y002426D01*
X011735Y002327D02*
X011097Y002327D01*
X010999Y002229D02*
X011735Y002229D01*
X011735Y002130D02*
X010900Y002130D01*
X010802Y002032D02*
X011735Y002032D01*
X011735Y001933D02*
X010703Y001933D01*
X010605Y001835D02*
X011735Y001835D01*
X011747Y001736D02*
X010506Y001736D01*
X010370Y001638D02*
X011845Y001638D01*
X012694Y001638D02*
X017516Y001638D01*
X017374Y001736D02*
X017020Y001736D01*
X017165Y001835D02*
X017277Y001835D01*
X017288Y002524D02*
X017314Y002524D01*
X017228Y002623D02*
X017412Y002623D01*
X017609Y002721D02*
X017129Y002721D01*
X016935Y002820D02*
X018605Y002820D01*
X018411Y002721D02*
X017931Y002721D01*
X018128Y002623D02*
X018312Y002623D01*
X018251Y002524D02*
X018226Y002524D01*
X018263Y001835D02*
X018375Y001835D01*
X018519Y001736D02*
X018166Y001736D01*
X018024Y001638D02*
X021516Y001638D01*
X021374Y001736D02*
X021020Y001736D01*
X021165Y001835D02*
X021277Y001835D01*
X020519Y001736D02*
X019020Y001736D01*
X019165Y001835D02*
X020375Y001835D01*
X020278Y001933D02*
X019262Y001933D01*
X019303Y002032D02*
X020237Y002032D01*
X020196Y002130D02*
X019344Y002130D01*
X019350Y002229D02*
X020190Y002229D01*
X020190Y002327D02*
X019350Y002327D01*
X019329Y002426D02*
X020211Y002426D01*
X020251Y002524D02*
X019288Y002524D01*
X019228Y002623D02*
X020312Y002623D01*
X020109Y003017D02*
X011787Y003017D01*
X011885Y003115D02*
X020010Y003115D01*
X019912Y003214D02*
X011984Y003214D01*
X012082Y003312D02*
X019813Y003312D01*
X019715Y003411D02*
X015347Y003411D01*
X015487Y003509D02*
X019616Y003509D01*
X019518Y003608D02*
X015585Y003608D01*
X015684Y003706D02*
X019419Y003706D01*
X019321Y003805D02*
X015782Y003805D01*
X015881Y003903D02*
X019222Y003903D01*
X019124Y004002D02*
X015979Y004002D01*
X016078Y004100D02*
X016887Y004100D01*
X016862Y004691D02*
X015428Y004691D01*
X015428Y004593D02*
X015835Y004593D01*
X015736Y004494D02*
X015428Y004494D01*
X015428Y004396D02*
X015638Y004396D01*
X015539Y004297D02*
X015350Y004297D01*
X015305Y004252D02*
X015428Y004375D01*
X015428Y004945D01*
X015305Y005068D01*
X015280Y005068D01*
X015280Y014212D01*
X015240Y014307D01*
X014280Y015268D01*
X014280Y015690D01*
X014348Y015718D01*
X014494Y015864D01*
X014528Y015781D01*
X014691Y015618D01*
X014905Y015530D01*
X015135Y015530D01*
X015348Y015618D01*
X015512Y015781D01*
X015546Y015864D01*
X015691Y015718D01*
X015800Y015673D01*
X015800Y006238D01*
X015775Y006238D01*
X015652Y006115D01*
X015652Y005545D01*
X015775Y005422D01*
X016345Y005422D01*
X016468Y005545D01*
X016468Y006115D01*
X016345Y006238D01*
X016320Y006238D01*
X016320Y015706D01*
X016348Y015718D01*
X016494Y015864D01*
X016528Y015781D01*
X016691Y015618D01*
X016905Y015530D01*
X017135Y015530D01*
X017348Y015618D01*
X017512Y015781D01*
X017600Y015995D01*
X017600Y016225D01*
X017512Y016439D01*
X017348Y016602D01*
X017135Y016690D01*
X016905Y016690D01*
X016691Y016602D01*
X016546Y016456D01*
X016512Y016539D01*
X016348Y016702D01*
X016135Y016790D01*
X015905Y016790D01*
X015691Y016702D01*
X015528Y016539D01*
X015494Y016456D01*
X015348Y016602D01*
X015135Y016690D01*
X014905Y016690D01*
X014691Y016602D01*
X014546Y016456D01*
X014512Y016539D01*
X014348Y016702D01*
X014135Y016790D01*
X013905Y016790D01*
X013691Y016702D01*
X013528Y016539D01*
X013440Y016325D01*
X013440Y016095D01*
X013528Y015881D01*
X013691Y015718D01*
X013760Y015690D01*
X013760Y015108D01*
X013800Y015013D01*
X014760Y014052D01*
X014760Y005068D01*
X014735Y005068D01*
X014612Y004945D01*
X014612Y004375D01*
X014735Y004252D01*
X015305Y004252D01*
X015441Y004199D02*
X014530Y004199D01*
X014530Y004297D02*
X014690Y004297D01*
X014612Y004396D02*
X014530Y004396D01*
X014530Y004494D02*
X014612Y004494D01*
X014612Y004593D02*
X014530Y004593D01*
X014530Y004691D02*
X014612Y004691D01*
X014612Y004790D02*
X014530Y004790D01*
X014530Y004888D02*
X014612Y004888D01*
X014653Y004987D02*
X014530Y004987D01*
X014530Y005085D02*
X014760Y005085D01*
X014760Y005184D02*
X014530Y005184D01*
X014501Y005282D02*
X014760Y005282D01*
X014760Y005381D02*
X014417Y005381D01*
X014319Y005479D02*
X014760Y005479D01*
X014760Y005578D02*
X014220Y005578D01*
X014122Y005676D02*
X014760Y005676D01*
X014760Y005775D02*
X014023Y005775D01*
X013925Y005873D02*
X014760Y005873D01*
X014760Y005972D02*
X013826Y005972D01*
X013728Y006070D02*
X014760Y006070D01*
X014760Y006169D02*
X013575Y006169D01*
X013485Y005578D02*
X012340Y005578D01*
X012340Y005479D02*
X013583Y005479D01*
X013682Y005381D02*
X012340Y005381D01*
X012340Y005282D02*
X013780Y005282D01*
X013879Y005184D02*
X012340Y005184D01*
X012510Y005085D02*
X013030Y005085D01*
X012932Y004987D02*
X012608Y004987D01*
X012707Y004888D02*
X012833Y004888D01*
X012969Y004199D02*
X013067Y004199D01*
X012870Y004100D02*
X014010Y004100D01*
X014010Y004002D02*
X012772Y004002D01*
X012673Y003903D02*
X014010Y003903D01*
X014032Y003805D02*
X012575Y003805D01*
X012476Y003706D02*
X014106Y003706D01*
X014205Y003608D02*
X012378Y003608D01*
X012279Y003509D02*
X014303Y003509D01*
X014443Y003411D02*
X012181Y003411D01*
X012754Y002623D02*
X016312Y002623D01*
X016251Y002524D02*
X012805Y002524D01*
X012805Y002426D02*
X016211Y002426D01*
X016190Y002327D02*
X012805Y002327D01*
X012805Y002229D02*
X016190Y002229D01*
X016196Y002130D02*
X012805Y002130D01*
X012805Y002032D02*
X016237Y002032D01*
X016278Y001933D02*
X012805Y001933D01*
X012805Y001835D02*
X016375Y001835D01*
X016519Y001736D02*
X012793Y001736D01*
X014020Y001660D02*
X014270Y001910D01*
X014270Y002160D01*
X014546Y004002D02*
X015244Y004002D01*
X015342Y004100D02*
X014530Y004100D01*
X014010Y004199D02*
X013473Y004199D01*
X013572Y004297D02*
X014010Y004297D01*
X014010Y004396D02*
X013670Y004396D01*
X013740Y004494D02*
X014010Y004494D01*
X014010Y004593D02*
X013740Y004593D01*
X013740Y004691D02*
X014010Y004691D01*
X014010Y004790D02*
X013740Y004790D01*
X013707Y004888D02*
X014010Y004888D01*
X014010Y004987D02*
X013608Y004987D01*
X013510Y005085D02*
X013977Y005085D01*
X015020Y004660D02*
X015020Y014160D01*
X014020Y015160D01*
X014020Y016210D01*
X013440Y016216D02*
X009428Y016216D01*
X009428Y016314D02*
X013440Y016314D01*
X013476Y016413D02*
X009428Y016413D01*
X009428Y016511D02*
X013517Y016511D01*
X013599Y016610D02*
X009428Y016610D01*
X009415Y016708D02*
X013707Y016708D01*
X014333Y016708D02*
X015707Y016708D01*
X015599Y016610D02*
X015330Y016610D01*
X015439Y016511D02*
X015517Y016511D01*
X016020Y016210D02*
X016060Y016170D01*
X016060Y005830D01*
X016468Y005873D02*
X020510Y005873D01*
X020510Y005775D02*
X016468Y005775D01*
X016468Y005676D02*
X020510Y005676D01*
X020510Y005578D02*
X016468Y005578D01*
X016402Y005479D02*
X020510Y005479D01*
X020510Y005381D02*
X015280Y005381D01*
X015280Y005479D02*
X015718Y005479D01*
X015652Y005578D02*
X015280Y005578D01*
X015280Y005676D02*
X015652Y005676D01*
X015652Y005775D02*
X015280Y005775D01*
X015280Y005873D02*
X015652Y005873D01*
X015652Y005972D02*
X015280Y005972D01*
X015280Y006070D02*
X015652Y006070D01*
X015705Y006169D02*
X015280Y006169D01*
X015280Y006267D02*
X015800Y006267D01*
X015800Y006366D02*
X015280Y006366D01*
X015280Y006464D02*
X015800Y006464D01*
X015800Y006563D02*
X015280Y006563D01*
X015280Y006661D02*
X015800Y006661D01*
X015800Y006760D02*
X015280Y006760D01*
X015280Y006858D02*
X015800Y006858D01*
X015800Y006957D02*
X015280Y006957D01*
X015280Y007055D02*
X015800Y007055D01*
X015800Y007154D02*
X015280Y007154D01*
X015280Y007252D02*
X015800Y007252D01*
X015800Y007351D02*
X015280Y007351D01*
X015280Y007449D02*
X015800Y007449D01*
X015800Y007548D02*
X015280Y007548D01*
X015280Y007646D02*
X015800Y007646D01*
X015800Y007745D02*
X015280Y007745D01*
X015280Y007843D02*
X015800Y007843D01*
X015800Y007942D02*
X015280Y007942D01*
X015280Y008040D02*
X015800Y008040D01*
X015800Y008139D02*
X015280Y008139D01*
X015280Y008237D02*
X015800Y008237D01*
X015800Y008336D02*
X015280Y008336D01*
X015280Y008434D02*
X015800Y008434D01*
X015800Y008533D02*
X015280Y008533D01*
X015280Y008631D02*
X015800Y008631D01*
X015800Y008730D02*
X015280Y008730D01*
X015280Y008828D02*
X015800Y008828D01*
X015800Y008927D02*
X015280Y008927D01*
X015280Y009025D02*
X015800Y009025D01*
X015800Y009124D02*
X015280Y009124D01*
X015280Y009222D02*
X015800Y009222D01*
X015800Y009321D02*
X015280Y009321D01*
X015280Y009419D02*
X015800Y009419D01*
X015800Y009518D02*
X015280Y009518D01*
X015280Y009616D02*
X015800Y009616D01*
X015800Y009715D02*
X015280Y009715D01*
X015280Y009813D02*
X015800Y009813D01*
X015800Y009912D02*
X015280Y009912D01*
X015280Y010010D02*
X015800Y010010D01*
X015800Y010109D02*
X015280Y010109D01*
X015280Y010207D02*
X015800Y010207D01*
X015800Y010306D02*
X015280Y010306D01*
X015280Y010404D02*
X015800Y010404D01*
X015800Y010503D02*
X015280Y010503D01*
X015280Y010601D02*
X015800Y010601D01*
X015800Y010700D02*
X015280Y010700D01*
X015280Y010798D02*
X015800Y010798D01*
X015800Y010897D02*
X015280Y010897D01*
X015280Y010995D02*
X015800Y010995D01*
X015800Y011094D02*
X015280Y011094D01*
X015280Y011192D02*
X015800Y011192D01*
X015800Y011291D02*
X015280Y011291D01*
X015280Y011389D02*
X015800Y011389D01*
X015800Y011488D02*
X015280Y011488D01*
X015280Y011586D02*
X015800Y011586D01*
X015800Y011685D02*
X015280Y011685D01*
X015280Y011783D02*
X015800Y011783D01*
X015800Y011882D02*
X015280Y011882D01*
X015280Y011980D02*
X015800Y011980D01*
X015800Y012079D02*
X015280Y012079D01*
X015280Y012177D02*
X015800Y012177D01*
X015800Y012276D02*
X015280Y012276D01*
X015280Y012374D02*
X015800Y012374D01*
X015800Y012473D02*
X015280Y012473D01*
X015280Y012571D02*
X015800Y012571D01*
X015800Y012670D02*
X015280Y012670D01*
X015280Y012768D02*
X015800Y012768D01*
X015800Y012867D02*
X015280Y012867D01*
X015280Y012965D02*
X015800Y012965D01*
X015800Y013064D02*
X015280Y013064D01*
X015280Y013162D02*
X015800Y013162D01*
X015800Y013261D02*
X015280Y013261D01*
X015280Y013359D02*
X015800Y013359D01*
X015800Y013458D02*
X015280Y013458D01*
X015280Y013556D02*
X015800Y013556D01*
X015800Y013655D02*
X015280Y013655D01*
X015280Y013753D02*
X015800Y013753D01*
X015800Y013852D02*
X015280Y013852D01*
X015280Y013950D02*
X015800Y013950D01*
X015800Y014049D02*
X015280Y014049D01*
X015280Y014147D02*
X015800Y014147D01*
X015800Y014246D02*
X015266Y014246D01*
X015204Y014344D02*
X015800Y014344D01*
X015800Y014443D02*
X015105Y014443D01*
X015007Y014541D02*
X015800Y014541D01*
X015800Y014640D02*
X014908Y014640D01*
X014810Y014738D02*
X015800Y014738D01*
X015800Y014837D02*
X014711Y014837D01*
X014613Y014935D02*
X015800Y014935D01*
X015800Y015034D02*
X014514Y015034D01*
X014416Y015132D02*
X015800Y015132D01*
X015800Y015231D02*
X014317Y015231D01*
X014280Y015329D02*
X015800Y015329D01*
X015800Y015428D02*
X014280Y015428D01*
X014280Y015526D02*
X015800Y015526D01*
X015800Y015625D02*
X015355Y015625D01*
X015453Y015723D02*
X015687Y015723D01*
X015588Y015822D02*
X015528Y015822D01*
X016320Y015625D02*
X016685Y015625D01*
X016587Y015723D02*
X016353Y015723D01*
X016452Y015822D02*
X016512Y015822D01*
X016320Y015526D02*
X023570Y015526D01*
X023570Y015428D02*
X016320Y015428D01*
X016320Y015329D02*
X023570Y015329D01*
X023570Y015231D02*
X016320Y015231D01*
X016320Y015132D02*
X023570Y015132D01*
X023570Y015034D02*
X019340Y015034D01*
X019305Y015068D02*
X018735Y015068D01*
X018645Y014978D01*
X018555Y015068D01*
X017985Y015068D01*
X017862Y014945D01*
X017862Y014375D01*
X017985Y014252D01*
X018555Y014252D01*
X018645Y014342D01*
X018735Y014252D01*
X019305Y014252D01*
X019428Y014375D01*
X019428Y014945D01*
X019305Y015068D01*
X019428Y014935D02*
X023570Y014935D01*
X023570Y014837D02*
X019428Y014837D01*
X019428Y014738D02*
X023570Y014738D01*
X023570Y014640D02*
X019428Y014640D01*
X019428Y014541D02*
X023570Y014541D01*
X023570Y014443D02*
X019428Y014443D01*
X019397Y014344D02*
X023570Y014344D01*
X023570Y014246D02*
X016320Y014246D01*
X016320Y014344D02*
X017893Y014344D01*
X017862Y014443D02*
X016320Y014443D01*
X016320Y014541D02*
X017862Y014541D01*
X017862Y014640D02*
X016320Y014640D01*
X016320Y014738D02*
X017862Y014738D01*
X017862Y014837D02*
X016320Y014837D01*
X016320Y014935D02*
X017862Y014935D01*
X017950Y015034D02*
X016320Y015034D01*
X016320Y014147D02*
X023570Y014147D01*
X023570Y014049D02*
X016320Y014049D01*
X016320Y013950D02*
X023570Y013950D01*
X023570Y013852D02*
X020196Y013852D01*
X020020Y013660D02*
X020270Y013410D01*
X020270Y008684D01*
X020010Y008730D02*
X016320Y008730D01*
X016320Y008828D02*
X020010Y008828D01*
X020010Y008927D02*
X016320Y008927D01*
X016320Y009025D02*
X020010Y009025D01*
X020010Y009124D02*
X016320Y009124D01*
X016320Y009222D02*
X020010Y009222D01*
X020010Y009321D02*
X016320Y009321D01*
X016320Y009419D02*
X020010Y009419D01*
X020010Y009518D02*
X016320Y009518D01*
X016320Y009616D02*
X020010Y009616D01*
X020010Y009715D02*
X016320Y009715D01*
X016320Y009813D02*
X020010Y009813D01*
X020010Y009912D02*
X016320Y009912D01*
X016320Y010010D02*
X020010Y010010D01*
X020010Y010109D02*
X016320Y010109D01*
X016320Y010207D02*
X020010Y010207D01*
X020010Y010306D02*
X016320Y010306D01*
X016320Y010404D02*
X020010Y010404D01*
X020010Y010503D02*
X016320Y010503D01*
X016320Y010601D02*
X020010Y010601D01*
X020010Y010700D02*
X016320Y010700D01*
X016320Y010798D02*
X020010Y010798D01*
X020010Y010897D02*
X016320Y010897D01*
X016320Y010995D02*
X020010Y010995D01*
X020010Y011094D02*
X016320Y011094D01*
X016320Y011192D02*
X020010Y011192D01*
X020010Y011291D02*
X016320Y011291D01*
X016320Y011389D02*
X020010Y011389D01*
X020010Y011488D02*
X016320Y011488D01*
X016320Y011586D02*
X020010Y011586D01*
X020010Y011685D02*
X016320Y011685D01*
X016320Y011783D02*
X020010Y011783D01*
X020010Y011882D02*
X016320Y011882D01*
X016320Y011980D02*
X020010Y011980D01*
X020010Y012079D02*
X016320Y012079D01*
X016320Y012177D02*
X020010Y012177D01*
X020010Y012276D02*
X016320Y012276D01*
X016320Y012374D02*
X020010Y012374D01*
X020010Y012473D02*
X017586Y012473D01*
X017638Y012571D02*
X020010Y012571D01*
X020010Y012670D02*
X017638Y012670D01*
X017638Y012768D02*
X020010Y012768D01*
X020010Y012867D02*
X017638Y012867D01*
X017638Y012965D02*
X020010Y012965D01*
X019923Y013064D02*
X017638Y013064D01*
X017571Y013162D02*
X019862Y013162D01*
X019862Y013261D02*
X017490Y013261D01*
X017587Y013359D02*
X019862Y013359D01*
X020020Y013660D02*
X017520Y013660D01*
X017230Y013370D01*
X017230Y012810D01*
X016822Y012768D02*
X016320Y012768D01*
X016320Y012670D02*
X016822Y012670D01*
X016822Y012571D02*
X016320Y012571D01*
X016320Y012473D02*
X016874Y012473D01*
X016822Y012867D02*
X016320Y012867D01*
X016320Y012965D02*
X016822Y012965D01*
X016822Y013064D02*
X016320Y013064D01*
X016320Y013162D02*
X016889Y013162D01*
X016970Y013261D02*
X016320Y013261D01*
X016320Y013359D02*
X016970Y013359D01*
X016985Y013458D02*
X016320Y013458D01*
X016320Y013556D02*
X017048Y013556D01*
X017147Y013655D02*
X016320Y013655D01*
X016320Y013753D02*
X017245Y013753D01*
X017344Y013852D02*
X016320Y013852D01*
X014760Y013852D02*
X012505Y013852D01*
X012511Y013862D02*
X012512Y013875D01*
X012517Y013887D01*
X012517Y013924D01*
X012521Y013961D01*
X012517Y013973D01*
X012517Y013986D01*
X012503Y014021D01*
X012492Y014056D01*
X012484Y014066D01*
X012479Y014078D01*
X012453Y014104D01*
X012333Y014251D01*
X012522Y014271D01*
X012559Y014271D01*
X012571Y014276D01*
X012584Y014277D01*
X012616Y014294D01*
X012650Y014309D01*
X012660Y014318D01*
X012671Y014324D01*
X012694Y014353D01*
X012721Y014379D01*
X012726Y014391D01*
X012734Y014401D01*
X012744Y014436D01*
X012759Y014470D01*
X012759Y014483D01*
X012762Y014496D01*
X012759Y014533D01*
X012759Y014795D01*
X012762Y014832D01*
X012759Y014844D01*
X012759Y014857D01*
X012744Y014892D01*
X012734Y014927D01*
X012726Y014937D01*
X012721Y014949D01*
X012694Y014975D01*
X012671Y015004D01*
X012660Y015010D01*
X012650Y015019D01*
X012616Y015033D01*
X012584Y015051D01*
X012571Y015052D01*
X012559Y015057D01*
X012522Y015057D01*
X012333Y015076D01*
X012453Y015224D01*
X012479Y015250D01*
X012484Y015262D01*
X012492Y015272D01*
X012503Y015307D01*
X012517Y015341D01*
X012517Y015354D01*
X012521Y015367D01*
X012517Y015404D01*
X012517Y015441D01*
X012512Y015453D01*
X012511Y015466D01*
X012493Y015498D01*
X012479Y015532D01*
X012470Y015542D01*
X012464Y015553D01*
X012435Y015576D01*
X012249Y015762D01*
X012226Y015791D01*
X012214Y015797D01*
X012205Y015806D01*
X012171Y015820D01*
X012139Y015838D01*
X012126Y015839D01*
X012114Y015844D01*
X012077Y015844D01*
X012040Y015848D01*
X012027Y015844D01*
X012014Y015844D01*
X011980Y015830D01*
X011945Y015819D01*
X011935Y015811D01*
X011923Y015806D01*
X011897Y015780D01*
X011749Y015660D01*
X011730Y015849D01*
X011730Y015886D01*
X011725Y015898D01*
X011724Y015911D01*
X011706Y015943D01*
X011692Y015977D01*
X011683Y015987D01*
X011677Y015998D01*
X011648Y016021D01*
X011622Y016048D01*
X011610Y016053D01*
X011600Y016061D01*
X011565Y016071D01*
X011530Y016086D01*
X011517Y016086D01*
X011505Y016089D01*
X011468Y016086D01*
X011206Y016086D01*
X011169Y016089D01*
X011156Y016086D01*
X011143Y016086D01*
X011109Y016071D01*
X011074Y016061D01*
X011064Y016053D01*
X011052Y016048D01*
X011026Y016021D01*
X010997Y015998D01*
X010991Y015987D01*
X010982Y015977D01*
X010967Y015943D01*
X010950Y015911D01*
X010949Y015898D01*
X010944Y015886D01*
X010944Y015849D01*
X010924Y015660D01*
X010777Y015780D01*
X010751Y015806D01*
X010739Y015811D01*
X010729Y015819D01*
X010693Y015830D01*
X010659Y015844D01*
X010646Y015844D01*
X010634Y015848D01*
X010597Y015844D01*
X010560Y015844D01*
X010548Y015839D01*
X010535Y015838D01*
X010503Y015820D01*
X010468Y015806D01*
X010459Y015797D01*
X010448Y015791D01*
X010424Y015762D01*
X010239Y015576D01*
X010210Y015553D01*
X010204Y015542D01*
X010195Y015532D01*
X010181Y015498D01*
X010163Y015466D01*
X010162Y015453D01*
X010157Y015441D01*
X010157Y015404D01*
X010153Y015367D01*
X010157Y015354D01*
X010157Y015341D01*
X010171Y015307D01*
X010182Y015272D01*
X010190Y015262D01*
X010195Y015250D01*
X010221Y015224D01*
X010341Y015076D01*
X010152Y015057D01*
X010115Y015057D01*
X010103Y015052D01*
X010090Y015051D01*
X010057Y015033D01*
X010023Y015019D01*
X010014Y015010D01*
X010003Y015004D01*
X009979Y014975D01*
X009953Y014949D01*
X009948Y014937D01*
X009940Y014927D01*
X009929Y014892D01*
X009915Y014857D01*
X009915Y014844D01*
X009911Y014832D01*
X009915Y014795D01*
X009915Y014533D01*
X009911Y014496D01*
X009915Y014483D01*
X009915Y014470D01*
X009929Y014436D01*
X009940Y014401D01*
X009948Y014391D01*
X009953Y014379D01*
X009979Y014353D01*
X010003Y014324D01*
X010014Y014318D01*
X010023Y014309D01*
X010057Y014294D01*
X010090Y014277D01*
X010103Y014276D01*
X010115Y014271D01*
X010152Y014271D01*
X010341Y014251D01*
X010221Y014104D01*
X010195Y014078D01*
X010190Y014066D01*
X010182Y014056D01*
X010171Y014021D01*
X010157Y013986D01*
X010157Y013973D01*
X010153Y013961D01*
X010157Y013924D01*
X010157Y013887D01*
X010162Y013875D01*
X010163Y013862D01*
X010181Y013830D01*
X010195Y013796D01*
X010204Y013786D01*
X010210Y013775D01*
X010239Y013752D01*
X010424Y013566D01*
X010448Y013537D01*
X010459Y013531D01*
X010468Y013522D01*
X010503Y013508D01*
X010535Y013490D01*
X010548Y013489D01*
X010560Y013484D01*
X010597Y013484D01*
X010634Y013480D01*
X010646Y013484D01*
X010659Y013484D01*
X010693Y013498D01*
X010729Y013509D01*
X010739Y013517D01*
X010751Y013522D01*
X010777Y013548D01*
X010939Y013680D01*
X010977Y013664D01*
X010977Y013664D01*
X011076Y013664D01*
X011117Y013681D01*
X011167Y013702D01*
X011167Y013702D01*
X011238Y013772D01*
X011252Y013807D01*
X011337Y014012D01*
X011424Y013802D01*
X011436Y013772D01*
X011506Y013702D01*
X011564Y013678D01*
X011598Y013664D01*
X011697Y013664D01*
X011735Y013680D01*
X011897Y013548D01*
X011923Y013522D01*
X011935Y013517D01*
X011945Y013509D01*
X011980Y013498D01*
X012014Y013484D01*
X012027Y013484D01*
X012040Y013480D01*
X012077Y013484D01*
X012114Y013484D01*
X012126Y013489D01*
X012139Y013490D01*
X012171Y013508D01*
X012205Y013522D01*
X012214Y013531D01*
X012226Y013537D01*
X012249Y013566D01*
X012435Y013752D01*
X012464Y013775D01*
X012470Y013786D01*
X012479Y013796D01*
X012493Y013830D01*
X012511Y013862D01*
X012520Y013950D02*
X014760Y013950D01*
X014760Y014049D02*
X012494Y014049D01*
X012418Y014147D02*
X014665Y014147D01*
X014567Y014246D02*
X012338Y014246D01*
X012687Y014344D02*
X014468Y014344D01*
X014370Y014443D02*
X012747Y014443D01*
X012759Y014541D02*
X014271Y014541D01*
X014173Y014640D02*
X012759Y014640D01*
X012759Y014738D02*
X014074Y014738D01*
X013976Y014837D02*
X012761Y014837D01*
X012727Y014935D02*
X013877Y014935D01*
X013791Y015034D02*
X012616Y015034D01*
X012460Y015231D02*
X013760Y015231D01*
X013760Y015329D02*
X012512Y015329D01*
X012517Y015428D02*
X013760Y015428D01*
X013760Y015526D02*
X012482Y015526D01*
X012387Y015625D02*
X013760Y015625D01*
X013687Y015723D02*
X012288Y015723D01*
X012169Y015822D02*
X013588Y015822D01*
X013512Y015920D02*
X011719Y015920D01*
X011733Y015822D02*
X011952Y015822D01*
X011827Y015723D02*
X011743Y015723D01*
X011652Y016019D02*
X013471Y016019D01*
X013440Y016117D02*
X009420Y016117D01*
X009322Y016019D02*
X011022Y016019D01*
X010955Y015920D02*
X009030Y015920D01*
X009030Y015822D02*
X010505Y015822D01*
X010385Y015723D02*
X009030Y015723D01*
X009030Y015625D02*
X010287Y015625D01*
X010192Y015526D02*
X009030Y015526D01*
X009030Y015428D02*
X010157Y015428D01*
X010162Y015329D02*
X009030Y015329D01*
X009030Y015231D02*
X010214Y015231D01*
X010296Y015132D02*
X009030Y015132D01*
X009030Y015034D02*
X010058Y015034D01*
X009946Y014935D02*
X009030Y014935D01*
X009030Y014837D02*
X009913Y014837D01*
X009915Y014738D02*
X009030Y014738D01*
X009030Y014640D02*
X009915Y014640D01*
X009915Y014541D02*
X009030Y014541D01*
X009030Y014443D02*
X009927Y014443D01*
X009986Y014344D02*
X009030Y014344D01*
X009030Y014246D02*
X010336Y014246D01*
X010256Y014147D02*
X009030Y014147D01*
X009030Y014049D02*
X010179Y014049D01*
X010154Y013950D02*
X009030Y013950D01*
X009030Y013852D02*
X010169Y013852D01*
X010237Y013753D02*
X009030Y013753D01*
X009030Y013655D02*
X010336Y013655D01*
X010432Y013556D02*
X009030Y013556D01*
X009030Y013458D02*
X012450Y013458D01*
X012548Y013556D02*
X012241Y013556D01*
X012338Y013655D02*
X012681Y013655D01*
X012770Y013410D02*
X012020Y012660D01*
X012020Y009100D01*
X012080Y009040D01*
X011960Y009160D01*
X010020Y009160D01*
X008770Y010410D01*
X008770Y016160D01*
X009020Y016410D01*
X008612Y016413D02*
X004396Y016413D01*
X004425Y016511D02*
X008612Y016511D01*
X008612Y016610D02*
X004425Y016610D01*
X004425Y016708D02*
X008625Y016708D01*
X008723Y016807D02*
X004386Y016807D01*
X004345Y016905D02*
X023570Y016905D01*
X023570Y016807D02*
X009317Y016807D01*
X008556Y016314D02*
X004355Y016314D01*
X004284Y016216D02*
X008512Y016216D01*
X008510Y016117D02*
X004185Y016117D01*
X004243Y016019D02*
X008510Y016019D01*
X008510Y015920D02*
X004339Y015920D01*
X004380Y015822D02*
X008510Y015822D01*
X008510Y015723D02*
X004420Y015723D01*
X004425Y015625D02*
X008510Y015625D01*
X008510Y015526D02*
X004425Y015526D01*
X004402Y015428D02*
X008510Y015428D01*
X008510Y015329D02*
X004362Y015329D01*
X004298Y015231D02*
X008510Y015231D01*
X008510Y015132D02*
X004200Y015132D01*
X004228Y015034D02*
X008510Y015034D01*
X008510Y014935D02*
X004327Y014935D01*
X004373Y014837D02*
X008510Y014837D01*
X008510Y014738D02*
X004414Y014738D01*
X004425Y014640D02*
X008510Y014640D01*
X008510Y014541D02*
X004425Y014541D01*
X004409Y014443D02*
X008510Y014443D01*
X008510Y014344D02*
X004368Y014344D01*
X004313Y014246D02*
X008510Y014246D01*
X008510Y014147D02*
X004215Y014147D01*
X004213Y014049D02*
X008510Y014049D01*
X008510Y013950D02*
X004312Y013950D01*
X004367Y013852D02*
X008510Y013852D01*
X008510Y013753D02*
X004408Y013753D01*
X004425Y013655D02*
X008510Y013655D01*
X008510Y013556D02*
X004425Y013556D01*
X004415Y013458D02*
X008510Y013458D01*
X009030Y013359D02*
X012351Y013359D01*
X012253Y013261D02*
X009030Y013261D01*
X009030Y013162D02*
X012154Y013162D01*
X012056Y013064D02*
X009030Y013064D01*
X009030Y012965D02*
X011957Y012965D01*
X011859Y012867D02*
X009030Y012867D01*
X009030Y012768D02*
X011783Y012768D01*
X011760Y012670D02*
X009030Y012670D01*
X009030Y012571D02*
X011760Y012571D01*
X011760Y012473D02*
X009030Y012473D01*
X009030Y012374D02*
X011760Y012374D01*
X011760Y012276D02*
X009030Y012276D01*
X009030Y012177D02*
X011760Y012177D01*
X011760Y012079D02*
X009030Y012079D01*
X009030Y011980D02*
X011760Y011980D01*
X011760Y011882D02*
X009030Y011882D01*
X009030Y011783D02*
X011760Y011783D01*
X011760Y011685D02*
X009030Y011685D01*
X009030Y011586D02*
X011760Y011586D01*
X011760Y011488D02*
X009030Y011488D01*
X009030Y011389D02*
X011760Y011389D01*
X011760Y011291D02*
X009030Y011291D01*
X009030Y011192D02*
X011760Y011192D01*
X011760Y011094D02*
X009030Y011094D01*
X009030Y010995D02*
X011760Y010995D01*
X011760Y010897D02*
X009030Y010897D01*
X009030Y010798D02*
X011760Y010798D01*
X011760Y010700D02*
X009030Y010700D01*
X009030Y010601D02*
X011760Y010601D01*
X011760Y010503D02*
X009045Y010503D01*
X009144Y010404D02*
X011760Y010404D01*
X011760Y010306D02*
X009242Y010306D01*
X009341Y010207D02*
X011760Y010207D01*
X011760Y010109D02*
X009439Y010109D01*
X009538Y010010D02*
X011760Y010010D01*
X011760Y009912D02*
X009636Y009912D01*
X009735Y009813D02*
X011760Y009813D01*
X011760Y009715D02*
X009833Y009715D01*
X009932Y009616D02*
X011760Y009616D01*
X011760Y009518D02*
X010030Y009518D01*
X012080Y009040D02*
X012080Y005910D01*
X012340Y006267D02*
X014760Y006267D01*
X014760Y006366D02*
X012340Y006366D01*
X012340Y006464D02*
X014760Y006464D01*
X014760Y006563D02*
X012340Y006563D01*
X012340Y006661D02*
X014760Y006661D01*
X014760Y006760D02*
X012340Y006760D01*
X012340Y006858D02*
X014760Y006858D01*
X014760Y006957D02*
X012340Y006957D01*
X012340Y007055D02*
X014760Y007055D01*
X014760Y007154D02*
X012340Y007154D01*
X012340Y007252D02*
X014760Y007252D01*
X014760Y007351D02*
X012340Y007351D01*
X012340Y007449D02*
X014760Y007449D01*
X014760Y007548D02*
X012340Y007548D01*
X012340Y007646D02*
X014760Y007646D01*
X014760Y007745D02*
X012340Y007745D01*
X012340Y007843D02*
X014760Y007843D01*
X014760Y007942D02*
X012340Y007942D01*
X012340Y008040D02*
X014760Y008040D01*
X014760Y008139D02*
X012340Y008139D01*
X012340Y008237D02*
X014760Y008237D01*
X014760Y008336D02*
X012340Y008336D01*
X012340Y008434D02*
X014760Y008434D01*
X014760Y008533D02*
X012340Y008533D01*
X012340Y008631D02*
X014760Y008631D01*
X014760Y008730D02*
X012347Y008730D01*
X012445Y008828D02*
X014760Y008828D01*
X014760Y008927D02*
X012488Y008927D01*
X012488Y009025D02*
X014760Y009025D01*
X014760Y009124D02*
X012488Y009124D01*
X012475Y009222D02*
X014760Y009222D01*
X014760Y009321D02*
X012377Y009321D01*
X012280Y009419D02*
X014760Y009419D01*
X014760Y009518D02*
X012280Y009518D01*
X012280Y009616D02*
X014760Y009616D01*
X014760Y009715D02*
X012280Y009715D01*
X012280Y009813D02*
X014760Y009813D01*
X014760Y009912D02*
X012280Y009912D01*
X012280Y010010D02*
X014760Y010010D01*
X014760Y010109D02*
X012280Y010109D01*
X012280Y010207D02*
X014760Y010207D01*
X014760Y010306D02*
X012280Y010306D01*
X012280Y010404D02*
X014760Y010404D01*
X014760Y010503D02*
X012280Y010503D01*
X012280Y010601D02*
X014760Y010601D01*
X014760Y010700D02*
X012280Y010700D01*
X012280Y010798D02*
X014760Y010798D01*
X014760Y010897D02*
X012280Y010897D01*
X012280Y010995D02*
X014760Y010995D01*
X014760Y011094D02*
X012280Y011094D01*
X012280Y011192D02*
X014760Y011192D01*
X014760Y011291D02*
X012280Y011291D01*
X012280Y011389D02*
X014760Y011389D01*
X014760Y011488D02*
X012280Y011488D01*
X012280Y011586D02*
X014760Y011586D01*
X014760Y011685D02*
X012280Y011685D01*
X012280Y011783D02*
X014760Y011783D01*
X014760Y011882D02*
X012280Y011882D01*
X012280Y011980D02*
X014760Y011980D01*
X014760Y012079D02*
X012280Y012079D01*
X012280Y012177D02*
X014760Y012177D01*
X014760Y012276D02*
X012280Y012276D01*
X012280Y012374D02*
X014760Y012374D01*
X014760Y012473D02*
X012280Y012473D01*
X012299Y012571D02*
X014760Y012571D01*
X014760Y012670D02*
X012397Y012670D01*
X012496Y012768D02*
X014760Y012768D01*
X014760Y012867D02*
X012594Y012867D01*
X012693Y012965D02*
X014760Y012965D01*
X014760Y013064D02*
X014367Y013064D01*
X014428Y013162D02*
X014760Y013162D01*
X014760Y013261D02*
X014428Y013261D01*
X014428Y013359D02*
X014760Y013359D01*
X014760Y013458D02*
X014428Y013458D01*
X014428Y013556D02*
X014760Y013556D01*
X014760Y013655D02*
X014428Y013655D01*
X014370Y013753D02*
X014760Y013753D01*
X014020Y013410D02*
X012770Y013410D01*
X012791Y013064D02*
X013673Y013064D01*
X013670Y013753D02*
X012437Y013753D01*
X011887Y013556D02*
X010787Y013556D01*
X010908Y013655D02*
X011766Y013655D01*
X011456Y013753D02*
X011218Y013753D01*
X011270Y013852D02*
X011403Y013852D01*
X011436Y013772D02*
X011436Y013772D01*
X011436Y013772D01*
X011363Y013950D02*
X011311Y013950D01*
X012378Y015132D02*
X013760Y015132D01*
X014280Y015625D02*
X014685Y015625D01*
X014587Y015723D02*
X014353Y015723D01*
X014452Y015822D02*
X014512Y015822D01*
X014523Y016511D02*
X014601Y016511D01*
X014710Y016610D02*
X014441Y016610D01*
X016333Y016708D02*
X023570Y016708D01*
X023570Y016610D02*
X017330Y016610D01*
X017439Y016511D02*
X023570Y016511D01*
X023570Y016413D02*
X017522Y016413D01*
X017563Y016314D02*
X023570Y016314D01*
X023570Y016216D02*
X017600Y016216D01*
X017600Y016117D02*
X023570Y016117D01*
X023570Y016019D02*
X017600Y016019D01*
X017569Y015920D02*
X023570Y015920D01*
X023570Y015822D02*
X017528Y015822D01*
X017453Y015723D02*
X023570Y015723D01*
X023570Y015625D02*
X017355Y015625D01*
X016601Y016511D02*
X016523Y016511D01*
X016441Y016610D02*
X016710Y016610D01*
X018590Y015034D02*
X018700Y015034D01*
X020620Y013753D02*
X023570Y013753D01*
X023570Y013655D02*
X020678Y013655D01*
X020678Y013556D02*
X023570Y013556D01*
X023570Y013458D02*
X020678Y013458D01*
X020678Y013359D02*
X023570Y013359D01*
X023570Y013261D02*
X020678Y013261D01*
X020678Y013162D02*
X023570Y013162D01*
X023570Y013064D02*
X020617Y013064D01*
X020530Y012965D02*
X023570Y012965D01*
X023570Y012867D02*
X020530Y012867D01*
X020530Y012768D02*
X023570Y012768D01*
X023570Y012670D02*
X020530Y012670D01*
X020530Y012571D02*
X023570Y012571D01*
X023570Y012473D02*
X020530Y012473D01*
X020530Y012374D02*
X023570Y012374D01*
X023570Y012276D02*
X020530Y012276D01*
X020530Y012177D02*
X023570Y012177D01*
X023570Y012079D02*
X020530Y012079D01*
X020530Y011980D02*
X023570Y011980D01*
X023570Y011882D02*
X020530Y011882D01*
X020530Y011783D02*
X023570Y011783D01*
X023570Y011685D02*
X020530Y011685D01*
X020530Y011586D02*
X023570Y011586D01*
X023570Y011488D02*
X020530Y011488D01*
X020530Y011389D02*
X023570Y011389D01*
X023570Y011291D02*
X020530Y011291D01*
X020530Y011192D02*
X023570Y011192D01*
X023570Y011094D02*
X020530Y011094D01*
X020530Y010995D02*
X023570Y010995D01*
X023570Y010897D02*
X020530Y010897D01*
X020530Y010798D02*
X023570Y010798D01*
X023570Y010700D02*
X020530Y010700D01*
X020530Y010601D02*
X023570Y010601D01*
X023570Y010503D02*
X020530Y010503D01*
X020530Y010404D02*
X023570Y010404D01*
X023570Y010306D02*
X020530Y010306D01*
X020530Y010207D02*
X023570Y010207D01*
X023570Y010109D02*
X020530Y010109D01*
X020530Y010010D02*
X023570Y010010D01*
X023570Y009912D02*
X020530Y009912D01*
X020530Y009813D02*
X023570Y009813D01*
X023570Y009715D02*
X020530Y009715D01*
X020530Y009616D02*
X023570Y009616D01*
X023570Y009518D02*
X020530Y009518D01*
X020530Y009419D02*
X023570Y009419D01*
X023570Y009321D02*
X020530Y009321D01*
X020530Y009222D02*
X023570Y009222D01*
X023570Y009124D02*
X020530Y009124D01*
X020010Y008631D02*
X016320Y008631D01*
X016320Y008533D02*
X020010Y008533D01*
X020010Y008434D02*
X016320Y008434D01*
X016320Y008336D02*
X020010Y008336D01*
X020010Y008237D02*
X016320Y008237D01*
X016320Y008139D02*
X020010Y008139D01*
X020010Y008040D02*
X016320Y008040D01*
X016320Y007942D02*
X020010Y007942D01*
X020010Y007843D02*
X016320Y007843D01*
X016320Y007745D02*
X020010Y007745D01*
X020010Y007646D02*
X016320Y007646D01*
X016320Y007548D02*
X020010Y007548D01*
X020010Y007449D02*
X016320Y007449D01*
X016320Y007351D02*
X020010Y007351D01*
X020010Y007252D02*
X016320Y007252D01*
X016320Y007154D02*
X020010Y007154D01*
X020032Y007055D02*
X016320Y007055D01*
X016320Y006957D02*
X020106Y006957D01*
X020204Y006858D02*
X016320Y006858D01*
X016320Y006760D02*
X020303Y006760D01*
X020401Y006661D02*
X016320Y006661D01*
X016320Y006563D02*
X020500Y006563D01*
X020510Y006464D02*
X016320Y006464D01*
X016320Y006366D02*
X020510Y006366D01*
X020510Y006267D02*
X016320Y006267D01*
X016415Y006169D02*
X020510Y006169D01*
X020510Y006070D02*
X016468Y006070D01*
X016468Y005972D02*
X020510Y005972D01*
X020510Y005282D02*
X015280Y005282D01*
X015280Y005184D02*
X020510Y005184D01*
X020510Y005085D02*
X015280Y005085D01*
X015387Y004987D02*
X020510Y004987D01*
X020510Y004888D02*
X015428Y004888D01*
X015428Y004790D02*
X016956Y004790D01*
X017584Y004790D02*
X020510Y004790D01*
X020510Y004691D02*
X017678Y004691D01*
X017653Y004100D02*
X019025Y004100D01*
X019367Y004494D02*
X020510Y004494D01*
X020510Y004396D02*
X019465Y004396D01*
X019564Y004297D02*
X020510Y004297D01*
X020510Y004199D02*
X019662Y004199D01*
X019761Y004100D02*
X020510Y004100D01*
X020510Y004002D02*
X019859Y004002D01*
X019958Y003903D02*
X020510Y003903D01*
X020510Y003805D02*
X020056Y003805D01*
X020155Y003706D02*
X020510Y003706D01*
X020510Y003608D02*
X020253Y003608D01*
X020352Y003509D02*
X020510Y003509D01*
X020510Y003411D02*
X020450Y003411D01*
X020510Y004593D02*
X019268Y004593D01*
X021931Y002721D02*
X023570Y002721D01*
X023570Y002623D02*
X022128Y002623D01*
X022226Y002524D02*
X023570Y002524D01*
X023570Y002426D02*
X022288Y002426D01*
X022329Y002327D02*
X023570Y002327D01*
X023570Y002229D02*
X022350Y002229D01*
X022350Y002130D02*
X023570Y002130D01*
X023570Y002032D02*
X022344Y002032D01*
X022304Y001933D02*
X023570Y001933D01*
X023570Y001835D02*
X022263Y001835D01*
X022166Y001736D02*
X023570Y001736D01*
X023570Y001638D02*
X022024Y001638D01*
X023570Y001539D02*
X003961Y001539D01*
X004032Y001441D02*
X023570Y001441D01*
X023570Y001342D02*
X004072Y001342D01*
X004100Y001244D02*
X023570Y001244D01*
X023570Y001145D02*
X004100Y001145D01*
X004100Y001047D02*
X023570Y001047D01*
X023570Y000948D02*
X004060Y000948D01*
X004019Y000850D02*
X023570Y000850D01*
X023570Y000751D02*
X003931Y000751D01*
X003810Y000653D02*
X023570Y000653D01*
X010520Y002910D02*
X007770Y002910D01*
X008160Y003214D02*
X010456Y003214D01*
X010554Y003312D02*
X008061Y003312D01*
X010178Y002229D02*
X003280Y002229D01*
X003280Y002327D02*
X010277Y002327D01*
X003020Y001910D02*
X003020Y010660D01*
X004770Y012410D01*
X004770Y012910D01*
X004362Y012768D02*
X002404Y012768D01*
X002404Y012670D02*
X004362Y012670D01*
X004416Y012571D02*
X002404Y012571D01*
X002404Y012473D02*
X004465Y012473D01*
X004366Y012374D02*
X002398Y012374D01*
X002299Y012276D02*
X004268Y012276D01*
X004169Y012177D02*
X000606Y012177D01*
X000606Y012079D02*
X004071Y012079D01*
X003972Y011980D02*
X000606Y011980D01*
X000606Y011882D02*
X003874Y011882D01*
X003775Y011783D02*
X000606Y011783D01*
X000606Y011685D02*
X003677Y011685D01*
X003578Y011586D02*
X000606Y011586D01*
X000606Y011488D02*
X003480Y011488D01*
X003381Y011389D02*
X000606Y011389D01*
X000606Y011291D02*
X003283Y011291D01*
X003184Y011192D02*
X000606Y011192D01*
X000606Y011094D02*
X003086Y011094D01*
X002987Y010995D02*
X000606Y010995D01*
X000606Y010897D02*
X002889Y010897D01*
X002796Y010798D02*
X000606Y010798D01*
X000606Y010700D02*
X002760Y010700D01*
X002760Y010601D02*
X000606Y010601D01*
X000606Y010503D02*
X002760Y010503D01*
X002760Y010404D02*
X000606Y010404D01*
X000606Y010306D02*
X002760Y010306D01*
X002760Y010207D02*
X000606Y010207D01*
X000606Y010109D02*
X002760Y010109D01*
X002760Y010010D02*
X000606Y010010D01*
X000606Y009912D02*
X002760Y009912D01*
X002760Y009813D02*
X000606Y009813D01*
X000606Y009715D02*
X002760Y009715D01*
X002760Y009616D02*
X000606Y009616D01*
X000606Y009518D02*
X002760Y009518D01*
X002760Y009419D02*
X000606Y009419D01*
X000606Y009321D02*
X002760Y009321D01*
X002760Y009222D02*
X000606Y009222D01*
X000606Y009124D02*
X002760Y009124D01*
X002760Y009025D02*
X000606Y009025D01*
X000606Y008927D02*
X002760Y008927D01*
X002760Y008828D02*
X000606Y008828D01*
X000606Y008730D02*
X002760Y008730D01*
X002760Y008631D02*
X000606Y008631D01*
X000606Y008533D02*
X002760Y008533D01*
X002760Y008434D02*
X000606Y008434D01*
X000606Y008336D02*
X002760Y008336D01*
X002760Y008237D02*
X000606Y008237D01*
X000606Y008139D02*
X002760Y008139D01*
X002760Y008040D02*
X000606Y008040D01*
X000606Y007942D02*
X002760Y007942D01*
X002760Y007843D02*
X000606Y007843D01*
X000606Y007745D02*
X002760Y007745D01*
X002760Y007646D02*
X000606Y007646D01*
X000606Y007548D02*
X002760Y007548D01*
X002760Y007449D02*
X000606Y007449D01*
X000606Y007351D02*
X002760Y007351D01*
X002760Y007252D02*
X000606Y007252D01*
X000606Y007154D02*
X002760Y007154D01*
X002760Y007055D02*
X000606Y007055D01*
X000606Y006957D02*
X002760Y006957D01*
X002760Y006858D02*
X000606Y006858D01*
X000606Y006760D02*
X002760Y006760D01*
X002760Y006661D02*
X000606Y006661D01*
X000606Y006563D02*
X002760Y006563D01*
X002760Y006464D02*
X000606Y006464D01*
X000606Y006366D02*
X002760Y006366D01*
X002760Y006267D02*
X000606Y006267D01*
X000606Y006169D02*
X002760Y006169D01*
X002760Y006070D02*
X000606Y006070D01*
X000606Y005972D02*
X002760Y005972D01*
X002760Y005873D02*
X000606Y005873D01*
X000606Y005775D02*
X002760Y005775D01*
X002760Y005676D02*
X000606Y005676D01*
X000606Y005578D02*
X002760Y005578D01*
X002760Y005479D02*
X000606Y005479D01*
X000606Y005381D02*
X002760Y005381D01*
X002760Y005282D02*
X000606Y005282D01*
X000606Y005184D02*
X002760Y005184D01*
X002760Y005085D02*
X000606Y005085D01*
X000606Y004987D02*
X002760Y004987D01*
X002760Y004888D02*
X000606Y004888D01*
X000606Y004790D02*
X002760Y004790D01*
X002760Y004691D02*
X000606Y004691D01*
X000606Y004593D02*
X002760Y004593D01*
X002760Y004494D02*
X000606Y004494D01*
X000606Y004396D02*
X002760Y004396D01*
X002760Y004297D02*
X000606Y004297D01*
X000606Y004199D02*
X002760Y004199D01*
X002760Y004100D02*
X000606Y004100D01*
X000606Y004002D02*
X002760Y004002D01*
X002760Y003903D02*
X000606Y003903D01*
X000606Y003805D02*
X002760Y003805D01*
X002760Y003706D02*
X000606Y003706D01*
X000606Y003608D02*
X002760Y003608D01*
X002760Y003509D02*
X000606Y003509D01*
X000606Y003411D02*
X002760Y003411D01*
X002760Y003312D02*
X000606Y003312D01*
X000606Y003214D02*
X002760Y003214D01*
X002760Y003115D02*
X000606Y003115D01*
X000606Y003017D02*
X002760Y003017D01*
X002760Y002918D02*
X000606Y002918D01*
X000606Y002820D02*
X002760Y002820D01*
X002760Y002721D02*
X000606Y002721D01*
X000606Y002623D02*
X002760Y002623D01*
X002760Y002524D02*
X000606Y002524D01*
X000606Y002426D02*
X002760Y002426D01*
X002760Y002327D02*
X000606Y002327D01*
X000606Y002229D02*
X002760Y002229D01*
X002760Y002130D02*
X000606Y002130D01*
X000606Y002032D02*
X002731Y002032D01*
X002633Y001933D02*
X000606Y001933D01*
X000606Y001835D02*
X002534Y001835D01*
X002395Y001736D02*
X000606Y001736D01*
X000606Y001638D02*
X002177Y001638D01*
X002079Y001539D02*
X000606Y001539D01*
X000606Y001441D02*
X002008Y001441D01*
X001968Y001342D02*
X000606Y001342D01*
X000606Y001244D02*
X001940Y001244D01*
X001940Y001145D02*
X000606Y001145D01*
X000606Y001047D02*
X001940Y001047D01*
X001980Y000948D02*
X000606Y000948D01*
X000606Y000850D02*
X002021Y000850D01*
X002109Y000751D02*
X000606Y000751D01*
X000606Y000653D02*
X002230Y000653D01*
X001288Y012276D02*
X000606Y012276D01*
X000606Y012374D02*
X001189Y012374D01*
X001184Y012473D02*
X000606Y012473D01*
X000606Y012571D02*
X001184Y012571D01*
X001184Y012670D02*
X000606Y012670D01*
X000606Y012768D02*
X001184Y012768D01*
X001184Y012867D02*
X000606Y012867D01*
X000606Y012965D02*
X001184Y012965D01*
X001184Y013064D02*
X000606Y013064D01*
X000606Y013162D02*
X001184Y013162D01*
X001184Y013261D02*
X000606Y013261D01*
X000606Y013359D02*
X001189Y013359D01*
X001287Y013458D02*
X000606Y013458D01*
X000606Y013556D02*
X002115Y013556D01*
X002214Y013655D02*
X000606Y013655D01*
X000606Y013753D02*
X002312Y013753D01*
X002459Y013852D02*
X000606Y013852D01*
X004258Y017004D02*
X023570Y017004D01*
X023570Y017102D02*
X004165Y017102D01*
X004269Y017201D02*
X023570Y017201D01*
X023570Y017299D02*
X004349Y017299D01*
X004390Y017398D02*
X023570Y017398D01*
X023570Y017496D02*
X004425Y017496D01*
X004425Y017595D02*
X023570Y017595D01*
X023570Y017693D02*
X004425Y017693D01*
X004392Y017792D02*
X023570Y017792D01*
X023570Y017890D02*
X004351Y017890D01*
X004273Y017989D02*
X023570Y017989D01*
X023570Y018087D02*
X004175Y018087D01*
X004254Y018186D02*
X023570Y018186D01*
X023570Y018284D02*
X004343Y018284D01*
X004384Y018383D02*
X023570Y018383D01*
X023570Y018481D02*
X004424Y018481D01*
X004425Y018580D02*
X023570Y018580D01*
X023570Y018678D02*
X004425Y018678D01*
X004398Y018777D02*
X023570Y018777D01*
X023570Y018875D02*
X004357Y018875D01*
X010721Y015822D02*
X010941Y015822D01*
X010931Y015723D02*
X010847Y015723D01*
D18*
X012080Y009040D03*
D19*
X013020Y004660D02*
X013270Y004660D01*
X013020Y004660D02*
X010270Y001910D01*
X003020Y001910D01*
X002520Y001410D01*
X002520Y001160D01*
D20*
X010610Y013733D02*
X010406Y013937D01*
X010648Y014234D01*
X010546Y014481D02*
X010165Y014520D01*
X010165Y014808D01*
X010546Y014847D01*
X010648Y015094D02*
X010406Y015391D01*
X010610Y015595D01*
X010907Y015353D01*
X011154Y015455D02*
X011193Y015836D01*
X011481Y015836D01*
X011520Y015455D01*
X011767Y015353D02*
X012064Y015595D01*
X012268Y015391D01*
X012025Y015094D01*
X012128Y014847D02*
X012509Y014808D01*
X012509Y014520D01*
X012128Y014481D01*
X012025Y014234D02*
X012268Y013937D01*
X012064Y013733D01*
X011767Y013975D01*
X011648Y013914D02*
X011478Y014323D01*
X011196Y014323D02*
X011026Y013914D01*
X010907Y013975D02*
X010610Y013733D01*
X012026Y014234D02*
X012053Y014280D01*
X012076Y014329D01*
X012097Y014378D01*
X012114Y014429D01*
X012128Y014481D01*
X011767Y013975D02*
X011729Y013953D01*
X011689Y013932D01*
X011648Y013914D01*
X010648Y014234D02*
X010621Y014280D01*
X010598Y014329D01*
X010577Y014378D01*
X010560Y014429D01*
X010546Y014481D01*
X010907Y013975D02*
X010945Y013953D01*
X010985Y013932D01*
X011026Y013914D01*
X010907Y015353D02*
X010953Y015380D01*
X011002Y015403D01*
X011051Y015424D01*
X011102Y015441D01*
X011154Y015455D01*
X012026Y015094D02*
X012053Y015048D01*
X012076Y014999D01*
X012097Y014950D01*
X012114Y014899D01*
X012128Y014847D01*
X011767Y015353D02*
X011721Y015380D01*
X011672Y015403D01*
X011623Y015424D01*
X011572Y015441D01*
X011520Y015455D01*
X010648Y015094D02*
X010621Y015048D01*
X010598Y014999D01*
X010577Y014950D01*
X010560Y014899D01*
X010546Y014847D01*
X011196Y014323D02*
X011162Y014339D01*
X011129Y014359D01*
X011099Y014382D01*
X011071Y014408D01*
X011046Y014437D01*
X011025Y014468D01*
X011006Y014501D01*
X010991Y014536D01*
X010980Y014572D01*
X010972Y014609D01*
X010968Y014647D01*
X010969Y014685D01*
X010973Y014722D01*
X010981Y014760D01*
X010992Y014796D01*
X011008Y014830D01*
X011026Y014863D01*
X011049Y014894D01*
X011074Y014922D01*
X011102Y014948D01*
X011132Y014971D01*
X011165Y014990D01*
X011199Y015006D01*
X011235Y015019D01*
X011272Y015027D01*
X011309Y015032D01*
X011347Y015033D01*
X011385Y015030D01*
X011422Y015023D01*
X011459Y015012D01*
X011494Y014998D01*
X011527Y014980D01*
X011559Y014959D01*
X011588Y014934D01*
X011614Y014907D01*
X011638Y014878D01*
X011658Y014846D01*
X011675Y014812D01*
X011689Y014776D01*
X011698Y014739D01*
X011704Y014702D01*
X011706Y014664D01*
X011704Y014628D01*
X011699Y014592D01*
X011690Y014557D01*
X011678Y014523D01*
X011662Y014490D01*
X011644Y014459D01*
X011622Y014430D01*
X011598Y014403D01*
X011571Y014379D01*
X011542Y014357D01*
X011511Y014339D01*
X011478Y014323D01*
M02*
