G75*
G70*
%OFA0B0*%
%FSLAX24Y24*%
%IPPOS*%
%LPD*%
%AMOC8*
5,1,8,0,0,1.08239X$1,22.5*
%
%ADD10R,0.0650X0.0650*%
%ADD11C,0.0650*%
%ADD12OC8,0.0520*%
%ADD13C,0.0740*%
%ADD14R,0.0800X0.0800*%
%ADD15C,0.0800*%
%ADD16R,0.0360X0.0360*%
%ADD17C,0.0100*%
%ADD18C,0.0120*%
%ADD19R,0.0780X0.0780*%
%ADD20OC8,0.0360*%
%ADD21C,0.0160*%
%ADD22C,0.0079*%
D10*
X020296Y002160D03*
D11*
X021296Y002160D03*
D12*
X021296Y004660D03*
X020796Y005410D03*
X020296Y004660D03*
D13*
X024796Y002260D03*
X025796Y002160D03*
X026796Y002260D03*
X027796Y002160D03*
X028796Y002260D03*
X029796Y002160D03*
X025046Y016110D03*
X024046Y016210D03*
X023046Y016110D03*
X022046Y016210D03*
D14*
X008063Y017814D03*
X001597Y017814D03*
D15*
X003565Y017814D03*
X005534Y017814D03*
X010032Y017814D03*
X012000Y017814D03*
D16*
X013378Y017365D03*
X014953Y016853D03*
X014166Y016105D03*
X015740Y015357D03*
X017046Y016410D03*
X016095Y016853D03*
X017040Y017798D03*
X018614Y018585D03*
X020504Y016144D03*
X022046Y013410D03*
X020977Y011617D03*
X019008Y012286D03*
X017813Y010400D03*
X016632Y010400D03*
X015372Y010558D03*
X014008Y011262D03*
X014664Y011699D03*
X012670Y010239D03*
X011986Y010085D03*
X010425Y010003D03*
X009047Y009451D03*
X008260Y009451D03*
X007473Y009451D03*
X005583Y010081D03*
X003418Y011302D03*
X005075Y011796D03*
X003339Y012719D03*
X003142Y014215D03*
X004717Y014215D03*
X004717Y015396D03*
X003142Y015396D03*
X006685Y015396D03*
X006685Y014215D03*
X009205Y012916D03*
X009835Y013821D03*
X011410Y014609D03*
X012197Y014609D03*
X012197Y016184D03*
X011410Y016184D03*
X009441Y016184D03*
X015490Y013825D03*
X012197Y012207D03*
X010662Y011105D03*
X013733Y008625D03*
X015821Y008247D03*
X016609Y008247D03*
X017790Y008247D03*
X019362Y006302D03*
X018376Y005730D03*
X021331Y006695D03*
X024086Y005830D03*
X023046Y004660D03*
X025296Y004410D03*
X026882Y005199D03*
X026882Y006380D03*
X029244Y007562D03*
X028823Y008691D03*
X025268Y008664D03*
X025268Y007877D03*
X025268Y009845D03*
X025268Y011026D03*
X027276Y012286D03*
X028296Y013410D03*
X028457Y014648D03*
X027046Y014660D03*
X026296Y014660D03*
X026488Y016223D03*
X028457Y016223D03*
X031410Y015947D03*
X031398Y012394D03*
X025256Y012810D03*
X014481Y006695D03*
X013733Y006105D03*
X011796Y007160D03*
X011016Y007089D03*
X009835Y007089D03*
X009835Y005908D03*
X011016Y005908D03*
X013063Y004727D03*
X014706Y003800D03*
X015796Y002910D03*
X013866Y002660D03*
X012276Y003546D03*
X009638Y000751D03*
X008851Y000751D03*
X008063Y000751D03*
X007276Y000751D03*
X006488Y000751D03*
X005701Y000751D03*
X004914Y000751D03*
X004126Y000751D03*
X003339Y000751D03*
X002551Y000751D03*
X001764Y000751D03*
X001213Y001341D03*
X003339Y004254D03*
X005075Y004788D03*
X003103Y005947D03*
X001173Y006341D03*
X001173Y007129D03*
X001173Y007916D03*
X001173Y008703D03*
X001173Y009491D03*
X002512Y008113D03*
X005154Y008331D03*
X007473Y005475D03*
X006607Y002916D03*
X018496Y003703D03*
X022296Y002160D03*
X027276Y003231D03*
X029274Y003731D03*
X030032Y005593D03*
D17*
X001021Y004284D02*
X001021Y000610D01*
X031596Y000610D01*
X031596Y018952D01*
X001021Y018952D01*
X001021Y018335D01*
X001110Y018424D01*
X002084Y018424D01*
X002207Y018301D01*
X002207Y017327D01*
X002084Y017204D01*
X001110Y017204D01*
X001021Y017292D01*
X001021Y010996D01*
X001847Y010996D01*
X001970Y010873D01*
X001970Y009919D01*
X001847Y009796D01*
X001021Y009796D01*
X001021Y005484D01*
X001965Y005484D01*
X002088Y005361D01*
X002088Y004407D01*
X001965Y004284D01*
X001021Y004284D01*
X001021Y004199D02*
X002949Y004199D01*
X002949Y004297D02*
X001978Y004297D01*
X002077Y004396D02*
X002949Y004396D01*
X002949Y004494D02*
X002088Y004494D01*
X002088Y004593D02*
X003020Y004593D01*
X003069Y004641D02*
X002949Y004521D01*
X002949Y003988D01*
X003072Y003864D01*
X003606Y003864D01*
X003729Y003988D01*
X003729Y004521D01*
X003609Y004641D01*
X003609Y005765D01*
X003568Y005864D01*
X003493Y005939D01*
X003493Y006214D01*
X003370Y006337D01*
X002836Y006337D01*
X002713Y006214D01*
X002713Y005680D01*
X002836Y005557D01*
X003069Y005557D01*
X003069Y004641D01*
X003069Y004691D02*
X002088Y004691D01*
X002088Y004790D02*
X003069Y004790D01*
X003069Y004888D02*
X002088Y004888D01*
X002088Y004987D02*
X003069Y004987D01*
X003069Y005085D02*
X002088Y005085D01*
X002088Y005184D02*
X003069Y005184D01*
X003069Y005282D02*
X002088Y005282D01*
X002069Y005381D02*
X003069Y005381D01*
X003069Y005479D02*
X001971Y005479D01*
X002717Y005676D02*
X001021Y005676D01*
X001021Y005578D02*
X002816Y005578D01*
X002713Y005775D02*
X001021Y005775D01*
X001021Y005873D02*
X002713Y005873D01*
X002713Y005972D02*
X001021Y005972D01*
X001021Y006070D02*
X002713Y006070D01*
X002713Y006169D02*
X001021Y006169D01*
X001021Y006267D02*
X002765Y006267D01*
X003440Y006267D02*
X007845Y006267D01*
X007747Y006366D02*
X001021Y006366D01*
X001021Y006464D02*
X007648Y006464D01*
X007550Y006563D02*
X001021Y006563D01*
X001021Y006661D02*
X003554Y006661D01*
X003608Y006607D02*
X003714Y006563D01*
X007549Y006563D01*
X012448Y001664D01*
X012555Y001620D01*
X018353Y001620D01*
X018460Y001664D01*
X018541Y001746D01*
X021043Y004248D01*
X021101Y004190D01*
X021490Y004190D01*
X021766Y004465D01*
X021766Y004855D01*
X021490Y005130D01*
X021101Y005130D01*
X020826Y004855D01*
X020826Y004850D01*
X020800Y004824D01*
X020766Y004790D01*
X020766Y004855D01*
X020490Y005130D01*
X020366Y005130D01*
X020366Y005650D01*
X021438Y005650D01*
X022036Y005052D01*
X022036Y003858D01*
X022075Y003763D01*
X022148Y003690D01*
X022398Y003440D01*
X022494Y003400D01*
X023347Y003400D01*
X023443Y003440D01*
X024153Y004150D01*
X024906Y004150D01*
X024906Y004143D01*
X025029Y004020D01*
X025562Y004020D01*
X025686Y004143D01*
X025686Y004150D01*
X027001Y004150D01*
X028433Y002718D01*
X028304Y002589D01*
X028216Y002375D01*
X028216Y002145D01*
X028304Y001931D01*
X028467Y001768D01*
X028680Y001680D01*
X028911Y001680D01*
X029124Y001768D01*
X029270Y001914D01*
X029304Y001831D01*
X029467Y001668D01*
X029680Y001580D01*
X029911Y001580D01*
X030124Y001668D01*
X030287Y001831D01*
X030376Y002045D01*
X030376Y002275D01*
X030287Y002489D01*
X030124Y002652D01*
X029911Y002740D01*
X029680Y002740D01*
X029467Y002652D01*
X029321Y002506D01*
X029287Y002589D01*
X029124Y002752D01*
X029058Y002779D01*
X029056Y002786D01*
X029056Y006712D01*
X029016Y006807D01*
X028556Y007268D01*
X028556Y008302D01*
X028556Y008301D01*
X029090Y008301D01*
X029213Y008425D01*
X029213Y008958D01*
X029090Y009081D01*
X028556Y009081D01*
X028556Y013020D01*
X028562Y013020D01*
X028686Y013143D01*
X028686Y013677D01*
X028562Y013800D01*
X028273Y013800D01*
X028193Y013880D01*
X028097Y013920D01*
X025494Y013920D01*
X025398Y013880D01*
X025325Y013807D01*
X025035Y013517D01*
X024996Y013422D01*
X024996Y013200D01*
X024989Y013200D01*
X024866Y013077D01*
X024866Y012543D01*
X024989Y012420D01*
X025522Y012420D01*
X025646Y012543D01*
X025646Y013077D01*
X025522Y013200D01*
X025516Y013200D01*
X025516Y013262D01*
X025653Y013400D01*
X027906Y013400D01*
X027906Y013143D01*
X028029Y013020D01*
X028036Y013020D01*
X028036Y007108D01*
X028075Y007013D01*
X028536Y006552D01*
X028536Y003351D01*
X027256Y004630D01*
X027160Y004670D01*
X025686Y004670D01*
X025686Y004677D01*
X025562Y004800D01*
X025029Y004800D01*
X024906Y004677D01*
X024906Y004670D01*
X023994Y004670D01*
X023898Y004630D01*
X023188Y003920D01*
X022653Y003920D01*
X022556Y004018D01*
X022556Y005212D01*
X022516Y005307D01*
X021766Y006057D01*
X021693Y006130D01*
X021597Y006170D01*
X020366Y006170D01*
X020366Y008748D01*
X020496Y008878D01*
X020496Y009202D01*
X020306Y009392D01*
X020306Y012552D01*
X020903Y013150D01*
X021656Y013150D01*
X021656Y013143D01*
X021779Y013020D01*
X022312Y013020D01*
X022436Y013143D01*
X022436Y013677D01*
X022312Y013800D01*
X021779Y013800D01*
X021656Y013677D01*
X021656Y013670D01*
X020744Y013670D01*
X020648Y013630D01*
X019825Y012807D01*
X019786Y012712D01*
X019786Y009328D01*
X019765Y009307D01*
X019726Y009212D01*
X019726Y009212D01*
X019716Y009202D01*
X019716Y008878D01*
X019846Y008748D01*
X019846Y004875D01*
X019826Y004855D01*
X019826Y004558D01*
X018438Y003170D01*
X016186Y003170D01*
X016186Y003177D01*
X016062Y003300D01*
X015529Y003300D01*
X015406Y003177D01*
X015406Y002643D01*
X015529Y002520D01*
X016062Y002520D01*
X016186Y002643D01*
X016186Y002650D01*
X018597Y002650D01*
X018645Y002670D01*
X018175Y002200D01*
X012733Y002200D01*
X007915Y007017D01*
X007834Y007099D01*
X007727Y007143D01*
X003892Y007143D01*
X002919Y008116D01*
X002960Y008213D01*
X002960Y009095D01*
X003656Y009791D01*
X005216Y009791D01*
X005316Y009691D01*
X005850Y009691D01*
X005973Y009814D01*
X005973Y010348D01*
X005850Y010471D01*
X005316Y010471D01*
X005216Y010371D01*
X003478Y010371D01*
X003371Y010327D01*
X002505Y009461D01*
X002424Y009379D01*
X002380Y009273D01*
X002380Y008503D01*
X002245Y008503D01*
X002122Y008380D01*
X002122Y007846D01*
X002245Y007723D01*
X002492Y007723D01*
X003608Y006607D01*
X003455Y006760D02*
X001021Y006760D01*
X001021Y006858D02*
X003357Y006858D01*
X003258Y006957D02*
X001021Y006957D01*
X001021Y007055D02*
X003160Y007055D01*
X003061Y007154D02*
X001021Y007154D01*
X001021Y007252D02*
X002963Y007252D01*
X002864Y007351D02*
X001021Y007351D01*
X001021Y007449D02*
X002766Y007449D01*
X002667Y007548D02*
X001021Y007548D01*
X001021Y007646D02*
X002569Y007646D01*
X002223Y007745D02*
X001021Y007745D01*
X001021Y007843D02*
X002125Y007843D01*
X002122Y007942D02*
X001021Y007942D01*
X001021Y008040D02*
X002122Y008040D01*
X002122Y008139D02*
X001021Y008139D01*
X001021Y008237D02*
X002122Y008237D01*
X002122Y008336D02*
X001021Y008336D01*
X001021Y008434D02*
X002176Y008434D01*
X002380Y008533D02*
X001021Y008533D01*
X001021Y008631D02*
X002380Y008631D01*
X002380Y008730D02*
X001021Y008730D01*
X001021Y008828D02*
X002380Y008828D01*
X002380Y008927D02*
X001021Y008927D01*
X001021Y009025D02*
X002380Y009025D01*
X002380Y009124D02*
X001021Y009124D01*
X001021Y009222D02*
X002380Y009222D01*
X002399Y009321D02*
X001021Y009321D01*
X001021Y009419D02*
X002463Y009419D01*
X002562Y009518D02*
X001021Y009518D01*
X001021Y009616D02*
X002660Y009616D01*
X002759Y009715D02*
X001021Y009715D01*
X001864Y009813D02*
X002857Y009813D01*
X002956Y009912D02*
X001963Y009912D01*
X001970Y010010D02*
X003054Y010010D01*
X003153Y010109D02*
X001970Y010109D01*
X001970Y010207D02*
X003251Y010207D01*
X003350Y010306D02*
X001970Y010306D01*
X001970Y010404D02*
X005249Y010404D01*
X005917Y010404D02*
X009302Y010404D01*
X009373Y010333D02*
X009058Y010648D01*
X008985Y010721D01*
X008945Y010817D01*
X008945Y012526D01*
X008938Y012526D01*
X008815Y012649D01*
X008815Y013183D01*
X008938Y013306D01*
X009472Y013306D01*
X009595Y013183D01*
X009595Y012649D01*
X009472Y012526D01*
X009465Y012526D01*
X009465Y010976D01*
X009628Y010814D01*
X010296Y010814D01*
X010272Y010838D01*
X010272Y011372D01*
X010395Y011495D01*
X010402Y011495D01*
X010402Y016509D01*
X009884Y017026D01*
X009811Y017099D01*
X009772Y017195D01*
X009772Y017261D01*
X009686Y017296D01*
X009515Y017468D01*
X009422Y017692D01*
X009422Y017935D01*
X009515Y018159D01*
X009686Y018331D01*
X009863Y018404D01*
X008570Y018404D01*
X008673Y018301D01*
X008673Y017327D01*
X008550Y017204D01*
X007576Y017204D01*
X007453Y017327D01*
X007453Y018301D01*
X007557Y018404D01*
X005702Y018404D01*
X005879Y018331D01*
X006051Y018159D01*
X006144Y017935D01*
X006144Y017692D01*
X006051Y017468D01*
X005879Y017296D01*
X005655Y017204D01*
X005412Y017204D01*
X005188Y017296D01*
X005017Y017468D01*
X004924Y017692D01*
X004924Y017935D01*
X005017Y018159D01*
X005188Y018331D01*
X005365Y018404D01*
X004523Y018404D01*
X004140Y018020D01*
X004175Y017935D01*
X004175Y017692D01*
X004082Y017468D01*
X003911Y017296D01*
X003687Y017204D01*
X003444Y017204D01*
X003220Y017296D01*
X003048Y017468D01*
X002955Y017692D01*
X002955Y017935D01*
X003048Y018159D01*
X003220Y018331D01*
X003444Y018424D01*
X003687Y018424D01*
X003772Y018388D01*
X004268Y018884D01*
X004364Y018924D01*
X013233Y018924D01*
X013329Y018884D01*
X013402Y018811D01*
X014970Y017243D01*
X015220Y017243D01*
X015343Y017120D01*
X015343Y016586D01*
X015220Y016463D01*
X014686Y016463D01*
X014563Y016586D01*
X014563Y016915D01*
X013074Y018404D01*
X012169Y018404D01*
X012346Y018331D01*
X012517Y018159D01*
X012610Y017935D01*
X012610Y017692D01*
X012575Y017607D01*
X013677Y016504D01*
X013717Y016409D01*
X013717Y012195D01*
X013677Y012099D01*
X013604Y012026D01*
X012930Y011352D01*
X012930Y010629D01*
X012937Y010629D01*
X013060Y010506D01*
X013060Y009972D01*
X012937Y009849D01*
X012403Y009849D01*
X012280Y009972D01*
X012280Y010506D01*
X012403Y010629D01*
X012410Y010629D01*
X012410Y011511D01*
X012449Y011606D01*
X013197Y012354D01*
X013197Y016249D01*
X012207Y017239D01*
X012122Y017204D01*
X011879Y017204D01*
X011655Y017296D01*
X011483Y017468D01*
X011390Y017692D01*
X011390Y017935D01*
X011483Y018159D01*
X011655Y018331D01*
X011832Y018404D01*
X010200Y018404D01*
X010377Y018331D01*
X010549Y018159D01*
X010642Y017935D01*
X010642Y017692D01*
X010549Y017468D01*
X010377Y017296D01*
X010358Y017288D01*
X010882Y016764D01*
X010922Y016668D01*
X010922Y011495D01*
X010929Y011495D01*
X011052Y011372D01*
X011052Y010838D01*
X010938Y010724D01*
X010961Y010701D01*
X012777Y008885D01*
X013343Y008885D01*
X013343Y008892D01*
X013466Y009015D01*
X014000Y009015D01*
X014123Y008892D01*
X014123Y008358D01*
X014000Y008235D01*
X013466Y008235D01*
X013343Y008358D01*
X013343Y008365D01*
X012618Y008365D01*
X012522Y008404D01*
X010815Y010111D01*
X010815Y009980D01*
X013840Y006955D01*
X014091Y006955D01*
X014091Y006962D01*
X014214Y007085D01*
X014748Y007085D01*
X014871Y006962D01*
X014871Y006428D01*
X014748Y006305D01*
X014214Y006305D01*
X014091Y006428D01*
X014091Y006435D01*
X013681Y006435D01*
X013585Y006475D01*
X010448Y009613D01*
X010158Y009613D01*
X010035Y009736D01*
X010035Y010270D01*
X010060Y010294D01*
X009468Y010294D01*
X009373Y010333D01*
X009440Y010306D02*
X005973Y010306D01*
X005973Y010207D02*
X010035Y010207D01*
X010035Y010109D02*
X005973Y010109D01*
X005973Y010010D02*
X010035Y010010D01*
X010035Y009912D02*
X005973Y009912D01*
X005972Y009813D02*
X010035Y009813D01*
X010056Y009715D02*
X005873Y009715D01*
X005293Y009715D02*
X003579Y009715D01*
X003481Y009616D02*
X010155Y009616D01*
X010543Y009518D02*
X003382Y009518D01*
X003284Y009419D02*
X010641Y009419D01*
X010740Y009321D02*
X003185Y009321D01*
X003087Y009222D02*
X010838Y009222D01*
X010937Y009124D02*
X002988Y009124D01*
X002960Y009025D02*
X011035Y009025D01*
X011134Y008927D02*
X002960Y008927D01*
X002960Y008828D02*
X011232Y008828D01*
X011331Y008730D02*
X002960Y008730D01*
X002960Y008631D02*
X011429Y008631D01*
X011528Y008533D02*
X002960Y008533D01*
X002960Y008434D02*
X011626Y008434D01*
X011725Y008336D02*
X002960Y008336D01*
X002960Y008237D02*
X011823Y008237D01*
X011922Y008139D02*
X002929Y008139D01*
X002995Y008040D02*
X012020Y008040D01*
X012119Y007942D02*
X003093Y007942D01*
X003192Y007843D02*
X012217Y007843D01*
X012316Y007745D02*
X003290Y007745D01*
X003389Y007646D02*
X012414Y007646D01*
X012513Y007548D02*
X012065Y007548D01*
X012062Y007550D02*
X011529Y007550D01*
X011406Y007427D01*
X011406Y006893D01*
X011529Y006770D01*
X011536Y006770D01*
X011536Y005068D01*
X011575Y004973D01*
X012895Y003653D01*
X012968Y003580D01*
X013064Y003540D01*
X014316Y003540D01*
X014316Y003533D01*
X014439Y003410D01*
X014972Y003410D01*
X015096Y003533D01*
X015096Y003540D01*
X017757Y003540D01*
X017853Y003580D01*
X018493Y004220D01*
X018566Y004293D01*
X018606Y004388D01*
X018606Y005340D01*
X018642Y005340D01*
X018766Y005463D01*
X018766Y005997D01*
X018642Y006120D01*
X018109Y006120D01*
X017986Y005997D01*
X017986Y005463D01*
X018086Y005363D01*
X018086Y004548D01*
X017598Y004060D01*
X015096Y004060D01*
X015096Y004067D01*
X014972Y004190D01*
X014439Y004190D01*
X014316Y004067D01*
X014316Y004060D01*
X013223Y004060D01*
X012056Y005228D01*
X012056Y006770D01*
X012062Y006770D01*
X012186Y006893D01*
X012186Y007427D01*
X012062Y007550D01*
X012163Y007449D02*
X012611Y007449D01*
X012710Y007351D02*
X012186Y007351D01*
X012186Y007252D02*
X012808Y007252D01*
X012907Y007154D02*
X012186Y007154D01*
X012186Y007055D02*
X013005Y007055D01*
X013104Y006957D02*
X012186Y006957D01*
X012151Y006858D02*
X013202Y006858D01*
X013301Y006760D02*
X012056Y006760D01*
X012056Y006661D02*
X013399Y006661D01*
X013498Y006563D02*
X012056Y006563D01*
X012056Y006464D02*
X013612Y006464D01*
X014153Y006366D02*
X012056Y006366D01*
X012056Y006267D02*
X019846Y006267D01*
X019846Y006169D02*
X012056Y006169D01*
X012056Y006070D02*
X018059Y006070D01*
X017986Y005972D02*
X012056Y005972D01*
X012056Y005873D02*
X017986Y005873D01*
X017986Y005775D02*
X012056Y005775D01*
X012056Y005676D02*
X017986Y005676D01*
X017986Y005578D02*
X012056Y005578D01*
X012056Y005479D02*
X017986Y005479D01*
X018068Y005381D02*
X012056Y005381D01*
X012056Y005282D02*
X018086Y005282D01*
X018086Y005184D02*
X012100Y005184D01*
X012198Y005085D02*
X018086Y005085D01*
X018086Y004987D02*
X012297Y004987D01*
X012395Y004888D02*
X018086Y004888D01*
X018086Y004790D02*
X012494Y004790D01*
X012592Y004691D02*
X018086Y004691D01*
X018086Y004593D02*
X012691Y004593D01*
X012789Y004494D02*
X018032Y004494D01*
X017933Y004396D02*
X012888Y004396D01*
X012986Y004297D02*
X017835Y004297D01*
X017736Y004199D02*
X013085Y004199D01*
X013183Y004100D02*
X014349Y004100D01*
X014706Y003800D02*
X017706Y003800D01*
X018346Y004440D01*
X018346Y005700D01*
X018376Y005730D01*
X018692Y006070D02*
X019846Y006070D01*
X019846Y005972D02*
X018766Y005972D01*
X018766Y005873D02*
X019846Y005873D01*
X019846Y005775D02*
X018766Y005775D01*
X018766Y005676D02*
X019846Y005676D01*
X019846Y005578D02*
X018766Y005578D01*
X018766Y005479D02*
X019846Y005479D01*
X019846Y005381D02*
X018683Y005381D01*
X018606Y005282D02*
X019846Y005282D01*
X019846Y005184D02*
X018606Y005184D01*
X018606Y005085D02*
X019846Y005085D01*
X019846Y004987D02*
X018606Y004987D01*
X018606Y004888D02*
X019846Y004888D01*
X019826Y004790D02*
X018606Y004790D01*
X018606Y004691D02*
X019826Y004691D01*
X019826Y004593D02*
X018606Y004593D01*
X018606Y004494D02*
X019762Y004494D01*
X019663Y004396D02*
X018606Y004396D01*
X018568Y004297D02*
X019565Y004297D01*
X019466Y004199D02*
X018472Y004199D01*
X018373Y004100D02*
X019368Y004100D01*
X019269Y004002D02*
X018275Y004002D01*
X018176Y003903D02*
X019171Y003903D01*
X019072Y003805D02*
X018078Y003805D01*
X017979Y003706D02*
X018974Y003706D01*
X018875Y003608D02*
X017881Y003608D01*
X017638Y004100D02*
X015062Y004100D01*
X014706Y003800D02*
X013116Y003800D01*
X011796Y005120D01*
X011796Y007160D01*
X011406Y007154D02*
X003881Y007154D01*
X003783Y007252D02*
X011406Y007252D01*
X011406Y007351D02*
X003684Y007351D01*
X003586Y007449D02*
X011428Y007449D01*
X011526Y007548D02*
X003487Y007548D01*
X003493Y006169D02*
X007944Y006169D01*
X008042Y006070D02*
X003493Y006070D01*
X003493Y005972D02*
X008141Y005972D01*
X008239Y005873D02*
X003559Y005873D01*
X003605Y005775D02*
X007115Y005775D01*
X007083Y005742D02*
X007206Y005865D01*
X007740Y005865D01*
X007863Y005742D01*
X007863Y005208D01*
X007743Y005088D01*
X007743Y003728D01*
X007702Y003629D01*
X006997Y002924D01*
X006997Y002649D01*
X006874Y002526D01*
X006340Y002526D01*
X006217Y002649D01*
X006217Y003183D01*
X006340Y003306D01*
X006615Y003306D01*
X007203Y003894D01*
X007203Y005088D01*
X007083Y005208D01*
X007083Y005742D01*
X007083Y005676D02*
X003609Y005676D01*
X003609Y005578D02*
X007083Y005578D01*
X007083Y005479D02*
X003609Y005479D01*
X003609Y005381D02*
X007083Y005381D01*
X007083Y005282D02*
X003609Y005282D01*
X003609Y005184D02*
X007107Y005184D01*
X007203Y005085D02*
X003609Y005085D01*
X003609Y004987D02*
X007203Y004987D01*
X007203Y004888D02*
X003609Y004888D01*
X003609Y004790D02*
X007203Y004790D01*
X007203Y004691D02*
X003609Y004691D01*
X003658Y004593D02*
X007203Y004593D01*
X007203Y004494D02*
X003729Y004494D01*
X003729Y004396D02*
X007203Y004396D01*
X007203Y004297D02*
X003729Y004297D01*
X003729Y004199D02*
X007203Y004199D01*
X007203Y004100D02*
X003729Y004100D01*
X003729Y004002D02*
X007203Y004002D01*
X007203Y003903D02*
X003644Y003903D01*
X003033Y003903D02*
X001021Y003903D01*
X001021Y003805D02*
X007113Y003805D01*
X007015Y003706D02*
X001021Y003706D01*
X001021Y003608D02*
X006916Y003608D01*
X006818Y003509D02*
X001021Y003509D01*
X001021Y003411D02*
X006719Y003411D01*
X006621Y003312D02*
X001021Y003312D01*
X001021Y003214D02*
X006247Y003214D01*
X006217Y003115D02*
X001021Y003115D01*
X001021Y003017D02*
X006217Y003017D01*
X006217Y002918D02*
X001021Y002918D01*
X001021Y002820D02*
X006217Y002820D01*
X006217Y002721D02*
X001021Y002721D01*
X001021Y002623D02*
X006243Y002623D01*
X006970Y002623D02*
X011490Y002623D01*
X011391Y002721D02*
X006997Y002721D01*
X006997Y002820D02*
X011293Y002820D01*
X011194Y002918D02*
X006997Y002918D01*
X007089Y003017D02*
X011096Y003017D01*
X010997Y003115D02*
X007187Y003115D01*
X007286Y003214D02*
X010899Y003214D01*
X010800Y003312D02*
X007384Y003312D01*
X007483Y003411D02*
X010702Y003411D01*
X010603Y003509D02*
X007581Y003509D01*
X007680Y003608D02*
X010505Y003608D01*
X010406Y003706D02*
X007733Y003706D01*
X007743Y003805D02*
X010308Y003805D01*
X010209Y003903D02*
X007743Y003903D01*
X007743Y004002D02*
X010111Y004002D01*
X010012Y004100D02*
X007743Y004100D01*
X007743Y004199D02*
X009914Y004199D01*
X009815Y004297D02*
X007743Y004297D01*
X007743Y004396D02*
X009717Y004396D01*
X009618Y004494D02*
X007743Y004494D01*
X007743Y004593D02*
X009520Y004593D01*
X009421Y004691D02*
X007743Y004691D01*
X007743Y004790D02*
X009323Y004790D01*
X009224Y004888D02*
X007743Y004888D01*
X007743Y004987D02*
X009126Y004987D01*
X009027Y005085D02*
X007743Y005085D01*
X007838Y005184D02*
X008929Y005184D01*
X008830Y005282D02*
X007863Y005282D01*
X007863Y005381D02*
X008732Y005381D01*
X008633Y005479D02*
X007863Y005479D01*
X007863Y005578D02*
X008535Y005578D01*
X008436Y005676D02*
X007863Y005676D01*
X007830Y005775D02*
X008338Y005775D01*
X008764Y006169D02*
X011536Y006169D01*
X011536Y006267D02*
X008666Y006267D01*
X008567Y006366D02*
X011536Y006366D01*
X011536Y006464D02*
X008469Y006464D01*
X008370Y006563D02*
X011536Y006563D01*
X011536Y006661D02*
X008272Y006661D01*
X008173Y006760D02*
X011536Y006760D01*
X011441Y006858D02*
X008075Y006858D01*
X007976Y006957D02*
X011406Y006957D01*
X011406Y007055D02*
X007878Y007055D01*
X008863Y006070D02*
X011536Y006070D01*
X011536Y005972D02*
X008961Y005972D01*
X009060Y005873D02*
X011536Y005873D01*
X011536Y005775D02*
X009158Y005775D01*
X009257Y005676D02*
X011536Y005676D01*
X011536Y005578D02*
X009355Y005578D01*
X009454Y005479D02*
X011536Y005479D01*
X011536Y005381D02*
X009552Y005381D01*
X009651Y005282D02*
X011536Y005282D01*
X011536Y005184D02*
X009749Y005184D01*
X009848Y005085D02*
X011536Y005085D01*
X011569Y004987D02*
X009946Y004987D01*
X010045Y004888D02*
X011660Y004888D01*
X011758Y004790D02*
X010143Y004790D01*
X010242Y004691D02*
X011857Y004691D01*
X011955Y004593D02*
X010340Y004593D01*
X010439Y004494D02*
X012054Y004494D01*
X012152Y004396D02*
X010537Y004396D01*
X010636Y004297D02*
X012251Y004297D01*
X012349Y004199D02*
X010734Y004199D01*
X010833Y004100D02*
X012448Y004100D01*
X012546Y004002D02*
X010931Y004002D01*
X011030Y003903D02*
X012645Y003903D01*
X012743Y003805D02*
X011128Y003805D01*
X011227Y003706D02*
X012842Y003706D01*
X012940Y003608D02*
X011325Y003608D01*
X011424Y003509D02*
X014340Y003509D01*
X014438Y003411D02*
X011522Y003411D01*
X011621Y003312D02*
X018580Y003312D01*
X018678Y003411D02*
X014973Y003411D01*
X015072Y003509D02*
X018777Y003509D01*
X018481Y003214D02*
X016149Y003214D01*
X015796Y002910D02*
X018546Y002910D01*
X020296Y004660D01*
X020106Y004850D01*
X020106Y005910D01*
X021546Y005910D01*
X022296Y005160D01*
X022296Y003910D01*
X022546Y003660D01*
X023296Y003660D01*
X024046Y004410D01*
X025296Y004410D01*
X027109Y004410D01*
X028803Y002715D01*
X028803Y002459D01*
X028796Y002467D01*
X028796Y006660D01*
X028296Y007160D01*
X028296Y008684D01*
X028303Y008691D01*
X028823Y008691D01*
X029213Y008730D02*
X031596Y008730D01*
X031596Y008828D02*
X029213Y008828D01*
X029213Y008927D02*
X031596Y008927D01*
X031596Y009025D02*
X029147Y009025D01*
X029213Y008631D02*
X031596Y008631D01*
X031596Y008533D02*
X029213Y008533D01*
X029213Y008434D02*
X031596Y008434D01*
X031596Y008336D02*
X029124Y008336D01*
X028556Y008237D02*
X031596Y008237D01*
X031596Y008139D02*
X028556Y008139D01*
X028556Y008040D02*
X031596Y008040D01*
X031596Y007942D02*
X028556Y007942D01*
X028556Y007843D02*
X031596Y007843D01*
X031596Y007745D02*
X028556Y007745D01*
X028556Y007646D02*
X031596Y007646D01*
X031596Y007548D02*
X028556Y007548D01*
X028556Y007449D02*
X031596Y007449D01*
X031596Y007351D02*
X028556Y007351D01*
X028571Y007252D02*
X031596Y007252D01*
X031596Y007154D02*
X028670Y007154D01*
X028768Y007055D02*
X031596Y007055D01*
X031596Y006957D02*
X028867Y006957D01*
X028965Y006858D02*
X031596Y006858D01*
X031596Y006760D02*
X029036Y006760D01*
X029056Y006661D02*
X031596Y006661D01*
X031596Y006563D02*
X029056Y006563D01*
X029056Y006464D02*
X031596Y006464D01*
X031596Y006366D02*
X029056Y006366D01*
X029056Y006267D02*
X031596Y006267D01*
X031596Y006169D02*
X029056Y006169D01*
X029056Y006070D02*
X031596Y006070D01*
X031596Y005972D02*
X029056Y005972D01*
X029056Y005873D02*
X031596Y005873D01*
X031596Y005775D02*
X029056Y005775D01*
X029056Y005676D02*
X031596Y005676D01*
X031596Y005578D02*
X029056Y005578D01*
X029056Y005479D02*
X031596Y005479D01*
X031596Y005381D02*
X029056Y005381D01*
X029056Y005282D02*
X031596Y005282D01*
X031596Y005184D02*
X029056Y005184D01*
X029056Y005085D02*
X031596Y005085D01*
X031596Y004987D02*
X029056Y004987D01*
X029056Y004888D02*
X031596Y004888D01*
X031596Y004790D02*
X029056Y004790D01*
X029056Y004691D02*
X031596Y004691D01*
X031596Y004593D02*
X029056Y004593D01*
X029056Y004494D02*
X031596Y004494D01*
X031596Y004396D02*
X029056Y004396D01*
X029056Y004297D02*
X031596Y004297D01*
X031596Y004199D02*
X029056Y004199D01*
X029056Y004100D02*
X031596Y004100D01*
X031596Y004002D02*
X029056Y004002D01*
X029056Y003903D02*
X031596Y003903D01*
X031596Y003805D02*
X029056Y003805D01*
X029056Y003706D02*
X031596Y003706D01*
X031596Y003608D02*
X029056Y003608D01*
X029056Y003509D02*
X031596Y003509D01*
X031596Y003411D02*
X029056Y003411D01*
X029056Y003312D02*
X031596Y003312D01*
X031596Y003214D02*
X029056Y003214D01*
X029056Y003115D02*
X031596Y003115D01*
X031596Y003017D02*
X029056Y003017D01*
X029056Y002918D02*
X031596Y002918D01*
X031596Y002820D02*
X029056Y002820D01*
X029155Y002721D02*
X029634Y002721D01*
X029438Y002623D02*
X029253Y002623D01*
X029314Y002524D02*
X029339Y002524D01*
X028803Y002459D02*
X028803Y002268D01*
X028796Y002260D01*
X028796Y002410D01*
X028430Y002721D02*
X027155Y002721D01*
X027124Y002752D02*
X027287Y002589D01*
X027376Y002375D01*
X027376Y002145D01*
X027287Y001931D01*
X027124Y001768D01*
X026911Y001680D01*
X026680Y001680D01*
X026467Y001768D01*
X026321Y001914D01*
X026287Y001831D01*
X026124Y001668D01*
X025911Y001580D01*
X025680Y001580D01*
X025467Y001668D01*
X025304Y001831D01*
X025270Y001914D01*
X025124Y001768D01*
X024911Y001680D01*
X024680Y001680D01*
X024467Y001768D01*
X024304Y001931D01*
X024216Y002145D01*
X024216Y002375D01*
X024304Y002589D01*
X024467Y002752D01*
X024680Y002840D01*
X024911Y002840D01*
X025124Y002752D01*
X025287Y002589D01*
X025321Y002506D01*
X025467Y002652D01*
X025680Y002740D01*
X025911Y002740D01*
X026124Y002652D01*
X026270Y002506D01*
X026304Y002589D01*
X026467Y002752D01*
X026680Y002840D01*
X026911Y002840D01*
X027124Y002752D01*
X026960Y002820D02*
X028331Y002820D01*
X028233Y002918D02*
X019714Y002918D01*
X019812Y003017D02*
X028134Y003017D01*
X028036Y003115D02*
X019911Y003115D01*
X020009Y003214D02*
X027937Y003214D01*
X027839Y003312D02*
X020108Y003312D01*
X020206Y003411D02*
X022468Y003411D01*
X022329Y003509D02*
X020305Y003509D01*
X020403Y003608D02*
X022230Y003608D01*
X022132Y003706D02*
X020502Y003706D01*
X020600Y003805D02*
X022058Y003805D01*
X022036Y003903D02*
X020699Y003903D01*
X020797Y004002D02*
X022036Y004002D01*
X022036Y004100D02*
X020896Y004100D01*
X020994Y004199D02*
X021092Y004199D01*
X021499Y004199D02*
X022036Y004199D01*
X022036Y004297D02*
X021597Y004297D01*
X021696Y004396D02*
X022036Y004396D01*
X022036Y004494D02*
X021766Y004494D01*
X021766Y004593D02*
X022036Y004593D01*
X022036Y004691D02*
X021766Y004691D01*
X021766Y004790D02*
X022036Y004790D01*
X022036Y004888D02*
X021732Y004888D01*
X021634Y004987D02*
X022036Y004987D01*
X022003Y005085D02*
X021535Y005085D01*
X021806Y005282D02*
X020366Y005282D01*
X020366Y005184D02*
X021904Y005184D01*
X021707Y005381D02*
X020366Y005381D01*
X020366Y005479D02*
X021609Y005479D01*
X021510Y005578D02*
X020366Y005578D01*
X020106Y005910D02*
X020106Y009040D01*
X020046Y009100D01*
X020046Y012660D01*
X020796Y013410D01*
X022046Y013410D01*
X022436Y013458D02*
X022786Y013458D01*
X022786Y013556D02*
X022436Y013556D01*
X022436Y013655D02*
X022786Y013655D01*
X022786Y013753D02*
X022359Y013753D01*
X022786Y013852D02*
X020530Y013852D01*
X020536Y013862D02*
X020538Y013875D01*
X020543Y013887D01*
X020543Y013924D01*
X020546Y013961D01*
X020543Y013973D01*
X020543Y013986D01*
X020528Y014021D01*
X020518Y014056D01*
X020510Y014066D01*
X020505Y014078D01*
X020478Y014104D01*
X020358Y014251D01*
X020547Y014271D01*
X020584Y014271D01*
X020596Y014276D01*
X020609Y014277D01*
X020642Y014294D01*
X020676Y014309D01*
X020685Y014318D01*
X020697Y014324D01*
X020720Y014353D01*
X020746Y014379D01*
X020751Y014391D01*
X020759Y014401D01*
X020770Y014436D01*
X020784Y014470D01*
X020784Y014483D01*
X020788Y014496D01*
X020784Y014533D01*
X020784Y014795D01*
X020788Y014832D01*
X020784Y014844D01*
X020784Y014857D01*
X020770Y014892D01*
X020759Y014927D01*
X020751Y014937D01*
X020746Y014949D01*
X020720Y014975D01*
X020697Y015004D01*
X020685Y015010D01*
X020676Y015019D01*
X020642Y015033D01*
X020609Y015051D01*
X020596Y015052D01*
X020584Y015057D01*
X020547Y015057D01*
X020358Y015076D01*
X020478Y015224D01*
X020505Y015250D01*
X020510Y015262D01*
X020518Y015272D01*
X020528Y015307D01*
X020543Y015341D01*
X020543Y015354D01*
X020546Y015367D01*
X020543Y015404D01*
X020543Y015441D01*
X020538Y015453D01*
X020536Y015466D01*
X020519Y015498D01*
X020505Y015532D01*
X020495Y015542D01*
X020489Y015553D01*
X020461Y015576D01*
X020283Y015754D01*
X020771Y015754D01*
X020894Y015877D01*
X020894Y016411D01*
X020771Y016534D01*
X020482Y016534D01*
X020386Y016630D01*
X020290Y016670D01*
X017436Y016670D01*
X017436Y016677D01*
X017312Y016800D01*
X016779Y016800D01*
X016656Y016677D01*
X016656Y016143D01*
X016779Y016020D01*
X017312Y016020D01*
X017436Y016143D01*
X017436Y016150D01*
X020114Y016150D01*
X020114Y015877D01*
X020153Y015839D01*
X020151Y015839D01*
X020139Y015844D01*
X020102Y015844D01*
X020065Y015848D01*
X020053Y015844D01*
X020040Y015844D01*
X020006Y015830D01*
X019970Y015819D01*
X019960Y015811D01*
X019948Y015806D01*
X019922Y015780D01*
X019775Y015660D01*
X019756Y015849D01*
X019756Y015886D01*
X019751Y015898D01*
X019749Y015911D01*
X019732Y015943D01*
X019718Y015977D01*
X019709Y015987D01*
X019702Y015998D01*
X019674Y016021D01*
X019648Y016048D01*
X019636Y016053D01*
X019626Y016061D01*
X019590Y016071D01*
X019556Y016086D01*
X019543Y016086D01*
X019531Y016089D01*
X019494Y016086D01*
X019231Y016086D01*
X019194Y016089D01*
X019182Y016086D01*
X019169Y016086D01*
X019135Y016071D01*
X019099Y016061D01*
X019089Y016053D01*
X019077Y016048D01*
X019051Y016021D01*
X019022Y015998D01*
X019016Y015987D01*
X019007Y015977D01*
X018993Y015943D01*
X018975Y015911D01*
X018974Y015898D01*
X018969Y015886D01*
X018969Y015849D01*
X018950Y015660D01*
X018803Y015780D01*
X018777Y015806D01*
X018765Y015811D01*
X018754Y015819D01*
X018719Y015830D01*
X018685Y015844D01*
X018672Y015844D01*
X018659Y015848D01*
X018623Y015844D01*
X018586Y015844D01*
X018574Y015839D01*
X018561Y015838D01*
X018528Y015820D01*
X018494Y015806D01*
X018485Y015797D01*
X018473Y015791D01*
X018450Y015762D01*
X018264Y015576D01*
X018236Y015553D01*
X018230Y015542D01*
X018220Y015532D01*
X018206Y015498D01*
X018189Y015466D01*
X018187Y015453D01*
X018182Y015441D01*
X018182Y015404D01*
X018179Y015367D01*
X018182Y015354D01*
X018182Y015341D01*
X018196Y015307D01*
X018207Y015272D01*
X018215Y015262D01*
X018220Y015250D01*
X018246Y015224D01*
X018367Y015076D01*
X018178Y015057D01*
X018141Y015057D01*
X018129Y015052D01*
X018116Y015051D01*
X018083Y015033D01*
X018049Y015019D01*
X018040Y015010D01*
X018028Y015004D01*
X018005Y014975D01*
X017979Y014949D01*
X017974Y014937D01*
X017966Y014927D01*
X017955Y014892D01*
X017941Y014857D01*
X017941Y014844D01*
X017937Y014832D01*
X017941Y014795D01*
X017941Y014533D01*
X017937Y014496D01*
X017941Y014483D01*
X017941Y014470D01*
X017955Y014436D01*
X017966Y014401D01*
X017974Y014391D01*
X017979Y014379D01*
X018005Y014353D01*
X018028Y014324D01*
X018040Y014318D01*
X018049Y014309D01*
X018083Y014294D01*
X018116Y014277D01*
X018129Y014276D01*
X018141Y014271D01*
X018178Y014271D01*
X018367Y014251D01*
X018246Y014104D01*
X018220Y014078D01*
X018215Y014066D01*
X018207Y014056D01*
X018196Y014021D01*
X018182Y013986D01*
X018182Y013973D01*
X018179Y013961D01*
X018182Y013924D01*
X018182Y013887D01*
X018187Y013875D01*
X018189Y013862D01*
X018206Y013830D01*
X018220Y013796D01*
X018230Y013786D01*
X018236Y013775D01*
X018264Y013752D01*
X018450Y013566D01*
X018473Y013537D01*
X018485Y013531D01*
X018494Y013522D01*
X018528Y013508D01*
X018561Y013490D01*
X018574Y013489D01*
X018586Y013484D01*
X018623Y013484D01*
X018659Y013480D01*
X018672Y013484D01*
X018685Y013484D01*
X018719Y013498D01*
X018754Y013509D01*
X018765Y013517D01*
X018777Y013522D01*
X018803Y013548D01*
X018965Y013680D01*
X019002Y013664D01*
X019101Y013664D01*
X019143Y013681D01*
X019193Y013702D01*
X019193Y013702D01*
X019263Y013772D01*
X019277Y013807D01*
X019362Y014012D01*
X019449Y013802D01*
X019462Y013772D01*
X019532Y013702D01*
X019590Y013678D01*
X019624Y013664D01*
X019723Y013664D01*
X019760Y013680D01*
X019922Y013548D01*
X019948Y013522D01*
X019960Y013517D01*
X019970Y013509D01*
X020006Y013498D01*
X020040Y013484D01*
X020053Y013484D01*
X020065Y013480D01*
X020102Y013484D01*
X020139Y013484D01*
X020151Y013489D01*
X020164Y013490D01*
X020197Y013508D01*
X020231Y013522D01*
X020240Y013531D01*
X020252Y013537D01*
X020275Y013566D01*
X020461Y013752D01*
X020489Y013775D01*
X020495Y013786D01*
X020505Y013796D01*
X020519Y013830D01*
X020536Y013862D01*
X020545Y013950D02*
X022786Y013950D01*
X022786Y014049D02*
X020520Y014049D01*
X020443Y014147D02*
X022691Y014147D01*
X022786Y014052D02*
X022786Y005050D01*
X022779Y005050D01*
X022656Y004927D01*
X022656Y004393D01*
X022779Y004270D01*
X023312Y004270D01*
X023436Y004393D01*
X023436Y004927D01*
X023312Y005050D01*
X023306Y005050D01*
X023306Y014212D01*
X023266Y014307D01*
X022306Y015268D01*
X022306Y015690D01*
X022374Y015718D01*
X022520Y015864D01*
X022554Y015781D01*
X022717Y015618D01*
X022930Y015530D01*
X023161Y015530D01*
X023374Y015618D01*
X023537Y015781D01*
X023571Y015864D01*
X023717Y015718D01*
X023826Y015673D01*
X023826Y006220D01*
X023819Y006220D01*
X023696Y006097D01*
X023696Y005563D01*
X023819Y005440D01*
X024352Y005440D01*
X024476Y005563D01*
X024476Y006097D01*
X024352Y006220D01*
X024346Y006220D01*
X024346Y015706D01*
X024374Y015718D01*
X024520Y015864D01*
X024554Y015781D01*
X024717Y015618D01*
X024930Y015530D01*
X025161Y015530D01*
X025374Y015618D01*
X025537Y015781D01*
X025626Y015995D01*
X025626Y016225D01*
X025537Y016439D01*
X025374Y016602D01*
X025161Y016690D01*
X024930Y016690D01*
X024717Y016602D01*
X024571Y016456D01*
X024537Y016539D01*
X024374Y016702D01*
X024161Y016790D01*
X023930Y016790D01*
X023717Y016702D01*
X023554Y016539D01*
X023520Y016456D01*
X023374Y016602D01*
X023161Y016690D01*
X022930Y016690D01*
X022717Y016602D01*
X022571Y016456D01*
X022537Y016539D01*
X022374Y016702D01*
X022161Y016790D01*
X021930Y016790D01*
X021717Y016702D01*
X021554Y016539D01*
X021466Y016325D01*
X021466Y016095D01*
X021554Y015881D01*
X021717Y015718D01*
X021786Y015690D01*
X021786Y015108D01*
X021825Y015013D01*
X022786Y014052D01*
X022592Y014246D02*
X020363Y014246D01*
X020713Y014344D02*
X022494Y014344D01*
X022395Y014443D02*
X020773Y014443D01*
X020784Y014541D02*
X022297Y014541D01*
X022198Y014640D02*
X020784Y014640D01*
X020784Y014738D02*
X022100Y014738D01*
X022001Y014837D02*
X020786Y014837D01*
X020753Y014935D02*
X021903Y014935D01*
X021816Y015034D02*
X020642Y015034D01*
X020485Y015231D02*
X021786Y015231D01*
X021786Y015329D02*
X020537Y015329D01*
X020543Y015428D02*
X021786Y015428D01*
X021786Y015526D02*
X020507Y015526D01*
X020412Y015625D02*
X021786Y015625D01*
X021712Y015723D02*
X020314Y015723D01*
X020114Y015920D02*
X019744Y015920D01*
X019759Y015822D02*
X019978Y015822D01*
X019852Y015723D02*
X019769Y015723D01*
X019677Y016019D02*
X020114Y016019D01*
X020114Y016117D02*
X017410Y016117D01*
X017046Y016410D02*
X020238Y016410D01*
X020504Y016144D01*
X020894Y016117D02*
X021466Y016117D01*
X021466Y016216D02*
X020894Y016216D01*
X020894Y016314D02*
X021466Y016314D01*
X021502Y016413D02*
X020893Y016413D01*
X020794Y016511D02*
X021542Y016511D01*
X021625Y016610D02*
X020407Y016610D01*
X020894Y016019D02*
X021497Y016019D01*
X021538Y015920D02*
X020894Y015920D01*
X020838Y015822D02*
X021614Y015822D01*
X022046Y016210D02*
X022046Y015160D01*
X023046Y014160D01*
X023046Y004660D01*
X023436Y004691D02*
X024920Y004691D01*
X025018Y004790D02*
X023436Y004790D01*
X023436Y004888D02*
X028536Y004888D01*
X028536Y004790D02*
X025573Y004790D01*
X025671Y004691D02*
X028536Y004691D01*
X028536Y004593D02*
X027294Y004593D01*
X027392Y004494D02*
X028536Y004494D01*
X028536Y004396D02*
X027491Y004396D01*
X027589Y004297D02*
X028536Y004297D01*
X028536Y004199D02*
X027688Y004199D01*
X027786Y004100D02*
X028536Y004100D01*
X028536Y004002D02*
X027885Y004002D01*
X027983Y003903D02*
X028536Y003903D01*
X028536Y003805D02*
X028082Y003805D01*
X028180Y003706D02*
X028536Y003706D01*
X028536Y003608D02*
X028279Y003608D01*
X028377Y003509D02*
X028536Y003509D01*
X028536Y003411D02*
X028476Y003411D01*
X027740Y003411D02*
X023373Y003411D01*
X023512Y003509D02*
X027642Y003509D01*
X027543Y003608D02*
X023611Y003608D01*
X023709Y003706D02*
X027445Y003706D01*
X027346Y003805D02*
X023808Y003805D01*
X023906Y003903D02*
X027248Y003903D01*
X027149Y004002D02*
X024005Y004002D01*
X024103Y004100D02*
X024949Y004100D01*
X025643Y004100D02*
X027051Y004100D01*
X028536Y004987D02*
X023376Y004987D01*
X023306Y005085D02*
X028536Y005085D01*
X028536Y005184D02*
X023306Y005184D01*
X023306Y005282D02*
X028536Y005282D01*
X028536Y005381D02*
X023306Y005381D01*
X023306Y005479D02*
X023780Y005479D01*
X023696Y005578D02*
X023306Y005578D01*
X023306Y005676D02*
X023696Y005676D01*
X023696Y005775D02*
X023306Y005775D01*
X023306Y005873D02*
X023696Y005873D01*
X023696Y005972D02*
X023306Y005972D01*
X023306Y006070D02*
X023696Y006070D01*
X023767Y006169D02*
X023306Y006169D01*
X023306Y006267D02*
X023826Y006267D01*
X023826Y006366D02*
X023306Y006366D01*
X023306Y006464D02*
X023826Y006464D01*
X023826Y006563D02*
X023306Y006563D01*
X023306Y006661D02*
X023826Y006661D01*
X023826Y006760D02*
X023306Y006760D01*
X023306Y006858D02*
X023826Y006858D01*
X023826Y006957D02*
X023306Y006957D01*
X023306Y007055D02*
X023826Y007055D01*
X023826Y007154D02*
X023306Y007154D01*
X023306Y007252D02*
X023826Y007252D01*
X023826Y007351D02*
X023306Y007351D01*
X023306Y007449D02*
X023826Y007449D01*
X023826Y007548D02*
X023306Y007548D01*
X023306Y007646D02*
X023826Y007646D01*
X023826Y007745D02*
X023306Y007745D01*
X023306Y007843D02*
X023826Y007843D01*
X023826Y007942D02*
X023306Y007942D01*
X023306Y008040D02*
X023826Y008040D01*
X023826Y008139D02*
X023306Y008139D01*
X023306Y008237D02*
X023826Y008237D01*
X023826Y008336D02*
X023306Y008336D01*
X023306Y008434D02*
X023826Y008434D01*
X023826Y008533D02*
X023306Y008533D01*
X023306Y008631D02*
X023826Y008631D01*
X023826Y008730D02*
X023306Y008730D01*
X023306Y008828D02*
X023826Y008828D01*
X023826Y008927D02*
X023306Y008927D01*
X023306Y009025D02*
X023826Y009025D01*
X023826Y009124D02*
X023306Y009124D01*
X023306Y009222D02*
X023826Y009222D01*
X023826Y009321D02*
X023306Y009321D01*
X023306Y009419D02*
X023826Y009419D01*
X023826Y009518D02*
X023306Y009518D01*
X023306Y009616D02*
X023826Y009616D01*
X023826Y009715D02*
X023306Y009715D01*
X023306Y009813D02*
X023826Y009813D01*
X023826Y009912D02*
X023306Y009912D01*
X023306Y010010D02*
X023826Y010010D01*
X023826Y010109D02*
X023306Y010109D01*
X023306Y010207D02*
X023826Y010207D01*
X023826Y010306D02*
X023306Y010306D01*
X023306Y010404D02*
X023826Y010404D01*
X023826Y010503D02*
X023306Y010503D01*
X023306Y010601D02*
X023826Y010601D01*
X023826Y010700D02*
X023306Y010700D01*
X023306Y010798D02*
X023826Y010798D01*
X023826Y010897D02*
X023306Y010897D01*
X023306Y010995D02*
X023826Y010995D01*
X023826Y011094D02*
X023306Y011094D01*
X023306Y011192D02*
X023826Y011192D01*
X023826Y011291D02*
X023306Y011291D01*
X023306Y011389D02*
X023826Y011389D01*
X023826Y011488D02*
X023306Y011488D01*
X023306Y011586D02*
X023826Y011586D01*
X023826Y011685D02*
X023306Y011685D01*
X023306Y011783D02*
X023826Y011783D01*
X023826Y011882D02*
X023306Y011882D01*
X023306Y011980D02*
X023826Y011980D01*
X023826Y012079D02*
X023306Y012079D01*
X023306Y012177D02*
X023826Y012177D01*
X023826Y012276D02*
X023306Y012276D01*
X023306Y012374D02*
X023826Y012374D01*
X023826Y012473D02*
X023306Y012473D01*
X023306Y012571D02*
X023826Y012571D01*
X023826Y012670D02*
X023306Y012670D01*
X023306Y012768D02*
X023826Y012768D01*
X023826Y012867D02*
X023306Y012867D01*
X023306Y012965D02*
X023826Y012965D01*
X023826Y013064D02*
X023306Y013064D01*
X023306Y013162D02*
X023826Y013162D01*
X023826Y013261D02*
X023306Y013261D01*
X023306Y013359D02*
X023826Y013359D01*
X023826Y013458D02*
X023306Y013458D01*
X023306Y013556D02*
X023826Y013556D01*
X023826Y013655D02*
X023306Y013655D01*
X023306Y013753D02*
X023826Y013753D01*
X023826Y013852D02*
X023306Y013852D01*
X023306Y013950D02*
X023826Y013950D01*
X023826Y014049D02*
X023306Y014049D01*
X023306Y014147D02*
X023826Y014147D01*
X023826Y014246D02*
X023292Y014246D01*
X023229Y014344D02*
X023826Y014344D01*
X023826Y014443D02*
X023131Y014443D01*
X023032Y014541D02*
X023826Y014541D01*
X023826Y014640D02*
X022934Y014640D01*
X022835Y014738D02*
X023826Y014738D01*
X023826Y014837D02*
X022737Y014837D01*
X022638Y014935D02*
X023826Y014935D01*
X023826Y015034D02*
X022540Y015034D01*
X022441Y015132D02*
X023826Y015132D01*
X023826Y015231D02*
X022343Y015231D01*
X022306Y015329D02*
X023826Y015329D01*
X023826Y015428D02*
X022306Y015428D01*
X022306Y015526D02*
X023826Y015526D01*
X023826Y015625D02*
X023380Y015625D01*
X023479Y015723D02*
X023712Y015723D01*
X023614Y015822D02*
X023554Y015822D01*
X024046Y016210D02*
X024086Y016170D01*
X024086Y005830D01*
X024476Y005873D02*
X028536Y005873D01*
X028536Y005775D02*
X024476Y005775D01*
X024476Y005676D02*
X028536Y005676D01*
X028536Y005578D02*
X024476Y005578D01*
X024392Y005479D02*
X028536Y005479D01*
X028536Y005972D02*
X024476Y005972D01*
X024476Y006070D02*
X028536Y006070D01*
X028536Y006169D02*
X024404Y006169D01*
X024346Y006267D02*
X028536Y006267D01*
X028536Y006366D02*
X024346Y006366D01*
X024346Y006464D02*
X028536Y006464D01*
X028525Y006563D02*
X024346Y006563D01*
X024346Y006661D02*
X028427Y006661D01*
X028328Y006760D02*
X024346Y006760D01*
X024346Y006858D02*
X028230Y006858D01*
X028131Y006957D02*
X024346Y006957D01*
X024346Y007055D02*
X028058Y007055D01*
X028036Y007154D02*
X024346Y007154D01*
X024346Y007252D02*
X028036Y007252D01*
X028036Y007351D02*
X024346Y007351D01*
X024346Y007449D02*
X028036Y007449D01*
X028036Y007548D02*
X024346Y007548D01*
X024346Y007646D02*
X028036Y007646D01*
X028036Y007745D02*
X024346Y007745D01*
X024346Y007843D02*
X028036Y007843D01*
X028036Y007942D02*
X024346Y007942D01*
X024346Y008040D02*
X028036Y008040D01*
X028036Y008139D02*
X024346Y008139D01*
X024346Y008237D02*
X028036Y008237D01*
X028036Y008336D02*
X024346Y008336D01*
X024346Y008434D02*
X028036Y008434D01*
X028036Y008533D02*
X024346Y008533D01*
X024346Y008631D02*
X028036Y008631D01*
X028036Y008730D02*
X024346Y008730D01*
X024346Y008828D02*
X028036Y008828D01*
X028036Y008927D02*
X024346Y008927D01*
X024346Y009025D02*
X028036Y009025D01*
X028036Y009124D02*
X024346Y009124D01*
X024346Y009222D02*
X028036Y009222D01*
X028036Y009321D02*
X024346Y009321D01*
X024346Y009419D02*
X028036Y009419D01*
X028036Y009518D02*
X024346Y009518D01*
X024346Y009616D02*
X028036Y009616D01*
X028036Y009715D02*
X024346Y009715D01*
X024346Y009813D02*
X028036Y009813D01*
X028036Y009912D02*
X024346Y009912D01*
X024346Y010010D02*
X028036Y010010D01*
X028036Y010109D02*
X024346Y010109D01*
X024346Y010207D02*
X028036Y010207D01*
X028036Y010306D02*
X024346Y010306D01*
X024346Y010404D02*
X028036Y010404D01*
X028036Y010503D02*
X024346Y010503D01*
X024346Y010601D02*
X028036Y010601D01*
X028036Y010700D02*
X024346Y010700D01*
X024346Y010798D02*
X028036Y010798D01*
X028036Y010897D02*
X024346Y010897D01*
X024346Y010995D02*
X028036Y010995D01*
X028036Y011094D02*
X024346Y011094D01*
X024346Y011192D02*
X028036Y011192D01*
X028036Y011291D02*
X024346Y011291D01*
X024346Y011389D02*
X028036Y011389D01*
X028036Y011488D02*
X024346Y011488D01*
X024346Y011586D02*
X028036Y011586D01*
X028036Y011685D02*
X024346Y011685D01*
X024346Y011783D02*
X028036Y011783D01*
X028036Y011882D02*
X024346Y011882D01*
X024346Y011980D02*
X028036Y011980D01*
X028036Y012079D02*
X024346Y012079D01*
X024346Y012177D02*
X028036Y012177D01*
X028036Y012276D02*
X024346Y012276D01*
X024346Y012374D02*
X028036Y012374D01*
X028036Y012473D02*
X025575Y012473D01*
X025646Y012571D02*
X028036Y012571D01*
X028036Y012670D02*
X025646Y012670D01*
X025646Y012768D02*
X028036Y012768D01*
X028036Y012867D02*
X025646Y012867D01*
X025646Y012965D02*
X028036Y012965D01*
X027985Y013064D02*
X025646Y013064D01*
X025560Y013162D02*
X027906Y013162D01*
X027906Y013261D02*
X025516Y013261D01*
X025612Y013359D02*
X027906Y013359D01*
X028046Y013660D02*
X028296Y013410D01*
X028296Y008684D01*
X028556Y009081D02*
X028556Y009081D01*
X028556Y009124D02*
X031596Y009124D01*
X031596Y009222D02*
X028556Y009222D01*
X028556Y009321D02*
X031596Y009321D01*
X031596Y009419D02*
X028556Y009419D01*
X028556Y009518D02*
X031596Y009518D01*
X031596Y009616D02*
X028556Y009616D01*
X028556Y009715D02*
X031596Y009715D01*
X031596Y009813D02*
X028556Y009813D01*
X028556Y009912D02*
X031596Y009912D01*
X031596Y010010D02*
X028556Y010010D01*
X028556Y010109D02*
X031596Y010109D01*
X031596Y010207D02*
X028556Y010207D01*
X028556Y010306D02*
X031596Y010306D01*
X031596Y010404D02*
X028556Y010404D01*
X028556Y010503D02*
X031596Y010503D01*
X031596Y010601D02*
X028556Y010601D01*
X028556Y010700D02*
X031596Y010700D01*
X031596Y010798D02*
X028556Y010798D01*
X028556Y010897D02*
X031596Y010897D01*
X031596Y010995D02*
X028556Y010995D01*
X028556Y011094D02*
X031596Y011094D01*
X031596Y011192D02*
X028556Y011192D01*
X028556Y011291D02*
X031596Y011291D01*
X031596Y011389D02*
X028556Y011389D01*
X028556Y011488D02*
X031596Y011488D01*
X031596Y011586D02*
X028556Y011586D01*
X028556Y011685D02*
X031596Y011685D01*
X031596Y011783D02*
X028556Y011783D01*
X028556Y011882D02*
X031596Y011882D01*
X031596Y011980D02*
X028556Y011980D01*
X028556Y012079D02*
X031596Y012079D01*
X031596Y012177D02*
X028556Y012177D01*
X028556Y012276D02*
X031596Y012276D01*
X031596Y012374D02*
X028556Y012374D01*
X028556Y012473D02*
X031596Y012473D01*
X031596Y012571D02*
X028556Y012571D01*
X028556Y012670D02*
X031596Y012670D01*
X031596Y012768D02*
X028556Y012768D01*
X028556Y012867D02*
X031596Y012867D01*
X031596Y012965D02*
X028556Y012965D01*
X028606Y013064D02*
X031596Y013064D01*
X031596Y013162D02*
X028686Y013162D01*
X028686Y013261D02*
X031596Y013261D01*
X031596Y013359D02*
X028686Y013359D01*
X028686Y013458D02*
X031596Y013458D01*
X031596Y013556D02*
X028686Y013556D01*
X028686Y013655D02*
X031596Y013655D01*
X031596Y013753D02*
X028609Y013753D01*
X028222Y013852D02*
X031596Y013852D01*
X031596Y013950D02*
X024346Y013950D01*
X024346Y013852D02*
X025369Y013852D01*
X025271Y013753D02*
X024346Y013753D01*
X024346Y013655D02*
X025172Y013655D01*
X025074Y013556D02*
X024346Y013556D01*
X024346Y013458D02*
X025010Y013458D01*
X024996Y013359D02*
X024346Y013359D01*
X024346Y013261D02*
X024996Y013261D01*
X024951Y013162D02*
X024346Y013162D01*
X024346Y013064D02*
X024866Y013064D01*
X024866Y012965D02*
X024346Y012965D01*
X024346Y012867D02*
X024866Y012867D01*
X024866Y012768D02*
X024346Y012768D01*
X024346Y012670D02*
X024866Y012670D01*
X024866Y012571D02*
X024346Y012571D01*
X024346Y012473D02*
X024936Y012473D01*
X025256Y012810D02*
X025256Y013370D01*
X025546Y013660D01*
X028046Y013660D01*
X027436Y014393D02*
X027312Y014270D01*
X026779Y014270D01*
X026671Y014378D01*
X026562Y014270D01*
X026029Y014270D01*
X025906Y014393D01*
X025906Y014927D01*
X026029Y015050D01*
X026562Y015050D01*
X026671Y014942D01*
X026779Y015050D01*
X027312Y015050D01*
X027436Y014927D01*
X027436Y014393D01*
X027436Y014443D02*
X031596Y014443D01*
X031596Y014541D02*
X027436Y014541D01*
X027436Y014640D02*
X031596Y014640D01*
X031596Y014738D02*
X027436Y014738D01*
X027436Y014837D02*
X031596Y014837D01*
X031596Y014935D02*
X027427Y014935D01*
X027329Y015034D02*
X031596Y015034D01*
X031596Y015132D02*
X024346Y015132D01*
X024346Y015034D02*
X026012Y015034D01*
X025914Y014935D02*
X024346Y014935D01*
X024346Y014837D02*
X025906Y014837D01*
X025906Y014738D02*
X024346Y014738D01*
X024346Y014640D02*
X025906Y014640D01*
X025906Y014541D02*
X024346Y014541D01*
X024346Y014443D02*
X025906Y014443D01*
X025954Y014344D02*
X024346Y014344D01*
X024346Y014246D02*
X031596Y014246D01*
X031596Y014344D02*
X027387Y014344D01*
X026704Y014344D02*
X026637Y014344D01*
X026579Y015034D02*
X026762Y015034D01*
X025554Y015822D02*
X031596Y015822D01*
X031596Y015920D02*
X025595Y015920D01*
X025626Y016019D02*
X031596Y016019D01*
X031596Y016117D02*
X025626Y016117D01*
X025626Y016216D02*
X031596Y016216D01*
X031596Y016314D02*
X025589Y016314D01*
X025548Y016413D02*
X031596Y016413D01*
X031596Y016511D02*
X025465Y016511D01*
X025355Y016610D02*
X031596Y016610D01*
X031596Y016708D02*
X024359Y016708D01*
X024466Y016610D02*
X024736Y016610D01*
X024626Y016511D02*
X024549Y016511D01*
X023732Y016708D02*
X022359Y016708D01*
X022466Y016610D02*
X022736Y016610D01*
X022626Y016511D02*
X022549Y016511D01*
X021732Y016708D02*
X017404Y016708D01*
X016687Y016708D02*
X016485Y016708D01*
X016485Y016610D02*
X016656Y016610D01*
X016656Y016511D02*
X016410Y016511D01*
X016362Y016463D02*
X016072Y016463D01*
X014268Y014659D01*
X014268Y011652D01*
X014275Y011652D01*
X014398Y011529D01*
X014398Y010995D01*
X019786Y010995D01*
X019786Y010897D02*
X014299Y010897D01*
X014275Y010872D02*
X014398Y010995D01*
X014398Y011094D02*
X019786Y011094D01*
X019786Y011192D02*
X014398Y011192D01*
X014398Y011291D02*
X019786Y011291D01*
X019786Y011389D02*
X014398Y011389D01*
X014398Y011488D02*
X019786Y011488D01*
X019786Y011586D02*
X014341Y011586D01*
X014268Y011685D02*
X019786Y011685D01*
X019786Y011783D02*
X014268Y011783D01*
X014268Y011882D02*
X019786Y011882D01*
X019786Y011980D02*
X014268Y011980D01*
X014268Y012079D02*
X019786Y012079D01*
X019786Y012177D02*
X014268Y012177D01*
X014268Y012276D02*
X019786Y012276D01*
X019786Y012374D02*
X014268Y012374D01*
X014268Y012473D02*
X019786Y012473D01*
X019786Y012571D02*
X014268Y012571D01*
X014268Y012670D02*
X019786Y012670D01*
X019809Y012768D02*
X014268Y012768D01*
X014268Y012867D02*
X019884Y012867D01*
X019983Y012965D02*
X014268Y012965D01*
X014268Y013064D02*
X020081Y013064D01*
X020180Y013162D02*
X014268Y013162D01*
X014268Y013261D02*
X020278Y013261D01*
X020377Y013359D02*
X014268Y013359D01*
X014268Y013458D02*
X020475Y013458D01*
X020574Y013556D02*
X020267Y013556D01*
X020364Y013655D02*
X020706Y013655D01*
X020462Y013753D02*
X021732Y013753D01*
X022436Y013359D02*
X022786Y013359D01*
X022786Y013261D02*
X022436Y013261D01*
X022436Y013162D02*
X022786Y013162D01*
X022786Y013064D02*
X022356Y013064D01*
X022786Y012965D02*
X020718Y012965D01*
X020620Y012867D02*
X022786Y012867D01*
X022786Y012768D02*
X020521Y012768D01*
X020423Y012670D02*
X022786Y012670D01*
X022786Y012571D02*
X020324Y012571D01*
X020306Y012473D02*
X022786Y012473D01*
X022786Y012374D02*
X020306Y012374D01*
X020306Y012276D02*
X022786Y012276D01*
X022786Y012177D02*
X020306Y012177D01*
X020306Y012079D02*
X022786Y012079D01*
X022786Y011980D02*
X020306Y011980D01*
X020306Y011882D02*
X022786Y011882D01*
X022786Y011783D02*
X020306Y011783D01*
X020306Y011685D02*
X022786Y011685D01*
X022786Y011586D02*
X020306Y011586D01*
X020306Y011488D02*
X022786Y011488D01*
X022786Y011389D02*
X020306Y011389D01*
X020306Y011291D02*
X022786Y011291D01*
X022786Y011192D02*
X020306Y011192D01*
X020306Y011094D02*
X022786Y011094D01*
X022786Y010995D02*
X020306Y010995D01*
X020306Y010897D02*
X022786Y010897D01*
X022786Y010798D02*
X020306Y010798D01*
X020306Y010700D02*
X022786Y010700D01*
X022786Y010601D02*
X020306Y010601D01*
X020306Y010503D02*
X022786Y010503D01*
X022786Y010404D02*
X020306Y010404D01*
X020306Y010306D02*
X022786Y010306D01*
X022786Y010207D02*
X020306Y010207D01*
X020306Y010109D02*
X022786Y010109D01*
X022786Y010010D02*
X020306Y010010D01*
X020306Y009912D02*
X022786Y009912D01*
X022786Y009813D02*
X020306Y009813D01*
X020306Y009715D02*
X022786Y009715D01*
X022786Y009616D02*
X020306Y009616D01*
X020306Y009518D02*
X022786Y009518D01*
X022786Y009419D02*
X020306Y009419D01*
X020377Y009321D02*
X022786Y009321D01*
X022786Y009222D02*
X020475Y009222D01*
X020496Y009124D02*
X022786Y009124D01*
X022786Y009025D02*
X020496Y009025D01*
X020496Y008927D02*
X022786Y008927D01*
X022786Y008828D02*
X020445Y008828D01*
X020366Y008730D02*
X022786Y008730D01*
X022786Y008631D02*
X020366Y008631D01*
X020366Y008533D02*
X022786Y008533D01*
X022786Y008434D02*
X020366Y008434D01*
X020366Y008336D02*
X022786Y008336D01*
X022786Y008237D02*
X020366Y008237D01*
X020366Y008139D02*
X022786Y008139D01*
X022786Y008040D02*
X020366Y008040D01*
X020366Y007942D02*
X022786Y007942D01*
X022786Y007843D02*
X020366Y007843D01*
X020366Y007745D02*
X022786Y007745D01*
X022786Y007646D02*
X020366Y007646D01*
X020366Y007548D02*
X022786Y007548D01*
X022786Y007449D02*
X020366Y007449D01*
X020366Y007351D02*
X022786Y007351D01*
X022786Y007252D02*
X020366Y007252D01*
X020366Y007154D02*
X022786Y007154D01*
X022786Y007055D02*
X020366Y007055D01*
X020366Y006957D02*
X022786Y006957D01*
X022786Y006858D02*
X020366Y006858D01*
X020366Y006760D02*
X022786Y006760D01*
X022786Y006661D02*
X020366Y006661D01*
X020366Y006563D02*
X022786Y006563D01*
X022786Y006464D02*
X020366Y006464D01*
X020366Y006366D02*
X022786Y006366D01*
X022786Y006267D02*
X020366Y006267D01*
X019846Y006366D02*
X014808Y006366D01*
X014871Y006464D02*
X019846Y006464D01*
X019846Y006563D02*
X014871Y006563D01*
X014871Y006661D02*
X019846Y006661D01*
X019846Y006760D02*
X014871Y006760D01*
X014871Y006858D02*
X019846Y006858D01*
X019846Y006957D02*
X014871Y006957D01*
X014778Y007055D02*
X019846Y007055D01*
X019846Y007154D02*
X013642Y007154D01*
X013544Y007252D02*
X019846Y007252D01*
X019846Y007351D02*
X013445Y007351D01*
X013347Y007449D02*
X019846Y007449D01*
X019846Y007548D02*
X013248Y007548D01*
X013150Y007646D02*
X019846Y007646D01*
X019846Y007745D02*
X013051Y007745D01*
X012953Y007843D02*
X019846Y007843D01*
X019846Y007942D02*
X012854Y007942D01*
X012756Y008040D02*
X019846Y008040D01*
X019846Y008139D02*
X012657Y008139D01*
X012559Y008237D02*
X013463Y008237D01*
X013365Y008336D02*
X012460Y008336D01*
X012492Y008434D02*
X012362Y008434D01*
X012394Y008533D02*
X012263Y008533D01*
X012295Y008631D02*
X012165Y008631D01*
X012197Y008730D02*
X012066Y008730D01*
X012098Y008828D02*
X011968Y008828D01*
X012000Y008927D02*
X011869Y008927D01*
X011901Y009025D02*
X011771Y009025D01*
X011803Y009124D02*
X011672Y009124D01*
X011704Y009222D02*
X011574Y009222D01*
X011606Y009321D02*
X011475Y009321D01*
X011507Y009419D02*
X011377Y009419D01*
X011409Y009518D02*
X011278Y009518D01*
X011310Y009616D02*
X011180Y009616D01*
X011212Y009715D02*
X011081Y009715D01*
X011113Y009813D02*
X010983Y009813D01*
X011015Y009912D02*
X010884Y009912D01*
X010916Y010010D02*
X010815Y010010D01*
X010815Y010109D02*
X010818Y010109D01*
X010425Y010003D02*
X013733Y006695D01*
X014481Y006695D01*
X014183Y007055D02*
X013741Y007055D01*
X013839Y006957D02*
X014091Y006957D01*
X014002Y008237D02*
X019846Y008237D01*
X019846Y008336D02*
X014100Y008336D01*
X014123Y008434D02*
X019846Y008434D01*
X019846Y008533D02*
X014123Y008533D01*
X014123Y008631D02*
X019846Y008631D01*
X019846Y008730D02*
X014123Y008730D01*
X014123Y008828D02*
X019766Y008828D01*
X019716Y008927D02*
X014088Y008927D01*
X013733Y008625D02*
X012670Y008625D01*
X010740Y010554D01*
X009520Y010554D01*
X009205Y010869D01*
X009205Y012916D01*
X009595Y012965D02*
X010402Y012965D01*
X010402Y012867D02*
X009595Y012867D01*
X009595Y012768D02*
X010402Y012768D01*
X010402Y012670D02*
X009595Y012670D01*
X009517Y012571D02*
X010402Y012571D01*
X010402Y012473D02*
X009465Y012473D01*
X009465Y012374D02*
X010402Y012374D01*
X010402Y012276D02*
X009465Y012276D01*
X009465Y012177D02*
X010402Y012177D01*
X010402Y012079D02*
X009465Y012079D01*
X009465Y011980D02*
X010402Y011980D01*
X010402Y011882D02*
X009465Y011882D01*
X009465Y011783D02*
X010402Y011783D01*
X010402Y011685D02*
X009465Y011685D01*
X009465Y011586D02*
X010402Y011586D01*
X010387Y011488D02*
X009465Y011488D01*
X009465Y011389D02*
X010289Y011389D01*
X010272Y011291D02*
X009465Y011291D01*
X009465Y011192D02*
X010272Y011192D01*
X010272Y011094D02*
X009465Y011094D01*
X009465Y010995D02*
X010272Y010995D01*
X010272Y010897D02*
X009545Y010897D01*
X009105Y010601D02*
X001970Y010601D01*
X001970Y010503D02*
X009203Y010503D01*
X009006Y010700D02*
X001970Y010700D01*
X001970Y010798D02*
X008953Y010798D01*
X008945Y010897D02*
X001947Y010897D01*
X001848Y010995D02*
X003067Y010995D01*
X003028Y011035D02*
X003151Y010912D01*
X003685Y010912D01*
X003808Y011035D01*
X003808Y011569D01*
X003685Y011692D01*
X003678Y011692D01*
X003678Y012401D01*
X003729Y012452D01*
X003729Y012986D01*
X003606Y013109D01*
X003072Y013109D01*
X002949Y012986D01*
X002949Y012452D01*
X003072Y012329D01*
X003158Y012329D01*
X003158Y011692D01*
X003151Y011692D01*
X003028Y011569D01*
X003028Y011035D01*
X003028Y011094D02*
X001021Y011094D01*
X001021Y011192D02*
X003028Y011192D01*
X003028Y011291D02*
X001021Y011291D01*
X001021Y011389D02*
X003028Y011389D01*
X003028Y011488D02*
X001021Y011488D01*
X001021Y011586D02*
X003045Y011586D01*
X003143Y011685D02*
X001021Y011685D01*
X001021Y011783D02*
X003158Y011783D01*
X003158Y011882D02*
X001021Y011882D01*
X001021Y011980D02*
X003158Y011980D01*
X003158Y012079D02*
X001021Y012079D01*
X001021Y012177D02*
X003158Y012177D01*
X003158Y012276D02*
X001021Y012276D01*
X001021Y012374D02*
X003027Y012374D01*
X002949Y012473D02*
X001021Y012473D01*
X001021Y012571D02*
X002949Y012571D01*
X002949Y012670D02*
X001021Y012670D01*
X001021Y012768D02*
X002949Y012768D01*
X002949Y012867D02*
X001021Y012867D01*
X001021Y012965D02*
X002949Y012965D01*
X003026Y013064D02*
X001021Y013064D01*
X001021Y013162D02*
X008815Y013162D01*
X008815Y013064D02*
X003651Y013064D01*
X003729Y012965D02*
X008815Y012965D01*
X008815Y012867D02*
X003729Y012867D01*
X003729Y012768D02*
X008815Y012768D01*
X008815Y012670D02*
X003729Y012670D01*
X003729Y012571D02*
X008893Y012571D01*
X008945Y012473D02*
X003729Y012473D01*
X003678Y012374D02*
X008945Y012374D01*
X008945Y012276D02*
X003678Y012276D01*
X003678Y012177D02*
X008945Y012177D01*
X008945Y012079D02*
X003678Y012079D01*
X003678Y011980D02*
X008945Y011980D01*
X008945Y011882D02*
X003678Y011882D01*
X003678Y011783D02*
X008945Y011783D01*
X008945Y011685D02*
X003692Y011685D01*
X003790Y011586D02*
X008945Y011586D01*
X008945Y011488D02*
X003808Y011488D01*
X003808Y011389D02*
X008945Y011389D01*
X008945Y011291D02*
X003808Y011291D01*
X003808Y011192D02*
X008945Y011192D01*
X008945Y011094D02*
X003808Y011094D01*
X003768Y010995D02*
X008945Y010995D01*
X010662Y011105D02*
X010662Y016617D01*
X010032Y017247D01*
X010032Y017814D01*
X010601Y017595D02*
X011431Y017595D01*
X011390Y017693D02*
X010642Y017693D01*
X010642Y017792D02*
X011390Y017792D01*
X011390Y017890D02*
X010642Y017890D01*
X010620Y017989D02*
X011412Y017989D01*
X011453Y018087D02*
X010579Y018087D01*
X010522Y018186D02*
X011510Y018186D01*
X011608Y018284D02*
X010424Y018284D01*
X010252Y018383D02*
X011780Y018383D01*
X012221Y018383D02*
X013095Y018383D01*
X013194Y018284D02*
X012392Y018284D01*
X012491Y018186D02*
X013292Y018186D01*
X013391Y018087D02*
X012547Y018087D01*
X012588Y017989D02*
X013489Y017989D01*
X013588Y017890D02*
X012610Y017890D01*
X012610Y017792D02*
X013686Y017792D01*
X013785Y017693D02*
X012610Y017693D01*
X012587Y017595D02*
X013883Y017595D01*
X013982Y017496D02*
X012685Y017496D01*
X012784Y017398D02*
X014080Y017398D01*
X014179Y017299D02*
X012882Y017299D01*
X012981Y017201D02*
X014277Y017201D01*
X014376Y017102D02*
X013079Y017102D01*
X013178Y017004D02*
X014474Y017004D01*
X014563Y016905D02*
X013276Y016905D01*
X013375Y016807D02*
X014563Y016807D01*
X014563Y016708D02*
X013473Y016708D01*
X013572Y016610D02*
X014563Y016610D01*
X014638Y016511D02*
X013670Y016511D01*
X013715Y016413D02*
X015287Y016413D01*
X015268Y016511D02*
X015385Y016511D01*
X015343Y016610D02*
X015484Y016610D01*
X015582Y016708D02*
X015343Y016708D01*
X015343Y016807D02*
X015681Y016807D01*
X015705Y016831D02*
X013788Y014914D01*
X013748Y014818D01*
X013748Y011652D01*
X013741Y011652D01*
X013618Y011529D01*
X013618Y010995D01*
X013741Y010872D01*
X014275Y010872D01*
X014008Y011262D02*
X014008Y014766D01*
X016095Y016853D01*
X015705Y016831D02*
X015705Y017120D01*
X015828Y017243D01*
X016362Y017243D01*
X016485Y017120D01*
X016485Y016586D01*
X016362Y016463D01*
X016656Y016413D02*
X016022Y016413D01*
X015924Y016314D02*
X016656Y016314D01*
X016656Y016216D02*
X015825Y016216D01*
X015727Y016117D02*
X016681Y016117D01*
X016485Y016807D02*
X031596Y016807D01*
X031596Y016905D02*
X016485Y016905D01*
X016485Y017004D02*
X031596Y017004D01*
X031596Y017102D02*
X016485Y017102D01*
X016404Y017201D02*
X031596Y017201D01*
X031596Y017299D02*
X014914Y017299D01*
X014815Y017398D02*
X031596Y017398D01*
X031596Y017496D02*
X014717Y017496D01*
X014618Y017595D02*
X031596Y017595D01*
X031596Y017693D02*
X014520Y017693D01*
X014421Y017792D02*
X031596Y017792D01*
X031596Y017890D02*
X014323Y017890D01*
X014224Y017989D02*
X031596Y017989D01*
X031596Y018087D02*
X014126Y018087D01*
X014027Y018186D02*
X031596Y018186D01*
X031596Y018284D02*
X013929Y018284D01*
X013830Y018383D02*
X031596Y018383D01*
X031596Y018481D02*
X013732Y018481D01*
X013633Y018580D02*
X031596Y018580D01*
X031596Y018678D02*
X013535Y018678D01*
X013436Y018777D02*
X031596Y018777D01*
X031596Y018875D02*
X013338Y018875D01*
X013181Y018664D02*
X004416Y018664D01*
X003565Y017814D01*
X004135Y017595D02*
X004964Y017595D01*
X004924Y017693D02*
X004175Y017693D01*
X004175Y017792D02*
X004924Y017792D01*
X004924Y017890D02*
X004175Y017890D01*
X004153Y017989D02*
X004946Y017989D01*
X004987Y018087D02*
X004206Y018087D01*
X004305Y018186D02*
X005043Y018186D01*
X005142Y018284D02*
X004403Y018284D01*
X004502Y018383D02*
X005313Y018383D01*
X005754Y018383D02*
X007535Y018383D01*
X007453Y018284D02*
X005926Y018284D01*
X006024Y018186D02*
X007453Y018186D01*
X007453Y018087D02*
X006081Y018087D01*
X006121Y017989D02*
X007453Y017989D01*
X007453Y017890D02*
X006144Y017890D01*
X006144Y017792D02*
X007453Y017792D01*
X007453Y017693D02*
X006144Y017693D01*
X006103Y017595D02*
X007453Y017595D01*
X007453Y017496D02*
X006062Y017496D01*
X005980Y017398D02*
X007453Y017398D01*
X007481Y017299D02*
X005882Y017299D01*
X005186Y017299D02*
X003913Y017299D01*
X004012Y017398D02*
X005087Y017398D01*
X005005Y017496D02*
X004094Y017496D01*
X003217Y017299D02*
X002179Y017299D01*
X002207Y017398D02*
X003119Y017398D01*
X003036Y017496D02*
X002207Y017496D01*
X002207Y017595D02*
X002996Y017595D01*
X002955Y017693D02*
X002207Y017693D01*
X002207Y017792D02*
X002955Y017792D01*
X002955Y017890D02*
X002207Y017890D01*
X002207Y017989D02*
X002977Y017989D01*
X003018Y018087D02*
X002207Y018087D01*
X002207Y018186D02*
X003075Y018186D01*
X003173Y018284D02*
X002207Y018284D01*
X002125Y018383D02*
X003345Y018383D01*
X003865Y018481D02*
X001021Y018481D01*
X001021Y018383D02*
X001069Y018383D01*
X001021Y018580D02*
X003964Y018580D01*
X004062Y018678D02*
X001021Y018678D01*
X001021Y018777D02*
X004161Y018777D01*
X004259Y018875D02*
X001021Y018875D01*
X001021Y017201D02*
X009772Y017201D01*
X009810Y017102D02*
X001021Y017102D01*
X001021Y017004D02*
X009907Y017004D01*
X010006Y016905D02*
X001021Y016905D01*
X001021Y016807D02*
X010104Y016807D01*
X010203Y016708D02*
X001021Y016708D01*
X001021Y016610D02*
X010301Y016610D01*
X010400Y016511D02*
X001021Y016511D01*
X001021Y016413D02*
X010402Y016413D01*
X010402Y016314D02*
X001021Y016314D01*
X001021Y016216D02*
X010402Y016216D01*
X010402Y016117D02*
X001021Y016117D01*
X001021Y016019D02*
X010402Y016019D01*
X010402Y015920D02*
X001021Y015920D01*
X001021Y015822D02*
X010402Y015822D01*
X010402Y015723D02*
X001021Y015723D01*
X001021Y015625D02*
X010402Y015625D01*
X010402Y015526D02*
X001021Y015526D01*
X001021Y015428D02*
X010402Y015428D01*
X010402Y015329D02*
X001021Y015329D01*
X001021Y015231D02*
X010402Y015231D01*
X010402Y015132D02*
X001021Y015132D01*
X001021Y015034D02*
X010402Y015034D01*
X010402Y014935D02*
X001021Y014935D01*
X001021Y014837D02*
X010402Y014837D01*
X010402Y014738D02*
X001021Y014738D01*
X001021Y014640D02*
X010402Y014640D01*
X010402Y014541D02*
X001021Y014541D01*
X001021Y014443D02*
X010402Y014443D01*
X010402Y014344D02*
X001021Y014344D01*
X001021Y014246D02*
X010402Y014246D01*
X010402Y014147D02*
X001021Y014147D01*
X001021Y014049D02*
X010402Y014049D01*
X010402Y013950D02*
X001021Y013950D01*
X001021Y013852D02*
X010402Y013852D01*
X010402Y013753D02*
X001021Y013753D01*
X001021Y013655D02*
X010402Y013655D01*
X010402Y013556D02*
X001021Y013556D01*
X001021Y013458D02*
X010402Y013458D01*
X010402Y013359D02*
X001021Y013359D01*
X001021Y013261D02*
X008893Y013261D01*
X009517Y013261D02*
X010402Y013261D01*
X010402Y013162D02*
X009595Y013162D01*
X009595Y013064D02*
X010402Y013064D01*
X010922Y013064D02*
X013197Y013064D01*
X013197Y013162D02*
X010922Y013162D01*
X010922Y013261D02*
X013197Y013261D01*
X013197Y013359D02*
X010922Y013359D01*
X010922Y013458D02*
X013197Y013458D01*
X013197Y013556D02*
X010922Y013556D01*
X010922Y013655D02*
X013197Y013655D01*
X013197Y013753D02*
X010922Y013753D01*
X010922Y013852D02*
X013197Y013852D01*
X013197Y013950D02*
X010922Y013950D01*
X010922Y014049D02*
X013197Y014049D01*
X013197Y014147D02*
X010922Y014147D01*
X010922Y014246D02*
X013197Y014246D01*
X013197Y014344D02*
X010922Y014344D01*
X010922Y014443D02*
X013197Y014443D01*
X013197Y014541D02*
X010922Y014541D01*
X010922Y014640D02*
X013197Y014640D01*
X013197Y014738D02*
X010922Y014738D01*
X010922Y014837D02*
X013197Y014837D01*
X013197Y014935D02*
X010922Y014935D01*
X010922Y015034D02*
X013197Y015034D01*
X013197Y015132D02*
X010922Y015132D01*
X010922Y015231D02*
X013197Y015231D01*
X013197Y015329D02*
X010922Y015329D01*
X010922Y015428D02*
X013197Y015428D01*
X013197Y015526D02*
X010922Y015526D01*
X010922Y015625D02*
X013197Y015625D01*
X013197Y015723D02*
X010922Y015723D01*
X010922Y015822D02*
X013197Y015822D01*
X013197Y015920D02*
X010922Y015920D01*
X010922Y016019D02*
X013197Y016019D01*
X013197Y016117D02*
X010922Y016117D01*
X010922Y016216D02*
X013197Y016216D01*
X013132Y016314D02*
X010922Y016314D01*
X010922Y016413D02*
X013034Y016413D01*
X012935Y016511D02*
X010922Y016511D01*
X010922Y016610D02*
X012837Y016610D01*
X012738Y016708D02*
X010905Y016708D01*
X010839Y016807D02*
X012640Y016807D01*
X012541Y016905D02*
X010741Y016905D01*
X010642Y017004D02*
X012443Y017004D01*
X012344Y017102D02*
X010544Y017102D01*
X010445Y017201D02*
X012246Y017201D01*
X011652Y017299D02*
X010380Y017299D01*
X010478Y017398D02*
X011554Y017398D01*
X011471Y017496D02*
X010560Y017496D01*
X009684Y017299D02*
X008646Y017299D01*
X008673Y017398D02*
X009585Y017398D01*
X009503Y017496D02*
X008673Y017496D01*
X008673Y017595D02*
X009462Y017595D01*
X009422Y017693D02*
X008673Y017693D01*
X008673Y017792D02*
X009422Y017792D01*
X009422Y017890D02*
X008673Y017890D01*
X008673Y017989D02*
X009444Y017989D01*
X009485Y018087D02*
X008673Y018087D01*
X008673Y018186D02*
X009541Y018186D01*
X009640Y018284D02*
X008673Y018284D01*
X008591Y018383D02*
X009811Y018383D01*
X012000Y017814D02*
X013457Y016357D01*
X013457Y012247D01*
X012670Y011459D01*
X012670Y010239D01*
X013060Y010207D02*
X019786Y010207D01*
X019786Y010109D02*
X013060Y010109D01*
X013060Y010010D02*
X019786Y010010D01*
X019786Y009912D02*
X012999Y009912D01*
X013060Y010306D02*
X019786Y010306D01*
X019786Y010404D02*
X013060Y010404D01*
X013060Y010503D02*
X019786Y010503D01*
X019786Y010601D02*
X012964Y010601D01*
X012930Y010700D02*
X019786Y010700D01*
X019786Y010798D02*
X012930Y010798D01*
X012930Y010897D02*
X013717Y010897D01*
X013618Y010995D02*
X012930Y010995D01*
X012930Y011094D02*
X013618Y011094D01*
X013618Y011192D02*
X012930Y011192D01*
X012930Y011291D02*
X013618Y011291D01*
X013618Y011389D02*
X012967Y011389D01*
X013066Y011488D02*
X013618Y011488D01*
X013675Y011586D02*
X013164Y011586D01*
X013263Y011685D02*
X013748Y011685D01*
X013748Y011783D02*
X013361Y011783D01*
X013460Y011882D02*
X013748Y011882D01*
X013748Y011980D02*
X013558Y011980D01*
X013657Y012079D02*
X013748Y012079D01*
X013748Y012177D02*
X013710Y012177D01*
X013717Y012276D02*
X013748Y012276D01*
X013748Y012374D02*
X013717Y012374D01*
X013717Y012473D02*
X013748Y012473D01*
X013748Y012571D02*
X013717Y012571D01*
X013717Y012670D02*
X013748Y012670D01*
X013748Y012768D02*
X013717Y012768D01*
X013717Y012867D02*
X013748Y012867D01*
X013748Y012965D02*
X013717Y012965D01*
X013717Y013064D02*
X013748Y013064D01*
X013748Y013162D02*
X013717Y013162D01*
X013717Y013261D02*
X013748Y013261D01*
X013748Y013359D02*
X013717Y013359D01*
X013717Y013458D02*
X013748Y013458D01*
X013748Y013556D02*
X013717Y013556D01*
X013717Y013655D02*
X013748Y013655D01*
X013748Y013753D02*
X013717Y013753D01*
X013717Y013852D02*
X013748Y013852D01*
X013748Y013950D02*
X013717Y013950D01*
X013717Y014049D02*
X013748Y014049D01*
X013748Y014147D02*
X013717Y014147D01*
X013717Y014246D02*
X013748Y014246D01*
X013748Y014344D02*
X013717Y014344D01*
X013717Y014443D02*
X013748Y014443D01*
X013748Y014541D02*
X013717Y014541D01*
X013717Y014640D02*
X013748Y014640D01*
X013748Y014738D02*
X013717Y014738D01*
X013717Y014837D02*
X013756Y014837D01*
X013717Y014935D02*
X013809Y014935D01*
X013717Y015034D02*
X013908Y015034D01*
X014006Y015132D02*
X013717Y015132D01*
X013717Y015231D02*
X014105Y015231D01*
X014203Y015329D02*
X013717Y015329D01*
X013717Y015428D02*
X014302Y015428D01*
X014400Y015526D02*
X013717Y015526D01*
X013717Y015625D02*
X014499Y015625D01*
X014597Y015723D02*
X013717Y015723D01*
X013717Y015822D02*
X014696Y015822D01*
X014794Y015920D02*
X013717Y015920D01*
X013717Y016019D02*
X014893Y016019D01*
X014991Y016117D02*
X013717Y016117D01*
X013717Y016216D02*
X015090Y016216D01*
X015188Y016314D02*
X013717Y016314D01*
X014953Y016853D02*
X014953Y016892D01*
X013181Y018664D01*
X015262Y017201D02*
X015785Y017201D01*
X015705Y017102D02*
X015343Y017102D01*
X015343Y017004D02*
X015705Y017004D01*
X015705Y016905D02*
X015343Y016905D01*
X015628Y016019D02*
X019047Y016019D01*
X018980Y015920D02*
X015530Y015920D01*
X015431Y015822D02*
X018531Y015822D01*
X018411Y015723D02*
X015333Y015723D01*
X015234Y015625D02*
X018313Y015625D01*
X018218Y015526D02*
X015136Y015526D01*
X015037Y015428D02*
X018182Y015428D01*
X018188Y015329D02*
X014939Y015329D01*
X014840Y015231D02*
X018240Y015231D01*
X018321Y015132D02*
X014742Y015132D01*
X014643Y015034D02*
X018083Y015034D01*
X017972Y014935D02*
X014545Y014935D01*
X014446Y014837D02*
X017938Y014837D01*
X017941Y014738D02*
X014348Y014738D01*
X014268Y014640D02*
X017941Y014640D01*
X017941Y014541D02*
X014268Y014541D01*
X014268Y014443D02*
X017952Y014443D01*
X018012Y014344D02*
X014268Y014344D01*
X014268Y014246D02*
X018362Y014246D01*
X018281Y014147D02*
X014268Y014147D01*
X014268Y014049D02*
X018205Y014049D01*
X018180Y013950D02*
X014268Y013950D01*
X014268Y013852D02*
X018194Y013852D01*
X018262Y013753D02*
X014268Y013753D01*
X014268Y013655D02*
X018361Y013655D01*
X018458Y013556D02*
X014268Y013556D01*
X013197Y012965D02*
X010922Y012965D01*
X010922Y012867D02*
X013197Y012867D01*
X013197Y012768D02*
X010922Y012768D01*
X010922Y012670D02*
X013197Y012670D01*
X013197Y012571D02*
X010922Y012571D01*
X010922Y012473D02*
X013197Y012473D01*
X013197Y012374D02*
X010922Y012374D01*
X010922Y012276D02*
X013118Y012276D01*
X013020Y012177D02*
X010922Y012177D01*
X010922Y012079D02*
X012921Y012079D01*
X012823Y011980D02*
X010922Y011980D01*
X010922Y011882D02*
X012724Y011882D01*
X012626Y011783D02*
X010922Y011783D01*
X010922Y011685D02*
X012527Y011685D01*
X012441Y011586D02*
X010922Y011586D01*
X010936Y011488D02*
X012410Y011488D01*
X012410Y011389D02*
X011034Y011389D01*
X011052Y011291D02*
X012410Y011291D01*
X012410Y011192D02*
X011052Y011192D01*
X011052Y011094D02*
X012410Y011094D01*
X012410Y010995D02*
X011052Y010995D01*
X011052Y010897D02*
X012410Y010897D01*
X012410Y010798D02*
X011012Y010798D01*
X010962Y010700D02*
X012410Y010700D01*
X012375Y010601D02*
X011061Y010601D01*
X011159Y010503D02*
X012280Y010503D01*
X012280Y010404D02*
X011258Y010404D01*
X011356Y010306D02*
X012280Y010306D01*
X012280Y010207D02*
X011455Y010207D01*
X011553Y010109D02*
X012280Y010109D01*
X012280Y010010D02*
X011652Y010010D01*
X011750Y009912D02*
X012340Y009912D01*
X012046Y009616D02*
X019786Y009616D01*
X019786Y009518D02*
X012144Y009518D01*
X012243Y009419D02*
X019786Y009419D01*
X019778Y009321D02*
X012341Y009321D01*
X012440Y009222D02*
X019730Y009222D01*
X019716Y009124D02*
X012538Y009124D01*
X012637Y009025D02*
X019716Y009025D01*
X019986Y009160D02*
X020106Y009040D01*
X019786Y009715D02*
X011947Y009715D01*
X011849Y009813D02*
X019786Y009813D01*
X020817Y013064D02*
X021735Y013064D01*
X019912Y013556D02*
X018813Y013556D01*
X018933Y013655D02*
X019792Y013655D01*
X019481Y013753D02*
X019244Y013753D01*
X019296Y013852D02*
X019429Y013852D01*
X019462Y013772D02*
X019462Y013772D01*
X019462Y013772D01*
X019388Y013950D02*
X019337Y013950D01*
X020404Y015132D02*
X021786Y015132D01*
X022306Y015625D02*
X022711Y015625D01*
X022612Y015723D02*
X022379Y015723D01*
X022477Y015822D02*
X022537Y015822D01*
X023355Y016610D02*
X023625Y016610D01*
X023542Y016511D02*
X023465Y016511D01*
X024379Y015723D02*
X024612Y015723D01*
X024537Y015822D02*
X024477Y015822D01*
X024346Y015625D02*
X024711Y015625D01*
X024346Y015526D02*
X031596Y015526D01*
X031596Y015428D02*
X024346Y015428D01*
X024346Y015329D02*
X031596Y015329D01*
X031596Y015231D02*
X024346Y015231D01*
X025380Y015625D02*
X031596Y015625D01*
X031596Y015723D02*
X025479Y015723D01*
X024346Y014147D02*
X031596Y014147D01*
X031596Y014049D02*
X024346Y014049D01*
X018956Y015723D02*
X018872Y015723D01*
X018966Y015822D02*
X018747Y015822D01*
X013377Y008927D02*
X012735Y008927D01*
X020535Y005085D02*
X021056Y005085D01*
X020957Y004987D02*
X020634Y004987D01*
X020732Y004888D02*
X020859Y004888D01*
X022147Y005676D02*
X022786Y005676D01*
X022786Y005578D02*
X022246Y005578D01*
X022344Y005479D02*
X022786Y005479D01*
X022786Y005381D02*
X022443Y005381D01*
X022526Y005282D02*
X022786Y005282D01*
X022786Y005184D02*
X022556Y005184D01*
X022556Y005085D02*
X022786Y005085D01*
X022715Y004987D02*
X022556Y004987D01*
X022556Y004888D02*
X022656Y004888D01*
X022656Y004790D02*
X022556Y004790D01*
X022556Y004691D02*
X022656Y004691D01*
X022656Y004593D02*
X022556Y004593D01*
X022556Y004494D02*
X022656Y004494D01*
X022656Y004396D02*
X022556Y004396D01*
X022556Y004297D02*
X022752Y004297D01*
X022556Y004199D02*
X023466Y004199D01*
X023565Y004297D02*
X023340Y004297D01*
X023436Y004396D02*
X023663Y004396D01*
X023762Y004494D02*
X023436Y004494D01*
X023436Y004593D02*
X023860Y004593D01*
X023368Y004100D02*
X022556Y004100D01*
X022572Y004002D02*
X023269Y004002D01*
X024631Y002820D02*
X019615Y002820D01*
X019517Y002721D02*
X024436Y002721D01*
X024338Y002623D02*
X020780Y002623D01*
X020831Y002572D02*
X020707Y002695D01*
X019884Y002695D01*
X019761Y002572D01*
X019761Y001748D01*
X019884Y001625D01*
X020707Y001625D01*
X020831Y001748D01*
X020831Y002572D01*
X020831Y002524D02*
X024277Y002524D01*
X024236Y002426D02*
X020831Y002426D01*
X020831Y002327D02*
X024216Y002327D01*
X024216Y002229D02*
X020831Y002229D01*
X020831Y002130D02*
X024222Y002130D01*
X024262Y002032D02*
X020831Y002032D01*
X020831Y001933D02*
X024303Y001933D01*
X024401Y001835D02*
X020831Y001835D01*
X020819Y001736D02*
X024545Y001736D01*
X025046Y001736D02*
X025399Y001736D01*
X025303Y001835D02*
X025190Y001835D01*
X025541Y001638D02*
X020720Y001638D01*
X019871Y001638D02*
X018395Y001638D01*
X018532Y001736D02*
X019773Y001736D01*
X019761Y001835D02*
X018630Y001835D01*
X018541Y001746D02*
X018541Y001746D01*
X018729Y001933D02*
X019761Y001933D01*
X019761Y002032D02*
X018827Y002032D01*
X018926Y002130D02*
X019761Y002130D01*
X019761Y002229D02*
X019024Y002229D01*
X019123Y002327D02*
X019761Y002327D01*
X019761Y002426D02*
X019221Y002426D01*
X019320Y002524D02*
X019761Y002524D01*
X019811Y002623D02*
X019418Y002623D01*
X018598Y002623D02*
X016165Y002623D01*
X016067Y002524D02*
X018499Y002524D01*
X018401Y002426D02*
X012507Y002426D01*
X012409Y002524D02*
X015525Y002524D01*
X015426Y002623D02*
X012310Y002623D01*
X012212Y002721D02*
X015406Y002721D01*
X015406Y002820D02*
X012113Y002820D01*
X012015Y002918D02*
X015406Y002918D01*
X015406Y003017D02*
X011916Y003017D01*
X011818Y003115D02*
X015406Y003115D01*
X015442Y003214D02*
X011719Y003214D01*
X011588Y002524D02*
X001021Y002524D01*
X001021Y002426D02*
X011687Y002426D01*
X011785Y002327D02*
X001021Y002327D01*
X001021Y002229D02*
X011884Y002229D01*
X011982Y002130D02*
X001021Y002130D01*
X001021Y002032D02*
X012081Y002032D01*
X012179Y001933D02*
X001021Y001933D01*
X001021Y001835D02*
X012278Y001835D01*
X012376Y001736D02*
X001021Y001736D01*
X001021Y001638D02*
X012512Y001638D01*
X012704Y002229D02*
X018204Y002229D01*
X018302Y002327D02*
X012606Y002327D01*
X021601Y006169D02*
X022786Y006169D01*
X022786Y006070D02*
X021753Y006070D01*
X021852Y005972D02*
X022786Y005972D01*
X022786Y005873D02*
X021950Y005873D01*
X022049Y005775D02*
X022786Y005775D01*
X024960Y002820D02*
X026631Y002820D01*
X026436Y002721D02*
X025957Y002721D01*
X026153Y002623D02*
X026338Y002623D01*
X026277Y002524D02*
X026252Y002524D01*
X025634Y002721D02*
X025155Y002721D01*
X025253Y002623D02*
X025438Y002623D01*
X025339Y002524D02*
X025314Y002524D01*
X026288Y001835D02*
X026401Y001835D01*
X026545Y001736D02*
X026192Y001736D01*
X026050Y001638D02*
X029541Y001638D01*
X029399Y001736D02*
X029046Y001736D01*
X029190Y001835D02*
X029303Y001835D01*
X028545Y001736D02*
X027046Y001736D01*
X027190Y001835D02*
X028401Y001835D01*
X028303Y001933D02*
X027288Y001933D01*
X027329Y002032D02*
X028262Y002032D01*
X028222Y002130D02*
X027369Y002130D01*
X027376Y002229D02*
X028216Y002229D01*
X028216Y002327D02*
X027376Y002327D01*
X027355Y002426D02*
X028236Y002426D01*
X028277Y002524D02*
X027314Y002524D01*
X027253Y002623D02*
X028338Y002623D01*
X029957Y002721D02*
X031596Y002721D01*
X031596Y002623D02*
X030153Y002623D01*
X030252Y002524D02*
X031596Y002524D01*
X031596Y002426D02*
X030313Y002426D01*
X030354Y002327D02*
X031596Y002327D01*
X031596Y002229D02*
X030376Y002229D01*
X030376Y002130D02*
X031596Y002130D01*
X031596Y002032D02*
X030370Y002032D01*
X030329Y001933D02*
X031596Y001933D01*
X031596Y001835D02*
X030288Y001835D01*
X030192Y001736D02*
X031596Y001736D01*
X031596Y001638D02*
X030050Y001638D01*
X031596Y001539D02*
X001021Y001539D01*
X001021Y001441D02*
X031596Y001441D01*
X031596Y001342D02*
X001021Y001342D01*
X001021Y001244D02*
X031596Y001244D01*
X031596Y001145D02*
X001021Y001145D01*
X001021Y001047D02*
X031596Y001047D01*
X031596Y000948D02*
X001021Y000948D01*
X001021Y000850D02*
X031596Y000850D01*
X031596Y000751D02*
X001021Y000751D01*
X001021Y000653D02*
X031596Y000653D01*
X022296Y001910D02*
X022046Y001660D01*
X022296Y001910D02*
X022296Y002160D01*
X003418Y011302D02*
X003418Y012640D01*
X003339Y012719D01*
X002949Y004100D02*
X001021Y004100D01*
X001021Y004002D02*
X002949Y004002D01*
D18*
X003339Y004254D02*
X003339Y005711D01*
X003103Y005947D01*
X007473Y005475D02*
X007473Y003782D01*
X006607Y002916D01*
D19*
X001488Y004884D03*
X001370Y010396D03*
X001488Y014727D03*
D20*
X020106Y009040D03*
D21*
X021046Y004660D02*
X021296Y004660D01*
X021046Y004660D02*
X018296Y001910D01*
X012612Y001910D01*
X007670Y006853D01*
X003772Y006853D01*
X002512Y008113D01*
X002670Y008270D01*
X002670Y009215D01*
X003536Y010081D01*
X005583Y010081D01*
D22*
X018190Y014520D02*
X018190Y014808D01*
X018571Y014847D01*
X018674Y015094D02*
X018432Y015391D01*
X018635Y015595D01*
X018932Y015353D01*
X019180Y015455D02*
X019219Y015836D01*
X019506Y015836D01*
X019545Y015455D01*
X019793Y015353D02*
X020090Y015595D01*
X020293Y015391D01*
X020051Y015094D01*
X020154Y014847D02*
X020535Y014808D01*
X020535Y014520D01*
X020154Y014481D01*
X020051Y014234D02*
X020293Y013937D01*
X020090Y013733D01*
X019793Y013975D01*
X019673Y013914D02*
X019504Y014323D01*
X019221Y014323D02*
X019052Y013914D01*
X018932Y013975D02*
X018635Y013733D01*
X018432Y013937D01*
X018674Y014234D01*
X018571Y014481D02*
X018190Y014520D01*
X018932Y013975D02*
X018970Y013953D01*
X019010Y013932D01*
X019051Y013914D01*
X020051Y014234D02*
X020078Y014280D01*
X020101Y014329D01*
X020122Y014378D01*
X020139Y014429D01*
X020153Y014481D01*
X019792Y013975D02*
X019754Y013953D01*
X019714Y013932D01*
X019673Y013914D01*
X018673Y014234D02*
X018646Y014280D01*
X018623Y014329D01*
X018602Y014378D01*
X018585Y014429D01*
X018571Y014481D01*
X018932Y015353D02*
X018978Y015380D01*
X019027Y015403D01*
X019076Y015424D01*
X019127Y015441D01*
X019179Y015455D01*
X020051Y015094D02*
X020078Y015048D01*
X020101Y014999D01*
X020122Y014950D01*
X020139Y014899D01*
X020153Y014847D01*
X019792Y015353D02*
X019746Y015380D01*
X019697Y015403D01*
X019648Y015424D01*
X019597Y015441D01*
X019545Y015455D01*
X018673Y015094D02*
X018646Y015048D01*
X018623Y014999D01*
X018602Y014950D01*
X018585Y014899D01*
X018571Y014847D01*
X019221Y014323D02*
X019187Y014339D01*
X019154Y014359D01*
X019124Y014382D01*
X019096Y014408D01*
X019071Y014437D01*
X019050Y014468D01*
X019031Y014501D01*
X019016Y014536D01*
X019005Y014572D01*
X018997Y014609D01*
X018993Y014647D01*
X018994Y014685D01*
X018998Y014722D01*
X019006Y014760D01*
X019017Y014796D01*
X019033Y014830D01*
X019051Y014863D01*
X019074Y014894D01*
X019099Y014922D01*
X019127Y014948D01*
X019157Y014971D01*
X019190Y014990D01*
X019224Y015006D01*
X019260Y015019D01*
X019297Y015027D01*
X019334Y015032D01*
X019372Y015033D01*
X019410Y015030D01*
X019447Y015023D01*
X019484Y015012D01*
X019519Y014998D01*
X019552Y014980D01*
X019584Y014959D01*
X019613Y014934D01*
X019639Y014907D01*
X019663Y014878D01*
X019683Y014846D01*
X019700Y014812D01*
X019714Y014776D01*
X019723Y014739D01*
X019729Y014702D01*
X019731Y014664D01*
X019729Y014628D01*
X019724Y014592D01*
X019715Y014557D01*
X019703Y014523D01*
X019687Y014490D01*
X019669Y014459D01*
X019647Y014430D01*
X019623Y014403D01*
X019596Y014379D01*
X019567Y014357D01*
X019536Y014339D01*
X019503Y014323D01*
M02*
