%
M48
M72
T01C0.0236
T02C0.0276
T03C0.0320
T04C0.0400
T05C0.0472
%
T01
X2740Y3460
X4740Y6960
X6160Y8170
X4990Y9210
X2490Y9960
X6060Y13880
X3240Y16460
X4130Y17550
X2990Y18390
X1240Y18640
X1240Y17890
X1240Y19390
X6990Y17710
X7490Y20460
X9740Y20210
X11990Y17710
X13240Y19460
X16740Y18960
X17240Y15960
X16740Y15210
X17990Y15960
X13740Y10210
X13140Y7000
X14990Y5960
X14990Y5210
X13740Y3960
X12240Y1460
X6990Y2210
X9370Y12150
T02
X2490Y11960
X2490Y10960
T03
X4990Y10960
X5740Y11460
X4990Y11960
T04
X2490Y2460
X2590Y3460
X2490Y4460
X2590Y5460
X2490Y6460
X2590Y7460
X1490Y20710
X1490Y21710
X1490Y22710
X12740Y21960
X13740Y21960
X14740Y21960
X15740Y21960
X16740Y21960
X17740Y21960
X16540Y10210
X16440Y9210
X16540Y8210
X16440Y7210
T05
X16816Y24710
X15368Y24710
X13920Y24710
M30
