%
M48
M72
T01C0.0236
T02C0.0276
T03C0.0320
T04C0.0400
T05C0.0512
%
T01
X4840Y910
X5590Y910
X6340Y910
X5840Y2660
X6680Y3800
X7770Y2910
X10350Y5730
X8583Y8247
X8583Y8857
X8583Y9467
X6520Y11660
X4770Y12910
X5248Y15174
X5264Y17174
X8270Y16910
X9020Y16410
X8270Y17660
X14020Y13410
X17230Y12810
X18270Y14660
X19020Y14660
X20270Y13410
X22770Y11910
X20797Y8691
X22020Y6660
X17270Y4410
X16060Y5830
X15020Y4660
X14270Y2160
X6520Y6660
X3770Y7160
X4020Y9410
X2024Y4652
X12080Y9040
T02
X12270Y2160
X13270Y2160
T03
X13270Y4660
X12770Y5410
X12270Y4660
T04
X1520Y1160
X2520Y1160
X3520Y1160
X16770Y2260
X17770Y2160
X18770Y2260
X19770Y2160
X20770Y2260
X21770Y2160
X17020Y16110
X16020Y16210
X15020Y16110
X14020Y16210
X3845Y16597
X3845Y15597
X3845Y14597
X3845Y13597
X3845Y17597
X3845Y18597
T05
X1794Y16804
X1794Y14835
X1794Y12867
M30
