G75*
G70*
%OFA0B0*%
%FSLAX24Y24*%
%IPPOS*%
%LPD*%
%AMOC8*
5,1,8,0,0,1.08239X$1,22.5*
%
%ADD10R,0.0740X0.0190*%
%ADD11R,0.0190X0.0740*%
%ADD12R,0.0470X0.0220*%
%ADD13R,0.0220X0.0470*%
%ADD14R,0.1320X0.1320*%
%ADD15R,0.0552X0.0395*%
%ADD16R,0.0730X0.0730*%
%ADD17C,0.0730*%
%ADD18R,0.0395X0.0552*%
%ADD19R,0.0880X0.0880*%
%ADD20C,0.0880*%
%ADD21C,0.0820*%
%ADD22OC8,0.0600*%
%ADD23R,0.0660X0.0170*%
%ADD24R,0.0170X0.0660*%
%ADD25R,0.0710X0.0789*%
%ADD26R,0.0476X0.0476*%
%ADD27OC8,0.0476*%
D10*
X007280Y013980D03*
X007280Y014180D03*
X007280Y014380D03*
X007280Y014570D03*
X007280Y014770D03*
X007280Y014970D03*
X007280Y015160D03*
X007280Y015360D03*
X007280Y015560D03*
X007280Y015760D03*
X007280Y015950D03*
X007280Y016150D03*
X007280Y016350D03*
X007280Y016540D03*
X007280Y016740D03*
X007280Y016940D03*
X011700Y016940D03*
X011700Y016740D03*
X011700Y016540D03*
X011700Y016350D03*
X011700Y016150D03*
X011700Y015950D03*
X011700Y015760D03*
X011700Y015560D03*
X011700Y015360D03*
X011700Y015160D03*
X011700Y014970D03*
X011700Y014770D03*
X011700Y014570D03*
X011700Y014380D03*
X011700Y014180D03*
X011700Y013980D03*
D11*
X010970Y013250D03*
X010770Y013250D03*
X010570Y013250D03*
X010380Y013250D03*
X010180Y013250D03*
X009980Y013250D03*
X009790Y013250D03*
X009590Y013250D03*
X009390Y013250D03*
X009190Y013250D03*
X009000Y013250D03*
X008800Y013250D03*
X008600Y013250D03*
X008410Y013250D03*
X008210Y013250D03*
X008010Y013250D03*
X008010Y017670D03*
X008210Y017670D03*
X008410Y017670D03*
X008600Y017670D03*
X008800Y017670D03*
X009000Y017670D03*
X009190Y017670D03*
X009390Y017670D03*
X009590Y017670D03*
X009790Y017670D03*
X009980Y017670D03*
X010180Y017670D03*
X010380Y017670D03*
X010570Y017670D03*
X010770Y017670D03*
X010970Y017670D03*
D12*
X005930Y021700D03*
X005930Y021950D03*
X005930Y022210D03*
X005930Y022470D03*
X005930Y022720D03*
X004050Y022720D03*
X004050Y022470D03*
X004050Y022210D03*
X004050Y021950D03*
X004050Y021700D03*
D13*
X004480Y021270D03*
X004730Y021270D03*
X004990Y021270D03*
X005250Y021270D03*
X005500Y021270D03*
X005500Y023150D03*
X005250Y023150D03*
X004990Y023150D03*
X004730Y023150D03*
X004480Y023150D03*
D14*
X004990Y022210D03*
D15*
X003170Y022086D03*
X003170Y022794D03*
X007090Y019764D03*
X007090Y019056D03*
X007940Y019056D03*
X007940Y019764D03*
X009290Y019764D03*
X009290Y019056D03*
X010090Y019056D03*
X010090Y019764D03*
X011130Y019546D03*
X011130Y020254D03*
X011770Y020254D03*
X011770Y019546D03*
X010250Y021916D03*
X010250Y022624D03*
X009520Y022624D03*
X009520Y021916D03*
X008780Y021916D03*
X008780Y022624D03*
X008060Y022624D03*
X008060Y021916D03*
X007300Y021916D03*
X007300Y022624D03*
X014700Y016884D03*
X014700Y016176D03*
X015010Y011274D03*
X015010Y010566D03*
X009580Y004154D03*
X009580Y003446D03*
X008480Y003466D03*
X008480Y004174D03*
X003740Y006856D03*
X003740Y007564D03*
X003740Y008106D03*
X003740Y008814D03*
D16*
X002490Y011960D03*
D17*
X002490Y010960D03*
D18*
X003636Y009960D03*
X004344Y009960D03*
X004216Y008140D03*
X004924Y008140D03*
X005696Y007040D03*
X006404Y007040D03*
X006424Y009440D03*
X005716Y009440D03*
X005444Y013910D03*
X004736Y013910D03*
X004444Y015740D03*
X004986Y016370D03*
X004986Y017010D03*
X005694Y017010D03*
X005694Y016370D03*
X005694Y017910D03*
X005694Y018560D03*
X004986Y018560D03*
X004986Y017910D03*
X003736Y015740D03*
X004766Y020240D03*
X005474Y020240D03*
X012886Y020960D03*
X013594Y020960D03*
X014886Y020960D03*
X015594Y020960D03*
X016886Y020960D03*
X017594Y020960D03*
X013844Y018560D03*
X013844Y017910D03*
X013136Y017910D03*
X013136Y018560D03*
X013136Y016610D03*
X013844Y016610D03*
X014004Y007560D03*
X013296Y007560D03*
X013286Y006450D03*
X013994Y006450D03*
X012524Y003720D03*
X011816Y003720D03*
X006344Y004460D03*
X005636Y004460D03*
X005094Y004460D03*
X004386Y004460D03*
D19*
X013920Y024710D03*
D20*
X015368Y024710D03*
X016816Y024710D03*
D21*
X002490Y002460D03*
X002590Y003460D03*
X002490Y004460D03*
X002590Y005460D03*
X002490Y006460D03*
X002590Y007460D03*
X001490Y020710D03*
X001490Y021710D03*
X001490Y022710D03*
X012740Y021960D03*
X013740Y021960D03*
X014740Y021960D03*
X015740Y021960D03*
X016740Y021960D03*
X017740Y021960D03*
X016540Y010210D03*
X016440Y009210D03*
X016540Y008210D03*
X016440Y007210D03*
D22*
X005740Y011460D03*
X004990Y010960D03*
X004990Y011960D03*
D23*
X007140Y009600D03*
X007140Y009440D03*
X007140Y009280D03*
X007140Y009130D03*
X007140Y008970D03*
X007140Y008810D03*
X007140Y008650D03*
X007140Y008500D03*
X007140Y008340D03*
X007140Y008180D03*
X007140Y008020D03*
X007140Y007870D03*
X007140Y007710D03*
X007140Y007550D03*
X007140Y007400D03*
X007140Y007240D03*
X007140Y007080D03*
X007140Y006920D03*
X007140Y006770D03*
X007140Y006610D03*
X007140Y006450D03*
X007140Y006290D03*
X007140Y006140D03*
X007140Y005980D03*
X007140Y005820D03*
X012340Y005820D03*
X012340Y005980D03*
X012340Y006140D03*
X012340Y006290D03*
X012340Y006450D03*
X012340Y006610D03*
X012340Y006770D03*
X012340Y006920D03*
X012340Y007080D03*
X012340Y007240D03*
X012340Y007400D03*
X012340Y007550D03*
X012340Y007710D03*
X012340Y007870D03*
X012340Y008020D03*
X012340Y008180D03*
X012340Y008340D03*
X012340Y008500D03*
X012340Y008650D03*
X012340Y008810D03*
X012340Y008970D03*
X012340Y009130D03*
X012340Y009280D03*
X012340Y009440D03*
X012340Y009600D03*
D24*
X011630Y010310D03*
X011470Y010310D03*
X011310Y010310D03*
X011160Y010310D03*
X011000Y010310D03*
X010840Y010310D03*
X010680Y010310D03*
X010530Y010310D03*
X010370Y010310D03*
X010210Y010310D03*
X010050Y010310D03*
X009900Y010310D03*
X009740Y010310D03*
X009580Y010310D03*
X009430Y010310D03*
X009270Y010310D03*
X009110Y010310D03*
X008950Y010310D03*
X008800Y010310D03*
X008640Y010310D03*
X008480Y010310D03*
X008320Y010310D03*
X008170Y010310D03*
X008010Y010310D03*
X007850Y010310D03*
X007850Y005110D03*
X008010Y005110D03*
X008170Y005110D03*
X008320Y005110D03*
X008480Y005110D03*
X008640Y005110D03*
X008800Y005110D03*
X008950Y005110D03*
X009110Y005110D03*
X009270Y005110D03*
X009430Y005110D03*
X009580Y005110D03*
X009740Y005110D03*
X009900Y005110D03*
X010050Y005110D03*
X010210Y005110D03*
X010370Y005110D03*
X010530Y005110D03*
X010680Y005110D03*
X010840Y005110D03*
X011000Y005110D03*
X011160Y005110D03*
X011310Y005110D03*
X011470Y005110D03*
X011630Y005110D03*
D25*
X012939Y010960D03*
X014041Y010960D03*
D26*
X013740Y010210D03*
X016740Y015210D03*
X017240Y015960D03*
X017990Y015960D03*
X016740Y018960D03*
X013240Y019460D03*
X011990Y017710D03*
X009740Y020210D03*
X007490Y020460D03*
X006990Y017710D03*
X006060Y013880D03*
X003240Y016460D03*
X004130Y017550D03*
X002990Y018390D03*
X001240Y018640D03*
X001240Y017890D03*
X001240Y019390D03*
X002490Y009960D03*
X004740Y006960D03*
X006160Y008170D03*
X004990Y009210D03*
X002740Y003460D03*
X006990Y002210D03*
X012240Y001460D03*
X013740Y003960D03*
D27*
X009370Y012150D03*
M02*
