G75*
%MOIN*%
%OFA0B0*%
%FSLAX24Y24*%
%IPPOS*%
%LPD*%
%AMOC8*
5,1,8,0,0,1.08239X$1,22.5*
%
%ADD10C,0.0000*%
D10*
X001015Y001199D02*
X018175Y001199D01*
X018175Y001200D02*
X018206Y001202D01*
X018237Y001207D01*
X018267Y001216D01*
X018296Y001228D01*
X018323Y001243D01*
X018348Y001261D01*
X018372Y001281D01*
X018392Y001305D01*
X018410Y001330D01*
X018425Y001357D01*
X018437Y001386D01*
X018446Y001416D01*
X018451Y001447D01*
X018453Y001478D01*
X018453Y015291D01*
X018451Y015322D01*
X018446Y015353D01*
X018437Y015383D01*
X018425Y015412D01*
X018410Y015439D01*
X018392Y015464D01*
X018372Y015488D01*
X018348Y015508D01*
X018323Y015526D01*
X018296Y015541D01*
X018267Y015553D01*
X018237Y015562D01*
X018206Y015567D01*
X018175Y015569D01*
X018175Y015570D02*
X001015Y015570D01*
X001015Y015569D02*
X000984Y015567D01*
X000953Y015562D01*
X000923Y015553D01*
X000894Y015541D01*
X000867Y015526D01*
X000842Y015508D01*
X000818Y015488D01*
X000798Y015464D01*
X000780Y015439D01*
X000765Y015412D01*
X000753Y015383D01*
X000744Y015353D01*
X000739Y015322D01*
X000737Y015291D01*
X000737Y001478D01*
X000739Y001447D01*
X000744Y001416D01*
X000753Y001386D01*
X000765Y001357D01*
X000780Y001330D01*
X000798Y001305D01*
X000818Y001281D01*
X000842Y001261D01*
X000867Y001243D01*
X000894Y001228D01*
X000923Y001216D01*
X000953Y001207D01*
X000984Y001202D01*
X001015Y001200D01*
X011151Y013404D02*
X011153Y013430D01*
X011159Y013456D01*
X011169Y013481D01*
X011182Y013504D01*
X011198Y013524D01*
X011218Y013542D01*
X011240Y013557D01*
X011263Y013569D01*
X011289Y013577D01*
X011315Y013581D01*
X011341Y013581D01*
X011367Y013577D01*
X011393Y013569D01*
X011417Y013557D01*
X011438Y013542D01*
X011458Y013524D01*
X011474Y013504D01*
X011487Y013481D01*
X011497Y013456D01*
X011503Y013430D01*
X011505Y013404D01*
X011503Y013378D01*
X011497Y013352D01*
X011487Y013327D01*
X011474Y013304D01*
X011458Y013284D01*
X011438Y013266D01*
X011416Y013251D01*
X011393Y013239D01*
X011367Y013231D01*
X011341Y013227D01*
X011315Y013227D01*
X011289Y013231D01*
X011263Y013239D01*
X011239Y013251D01*
X011218Y013266D01*
X011198Y013284D01*
X011182Y013304D01*
X011169Y013327D01*
X011159Y013352D01*
X011153Y013378D01*
X011151Y013404D01*
X015991Y013404D02*
X015993Y013427D01*
X015999Y013450D01*
X016009Y013471D01*
X016022Y013491D01*
X016038Y013508D01*
X016057Y013522D01*
X016078Y013532D01*
X016100Y013539D01*
X016123Y013542D01*
X016147Y013541D01*
X016169Y013536D01*
X016191Y013527D01*
X016211Y013515D01*
X016229Y013499D01*
X016243Y013481D01*
X016255Y013461D01*
X016263Y013439D01*
X016267Y013416D01*
X016267Y013392D01*
X016263Y013369D01*
X016255Y013347D01*
X016243Y013327D01*
X016229Y013309D01*
X016211Y013293D01*
X016191Y013281D01*
X016169Y013272D01*
X016147Y013267D01*
X016123Y013266D01*
X016100Y013269D01*
X016078Y013276D01*
X016057Y013286D01*
X016038Y013300D01*
X016022Y013317D01*
X016009Y013337D01*
X015999Y013358D01*
X015993Y013381D01*
X015991Y013404D01*
X016642Y002381D02*
X016644Y002431D01*
X016650Y002481D01*
X016660Y002530D01*
X016674Y002578D01*
X016691Y002625D01*
X016712Y002670D01*
X016737Y002714D01*
X016765Y002755D01*
X016797Y002794D01*
X016831Y002831D01*
X016868Y002865D01*
X016908Y002895D01*
X016950Y002922D01*
X016994Y002946D01*
X017040Y002967D01*
X017087Y002983D01*
X017135Y002996D01*
X017185Y003005D01*
X017234Y003010D01*
X017285Y003011D01*
X017335Y003008D01*
X017384Y003001D01*
X017433Y002990D01*
X017481Y002975D01*
X017527Y002957D01*
X017572Y002935D01*
X017615Y002909D01*
X017656Y002880D01*
X017695Y002848D01*
X017731Y002813D01*
X017763Y002775D01*
X017793Y002735D01*
X017820Y002692D01*
X017843Y002648D01*
X017862Y002602D01*
X017878Y002554D01*
X017890Y002505D01*
X017898Y002456D01*
X017902Y002406D01*
X017902Y002356D01*
X017898Y002306D01*
X017890Y002257D01*
X017878Y002208D01*
X017862Y002160D01*
X017843Y002114D01*
X017820Y002070D01*
X017793Y002027D01*
X017763Y001987D01*
X017731Y001949D01*
X017695Y001914D01*
X017656Y001882D01*
X017615Y001853D01*
X017572Y001827D01*
X017527Y001805D01*
X017481Y001787D01*
X017433Y001772D01*
X017384Y001761D01*
X017335Y001754D01*
X017285Y001751D01*
X017234Y001752D01*
X017185Y001757D01*
X017135Y001766D01*
X017087Y001779D01*
X017040Y001795D01*
X016994Y001816D01*
X016950Y001840D01*
X016908Y001867D01*
X016868Y001897D01*
X016831Y001931D01*
X016797Y001968D01*
X016765Y002007D01*
X016737Y002048D01*
X016712Y002092D01*
X016691Y002137D01*
X016674Y002184D01*
X016660Y002232D01*
X016650Y002281D01*
X016644Y002331D01*
X016642Y002381D01*
M02*
