G75*
%MOIN*%
%OFA0B0*%
%FSLAX24Y24*%
%IPPOS*%
%LPD*%
%AMOC8*
5,1,8,0,0,1.08239X$1,22.5*
%
%ADD10R,0.0011X0.0069*%
%ADD11R,0.0011X0.0080*%
%ADD12R,0.0011X0.0218*%
%ADD13R,0.0011X0.0310*%
%ADD14R,0.0011X0.0380*%
%ADD15R,0.0012X0.0425*%
%ADD16R,0.0011X0.0471*%
%ADD17R,0.0011X0.0517*%
%ADD18R,0.0011X0.0092*%
%ADD19R,0.0011X0.0563*%
%ADD20R,0.0011X0.0161*%
%ADD21R,0.0011X0.0586*%
%ADD22R,0.0011X0.0782*%
%ADD23R,0.0012X0.0816*%
%ADD24R,0.0011X0.0655*%
%ADD25R,0.0011X0.0851*%
%ADD26R,0.0011X0.0678*%
%ADD27R,0.0011X0.0862*%
%ADD28R,0.0011X0.0288*%
%ADD29R,0.0011X0.0448*%
%ADD30R,0.0011X0.0241*%
%ADD31R,0.0011X0.0253*%
%ADD32R,0.0011X0.0391*%
%ADD33R,0.0012X0.0230*%
%ADD34R,0.0012X0.0345*%
%ADD35R,0.0011X0.0207*%
%ADD36R,0.0011X0.0207*%
%ADD37R,0.0011X0.0299*%
%ADD38R,0.0011X0.0195*%
%ADD39R,0.0011X0.0184*%
%ADD40R,0.0012X0.0173*%
%ADD41R,0.0012X0.0195*%
%ADD42R,0.0012X0.0322*%
%ADD43R,0.0012X0.0184*%
%ADD44R,0.0011X0.0173*%
%ADD45R,0.0011X0.0230*%
%ADD46R,0.0011X0.0184*%
%ADD47R,0.0011X0.0092*%
%ADD48R,0.0012X0.0161*%
%ADD49R,0.0012X0.0092*%
%ADD50R,0.0011X0.0149*%
%ADD51R,0.0011X0.0150*%
%ADD52R,0.0011X0.0069*%
%ADD53R,0.0011X0.0046*%
%ADD54R,0.0012X0.0149*%
%ADD55R,0.0012X0.0023*%
%ADD56R,0.0012X0.0138*%
%ADD57R,0.0011X0.0138*%
%ADD58R,0.0011X0.0103*%
%ADD59R,0.0011X0.0057*%
%ADD60R,0.0011X0.0035*%
%ADD61R,0.0012X0.0103*%
%ADD62R,0.0012X0.0011*%
%ADD63R,0.0012X0.0127*%
%ADD64R,0.0012X0.0057*%
%ADD65R,0.0011X0.0127*%
%ADD66R,0.0011X0.0011*%
%ADD67R,0.0011X0.0023*%
%ADD68R,0.0012X0.0092*%
%ADD69R,0.0011X0.0115*%
%ADD70R,0.0011X0.0126*%
%ADD71R,0.0012X0.0126*%
%ADD72R,0.0011X0.0265*%
%ADD73R,0.0012X0.0150*%
%ADD74R,0.0012X0.0276*%
%ADD75R,0.0011X0.0322*%
%ADD76R,0.0011X0.0345*%
%ADD77R,0.0011X0.0368*%
%ADD78R,0.0012X0.0368*%
%ADD79R,0.0011X0.0379*%
%ADD80R,0.0012X0.0207*%
%ADD81R,0.0012X0.0207*%
%ADD82R,0.0012X0.0678*%
%ADD83R,0.0011X0.0621*%
%ADD84R,0.0011X0.0552*%
%ADD85R,0.0011X0.0552*%
%ADD86R,0.0012X0.0517*%
%ADD87R,0.0011X0.0425*%
%ADD88R,0.0012X0.0218*%
%ADD89R,0.0011X0.0437*%
%ADD90R,0.0012X0.0437*%
%ADD91R,0.0012X0.0080*%
%ADD92R,0.0012X0.0333*%
%ADD93R,0.0011X0.0356*%
%ADD94R,0.0011X0.0403*%
%ADD95R,0.0012X0.0115*%
%ADD96R,0.0012X0.0069*%
%ADD97R,0.0012X0.0391*%
%ADD98R,0.0011X0.0264*%
%ADD99R,0.0012X0.0288*%
%ADD100R,0.0012X0.0403*%
%ADD101R,0.0011X0.0299*%
%ADD102R,0.0011X0.0276*%
%ADD103R,0.0012X0.0069*%
%ADD104R,0.0011X0.0414*%
%ADD105R,0.0011X0.0333*%
%ADD106R,0.0011X0.0322*%
%ADD107R,0.0090X0.0580*%
%ADD108R,0.0580X0.0090*%
%ADD109R,0.0472X0.0315*%
%ADD110R,0.0315X0.0472*%
%ADD111C,0.0740*%
%ADD112R,0.0571X0.0106*%
%ADD113R,0.0106X0.0571*%
%ADD114R,0.0709X0.0472*%
%ADD115R,0.0472X0.0551*%
%ADD116R,0.0138X0.0472*%
%ADD117R,0.0630X0.0551*%
%ADD118R,0.0571X0.0512*%
%ADD119R,0.0748X0.0748*%
%ADD120R,0.0157X0.0531*%
%ADD121R,0.0709X0.0630*%
%ADD122R,0.0180X0.0540*%
%ADD123R,0.0551X0.0630*%
%ADD124R,0.0512X0.0591*%
%ADD125R,0.0472X0.0472*%
%ADD126C,0.0120*%
%ADD127C,0.0080*%
%ADD128C,0.0280*%
%ADD129C,0.0100*%
%ADD130R,0.0280X0.0280*%
%ADD131C,0.0160*%
%ADD132C,0.0010*%
D10*
X008873Y004266D03*
X009138Y003898D03*
X010518Y004588D03*
X008965Y005301D03*
X008931Y005290D03*
X008896Y005278D03*
X008827Y005255D03*
X008839Y005163D03*
X009138Y006164D03*
X009172Y006164D03*
D11*
X009184Y006169D03*
X009195Y006169D03*
X009161Y006158D03*
X009103Y005997D03*
X009080Y005997D03*
X009069Y005997D03*
X009057Y005997D03*
X009046Y005997D03*
X009023Y005997D03*
X009011Y005997D03*
X009000Y005997D03*
X008988Y005997D03*
X008965Y005997D03*
X008954Y005997D03*
X008908Y005985D03*
X008885Y005974D03*
X008885Y006181D03*
X008896Y006181D03*
X008873Y006181D03*
X008850Y006192D03*
X008839Y006192D03*
X009126Y005985D03*
X009138Y005985D03*
X009161Y005974D03*
X009172Y005974D03*
X009195Y005962D03*
X009195Y005594D03*
X009184Y005594D03*
X009172Y005594D03*
X009161Y005594D03*
X009138Y005594D03*
X009126Y005594D03*
X009115Y005594D03*
X009103Y005594D03*
X009080Y005594D03*
X009069Y005594D03*
X009057Y005594D03*
X009046Y005594D03*
X009023Y005594D03*
X009011Y005594D03*
X009000Y005594D03*
X008988Y005594D03*
X008965Y005594D03*
X008954Y005594D03*
X008942Y005594D03*
X008931Y005594D03*
X008908Y005594D03*
X008896Y005594D03*
X008885Y005594D03*
X008873Y005594D03*
X008850Y005594D03*
X008839Y005594D03*
X008827Y005594D03*
X008816Y005594D03*
X008908Y005284D03*
X008885Y005272D03*
X008873Y005272D03*
X008850Y005261D03*
X008839Y005261D03*
X008827Y005169D03*
X008850Y005157D03*
X008873Y005146D03*
X008885Y005146D03*
X008896Y005146D03*
X008908Y005134D03*
X008931Y005134D03*
X008942Y005123D03*
X008954Y005123D03*
X008965Y005123D03*
X008988Y005111D03*
X009000Y005100D03*
X009011Y005100D03*
X009023Y005100D03*
X009046Y005088D03*
X009057Y005088D03*
X009069Y005077D03*
X009080Y005077D03*
X009172Y005042D03*
X009184Y005042D03*
X009195Y005031D03*
X009218Y005031D03*
X009230Y005019D03*
X009241Y005019D03*
X009276Y005008D03*
X009299Y004996D03*
X009310Y004996D03*
X009333Y004985D03*
X009195Y005376D03*
X009184Y005376D03*
X009172Y005376D03*
X009161Y005364D03*
X009218Y005387D03*
X009241Y005399D03*
X009253Y005399D03*
X009276Y005410D03*
X009287Y005410D03*
X009310Y005422D03*
X009080Y005341D03*
X009069Y005341D03*
X009057Y005330D03*
X009046Y005330D03*
X009023Y005318D03*
X009011Y005318D03*
X009000Y005318D03*
X008988Y005307D03*
X008954Y005295D03*
X008942Y005295D03*
X008724Y005215D03*
X009218Y005594D03*
X009230Y005594D03*
X009241Y005594D03*
X009253Y005594D03*
X010081Y005456D03*
X010161Y005629D03*
X010518Y005882D03*
X009966Y004973D03*
X009253Y004490D03*
X009241Y004490D03*
X009230Y004490D03*
X009218Y004490D03*
X009195Y004490D03*
X009184Y004490D03*
X009172Y004490D03*
X009161Y004490D03*
X009138Y004490D03*
X009126Y004490D03*
X009115Y004490D03*
X009103Y004490D03*
X009080Y004490D03*
X009069Y004490D03*
X008965Y004490D03*
X008954Y004490D03*
X008942Y004490D03*
X008931Y004490D03*
X008908Y004490D03*
X008896Y004490D03*
X008885Y004490D03*
X008873Y004490D03*
X008850Y004490D03*
X008839Y004490D03*
X008827Y004490D03*
X008816Y004490D03*
X008885Y004272D03*
X008896Y004272D03*
X008850Y004260D03*
X009161Y004283D03*
X009172Y004283D03*
X009184Y004283D03*
X009195Y004283D03*
X009218Y004272D03*
X009218Y003915D03*
X009195Y003904D03*
X009184Y003904D03*
X009172Y003904D03*
X009161Y003904D03*
X008873Y003927D03*
X008850Y003927D03*
X008839Y003927D03*
X008827Y006514D03*
X008850Y006526D03*
X008873Y006526D03*
X008885Y006526D03*
X009126Y006537D03*
X009138Y006537D03*
X009195Y006537D03*
X009218Y006537D03*
D12*
X009333Y006353D03*
X009655Y006158D03*
X009655Y005606D03*
X010276Y005583D03*
X010506Y005882D03*
X010345Y006158D03*
X009851Y005019D03*
X009655Y004870D03*
X009655Y004318D03*
X008988Y004019D03*
X010345Y004318D03*
X010506Y004594D03*
X010345Y004870D03*
X008988Y006284D03*
D13*
X008758Y006353D03*
X009310Y006353D03*
X009506Y005882D03*
X010311Y005525D03*
X010345Y005560D03*
X010495Y005882D03*
X010495Y004594D03*
D14*
X010483Y004594D03*
X010483Y005882D03*
X009299Y005744D03*
X008770Y005744D03*
D15*
X010472Y005882D03*
X010472Y004594D03*
D16*
X010460Y004594D03*
X009540Y004594D03*
X009540Y005882D03*
X010460Y005882D03*
D17*
X010449Y005882D03*
X010449Y004594D03*
D18*
X010219Y005324D03*
X010230Y005336D03*
X010265Y005370D03*
X010276Y005382D03*
X010288Y005393D03*
X010449Y005497D03*
X009333Y005428D03*
X009230Y005393D03*
X009161Y005048D03*
X008735Y005209D03*
X008850Y005957D03*
X008873Y005968D03*
X008908Y006187D03*
X008827Y006198D03*
X008839Y006520D03*
X009115Y006532D03*
X009161Y006543D03*
X009172Y006543D03*
X009184Y006543D03*
X009230Y006532D03*
X009241Y006520D03*
X009230Y006187D03*
X009218Y006175D03*
X009184Y005968D03*
X009218Y005945D03*
X009138Y004278D03*
X009126Y004278D03*
X008816Y004243D03*
X008816Y003944D03*
X008827Y003933D03*
X008931Y003933D03*
D19*
X010437Y004594D03*
X010437Y005882D03*
D20*
X010207Y005600D03*
X010437Y005497D03*
X009908Y004991D03*
X009736Y004232D03*
X009747Y004220D03*
X009759Y004209D03*
X009770Y004209D03*
X010219Y004197D03*
X010230Y004209D03*
X010253Y004220D03*
X010265Y004232D03*
X009276Y004209D03*
X009276Y003979D03*
X008816Y005209D03*
X009276Y006244D03*
X009736Y006244D03*
X009747Y006256D03*
X009759Y006256D03*
X009770Y006267D03*
X009793Y006279D03*
X010230Y006267D03*
X010253Y006256D03*
X010265Y006244D03*
D21*
X009575Y005882D03*
X009575Y004594D03*
X010426Y004594D03*
D22*
X010426Y005784D03*
D23*
X010414Y005778D03*
D24*
X009598Y005882D03*
X009598Y004594D03*
X010403Y004594D03*
D25*
X010403Y005784D03*
D26*
X010391Y004594D03*
D27*
X010391Y005790D03*
D28*
X010380Y006089D03*
X009621Y005675D03*
X010380Y004801D03*
X010380Y004387D03*
X009621Y004387D03*
X009023Y004099D03*
X009011Y004076D03*
D29*
X010380Y005594D03*
D30*
X009816Y005042D03*
X010368Y004352D03*
X008735Y006353D03*
D31*
X009000Y006313D03*
X009632Y006118D03*
X009632Y005646D03*
X009805Y005048D03*
X009632Y004830D03*
X009632Y004358D03*
X009000Y004048D03*
X008735Y004094D03*
X010368Y004830D03*
X010368Y006118D03*
D32*
X010368Y005577D03*
X009287Y005750D03*
X008781Y005750D03*
X009138Y005209D03*
D33*
X009839Y005025D03*
X010357Y004853D03*
X010357Y004335D03*
X010357Y006141D03*
D34*
X010357Y005566D03*
X009092Y005209D03*
X008747Y005727D03*
D35*
X010334Y006175D03*
X010334Y004301D03*
D36*
X010334Y004887D03*
X009862Y005014D03*
X009678Y004899D03*
X010265Y005589D03*
D37*
X010322Y005531D03*
X010334Y005543D03*
X009770Y005060D03*
X009621Y004795D03*
X009506Y004588D03*
X009333Y005704D03*
X009621Y006083D03*
D38*
X009678Y006192D03*
X010253Y005594D03*
X009943Y005295D03*
X009931Y005307D03*
X009920Y005318D03*
X009908Y005330D03*
X009885Y005353D03*
X009874Y005364D03*
X009862Y005376D03*
X009851Y005387D03*
X009828Y005410D03*
X009816Y005422D03*
X009805Y005433D03*
X009690Y005560D03*
X009678Y005571D03*
X009966Y005272D03*
X009977Y005261D03*
X009989Y005249D03*
X010000Y005238D03*
X010023Y005215D03*
X010035Y005203D03*
X010046Y005192D03*
X010058Y005180D03*
X010081Y005157D03*
X009874Y005008D03*
X009690Y004916D03*
X010311Y004916D03*
X010322Y004904D03*
X010322Y004283D03*
X010311Y004272D03*
X009690Y004272D03*
X009678Y004283D03*
X008724Y004088D03*
X010322Y006192D03*
X008724Y006353D03*
D39*
X009690Y006198D03*
X009701Y006210D03*
X010311Y006198D03*
X010173Y005577D03*
X009793Y005451D03*
X009770Y005474D03*
X009759Y005485D03*
X009736Y005508D03*
X009713Y005531D03*
X009701Y005543D03*
X010092Y005140D03*
X010104Y005129D03*
X010115Y005117D03*
X010150Y005083D03*
X010161Y005071D03*
X010173Y005060D03*
X010207Y005025D03*
X010219Y005014D03*
X010230Y005002D03*
X010265Y004968D03*
X010276Y004956D03*
X010288Y004945D03*
X009885Y005002D03*
X009069Y004209D03*
D40*
X009724Y004237D03*
X010299Y004260D03*
X009897Y004996D03*
X010184Y005583D03*
D41*
X009954Y005284D03*
X009897Y005341D03*
X009839Y005399D03*
X010012Y005226D03*
X010069Y005169D03*
X010299Y004927D03*
D42*
X010299Y005520D03*
D43*
X010242Y005600D03*
X009782Y005462D03*
X009724Y005520D03*
X010127Y005106D03*
X010184Y005048D03*
X010242Y004991D03*
X008977Y003990D03*
X010299Y006210D03*
X008977Y006256D03*
D44*
X009069Y006468D03*
X009276Y006468D03*
X009713Y006227D03*
X010276Y006238D03*
X010288Y006227D03*
X010230Y005606D03*
X010196Y005594D03*
X010288Y004249D03*
X010276Y004237D03*
X009713Y004249D03*
X009701Y004260D03*
D45*
X009644Y004335D03*
X009333Y004094D03*
X009057Y004174D03*
X009644Y004853D03*
X009828Y005037D03*
X010288Y005577D03*
X009644Y005623D03*
X009644Y006141D03*
X009057Y006440D03*
D46*
X009747Y005497D03*
X010138Y005094D03*
X010196Y005037D03*
X010253Y004979D03*
D47*
X010253Y005359D03*
X009299Y005416D03*
X009253Y005014D03*
X009287Y005002D03*
X009230Y004266D03*
X009115Y004266D03*
X008839Y004255D03*
X008827Y004255D03*
X008885Y003921D03*
X008896Y003921D03*
X008908Y003921D03*
X009230Y003921D03*
X009115Y005991D03*
X008942Y005991D03*
X008931Y005991D03*
X008896Y005980D03*
X008816Y006210D03*
X008816Y006509D03*
D48*
X009264Y005888D03*
X009724Y006233D03*
X010242Y006256D03*
X010242Y004209D03*
D49*
X009207Y003910D03*
X009264Y005405D03*
X010242Y005347D03*
D50*
X010219Y005606D03*
X010173Y006296D03*
X009828Y006296D03*
X009345Y006353D03*
X009816Y004180D03*
X009851Y004168D03*
D51*
X009805Y004191D03*
X009793Y004191D03*
X010196Y004191D03*
X010207Y004191D03*
X009345Y004088D03*
X008965Y003973D03*
X008965Y006227D03*
X009805Y006284D03*
X010196Y006284D03*
X010207Y006284D03*
X010219Y006273D03*
D52*
X010207Y005324D03*
X008896Y006532D03*
D53*
X010196Y005324D03*
X009989Y004968D03*
D54*
X010184Y004180D03*
X008804Y005215D03*
D55*
X010184Y005324D03*
D56*
X010184Y006290D03*
X010127Y006313D03*
X010069Y006325D03*
X009839Y006302D03*
X009839Y004174D03*
X009897Y004151D03*
X009954Y004140D03*
X010012Y004140D03*
X010127Y004163D03*
D57*
X010138Y004163D03*
X010150Y004163D03*
X010161Y004174D03*
X010173Y004174D03*
X010115Y004151D03*
X010104Y004151D03*
X010092Y004151D03*
X010081Y004151D03*
X010046Y004140D03*
X010035Y004140D03*
X010023Y004140D03*
X010000Y004140D03*
X009989Y004140D03*
X009977Y004140D03*
X009966Y004140D03*
X009920Y004151D03*
X009908Y004151D03*
X009885Y004151D03*
X009874Y004163D03*
X009862Y004163D03*
X009828Y004174D03*
X009080Y004232D03*
X009920Y004991D03*
X009690Y005106D03*
X008793Y005209D03*
X008781Y005209D03*
X009816Y006290D03*
X009851Y006302D03*
X009862Y006313D03*
X009874Y006313D03*
X009885Y006313D03*
X009908Y006325D03*
X009920Y006325D03*
X009931Y006325D03*
X009943Y006325D03*
X010058Y006325D03*
X010081Y006325D03*
X010092Y006325D03*
X010104Y006325D03*
X010115Y006313D03*
X010138Y006313D03*
X010150Y006302D03*
X010161Y006302D03*
X009080Y006497D03*
D58*
X009103Y006526D03*
X009253Y006514D03*
X009253Y006204D03*
X009241Y006192D03*
X009230Y005939D03*
X009241Y005928D03*
X008942Y006204D03*
X008931Y006192D03*
X008793Y006227D03*
X008839Y005951D03*
X008827Y005939D03*
X010092Y005456D03*
X010104Y005468D03*
X010115Y005479D03*
X010138Y005502D03*
X010150Y005514D03*
X010161Y005525D03*
X009241Y004260D03*
X009253Y004249D03*
X009103Y004260D03*
X009253Y003938D03*
X009241Y003927D03*
X008942Y003938D03*
D59*
X009977Y004973D03*
X009678Y005111D03*
X010150Y005629D03*
D60*
X010138Y005629D03*
X010058Y005456D03*
X009483Y005882D03*
X009483Y004594D03*
D61*
X008804Y004237D03*
X008804Y003950D03*
X010127Y005491D03*
X008804Y006215D03*
D62*
X010127Y005629D03*
D63*
X010012Y006330D03*
X009954Y006330D03*
X009264Y006215D03*
X010069Y004145D03*
D64*
X010069Y005456D03*
D65*
X010046Y006330D03*
X010035Y006330D03*
X010023Y006330D03*
X010000Y006330D03*
X009989Y006330D03*
X009977Y006330D03*
X009966Y006330D03*
X009943Y004145D03*
X009931Y004145D03*
X010058Y004145D03*
X008712Y004088D03*
D66*
X010046Y005456D03*
D67*
X010000Y004968D03*
D68*
X009954Y004979D03*
X009322Y004991D03*
X009207Y005957D03*
X008862Y005968D03*
X008919Y006187D03*
X009149Y006543D03*
D69*
X008954Y006210D03*
X008816Y005922D03*
X008758Y005209D03*
X008793Y004220D03*
X008793Y003967D03*
X009943Y004979D03*
D70*
X009931Y004985D03*
X009253Y005916D03*
X008712Y006353D03*
X008793Y006480D03*
X008770Y005215D03*
X008954Y003950D03*
D71*
X009264Y004237D03*
X008804Y005905D03*
X009897Y006319D03*
D72*
X008724Y005686D03*
X009793Y005054D03*
X009046Y004145D03*
D73*
X009782Y004203D03*
X009782Y006273D03*
D74*
X009322Y006359D03*
X009034Y006382D03*
X009782Y005060D03*
X009322Y004094D03*
D75*
X009310Y004094D03*
X008758Y004094D03*
X009759Y005060D03*
D76*
X009747Y005060D03*
X009299Y004094D03*
X008770Y004094D03*
X009299Y006359D03*
D77*
X009287Y006359D03*
X009517Y005876D03*
X008758Y005738D03*
X009103Y005209D03*
X009115Y005209D03*
X009701Y005014D03*
X009736Y005060D03*
X009517Y004588D03*
X009287Y004094D03*
D78*
X009724Y005048D03*
D79*
X009713Y005031D03*
X009126Y005203D03*
D80*
X009667Y004301D03*
X009667Y006175D03*
D81*
X009667Y005589D03*
X009667Y004887D03*
D82*
X009609Y004594D03*
X009609Y005882D03*
D83*
X009586Y005876D03*
X009586Y004588D03*
D84*
X009563Y004588D03*
D85*
X009563Y005876D03*
D86*
X009552Y005882D03*
X009552Y004594D03*
D87*
X009529Y004594D03*
X008724Y004663D03*
X009529Y005882D03*
D88*
X009494Y005882D03*
X009494Y004594D03*
D89*
X009333Y004669D03*
X009310Y004669D03*
X009299Y004669D03*
X009287Y004669D03*
X009276Y004669D03*
X008793Y004669D03*
X008781Y004669D03*
X008770Y004669D03*
X008758Y004669D03*
X008735Y004669D03*
D90*
X008747Y004669D03*
X009322Y004669D03*
D91*
X009264Y004490D03*
X009207Y004490D03*
X009149Y004490D03*
X009092Y004490D03*
X008977Y004490D03*
X008919Y004490D03*
X008862Y004490D03*
X008804Y004490D03*
X008862Y004260D03*
X009149Y004283D03*
X009207Y004272D03*
X008919Y003927D03*
X008862Y003927D03*
X009264Y005008D03*
X009207Y005031D03*
X009034Y005088D03*
X008977Y005111D03*
X008919Y005134D03*
X008862Y005157D03*
X008919Y005284D03*
X008977Y005307D03*
X009034Y005330D03*
X009207Y005387D03*
X009322Y005422D03*
X009264Y005594D03*
X009207Y005594D03*
X009149Y005594D03*
X009092Y005594D03*
X009034Y005594D03*
X008977Y005594D03*
X008919Y005594D03*
X008862Y005594D03*
X008804Y005594D03*
X008919Y005985D03*
X008977Y005997D03*
X009034Y005997D03*
X009092Y005997D03*
X009149Y005985D03*
X009149Y006158D03*
X009207Y006169D03*
X008862Y006181D03*
X008862Y006526D03*
X009207Y006537D03*
D92*
X009322Y005721D03*
D93*
X009310Y005732D03*
X008781Y006353D03*
X008781Y004099D03*
D94*
X008988Y004651D03*
X009000Y004651D03*
X009011Y004651D03*
X009023Y004651D03*
X009046Y004651D03*
X009057Y004651D03*
X009276Y005755D03*
D95*
X009264Y006497D03*
X009092Y006509D03*
X008804Y006497D03*
X008747Y005209D03*
X009092Y004255D03*
X009264Y003956D03*
D96*
X009149Y003898D03*
D97*
X009149Y005209D03*
D98*
X009046Y006411D03*
D99*
X008747Y006353D03*
X009034Y004122D03*
X008747Y004088D03*
D100*
X009034Y004651D03*
D101*
X009023Y006359D03*
D102*
X009011Y006336D03*
D103*
X008862Y005267D03*
D104*
X008793Y005761D03*
D105*
X008770Y006353D03*
D106*
X008735Y005715D03*
D107*
X011404Y007456D03*
X011564Y007456D03*
X011724Y007456D03*
X011874Y007456D03*
X012034Y007456D03*
X012194Y007456D03*
X012354Y007456D03*
X012504Y007456D03*
X012664Y007456D03*
X012824Y007456D03*
X012984Y007456D03*
X013134Y007456D03*
X013294Y007456D03*
X013454Y007456D03*
X013604Y007456D03*
X013764Y007456D03*
X013924Y007456D03*
X014084Y007456D03*
X014234Y007456D03*
X014394Y007456D03*
X014554Y007456D03*
X014714Y007456D03*
X014864Y007456D03*
X015024Y007456D03*
X015184Y007456D03*
X015184Y012656D03*
X015024Y012656D03*
X014864Y012656D03*
X014714Y012656D03*
X014554Y012656D03*
X014394Y012656D03*
X014234Y012656D03*
X014084Y012656D03*
X013924Y012656D03*
X013764Y012656D03*
X013604Y012656D03*
X013454Y012656D03*
X013294Y012656D03*
X013134Y012656D03*
X012984Y012656D03*
X012824Y012656D03*
X012664Y012656D03*
X012504Y012656D03*
X012354Y012656D03*
X012194Y012656D03*
X012034Y012656D03*
X011874Y012656D03*
X011724Y012656D03*
X011564Y012656D03*
X011404Y012656D03*
D108*
X010694Y011946D03*
X010694Y011786D03*
X010694Y011626D03*
X010694Y011476D03*
X010694Y011316D03*
X010694Y011156D03*
X010694Y010996D03*
X010694Y010846D03*
X010694Y010686D03*
X010694Y010526D03*
X010694Y010366D03*
X010694Y010216D03*
X010694Y010056D03*
X010694Y009896D03*
X010694Y009746D03*
X010694Y009586D03*
X010694Y009426D03*
X010694Y009266D03*
X010694Y009116D03*
X010694Y008956D03*
X010694Y008796D03*
X010694Y008636D03*
X010694Y008486D03*
X010694Y008326D03*
X010694Y008166D03*
X015894Y008166D03*
X015894Y008326D03*
X015894Y008486D03*
X015894Y008636D03*
X015894Y008796D03*
X015894Y008956D03*
X015894Y009116D03*
X015894Y009266D03*
X015894Y009426D03*
X015894Y009586D03*
X015894Y009746D03*
X015894Y009896D03*
X015894Y010056D03*
X015894Y010216D03*
X015894Y010366D03*
X015894Y010526D03*
X015894Y010686D03*
X015894Y010846D03*
X015894Y010996D03*
X015894Y011156D03*
X015894Y011316D03*
X015894Y011476D03*
X015894Y011626D03*
X015894Y011786D03*
X015894Y011946D03*
D109*
X015831Y014076D03*
X015200Y014076D03*
X014528Y014073D03*
X014528Y014782D03*
X015200Y014784D03*
X015831Y014785D03*
X011379Y014782D03*
X011379Y014073D03*
X008504Y012262D03*
X008504Y011554D03*
X009264Y009751D03*
X009871Y009752D03*
X009871Y009043D03*
X009264Y009042D03*
X008504Y009270D03*
X008504Y008562D03*
X011484Y006326D03*
X012105Y006331D03*
X012739Y006333D03*
X013376Y006342D03*
X013376Y005634D03*
X012739Y005625D03*
X012105Y005623D03*
X011484Y005618D03*
X014091Y005650D03*
X014091Y006358D03*
X017016Y007093D03*
X017670Y007107D03*
X017670Y007816D03*
X017016Y007802D03*
X002638Y002696D03*
X002638Y001987D03*
D110*
X002087Y001908D03*
X001379Y001908D03*
X001379Y005018D03*
X002087Y005018D03*
X002087Y006042D03*
X001379Y006042D03*
X002717Y007696D03*
X002087Y008247D03*
X001379Y008247D03*
X001379Y008877D03*
X002087Y008877D03*
X002087Y009507D03*
X001379Y009507D03*
X001379Y010136D03*
X002087Y010136D03*
X002087Y010727D03*
X001379Y010727D03*
X003190Y013286D03*
X003898Y013286D03*
X004489Y013286D03*
X005197Y013286D03*
X004922Y014192D03*
X004922Y014782D03*
X004213Y014782D03*
X004213Y014192D03*
X002087Y014703D03*
X001379Y014703D03*
X003426Y007696D03*
X003898Y005570D03*
X004607Y005570D03*
X006024Y005570D03*
X006733Y005570D03*
X006615Y007223D03*
X007323Y007223D03*
X016694Y008812D03*
X017403Y008812D03*
X017398Y010065D03*
X016689Y010065D03*
X016704Y011142D03*
X017413Y011142D03*
D111*
X015788Y002092D03*
X014788Y002192D03*
X013788Y002092D03*
X012788Y002192D03*
X011788Y002092D03*
X010788Y002192D03*
D112*
X007727Y008778D03*
X007727Y008975D03*
X007727Y009172D03*
X007727Y009369D03*
X007727Y009566D03*
X007727Y009762D03*
X007727Y009959D03*
X007727Y010156D03*
X007727Y010353D03*
X007727Y010550D03*
X007727Y010747D03*
X007727Y010944D03*
X007727Y011140D03*
X007727Y011337D03*
X007727Y011534D03*
X007727Y011731D03*
X003298Y011731D03*
X003298Y011534D03*
X003298Y011337D03*
X003298Y011140D03*
X003298Y010944D03*
X003298Y010747D03*
X003298Y010550D03*
X003298Y010353D03*
X003298Y010156D03*
X003298Y009959D03*
X003298Y009762D03*
X003298Y009566D03*
X003298Y009369D03*
X003298Y009172D03*
X003298Y008975D03*
X003298Y008778D03*
D113*
X004036Y008040D03*
X004233Y008040D03*
X004430Y008040D03*
X004627Y008040D03*
X004823Y008040D03*
X005020Y008040D03*
X005217Y008040D03*
X005414Y008040D03*
X005611Y008040D03*
X005808Y008040D03*
X006004Y008040D03*
X006201Y008040D03*
X006398Y008040D03*
X006595Y008040D03*
X006792Y008040D03*
X006989Y008040D03*
X006989Y012469D03*
X006792Y012469D03*
X006595Y012469D03*
X006398Y012469D03*
X006201Y012469D03*
X006004Y012469D03*
X005808Y012469D03*
X005611Y012469D03*
X005414Y012469D03*
X005217Y012469D03*
X005020Y012469D03*
X004823Y012469D03*
X004627Y012469D03*
X004430Y012469D03*
X004233Y012469D03*
X004036Y012469D03*
D114*
X012166Y013955D03*
X012166Y014900D03*
X013741Y014900D03*
X013741Y013955D03*
D115*
X002107Y007577D03*
X001438Y007577D03*
X001438Y006711D03*
X002107Y006711D03*
D116*
X002117Y011662D03*
X001861Y011662D03*
X001605Y011662D03*
X001349Y011662D03*
X001349Y013965D03*
X001605Y013965D03*
X001861Y013965D03*
X002117Y013965D03*
D117*
X004213Y003266D03*
X006733Y003266D03*
D118*
X006821Y002302D03*
X004125Y002302D03*
D119*
X005001Y002302D03*
X005945Y002302D03*
D120*
X005985Y003355D03*
X005729Y003355D03*
X005473Y003355D03*
X005217Y003355D03*
X004961Y003355D03*
D121*
X003347Y003247D03*
X003347Y002144D03*
D122*
X002152Y002584D03*
X001902Y002584D03*
X001642Y002584D03*
X001392Y002584D03*
X001392Y004304D03*
X001642Y004304D03*
X001902Y004304D03*
X002152Y004304D03*
D123*
X003504Y006396D03*
X004607Y006396D03*
X006024Y006396D03*
X007127Y006396D03*
X007245Y013365D03*
X006142Y013365D03*
D124*
X006044Y004940D03*
X006713Y004940D03*
X004587Y004940D03*
X003918Y004940D03*
D125*
X005453Y014192D03*
X005453Y014782D03*
X006280Y014782D03*
X006280Y014192D03*
D126*
X001696Y002154D02*
X001696Y001659D01*
X011471Y001659D01*
X011339Y001791D01*
X011267Y001964D01*
X011237Y001891D01*
X011088Y001742D01*
X010893Y001662D01*
X010683Y001662D01*
X010488Y001742D01*
X010339Y001891D01*
X010258Y002086D01*
X010258Y002297D01*
X010339Y002492D01*
X010488Y002641D01*
X010568Y002674D01*
X010568Y003023D01*
X010697Y003152D01*
X011885Y004340D01*
X011885Y005305D01*
X011802Y005305D01*
X011709Y005399D01*
X011709Y005846D01*
X011802Y005940D01*
X012407Y005940D01*
X012421Y005927D01*
X012436Y005942D01*
X013041Y005942D01*
X013053Y005931D01*
X013073Y005951D01*
X013678Y005951D01*
X013772Y005858D01*
X013772Y005410D01*
X013678Y005316D01*
X013073Y005316D01*
X013062Y005328D01*
X013041Y005307D01*
X012436Y005307D01*
X012423Y005321D01*
X012407Y005305D01*
X012325Y005305D01*
X012325Y004158D01*
X011008Y002841D01*
X011008Y002674D01*
X011088Y002641D01*
X011237Y002492D01*
X011309Y002319D01*
X011339Y002392D01*
X011488Y002541D01*
X011683Y002622D01*
X011893Y002622D01*
X012088Y002541D01*
X012237Y002392D01*
X012318Y002197D01*
X012318Y001986D01*
X012237Y001791D01*
X012105Y001659D01*
X013471Y001659D01*
X013339Y001791D01*
X013258Y001986D01*
X013258Y002197D01*
X013339Y002392D01*
X013488Y002541D01*
X013683Y002622D01*
X013893Y002622D01*
X014088Y002541D01*
X014237Y002392D01*
X014267Y002319D01*
X014339Y002492D01*
X014488Y002641D01*
X014683Y002722D01*
X014824Y002722D01*
X014824Y007006D01*
X013964Y007006D01*
X013964Y006768D01*
X014056Y006676D01*
X014393Y006676D01*
X014487Y006582D01*
X014487Y006135D01*
X014393Y006041D01*
X013788Y006041D01*
X013741Y006088D01*
X013678Y006025D01*
X013073Y006025D01*
X012979Y006119D01*
X012979Y006566D01*
X013073Y006660D01*
X013094Y006660D01*
X013094Y007006D01*
X011764Y007006D01*
X011764Y006644D01*
X011786Y006644D01*
X011792Y006638D01*
X011802Y006649D01*
X012407Y006649D01*
X012501Y006555D01*
X012501Y006108D01*
X012407Y006014D01*
X011802Y006014D01*
X011797Y006020D01*
X011786Y006009D01*
X011181Y006009D01*
X011087Y006103D01*
X011087Y006550D01*
X011181Y006644D01*
X011364Y006644D01*
X011364Y007006D01*
X011293Y007006D01*
X011199Y007099D01*
X011199Y007812D01*
X011293Y007906D01*
X011313Y007906D01*
X011303Y007910D01*
X011219Y007994D01*
X011173Y008104D01*
X011173Y008224D01*
X011219Y008334D01*
X011303Y008418D01*
X011413Y008464D01*
X011460Y008464D01*
X011460Y008515D01*
X011506Y008625D01*
X011590Y008710D01*
X011701Y008755D01*
X011796Y008755D01*
X011775Y008805D01*
X011775Y008925D01*
X011821Y009035D01*
X011905Y009119D01*
X012016Y009165D01*
X012135Y009165D01*
X012245Y009119D01*
X012330Y009035D01*
X012375Y008925D01*
X012375Y008805D01*
X012351Y008748D01*
X012430Y008748D01*
X012541Y008702D01*
X012625Y008617D01*
X012671Y008507D01*
X012671Y008503D01*
X012754Y008503D01*
X012793Y008598D01*
X012878Y008682D01*
X012988Y008728D01*
X013107Y008728D01*
X013180Y008698D01*
X013211Y008771D01*
X013295Y008855D01*
X013405Y008901D01*
X013525Y008901D01*
X013635Y008855D01*
X013719Y008771D01*
X013765Y008661D01*
X013765Y008541D01*
X013719Y008431D01*
X013665Y008377D01*
X013665Y008254D01*
X013330Y007920D01*
X013330Y007906D01*
X013565Y007906D01*
X013609Y007862D01*
X013653Y007906D01*
X015295Y007906D01*
X015389Y007812D01*
X015389Y007099D01*
X015384Y007094D01*
X015384Y007005D01*
X015416Y006972D01*
X015493Y006972D01*
X015604Y006926D01*
X015688Y006842D01*
X015734Y006732D01*
X015734Y006612D01*
X015688Y006502D01*
X015604Y006418D01*
X015493Y006372D01*
X015374Y006372D01*
X015264Y006418D01*
X015224Y006457D01*
X015224Y002505D01*
X015237Y002492D01*
X015309Y002319D01*
X015339Y002392D01*
X015488Y002541D01*
X015683Y002622D01*
X015893Y002622D01*
X016088Y002541D01*
X016182Y002447D01*
X016182Y002524D01*
X016257Y002801D01*
X016400Y003050D01*
X016603Y003253D01*
X016852Y003396D01*
X017129Y003470D01*
X017416Y003470D01*
X017693Y003396D01*
X017941Y003253D01*
X017993Y003201D01*
X017993Y006810D01*
X017972Y006789D01*
X017367Y006789D01*
X017350Y006807D01*
X017319Y006776D01*
X016714Y006776D01*
X016620Y006869D01*
X016620Y007317D01*
X016714Y007411D01*
X017319Y007411D01*
X017336Y007393D01*
X017367Y007424D01*
X017972Y007424D01*
X017993Y007403D01*
X017993Y015110D01*
X017663Y015110D01*
X017663Y014998D01*
X017617Y014888D01*
X017533Y014803D01*
X017422Y014758D01*
X017303Y014758D01*
X017193Y014803D01*
X017108Y014888D01*
X017063Y014998D01*
X017063Y015110D01*
X014255Y015110D01*
X014255Y015100D01*
X014493Y015100D01*
X014493Y015100D01*
X014831Y015100D01*
X014924Y015006D01*
X014924Y014558D01*
X014831Y014465D01*
X014226Y014465D01*
X014174Y014517D01*
X014161Y014504D01*
X013627Y014504D01*
X013342Y014219D01*
X013342Y013668D01*
X013394Y013616D01*
X013423Y013645D01*
X013540Y013762D01*
X014603Y013762D01*
X014803Y013962D01*
X014803Y014299D01*
X014897Y014393D01*
X015502Y014393D01*
X015515Y014380D01*
X015529Y014394D01*
X016134Y014394D01*
X016227Y014300D01*
X016227Y014296D01*
X016396Y014296D01*
X016439Y014401D01*
X016524Y014485D01*
X016634Y014531D01*
X016753Y014531D01*
X016863Y014485D01*
X016948Y014401D01*
X016993Y014291D01*
X016993Y014171D01*
X016948Y014061D01*
X016863Y013977D01*
X016753Y013931D01*
X016705Y013931D01*
X016630Y013856D01*
X016523Y013856D01*
X016636Y013743D01*
X016727Y013523D01*
X016727Y013285D01*
X016636Y013066D01*
X016468Y012897D01*
X016248Y012806D01*
X016011Y012806D01*
X015791Y012897D01*
X015623Y013066D01*
X015532Y013285D01*
X015532Y013523D01*
X015563Y013598D01*
X015398Y013598D01*
X014906Y013106D01*
X015295Y013106D01*
X015389Y013012D01*
X015389Y012299D01*
X015295Y012206D01*
X015224Y012206D01*
X015224Y011936D01*
X015382Y011778D01*
X015382Y011463D01*
X015436Y011409D01*
X015444Y011390D01*
X015444Y012057D01*
X015538Y012151D01*
X015816Y012151D01*
X016100Y012435D01*
X017005Y012435D01*
X017122Y012318D01*
X017224Y012215D01*
X017224Y012117D01*
X017279Y012062D01*
X017324Y011952D01*
X017324Y011833D01*
X017279Y011722D01*
X017194Y011638D01*
X017084Y011592D01*
X016964Y011592D01*
X016854Y011638D01*
X016806Y011687D01*
X016757Y011638D01*
X016647Y011592D01*
X016570Y011592D01*
X016563Y011586D01*
X016344Y011586D01*
X016344Y011516D01*
X016458Y011516D01*
X016480Y011538D01*
X016928Y011538D01*
X017021Y011444D01*
X017021Y010839D01*
X016928Y010746D01*
X016480Y010746D01*
X016386Y010839D01*
X016386Y011116D01*
X016335Y011116D01*
X016344Y011107D01*
X016344Y010096D01*
X016371Y010096D01*
X016371Y010368D01*
X016465Y010462D01*
X016913Y010462D01*
X017006Y010368D01*
X017006Y009763D01*
X016913Y009669D01*
X016465Y009669D01*
X016438Y009696D01*
X016344Y009696D01*
X016344Y009004D01*
X016335Y008996D01*
X016376Y008996D01*
X016376Y009114D01*
X016470Y009208D01*
X016918Y009208D01*
X017011Y009114D01*
X017011Y008509D01*
X016918Y008415D01*
X016470Y008415D01*
X016376Y008509D01*
X016376Y008596D01*
X016344Y008596D01*
X016344Y008366D01*
X016735Y008366D01*
X016982Y008119D01*
X017319Y008119D01*
X017413Y008026D01*
X017413Y007578D01*
X017319Y007484D01*
X016714Y007484D01*
X016620Y007578D01*
X016620Y007915D01*
X016570Y007966D01*
X016255Y007966D01*
X016250Y007961D01*
X015538Y007961D01*
X015444Y008054D01*
X015444Y008907D01*
X015493Y008956D01*
X015444Y009004D01*
X015444Y009697D01*
X015488Y009741D01*
X015444Y009784D01*
X015444Y010576D01*
X015436Y010557D01*
X015352Y010473D01*
X015241Y010427D01*
X015122Y010427D01*
X015012Y010473D01*
X014927Y010557D01*
X014882Y010667D01*
X014882Y010787D01*
X014927Y010897D01*
X015012Y010981D01*
X015016Y010983D01*
X015012Y010985D01*
X014927Y011069D01*
X014902Y011130D01*
X014877Y011069D01*
X014793Y010985D01*
X014682Y010939D01*
X014563Y010939D01*
X014453Y010985D01*
X014368Y011069D01*
X014355Y011101D01*
X014341Y011069D01*
X014257Y010985D01*
X014147Y010939D01*
X014027Y010939D01*
X013917Y010985D01*
X013833Y011069D01*
X013821Y011096D01*
X013810Y011069D01*
X013726Y010985D01*
X013615Y010939D01*
X013496Y010939D01*
X013386Y010985D01*
X013301Y011069D01*
X013256Y011179D01*
X013256Y011299D01*
X013301Y011409D01*
X013386Y011493D01*
X013496Y011539D01*
X013573Y011539D01*
X013724Y011690D01*
X013724Y012206D01*
X013023Y012206D01*
X012979Y012250D01*
X012935Y012206D01*
X012394Y012206D01*
X012394Y012061D01*
X012916Y011539D01*
X012993Y011539D01*
X013104Y011493D01*
X013188Y011409D01*
X013234Y011299D01*
X013234Y011179D01*
X013188Y011069D01*
X013104Y010985D01*
X012993Y010939D01*
X012874Y010939D01*
X012764Y010985D01*
X012688Y011061D01*
X012641Y011015D01*
X012641Y010987D01*
X013078Y010551D01*
X013155Y010551D01*
X013265Y010505D01*
X013349Y010421D01*
X013395Y010310D01*
X013395Y010191D01*
X013349Y010081D01*
X013265Y009996D01*
X013155Y009951D01*
X013035Y009951D01*
X012925Y009996D01*
X012841Y010081D01*
X012795Y010191D01*
X012795Y010268D01*
X012241Y010821D01*
X012241Y011015D01*
X012228Y011028D01*
X012228Y010439D01*
X012282Y010385D01*
X012328Y010275D01*
X012328Y010156D01*
X012282Y010045D01*
X012198Y009961D01*
X012088Y009915D01*
X011968Y009915D01*
X011858Y009961D01*
X011774Y010045D01*
X011728Y010156D01*
X011728Y010275D01*
X011774Y010385D01*
X011828Y010439D01*
X011828Y010996D01*
X011816Y010985D01*
X011706Y010939D01*
X011587Y010939D01*
X011476Y010985D01*
X011392Y011069D01*
X011346Y011179D01*
X011346Y011299D01*
X011392Y011409D01*
X011476Y011493D01*
X011587Y011539D01*
X011663Y011539D01*
X011674Y011549D01*
X011674Y012206D01*
X011453Y012206D01*
X011359Y012299D01*
X011359Y012767D01*
X011202Y012767D01*
X010967Y012864D01*
X010788Y013043D01*
X010691Y013277D01*
X010691Y013531D01*
X010788Y013765D01*
X010967Y013944D01*
X010982Y013951D01*
X010982Y014297D01*
X011076Y014391D01*
X011681Y014391D01*
X011733Y014339D01*
X011745Y014352D01*
X012587Y014352D01*
X012680Y014258D01*
X012680Y013960D01*
X012760Y013881D01*
X012942Y013698D01*
X012942Y014385D01*
X013226Y014669D01*
X013226Y015110D01*
X006651Y015110D01*
X006676Y015085D01*
X006676Y013889D01*
X006583Y013795D01*
X006529Y013795D01*
X006578Y013746D01*
X006578Y012984D01*
X006509Y012915D01*
X006518Y012915D01*
X006595Y012837D01*
X006672Y012915D01*
X007108Y012915D01*
X007202Y012821D01*
X007202Y012117D01*
X007108Y012024D01*
X006672Y012024D01*
X006595Y012101D01*
X006518Y012024D01*
X006458Y012024D01*
X006628Y011853D01*
X006628Y011112D01*
X006382Y010866D01*
X006382Y010761D01*
X006445Y010824D01*
X006555Y010870D01*
X006674Y010870D01*
X006748Y010839D01*
X006748Y010944D01*
X006793Y011054D01*
X006878Y011139D01*
X006988Y011185D01*
X007107Y011185D01*
X007218Y011139D01*
X007281Y011075D01*
X007281Y011850D01*
X007375Y011944D01*
X008079Y011944D01*
X008172Y011850D01*
X008172Y011842D01*
X008202Y011871D01*
X008807Y011871D01*
X008816Y011862D01*
X008816Y012120D01*
X008810Y012120D01*
X008716Y012214D01*
X008716Y012626D01*
X008810Y012720D01*
X009223Y012720D01*
X009316Y012626D01*
X009316Y012214D01*
X009223Y012120D01*
X009216Y012120D01*
X009216Y011628D01*
X008944Y011356D01*
X010244Y011356D01*
X010244Y012057D01*
X010338Y012151D01*
X011050Y012151D01*
X011144Y012057D01*
X011144Y009932D01*
X011209Y009997D01*
X011319Y010043D01*
X011438Y010043D01*
X011548Y009997D01*
X011633Y009913D01*
X011679Y009802D01*
X011679Y009683D01*
X011633Y009573D01*
X011630Y009570D01*
X011674Y009570D01*
X011785Y009525D01*
X011869Y009440D01*
X011915Y009330D01*
X011915Y009211D01*
X011869Y009100D01*
X011785Y009016D01*
X011674Y008970D01*
X011598Y008970D01*
X011543Y008916D01*
X011144Y008916D01*
X011144Y008054D01*
X011050Y007961D01*
X010894Y007961D01*
X010894Y007794D01*
X010891Y007791D01*
X010891Y007715D01*
X010845Y007604D01*
X010761Y007520D01*
X010651Y007474D01*
X010531Y007474D01*
X010421Y007520D01*
X010375Y007567D01*
X010328Y007520D01*
X010218Y007474D01*
X010098Y007474D01*
X009988Y007520D01*
X009941Y007567D01*
X009895Y007520D01*
X009785Y007474D01*
X009665Y007474D01*
X009555Y007520D01*
X009471Y007604D01*
X009425Y007715D01*
X009425Y007834D01*
X009471Y007944D01*
X009525Y007999D01*
X009525Y008526D01*
X009642Y008644D01*
X009684Y008686D01*
X010244Y008686D01*
X010244Y009505D01*
X010173Y009434D01*
X009568Y009434D01*
X009568Y009435D01*
X009567Y009433D01*
X008962Y009433D01*
X008868Y009527D01*
X008868Y009974D01*
X008962Y010068D01*
X009064Y010068D01*
X009064Y010389D01*
X009401Y010726D01*
X010244Y010726D01*
X010244Y010796D01*
X008549Y010796D01*
X008497Y010744D01*
X008487Y010744D01*
X008540Y010691D01*
X008556Y010691D01*
X008610Y010745D01*
X008720Y010791D01*
X008840Y010791D01*
X008950Y010745D01*
X009034Y010661D01*
X009080Y010550D01*
X009080Y010431D01*
X009034Y010321D01*
X008950Y010236D01*
X008840Y010191D01*
X008720Y010191D01*
X008610Y010236D01*
X008556Y010291D01*
X008374Y010291D01*
X008315Y010350D01*
X008098Y010350D01*
X008172Y010276D01*
X008172Y009569D01*
X008183Y009569D01*
X008202Y009588D01*
X008807Y009588D01*
X008901Y009494D01*
X008901Y009047D01*
X008807Y008953D01*
X008202Y008953D01*
X008172Y008982D01*
X008172Y008659D01*
X008079Y008565D01*
X007991Y008565D01*
X008017Y008503D01*
X008017Y008384D01*
X007971Y008274D01*
X007887Y008189D01*
X007777Y008144D01*
X007749Y008144D01*
X007918Y007974D01*
X007965Y007974D01*
X008020Y008029D01*
X008130Y008074D01*
X008249Y008074D01*
X008359Y008029D01*
X008444Y007944D01*
X008490Y007834D01*
X008490Y007715D01*
X008444Y007604D01*
X008359Y007520D01*
X008249Y007474D01*
X008130Y007474D01*
X008020Y007520D01*
X007965Y007574D01*
X007878Y007574D01*
X007878Y007523D01*
X007895Y007523D01*
X008005Y007477D01*
X008090Y007393D01*
X008135Y007283D01*
X008135Y007163D01*
X008090Y007053D01*
X008005Y006969D01*
X007895Y006923D01*
X007776Y006923D01*
X007665Y006969D01*
X007641Y006993D01*
X007641Y006921D01*
X007547Y006827D01*
X007100Y006827D01*
X007006Y006921D01*
X007006Y007526D01*
X007075Y007595D01*
X006869Y007595D01*
X006795Y007669D01*
X006795Y007619D01*
X006838Y007619D01*
X006932Y007526D01*
X006932Y006921D01*
X006838Y006827D01*
X006410Y006827D01*
X006460Y006778D01*
X006460Y006015D01*
X006366Y005921D01*
X006292Y005921D01*
X006342Y005872D01*
X006342Y005395D01*
X006366Y005395D01*
X006379Y005382D01*
X006391Y005395D01*
X007035Y005395D01*
X007129Y005301D01*
X007129Y004578D01*
X007035Y004484D01*
X006391Y004484D01*
X006379Y004497D01*
X006366Y004484D01*
X005722Y004484D01*
X005628Y004578D01*
X005628Y005301D01*
X005707Y005380D01*
X005707Y005872D01*
X005756Y005921D01*
X005682Y005921D01*
X005614Y005990D01*
X005614Y004097D01*
X005673Y004038D01*
X005673Y003781D01*
X005874Y003781D01*
X005968Y003687D01*
X005968Y003023D01*
X005874Y002929D01*
X004816Y002929D01*
X004722Y003023D01*
X004722Y003304D01*
X004721Y003307D01*
X004721Y003698D01*
X004547Y003873D01*
X003879Y003873D01*
X003728Y003722D01*
X003768Y003722D01*
X003810Y003680D01*
X003832Y003702D01*
X004594Y003702D01*
X004688Y003608D01*
X004688Y002925D01*
X004599Y002836D01*
X005441Y002836D01*
X005473Y002804D01*
X005505Y002836D01*
X006347Y002836D01*
X006258Y002925D01*
X006258Y003608D01*
X006352Y003702D01*
X007114Y003702D01*
X007208Y003608D01*
X007208Y002925D01*
X007114Y002831D01*
X006391Y002831D01*
X006479Y002742D01*
X006479Y002718D01*
X007173Y002718D01*
X007267Y002624D01*
X007267Y001980D01*
X007173Y001886D01*
X006479Y001886D01*
X006479Y001862D01*
X006386Y001768D01*
X005505Y001768D01*
X005473Y001800D01*
X005441Y001768D01*
X004560Y001768D01*
X004467Y001862D01*
X004467Y001886D01*
X003773Y001886D01*
X003679Y001980D01*
X003679Y002624D01*
X003773Y002718D01*
X004467Y002718D01*
X004467Y002742D01*
X004555Y002831D01*
X003832Y002831D01*
X003829Y002833D01*
X003768Y002772D01*
X003035Y002772D01*
X003035Y002472D01*
X002941Y002378D01*
X002402Y002378D01*
X002402Y002247D01*
X002308Y002154D01*
X001996Y002154D01*
X001902Y002247D01*
X001902Y002920D01*
X001996Y003014D01*
X002308Y003014D01*
X002322Y003000D01*
X002336Y003013D01*
X002412Y003013D01*
X002435Y003068D01*
X002502Y003135D01*
X002614Y003247D01*
X002381Y003479D01*
X001488Y003479D01*
X001400Y003516D01*
X001333Y003583D01*
X001197Y003719D01*
X001197Y002974D01*
X001236Y003014D01*
X001798Y003014D01*
X001892Y002920D01*
X001892Y002247D01*
X001798Y002154D01*
X001696Y002154D01*
X001696Y002147D02*
X003679Y002147D01*
X003679Y002029D02*
X001696Y002029D01*
X001696Y001910D02*
X003748Y001910D01*
X003679Y002266D02*
X002402Y002266D01*
X001902Y002266D02*
X001892Y002266D01*
X001892Y002384D02*
X001902Y002384D01*
X001892Y002503D02*
X001902Y002503D01*
X001892Y002621D02*
X001902Y002621D01*
X001892Y002740D02*
X001902Y002740D01*
X001892Y002858D02*
X001902Y002858D01*
X001959Y002977D02*
X001835Y002977D01*
X001199Y002977D02*
X001197Y002977D01*
X001197Y003095D02*
X002463Y003095D01*
X002581Y003214D02*
X001197Y003214D01*
X001197Y003332D02*
X002528Y003332D01*
X002410Y003451D02*
X001197Y003451D01*
X001197Y003569D02*
X001346Y003569D01*
X001228Y003688D02*
X001197Y003688D01*
X001197Y004694D02*
X001197Y007142D01*
X001453Y007142D01*
X001493Y007102D01*
X001650Y006944D01*
X001711Y006944D01*
X001711Y006369D01*
X001770Y006310D01*
X001770Y005739D01*
X001863Y005646D01*
X002311Y005646D01*
X002405Y005739D01*
X002405Y006276D01*
X002409Y006276D01*
X002503Y006369D01*
X002503Y006787D01*
X004060Y006787D01*
X004177Y006904D01*
X004417Y007144D01*
X004417Y006871D01*
X004265Y006871D01*
X004171Y006778D01*
X004171Y006015D01*
X004265Y005921D01*
X004339Y005921D01*
X004289Y005872D01*
X004289Y005395D01*
X004265Y005395D01*
X004253Y005382D01*
X004240Y005395D01*
X003596Y005395D01*
X003502Y005301D01*
X003502Y004578D01*
X003596Y004484D01*
X004240Y004484D01*
X004253Y004497D01*
X004265Y004484D01*
X004909Y004484D01*
X005003Y004578D01*
X005003Y005301D01*
X004924Y005380D01*
X004924Y005872D01*
X004875Y005921D01*
X004949Y005921D01*
X005017Y005990D01*
X005017Y004081D01*
X004850Y004249D01*
X004782Y004316D01*
X004694Y004353D01*
X003732Y004353D01*
X003644Y004316D01*
X003211Y003883D01*
X003144Y003816D01*
X003107Y003728D01*
X003107Y003722D01*
X002926Y003722D01*
X002872Y003667D01*
X002617Y003923D01*
X002529Y003959D01*
X002433Y003959D01*
X002394Y003959D01*
X002402Y003967D01*
X002402Y004640D01*
X002392Y004650D01*
X002392Y004703D01*
X002405Y004716D01*
X002405Y005321D01*
X002311Y005415D01*
X001863Y005415D01*
X001770Y005321D01*
X001770Y004734D01*
X001236Y004734D01*
X001197Y004694D01*
X001197Y004754D02*
X001770Y004754D01*
X001770Y004873D02*
X001197Y004873D01*
X001197Y004991D02*
X001770Y004991D01*
X001770Y005110D02*
X001197Y005110D01*
X001197Y005228D02*
X001770Y005228D01*
X001796Y005347D02*
X001197Y005347D01*
X001197Y005465D02*
X004289Y005465D01*
X004289Y005584D02*
X001197Y005584D01*
X001197Y005702D02*
X001807Y005702D01*
X001770Y005821D02*
X001197Y005821D01*
X001197Y005939D02*
X001770Y005939D01*
X001770Y006058D02*
X001197Y006058D01*
X001197Y006176D02*
X001770Y006176D01*
X001770Y006295D02*
X001197Y006295D01*
X001197Y006413D02*
X001711Y006413D01*
X001711Y006532D02*
X001197Y006532D01*
X001197Y006650D02*
X001711Y006650D01*
X001711Y006769D02*
X001197Y006769D01*
X001197Y006887D02*
X001711Y006887D01*
X001588Y007006D02*
X001197Y007006D01*
X001197Y007124D02*
X001470Y007124D01*
X001834Y007344D02*
X001834Y007919D01*
X001740Y008013D01*
X001696Y008013D01*
X001696Y008549D01*
X001684Y008562D01*
X001696Y008574D01*
X001696Y009179D01*
X001684Y009192D01*
X001696Y009204D01*
X001696Y009809D01*
X001684Y009822D01*
X001696Y009834D01*
X001696Y010762D01*
X001770Y010835D01*
X001770Y009834D01*
X001782Y009822D01*
X001770Y009809D01*
X001770Y009204D01*
X001782Y009192D01*
X001770Y009179D01*
X001770Y008574D01*
X001863Y008480D01*
X002311Y008480D01*
X002405Y008574D01*
X002405Y008775D01*
X002852Y008775D01*
X002852Y008659D01*
X002946Y008565D01*
X003650Y008565D01*
X003663Y008578D01*
X004670Y008578D01*
X004704Y008612D01*
X004746Y008510D01*
X004820Y008436D01*
X004820Y008411D01*
X004746Y008485D01*
X004113Y008485D01*
X004020Y008392D01*
X004020Y007688D01*
X004033Y007675D01*
X004033Y007601D01*
X003815Y007384D01*
X003734Y007384D01*
X003743Y007393D01*
X003743Y007998D01*
X003650Y008092D01*
X003202Y008092D01*
X003108Y007998D01*
X003108Y007393D01*
X003118Y007384D01*
X002359Y007384D01*
X002319Y007344D01*
X001834Y007344D01*
X001834Y007361D02*
X002336Y007361D01*
X001834Y007480D02*
X003108Y007480D01*
X003108Y007598D02*
X001834Y007598D01*
X001834Y007717D02*
X003108Y007717D01*
X003108Y007835D02*
X001834Y007835D01*
X001799Y007954D02*
X003108Y007954D01*
X003183Y008072D02*
X001696Y008072D01*
X001696Y008191D02*
X004020Y008191D01*
X004020Y008309D02*
X001696Y008309D01*
X001696Y008428D02*
X004056Y008428D01*
X004020Y008072D02*
X003669Y008072D01*
X003743Y007954D02*
X004020Y007954D01*
X004020Y007835D02*
X003743Y007835D01*
X003743Y007717D02*
X004020Y007717D01*
X004030Y007598D02*
X003743Y007598D01*
X003743Y007480D02*
X003912Y007480D01*
X004397Y007124D02*
X004417Y007124D01*
X004417Y007006D02*
X004279Y007006D01*
X004160Y006887D02*
X004417Y006887D01*
X004171Y006769D02*
X002503Y006769D01*
X002503Y006650D02*
X004171Y006650D01*
X004171Y006532D02*
X002503Y006532D01*
X002503Y006413D02*
X004171Y006413D01*
X004171Y006295D02*
X002429Y006295D01*
X002405Y006176D02*
X004171Y006176D01*
X004171Y006058D02*
X002405Y006058D01*
X002405Y005939D02*
X004247Y005939D01*
X004289Y005821D02*
X002405Y005821D01*
X002368Y005702D02*
X004289Y005702D01*
X004924Y005702D02*
X005017Y005702D01*
X005017Y005584D02*
X004924Y005584D01*
X004924Y005465D02*
X005017Y005465D01*
X005017Y005347D02*
X004957Y005347D01*
X005003Y005228D02*
X005017Y005228D01*
X005003Y005110D02*
X005017Y005110D01*
X005003Y004991D02*
X005017Y004991D01*
X005003Y004873D02*
X005017Y004873D01*
X005003Y004754D02*
X005017Y004754D01*
X005003Y004636D02*
X005017Y004636D01*
X005017Y004517D02*
X004942Y004517D01*
X005017Y004399D02*
X002402Y004399D01*
X002402Y004517D02*
X003563Y004517D01*
X003502Y004636D02*
X002402Y004636D01*
X002405Y004754D02*
X003502Y004754D01*
X003502Y004873D02*
X002405Y004873D01*
X002405Y004991D02*
X003502Y004991D01*
X003502Y005110D02*
X002405Y005110D01*
X002405Y005228D02*
X003502Y005228D01*
X003548Y005347D02*
X002379Y005347D01*
X002402Y004280D02*
X003608Y004280D01*
X003490Y004162D02*
X002402Y004162D01*
X002402Y004043D02*
X003371Y004043D01*
X003253Y003925D02*
X002611Y003925D01*
X002733Y003806D02*
X003140Y003806D01*
X002893Y003688D02*
X002851Y003688D01*
X003801Y003688D02*
X003818Y003688D01*
X003813Y003806D02*
X004613Y003806D01*
X004608Y003688D02*
X004721Y003688D01*
X004721Y003569D02*
X004688Y003569D01*
X004688Y003451D02*
X004721Y003451D01*
X004721Y003332D02*
X004688Y003332D01*
X004688Y003214D02*
X004722Y003214D01*
X004722Y003095D02*
X004688Y003095D01*
X004688Y002977D02*
X004768Y002977D01*
X004622Y002858D02*
X006324Y002858D01*
X006258Y002977D02*
X005922Y002977D01*
X005968Y003095D02*
X006258Y003095D01*
X006258Y003214D02*
X005968Y003214D01*
X005968Y003332D02*
X006258Y003332D01*
X006258Y003451D02*
X005968Y003451D01*
X005968Y003569D02*
X006258Y003569D01*
X006338Y003688D02*
X005967Y003688D01*
X005673Y003806D02*
X008652Y003806D01*
X008675Y003784D02*
X008675Y003784D01*
X008686Y003773D01*
X008698Y003761D01*
X008709Y003761D01*
X008732Y003738D01*
X008744Y003738D01*
X008755Y003727D01*
X008801Y003727D01*
X008813Y003715D01*
X008980Y003715D01*
X008991Y003727D01*
X009026Y003727D01*
X009034Y003735D01*
X009066Y003704D01*
X009279Y003704D01*
X009290Y003715D01*
X009313Y003715D01*
X009336Y003738D01*
X009348Y003738D01*
X009441Y003832D01*
X009453Y003843D01*
X009453Y003843D01*
X009464Y003855D01*
X009476Y003866D01*
X009476Y003878D01*
X009487Y003889D01*
X009487Y003901D01*
X009499Y003912D01*
X009499Y003935D01*
X009510Y003947D01*
X009510Y004121D01*
X009595Y004037D01*
X009606Y004026D01*
X009618Y004014D01*
X009629Y004014D01*
X009652Y003991D01*
X009664Y003991D01*
X009687Y003968D01*
X009710Y003968D01*
X009721Y003957D01*
X009733Y003957D01*
X009744Y003945D01*
X009767Y003945D01*
X009779Y003934D01*
X009802Y003934D01*
X009813Y003922D01*
X009871Y003922D01*
X009882Y003911D01*
X010118Y003911D01*
X010130Y003922D01*
X010187Y003922D01*
X010199Y003934D01*
X010222Y003934D01*
X010233Y003945D01*
X010256Y003945D01*
X010268Y003957D01*
X010291Y003957D01*
X010302Y003968D01*
X010314Y003968D01*
X010325Y003980D01*
X010337Y003991D01*
X010348Y003991D01*
X010371Y004014D01*
X010383Y004014D01*
X010429Y004060D01*
X010522Y004154D01*
X010534Y004165D01*
X010545Y004177D01*
X010557Y004188D01*
X010557Y004188D01*
X010568Y004200D01*
X010568Y004204D01*
X010579Y004215D01*
X010579Y004222D01*
X010591Y004234D01*
X010603Y004246D01*
X010603Y004257D01*
X010614Y004269D01*
X010614Y004280D01*
X010626Y004292D01*
X010626Y004303D01*
X010637Y004315D01*
X010637Y004326D01*
X010649Y004338D01*
X010649Y004361D01*
X010660Y004372D01*
X010660Y004407D01*
X010672Y004418D01*
X010672Y004476D01*
X010683Y004487D01*
X010683Y004689D01*
X010672Y004700D01*
X010672Y004769D01*
X010660Y004781D01*
X010660Y004815D01*
X010649Y004827D01*
X010649Y004850D01*
X010637Y004861D01*
X010637Y004873D01*
X011885Y004873D01*
X011885Y004991D02*
X010565Y004991D01*
X010568Y004988D02*
X010545Y005011D01*
X010534Y005022D01*
X010522Y005034D01*
X010429Y005128D01*
X010429Y005128D01*
X010419Y005137D01*
X010419Y005137D01*
X010364Y005192D01*
X010371Y005199D01*
X010475Y005199D01*
X010486Y005210D01*
X010486Y005210D01*
X010580Y005304D01*
X010580Y005315D01*
X010591Y005327D01*
X010591Y005338D01*
X010603Y005350D01*
X010603Y005373D01*
X010614Y005384D01*
X010614Y005568D01*
X010626Y005580D01*
X010626Y005591D01*
X010637Y005603D01*
X010637Y005614D01*
X010649Y005626D01*
X010649Y005649D01*
X010660Y005660D01*
X010660Y005695D01*
X010672Y005706D01*
X010672Y005764D01*
X010683Y005775D01*
X010683Y005988D01*
X010672Y006000D01*
X010672Y006057D01*
X010660Y006069D01*
X010660Y006103D01*
X010649Y006115D01*
X010649Y006138D01*
X010637Y006149D01*
X010637Y006161D01*
X010626Y006172D01*
X010626Y006184D01*
X010614Y006195D01*
X010614Y006207D01*
X010603Y006218D01*
X010603Y006230D01*
X010591Y006241D01*
X010591Y006241D01*
X010568Y006264D01*
X010568Y006276D01*
X010557Y006287D01*
X010557Y006287D01*
X010545Y006299D01*
X010534Y006310D01*
X010522Y006322D01*
X010429Y006416D01*
X010406Y006439D01*
X010394Y006450D01*
X010383Y006450D01*
X010348Y006485D01*
X010337Y006485D01*
X010325Y006496D01*
X010314Y006496D01*
X010302Y006508D01*
X010291Y006508D01*
X010279Y006519D01*
X010256Y006519D01*
X010245Y006531D01*
X010233Y006531D01*
X010222Y006531D01*
X010210Y006542D01*
X010187Y006542D01*
X010176Y006554D01*
X010118Y006554D01*
X009882Y006554D01*
X009882Y006554D01*
X009836Y006554D01*
X009825Y006542D01*
X009790Y006542D01*
X009779Y006531D01*
X009767Y006531D01*
X009756Y006531D01*
X009744Y006519D01*
X009733Y006519D01*
X009733Y006519D01*
X009721Y006519D01*
X009710Y006508D01*
X009710Y006508D01*
X009710Y006508D01*
X009698Y006508D01*
X009687Y006496D01*
X009675Y006496D01*
X009664Y006485D01*
X009664Y006485D01*
X009652Y006473D01*
X009641Y006473D01*
X009618Y006450D01*
X009606Y006450D01*
X009595Y006439D01*
X009595Y006439D01*
X009510Y006354D01*
X009510Y006494D01*
X009499Y006506D01*
X009499Y006529D01*
X009487Y006540D01*
X009487Y006563D01*
X009464Y006586D01*
X009464Y006598D01*
X009453Y006609D01*
X009359Y006703D01*
X009348Y006715D01*
X009336Y006715D01*
X009325Y006726D01*
X009313Y006726D01*
X009302Y006738D01*
X009267Y006738D01*
X009256Y006749D01*
X009077Y006749D01*
X009066Y006738D01*
X009043Y006738D01*
X009043Y006738D01*
X009031Y006738D01*
X009020Y006726D01*
X009020Y006726D01*
X009020Y006726D01*
X009008Y006726D01*
X008997Y006715D01*
X008985Y006715D01*
X008982Y006712D01*
X008968Y006726D01*
X008767Y006726D01*
X008755Y006715D01*
X008732Y006715D01*
X008675Y006657D01*
X008675Y006657D01*
X008581Y006563D01*
X008581Y006552D01*
X008569Y006540D01*
X008569Y006529D01*
X008558Y006517D01*
X008558Y006494D01*
X008546Y006483D01*
X008546Y006224D01*
X008558Y006212D01*
X008558Y006189D01*
X008569Y006178D01*
X008569Y006166D01*
X008581Y006155D01*
X008581Y006143D01*
X008658Y006066D01*
X008627Y006034D01*
X008627Y006023D01*
X008604Y006000D01*
X008592Y005988D01*
X008592Y005977D01*
X008581Y005965D01*
X008581Y005954D01*
X008569Y005942D01*
X008569Y005896D01*
X008558Y005885D01*
X008558Y005488D01*
X008641Y005405D01*
X008558Y005321D01*
X008558Y005108D01*
X008569Y005097D01*
X008581Y005085D01*
X008641Y005025D01*
X008558Y004942D01*
X008558Y004384D01*
X008607Y004335D01*
X008604Y004332D01*
X008592Y004321D01*
X008592Y004309D01*
X008581Y004298D01*
X008581Y004298D01*
X008569Y004286D01*
X008569Y004263D01*
X008558Y004252D01*
X008558Y004229D01*
X008546Y004217D01*
X008546Y003958D01*
X008558Y003947D01*
X008558Y003924D01*
X008569Y003912D01*
X008569Y003901D01*
X008581Y003889D01*
X008581Y003878D01*
X008675Y003784D01*
X008558Y003925D02*
X005673Y003925D01*
X005668Y004043D02*
X008546Y004043D01*
X008546Y004162D02*
X005614Y004162D01*
X005614Y004280D02*
X008569Y004280D01*
X008604Y004332D02*
X008604Y004332D01*
X008558Y004399D02*
X005614Y004399D01*
X005614Y004517D02*
X005689Y004517D01*
X005628Y004636D02*
X005614Y004636D01*
X005614Y004754D02*
X005628Y004754D01*
X005614Y004873D02*
X005628Y004873D01*
X005614Y004991D02*
X005628Y004991D01*
X005614Y005110D02*
X005628Y005110D01*
X005614Y005228D02*
X005628Y005228D01*
X005614Y005347D02*
X005674Y005347D01*
X005707Y005465D02*
X005614Y005465D01*
X005614Y005584D02*
X005707Y005584D01*
X005707Y005702D02*
X005614Y005702D01*
X005614Y005821D02*
X005707Y005821D01*
X005664Y005939D02*
X005614Y005939D01*
X005017Y005939D02*
X004967Y005939D01*
X004924Y005821D02*
X005017Y005821D01*
X005017Y006803D02*
X004949Y006871D01*
X004837Y006871D01*
X004837Y007659D01*
X004901Y007595D01*
X005017Y007595D01*
X005017Y006803D01*
X005017Y006887D02*
X004837Y006887D01*
X004837Y007006D02*
X005017Y007006D01*
X005017Y007124D02*
X004837Y007124D01*
X004837Y007243D02*
X005017Y007243D01*
X005017Y007361D02*
X004837Y007361D01*
X004837Y007480D02*
X005017Y007480D01*
X004897Y007598D02*
X004837Y007598D01*
X004803Y008428D02*
X004820Y008428D01*
X004731Y008546D02*
X002377Y008546D01*
X002405Y008665D02*
X002852Y008665D01*
X001797Y008546D02*
X001696Y008546D01*
X001696Y008665D02*
X001770Y008665D01*
X001770Y008783D02*
X001696Y008783D01*
X001696Y008902D02*
X001770Y008902D01*
X001770Y009020D02*
X001696Y009020D01*
X001696Y009139D02*
X001770Y009139D01*
X001770Y009257D02*
X001696Y009257D01*
X001696Y009376D02*
X001770Y009376D01*
X001770Y009494D02*
X001696Y009494D01*
X001696Y009613D02*
X001770Y009613D01*
X001770Y009731D02*
X001696Y009731D01*
X001696Y009850D02*
X001770Y009850D01*
X001770Y009968D02*
X001696Y009968D01*
X001696Y010087D02*
X001770Y010087D01*
X001770Y010205D02*
X001696Y010205D01*
X001696Y010324D02*
X001770Y010324D01*
X001770Y010442D02*
X001696Y010442D01*
X001696Y010561D02*
X001770Y010561D01*
X001770Y010679D02*
X001696Y010679D01*
X001732Y010798D02*
X001770Y010798D01*
X002996Y011944D02*
X002996Y012810D01*
X003076Y012890D01*
X003413Y012890D01*
X003507Y012984D01*
X003507Y013589D01*
X003413Y013682D01*
X002966Y013682D01*
X002872Y013589D01*
X002872Y013251D01*
X002720Y013100D01*
X002720Y013400D01*
X002721Y013401D01*
X002838Y013518D01*
X002838Y014030D01*
X002997Y014188D01*
X003896Y014188D01*
X003896Y013889D01*
X003989Y013795D01*
X004437Y013795D01*
X004531Y013889D01*
X004531Y015085D01*
X004506Y015110D01*
X004629Y015110D01*
X004604Y015085D01*
X004604Y013889D01*
X004698Y013795D01*
X005146Y013795D01*
X005148Y013798D01*
X005151Y013795D01*
X005756Y013795D01*
X005850Y013889D01*
X005850Y015085D01*
X005825Y015110D01*
X005909Y015110D01*
X005884Y015085D01*
X005884Y013889D01*
X005933Y013840D01*
X005800Y013840D01*
X005707Y013746D01*
X005707Y012984D01*
X005776Y012915D01*
X005446Y012915D01*
X005515Y012984D01*
X005515Y013589D01*
X005421Y013682D01*
X004974Y013682D01*
X004880Y013589D01*
X004880Y012984D01*
X004949Y012915D01*
X004310Y012915D01*
X004233Y012837D01*
X004155Y012915D01*
X003917Y012915D01*
X003823Y012821D01*
X003823Y012117D01*
X003917Y012024D01*
X004155Y012024D01*
X004233Y012101D01*
X004310Y012024D01*
X005479Y012024D01*
X005416Y011960D01*
X005370Y011850D01*
X005370Y011730D01*
X005416Y011620D01*
X005500Y011536D01*
X005610Y011490D01*
X005724Y011490D01*
X005724Y011415D01*
X005770Y011305D01*
X005854Y011221D01*
X005874Y011213D01*
X005717Y011213D01*
X005442Y011488D01*
X005107Y011823D01*
X004989Y011941D01*
X003653Y011941D01*
X003650Y011944D01*
X002996Y011944D01*
X002996Y011983D02*
X005439Y011983D01*
X005376Y011864D02*
X005066Y011864D01*
X005184Y011746D02*
X005370Y011746D01*
X005412Y011627D02*
X005303Y011627D01*
X005421Y011509D02*
X005564Y011509D01*
X005540Y011390D02*
X005734Y011390D01*
X005803Y011272D02*
X005658Y011272D01*
X005420Y010916D02*
X003743Y010916D01*
X003743Y010798D02*
X005538Y010798D01*
X005543Y010793D02*
X005982Y010793D01*
X005982Y010456D01*
X005312Y009786D01*
X005182Y009656D01*
X005182Y009724D01*
X005137Y009834D01*
X005052Y009918D01*
X004942Y009964D01*
X004823Y009964D01*
X004713Y009918D01*
X004646Y009852D01*
X004580Y009918D01*
X004470Y009964D01*
X004350Y009964D01*
X004240Y009918D01*
X004174Y009852D01*
X004107Y009918D01*
X003997Y009964D01*
X003878Y009964D01*
X003768Y009918D01*
X003743Y009894D01*
X003743Y011260D01*
X003666Y011337D01*
X003743Y011415D01*
X003743Y011521D01*
X004815Y011521D01*
X005145Y011191D01*
X005420Y010916D01*
X005543Y010793D01*
X005301Y011035D02*
X003743Y011035D01*
X003743Y011153D02*
X005183Y011153D01*
X005064Y011272D02*
X003731Y011272D01*
X003719Y011390D02*
X004946Y011390D01*
X004827Y011509D02*
X003743Y011509D01*
X003839Y012101D02*
X002996Y012101D01*
X002996Y012220D02*
X003823Y012220D01*
X003823Y012338D02*
X002996Y012338D01*
X002996Y012457D02*
X003823Y012457D01*
X003823Y012575D02*
X002996Y012575D01*
X002996Y012694D02*
X003823Y012694D01*
X003823Y012812D02*
X002999Y012812D01*
X002789Y013168D02*
X002720Y013168D01*
X002720Y013286D02*
X002872Y013286D01*
X002872Y013405D02*
X002725Y013405D01*
X002838Y013524D02*
X002872Y013524D01*
X002838Y013642D02*
X002925Y013642D01*
X002838Y013761D02*
X005721Y013761D01*
X005707Y013642D02*
X005461Y013642D01*
X005515Y013524D02*
X005707Y013524D01*
X005707Y013405D02*
X005515Y013405D01*
X005515Y013286D02*
X005707Y013286D01*
X005707Y013168D02*
X005515Y013168D01*
X005515Y013049D02*
X005707Y013049D01*
X005759Y012931D02*
X005462Y012931D01*
X004933Y012931D02*
X003454Y012931D01*
X003507Y013049D02*
X004880Y013049D01*
X004880Y013168D02*
X003507Y013168D01*
X003507Y013286D02*
X004880Y013286D01*
X004880Y013405D02*
X003507Y013405D01*
X003507Y013524D02*
X004880Y013524D01*
X004933Y013642D02*
X003454Y013642D01*
X003906Y013879D02*
X002838Y013879D01*
X002838Y013998D02*
X003896Y013998D01*
X003896Y014116D02*
X002924Y014116D01*
X002202Y014116D02*
X002090Y014116D01*
X002090Y013998D02*
X002202Y013998D01*
X002202Y013879D02*
X002090Y013879D01*
X002090Y013761D02*
X002202Y013761D01*
X002202Y013723D02*
X002123Y013645D01*
X002123Y012532D01*
X002060Y012596D01*
X001950Y012641D01*
X001915Y012641D01*
X001915Y012716D01*
X001869Y012826D01*
X001785Y012910D01*
X001674Y012956D01*
X001639Y012956D01*
X001639Y013070D01*
X001593Y013180D01*
X001509Y013265D01*
X001399Y013310D01*
X001279Y013310D01*
X001197Y013276D01*
X001197Y013586D01*
X001214Y013569D01*
X001996Y013569D01*
X002090Y013663D01*
X002090Y014268D01*
X001996Y014361D01*
X001657Y014361D01*
X001696Y014401D01*
X001696Y015006D01*
X001602Y015100D01*
X001197Y015100D01*
X001197Y015110D01*
X002604Y015110D01*
X002517Y015022D01*
X002202Y014708D01*
X002202Y013723D01*
X002123Y013642D02*
X002069Y013642D01*
X002123Y013524D02*
X001197Y013524D01*
X001197Y013405D02*
X002123Y013405D01*
X002123Y013286D02*
X001457Y013286D01*
X001599Y013168D02*
X002123Y013168D01*
X002123Y013049D02*
X001639Y013049D01*
X001735Y012931D02*
X002123Y012931D01*
X002123Y012812D02*
X001875Y012812D01*
X001915Y012694D02*
X002123Y012694D01*
X002123Y012575D02*
X002080Y012575D01*
X001222Y013286D02*
X001197Y013286D01*
X002090Y014235D02*
X002202Y014235D01*
X002202Y014353D02*
X002004Y014353D01*
X002202Y014472D02*
X001696Y014472D01*
X001696Y014590D02*
X002202Y014590D01*
X002203Y014709D02*
X001696Y014709D01*
X001696Y014827D02*
X002322Y014827D01*
X002440Y014946D02*
X001696Y014946D01*
X001638Y015064D02*
X002559Y015064D01*
X004531Y015064D02*
X004604Y015064D01*
X004604Y014946D02*
X004531Y014946D01*
X004531Y014827D02*
X004604Y014827D01*
X004604Y014709D02*
X004531Y014709D01*
X004531Y014590D02*
X004604Y014590D01*
X004604Y014472D02*
X004531Y014472D01*
X004531Y014353D02*
X004604Y014353D01*
X004604Y014235D02*
X004531Y014235D01*
X004531Y014116D02*
X004604Y014116D01*
X004604Y013998D02*
X004531Y013998D01*
X004521Y013879D02*
X004614Y013879D01*
X005839Y013879D02*
X005894Y013879D01*
X005884Y013998D02*
X005850Y013998D01*
X005850Y014116D02*
X005884Y014116D01*
X005884Y014235D02*
X005850Y014235D01*
X005850Y014353D02*
X005884Y014353D01*
X005884Y014472D02*
X005850Y014472D01*
X005850Y014590D02*
X005884Y014590D01*
X005884Y014709D02*
X005850Y014709D01*
X005850Y014827D02*
X005884Y014827D01*
X005884Y014946D02*
X005850Y014946D01*
X005850Y015064D02*
X005884Y015064D01*
X006676Y015064D02*
X013226Y015064D01*
X013226Y014946D02*
X006676Y014946D01*
X006676Y014827D02*
X013226Y014827D01*
X013226Y014709D02*
X006676Y014709D01*
X006676Y014590D02*
X013148Y014590D01*
X013029Y014472D02*
X006676Y014472D01*
X006676Y014353D02*
X011038Y014353D01*
X010982Y014235D02*
X006676Y014235D01*
X006676Y014116D02*
X010982Y014116D01*
X010982Y013998D02*
X006676Y013998D01*
X006666Y013879D02*
X010902Y013879D01*
X010786Y013761D02*
X006563Y013761D01*
X006578Y013642D02*
X010737Y013642D01*
X010691Y013524D02*
X006578Y013524D01*
X006578Y013405D02*
X010691Y013405D01*
X010691Y013286D02*
X006578Y013286D01*
X006578Y013168D02*
X010736Y013168D01*
X010786Y013049D02*
X006578Y013049D01*
X006525Y012931D02*
X010900Y012931D01*
X011092Y012812D02*
X007202Y012812D01*
X007202Y012694D02*
X008784Y012694D01*
X008716Y012575D02*
X007202Y012575D01*
X007202Y012457D02*
X008716Y012457D01*
X008716Y012338D02*
X007202Y012338D01*
X007202Y012220D02*
X008716Y012220D01*
X008816Y012101D02*
X007186Y012101D01*
X007296Y011864D02*
X006617Y011864D01*
X006628Y011746D02*
X007281Y011746D01*
X007281Y011627D02*
X006628Y011627D01*
X006628Y011509D02*
X007281Y011509D01*
X007281Y011390D02*
X006628Y011390D01*
X006628Y011272D02*
X007281Y011272D01*
X007281Y011153D02*
X007182Y011153D01*
X006913Y011153D02*
X006628Y011153D01*
X006550Y011035D02*
X006785Y011035D01*
X006748Y010916D02*
X006432Y010916D01*
X006419Y010798D02*
X006382Y010798D01*
X005982Y010679D02*
X003743Y010679D01*
X003743Y010561D02*
X005982Y010561D01*
X005969Y010442D02*
X003743Y010442D01*
X003743Y010324D02*
X005850Y010324D01*
X005732Y010205D02*
X003743Y010205D01*
X003743Y010087D02*
X005613Y010087D01*
X005495Y009968D02*
X003743Y009968D01*
X005121Y009850D02*
X005376Y009850D01*
X005258Y009731D02*
X005179Y009731D01*
X005512Y009421D02*
X006001Y008932D01*
X006001Y008405D01*
X005988Y008392D01*
X005988Y007688D01*
X006082Y007595D01*
X006321Y007595D01*
X006395Y007669D01*
X006395Y007619D01*
X006391Y007619D01*
X006297Y007526D01*
X006297Y006921D01*
X006347Y006871D01*
X005846Y006871D01*
X005821Y006897D01*
X005821Y007685D01*
X005824Y007688D01*
X005824Y008392D01*
X005730Y008485D01*
X005230Y008485D01*
X005255Y008510D01*
X005301Y008620D01*
X005301Y008739D01*
X005255Y008850D01*
X005170Y008934D01*
X005068Y008976D01*
X005512Y009421D01*
X005468Y009376D02*
X005557Y009376D01*
X005675Y009257D02*
X005349Y009257D01*
X005231Y009139D02*
X005794Y009139D01*
X005912Y009020D02*
X005112Y009020D01*
X005203Y008902D02*
X006001Y008902D01*
X006001Y008783D02*
X005282Y008783D01*
X005301Y008665D02*
X006001Y008665D01*
X006001Y008546D02*
X005270Y008546D01*
X005788Y008428D02*
X006001Y008428D01*
X005988Y008309D02*
X005824Y008309D01*
X005824Y008191D02*
X005988Y008191D01*
X005988Y008072D02*
X005824Y008072D01*
X005824Y007954D02*
X005988Y007954D01*
X005988Y007835D02*
X005824Y007835D01*
X005824Y007717D02*
X005988Y007717D01*
X006078Y007598D02*
X005821Y007598D01*
X005821Y007480D02*
X006297Y007480D01*
X006297Y007361D02*
X005821Y007361D01*
X005821Y007243D02*
X006297Y007243D01*
X006297Y007124D02*
X005821Y007124D01*
X005821Y007006D02*
X006297Y007006D01*
X006330Y006887D02*
X005830Y006887D01*
X006460Y006769D02*
X011364Y006769D01*
X011364Y006887D02*
X007608Y006887D01*
X008042Y007006D02*
X011292Y007006D01*
X011199Y007124D02*
X008119Y007124D01*
X008135Y007243D02*
X011199Y007243D01*
X011199Y007361D02*
X008103Y007361D01*
X008116Y007480D02*
X007999Y007480D01*
X008263Y007480D02*
X009651Y007480D01*
X009798Y007480D02*
X010085Y007480D01*
X010231Y007480D02*
X010518Y007480D01*
X010665Y007480D02*
X011199Y007480D01*
X011199Y007598D02*
X010840Y007598D01*
X010891Y007717D02*
X011199Y007717D01*
X011222Y007835D02*
X010894Y007835D01*
X010894Y007954D02*
X011259Y007954D01*
X011186Y008072D02*
X011144Y008072D01*
X011144Y008191D02*
X011173Y008191D01*
X011144Y008309D02*
X011209Y008309D01*
X011144Y008428D02*
X011326Y008428D01*
X011473Y008546D02*
X011144Y008546D01*
X011144Y008665D02*
X011546Y008665D01*
X011784Y008783D02*
X011144Y008783D01*
X011144Y008902D02*
X011775Y008902D01*
X011789Y009020D02*
X011815Y009020D01*
X011885Y009139D02*
X011953Y009139D01*
X011915Y009257D02*
X015444Y009257D01*
X015444Y009139D02*
X012197Y009139D01*
X012336Y009020D02*
X015444Y009020D01*
X015444Y008902D02*
X012375Y008902D01*
X012366Y008783D02*
X013223Y008783D01*
X012861Y008665D02*
X012577Y008665D01*
X012654Y008546D02*
X012772Y008546D01*
X013365Y007954D02*
X016581Y007954D01*
X016620Y007835D02*
X015365Y007835D01*
X015389Y007717D02*
X016620Y007717D01*
X016620Y007598D02*
X015389Y007598D01*
X015389Y007480D02*
X017993Y007480D01*
X017993Y007598D02*
X017413Y007598D01*
X017413Y007717D02*
X017993Y007717D01*
X017993Y007835D02*
X017413Y007835D01*
X017413Y007954D02*
X017993Y007954D01*
X017993Y008072D02*
X017366Y008072D01*
X016910Y008191D02*
X017993Y008191D01*
X017993Y008309D02*
X016791Y008309D01*
X016930Y008428D02*
X017993Y008428D01*
X017993Y008546D02*
X017011Y008546D01*
X017011Y008665D02*
X017993Y008665D01*
X017993Y008783D02*
X017011Y008783D01*
X017011Y008902D02*
X017993Y008902D01*
X017993Y009020D02*
X017011Y009020D01*
X016986Y009139D02*
X017993Y009139D01*
X017993Y009257D02*
X016344Y009257D01*
X016344Y009139D02*
X016401Y009139D01*
X016376Y009020D02*
X016344Y009020D01*
X016344Y009376D02*
X017993Y009376D01*
X017993Y009494D02*
X016344Y009494D01*
X016344Y009613D02*
X017993Y009613D01*
X017993Y009731D02*
X016975Y009731D01*
X017006Y009850D02*
X017993Y009850D01*
X017993Y009968D02*
X017006Y009968D01*
X017006Y010087D02*
X017993Y010087D01*
X017993Y010205D02*
X017006Y010205D01*
X017006Y010324D02*
X017993Y010324D01*
X017993Y010442D02*
X016932Y010442D01*
X016980Y010798D02*
X017993Y010798D01*
X017993Y010916D02*
X017021Y010916D01*
X017021Y011035D02*
X017993Y011035D01*
X017993Y011153D02*
X017021Y011153D01*
X017021Y011272D02*
X017993Y011272D01*
X017993Y011390D02*
X017021Y011390D01*
X016957Y011509D02*
X017993Y011509D01*
X017993Y011627D02*
X017169Y011627D01*
X017288Y011746D02*
X017993Y011746D01*
X017993Y011864D02*
X017324Y011864D01*
X017311Y011983D02*
X017993Y011983D01*
X017993Y012101D02*
X017239Y012101D01*
X017220Y012220D02*
X017993Y012220D01*
X017993Y012338D02*
X017101Y012338D01*
X016502Y012931D02*
X017993Y012931D01*
X017993Y013049D02*
X016620Y013049D01*
X016679Y013168D02*
X017993Y013168D01*
X017993Y013286D02*
X016727Y013286D01*
X016727Y013405D02*
X017993Y013405D01*
X017993Y013524D02*
X016727Y013524D01*
X016678Y013642D02*
X017993Y013642D01*
X017993Y013761D02*
X016619Y013761D01*
X016653Y013879D02*
X017993Y013879D01*
X017993Y013998D02*
X016884Y013998D01*
X016971Y014116D02*
X017993Y014116D01*
X017993Y014235D02*
X016993Y014235D01*
X016968Y014353D02*
X017993Y014353D01*
X017993Y014472D02*
X016877Y014472D01*
X016693Y014231D02*
X016539Y014076D01*
X015831Y014076D01*
X015200Y014076D01*
X015200Y014076D01*
X014803Y014116D02*
X013342Y014116D01*
X013342Y013998D02*
X014803Y013998D01*
X014720Y013879D02*
X013342Y013879D01*
X013342Y013761D02*
X013539Y013761D01*
X013420Y013642D02*
X013368Y013642D01*
X012942Y013761D02*
X012880Y013761D01*
X012942Y013879D02*
X012761Y013879D01*
X012680Y013998D02*
X012942Y013998D01*
X012942Y014116D02*
X012680Y014116D01*
X012680Y014235D02*
X012942Y014235D01*
X012942Y014353D02*
X011719Y014353D01*
X013358Y014235D02*
X014803Y014235D01*
X014857Y014353D02*
X013476Y014353D01*
X013595Y014472D02*
X014219Y014472D01*
X014837Y014472D02*
X016510Y014472D01*
X016419Y014353D02*
X016174Y014353D01*
X017085Y014946D02*
X014924Y014946D01*
X014924Y014827D02*
X017169Y014827D01*
X017063Y015064D02*
X014866Y015064D01*
X014924Y014709D02*
X017993Y014709D01*
X017993Y014827D02*
X017556Y014827D01*
X017641Y014946D02*
X017993Y014946D01*
X017993Y015064D02*
X017663Y015064D01*
X017993Y014590D02*
X014924Y014590D01*
X015324Y013524D02*
X015532Y013524D01*
X015532Y013405D02*
X015205Y013405D01*
X015087Y013286D02*
X015532Y013286D01*
X015580Y013168D02*
X014968Y013168D01*
X015351Y013049D02*
X015639Y013049D01*
X015757Y012931D02*
X015389Y012931D01*
X015389Y012812D02*
X015996Y012812D01*
X016263Y012812D02*
X017993Y012812D01*
X017993Y012694D02*
X015389Y012694D01*
X015389Y012575D02*
X017993Y012575D01*
X017993Y012457D02*
X015389Y012457D01*
X015389Y012338D02*
X016004Y012338D01*
X015885Y012220D02*
X015309Y012220D01*
X015224Y012101D02*
X015488Y012101D01*
X015444Y011983D02*
X015224Y011983D01*
X015296Y011864D02*
X015444Y011864D01*
X015444Y011746D02*
X015382Y011746D01*
X015382Y011627D02*
X015444Y011627D01*
X015444Y011509D02*
X015382Y011509D01*
X015444Y011390D02*
X015444Y011390D01*
X014961Y011035D02*
X014843Y011035D01*
X014947Y010916D02*
X012712Y010916D01*
X012713Y011035D02*
X012662Y011035D01*
X012831Y010798D02*
X014886Y010798D01*
X014882Y010679D02*
X012949Y010679D01*
X013068Y010561D02*
X014926Y010561D01*
X015085Y010442D02*
X013327Y010442D01*
X013389Y010324D02*
X015444Y010324D01*
X015444Y010442D02*
X015279Y010442D01*
X015438Y010561D02*
X015444Y010561D01*
X015444Y010205D02*
X013395Y010205D01*
X013352Y010087D02*
X015444Y010087D01*
X015444Y009968D02*
X013198Y009968D01*
X012992Y009968D02*
X012206Y009968D01*
X012300Y010087D02*
X012838Y010087D01*
X012795Y010205D02*
X012328Y010205D01*
X012308Y010324D02*
X012739Y010324D01*
X012620Y010442D02*
X012228Y010442D01*
X012228Y010561D02*
X012502Y010561D01*
X012383Y010679D02*
X012228Y010679D01*
X012228Y010798D02*
X012265Y010798D01*
X012241Y010916D02*
X012228Y010916D01*
X011828Y010916D02*
X011144Y010916D01*
X011144Y010798D02*
X011828Y010798D01*
X011828Y010679D02*
X011144Y010679D01*
X011144Y010561D02*
X011828Y010561D01*
X011828Y010442D02*
X011144Y010442D01*
X011144Y010324D02*
X011748Y010324D01*
X011728Y010205D02*
X011144Y010205D01*
X011144Y010087D02*
X011757Y010087D01*
X011851Y009968D02*
X011577Y009968D01*
X011659Y009850D02*
X015444Y009850D01*
X015478Y009731D02*
X011679Y009731D01*
X011649Y009613D02*
X015444Y009613D01*
X015444Y009494D02*
X011815Y009494D01*
X011896Y009376D02*
X015444Y009376D01*
X015444Y008783D02*
X013707Y008783D01*
X013763Y008665D02*
X015444Y008665D01*
X015444Y008546D02*
X013765Y008546D01*
X013716Y008428D02*
X015444Y008428D01*
X015444Y008309D02*
X013665Y008309D01*
X013602Y008191D02*
X015444Y008191D01*
X015444Y008072D02*
X013483Y008072D01*
X013094Y006887D02*
X011764Y006887D01*
X011764Y006769D02*
X013094Y006769D01*
X013064Y006650D02*
X011764Y006650D01*
X011364Y006650D02*
X009412Y006650D01*
X009359Y006703D02*
X009359Y006703D01*
X009313Y006726D02*
X009313Y006726D01*
X009313Y006726D01*
X009496Y006532D02*
X009780Y006532D01*
X009767Y006531D02*
X009767Y006531D01*
X009569Y006413D02*
X009510Y006413D01*
X010118Y006554D02*
X010118Y006554D01*
X010220Y006532D02*
X011087Y006532D01*
X011087Y006413D02*
X010431Y006413D01*
X010429Y006416D02*
X010429Y006416D01*
X010406Y006439D02*
X010406Y006439D01*
X010233Y006531D02*
X010233Y006531D01*
X010549Y006295D02*
X011087Y006295D01*
X011087Y006176D02*
X010626Y006176D01*
X010671Y006058D02*
X011132Y006058D01*
X010683Y005939D02*
X011802Y005939D01*
X011709Y005821D02*
X010683Y005821D01*
X010668Y005702D02*
X011709Y005702D01*
X011709Y005584D02*
X010626Y005584D01*
X010614Y005465D02*
X011709Y005465D01*
X011761Y005347D02*
X010600Y005347D01*
X010504Y005228D02*
X011885Y005228D01*
X011885Y005110D02*
X010446Y005110D01*
X010522Y005034D02*
X010522Y005034D01*
X010568Y004988D02*
X010568Y004976D01*
X010591Y004953D01*
X010603Y004942D01*
X010603Y004930D01*
X010614Y004919D01*
X010614Y004907D01*
X010626Y004896D01*
X010626Y004884D01*
X010637Y004873D01*
X010672Y004754D02*
X011885Y004754D01*
X011885Y004636D02*
X010683Y004636D01*
X010683Y004517D02*
X011885Y004517D01*
X011885Y004399D02*
X010660Y004399D01*
X010614Y004280D02*
X011826Y004280D01*
X011707Y004162D02*
X010530Y004162D01*
X010429Y004060D02*
X010429Y004060D01*
X010412Y004043D02*
X011589Y004043D01*
X011470Y003925D02*
X010190Y003925D01*
X010325Y003980D02*
X010325Y003980D01*
X009810Y003925D02*
X009499Y003925D01*
X009510Y004043D02*
X009588Y004043D01*
X009595Y004037D02*
X009595Y004037D01*
X009416Y003806D02*
X011352Y003806D01*
X011233Y003688D02*
X007128Y003688D01*
X007208Y003569D02*
X011115Y003569D01*
X010996Y003451D02*
X007208Y003451D01*
X007208Y003332D02*
X010878Y003332D01*
X010759Y003214D02*
X007208Y003214D01*
X007208Y003095D02*
X010641Y003095D01*
X010568Y002977D02*
X007208Y002977D01*
X007142Y002858D02*
X010568Y002858D01*
X010568Y002740D02*
X006479Y002740D01*
X007267Y002621D02*
X010468Y002621D01*
X010350Y002503D02*
X007267Y002503D01*
X007267Y002384D02*
X010294Y002384D01*
X010258Y002266D02*
X007267Y002266D01*
X007267Y002147D02*
X010258Y002147D01*
X010282Y002029D02*
X007267Y002029D01*
X007198Y001910D02*
X010331Y001910D01*
X010438Y001792D02*
X006410Y001792D01*
X005481Y001792D02*
X005465Y001792D01*
X004536Y001792D02*
X001696Y001792D01*
X001696Y001673D02*
X010654Y001673D01*
X010922Y001673D02*
X011457Y001673D01*
X011338Y001792D02*
X011138Y001792D01*
X011245Y001910D02*
X011289Y001910D01*
X011282Y002384D02*
X011336Y002384D01*
X011226Y002503D02*
X011450Y002503D01*
X011682Y002621D02*
X011108Y002621D01*
X011008Y002740D02*
X014824Y002740D01*
X014824Y002858D02*
X011026Y002858D01*
X011144Y002977D02*
X014824Y002977D01*
X014824Y003095D02*
X011263Y003095D01*
X011381Y003214D02*
X014824Y003214D01*
X014824Y003332D02*
X011500Y003332D01*
X011618Y003451D02*
X014824Y003451D01*
X014824Y003569D02*
X011737Y003569D01*
X011855Y003688D02*
X014824Y003688D01*
X014824Y003806D02*
X011974Y003806D01*
X012092Y003925D02*
X014824Y003925D01*
X014824Y004043D02*
X012211Y004043D01*
X012325Y004162D02*
X014824Y004162D01*
X014824Y004280D02*
X012325Y004280D01*
X012325Y004399D02*
X014824Y004399D01*
X014824Y004517D02*
X012325Y004517D01*
X012325Y004636D02*
X014824Y004636D01*
X014824Y004754D02*
X012325Y004754D01*
X012325Y004873D02*
X014824Y004873D01*
X014824Y004991D02*
X012325Y004991D01*
X012325Y005110D02*
X014824Y005110D01*
X014824Y005228D02*
X012325Y005228D01*
X012105Y005623D02*
X012105Y004249D01*
X010788Y002932D01*
X010788Y002192D01*
X011894Y002621D02*
X013682Y002621D01*
X013894Y002621D02*
X014468Y002621D01*
X014350Y002503D02*
X014126Y002503D01*
X014240Y002384D02*
X014294Y002384D01*
X013450Y002503D02*
X012126Y002503D01*
X012240Y002384D02*
X013336Y002384D01*
X013287Y002266D02*
X012289Y002266D01*
X012318Y002147D02*
X013258Y002147D01*
X013258Y002029D02*
X012318Y002029D01*
X012287Y001910D02*
X013289Y001910D01*
X013338Y001792D02*
X012238Y001792D01*
X012119Y001673D02*
X013457Y001673D01*
X015226Y002503D02*
X015450Y002503D01*
X015336Y002384D02*
X015282Y002384D01*
X015224Y002621D02*
X015682Y002621D01*
X015894Y002621D02*
X016208Y002621D01*
X016182Y002503D02*
X016126Y002503D01*
X016240Y002740D02*
X015224Y002740D01*
X015224Y002858D02*
X016290Y002858D01*
X016358Y002977D02*
X015224Y002977D01*
X015224Y003095D02*
X016446Y003095D01*
X016564Y003214D02*
X015224Y003214D01*
X015224Y003332D02*
X016741Y003332D01*
X017056Y003451D02*
X015224Y003451D01*
X015224Y003569D02*
X017993Y003569D01*
X017993Y003451D02*
X017489Y003451D01*
X017803Y003332D02*
X017993Y003332D01*
X017980Y003214D02*
X017993Y003214D01*
X017993Y003688D02*
X015224Y003688D01*
X015224Y003806D02*
X017993Y003806D01*
X017993Y003925D02*
X015224Y003925D01*
X015224Y004043D02*
X017993Y004043D01*
X017993Y004162D02*
X015224Y004162D01*
X015224Y004280D02*
X017993Y004280D01*
X017993Y004399D02*
X015224Y004399D01*
X015224Y004517D02*
X017993Y004517D01*
X017993Y004636D02*
X015224Y004636D01*
X015224Y004754D02*
X017993Y004754D01*
X017993Y004873D02*
X015224Y004873D01*
X015224Y004991D02*
X017993Y004991D01*
X017993Y005110D02*
X015224Y005110D01*
X015224Y005228D02*
X017993Y005228D01*
X017993Y005347D02*
X015224Y005347D01*
X015224Y005465D02*
X017993Y005465D01*
X017993Y005584D02*
X015224Y005584D01*
X015224Y005702D02*
X017993Y005702D01*
X017993Y005821D02*
X015224Y005821D01*
X015224Y005939D02*
X017993Y005939D01*
X017993Y006058D02*
X015224Y006058D01*
X015224Y006176D02*
X017993Y006176D01*
X017993Y006295D02*
X015224Y006295D01*
X015224Y006413D02*
X015274Y006413D01*
X015594Y006413D02*
X017993Y006413D01*
X017993Y006532D02*
X015700Y006532D01*
X015734Y006650D02*
X017993Y006650D01*
X017993Y006769D02*
X015718Y006769D01*
X015642Y006887D02*
X016620Y006887D01*
X016620Y007006D02*
X015384Y007006D01*
X015389Y007124D02*
X016620Y007124D01*
X016620Y007243D02*
X015389Y007243D01*
X015389Y007361D02*
X016665Y007361D01*
X016457Y008428D02*
X016344Y008428D01*
X016344Y008546D02*
X016376Y008546D01*
X016344Y010205D02*
X016371Y010205D01*
X016371Y010324D02*
X016344Y010324D01*
X016344Y010442D02*
X016446Y010442D01*
X016344Y010561D02*
X017993Y010561D01*
X017993Y010679D02*
X016344Y010679D01*
X016344Y010798D02*
X016428Y010798D01*
X016386Y010916D02*
X016344Y010916D01*
X016344Y011035D02*
X016386Y011035D01*
X016732Y011627D02*
X016880Y011627D01*
X014402Y011035D02*
X014308Y011035D01*
X013867Y011035D02*
X013776Y011035D01*
X013335Y011035D02*
X013154Y011035D01*
X013223Y011153D02*
X013266Y011153D01*
X013256Y011272D02*
X013234Y011272D01*
X013196Y011390D02*
X013294Y011390D01*
X013424Y011509D02*
X013065Y011509D01*
X012828Y011627D02*
X013661Y011627D01*
X013724Y011746D02*
X012709Y011746D01*
X012591Y011864D02*
X013724Y011864D01*
X013724Y011983D02*
X012472Y011983D01*
X012394Y012101D02*
X013724Y012101D01*
X013008Y012220D02*
X012949Y012220D01*
X011674Y012101D02*
X011099Y012101D01*
X011144Y011983D02*
X011674Y011983D01*
X011674Y011864D02*
X011144Y011864D01*
X011144Y011746D02*
X011674Y011746D01*
X011674Y011627D02*
X011144Y011627D01*
X011144Y011509D02*
X011514Y011509D01*
X011384Y011390D02*
X011144Y011390D01*
X011144Y011272D02*
X011346Y011272D01*
X011357Y011153D02*
X011144Y011153D01*
X011144Y011035D02*
X011426Y011035D01*
X010244Y011390D02*
X008978Y011390D01*
X009097Y011509D02*
X010244Y011509D01*
X010244Y011627D02*
X009215Y011627D01*
X009216Y011746D02*
X010244Y011746D01*
X010244Y011864D02*
X009216Y011864D01*
X009216Y011983D02*
X010244Y011983D01*
X010288Y012101D02*
X009216Y012101D01*
X009316Y012220D02*
X011438Y012220D01*
X011359Y012338D02*
X009316Y012338D01*
X009316Y012457D02*
X011359Y012457D01*
X011359Y012575D02*
X009316Y012575D01*
X009249Y012694D02*
X011359Y012694D01*
X008816Y011983D02*
X006498Y011983D01*
X008158Y011864D02*
X008195Y011864D01*
X008814Y011864D02*
X008816Y011864D01*
X009016Y010679D02*
X009355Y010679D01*
X009237Y010561D02*
X009076Y010561D01*
X009080Y010442D02*
X009118Y010442D01*
X009064Y010324D02*
X009036Y010324D01*
X009064Y010205D02*
X008875Y010205D01*
X008685Y010205D02*
X008172Y010205D01*
X008172Y010087D02*
X009064Y010087D01*
X008868Y009968D02*
X008172Y009968D01*
X008172Y009850D02*
X008868Y009850D01*
X008868Y009731D02*
X008172Y009731D01*
X008172Y009613D02*
X008868Y009613D01*
X008900Y009494D02*
X008901Y009494D01*
X008901Y009376D02*
X010244Y009376D01*
X010233Y009494D02*
X010244Y009494D01*
X010244Y009257D02*
X008901Y009257D01*
X008901Y009139D02*
X010244Y009139D01*
X010244Y009020D02*
X008875Y009020D01*
X008172Y008902D02*
X010244Y008902D01*
X010244Y008783D02*
X008172Y008783D01*
X008172Y008665D02*
X009664Y008665D01*
X009545Y008546D02*
X007999Y008546D01*
X008017Y008428D02*
X009525Y008428D01*
X009525Y008309D02*
X007986Y008309D01*
X007889Y008191D02*
X009525Y008191D01*
X009525Y008072D02*
X008254Y008072D01*
X008126Y008072D02*
X007820Y008072D01*
X008434Y007954D02*
X009480Y007954D01*
X009426Y007835D02*
X008489Y007835D01*
X008490Y007717D02*
X009425Y007717D01*
X009476Y007598D02*
X008438Y007598D01*
X008668Y006650D02*
X006460Y006650D01*
X006460Y006532D02*
X008569Y006532D01*
X008546Y006413D02*
X006460Y006413D01*
X006460Y006295D02*
X008546Y006295D01*
X008569Y006176D02*
X006460Y006176D01*
X006460Y006058D02*
X008650Y006058D01*
X008604Y006000D02*
X008604Y006000D01*
X008569Y005939D02*
X006384Y005939D01*
X006342Y005821D02*
X008558Y005821D01*
X008558Y005702D02*
X006342Y005702D01*
X006342Y005584D02*
X008558Y005584D01*
X008580Y005465D02*
X006342Y005465D01*
X007083Y005347D02*
X008583Y005347D01*
X008558Y005228D02*
X007129Y005228D01*
X007129Y005110D02*
X008558Y005110D01*
X008569Y005097D02*
X008569Y005097D01*
X008581Y005085D02*
X008581Y005085D01*
X008607Y004991D02*
X007129Y004991D01*
X007129Y004873D02*
X008558Y004873D01*
X008558Y004754D02*
X007129Y004754D01*
X007129Y004636D02*
X008558Y004636D01*
X008558Y004517D02*
X007068Y004517D01*
X005017Y004280D02*
X004818Y004280D01*
X004937Y004162D02*
X005017Y004162D01*
X004467Y002740D02*
X003035Y002740D01*
X003035Y002621D02*
X003679Y002621D01*
X003679Y002503D02*
X003035Y002503D01*
X002947Y002384D02*
X003679Y002384D01*
X006899Y006887D02*
X007039Y006887D01*
X007006Y007006D02*
X006932Y007006D01*
X006932Y007124D02*
X007006Y007124D01*
X007006Y007243D02*
X006932Y007243D01*
X006932Y007361D02*
X007006Y007361D01*
X007006Y007480D02*
X006932Y007480D01*
X006865Y007598D02*
X006859Y007598D01*
X006370Y007598D02*
X006325Y007598D01*
X007111Y010356D02*
X006915Y010552D01*
X006915Y010615D01*
X006988Y010585D01*
X007065Y010585D01*
X007103Y010547D01*
X007281Y010547D01*
X007281Y010430D01*
X007356Y010356D01*
X007111Y010356D01*
X007025Y010442D02*
X007281Y010442D01*
X007088Y010561D02*
X006915Y010561D01*
X008124Y010324D02*
X008341Y010324D01*
X011144Y009968D02*
X011180Y009968D01*
X013964Y006887D02*
X014824Y006887D01*
X014824Y006769D02*
X013964Y006769D01*
X014418Y006650D02*
X014824Y006650D01*
X014824Y006532D02*
X014487Y006532D01*
X014487Y006413D02*
X014824Y006413D01*
X014824Y006295D02*
X014487Y006295D01*
X014487Y006176D02*
X014824Y006176D01*
X014824Y006058D02*
X014410Y006058D01*
X014824Y005939D02*
X013690Y005939D01*
X013711Y006058D02*
X013771Y006058D01*
X013772Y005821D02*
X014824Y005821D01*
X014824Y005702D02*
X013772Y005702D01*
X013772Y005584D02*
X014824Y005584D01*
X014824Y005465D02*
X013772Y005465D01*
X013709Y005347D02*
X014824Y005347D01*
X013061Y005939D02*
X013044Y005939D01*
X013040Y006058D02*
X012451Y006058D01*
X012434Y005939D02*
X012408Y005939D01*
X012501Y006176D02*
X012979Y006176D01*
X012979Y006295D02*
X012501Y006295D01*
X012501Y006413D02*
X012979Y006413D01*
X012979Y006532D02*
X012501Y006532D01*
D127*
X012105Y006331D02*
X011489Y006331D01*
X011484Y006326D01*
X011564Y006407D01*
X011564Y007456D01*
X011724Y007456D02*
X011724Y007913D01*
X011473Y008164D01*
X011760Y008455D02*
X011875Y008341D01*
X011875Y007456D01*
X011874Y007456D01*
X012034Y007456D02*
X012034Y008863D01*
X012075Y008865D01*
X012371Y008448D02*
X012371Y008101D01*
X012501Y007971D01*
X012501Y007459D01*
X012504Y007456D01*
X012664Y007456D02*
X012664Y008150D01*
X012717Y008203D01*
X012985Y008180D02*
X012985Y007457D01*
X012984Y007456D01*
X013130Y007459D02*
X013134Y007456D01*
X013130Y007459D02*
X013130Y008003D01*
X013465Y008337D01*
X013465Y008601D01*
X013048Y008428D02*
X013048Y008243D01*
X012985Y008180D01*
X013604Y007913D02*
X013623Y007932D01*
X013604Y007913D02*
X013604Y007456D01*
X013764Y007456D02*
X013764Y006685D01*
X014091Y006358D01*
X013376Y006342D02*
X013294Y006424D01*
X013294Y007456D01*
X015024Y007456D02*
X015024Y002428D01*
X014788Y002192D01*
X013376Y005634D02*
X012748Y005634D01*
X012739Y005625D01*
X012715Y005648D01*
X012520Y005648D01*
X012481Y005609D01*
X012205Y005609D01*
X012127Y005609D01*
X012105Y005623D02*
X012191Y005623D01*
X012205Y005609D01*
X010591Y007774D02*
X010694Y007877D01*
X010694Y008166D01*
X010694Y008325D02*
X010694Y008326D01*
X010694Y008325D02*
X010237Y008325D01*
X010158Y008247D01*
X010158Y007774D01*
X009725Y007774D02*
X009725Y008444D01*
X009767Y008486D01*
X010694Y008486D01*
X010694Y009116D02*
X011460Y009116D01*
X011615Y009270D01*
X011221Y009388D02*
X011221Y009585D01*
X011379Y009743D01*
X011221Y009388D02*
X011098Y009266D01*
X010694Y009266D01*
X009882Y009743D02*
X009873Y009752D01*
X009871Y009752D01*
X009686Y009724D01*
X009686Y010255D01*
X009797Y010366D01*
X010694Y010366D01*
X010694Y010526D02*
X009484Y010526D01*
X009264Y010306D01*
X009264Y009751D01*
X008780Y010491D02*
X008457Y010491D01*
X008398Y010550D01*
X007727Y010550D01*
X007727Y010747D02*
X007186Y010747D01*
X007048Y010885D01*
X006615Y010570D02*
X007028Y010156D01*
X007727Y010156D01*
X007727Y009959D02*
X006753Y009959D01*
X006615Y010097D01*
X006792Y009762D02*
X006615Y009585D01*
X006792Y009762D02*
X007727Y009762D01*
X007727Y009566D02*
X007225Y009566D01*
X006772Y009113D01*
X006615Y009113D01*
X006615Y008640D02*
X007146Y009172D01*
X007727Y009172D01*
X007727Y009369D02*
X008327Y009369D01*
X008504Y009270D01*
X007727Y008975D02*
X007304Y008975D01*
X007205Y008877D01*
X007205Y008404D01*
X007835Y007774D01*
X008190Y007774D01*
X007678Y007577D02*
X007678Y007381D01*
X007835Y007223D01*
X007678Y007577D02*
X007205Y008050D01*
X006999Y008050D01*
X006989Y008040D01*
X006792Y008040D02*
X006792Y007636D01*
X006812Y007617D01*
X006969Y007617D01*
X006969Y007538D01*
X007323Y007302D02*
X007323Y007223D01*
X006615Y007223D02*
X006595Y007282D01*
X006595Y008040D01*
X006398Y008040D02*
X006398Y007636D01*
X006379Y007617D01*
X006201Y008040D02*
X006201Y009014D01*
X005512Y009703D01*
X006182Y010373D01*
X006182Y011003D01*
X006024Y011475D02*
X006004Y011495D01*
X006004Y012469D01*
X005808Y012469D02*
X005808Y011912D01*
X005686Y011790D01*
X005670Y011790D01*
X006001Y011534D02*
X006024Y011510D01*
X006024Y011475D01*
X005512Y011121D02*
X005355Y011278D01*
X005079Y011554D02*
X005020Y011613D01*
X004233Y012007D02*
X004213Y011987D01*
X004233Y012007D02*
X004233Y012469D01*
X004233Y012951D01*
X004213Y012971D01*
X005197Y013286D02*
X005197Y013365D01*
X005197Y013286D02*
X005217Y013266D01*
X005217Y012469D01*
X006201Y012469D02*
X006201Y013306D01*
X006142Y013365D01*
X006595Y012873D02*
X006615Y012892D01*
X006595Y012873D02*
X006595Y012469D01*
X006595Y012046D01*
X006575Y012026D01*
X007727Y011534D02*
X008485Y011534D01*
X008504Y011554D01*
X008859Y011554D01*
X009016Y011711D01*
X009016Y012420D01*
X008308Y011156D02*
X008292Y011140D01*
X007727Y011140D01*
X007727Y010944D02*
X008414Y010944D01*
X008466Y010996D01*
X010694Y010996D01*
X010693Y011156D02*
X010694Y011156D01*
X010693Y011156D02*
X008308Y011156D01*
X008130Y010353D02*
X007727Y010353D01*
X007343Y010353D01*
X007245Y010491D01*
X008130Y010353D02*
X008229Y010255D01*
X007727Y008778D02*
X007727Y008453D01*
X007717Y008444D01*
X005512Y009703D02*
X004587Y008778D01*
X003298Y008778D01*
X003298Y008975D02*
X002186Y008975D01*
X002087Y008877D01*
X002205Y009388D02*
X002087Y009507D01*
X002205Y009388D02*
X002363Y009388D01*
X002579Y009172D01*
X003298Y009172D01*
X004075Y009172D01*
X004410Y009507D01*
X004410Y009664D01*
X003938Y009664D02*
X003938Y009507D01*
X003800Y009369D01*
X003298Y009369D01*
X003298Y008975D02*
X004351Y008975D01*
X004882Y009507D01*
X004882Y009664D01*
X005001Y008680D02*
X005020Y008660D01*
X005020Y008040D01*
X004823Y008040D02*
X004823Y007636D01*
X004804Y007617D01*
X004430Y007440D02*
X003977Y006987D01*
X002382Y006987D01*
X002107Y006711D01*
X002087Y006692D01*
X002087Y006042D01*
X002402Y007144D02*
X001733Y007144D01*
X001575Y007302D01*
X001575Y007440D01*
X001438Y007577D01*
X001438Y008188D01*
X001379Y008247D01*
X001379Y008877D02*
X001379Y009507D01*
X001379Y010136D01*
X002087Y010136D02*
X002087Y010727D01*
X002117Y010757D01*
X002117Y011662D01*
X001861Y011662D02*
X001861Y011209D01*
X001379Y010727D01*
X002077Y010737D02*
X002087Y010727D01*
X002402Y010688D02*
X002402Y011987D01*
X002323Y012066D01*
X002323Y013562D01*
X002402Y013640D01*
X002402Y014625D01*
X002717Y014940D01*
X004056Y014940D01*
X004213Y014782D01*
X004016Y014388D02*
X004213Y014192D01*
X004056Y014349D01*
X004016Y014388D02*
X002914Y014388D01*
X002638Y014113D01*
X002638Y013601D01*
X002520Y013483D01*
X002520Y012184D01*
X002599Y012105D01*
X002599Y010806D01*
X002658Y010747D01*
X003298Y010747D01*
X003298Y010550D02*
X002540Y010550D01*
X002402Y010688D01*
X002776Y010353D02*
X002638Y010215D01*
X002638Y009822D01*
X002776Y010353D02*
X003298Y010353D01*
X003298Y011337D02*
X003682Y011337D01*
X003701Y011357D01*
X003426Y011357D01*
X003298Y011534D02*
X002934Y011534D01*
X002796Y011672D01*
X002796Y012892D01*
X003190Y013286D01*
X003190Y013365D01*
X001890Y012341D02*
X001861Y012312D01*
X001861Y011662D01*
X001605Y011662D02*
X001605Y012646D01*
X001615Y012656D01*
X001349Y013001D02*
X001339Y013010D01*
X001300Y012971D01*
X001349Y013001D02*
X001349Y011662D01*
X001349Y013965D02*
X001379Y013995D01*
X001379Y014703D01*
X004922Y014782D02*
X005453Y014782D01*
X005453Y014192D02*
X004922Y014192D01*
X011379Y014073D02*
X012048Y014073D01*
X012166Y013955D01*
X012323Y013798D01*
X012560Y013798D01*
X013134Y013224D01*
X013134Y012656D01*
X012984Y012656D02*
X012984Y012254D01*
X012953Y012223D01*
X013294Y012656D02*
X013294Y013434D01*
X013142Y013585D01*
X013142Y014302D01*
X013741Y014900D01*
X014410Y014900D01*
X014528Y014782D01*
X015200Y014076D02*
X014686Y013562D01*
X013623Y013562D01*
X013454Y013393D01*
X013454Y012656D01*
X013924Y012656D02*
X013924Y011607D01*
X013556Y011239D01*
X014087Y011239D02*
X014084Y011569D01*
X014084Y012656D01*
X014554Y012656D02*
X014554Y013036D01*
X015316Y013798D01*
X015553Y013798D01*
X015831Y014076D01*
X015024Y012656D02*
X015024Y012655D01*
X015024Y011853D01*
X015182Y011696D01*
X015182Y011239D01*
X015406Y010995D02*
X015182Y010770D01*
X015182Y010727D01*
X015406Y010995D02*
X015893Y010995D01*
X015894Y010996D01*
X015894Y011156D02*
X016343Y011156D01*
X016379Y011121D01*
X016379Y011042D01*
X016418Y011003D01*
X016693Y011152D02*
X016705Y011136D01*
X016704Y011142D02*
X016693Y011152D01*
X016704Y011142D02*
X016681Y011316D01*
X015894Y011316D01*
X015894Y011786D02*
X016481Y011786D01*
X016587Y011892D01*
X017024Y011892D02*
X017024Y012133D01*
X016922Y012235D01*
X016183Y012235D01*
X015894Y011946D01*
X015896Y011948D01*
X014863Y011479D02*
X014863Y012655D01*
X014864Y012656D01*
X014863Y011479D02*
X014623Y011239D01*
X013095Y010251D02*
X012441Y010904D01*
X012441Y011239D01*
X012934Y011239D02*
X012194Y011979D01*
X012194Y012656D01*
X012034Y012656D02*
X012028Y012650D01*
X012028Y010215D01*
X011646Y011239D02*
X011874Y011466D01*
X011874Y012656D01*
X015434Y009743D02*
X015437Y009746D01*
X015894Y009746D01*
X015894Y009896D02*
X016677Y009896D01*
X016689Y010065D01*
X016693Y010061D01*
X016690Y010073D01*
X015894Y008956D02*
X015434Y008956D01*
X015434Y008955D01*
X015894Y008796D02*
X016678Y008796D01*
X016694Y008812D01*
X016694Y008798D01*
X016693Y008798D01*
X016652Y008166D02*
X015894Y008166D01*
X016652Y008166D02*
X017016Y007802D01*
X017016Y007093D02*
X017656Y007093D01*
X017670Y007107D01*
X015434Y006672D02*
X015184Y006922D01*
X015184Y007456D01*
X005473Y003955D02*
X005473Y003355D01*
X005217Y003355D02*
X005217Y008040D01*
X005414Y008040D02*
X005414Y004014D01*
X005473Y003955D01*
X002402Y007144D02*
X002441Y007184D01*
X003898Y007184D01*
X004233Y007518D01*
X004233Y008040D01*
X004430Y008040D02*
X004430Y007440D01*
X004823Y008040D02*
X004823Y008463D01*
X004843Y008483D01*
D128*
X005001Y008680D03*
X005473Y008680D03*
X006615Y008640D03*
X006615Y009113D03*
X006615Y009585D03*
X006615Y010097D03*
X006615Y010570D03*
X007048Y010885D03*
X006024Y011475D03*
X005670Y011790D03*
X005512Y010412D03*
X004882Y009664D03*
X004410Y009664D03*
X003938Y009664D03*
X002599Y008522D03*
X003426Y007696D03*
X002087Y007617D03*
X001418Y006711D03*
X004922Y007459D03*
X006024Y007223D03*
X007717Y008444D03*
X008190Y007774D03*
X007835Y007223D03*
X009725Y007774D03*
X010158Y007774D03*
X010591Y007774D03*
X011473Y008164D03*
X011760Y008455D03*
X012075Y008865D03*
X012371Y008448D03*
X012717Y008203D03*
X013048Y008428D03*
X013465Y008601D03*
X011615Y009270D03*
X011379Y009743D03*
X012028Y010215D03*
X013095Y010251D03*
X012934Y011239D03*
X012441Y011239D03*
X011646Y011239D03*
X013556Y011239D03*
X014087Y011239D03*
X014623Y011239D03*
X015182Y011239D03*
X015182Y010727D03*
X016587Y011892D03*
X017024Y011892D03*
X016693Y014231D03*
X017363Y015058D03*
X012402Y013444D03*
X008780Y010491D03*
X008504Y012774D03*
X003229Y012066D03*
X001890Y012341D03*
X001615Y012656D03*
X001339Y013010D03*
X002087Y014703D03*
X015434Y006672D03*
X003347Y003286D03*
X001772Y003286D03*
D129*
X004587Y004940D02*
X004587Y005589D01*
X004607Y005570D01*
X004607Y006396D01*
X004627Y006416D01*
X004627Y008040D01*
X004804Y007617D02*
X004804Y007341D01*
X004922Y007459D01*
X005611Y008040D02*
X005611Y006810D01*
X006024Y006396D01*
X006024Y005570D01*
X006044Y005550D01*
X006044Y004940D01*
X006182Y011003D02*
X005630Y011003D01*
X005355Y011278D01*
X005020Y011613D01*
X004902Y011731D01*
X003298Y011731D01*
X006197Y011987D02*
X006197Y012465D01*
X006201Y012469D01*
X006197Y011987D02*
X006418Y011766D01*
X006418Y011199D01*
X006221Y011003D01*
X006182Y011003D01*
D130*
X008504Y009270D03*
X009882Y009743D03*
X009016Y012420D03*
X006300Y014192D03*
X006300Y014782D03*
X005197Y013365D03*
X003190Y013365D03*
X001379Y014703D03*
X002638Y009822D03*
X001379Y009507D03*
X002087Y005018D03*
X003898Y004940D03*
X006733Y004940D03*
X007323Y007302D03*
X012107Y006341D03*
X014095Y006357D03*
X016693Y008798D03*
X016690Y010073D03*
X016705Y011136D03*
D131*
X014095Y006357D02*
X014091Y006357D01*
X014091Y006358D01*
X012107Y006331D02*
X012107Y006341D01*
X012105Y006331D02*
X012107Y006331D01*
X006733Y004940D02*
X006713Y004940D01*
X004961Y003798D02*
X004961Y003355D01*
X004961Y003798D02*
X004646Y004113D01*
X003780Y004113D01*
X003347Y003680D01*
X003347Y003286D01*
X003347Y003247D01*
X002953Y003247D01*
X002481Y003719D01*
X001536Y003719D01*
X001392Y003863D01*
X001392Y004304D01*
X001902Y004304D02*
X002152Y004304D01*
X002152Y004953D01*
X002087Y005018D01*
X003898Y004940D02*
X003918Y004940D01*
X002953Y003247D02*
X002638Y002932D01*
X002638Y002696D01*
X002264Y002696D01*
X002152Y002584D01*
X001392Y002584D02*
X001392Y001922D01*
X001379Y001908D01*
X006280Y014192D02*
X006300Y014192D01*
X006280Y014782D02*
X006300Y014782D01*
D132*
X010414Y004893D02*
X010414Y004283D01*
M02*
