%
M48
M72
T01C0.0120
T02C0.0276
T03C0.0354
T04C0.0440
T05C0.1260
%
T01
X967Y731
X967Y1007
X967Y1282
X967Y1558
X967Y1834
X967Y2109
X967Y2385
X967Y2621
X967Y2897
X967Y3172
X967Y3448
X967Y3684
X967Y3960
X967Y4235
X967Y4511
X967Y4786
X967Y5062
X967Y5337
X967Y5613
X967Y5889
X967Y6164
X967Y6440
X967Y6715
X967Y6991
X967Y7267
X967Y7542
X967Y7818
X967Y8093
X967Y8369
X967Y8645
X967Y8920
X967Y9196
X967Y9432
X967Y9708
X967Y9983
X967Y10259
X967Y10534
X967Y10810
X967Y11086
X967Y11361
X967Y11597
X967Y11873
X967Y12149
X967Y12424
X967Y12700
X967Y12975
X967Y13251
X967Y13487
X967Y13763
X967Y14038
X3093Y13999
X3369Y13999
X3645Y13999
X3920Y13999
X4196Y13999
X4471Y13999
X4747Y13999
X5023Y13999
X5298Y13999
X5574Y13999
X5849Y13999
X6125Y13999
X6400Y13999
X6676Y13999
X6676Y13723
X6676Y13448
X6676Y13172
X6676Y12897
X6676Y12621
X6676Y12345
X6676Y12070
X6676Y11794
X6676Y11519
X6676Y11243
X6676Y10967
X6676Y10692
X6676Y10416
X6676Y10141
X6676Y9865
X6676Y9589
X6676Y9314
X6676Y9038
X6676Y8763
X6676Y8487
X6952Y8487
X7227Y8487
X7503Y8487
X7778Y8487
X8054Y8487
X8330Y8487
X8605Y8487
X8330Y7975
X7700Y7503
X6637Y6361
X5416Y6952
X6637Y5141
X8093Y4826
X7700Y3054
X10298Y3093
X10298Y2818
X10298Y2542
X10298Y2267
X10692Y2267
X10692Y2542
X10692Y2818
X10692Y3093
X10692Y3369
X10692Y3645
X10298Y3645
X10298Y3369
X10298Y4038
X10298Y4393
X10298Y4668
X10298Y4944
X10298Y5219
X10298Y5495
X10298Y5771
X10298Y6046
X10298Y6322
X10298Y6597
X10298Y6873
X10298Y7149
X10298Y7424
X10298Y7700
X10298Y7936
X10298Y8211
X10298Y8448
X10416Y8920
X10416Y9196
X10416Y9471
X10416Y9747
X10416Y10023
X10416Y10298
X10416Y10574
X10416Y10849
X11637Y10023
X12030Y9511
X12503Y9078
X11637Y9038
X11243Y8448
X10692Y7424
X10692Y7149
X10692Y6873
X10692Y6597
X10692Y6322
X10692Y6046
X10692Y5771
X10692Y5495
X10692Y5219
X10692Y4944
X10692Y4668
X10692Y4393
X11952Y4038
X12491Y3595
X14320Y5121
X15180Y4481
X17700Y4393
X17700Y4668
X17700Y4944
X17700Y5219
X17700Y5495
X17700Y5771
X17700Y6046
X17700Y6322
X17700Y6597
X17700Y6873
X17700Y7149
X17700Y7424
X17700Y7700
X17700Y7975
X17700Y8251
X17700Y8526
X17700Y8802
X17700Y9078
X17700Y9353
X17700Y9629
X17700Y9904
X17700Y10180
X17700Y10456
X17700Y10731
X17700Y11007
X17700Y11282
X17700Y11558
X17700Y11834
X17700Y12109
X17700Y12385
X17700Y12660
X17700Y12936
X17700Y13211
X17700Y13487
X17700Y13763
X17700Y14038
X17424Y14038
X17149Y14038
X16873Y14038
X16597Y14038
X16322Y14038
X16046Y14038
X15771Y14038
X15495Y14038
X14038Y12385
X13526Y12385
X13015Y12385
X12267Y12542
X11243Y13566
X10603Y13141
X8330Y11204
X7345Y9511
X4826Y10731
X5967Y12227
X5574Y12818
X12936Y9865
X13645Y9904
X14117Y9432
X13566Y9078
X14668Y8920
X15456Y9629
X14904Y9904
X14983Y10377
X16183Y7138
X17700Y4117
X17700Y3841
X17700Y3566
X17700Y3290
X17700Y3015
X17700Y2739
X17700Y2463
X16086Y731
X15810Y731
X15534Y731
X15259Y731
X14983Y731
X14708Y731
X14432Y731
X14156Y731
X13881Y731
X13605Y731
X13330Y731
X13054Y731
X12778Y731
X12503Y731
X12267Y731
X11991Y731
X11755Y731
X11479Y731
X11204Y731
X10967Y731
X10692Y731
X10692Y1007
X10692Y1282
X10298Y1282
X10298Y1007
X10298Y731
X10062Y731
X9826Y731
X9589Y731
X9353Y731
X9117Y731
X8841Y731
X8566Y731
X8290Y731
X8015Y731
X7739Y731
X7463Y731
X7188Y731
X6912Y731
X6637Y731
X6361Y731
X6086Y731
X5810Y731
X5534Y731
X5259Y731
X4983Y731
X4708Y731
X4432Y731
X4156Y731
X3881Y731
X3290Y3369
T02
X15771Y12385
T03
X11282Y12385
T04
X1991Y12519
X1991Y11519
X1991Y9975
X1991Y8975
X1991Y7975
X1991Y6432
X1991Y5432
X1991Y4432
X1991Y2889
X1991Y1889
X1991Y889
X1991Y13519
T05
X17070Y1361
M30
